%FSLAX45Y45*%
G04 Gerber Fmt 4.5, Leading zero omitted, Abs format (unit mm)*
G04 Created by KiCad (PCBNEW 5.1.9-73d0e3b20d~88~ubuntu20.04.1) date 2021-10-14 18:03:12*
%MOMM*%
%LPD*%
G01*
G04 APERTURE LIST*
%TA.AperFunction,Profile*%
%ADD10C,0.076200*%
%TD*%
%ADD11C,0.200000*%
%ADD12C,0.300000*%
G04 APERTURE END LIST*
D10*
X17400000Y-5400000D02*
X17400000Y-13400000D01*
X5400000Y-13800000D02*
X17000000Y-13800000D01*
X5400000Y-13800000D02*
G75*
G02*
X5000000Y-13400000I0J400000D01*
G01*
X5000000Y-5400000D02*
G75*
G02*
X5400000Y-5000000I400000J0D01*
G01*
X17000000Y-5000000D02*
G75*
G02*
X17400000Y-5400000I0J-400000D01*
G01*
X17400000Y-13400000D02*
G75*
G02*
X17000000Y-13800000I-400000J0D01*
G01*
X5000000Y-5400000D02*
X5000000Y-13400000D01*
X17000000Y-5000000D02*
X5400000Y-5000000D01*
D11*
X5125000Y-11975000D02*
X5175000Y-12025000D01*
X5175000Y-11975000D02*
X5125000Y-12025000D01*
X5125000Y-12225000D02*
X5175000Y-12275000D01*
X5175000Y-12225000D02*
X5125000Y-12275000D01*
X5125000Y-12475000D02*
X5175000Y-12525000D01*
X5175000Y-12475000D02*
X5125000Y-12525000D01*
X5125000Y-12725000D02*
X5175000Y-12775000D01*
X5175000Y-12725000D02*
X5125000Y-12775000D01*
X5125000Y-12925000D02*
X5175000Y-12975000D01*
X5175000Y-12925000D02*
X5125000Y-12975000D01*
X5135000Y-5375000D02*
X5185000Y-5425000D01*
X5185000Y-5375000D02*
X5135000Y-5425000D01*
X5135000Y-13375000D02*
X5185000Y-13425000D01*
X5185000Y-13375000D02*
X5135000Y-13425000D01*
X5205294Y-5205294D02*
X5255294Y-5255294D01*
X5255294Y-5205294D02*
X5205294Y-5255294D01*
X5205294Y-5544706D02*
X5255294Y-5594706D01*
X5255294Y-5544706D02*
X5205294Y-5594706D01*
X5205294Y-13205294D02*
X5255294Y-13255294D01*
X5255294Y-13205294D02*
X5205294Y-13255294D01*
X5205294Y-13544706D02*
X5255294Y-13594706D01*
X5255294Y-13544706D02*
X5205294Y-13594706D01*
X5335000Y-10755000D02*
X5385000Y-10805000D01*
X5385000Y-10755000D02*
X5335000Y-10805000D01*
X5375000Y-5135000D02*
X5425000Y-5185000D01*
X5425000Y-5135000D02*
X5375000Y-5185000D01*
X5375000Y-5615000D02*
X5425000Y-5665000D01*
X5425000Y-5615000D02*
X5375000Y-5665000D01*
X5375000Y-11975000D02*
X5425000Y-12025000D01*
X5425000Y-11975000D02*
X5375000Y-12025000D01*
X5375000Y-12225000D02*
X5425000Y-12275000D01*
X5425000Y-12225000D02*
X5375000Y-12275000D01*
X5375000Y-12475000D02*
X5425000Y-12525000D01*
X5425000Y-12475000D02*
X5375000Y-12525000D01*
X5375000Y-12725000D02*
X5425000Y-12775000D01*
X5425000Y-12725000D02*
X5375000Y-12775000D01*
X5375000Y-12925000D02*
X5425000Y-12975000D01*
X5425000Y-12925000D02*
X5375000Y-12975000D01*
X5375000Y-13135000D02*
X5425000Y-13185000D01*
X5425000Y-13135000D02*
X5375000Y-13185000D01*
X5375000Y-13615000D02*
X5425000Y-13665000D01*
X5425000Y-13615000D02*
X5375000Y-13665000D01*
X5544706Y-5205294D02*
X5594706Y-5255294D01*
X5594706Y-5205294D02*
X5544706Y-5255294D01*
X5544706Y-5544706D02*
X5594706Y-5594706D01*
X5594706Y-5544706D02*
X5544706Y-5594706D01*
X5544706Y-13205294D02*
X5594706Y-13255294D01*
X5594706Y-13205294D02*
X5544706Y-13255294D01*
X5544706Y-13544706D02*
X5594706Y-13594706D01*
X5594706Y-13544706D02*
X5544706Y-13594706D01*
X5615000Y-5375000D02*
X5665000Y-5425000D01*
X5665000Y-5375000D02*
X5615000Y-5425000D01*
X5615000Y-10755000D02*
X5665000Y-10805000D01*
X5665000Y-10755000D02*
X5615000Y-10805000D01*
X5615000Y-13375000D02*
X5665000Y-13425000D01*
X5665000Y-13375000D02*
X5615000Y-13425000D01*
X5775000Y-10755000D02*
X5825000Y-10805000D01*
X5825000Y-10755000D02*
X5775000Y-10805000D01*
X5975000Y-10755000D02*
X6025000Y-10805000D01*
X6025000Y-10755000D02*
X5975000Y-10805000D01*
X5975000Y-12975000D02*
X6025000Y-13025000D01*
X6025000Y-12975000D02*
X5975000Y-13025000D01*
X5975000Y-13225000D02*
X6025000Y-13275000D01*
X6025000Y-13225000D02*
X5975000Y-13275000D01*
X5975000Y-13475000D02*
X6025000Y-13525000D01*
X6025000Y-13475000D02*
X5975000Y-13525000D01*
X5975000Y-13675000D02*
X6025000Y-13725000D01*
X6025000Y-13675000D02*
X5975000Y-13725000D01*
X6053000Y-11589000D02*
X6103000Y-11639000D01*
X6103000Y-11589000D02*
X6053000Y-11639000D01*
X6130000Y-10755000D02*
X6180000Y-10805000D01*
X6180000Y-10755000D02*
X6130000Y-10805000D01*
X6207000Y-11589000D02*
X6257000Y-11639000D01*
X6257000Y-11589000D02*
X6207000Y-11639000D01*
X6225000Y-12975000D02*
X6275000Y-13025000D01*
X6275000Y-12975000D02*
X6225000Y-13025000D01*
X6225000Y-13225000D02*
X6275000Y-13275000D01*
X6275000Y-13225000D02*
X6225000Y-13275000D01*
X6225000Y-13475000D02*
X6275000Y-13525000D01*
X6275000Y-13475000D02*
X6225000Y-13525000D01*
X6225000Y-13675000D02*
X6275000Y-13725000D01*
X6275000Y-13675000D02*
X6225000Y-13725000D01*
X6475000Y-11975000D02*
X6525000Y-12025000D01*
X6525000Y-11975000D02*
X6475000Y-12025000D01*
X6475000Y-12225000D02*
X6525000Y-12275000D01*
X6525000Y-12225000D02*
X6475000Y-12275000D01*
X6475000Y-12475000D02*
X6525000Y-12525000D01*
X6525000Y-12475000D02*
X6475000Y-12525000D01*
X6475000Y-12725000D02*
X6525000Y-12775000D01*
X6525000Y-12725000D02*
X6475000Y-12775000D01*
X6475000Y-12975000D02*
X6525000Y-13025000D01*
X6525000Y-12975000D02*
X6475000Y-13025000D01*
X6475000Y-13225000D02*
X6525000Y-13275000D01*
X6525000Y-13225000D02*
X6475000Y-13275000D01*
X6475000Y-13475000D02*
X6525000Y-13525000D01*
X6525000Y-13475000D02*
X6475000Y-13525000D01*
X6475000Y-13675000D02*
X6525000Y-13725000D01*
X6525000Y-13675000D02*
X6475000Y-13725000D01*
X6675000Y-11975000D02*
X6725000Y-12025000D01*
X6725000Y-11975000D02*
X6675000Y-12025000D01*
X6675000Y-12225000D02*
X6725000Y-12275000D01*
X6725000Y-12225000D02*
X6675000Y-12275000D01*
X6675000Y-12475000D02*
X6725000Y-12525000D01*
X6725000Y-12475000D02*
X6675000Y-12525000D01*
X6675000Y-12725000D02*
X6725000Y-12775000D01*
X6725000Y-12725000D02*
X6675000Y-12775000D01*
X6675000Y-12975000D02*
X6725000Y-13025000D01*
X6725000Y-12975000D02*
X6675000Y-13025000D01*
X6675000Y-13225000D02*
X6725000Y-13275000D01*
X6725000Y-13225000D02*
X6675000Y-13275000D01*
X6675000Y-13475000D02*
X6725000Y-13525000D01*
X6725000Y-13475000D02*
X6675000Y-13525000D01*
X6675000Y-13675000D02*
X6725000Y-13725000D01*
X6725000Y-13675000D02*
X6675000Y-13725000D01*
X6925000Y-11975000D02*
X6975000Y-12025000D01*
X6975000Y-11975000D02*
X6925000Y-12025000D01*
X6925000Y-12225000D02*
X6975000Y-12275000D01*
X6975000Y-12225000D02*
X6925000Y-12275000D01*
X6925000Y-12475000D02*
X6975000Y-12525000D01*
X6975000Y-12475000D02*
X6925000Y-12525000D01*
X7175000Y-11975000D02*
X7225000Y-12025000D01*
X7225000Y-11975000D02*
X7175000Y-12025000D01*
X7175000Y-12225000D02*
X7225000Y-12275000D01*
X7225000Y-12225000D02*
X7175000Y-12275000D01*
X7175000Y-12475000D02*
X7225000Y-12525000D01*
X7225000Y-12475000D02*
X7175000Y-12525000D01*
X7275000Y-6375000D02*
X7325000Y-6425000D01*
X7325000Y-6375000D02*
X7275000Y-6425000D01*
X7275000Y-6725000D02*
X7325000Y-6775000D01*
X7325000Y-6725000D02*
X7275000Y-6775000D01*
X7275000Y-7075000D02*
X7325000Y-7125000D01*
X7325000Y-7075000D02*
X7275000Y-7125000D01*
X7425000Y-11975000D02*
X7475000Y-12025000D01*
X7475000Y-11975000D02*
X7425000Y-12025000D01*
X7425000Y-12225000D02*
X7475000Y-12275000D01*
X7475000Y-12225000D02*
X7425000Y-12275000D01*
X7425000Y-12475000D02*
X7475000Y-12525000D01*
X7475000Y-12475000D02*
X7425000Y-12525000D01*
X7595000Y-9375000D02*
X7645000Y-9425000D01*
X7645000Y-9375000D02*
X7595000Y-9425000D01*
X7700000Y-6375000D02*
X7750000Y-6425000D01*
X7750000Y-6375000D02*
X7700000Y-6425000D01*
X7700000Y-6725000D02*
X7750000Y-6775000D01*
X7750000Y-6725000D02*
X7700000Y-6775000D01*
X7700000Y-7075000D02*
X7750000Y-7125000D01*
X7750000Y-7075000D02*
X7700000Y-7125000D01*
X8125000Y-6375000D02*
X8175000Y-6425000D01*
X8175000Y-6375000D02*
X8125000Y-6425000D01*
X8125000Y-6725000D02*
X8175000Y-6775000D01*
X8175000Y-6725000D02*
X8125000Y-6775000D01*
X8125000Y-7075000D02*
X8175000Y-7125000D01*
X8175000Y-7075000D02*
X8125000Y-7125000D01*
X8175000Y-7675000D02*
X8225000Y-7725000D01*
X8225000Y-7675000D02*
X8175000Y-7725000D01*
X8175000Y-7975000D02*
X8225000Y-8025000D01*
X8225000Y-7975000D02*
X8175000Y-8025000D01*
X8375000Y-9325000D02*
X8425000Y-9375000D01*
X8425000Y-9325000D02*
X8375000Y-9375000D01*
X8475000Y-6375000D02*
X8525000Y-6425000D01*
X8525000Y-6375000D02*
X8475000Y-6425000D01*
X8475000Y-6725000D02*
X8525000Y-6775000D01*
X8525000Y-6725000D02*
X8475000Y-6775000D01*
X8475000Y-7075000D02*
X8525000Y-7125000D01*
X8525000Y-7075000D02*
X8475000Y-7125000D01*
X8900000Y-6375000D02*
X8950000Y-6425000D01*
X8950000Y-6375000D02*
X8900000Y-6425000D01*
X8900000Y-6725000D02*
X8950000Y-6775000D01*
X8950000Y-6725000D02*
X8900000Y-6775000D01*
X8900000Y-7075000D02*
X8950000Y-7125000D01*
X8950000Y-7075000D02*
X8900000Y-7125000D01*
X9225000Y-10850000D02*
X9275000Y-10900000D01*
X9275000Y-10850000D02*
X9225000Y-10900000D01*
X9225000Y-10975000D02*
X9275000Y-11025000D01*
X9275000Y-10975000D02*
X9225000Y-11025000D01*
X9225000Y-11100000D02*
X9275000Y-11150000D01*
X9275000Y-11100000D02*
X9225000Y-11150000D01*
X9225000Y-11225000D02*
X9275000Y-11275000D01*
X9275000Y-11225000D02*
X9225000Y-11275000D01*
X9325000Y-6375000D02*
X9375000Y-6425000D01*
X9375000Y-6375000D02*
X9325000Y-6425000D01*
X9325000Y-6725000D02*
X9375000Y-6775000D01*
X9375000Y-6725000D02*
X9325000Y-6775000D01*
X9325000Y-7075000D02*
X9375000Y-7125000D01*
X9375000Y-7075000D02*
X9325000Y-7125000D01*
X9375000Y-7675000D02*
X9425000Y-7725000D01*
X9425000Y-7675000D02*
X9375000Y-7725000D01*
X9375000Y-7975000D02*
X9425000Y-8025000D01*
X9425000Y-7975000D02*
X9375000Y-8025000D01*
X9548500Y-8773500D02*
X9598500Y-8823500D01*
X9598500Y-8773500D02*
X9548500Y-8823500D01*
X9548500Y-9076500D02*
X9598500Y-9126500D01*
X9598500Y-9076500D02*
X9548500Y-9126500D01*
X9675000Y-6375000D02*
X9725000Y-6425000D01*
X9725000Y-6375000D02*
X9675000Y-6425000D01*
X9675000Y-6725000D02*
X9725000Y-6775000D01*
X9725000Y-6725000D02*
X9675000Y-6775000D01*
X9675000Y-7075000D02*
X9725000Y-7125000D01*
X9725000Y-7075000D02*
X9675000Y-7125000D01*
X9800000Y-8775000D02*
X9850000Y-8825000D01*
X9850000Y-8775000D02*
X9800000Y-8825000D01*
X9806500Y-9076500D02*
X9856500Y-9126500D01*
X9856500Y-9076500D02*
X9806500Y-9126500D01*
X10056500Y-9076500D02*
X10106500Y-9126500D01*
X10106500Y-9076500D02*
X10056500Y-9126500D01*
X10060000Y-8775000D02*
X10110000Y-8825000D01*
X10110000Y-8775000D02*
X10060000Y-8825000D01*
X10100000Y-6375000D02*
X10150000Y-6425000D01*
X10150000Y-6375000D02*
X10100000Y-6425000D01*
X10100000Y-6725000D02*
X10150000Y-6775000D01*
X10150000Y-6725000D02*
X10100000Y-6775000D01*
X10100000Y-7075000D02*
X10150000Y-7125000D01*
X10150000Y-7075000D02*
X10100000Y-7125000D01*
X10310000Y-8775000D02*
X10360000Y-8825000D01*
X10360000Y-8775000D02*
X10310000Y-8825000D01*
X10311500Y-9076500D02*
X10361500Y-9126500D01*
X10361500Y-9076500D02*
X10311500Y-9126500D01*
X10525000Y-6375000D02*
X10575000Y-6425000D01*
X10575000Y-6375000D02*
X10525000Y-6425000D01*
X10525000Y-6725000D02*
X10575000Y-6775000D01*
X10575000Y-6725000D02*
X10525000Y-6775000D01*
X10525000Y-7075000D02*
X10575000Y-7125000D01*
X10575000Y-7075000D02*
X10525000Y-7125000D01*
X10565000Y-7675000D02*
X10615000Y-7725000D01*
X10615000Y-7675000D02*
X10565000Y-7725000D01*
X10575000Y-7975000D02*
X10625000Y-8025000D01*
X10625000Y-7975000D02*
X10575000Y-8025000D01*
X10644500Y-8765000D02*
X10694500Y-8815000D01*
X10694500Y-8765000D02*
X10644500Y-8815000D01*
X10645000Y-9075000D02*
X10695000Y-9125000D01*
X10695000Y-9075000D02*
X10645000Y-9125000D01*
X10828000Y-8765000D02*
X10878000Y-8815000D01*
X10878000Y-8765000D02*
X10828000Y-8815000D01*
X10875000Y-6375000D02*
X10925000Y-6425000D01*
X10925000Y-6375000D02*
X10875000Y-6425000D01*
X10875000Y-6725000D02*
X10925000Y-6775000D01*
X10925000Y-6725000D02*
X10875000Y-6775000D01*
X10875000Y-7075000D02*
X10925000Y-7125000D01*
X10925000Y-7075000D02*
X10875000Y-7125000D01*
X11300000Y-6375000D02*
X11350000Y-6425000D01*
X11350000Y-6375000D02*
X11300000Y-6425000D01*
X11300000Y-6725000D02*
X11350000Y-6775000D01*
X11350000Y-6725000D02*
X11300000Y-6775000D01*
X11300000Y-7075000D02*
X11350000Y-7125000D01*
X11350000Y-7075000D02*
X11300000Y-7125000D01*
X11725000Y-6375000D02*
X11775000Y-6425000D01*
X11775000Y-6375000D02*
X11725000Y-6425000D01*
X11725000Y-6725000D02*
X11775000Y-6775000D01*
X11775000Y-6725000D02*
X11725000Y-6775000D01*
X11725000Y-7075000D02*
X11775000Y-7125000D01*
X11775000Y-7075000D02*
X11725000Y-7125000D01*
X11775000Y-7675000D02*
X11825000Y-7725000D01*
X11825000Y-7675000D02*
X11775000Y-7725000D01*
X11775000Y-7975000D02*
X11825000Y-8025000D01*
X11825000Y-7975000D02*
X11775000Y-8025000D01*
X11850000Y-12245000D02*
X11900000Y-12295000D01*
X11900000Y-12245000D02*
X11850000Y-12295000D01*
X12075000Y-6375000D02*
X12125000Y-6425000D01*
X12125000Y-6375000D02*
X12075000Y-6425000D01*
X12075000Y-6725000D02*
X12125000Y-6775000D01*
X12125000Y-6725000D02*
X12075000Y-6775000D01*
X12075000Y-7075000D02*
X12125000Y-7125000D01*
X12125000Y-7075000D02*
X12075000Y-7125000D01*
X12075000Y-11175000D02*
X12125000Y-11225000D01*
X12125000Y-11175000D02*
X12075000Y-11225000D01*
X12080000Y-11025000D02*
X12130000Y-11075000D01*
X12130000Y-11025000D02*
X12080000Y-11075000D01*
X12500000Y-6375000D02*
X12550000Y-6425000D01*
X12550000Y-6375000D02*
X12500000Y-6425000D01*
X12500000Y-6725000D02*
X12550000Y-6775000D01*
X12550000Y-6725000D02*
X12500000Y-6775000D01*
X12500000Y-7075000D02*
X12550000Y-7125000D01*
X12550000Y-7075000D02*
X12500000Y-7125000D01*
X12780000Y-12245000D02*
X12830000Y-12295000D01*
X12830000Y-12245000D02*
X12780000Y-12295000D01*
X12925000Y-6375000D02*
X12975000Y-6425000D01*
X12975000Y-6375000D02*
X12925000Y-6425000D01*
X12925000Y-6725000D02*
X12975000Y-6775000D01*
X12975000Y-6725000D02*
X12925000Y-6775000D01*
X12925000Y-7075000D02*
X12975000Y-7125000D01*
X12975000Y-7075000D02*
X12925000Y-7125000D01*
X12975000Y-7675000D02*
X13025000Y-7725000D01*
X13025000Y-7675000D02*
X12975000Y-7725000D01*
X12975000Y-7975000D02*
X13025000Y-8025000D01*
X13025000Y-7975000D02*
X12975000Y-8025000D01*
X14280000Y-11410000D02*
X14330000Y-11460000D01*
X14330000Y-11410000D02*
X14280000Y-11460000D01*
X14310000Y-10975000D02*
X14360000Y-11025000D01*
X14360000Y-10975000D02*
X14310000Y-11025000D01*
X14575000Y-6245000D02*
X14625000Y-6295000D01*
X14625000Y-6245000D02*
X14575000Y-6295000D01*
X14685000Y-10575000D02*
X14735000Y-10625000D01*
X14735000Y-10575000D02*
X14685000Y-10625000D01*
X14775000Y-9750000D02*
X14825000Y-9800000D01*
X14825000Y-9750000D02*
X14775000Y-9800000D01*
X14775000Y-11845000D02*
X14825000Y-11895000D01*
X14825000Y-11845000D02*
X14775000Y-11895000D01*
X14875000Y-12475000D02*
X14925000Y-12525000D01*
X14925000Y-12475000D02*
X14875000Y-12525000D01*
X14875000Y-12675000D02*
X14925000Y-12725000D01*
X14925000Y-12675000D02*
X14875000Y-12725000D01*
X14875000Y-12775000D02*
X14925000Y-12825000D01*
X14925000Y-12775000D02*
X14875000Y-12825000D01*
X15065000Y-9945000D02*
X15115000Y-9995000D01*
X15115000Y-9945000D02*
X15065000Y-9995000D01*
X15065000Y-10325000D02*
X15115000Y-10375000D01*
X15115000Y-10325000D02*
X15065000Y-10375000D01*
X15475000Y-6245000D02*
X15525000Y-6295000D01*
X15525000Y-6245000D02*
X15475000Y-6295000D01*
X16375000Y-6245000D02*
X16425000Y-6295000D01*
X16425000Y-6245000D02*
X16375000Y-6295000D01*
X16735000Y-5375000D02*
X16785000Y-5425000D01*
X16785000Y-5375000D02*
X16735000Y-5425000D01*
X16735000Y-13375000D02*
X16785000Y-13425000D01*
X16785000Y-13375000D02*
X16735000Y-13425000D01*
X16805294Y-5205294D02*
X16855294Y-5255294D01*
X16855294Y-5205294D02*
X16805294Y-5255294D01*
X16805294Y-5544706D02*
X16855294Y-5594706D01*
X16855294Y-5544706D02*
X16805294Y-5594706D01*
X16805294Y-13205294D02*
X16855294Y-13255294D01*
X16855294Y-13205294D02*
X16805294Y-13255294D01*
X16805294Y-13544706D02*
X16855294Y-13594706D01*
X16855294Y-13544706D02*
X16805294Y-13594706D01*
X16975000Y-5135000D02*
X17025000Y-5185000D01*
X17025000Y-5135000D02*
X16975000Y-5185000D01*
X16975000Y-5615000D02*
X17025000Y-5665000D01*
X17025000Y-5615000D02*
X16975000Y-5665000D01*
X16975000Y-13135000D02*
X17025000Y-13185000D01*
X17025000Y-13135000D02*
X16975000Y-13185000D01*
X16975000Y-13615000D02*
X17025000Y-13665000D01*
X17025000Y-13615000D02*
X16975000Y-13665000D01*
X17144706Y-5205294D02*
X17194706Y-5255294D01*
X17194706Y-5205294D02*
X17144706Y-5255294D01*
X17144706Y-5544706D02*
X17194706Y-5594706D01*
X17194706Y-5544706D02*
X17144706Y-5594706D01*
X17144706Y-13205294D02*
X17194706Y-13255294D01*
X17194706Y-13205294D02*
X17144706Y-13255294D01*
X17144706Y-13544706D02*
X17194706Y-13594706D01*
X17194706Y-13544706D02*
X17144706Y-13594706D01*
X17215000Y-5375000D02*
X17265000Y-5425000D01*
X17265000Y-5375000D02*
X17215000Y-5425000D01*
X17215000Y-13375000D02*
X17265000Y-13425000D01*
X17265000Y-13375000D02*
X17215000Y-13425000D01*
X8338100Y-11157000D02*
G75*
G03*
X8338100Y-11157000I-38100J0D01*
G01*
X8338100Y-11411000D02*
G75*
G03*
X8338100Y-11411000I-38100J0D01*
G01*
X8338100Y-11665000D02*
G75*
G03*
X8338100Y-11665000I-38100J0D01*
G01*
X8338100Y-11919000D02*
G75*
G03*
X8338100Y-11919000I-38100J0D01*
G01*
X8338100Y-12173000D02*
G75*
G03*
X8338100Y-12173000I-38100J0D01*
G01*
X8338100Y-12427000D02*
G75*
G03*
X8338100Y-12427000I-38100J0D01*
G01*
X8338100Y-12681000D02*
G75*
G03*
X8338100Y-12681000I-38100J0D01*
G01*
X8338100Y-12935000D02*
G75*
G03*
X8338100Y-12935000I-38100J0D01*
G01*
X8338100Y-13189000D02*
G75*
G03*
X8338100Y-13189000I-38100J0D01*
G01*
X8338100Y-13443000D02*
G75*
G03*
X8338100Y-13443000I-38100J0D01*
G01*
X14100000Y-5252500D02*
X14100000Y-5347500D01*
X14052500Y-5300000D02*
X14147500Y-5300000D01*
X14100000Y-5502500D02*
X14100000Y-5597500D01*
X14052500Y-5550000D02*
X14147500Y-5550000D01*
X14100000Y-5752500D02*
X14100000Y-5847500D01*
X14052500Y-5800000D02*
X14147500Y-5800000D01*
X14100000Y-7252500D02*
X14100000Y-7347500D01*
X14052500Y-7300000D02*
X14147500Y-7300000D01*
X14100000Y-7502500D02*
X14100000Y-7597500D01*
X14052500Y-7550000D02*
X14147500Y-7550000D01*
X14100000Y-7752500D02*
X14100000Y-7847500D01*
X14052500Y-7800000D02*
X14147500Y-7800000D01*
X14100000Y-8002500D02*
X14100000Y-8097500D01*
X14052500Y-8050000D02*
X14147500Y-8050000D01*
X15000000Y-7252500D02*
X15000000Y-7347500D01*
X14952500Y-7300000D02*
X15047500Y-7300000D01*
X15000000Y-7502500D02*
X15000000Y-7597500D01*
X14952500Y-7550000D02*
X15047500Y-7550000D01*
X15000000Y-7752500D02*
X15000000Y-7847500D01*
X14952500Y-7800000D02*
X15047500Y-7800000D01*
X15000000Y-8002500D02*
X15000000Y-8097500D01*
X14952500Y-8050000D02*
X15047500Y-8050000D01*
X15900000Y-7252500D02*
X15900000Y-7347500D01*
X15852500Y-7300000D02*
X15947500Y-7300000D01*
X15900000Y-7502500D02*
X15900000Y-7597500D01*
X15852500Y-7550000D02*
X15947500Y-7550000D01*
X15900000Y-7752500D02*
X15900000Y-7847500D01*
X15852500Y-7800000D02*
X15947500Y-7800000D01*
X15900000Y-8002500D02*
X15900000Y-8097500D01*
X15852500Y-8050000D02*
X15947500Y-8050000D01*
X16800000Y-7252500D02*
X16800000Y-7347500D01*
X16752500Y-7300000D02*
X16847500Y-7300000D01*
X16800000Y-7502500D02*
X16800000Y-7597500D01*
X16752500Y-7550000D02*
X16847500Y-7550000D01*
X16800000Y-7752500D02*
X16800000Y-7847500D01*
X16752500Y-7800000D02*
X16847500Y-7800000D01*
X16800000Y-8002500D02*
X16800000Y-8097500D01*
X16752500Y-8050000D02*
X16847500Y-8050000D01*
X5955356Y-7565356D02*
X5955356Y-7494644D01*
X5884644Y-7494644D01*
X5884644Y-7565356D01*
X5955356Y-7565356D01*
X5955356Y-7819356D02*
X5955356Y-7748644D01*
X5884644Y-7748644D01*
X5884644Y-7819356D01*
X5955356Y-7819356D01*
X5955356Y-8073356D02*
X5955356Y-8002644D01*
X5884644Y-8002644D01*
X5884644Y-8073356D01*
X5955356Y-8073356D01*
X5955356Y-8581356D02*
X5955356Y-8510644D01*
X5884644Y-8510644D01*
X5884644Y-8581356D01*
X5955356Y-8581356D01*
X5955356Y-8835356D02*
X5955356Y-8764644D01*
X5884644Y-8764644D01*
X5884644Y-8835356D01*
X5955356Y-8835356D01*
X5955356Y-9089356D02*
X5955356Y-9018644D01*
X5884644Y-9018644D01*
X5884644Y-9089356D01*
X5955356Y-9089356D01*
X5955356Y-9343356D02*
X5955356Y-9272644D01*
X5884644Y-9272644D01*
X5884644Y-9343356D01*
X5955356Y-9343356D01*
X6610356Y-5510356D02*
X6610356Y-5439644D01*
X6539644Y-5439644D01*
X6539644Y-5510356D01*
X6610356Y-5510356D01*
X6860356Y-5510356D02*
X6860356Y-5439644D01*
X6789644Y-5439644D01*
X6789644Y-5510356D01*
X6860356Y-5510356D01*
X6875356Y-7815356D02*
X6875356Y-7744644D01*
X6804644Y-7744644D01*
X6804644Y-7815356D01*
X6875356Y-7815356D01*
X6875356Y-8069356D02*
X6875356Y-7998644D01*
X6804644Y-7998644D01*
X6804644Y-8069356D01*
X6875356Y-8069356D01*
X6875356Y-8577356D02*
X6875356Y-8506644D01*
X6804644Y-8506644D01*
X6804644Y-8577356D01*
X6875356Y-8577356D01*
X6875356Y-8831356D02*
X6875356Y-8760644D01*
X6804644Y-8760644D01*
X6804644Y-8831356D01*
X6875356Y-8831356D01*
X6875356Y-9085356D02*
X6875356Y-9014644D01*
X6804644Y-9014644D01*
X6804644Y-9085356D01*
X6875356Y-9085356D01*
X7635356Y-5510356D02*
X7635356Y-5439644D01*
X7564644Y-5439644D01*
X7564644Y-5510356D01*
X7635356Y-5510356D01*
X7885356Y-5510356D02*
X7885356Y-5439644D01*
X7814644Y-5439644D01*
X7814644Y-5510356D01*
X7885356Y-5510356D01*
X8760356Y-11060356D02*
X8760356Y-10989644D01*
X8689644Y-10989644D01*
X8689644Y-11060356D01*
X8760356Y-11060356D01*
X8760356Y-11310356D02*
X8760356Y-11239644D01*
X8689644Y-11239644D01*
X8689644Y-11310356D01*
X8760356Y-11310356D01*
X8835356Y-5510356D02*
X8835356Y-5439644D01*
X8764644Y-5439644D01*
X8764644Y-5510356D01*
X8835356Y-5510356D01*
X9085356Y-5510356D02*
X9085356Y-5439644D01*
X9014644Y-5439644D01*
X9014644Y-5510356D01*
X9085356Y-5510356D01*
X10035356Y-5510356D02*
X10035356Y-5439644D01*
X9964644Y-5439644D01*
X9964644Y-5510356D01*
X10035356Y-5510356D01*
X10285356Y-5510356D02*
X10285356Y-5439644D01*
X10214644Y-5439644D01*
X10214644Y-5510356D01*
X10285356Y-5510356D01*
X11235356Y-5510356D02*
X11235356Y-5439644D01*
X11164644Y-5439644D01*
X11164644Y-5510356D01*
X11235356Y-5510356D01*
X11485356Y-5510356D02*
X11485356Y-5439644D01*
X11414644Y-5439644D01*
X11414644Y-5510356D01*
X11485356Y-5510356D01*
X11700356Y-13385356D02*
X11700356Y-13314644D01*
X11629644Y-13314644D01*
X11629644Y-13385356D01*
X11700356Y-13385356D01*
X11954356Y-9829356D02*
X11954356Y-9758644D01*
X11883644Y-9758644D01*
X11883644Y-9829356D01*
X11954356Y-9829356D01*
X11954356Y-13385356D02*
X11954356Y-13314644D01*
X11883644Y-13314644D01*
X11883644Y-13385356D01*
X11954356Y-13385356D01*
X12208356Y-9829356D02*
X12208356Y-9758644D01*
X12137644Y-9758644D01*
X12137644Y-9829356D01*
X12208356Y-9829356D01*
X12208356Y-13385356D02*
X12208356Y-13314644D01*
X12137644Y-13314644D01*
X12137644Y-13385356D01*
X12208356Y-13385356D01*
X12435356Y-5510356D02*
X12435356Y-5439644D01*
X12364644Y-5439644D01*
X12364644Y-5510356D01*
X12435356Y-5510356D01*
X12462356Y-9829356D02*
X12462356Y-9758644D01*
X12391644Y-9758644D01*
X12391644Y-9829356D01*
X12462356Y-9829356D01*
X12462356Y-13385356D02*
X12462356Y-13314644D01*
X12391644Y-13314644D01*
X12391644Y-13385356D01*
X12462356Y-13385356D01*
X12685356Y-5510356D02*
X12685356Y-5439644D01*
X12614644Y-5439644D01*
X12614644Y-5510356D01*
X12685356Y-5510356D01*
X12716356Y-9829356D02*
X12716356Y-9758644D01*
X12645644Y-9758644D01*
X12645644Y-9829356D01*
X12716356Y-9829356D01*
X12716356Y-13385356D02*
X12716356Y-13314644D01*
X12645644Y-13314644D01*
X12645644Y-13385356D01*
X12716356Y-13385356D01*
X12970356Y-13385356D02*
X12970356Y-13314644D01*
X12899644Y-13314644D01*
X12899644Y-13385356D01*
X12970356Y-13385356D01*
X13865356Y-9579356D02*
X13865356Y-9508644D01*
X13794644Y-9508644D01*
X13794644Y-9579356D01*
X13865356Y-9579356D01*
X13865356Y-9833356D02*
X13865356Y-9762644D01*
X13794644Y-9762644D01*
X13794644Y-9833356D01*
X13865356Y-9833356D01*
X13865356Y-10087356D02*
X13865356Y-10016644D01*
X13794644Y-10016644D01*
X13794644Y-10087356D01*
X13865356Y-10087356D01*
X13865356Y-10341356D02*
X13865356Y-10270644D01*
X13794644Y-10270644D01*
X13794644Y-10341356D01*
X13865356Y-10341356D01*
X13865356Y-10595356D02*
X13865356Y-10524644D01*
X13794644Y-10524644D01*
X13794644Y-10595356D01*
X13865356Y-10595356D01*
X13865356Y-10849356D02*
X13865356Y-10778644D01*
X13794644Y-10778644D01*
X13794644Y-10849356D01*
X13865356Y-10849356D01*
X13865356Y-11103356D02*
X13865356Y-11032644D01*
X13794644Y-11032644D01*
X13794644Y-11103356D01*
X13865356Y-11103356D01*
X13865356Y-11357356D02*
X13865356Y-11286644D01*
X13794644Y-11286644D01*
X13794644Y-11357356D01*
X13865356Y-11357356D01*
X13865356Y-11611356D02*
X13865356Y-11540644D01*
X13794644Y-11540644D01*
X13794644Y-11611356D01*
X13865356Y-11611356D01*
X13865356Y-11865356D02*
X13865356Y-11794644D01*
X13794644Y-11794644D01*
X13794644Y-11865356D01*
X13865356Y-11865356D01*
X13865356Y-12119356D02*
X13865356Y-12048644D01*
X13794644Y-12048644D01*
X13794644Y-12119356D01*
X13865356Y-12119356D01*
X13865356Y-12373356D02*
X13865356Y-12302644D01*
X13794644Y-12302644D01*
X13794644Y-12373356D01*
X13865356Y-12373356D01*
X13865356Y-12627356D02*
X13865356Y-12556644D01*
X13794644Y-12556644D01*
X13794644Y-12627356D01*
X13865356Y-12627356D01*
X13865356Y-12881356D02*
X13865356Y-12810644D01*
X13794644Y-12810644D01*
X13794644Y-12881356D01*
X13865356Y-12881356D01*
X13865356Y-13135356D02*
X13865356Y-13064644D01*
X13794644Y-13064644D01*
X13794644Y-13135356D01*
X13865356Y-13135356D01*
X14935356Y-5335356D02*
X14935356Y-5264644D01*
X14864644Y-5264644D01*
X14864644Y-5335356D01*
X14935356Y-5335356D01*
X14935356Y-5585356D02*
X14935356Y-5514644D01*
X14864644Y-5514644D01*
X14864644Y-5585356D01*
X14935356Y-5585356D01*
X15035356Y-6335356D02*
X15035356Y-6264644D01*
X14964644Y-6264644D01*
X14964644Y-6335356D01*
X15035356Y-6335356D01*
X15035356Y-6585356D02*
X15035356Y-6514644D01*
X14964644Y-6514644D01*
X14964644Y-6585356D01*
X15035356Y-6585356D01*
X15935356Y-5335356D02*
X15935356Y-5264644D01*
X15864644Y-5264644D01*
X15864644Y-5335356D01*
X15935356Y-5335356D01*
X15935356Y-5585356D02*
X15935356Y-5514644D01*
X15864644Y-5514644D01*
X15864644Y-5585356D01*
X15935356Y-5585356D01*
X15935356Y-6335356D02*
X15935356Y-6264644D01*
X15864644Y-6264644D01*
X15864644Y-6335356D01*
X15935356Y-6335356D01*
X15935356Y-6585356D02*
X15935356Y-6514644D01*
X15864644Y-6514644D01*
X15864644Y-6585356D01*
X15935356Y-6585356D01*
X16405356Y-9579356D02*
X16405356Y-9508644D01*
X16334644Y-9508644D01*
X16334644Y-9579356D01*
X16405356Y-9579356D01*
X16405356Y-9833356D02*
X16405356Y-9762644D01*
X16334644Y-9762644D01*
X16334644Y-9833356D01*
X16405356Y-9833356D01*
X16405356Y-10087356D02*
X16405356Y-10016644D01*
X16334644Y-10016644D01*
X16334644Y-10087356D01*
X16405356Y-10087356D01*
X16405356Y-10341356D02*
X16405356Y-10270644D01*
X16334644Y-10270644D01*
X16334644Y-10341356D01*
X16405356Y-10341356D01*
X16405356Y-10595356D02*
X16405356Y-10524644D01*
X16334644Y-10524644D01*
X16334644Y-10595356D01*
X16405356Y-10595356D01*
X16405356Y-10849356D02*
X16405356Y-10778644D01*
X16334644Y-10778644D01*
X16334644Y-10849356D01*
X16405356Y-10849356D01*
X16405356Y-11103356D02*
X16405356Y-11032644D01*
X16334644Y-11032644D01*
X16334644Y-11103356D01*
X16405356Y-11103356D01*
X16405356Y-11357356D02*
X16405356Y-11286644D01*
X16334644Y-11286644D01*
X16334644Y-11357356D01*
X16405356Y-11357356D01*
X16405356Y-11611356D02*
X16405356Y-11540644D01*
X16334644Y-11540644D01*
X16334644Y-11611356D01*
X16405356Y-11611356D01*
X16405356Y-11865356D02*
X16405356Y-11794644D01*
X16334644Y-11794644D01*
X16334644Y-11865356D01*
X16405356Y-11865356D01*
X16405356Y-12119356D02*
X16405356Y-12048644D01*
X16334644Y-12048644D01*
X16334644Y-12119356D01*
X16405356Y-12119356D01*
X16405356Y-12373356D02*
X16405356Y-12302644D01*
X16334644Y-12302644D01*
X16334644Y-12373356D01*
X16405356Y-12373356D01*
X16405356Y-12627356D02*
X16405356Y-12556644D01*
X16334644Y-12556644D01*
X16334644Y-12627356D01*
X16405356Y-12627356D01*
X16405356Y-12881356D02*
X16405356Y-12810644D01*
X16334644Y-12810644D01*
X16334644Y-12881356D01*
X16405356Y-12881356D01*
X16405356Y-13135356D02*
X16405356Y-13064644D01*
X16334644Y-13064644D01*
X16334644Y-13135356D01*
X16405356Y-13135356D01*
X16835356Y-6335356D02*
X16835356Y-6264644D01*
X16764644Y-6264644D01*
X16764644Y-6335356D01*
X16835356Y-6335356D01*
X16835356Y-6585356D02*
X16835356Y-6514644D01*
X16764644Y-6514644D01*
X16764644Y-6585356D01*
X16835356Y-6585356D01*
X8550000Y-12224000D02*
X8601000Y-12173000D01*
X8550000Y-12122000D01*
X8499000Y-12173000D01*
X8550000Y-12224000D01*
X11580000Y-12051000D02*
X11631000Y-12000000D01*
X11580000Y-11949000D01*
X11529000Y-12000000D01*
X11580000Y-12051000D01*
X14010000Y-9591000D02*
X14061000Y-9540000D01*
X14010000Y-9489000D01*
X13959000Y-9540000D01*
X14010000Y-9591000D01*
X14060000Y-9851000D02*
X14111000Y-9800000D01*
X14060000Y-9749000D01*
X14009000Y-9800000D01*
X14060000Y-9851000D01*
X14060000Y-10101000D02*
X14111000Y-10050000D01*
X14060000Y-9999000D01*
X14009000Y-10050000D01*
X14060000Y-10101000D01*
X14060000Y-10361000D02*
X14111000Y-10310000D01*
X14060000Y-10259000D01*
X14009000Y-10310000D01*
X14060000Y-10361000D01*
X14060000Y-10611000D02*
X14111000Y-10560000D01*
X14060000Y-10509000D01*
X14009000Y-10560000D01*
X14060000Y-10611000D01*
X14075000Y-12651000D02*
X14126000Y-12600000D01*
X14075000Y-12549000D01*
X14024000Y-12600000D01*
X14075000Y-12651000D01*
X14075000Y-13151000D02*
X14126000Y-13100000D01*
X14075000Y-13049000D01*
X14024000Y-13100000D01*
X14075000Y-13151000D01*
X16650000Y-9601000D02*
X16701000Y-9550000D01*
X16650000Y-9499000D01*
X16599000Y-9550000D01*
X16650000Y-9601000D01*
X16650000Y-12151000D02*
X16701000Y-12100000D01*
X16650000Y-12049000D01*
X16599000Y-12100000D01*
X16650000Y-12151000D01*
X16650000Y-12401000D02*
X16701000Y-12350000D01*
X16650000Y-12299000D01*
X16599000Y-12350000D01*
X16650000Y-12401000D01*
X16650000Y-12651000D02*
X16701000Y-12600000D01*
X16650000Y-12549000D01*
X16599000Y-12600000D01*
X16650000Y-12651000D01*
X16650000Y-12901000D02*
X16701000Y-12850000D01*
X16650000Y-12799000D01*
X16599000Y-12850000D01*
X16650000Y-12901000D01*
X16650000Y-13151000D02*
X16701000Y-13100000D01*
X16650000Y-13049000D01*
X16599000Y-13100000D01*
X16650000Y-13151000D01*
X8942832Y-13227168D02*
X9072832Y-13357168D01*
X9072832Y-13227168D02*
X8942832Y-13357168D01*
X9072832Y-13292168D02*
G75*
G03*
X9072832Y-13292168I-65000J0D01*
G01*
X9046723Y-13175495D02*
X8891160Y-13331059D01*
X9124505Y-13253277D02*
X8968941Y-13408840D01*
X8891160Y-13331058D02*
G75*
G03*
X8968942Y-13408840I38891J-38891D01*
G01*
X9124505Y-13253277D02*
G75*
G03*
X9046723Y-13175495I-38891J38891D01*
G01*
X9855000Y-10915000D02*
X9985000Y-11045000D01*
X9985000Y-10915000D02*
X9855000Y-11045000D01*
X9985000Y-10980000D02*
G75*
G03*
X9985000Y-10980000I-65000J0D01*
G01*
X9975000Y-11045000D02*
X9975000Y-10915000D01*
X9865000Y-11045000D02*
X9865000Y-10915000D01*
X9975000Y-10915000D02*
G75*
G03*
X9865000Y-10915000I-55000J0D01*
G01*
X9865000Y-11045000D02*
G75*
G03*
X9975000Y-11045000I55000J0D01*
G01*
X9855000Y-12965000D02*
X9985000Y-13095000D01*
X9985000Y-12965000D02*
X9855000Y-13095000D01*
X9985000Y-13030000D02*
G75*
G03*
X9985000Y-13030000I-65000J0D01*
G01*
X9975000Y-13095000D02*
X9975000Y-12965000D01*
X9865000Y-13095000D02*
X9865000Y-12965000D01*
X9975000Y-12965000D02*
G75*
G03*
X9865000Y-12965000I-55000J0D01*
G01*
X9865000Y-13095000D02*
G75*
G03*
X9975000Y-13095000I55000J0D01*
G01*
X10427757Y-11742243D02*
X10557757Y-11872243D01*
X10557757Y-11742243D02*
X10427757Y-11872243D01*
X10557757Y-11807243D02*
G75*
G03*
X10557757Y-11807243I-65000J0D01*
G01*
X10531647Y-11690571D02*
X10376084Y-11846134D01*
X10609429Y-11768353D02*
X10453866Y-11923916D01*
X10376084Y-11846134D02*
G75*
G03*
X10453866Y-11923916I38891J-38891D01*
G01*
X10609429Y-11768353D02*
G75*
G03*
X10531647Y-11690571I-38891J38891D01*
G01*
X10774239Y-11395761D02*
X10904239Y-11525761D01*
X10904239Y-11395761D02*
X10774239Y-11525761D01*
X10904239Y-11460761D02*
G75*
G03*
X10904239Y-11460761I-65000J0D01*
G01*
X5255000Y-6230000D02*
X5405000Y-6380000D01*
X5405000Y-6230000D02*
X5255000Y-6380000D01*
X5330000Y-6230000D02*
X5330000Y-6380000D01*
X5255000Y-6305000D02*
X5405000Y-6305000D01*
X5255000Y-10020000D02*
X5405000Y-10170000D01*
X5405000Y-10020000D02*
X5255000Y-10170000D01*
X5330000Y-10020000D02*
X5330000Y-10170000D01*
X5255000Y-10095000D02*
X5405000Y-10095000D01*
X6795000Y-6230000D02*
X6945000Y-6380000D01*
X6945000Y-6230000D02*
X6795000Y-6380000D01*
X6870000Y-6230000D02*
X6870000Y-6380000D01*
X6795000Y-6305000D02*
X6945000Y-6305000D01*
X6795000Y-10020000D02*
X6945000Y-10170000D01*
X6945000Y-10020000D02*
X6795000Y-10170000D01*
X6870000Y-10020000D02*
X6870000Y-10170000D01*
X6795000Y-10095000D02*
X6945000Y-10095000D01*
X6903000Y-11004600D02*
X7207800Y-11309400D01*
X7207800Y-11004600D02*
X6903000Y-11309400D01*
X7163164Y-11264764D02*
X7163164Y-11049236D01*
X6947636Y-11049236D01*
X6947636Y-11264764D01*
X7163164Y-11264764D01*
X6903000Y-13290600D02*
X7207800Y-13595400D01*
X7207800Y-13290600D02*
X6903000Y-13595400D01*
X7163164Y-13550764D02*
X7163164Y-13335236D01*
X6947636Y-13335236D01*
X6947636Y-13550764D01*
X7163164Y-13550764D01*
X5240000Y-5240000D02*
X5560000Y-5560000D01*
X5560000Y-5240000D02*
X5240000Y-5560000D01*
X5400000Y-5560000D02*
X5560000Y-5400000D01*
X5400000Y-5240000D01*
X5240000Y-5400000D01*
X5400000Y-5560000D01*
X5240000Y-13240000D02*
X5560000Y-13560000D01*
X5560000Y-13240000D02*
X5240000Y-13560000D01*
X5400000Y-13560000D02*
X5560000Y-13400000D01*
X5400000Y-13240000D01*
X5240000Y-13400000D01*
X5400000Y-13560000D01*
X16840000Y-5240000D02*
X17160000Y-5560000D01*
X17160000Y-5240000D02*
X16840000Y-5560000D01*
X17000000Y-5560000D02*
X17160000Y-5400000D01*
X17000000Y-5240000D01*
X16840000Y-5400000D01*
X17000000Y-5560000D01*
X16840000Y-13240000D02*
X17160000Y-13560000D01*
X17160000Y-13240000D02*
X16840000Y-13560000D01*
X17000000Y-13560000D02*
X17160000Y-13400000D01*
X17000000Y-13240000D01*
X16840000Y-13400000D01*
X17000000Y-13560000D01*
X8967500Y-12290000D02*
X8967500Y-12470000D01*
X8877500Y-12380000D02*
X9057500Y-12380000D01*
X9057500Y-12380000D02*
G75*
G03*
X9057500Y-12380000I-90000J0D01*
G01*
X10396200Y-11465100D02*
X10396200Y-11645100D01*
X10306200Y-11555100D02*
X10486200Y-11555100D01*
X10486200Y-11555100D02*
G75*
G03*
X10486200Y-11555100I-90000J0D01*
G01*
X10396200Y-13114900D02*
X10396200Y-13294900D01*
X10306200Y-13204900D02*
X10486200Y-13204900D01*
X10486200Y-13204900D02*
G75*
G03*
X10486200Y-13204900I-90000J0D01*
G01*
X5441067Y-6821067D02*
X5441067Y-6608933D01*
X5228933Y-6608933D01*
X5228933Y-6821067D01*
X5441067Y-6821067D01*
X5485000Y-6715000D02*
G75*
G03*
X5485000Y-6715000I-150000J0D01*
G01*
X5441067Y-9791067D02*
X5441067Y-9578933D01*
X5228933Y-9578933D01*
X5228933Y-9791067D01*
X5441067Y-9791067D01*
X5485000Y-9685000D02*
G75*
G03*
X5485000Y-9685000I-150000J0D01*
G01*
X6971067Y-6821067D02*
X6971067Y-6608933D01*
X6758933Y-6608933D01*
X6758933Y-6821067D01*
X6971067Y-6821067D01*
X7015000Y-6715000D02*
G75*
G03*
X7015000Y-6715000I-150000J0D01*
G01*
X11375000Y-10229400D02*
X11527400Y-10077000D01*
X11375000Y-9924600D01*
X11222600Y-10077000D01*
X11375000Y-10229400D01*
X11527400Y-10077000D02*
G75*
G03*
X11527400Y-10077000I-152400J0D01*
G01*
X11375000Y-12829400D02*
X11527400Y-12677000D01*
X11375000Y-12524600D01*
X11222600Y-12677000D01*
X11375000Y-12829400D01*
X11527400Y-12677000D02*
G75*
G03*
X11527400Y-12677000I-152400J0D01*
G01*
X13225000Y-12829400D02*
X13377400Y-12677000D01*
X13225000Y-12524600D01*
X13072600Y-12677000D01*
X13225000Y-12829400D01*
X13377400Y-12677000D02*
G75*
G03*
X13377400Y-12677000I-152400J0D01*
G01*
X13906200Y-8959800D02*
X14058600Y-8807400D01*
X13906200Y-8655000D01*
X13753800Y-8807400D01*
X13906200Y-8959800D01*
X14058600Y-8807400D02*
G75*
G03*
X14058600Y-8807400I-152400J0D01*
G01*
X13906200Y-13684200D02*
X14058600Y-13531800D01*
X13906200Y-13379400D01*
X13753800Y-13531800D01*
X13906200Y-13684200D01*
X14058600Y-13531800D02*
G75*
G03*
X14058600Y-13531800I-152400J0D01*
G01*
X16293800Y-8959800D02*
X16446200Y-8807400D01*
X16293800Y-8655000D01*
X16141400Y-8807400D01*
X16293800Y-8959800D01*
X16446200Y-8807400D02*
G75*
G03*
X16446200Y-8807400I-152400J0D01*
G01*
X16293800Y-13684200D02*
X16446200Y-13531800D01*
X16293800Y-13379400D01*
X16141400Y-13531800D01*
X16293800Y-13684200D01*
X16446200Y-13531800D02*
G75*
G03*
X16446200Y-13531800I-152400J0D01*
G01*
D12*
X5282618Y-14269524D02*
X5282618Y-13969524D01*
X5354047Y-13969524D01*
X5396904Y-13983810D01*
X5425476Y-14012381D01*
X5439761Y-14040953D01*
X5454047Y-14098096D01*
X5454047Y-14140953D01*
X5439761Y-14198096D01*
X5425476Y-14226667D01*
X5396904Y-14255239D01*
X5354047Y-14269524D01*
X5282618Y-14269524D01*
X5582618Y-14269524D02*
X5582618Y-14069524D01*
X5582618Y-14126667D02*
X5596904Y-14098096D01*
X5611190Y-14083810D01*
X5639761Y-14069524D01*
X5668333Y-14069524D01*
X5768333Y-14269524D02*
X5768333Y-14069524D01*
X5768333Y-13969524D02*
X5754047Y-13983810D01*
X5768333Y-13998096D01*
X5782618Y-13983810D01*
X5768333Y-13969524D01*
X5768333Y-13998096D01*
X5954047Y-14269524D02*
X5925476Y-14255239D01*
X5911190Y-14226667D01*
X5911190Y-13969524D01*
X6111190Y-14269524D02*
X6082618Y-14255239D01*
X6068333Y-14226667D01*
X6068333Y-13969524D01*
X6454047Y-14269524D02*
X6454047Y-13969524D01*
X6554047Y-14183810D01*
X6654047Y-13969524D01*
X6654047Y-14269524D01*
X6925476Y-14269524D02*
X6925476Y-14112381D01*
X6911190Y-14083810D01*
X6882618Y-14069524D01*
X6825476Y-14069524D01*
X6796904Y-14083810D01*
X6925476Y-14255239D02*
X6896904Y-14269524D01*
X6825476Y-14269524D01*
X6796904Y-14255239D01*
X6782618Y-14226667D01*
X6782618Y-14198096D01*
X6796904Y-14169524D01*
X6825476Y-14155239D01*
X6896904Y-14155239D01*
X6925476Y-14140953D01*
X7068333Y-14069524D02*
X7068333Y-14369524D01*
X7068333Y-14083810D02*
X7096904Y-14069524D01*
X7154047Y-14069524D01*
X7182618Y-14083810D01*
X7196904Y-14098096D01*
X7211190Y-14126667D01*
X7211190Y-14212381D01*
X7196904Y-14240953D01*
X7182618Y-14255239D01*
X7154047Y-14269524D01*
X7096904Y-14269524D01*
X7068333Y-14255239D01*
X7339761Y-14240953D02*
X7354047Y-14255239D01*
X7339761Y-14269524D01*
X7325476Y-14255239D01*
X7339761Y-14240953D01*
X7339761Y-14269524D01*
X7339761Y-14083810D02*
X7354047Y-14098096D01*
X7339761Y-14112381D01*
X7325476Y-14098096D01*
X7339761Y-14083810D01*
X7339761Y-14112381D01*
X4946190Y-14738810D02*
X4996190Y-14788810D01*
X4996190Y-14738810D02*
X4946190Y-14788810D01*
X5339761Y-14599524D02*
X5368333Y-14599524D01*
X5396904Y-14613810D01*
X5411190Y-14628096D01*
X5425476Y-14656667D01*
X5439761Y-14713810D01*
X5439761Y-14785239D01*
X5425476Y-14842381D01*
X5411190Y-14870953D01*
X5396904Y-14885239D01*
X5368333Y-14899524D01*
X5339761Y-14899524D01*
X5311190Y-14885239D01*
X5296904Y-14870953D01*
X5282618Y-14842381D01*
X5268333Y-14785239D01*
X5268333Y-14713810D01*
X5282618Y-14656667D01*
X5296904Y-14628096D01*
X5311190Y-14613810D01*
X5339761Y-14599524D01*
X5568333Y-14870953D02*
X5582618Y-14885239D01*
X5568333Y-14899524D01*
X5554047Y-14885239D01*
X5568333Y-14870953D01*
X5568333Y-14899524D01*
X5854047Y-14599524D02*
X5711190Y-14599524D01*
X5696904Y-14742381D01*
X5711190Y-14728096D01*
X5739761Y-14713810D01*
X5811190Y-14713810D01*
X5839761Y-14728096D01*
X5854047Y-14742381D01*
X5868333Y-14770953D01*
X5868333Y-14842381D01*
X5854047Y-14870953D01*
X5839761Y-14885239D01*
X5811190Y-14899524D01*
X5739761Y-14899524D01*
X5711190Y-14885239D01*
X5696904Y-14870953D01*
X6054047Y-14599524D02*
X6082618Y-14599524D01*
X6111190Y-14613810D01*
X6125476Y-14628096D01*
X6139761Y-14656667D01*
X6154047Y-14713810D01*
X6154047Y-14785239D01*
X6139761Y-14842381D01*
X6125476Y-14870953D01*
X6111190Y-14885239D01*
X6082618Y-14899524D01*
X6054047Y-14899524D01*
X6025476Y-14885239D01*
X6011190Y-14870953D01*
X5996904Y-14842381D01*
X5982618Y-14785239D01*
X5982618Y-14713810D01*
X5996904Y-14656667D01*
X6011190Y-14628096D01*
X6025476Y-14613810D01*
X6054047Y-14599524D01*
X6282618Y-14899524D02*
X6282618Y-14699524D01*
X6282618Y-14728096D02*
X6296904Y-14713810D01*
X6325476Y-14699524D01*
X6368333Y-14699524D01*
X6396904Y-14713810D01*
X6411190Y-14742381D01*
X6411190Y-14899524D01*
X6411190Y-14742381D02*
X6425476Y-14713810D01*
X6454047Y-14699524D01*
X6496904Y-14699524D01*
X6525476Y-14713810D01*
X6539761Y-14742381D01*
X6539761Y-14899524D01*
X6682618Y-14899524D02*
X6682618Y-14699524D01*
X6682618Y-14728096D02*
X6696904Y-14713810D01*
X6725476Y-14699524D01*
X6768333Y-14699524D01*
X6796904Y-14713810D01*
X6811190Y-14742381D01*
X6811190Y-14899524D01*
X6811190Y-14742381D02*
X6825476Y-14713810D01*
X6854047Y-14699524D01*
X6896904Y-14699524D01*
X6925476Y-14713810D01*
X6939761Y-14742381D01*
X6939761Y-14899524D01*
X7525476Y-14585239D02*
X7268333Y-14970953D01*
X7911190Y-14599524D02*
X7939761Y-14599524D01*
X7968333Y-14613810D01*
X7982618Y-14628096D01*
X7996904Y-14656667D01*
X8011190Y-14713810D01*
X8011190Y-14785239D01*
X7996904Y-14842381D01*
X7982618Y-14870953D01*
X7968333Y-14885239D01*
X7939761Y-14899524D01*
X7911190Y-14899524D01*
X7882618Y-14885239D01*
X7868333Y-14870953D01*
X7854047Y-14842381D01*
X7839761Y-14785239D01*
X7839761Y-14713810D01*
X7854047Y-14656667D01*
X7868333Y-14628096D01*
X7882618Y-14613810D01*
X7911190Y-14599524D01*
X8139761Y-14870953D02*
X8154047Y-14885239D01*
X8139761Y-14899524D01*
X8125476Y-14885239D01*
X8139761Y-14870953D01*
X8139761Y-14899524D01*
X8339761Y-14599524D02*
X8368333Y-14599524D01*
X8396904Y-14613810D01*
X8411190Y-14628096D01*
X8425476Y-14656667D01*
X8439761Y-14713810D01*
X8439761Y-14785239D01*
X8425476Y-14842381D01*
X8411190Y-14870953D01*
X8396904Y-14885239D01*
X8368333Y-14899524D01*
X8339761Y-14899524D01*
X8311190Y-14885239D01*
X8296904Y-14870953D01*
X8282618Y-14842381D01*
X8268333Y-14785239D01*
X8268333Y-14713810D01*
X8282618Y-14656667D01*
X8296904Y-14628096D01*
X8311190Y-14613810D01*
X8339761Y-14599524D01*
X8554047Y-14628096D02*
X8568333Y-14613810D01*
X8596904Y-14599524D01*
X8668333Y-14599524D01*
X8696904Y-14613810D01*
X8711190Y-14628096D01*
X8725476Y-14656667D01*
X8725476Y-14685239D01*
X8711190Y-14728096D01*
X8539761Y-14899524D01*
X8725476Y-14899524D01*
X8911190Y-14599524D02*
X8939761Y-14599524D01*
X8968333Y-14613810D01*
X8982618Y-14628096D01*
X8996904Y-14656667D01*
X9011190Y-14713810D01*
X9011190Y-14785239D01*
X8996904Y-14842381D01*
X8982618Y-14870953D01*
X8968333Y-14885239D01*
X8939761Y-14899524D01*
X8911190Y-14899524D01*
X8882618Y-14885239D01*
X8868333Y-14870953D01*
X8854047Y-14842381D01*
X8839761Y-14785239D01*
X8839761Y-14713810D01*
X8854047Y-14656667D01*
X8868333Y-14628096D01*
X8882618Y-14613810D01*
X8911190Y-14599524D01*
X9125476Y-14599524D02*
X9125476Y-14656667D01*
X9239761Y-14599524D02*
X9239761Y-14656667D01*
X9682618Y-15013810D02*
X9668333Y-14999524D01*
X9639761Y-14956667D01*
X9625476Y-14928096D01*
X9611190Y-14885239D01*
X9596904Y-14813810D01*
X9596904Y-14756667D01*
X9611190Y-14685239D01*
X9625476Y-14642381D01*
X9639761Y-14613810D01*
X9668333Y-14570953D01*
X9682618Y-14556667D01*
X9954047Y-14899524D02*
X9782618Y-14899524D01*
X9868333Y-14899524D02*
X9868333Y-14599524D01*
X9839761Y-14642381D01*
X9811190Y-14670953D01*
X9782618Y-14685239D01*
X10054047Y-14599524D02*
X10254047Y-14599524D01*
X10125476Y-14899524D01*
X10525476Y-14899524D02*
X10354047Y-14899524D01*
X10439761Y-14899524D02*
X10439761Y-14599524D01*
X10411190Y-14642381D01*
X10382618Y-14670953D01*
X10354047Y-14685239D01*
X10882618Y-14899524D02*
X10882618Y-14599524D01*
X11011190Y-14899524D02*
X11011190Y-14742381D01*
X10996904Y-14713810D01*
X10968333Y-14699524D01*
X10925476Y-14699524D01*
X10896904Y-14713810D01*
X10882618Y-14728096D01*
X11196904Y-14899524D02*
X11168333Y-14885239D01*
X11154047Y-14870953D01*
X11139761Y-14842381D01*
X11139761Y-14756667D01*
X11154047Y-14728096D01*
X11168333Y-14713810D01*
X11196904Y-14699524D01*
X11239761Y-14699524D01*
X11268333Y-14713810D01*
X11282618Y-14728096D01*
X11296904Y-14756667D01*
X11296904Y-14842381D01*
X11282618Y-14870953D01*
X11268333Y-14885239D01*
X11239761Y-14899524D01*
X11196904Y-14899524D01*
X11468333Y-14899524D02*
X11439761Y-14885239D01*
X11425476Y-14856667D01*
X11425476Y-14599524D01*
X11696904Y-14885239D02*
X11668333Y-14899524D01*
X11611190Y-14899524D01*
X11582618Y-14885239D01*
X11568333Y-14856667D01*
X11568333Y-14742381D01*
X11582618Y-14713810D01*
X11611190Y-14699524D01*
X11668333Y-14699524D01*
X11696904Y-14713810D01*
X11711190Y-14742381D01*
X11711190Y-14770953D01*
X11568333Y-14799524D01*
X11825476Y-14885239D02*
X11854047Y-14899524D01*
X11911190Y-14899524D01*
X11939761Y-14885239D01*
X11954047Y-14856667D01*
X11954047Y-14842381D01*
X11939761Y-14813810D01*
X11911190Y-14799524D01*
X11868333Y-14799524D01*
X11839761Y-14785239D01*
X11825476Y-14756667D01*
X11825476Y-14742381D01*
X11839761Y-14713810D01*
X11868333Y-14699524D01*
X11911190Y-14699524D01*
X11939761Y-14713810D01*
X12054047Y-15013810D02*
X12068333Y-14999524D01*
X12096904Y-14956667D01*
X12111190Y-14928096D01*
X12125476Y-14885239D01*
X12139761Y-14813810D01*
X12139761Y-14756667D01*
X12125476Y-14685239D01*
X12111190Y-14642381D01*
X12096904Y-14613810D01*
X12068333Y-14570953D01*
X12054047Y-14556667D01*
X4996190Y-15159810D02*
G75*
G03*
X4996190Y-15159810I-38100J0D01*
G01*
X5339761Y-14995524D02*
X5368333Y-14995524D01*
X5396904Y-15009810D01*
X5411190Y-15024096D01*
X5425476Y-15052667D01*
X5439761Y-15109810D01*
X5439761Y-15181239D01*
X5425476Y-15238381D01*
X5411190Y-15266953D01*
X5396904Y-15281239D01*
X5368333Y-15295524D01*
X5339761Y-15295524D01*
X5311190Y-15281239D01*
X5296904Y-15266953D01*
X5282618Y-15238381D01*
X5268333Y-15181239D01*
X5268333Y-15109810D01*
X5282618Y-15052667D01*
X5296904Y-15024096D01*
X5311190Y-15009810D01*
X5339761Y-14995524D01*
X5568333Y-15266953D02*
X5582618Y-15281239D01*
X5568333Y-15295524D01*
X5554047Y-15281239D01*
X5568333Y-15266953D01*
X5568333Y-15295524D01*
X5682618Y-14995524D02*
X5882618Y-14995524D01*
X5754047Y-15295524D01*
X6125476Y-14995524D02*
X6068333Y-14995524D01*
X6039761Y-15009810D01*
X6025476Y-15024096D01*
X5996904Y-15066953D01*
X5982618Y-15124096D01*
X5982618Y-15238381D01*
X5996904Y-15266953D01*
X6011190Y-15281239D01*
X6039761Y-15295524D01*
X6096904Y-15295524D01*
X6125476Y-15281239D01*
X6139761Y-15266953D01*
X6154047Y-15238381D01*
X6154047Y-15166953D01*
X6139761Y-15138381D01*
X6125476Y-15124096D01*
X6096904Y-15109810D01*
X6039761Y-15109810D01*
X6011190Y-15124096D01*
X5996904Y-15138381D01*
X5982618Y-15166953D01*
X6282618Y-15295524D02*
X6282618Y-15095524D01*
X6282618Y-15124096D02*
X6296904Y-15109810D01*
X6325476Y-15095524D01*
X6368333Y-15095524D01*
X6396904Y-15109810D01*
X6411190Y-15138381D01*
X6411190Y-15295524D01*
X6411190Y-15138381D02*
X6425476Y-15109810D01*
X6454047Y-15095524D01*
X6496904Y-15095524D01*
X6525476Y-15109810D01*
X6539761Y-15138381D01*
X6539761Y-15295524D01*
X6682618Y-15295524D02*
X6682618Y-15095524D01*
X6682618Y-15124096D02*
X6696904Y-15109810D01*
X6725476Y-15095524D01*
X6768333Y-15095524D01*
X6796904Y-15109810D01*
X6811190Y-15138381D01*
X6811190Y-15295524D01*
X6811190Y-15138381D02*
X6825476Y-15109810D01*
X6854047Y-15095524D01*
X6896904Y-15095524D01*
X6925476Y-15109810D01*
X6939761Y-15138381D01*
X6939761Y-15295524D01*
X7525476Y-14981239D02*
X7268333Y-15366953D01*
X7911190Y-14995524D02*
X7939761Y-14995524D01*
X7968333Y-15009810D01*
X7982618Y-15024096D01*
X7996904Y-15052667D01*
X8011190Y-15109810D01*
X8011190Y-15181239D01*
X7996904Y-15238381D01*
X7982618Y-15266953D01*
X7968333Y-15281239D01*
X7939761Y-15295524D01*
X7911190Y-15295524D01*
X7882618Y-15281239D01*
X7868333Y-15266953D01*
X7854047Y-15238381D01*
X7839761Y-15181239D01*
X7839761Y-15109810D01*
X7854047Y-15052667D01*
X7868333Y-15024096D01*
X7882618Y-15009810D01*
X7911190Y-14995524D01*
X8139761Y-15266953D02*
X8154047Y-15281239D01*
X8139761Y-15295524D01*
X8125476Y-15281239D01*
X8139761Y-15266953D01*
X8139761Y-15295524D01*
X8339761Y-14995524D02*
X8368333Y-14995524D01*
X8396904Y-15009810D01*
X8411190Y-15024096D01*
X8425476Y-15052667D01*
X8439761Y-15109810D01*
X8439761Y-15181239D01*
X8425476Y-15238381D01*
X8411190Y-15266953D01*
X8396904Y-15281239D01*
X8368333Y-15295524D01*
X8339761Y-15295524D01*
X8311190Y-15281239D01*
X8296904Y-15266953D01*
X8282618Y-15238381D01*
X8268333Y-15181239D01*
X8268333Y-15109810D01*
X8282618Y-15052667D01*
X8296904Y-15024096D01*
X8311190Y-15009810D01*
X8339761Y-14995524D01*
X8539761Y-14995524D02*
X8725476Y-14995524D01*
X8625476Y-15109810D01*
X8668333Y-15109810D01*
X8696904Y-15124096D01*
X8711190Y-15138381D01*
X8725476Y-15166953D01*
X8725476Y-15238381D01*
X8711190Y-15266953D01*
X8696904Y-15281239D01*
X8668333Y-15295524D01*
X8582618Y-15295524D01*
X8554047Y-15281239D01*
X8539761Y-15266953D01*
X8911190Y-14995524D02*
X8939761Y-14995524D01*
X8968333Y-15009810D01*
X8982618Y-15024096D01*
X8996904Y-15052667D01*
X9011190Y-15109810D01*
X9011190Y-15181239D01*
X8996904Y-15238381D01*
X8982618Y-15266953D01*
X8968333Y-15281239D01*
X8939761Y-15295524D01*
X8911190Y-15295524D01*
X8882618Y-15281239D01*
X8868333Y-15266953D01*
X8854047Y-15238381D01*
X8839761Y-15181239D01*
X8839761Y-15109810D01*
X8854047Y-15052667D01*
X8868333Y-15024096D01*
X8882618Y-15009810D01*
X8911190Y-14995524D01*
X9125476Y-14995524D02*
X9125476Y-15052667D01*
X9239761Y-14995524D02*
X9239761Y-15052667D01*
X9682618Y-15409810D02*
X9668333Y-15395524D01*
X9639761Y-15352667D01*
X9625476Y-15324096D01*
X9611190Y-15281239D01*
X9596904Y-15209810D01*
X9596904Y-15152667D01*
X9611190Y-15081239D01*
X9625476Y-15038381D01*
X9639761Y-15009810D01*
X9668333Y-14966953D01*
X9682618Y-14952667D01*
X9954047Y-15295524D02*
X9782618Y-15295524D01*
X9868333Y-15295524D02*
X9868333Y-14995524D01*
X9839761Y-15038381D01*
X9811190Y-15066953D01*
X9782618Y-15081239D01*
X10139761Y-14995524D02*
X10168333Y-14995524D01*
X10196904Y-15009810D01*
X10211190Y-15024096D01*
X10225476Y-15052667D01*
X10239761Y-15109810D01*
X10239761Y-15181239D01*
X10225476Y-15238381D01*
X10211190Y-15266953D01*
X10196904Y-15281239D01*
X10168333Y-15295524D01*
X10139761Y-15295524D01*
X10111190Y-15281239D01*
X10096904Y-15266953D01*
X10082618Y-15238381D01*
X10068333Y-15181239D01*
X10068333Y-15109810D01*
X10082618Y-15052667D01*
X10096904Y-15024096D01*
X10111190Y-15009810D01*
X10139761Y-14995524D01*
X10596904Y-15295524D02*
X10596904Y-14995524D01*
X10725476Y-15295524D02*
X10725476Y-15138381D01*
X10711190Y-15109810D01*
X10682618Y-15095524D01*
X10639761Y-15095524D01*
X10611190Y-15109810D01*
X10596904Y-15124096D01*
X10911190Y-15295524D02*
X10882618Y-15281239D01*
X10868333Y-15266953D01*
X10854047Y-15238381D01*
X10854047Y-15152667D01*
X10868333Y-15124096D01*
X10882618Y-15109810D01*
X10911190Y-15095524D01*
X10954047Y-15095524D01*
X10982618Y-15109810D01*
X10996904Y-15124096D01*
X11011190Y-15152667D01*
X11011190Y-15238381D01*
X10996904Y-15266953D01*
X10982618Y-15281239D01*
X10954047Y-15295524D01*
X10911190Y-15295524D01*
X11182618Y-15295524D02*
X11154047Y-15281239D01*
X11139761Y-15252667D01*
X11139761Y-14995524D01*
X11411190Y-15281239D02*
X11382618Y-15295524D01*
X11325476Y-15295524D01*
X11296904Y-15281239D01*
X11282618Y-15252667D01*
X11282618Y-15138381D01*
X11296904Y-15109810D01*
X11325476Y-15095524D01*
X11382618Y-15095524D01*
X11411190Y-15109810D01*
X11425476Y-15138381D01*
X11425476Y-15166953D01*
X11282618Y-15195524D01*
X11539761Y-15281239D02*
X11568333Y-15295524D01*
X11625476Y-15295524D01*
X11654047Y-15281239D01*
X11668333Y-15252667D01*
X11668333Y-15238381D01*
X11654047Y-15209810D01*
X11625476Y-15195524D01*
X11582618Y-15195524D01*
X11554047Y-15181239D01*
X11539761Y-15152667D01*
X11539761Y-15138381D01*
X11554047Y-15109810D01*
X11582618Y-15095524D01*
X11625476Y-15095524D01*
X11654047Y-15109810D01*
X11768333Y-15409810D02*
X11782618Y-15395524D01*
X11811190Y-15352667D01*
X11825476Y-15324096D01*
X11839761Y-15281239D01*
X11854047Y-15209810D01*
X11854047Y-15152667D01*
X11839761Y-15081239D01*
X11825476Y-15038381D01*
X11811190Y-15009810D01*
X11782618Y-14966953D01*
X11768333Y-14952667D01*
X4948690Y-15508310D02*
X4948690Y-15603310D01*
X4901190Y-15555810D02*
X4996190Y-15555810D01*
X5339761Y-15391524D02*
X5368333Y-15391524D01*
X5396904Y-15405810D01*
X5411190Y-15420096D01*
X5425476Y-15448667D01*
X5439761Y-15505810D01*
X5439761Y-15577239D01*
X5425476Y-15634381D01*
X5411190Y-15662953D01*
X5396904Y-15677239D01*
X5368333Y-15691524D01*
X5339761Y-15691524D01*
X5311190Y-15677239D01*
X5296904Y-15662953D01*
X5282618Y-15634381D01*
X5268333Y-15577239D01*
X5268333Y-15505810D01*
X5282618Y-15448667D01*
X5296904Y-15420096D01*
X5311190Y-15405810D01*
X5339761Y-15391524D01*
X5568333Y-15662953D02*
X5582618Y-15677239D01*
X5568333Y-15691524D01*
X5554047Y-15677239D01*
X5568333Y-15662953D01*
X5568333Y-15691524D01*
X5725476Y-15691524D02*
X5782618Y-15691524D01*
X5811190Y-15677239D01*
X5825476Y-15662953D01*
X5854047Y-15620096D01*
X5868333Y-15562953D01*
X5868333Y-15448667D01*
X5854047Y-15420096D01*
X5839761Y-15405810D01*
X5811190Y-15391524D01*
X5754047Y-15391524D01*
X5725476Y-15405810D01*
X5711190Y-15420096D01*
X5696904Y-15448667D01*
X5696904Y-15520096D01*
X5711190Y-15548667D01*
X5725476Y-15562953D01*
X5754047Y-15577239D01*
X5811190Y-15577239D01*
X5839761Y-15562953D01*
X5854047Y-15548667D01*
X5868333Y-15520096D01*
X6139761Y-15391524D02*
X5996904Y-15391524D01*
X5982618Y-15534381D01*
X5996904Y-15520096D01*
X6025476Y-15505810D01*
X6096904Y-15505810D01*
X6125476Y-15520096D01*
X6139761Y-15534381D01*
X6154047Y-15562953D01*
X6154047Y-15634381D01*
X6139761Y-15662953D01*
X6125476Y-15677239D01*
X6096904Y-15691524D01*
X6025476Y-15691524D01*
X5996904Y-15677239D01*
X5982618Y-15662953D01*
X6282618Y-15691524D02*
X6282618Y-15491524D01*
X6282618Y-15520096D02*
X6296904Y-15505810D01*
X6325476Y-15491524D01*
X6368333Y-15491524D01*
X6396904Y-15505810D01*
X6411190Y-15534381D01*
X6411190Y-15691524D01*
X6411190Y-15534381D02*
X6425476Y-15505810D01*
X6454047Y-15491524D01*
X6496904Y-15491524D01*
X6525476Y-15505810D01*
X6539761Y-15534381D01*
X6539761Y-15691524D01*
X6682618Y-15691524D02*
X6682618Y-15491524D01*
X6682618Y-15520096D02*
X6696904Y-15505810D01*
X6725476Y-15491524D01*
X6768333Y-15491524D01*
X6796904Y-15505810D01*
X6811190Y-15534381D01*
X6811190Y-15691524D01*
X6811190Y-15534381D02*
X6825476Y-15505810D01*
X6854047Y-15491524D01*
X6896904Y-15491524D01*
X6925476Y-15505810D01*
X6939761Y-15534381D01*
X6939761Y-15691524D01*
X7525476Y-15377239D02*
X7268333Y-15762953D01*
X7911190Y-15391524D02*
X7939761Y-15391524D01*
X7968333Y-15405810D01*
X7982618Y-15420096D01*
X7996904Y-15448667D01*
X8011190Y-15505810D01*
X8011190Y-15577239D01*
X7996904Y-15634381D01*
X7982618Y-15662953D01*
X7968333Y-15677239D01*
X7939761Y-15691524D01*
X7911190Y-15691524D01*
X7882618Y-15677239D01*
X7868333Y-15662953D01*
X7854047Y-15634381D01*
X7839761Y-15577239D01*
X7839761Y-15505810D01*
X7854047Y-15448667D01*
X7868333Y-15420096D01*
X7882618Y-15405810D01*
X7911190Y-15391524D01*
X8139761Y-15662953D02*
X8154047Y-15677239D01*
X8139761Y-15691524D01*
X8125476Y-15677239D01*
X8139761Y-15662953D01*
X8139761Y-15691524D01*
X8339761Y-15391524D02*
X8368333Y-15391524D01*
X8396904Y-15405810D01*
X8411190Y-15420096D01*
X8425476Y-15448667D01*
X8439761Y-15505810D01*
X8439761Y-15577239D01*
X8425476Y-15634381D01*
X8411190Y-15662953D01*
X8396904Y-15677239D01*
X8368333Y-15691524D01*
X8339761Y-15691524D01*
X8311190Y-15677239D01*
X8296904Y-15662953D01*
X8282618Y-15634381D01*
X8268333Y-15577239D01*
X8268333Y-15505810D01*
X8282618Y-15448667D01*
X8296904Y-15420096D01*
X8311190Y-15405810D01*
X8339761Y-15391524D01*
X8539761Y-15391524D02*
X8725476Y-15391524D01*
X8625476Y-15505810D01*
X8668333Y-15505810D01*
X8696904Y-15520096D01*
X8711190Y-15534381D01*
X8725476Y-15562953D01*
X8725476Y-15634381D01*
X8711190Y-15662953D01*
X8696904Y-15677239D01*
X8668333Y-15691524D01*
X8582618Y-15691524D01*
X8554047Y-15677239D01*
X8539761Y-15662953D01*
X8825476Y-15391524D02*
X9025476Y-15391524D01*
X8896904Y-15691524D01*
X9125476Y-15391524D02*
X9125476Y-15448667D01*
X9239761Y-15391524D02*
X9239761Y-15448667D01*
X9682618Y-15805810D02*
X9668333Y-15791524D01*
X9639761Y-15748667D01*
X9625476Y-15720096D01*
X9611190Y-15677239D01*
X9596904Y-15605810D01*
X9596904Y-15548667D01*
X9611190Y-15477239D01*
X9625476Y-15434381D01*
X9639761Y-15405810D01*
X9668333Y-15362953D01*
X9682618Y-15348667D01*
X9954047Y-15691524D02*
X9782618Y-15691524D01*
X9868333Y-15691524D02*
X9868333Y-15391524D01*
X9839761Y-15434381D01*
X9811190Y-15462953D01*
X9782618Y-15477239D01*
X10096904Y-15691524D02*
X10154047Y-15691524D01*
X10182618Y-15677239D01*
X10196904Y-15662953D01*
X10225476Y-15620096D01*
X10239761Y-15562953D01*
X10239761Y-15448667D01*
X10225476Y-15420096D01*
X10211190Y-15405810D01*
X10182618Y-15391524D01*
X10125476Y-15391524D01*
X10096904Y-15405810D01*
X10082618Y-15420096D01*
X10068333Y-15448667D01*
X10068333Y-15520096D01*
X10082618Y-15548667D01*
X10096904Y-15562953D01*
X10125476Y-15577239D01*
X10182618Y-15577239D01*
X10211190Y-15562953D01*
X10225476Y-15548667D01*
X10239761Y-15520096D01*
X10596904Y-15691524D02*
X10596904Y-15391524D01*
X10725476Y-15691524D02*
X10725476Y-15534381D01*
X10711190Y-15505810D01*
X10682618Y-15491524D01*
X10639761Y-15491524D01*
X10611190Y-15505810D01*
X10596904Y-15520096D01*
X10911190Y-15691524D02*
X10882618Y-15677239D01*
X10868333Y-15662953D01*
X10854047Y-15634381D01*
X10854047Y-15548667D01*
X10868333Y-15520096D01*
X10882618Y-15505810D01*
X10911190Y-15491524D01*
X10954047Y-15491524D01*
X10982618Y-15505810D01*
X10996904Y-15520096D01*
X11011190Y-15548667D01*
X11011190Y-15634381D01*
X10996904Y-15662953D01*
X10982618Y-15677239D01*
X10954047Y-15691524D01*
X10911190Y-15691524D01*
X11182618Y-15691524D02*
X11154047Y-15677239D01*
X11139761Y-15648667D01*
X11139761Y-15391524D01*
X11411190Y-15677239D02*
X11382618Y-15691524D01*
X11325476Y-15691524D01*
X11296904Y-15677239D01*
X11282618Y-15648667D01*
X11282618Y-15534381D01*
X11296904Y-15505810D01*
X11325476Y-15491524D01*
X11382618Y-15491524D01*
X11411190Y-15505810D01*
X11425476Y-15534381D01*
X11425476Y-15562953D01*
X11282618Y-15591524D01*
X11539761Y-15677239D02*
X11568333Y-15691524D01*
X11625476Y-15691524D01*
X11654047Y-15677239D01*
X11668333Y-15648667D01*
X11668333Y-15634381D01*
X11654047Y-15605810D01*
X11625476Y-15591524D01*
X11582618Y-15591524D01*
X11554047Y-15577239D01*
X11539761Y-15548667D01*
X11539761Y-15534381D01*
X11554047Y-15505810D01*
X11582618Y-15491524D01*
X11625476Y-15491524D01*
X11654047Y-15505810D01*
X11768333Y-15805810D02*
X11782618Y-15791524D01*
X11811190Y-15748667D01*
X11825476Y-15720096D01*
X11839761Y-15677239D01*
X11854047Y-15605810D01*
X11854047Y-15548667D01*
X11839761Y-15477239D01*
X11825476Y-15434381D01*
X11811190Y-15405810D01*
X11782618Y-15362953D01*
X11768333Y-15348667D01*
X4981546Y-15987166D02*
X4981546Y-15916454D01*
X4910834Y-15916454D01*
X4910834Y-15987166D01*
X4981546Y-15987166D01*
X5439761Y-16087524D02*
X5268333Y-16087524D01*
X5354047Y-16087524D02*
X5354047Y-15787524D01*
X5325476Y-15830381D01*
X5296904Y-15858953D01*
X5268333Y-15873239D01*
X5568333Y-16058953D02*
X5582618Y-16073239D01*
X5568333Y-16087524D01*
X5554047Y-16073239D01*
X5568333Y-16058953D01*
X5568333Y-16087524D01*
X5768333Y-15787524D02*
X5796904Y-15787524D01*
X5825476Y-15801810D01*
X5839761Y-15816096D01*
X5854047Y-15844667D01*
X5868333Y-15901810D01*
X5868333Y-15973239D01*
X5854047Y-16030381D01*
X5839761Y-16058953D01*
X5825476Y-16073239D01*
X5796904Y-16087524D01*
X5768333Y-16087524D01*
X5739761Y-16073239D01*
X5725476Y-16058953D01*
X5711190Y-16030381D01*
X5696904Y-15973239D01*
X5696904Y-15901810D01*
X5711190Y-15844667D01*
X5725476Y-15816096D01*
X5739761Y-15801810D01*
X5768333Y-15787524D01*
X6054047Y-15787524D02*
X6082618Y-15787524D01*
X6111190Y-15801810D01*
X6125476Y-15816096D01*
X6139761Y-15844667D01*
X6154047Y-15901810D01*
X6154047Y-15973239D01*
X6139761Y-16030381D01*
X6125476Y-16058953D01*
X6111190Y-16073239D01*
X6082618Y-16087524D01*
X6054047Y-16087524D01*
X6025476Y-16073239D01*
X6011190Y-16058953D01*
X5996904Y-16030381D01*
X5982618Y-15973239D01*
X5982618Y-15901810D01*
X5996904Y-15844667D01*
X6011190Y-15816096D01*
X6025476Y-15801810D01*
X6054047Y-15787524D01*
X6282618Y-16087524D02*
X6282618Y-15887524D01*
X6282618Y-15916096D02*
X6296904Y-15901810D01*
X6325476Y-15887524D01*
X6368333Y-15887524D01*
X6396904Y-15901810D01*
X6411190Y-15930381D01*
X6411190Y-16087524D01*
X6411190Y-15930381D02*
X6425476Y-15901810D01*
X6454047Y-15887524D01*
X6496904Y-15887524D01*
X6525476Y-15901810D01*
X6539761Y-15930381D01*
X6539761Y-16087524D01*
X6682618Y-16087524D02*
X6682618Y-15887524D01*
X6682618Y-15916096D02*
X6696904Y-15901810D01*
X6725476Y-15887524D01*
X6768333Y-15887524D01*
X6796904Y-15901810D01*
X6811190Y-15930381D01*
X6811190Y-16087524D01*
X6811190Y-15930381D02*
X6825476Y-15901810D01*
X6854047Y-15887524D01*
X6896904Y-15887524D01*
X6925476Y-15901810D01*
X6939761Y-15930381D01*
X6939761Y-16087524D01*
X7525476Y-15773239D02*
X7268333Y-16158953D01*
X7911190Y-15787524D02*
X7939761Y-15787524D01*
X7968333Y-15801810D01*
X7982618Y-15816096D01*
X7996904Y-15844667D01*
X8011190Y-15901810D01*
X8011190Y-15973239D01*
X7996904Y-16030381D01*
X7982618Y-16058953D01*
X7968333Y-16073239D01*
X7939761Y-16087524D01*
X7911190Y-16087524D01*
X7882618Y-16073239D01*
X7868333Y-16058953D01*
X7854047Y-16030381D01*
X7839761Y-15973239D01*
X7839761Y-15901810D01*
X7854047Y-15844667D01*
X7868333Y-15816096D01*
X7882618Y-15801810D01*
X7911190Y-15787524D01*
X8139761Y-16058953D02*
X8154047Y-16073239D01*
X8139761Y-16087524D01*
X8125476Y-16073239D01*
X8139761Y-16058953D01*
X8139761Y-16087524D01*
X8339761Y-15787524D02*
X8368333Y-15787524D01*
X8396904Y-15801810D01*
X8411190Y-15816096D01*
X8425476Y-15844667D01*
X8439761Y-15901810D01*
X8439761Y-15973239D01*
X8425476Y-16030381D01*
X8411190Y-16058953D01*
X8396904Y-16073239D01*
X8368333Y-16087524D01*
X8339761Y-16087524D01*
X8311190Y-16073239D01*
X8296904Y-16058953D01*
X8282618Y-16030381D01*
X8268333Y-15973239D01*
X8268333Y-15901810D01*
X8282618Y-15844667D01*
X8296904Y-15816096D01*
X8311190Y-15801810D01*
X8339761Y-15787524D01*
X8539761Y-15787524D02*
X8725476Y-15787524D01*
X8625476Y-15901810D01*
X8668333Y-15901810D01*
X8696904Y-15916096D01*
X8711190Y-15930381D01*
X8725476Y-15958953D01*
X8725476Y-16030381D01*
X8711190Y-16058953D01*
X8696904Y-16073239D01*
X8668333Y-16087524D01*
X8582618Y-16087524D01*
X8554047Y-16073239D01*
X8539761Y-16058953D01*
X8868333Y-16087524D02*
X8925476Y-16087524D01*
X8954047Y-16073239D01*
X8968333Y-16058953D01*
X8996904Y-16016096D01*
X9011190Y-15958953D01*
X9011190Y-15844667D01*
X8996904Y-15816096D01*
X8982618Y-15801810D01*
X8954047Y-15787524D01*
X8896904Y-15787524D01*
X8868333Y-15801810D01*
X8854047Y-15816096D01*
X8839761Y-15844667D01*
X8839761Y-15916096D01*
X8854047Y-15944667D01*
X8868333Y-15958953D01*
X8896904Y-15973239D01*
X8954047Y-15973239D01*
X8982618Y-15958953D01*
X8996904Y-15944667D01*
X9011190Y-15916096D01*
X9125476Y-15787524D02*
X9125476Y-15844667D01*
X9239761Y-15787524D02*
X9239761Y-15844667D01*
X9682618Y-16201810D02*
X9668333Y-16187524D01*
X9639761Y-16144667D01*
X9625476Y-16116096D01*
X9611190Y-16073239D01*
X9596904Y-16001810D01*
X9596904Y-15944667D01*
X9611190Y-15873239D01*
X9625476Y-15830381D01*
X9639761Y-15801810D01*
X9668333Y-15758953D01*
X9682618Y-15744667D01*
X9768333Y-15787524D02*
X9968333Y-15787524D01*
X9839761Y-16087524D01*
X10211190Y-15787524D02*
X10154047Y-15787524D01*
X10125476Y-15801810D01*
X10111190Y-15816096D01*
X10082618Y-15858953D01*
X10068333Y-15916096D01*
X10068333Y-16030381D01*
X10082618Y-16058953D01*
X10096904Y-16073239D01*
X10125476Y-16087524D01*
X10182618Y-16087524D01*
X10211190Y-16073239D01*
X10225476Y-16058953D01*
X10239761Y-16030381D01*
X10239761Y-15958953D01*
X10225476Y-15930381D01*
X10211190Y-15916096D01*
X10182618Y-15901810D01*
X10125476Y-15901810D01*
X10096904Y-15916096D01*
X10082618Y-15930381D01*
X10068333Y-15958953D01*
X10596904Y-16087524D02*
X10596904Y-15787524D01*
X10725476Y-16087524D02*
X10725476Y-15930381D01*
X10711190Y-15901810D01*
X10682618Y-15887524D01*
X10639761Y-15887524D01*
X10611190Y-15901810D01*
X10596904Y-15916096D01*
X10911190Y-16087524D02*
X10882618Y-16073239D01*
X10868333Y-16058953D01*
X10854047Y-16030381D01*
X10854047Y-15944667D01*
X10868333Y-15916096D01*
X10882618Y-15901810D01*
X10911190Y-15887524D01*
X10954047Y-15887524D01*
X10982618Y-15901810D01*
X10996904Y-15916096D01*
X11011190Y-15944667D01*
X11011190Y-16030381D01*
X10996904Y-16058953D01*
X10982618Y-16073239D01*
X10954047Y-16087524D01*
X10911190Y-16087524D01*
X11182618Y-16087524D02*
X11154047Y-16073239D01*
X11139761Y-16044667D01*
X11139761Y-15787524D01*
X11411190Y-16073239D02*
X11382618Y-16087524D01*
X11325476Y-16087524D01*
X11296904Y-16073239D01*
X11282618Y-16044667D01*
X11282618Y-15930381D01*
X11296904Y-15901810D01*
X11325476Y-15887524D01*
X11382618Y-15887524D01*
X11411190Y-15901810D01*
X11425476Y-15930381D01*
X11425476Y-15958953D01*
X11282618Y-15987524D01*
X11539761Y-16073239D02*
X11568333Y-16087524D01*
X11625476Y-16087524D01*
X11654047Y-16073239D01*
X11668333Y-16044667D01*
X11668333Y-16030381D01*
X11654047Y-16001810D01*
X11625476Y-15987524D01*
X11582618Y-15987524D01*
X11554047Y-15973239D01*
X11539761Y-15944667D01*
X11539761Y-15930381D01*
X11554047Y-15901810D01*
X11582618Y-15887524D01*
X11625476Y-15887524D01*
X11654047Y-15901810D01*
X11768333Y-16201810D02*
X11782618Y-16187524D01*
X11811190Y-16144667D01*
X11825476Y-16116096D01*
X11839761Y-16073239D01*
X11854047Y-16001810D01*
X11854047Y-15944667D01*
X11839761Y-15873239D01*
X11825476Y-15830381D01*
X11811190Y-15801810D01*
X11782618Y-15758953D01*
X11768333Y-15744667D01*
X4945190Y-16398810D02*
X4996190Y-16347810D01*
X4945190Y-16296810D01*
X4894190Y-16347810D01*
X4945190Y-16398810D01*
X5439761Y-16483524D02*
X5268333Y-16483524D01*
X5354047Y-16483524D02*
X5354047Y-16183524D01*
X5325476Y-16226381D01*
X5296904Y-16254953D01*
X5268333Y-16269239D01*
X5568333Y-16454953D02*
X5582618Y-16469239D01*
X5568333Y-16483524D01*
X5554047Y-16469239D01*
X5568333Y-16454953D01*
X5568333Y-16483524D01*
X5768333Y-16183524D02*
X5796904Y-16183524D01*
X5825476Y-16197810D01*
X5839761Y-16212096D01*
X5854047Y-16240667D01*
X5868333Y-16297810D01*
X5868333Y-16369239D01*
X5854047Y-16426381D01*
X5839761Y-16454953D01*
X5825476Y-16469239D01*
X5796904Y-16483524D01*
X5768333Y-16483524D01*
X5739761Y-16469239D01*
X5725476Y-16454953D01*
X5711190Y-16426381D01*
X5696904Y-16369239D01*
X5696904Y-16297810D01*
X5711190Y-16240667D01*
X5725476Y-16212096D01*
X5739761Y-16197810D01*
X5768333Y-16183524D01*
X5982618Y-16212096D02*
X5996904Y-16197810D01*
X6025476Y-16183524D01*
X6096904Y-16183524D01*
X6125476Y-16197810D01*
X6139761Y-16212096D01*
X6154047Y-16240667D01*
X6154047Y-16269239D01*
X6139761Y-16312096D01*
X5968333Y-16483524D01*
X6154047Y-16483524D01*
X6282618Y-16483524D02*
X6282618Y-16283524D01*
X6282618Y-16312096D02*
X6296904Y-16297810D01*
X6325476Y-16283524D01*
X6368333Y-16283524D01*
X6396904Y-16297810D01*
X6411190Y-16326381D01*
X6411190Y-16483524D01*
X6411190Y-16326381D02*
X6425476Y-16297810D01*
X6454047Y-16283524D01*
X6496904Y-16283524D01*
X6525476Y-16297810D01*
X6539761Y-16326381D01*
X6539761Y-16483524D01*
X6682618Y-16483524D02*
X6682618Y-16283524D01*
X6682618Y-16312096D02*
X6696904Y-16297810D01*
X6725476Y-16283524D01*
X6768333Y-16283524D01*
X6796904Y-16297810D01*
X6811190Y-16326381D01*
X6811190Y-16483524D01*
X6811190Y-16326381D02*
X6825476Y-16297810D01*
X6854047Y-16283524D01*
X6896904Y-16283524D01*
X6925476Y-16297810D01*
X6939761Y-16326381D01*
X6939761Y-16483524D01*
X7525476Y-16169239D02*
X7268333Y-16554953D01*
X7911190Y-16183524D02*
X7939761Y-16183524D01*
X7968333Y-16197810D01*
X7982618Y-16212096D01*
X7996904Y-16240667D01*
X8011190Y-16297810D01*
X8011190Y-16369239D01*
X7996904Y-16426381D01*
X7982618Y-16454953D01*
X7968333Y-16469239D01*
X7939761Y-16483524D01*
X7911190Y-16483524D01*
X7882618Y-16469239D01*
X7868333Y-16454953D01*
X7854047Y-16426381D01*
X7839761Y-16369239D01*
X7839761Y-16297810D01*
X7854047Y-16240667D01*
X7868333Y-16212096D01*
X7882618Y-16197810D01*
X7911190Y-16183524D01*
X8139761Y-16454953D02*
X8154047Y-16469239D01*
X8139761Y-16483524D01*
X8125476Y-16469239D01*
X8139761Y-16454953D01*
X8139761Y-16483524D01*
X8339761Y-16183524D02*
X8368333Y-16183524D01*
X8396904Y-16197810D01*
X8411190Y-16212096D01*
X8425476Y-16240667D01*
X8439761Y-16297810D01*
X8439761Y-16369239D01*
X8425476Y-16426381D01*
X8411190Y-16454953D01*
X8396904Y-16469239D01*
X8368333Y-16483524D01*
X8339761Y-16483524D01*
X8311190Y-16469239D01*
X8296904Y-16454953D01*
X8282618Y-16426381D01*
X8268333Y-16369239D01*
X8268333Y-16297810D01*
X8282618Y-16240667D01*
X8296904Y-16212096D01*
X8311190Y-16197810D01*
X8339761Y-16183524D01*
X8696904Y-16283524D02*
X8696904Y-16483524D01*
X8625476Y-16169239D02*
X8554047Y-16383524D01*
X8739761Y-16383524D01*
X8911190Y-16183524D02*
X8939761Y-16183524D01*
X8968333Y-16197810D01*
X8982618Y-16212096D01*
X8996904Y-16240667D01*
X9011190Y-16297810D01*
X9011190Y-16369239D01*
X8996904Y-16426381D01*
X8982618Y-16454953D01*
X8968333Y-16469239D01*
X8939761Y-16483524D01*
X8911190Y-16483524D01*
X8882618Y-16469239D01*
X8868333Y-16454953D01*
X8854047Y-16426381D01*
X8839761Y-16369239D01*
X8839761Y-16297810D01*
X8854047Y-16240667D01*
X8868333Y-16212096D01*
X8882618Y-16197810D01*
X8911190Y-16183524D01*
X9125476Y-16183524D02*
X9125476Y-16240667D01*
X9239761Y-16183524D02*
X9239761Y-16240667D01*
X9682618Y-16597810D02*
X9668333Y-16583524D01*
X9639761Y-16540667D01*
X9625476Y-16512096D01*
X9611190Y-16469239D01*
X9596904Y-16397810D01*
X9596904Y-16340667D01*
X9611190Y-16269239D01*
X9625476Y-16226381D01*
X9639761Y-16197810D01*
X9668333Y-16154953D01*
X9682618Y-16140667D01*
X9954047Y-16483524D02*
X9782618Y-16483524D01*
X9868333Y-16483524D02*
X9868333Y-16183524D01*
X9839761Y-16226381D01*
X9811190Y-16254953D01*
X9782618Y-16269239D01*
X10225476Y-16183524D02*
X10082618Y-16183524D01*
X10068333Y-16326381D01*
X10082618Y-16312096D01*
X10111190Y-16297810D01*
X10182618Y-16297810D01*
X10211190Y-16312096D01*
X10225476Y-16326381D01*
X10239761Y-16354953D01*
X10239761Y-16426381D01*
X10225476Y-16454953D01*
X10211190Y-16469239D01*
X10182618Y-16483524D01*
X10111190Y-16483524D01*
X10082618Y-16469239D01*
X10068333Y-16454953D01*
X10596904Y-16483524D02*
X10596904Y-16183524D01*
X10725476Y-16483524D02*
X10725476Y-16326381D01*
X10711190Y-16297810D01*
X10682618Y-16283524D01*
X10639761Y-16283524D01*
X10611190Y-16297810D01*
X10596904Y-16312096D01*
X10911190Y-16483524D02*
X10882618Y-16469239D01*
X10868333Y-16454953D01*
X10854047Y-16426381D01*
X10854047Y-16340667D01*
X10868333Y-16312096D01*
X10882618Y-16297810D01*
X10911190Y-16283524D01*
X10954047Y-16283524D01*
X10982618Y-16297810D01*
X10996904Y-16312096D01*
X11011190Y-16340667D01*
X11011190Y-16426381D01*
X10996904Y-16454953D01*
X10982618Y-16469239D01*
X10954047Y-16483524D01*
X10911190Y-16483524D01*
X11182618Y-16483524D02*
X11154047Y-16469239D01*
X11139761Y-16440667D01*
X11139761Y-16183524D01*
X11411190Y-16469239D02*
X11382618Y-16483524D01*
X11325476Y-16483524D01*
X11296904Y-16469239D01*
X11282618Y-16440667D01*
X11282618Y-16326381D01*
X11296904Y-16297810D01*
X11325476Y-16283524D01*
X11382618Y-16283524D01*
X11411190Y-16297810D01*
X11425476Y-16326381D01*
X11425476Y-16354953D01*
X11282618Y-16383524D01*
X11539761Y-16469239D02*
X11568333Y-16483524D01*
X11625476Y-16483524D01*
X11654047Y-16469239D01*
X11668333Y-16440667D01*
X11668333Y-16426381D01*
X11654047Y-16397810D01*
X11625476Y-16383524D01*
X11582618Y-16383524D01*
X11554047Y-16369239D01*
X11539761Y-16340667D01*
X11539761Y-16326381D01*
X11554047Y-16297810D01*
X11582618Y-16283524D01*
X11625476Y-16283524D01*
X11654047Y-16297810D01*
X11768333Y-16597810D02*
X11782618Y-16583524D01*
X11811190Y-16540667D01*
X11825476Y-16512096D01*
X11839761Y-16469239D01*
X11854047Y-16397810D01*
X11854047Y-16340667D01*
X11839761Y-16269239D01*
X11825476Y-16226381D01*
X11811190Y-16197810D01*
X11782618Y-16154953D01*
X11768333Y-16140667D01*
X4866190Y-16678810D02*
X4996190Y-16808810D01*
X4996190Y-16678810D02*
X4866190Y-16808810D01*
X4996190Y-16743810D02*
G75*
G03*
X4996190Y-16743810I-65000J0D01*
G01*
X5439761Y-16879524D02*
X5268333Y-16879524D01*
X5354047Y-16879524D02*
X5354047Y-16579524D01*
X5325476Y-16622381D01*
X5296904Y-16650953D01*
X5268333Y-16665239D01*
X5568333Y-16850953D02*
X5582618Y-16865239D01*
X5568333Y-16879524D01*
X5554047Y-16865239D01*
X5568333Y-16850953D01*
X5568333Y-16879524D01*
X5682618Y-16579524D02*
X5868333Y-16579524D01*
X5768333Y-16693810D01*
X5811190Y-16693810D01*
X5839761Y-16708096D01*
X5854047Y-16722381D01*
X5868333Y-16750953D01*
X5868333Y-16822382D01*
X5854047Y-16850953D01*
X5839761Y-16865239D01*
X5811190Y-16879524D01*
X5725476Y-16879524D01*
X5696904Y-16865239D01*
X5682618Y-16850953D01*
X6054047Y-16579524D02*
X6082618Y-16579524D01*
X6111190Y-16593810D01*
X6125476Y-16608096D01*
X6139761Y-16636667D01*
X6154047Y-16693810D01*
X6154047Y-16765239D01*
X6139761Y-16822382D01*
X6125476Y-16850953D01*
X6111190Y-16865239D01*
X6082618Y-16879524D01*
X6054047Y-16879524D01*
X6025476Y-16865239D01*
X6011190Y-16850953D01*
X5996904Y-16822382D01*
X5982618Y-16765239D01*
X5982618Y-16693810D01*
X5996904Y-16636667D01*
X6011190Y-16608096D01*
X6025476Y-16593810D01*
X6054047Y-16579524D01*
X6282618Y-16879524D02*
X6282618Y-16679524D01*
X6282618Y-16708096D02*
X6296904Y-16693810D01*
X6325476Y-16679524D01*
X6368333Y-16679524D01*
X6396904Y-16693810D01*
X6411190Y-16722381D01*
X6411190Y-16879524D01*
X6411190Y-16722381D02*
X6425476Y-16693810D01*
X6454047Y-16679524D01*
X6496904Y-16679524D01*
X6525476Y-16693810D01*
X6539761Y-16722381D01*
X6539761Y-16879524D01*
X6682618Y-16879524D02*
X6682618Y-16679524D01*
X6682618Y-16708096D02*
X6696904Y-16693810D01*
X6725476Y-16679524D01*
X6768333Y-16679524D01*
X6796904Y-16693810D01*
X6811190Y-16722381D01*
X6811190Y-16879524D01*
X6811190Y-16722381D02*
X6825476Y-16693810D01*
X6854047Y-16679524D01*
X6896904Y-16679524D01*
X6925476Y-16693810D01*
X6939761Y-16722381D01*
X6939761Y-16879524D01*
X7525476Y-16565239D02*
X7268333Y-16950953D01*
X7911190Y-16579524D02*
X7939761Y-16579524D01*
X7968333Y-16593810D01*
X7982618Y-16608096D01*
X7996904Y-16636667D01*
X8011190Y-16693810D01*
X8011190Y-16765239D01*
X7996904Y-16822382D01*
X7982618Y-16850953D01*
X7968333Y-16865239D01*
X7939761Y-16879524D01*
X7911190Y-16879524D01*
X7882618Y-16865239D01*
X7868333Y-16850953D01*
X7854047Y-16822382D01*
X7839761Y-16765239D01*
X7839761Y-16693810D01*
X7854047Y-16636667D01*
X7868333Y-16608096D01*
X7882618Y-16593810D01*
X7911190Y-16579524D01*
X8139761Y-16850953D02*
X8154047Y-16865239D01*
X8139761Y-16879524D01*
X8125476Y-16865239D01*
X8139761Y-16850953D01*
X8139761Y-16879524D01*
X8339761Y-16579524D02*
X8368333Y-16579524D01*
X8396904Y-16593810D01*
X8411190Y-16608096D01*
X8425476Y-16636667D01*
X8439761Y-16693810D01*
X8439761Y-16765239D01*
X8425476Y-16822382D01*
X8411190Y-16850953D01*
X8396904Y-16865239D01*
X8368333Y-16879524D01*
X8339761Y-16879524D01*
X8311190Y-16865239D01*
X8296904Y-16850953D01*
X8282618Y-16822382D01*
X8268333Y-16765239D01*
X8268333Y-16693810D01*
X8282618Y-16636667D01*
X8296904Y-16608096D01*
X8311190Y-16593810D01*
X8339761Y-16579524D01*
X8711190Y-16579524D02*
X8568333Y-16579524D01*
X8554047Y-16722381D01*
X8568333Y-16708096D01*
X8596904Y-16693810D01*
X8668333Y-16693810D01*
X8696904Y-16708096D01*
X8711190Y-16722381D01*
X8725476Y-16750953D01*
X8725476Y-16822382D01*
X8711190Y-16850953D01*
X8696904Y-16865239D01*
X8668333Y-16879524D01*
X8596904Y-16879524D01*
X8568333Y-16865239D01*
X8554047Y-16850953D01*
X9011190Y-16879524D02*
X8839761Y-16879524D01*
X8925476Y-16879524D02*
X8925476Y-16579524D01*
X8896904Y-16622381D01*
X8868333Y-16650953D01*
X8839761Y-16665239D01*
X9125476Y-16579524D02*
X9125476Y-16636667D01*
X9239761Y-16579524D02*
X9239761Y-16636667D01*
X9682618Y-16993810D02*
X9668333Y-16979524D01*
X9639761Y-16936667D01*
X9625476Y-16908096D01*
X9611190Y-16865239D01*
X9596904Y-16793810D01*
X9596904Y-16736667D01*
X9611190Y-16665239D01*
X9625476Y-16622381D01*
X9639761Y-16593810D01*
X9668333Y-16550953D01*
X9682618Y-16536667D01*
X9954047Y-16879524D02*
X9782618Y-16879524D01*
X9868333Y-16879524D02*
X9868333Y-16579524D01*
X9839761Y-16622381D01*
X9811190Y-16650953D01*
X9782618Y-16665239D01*
X10311190Y-16879524D02*
X10311190Y-16579524D01*
X10439761Y-16879524D02*
X10439761Y-16722381D01*
X10425476Y-16693810D01*
X10396904Y-16679524D01*
X10354047Y-16679524D01*
X10325476Y-16693810D01*
X10311190Y-16708096D01*
X10625476Y-16879524D02*
X10596904Y-16865239D01*
X10582618Y-16850953D01*
X10568333Y-16822382D01*
X10568333Y-16736667D01*
X10582618Y-16708096D01*
X10596904Y-16693810D01*
X10625476Y-16679524D01*
X10668333Y-16679524D01*
X10696904Y-16693810D01*
X10711190Y-16708096D01*
X10725476Y-16736667D01*
X10725476Y-16822382D01*
X10711190Y-16850953D01*
X10696904Y-16865239D01*
X10668333Y-16879524D01*
X10625476Y-16879524D01*
X10896904Y-16879524D02*
X10868333Y-16865239D01*
X10854047Y-16836667D01*
X10854047Y-16579524D01*
X11125476Y-16865239D02*
X11096904Y-16879524D01*
X11039761Y-16879524D01*
X11011190Y-16865239D01*
X10996904Y-16836667D01*
X10996904Y-16722381D01*
X11011190Y-16693810D01*
X11039761Y-16679524D01*
X11096904Y-16679524D01*
X11125476Y-16693810D01*
X11139761Y-16722381D01*
X11139761Y-16750953D01*
X10996904Y-16779524D01*
X11254047Y-16865239D02*
X11282618Y-16879524D01*
X11339761Y-16879524D01*
X11368333Y-16865239D01*
X11382618Y-16836667D01*
X11382618Y-16822382D01*
X11368333Y-16793810D01*
X11339761Y-16779524D01*
X11296904Y-16779524D01*
X11268333Y-16765239D01*
X11254047Y-16736667D01*
X11254047Y-16722381D01*
X11268333Y-16693810D01*
X11296904Y-16679524D01*
X11339761Y-16679524D01*
X11368333Y-16693810D01*
X11739761Y-16765239D02*
X11968333Y-16765239D01*
X11854047Y-16879524D02*
X11854047Y-16650953D01*
X12468333Y-16679524D02*
X12468333Y-16879524D01*
X12396904Y-16565239D02*
X12325476Y-16779524D01*
X12511190Y-16779524D01*
X12839761Y-16865239D02*
X12868333Y-16879524D01*
X12925476Y-16879524D01*
X12954047Y-16865239D01*
X12968333Y-16836667D01*
X12968333Y-16822382D01*
X12954047Y-16793810D01*
X12925476Y-16779524D01*
X12882618Y-16779524D01*
X12854047Y-16765239D01*
X12839761Y-16736667D01*
X12839761Y-16722381D01*
X12854047Y-16693810D01*
X12882618Y-16679524D01*
X12925476Y-16679524D01*
X12954047Y-16693810D01*
X13139761Y-16879524D02*
X13111190Y-16865239D01*
X13096904Y-16836667D01*
X13096904Y-16579524D01*
X13296904Y-16879524D02*
X13268333Y-16865239D01*
X13254047Y-16850953D01*
X13239761Y-16822382D01*
X13239761Y-16736667D01*
X13254047Y-16708096D01*
X13268333Y-16693810D01*
X13296904Y-16679524D01*
X13339761Y-16679524D01*
X13368333Y-16693810D01*
X13382618Y-16708096D01*
X13396904Y-16736667D01*
X13396904Y-16822382D01*
X13382618Y-16850953D01*
X13368333Y-16865239D01*
X13339761Y-16879524D01*
X13296904Y-16879524D01*
X13482618Y-16679524D02*
X13596904Y-16679524D01*
X13525476Y-16579524D02*
X13525476Y-16836667D01*
X13539761Y-16865239D01*
X13568333Y-16879524D01*
X13596904Y-16879524D01*
X13682618Y-16865239D02*
X13711190Y-16879524D01*
X13768333Y-16879524D01*
X13796904Y-16865239D01*
X13811190Y-16836667D01*
X13811190Y-16822382D01*
X13796904Y-16793810D01*
X13768333Y-16779524D01*
X13725476Y-16779524D01*
X13696904Y-16765239D01*
X13682618Y-16736667D01*
X13682618Y-16722381D01*
X13696904Y-16693810D01*
X13725476Y-16679524D01*
X13768333Y-16679524D01*
X13796904Y-16693810D01*
X13911190Y-16993810D02*
X13925476Y-16979524D01*
X13954047Y-16936667D01*
X13968333Y-16908096D01*
X13982618Y-16865239D01*
X13996904Y-16793810D01*
X13996904Y-16736667D01*
X13982618Y-16665239D01*
X13968333Y-16622381D01*
X13954047Y-16593810D01*
X13925476Y-16550953D01*
X13911190Y-16536667D01*
X4846190Y-17064810D02*
X4996190Y-17214810D01*
X4996190Y-17064810D02*
X4846190Y-17214810D01*
X4921190Y-17064810D02*
X4921190Y-17214810D01*
X4846190Y-17139810D02*
X4996190Y-17139810D01*
X5439761Y-17275524D02*
X5268333Y-17275524D01*
X5354047Y-17275524D02*
X5354047Y-16975524D01*
X5325476Y-17018382D01*
X5296904Y-17046953D01*
X5268333Y-17061239D01*
X5568333Y-17246953D02*
X5582618Y-17261239D01*
X5568333Y-17275524D01*
X5554047Y-17261239D01*
X5568333Y-17246953D01*
X5568333Y-17275524D01*
X5854047Y-16975524D02*
X5711190Y-16975524D01*
X5696904Y-17118382D01*
X5711190Y-17104096D01*
X5739761Y-17089810D01*
X5811190Y-17089810D01*
X5839761Y-17104096D01*
X5854047Y-17118382D01*
X5868333Y-17146953D01*
X5868333Y-17218382D01*
X5854047Y-17246953D01*
X5839761Y-17261239D01*
X5811190Y-17275524D01*
X5739761Y-17275524D01*
X5711190Y-17261239D01*
X5696904Y-17246953D01*
X6054047Y-16975524D02*
X6082618Y-16975524D01*
X6111190Y-16989810D01*
X6125476Y-17004096D01*
X6139761Y-17032667D01*
X6154047Y-17089810D01*
X6154047Y-17161239D01*
X6139761Y-17218382D01*
X6125476Y-17246953D01*
X6111190Y-17261239D01*
X6082618Y-17275524D01*
X6054047Y-17275524D01*
X6025476Y-17261239D01*
X6011190Y-17246953D01*
X5996904Y-17218382D01*
X5982618Y-17161239D01*
X5982618Y-17089810D01*
X5996904Y-17032667D01*
X6011190Y-17004096D01*
X6025476Y-16989810D01*
X6054047Y-16975524D01*
X6282618Y-17275524D02*
X6282618Y-17075524D01*
X6282618Y-17104096D02*
X6296904Y-17089810D01*
X6325476Y-17075524D01*
X6368333Y-17075524D01*
X6396904Y-17089810D01*
X6411190Y-17118382D01*
X6411190Y-17275524D01*
X6411190Y-17118382D02*
X6425476Y-17089810D01*
X6454047Y-17075524D01*
X6496904Y-17075524D01*
X6525476Y-17089810D01*
X6539761Y-17118382D01*
X6539761Y-17275524D01*
X6682618Y-17275524D02*
X6682618Y-17075524D01*
X6682618Y-17104096D02*
X6696904Y-17089810D01*
X6725476Y-17075524D01*
X6768333Y-17075524D01*
X6796904Y-17089810D01*
X6811190Y-17118382D01*
X6811190Y-17275524D01*
X6811190Y-17118382D02*
X6825476Y-17089810D01*
X6854047Y-17075524D01*
X6896904Y-17075524D01*
X6925476Y-17089810D01*
X6939761Y-17118382D01*
X6939761Y-17275524D01*
X7525476Y-16961239D02*
X7268333Y-17346953D01*
X7911190Y-16975524D02*
X7939761Y-16975524D01*
X7968333Y-16989810D01*
X7982618Y-17004096D01*
X7996904Y-17032667D01*
X8011190Y-17089810D01*
X8011190Y-17161239D01*
X7996904Y-17218382D01*
X7982618Y-17246953D01*
X7968333Y-17261239D01*
X7939761Y-17275524D01*
X7911190Y-17275524D01*
X7882618Y-17261239D01*
X7868333Y-17246953D01*
X7854047Y-17218382D01*
X7839761Y-17161239D01*
X7839761Y-17089810D01*
X7854047Y-17032667D01*
X7868333Y-17004096D01*
X7882618Y-16989810D01*
X7911190Y-16975524D01*
X8139761Y-17246953D02*
X8154047Y-17261239D01*
X8139761Y-17275524D01*
X8125476Y-17261239D01*
X8139761Y-17246953D01*
X8139761Y-17275524D01*
X8339761Y-16975524D02*
X8368333Y-16975524D01*
X8396904Y-16989810D01*
X8411190Y-17004096D01*
X8425476Y-17032667D01*
X8439761Y-17089810D01*
X8439761Y-17161239D01*
X8425476Y-17218382D01*
X8411190Y-17246953D01*
X8396904Y-17261239D01*
X8368333Y-17275524D01*
X8339761Y-17275524D01*
X8311190Y-17261239D01*
X8296904Y-17246953D01*
X8282618Y-17218382D01*
X8268333Y-17161239D01*
X8268333Y-17089810D01*
X8282618Y-17032667D01*
X8296904Y-17004096D01*
X8311190Y-16989810D01*
X8339761Y-16975524D01*
X8711190Y-16975524D02*
X8568333Y-16975524D01*
X8554047Y-17118382D01*
X8568333Y-17104096D01*
X8596904Y-17089810D01*
X8668333Y-17089810D01*
X8696904Y-17104096D01*
X8711190Y-17118382D01*
X8725476Y-17146953D01*
X8725476Y-17218382D01*
X8711190Y-17246953D01*
X8696904Y-17261239D01*
X8668333Y-17275524D01*
X8596904Y-17275524D01*
X8568333Y-17261239D01*
X8554047Y-17246953D01*
X8868333Y-17275524D02*
X8925476Y-17275524D01*
X8954047Y-17261239D01*
X8968333Y-17246953D01*
X8996904Y-17204096D01*
X9011190Y-17146953D01*
X9011190Y-17032667D01*
X8996904Y-17004096D01*
X8982618Y-16989810D01*
X8954047Y-16975524D01*
X8896904Y-16975524D01*
X8868333Y-16989810D01*
X8854047Y-17004096D01*
X8839761Y-17032667D01*
X8839761Y-17104096D01*
X8854047Y-17132667D01*
X8868333Y-17146953D01*
X8896904Y-17161239D01*
X8954047Y-17161239D01*
X8982618Y-17146953D01*
X8996904Y-17132667D01*
X9011190Y-17104096D01*
X9125476Y-16975524D02*
X9125476Y-17032667D01*
X9239761Y-16975524D02*
X9239761Y-17032667D01*
X9682618Y-17389810D02*
X9668333Y-17375524D01*
X9639761Y-17332667D01*
X9625476Y-17304096D01*
X9611190Y-17261239D01*
X9596904Y-17189810D01*
X9596904Y-17132667D01*
X9611190Y-17061239D01*
X9625476Y-17018382D01*
X9639761Y-16989810D01*
X9668333Y-16946953D01*
X9682618Y-16932667D01*
X9925476Y-17075524D02*
X9925476Y-17275524D01*
X9854047Y-16961239D02*
X9782618Y-17175524D01*
X9968333Y-17175524D01*
X10311190Y-17275524D02*
X10311190Y-16975524D01*
X10439761Y-17275524D02*
X10439761Y-17118382D01*
X10425476Y-17089810D01*
X10396904Y-17075524D01*
X10354047Y-17075524D01*
X10325476Y-17089810D01*
X10311190Y-17104096D01*
X10625476Y-17275524D02*
X10596904Y-17261239D01*
X10582618Y-17246953D01*
X10568333Y-17218382D01*
X10568333Y-17132667D01*
X10582618Y-17104096D01*
X10596904Y-17089810D01*
X10625476Y-17075524D01*
X10668333Y-17075524D01*
X10696904Y-17089810D01*
X10711190Y-17104096D01*
X10725476Y-17132667D01*
X10725476Y-17218382D01*
X10711190Y-17246953D01*
X10696904Y-17261239D01*
X10668333Y-17275524D01*
X10625476Y-17275524D01*
X10896904Y-17275524D02*
X10868333Y-17261239D01*
X10854047Y-17232667D01*
X10854047Y-16975524D01*
X11125476Y-17261239D02*
X11096904Y-17275524D01*
X11039761Y-17275524D01*
X11011190Y-17261239D01*
X10996904Y-17232667D01*
X10996904Y-17118382D01*
X11011190Y-17089810D01*
X11039761Y-17075524D01*
X11096904Y-17075524D01*
X11125476Y-17089810D01*
X11139761Y-17118382D01*
X11139761Y-17146953D01*
X10996904Y-17175524D01*
X11254047Y-17261239D02*
X11282618Y-17275524D01*
X11339761Y-17275524D01*
X11368333Y-17261239D01*
X11382618Y-17232667D01*
X11382618Y-17218382D01*
X11368333Y-17189810D01*
X11339761Y-17175524D01*
X11296904Y-17175524D01*
X11268333Y-17161239D01*
X11254047Y-17132667D01*
X11254047Y-17118382D01*
X11268333Y-17089810D01*
X11296904Y-17075524D01*
X11339761Y-17075524D01*
X11368333Y-17089810D01*
X11482618Y-17389810D02*
X11496904Y-17375524D01*
X11525476Y-17332667D01*
X11539761Y-17304096D01*
X11554047Y-17261239D01*
X11568333Y-17189810D01*
X11568333Y-17132667D01*
X11554047Y-17061239D01*
X11539761Y-17018382D01*
X11525476Y-16989810D01*
X11496904Y-16946953D01*
X11482618Y-16932667D01*
X4691390Y-17383410D02*
X4996190Y-17688210D01*
X4996190Y-17383410D02*
X4691390Y-17688210D01*
X4951554Y-17643574D02*
X4951554Y-17428046D01*
X4736026Y-17428046D01*
X4736026Y-17643574D01*
X4951554Y-17643574D01*
X5254047Y-17371524D02*
X5439761Y-17371524D01*
X5339761Y-17485810D01*
X5382618Y-17485810D01*
X5411190Y-17500096D01*
X5425476Y-17514382D01*
X5439761Y-17542953D01*
X5439761Y-17614382D01*
X5425476Y-17642953D01*
X5411190Y-17657239D01*
X5382618Y-17671524D01*
X5296904Y-17671524D01*
X5268333Y-17657239D01*
X5254047Y-17642953D01*
X5568333Y-17642953D02*
X5582618Y-17657239D01*
X5568333Y-17671524D01*
X5554047Y-17657239D01*
X5568333Y-17642953D01*
X5568333Y-17671524D01*
X5768333Y-17371524D02*
X5796904Y-17371524D01*
X5825476Y-17385810D01*
X5839761Y-17400096D01*
X5854047Y-17428667D01*
X5868333Y-17485810D01*
X5868333Y-17557239D01*
X5854047Y-17614382D01*
X5839761Y-17642953D01*
X5825476Y-17657239D01*
X5796904Y-17671524D01*
X5768333Y-17671524D01*
X5739761Y-17657239D01*
X5725476Y-17642953D01*
X5711190Y-17614382D01*
X5696904Y-17557239D01*
X5696904Y-17485810D01*
X5711190Y-17428667D01*
X5725476Y-17400096D01*
X5739761Y-17385810D01*
X5768333Y-17371524D01*
X6139761Y-17371524D02*
X5996904Y-17371524D01*
X5982618Y-17514382D01*
X5996904Y-17500096D01*
X6025476Y-17485810D01*
X6096904Y-17485810D01*
X6125476Y-17500096D01*
X6139761Y-17514382D01*
X6154047Y-17542953D01*
X6154047Y-17614382D01*
X6139761Y-17642953D01*
X6125476Y-17657239D01*
X6096904Y-17671524D01*
X6025476Y-17671524D01*
X5996904Y-17657239D01*
X5982618Y-17642953D01*
X6282618Y-17671524D02*
X6282618Y-17471524D01*
X6282618Y-17500096D02*
X6296904Y-17485810D01*
X6325476Y-17471524D01*
X6368333Y-17471524D01*
X6396904Y-17485810D01*
X6411190Y-17514382D01*
X6411190Y-17671524D01*
X6411190Y-17514382D02*
X6425476Y-17485810D01*
X6454047Y-17471524D01*
X6496904Y-17471524D01*
X6525476Y-17485810D01*
X6539761Y-17514382D01*
X6539761Y-17671524D01*
X6682618Y-17671524D02*
X6682618Y-17471524D01*
X6682618Y-17500096D02*
X6696904Y-17485810D01*
X6725476Y-17471524D01*
X6768333Y-17471524D01*
X6796904Y-17485810D01*
X6811190Y-17514382D01*
X6811190Y-17671524D01*
X6811190Y-17514382D02*
X6825476Y-17485810D01*
X6854047Y-17471524D01*
X6896904Y-17471524D01*
X6925476Y-17485810D01*
X6939761Y-17514382D01*
X6939761Y-17671524D01*
X7525476Y-17357239D02*
X7268333Y-17742953D01*
X7911190Y-17371524D02*
X7939761Y-17371524D01*
X7968333Y-17385810D01*
X7982618Y-17400096D01*
X7996904Y-17428667D01*
X8011190Y-17485810D01*
X8011190Y-17557239D01*
X7996904Y-17614382D01*
X7982618Y-17642953D01*
X7968333Y-17657239D01*
X7939761Y-17671524D01*
X7911190Y-17671524D01*
X7882618Y-17657239D01*
X7868333Y-17642953D01*
X7854047Y-17614382D01*
X7839761Y-17557239D01*
X7839761Y-17485810D01*
X7854047Y-17428667D01*
X7868333Y-17400096D01*
X7882618Y-17385810D01*
X7911190Y-17371524D01*
X8139761Y-17642953D02*
X8154047Y-17657239D01*
X8139761Y-17671524D01*
X8125476Y-17657239D01*
X8139761Y-17642953D01*
X8139761Y-17671524D01*
X8439761Y-17671524D02*
X8268333Y-17671524D01*
X8354047Y-17671524D02*
X8354047Y-17371524D01*
X8325476Y-17414382D01*
X8296904Y-17442953D01*
X8268333Y-17457239D01*
X8554047Y-17400096D02*
X8568333Y-17385810D01*
X8596904Y-17371524D01*
X8668333Y-17371524D01*
X8696904Y-17385810D01*
X8711190Y-17400096D01*
X8725476Y-17428667D01*
X8725476Y-17457239D01*
X8711190Y-17500096D01*
X8539761Y-17671524D01*
X8725476Y-17671524D01*
X8911190Y-17371524D02*
X8939761Y-17371524D01*
X8968333Y-17385810D01*
X8982618Y-17400096D01*
X8996904Y-17428667D01*
X9011190Y-17485810D01*
X9011190Y-17557239D01*
X8996904Y-17614382D01*
X8982618Y-17642953D01*
X8968333Y-17657239D01*
X8939761Y-17671524D01*
X8911190Y-17671524D01*
X8882618Y-17657239D01*
X8868333Y-17642953D01*
X8854047Y-17614382D01*
X8839761Y-17557239D01*
X8839761Y-17485810D01*
X8854047Y-17428667D01*
X8868333Y-17400096D01*
X8882618Y-17385810D01*
X8911190Y-17371524D01*
X9125476Y-17371524D02*
X9125476Y-17428667D01*
X9239761Y-17371524D02*
X9239761Y-17428667D01*
X9682618Y-17785810D02*
X9668333Y-17771524D01*
X9639761Y-17728667D01*
X9625476Y-17700096D01*
X9611190Y-17657239D01*
X9596904Y-17585810D01*
X9596904Y-17528667D01*
X9611190Y-17457239D01*
X9625476Y-17414382D01*
X9639761Y-17385810D01*
X9668333Y-17342953D01*
X9682618Y-17328667D01*
X9782618Y-17400096D02*
X9796904Y-17385810D01*
X9825476Y-17371524D01*
X9896904Y-17371524D01*
X9925476Y-17385810D01*
X9939761Y-17400096D01*
X9954047Y-17428667D01*
X9954047Y-17457239D01*
X9939761Y-17500096D01*
X9768333Y-17671524D01*
X9954047Y-17671524D01*
X10311190Y-17671524D02*
X10311190Y-17371524D01*
X10439761Y-17671524D02*
X10439761Y-17514382D01*
X10425476Y-17485810D01*
X10396904Y-17471524D01*
X10354047Y-17471524D01*
X10325476Y-17485810D01*
X10311190Y-17500096D01*
X10625476Y-17671524D02*
X10596904Y-17657239D01*
X10582618Y-17642953D01*
X10568333Y-17614382D01*
X10568333Y-17528667D01*
X10582618Y-17500096D01*
X10596904Y-17485810D01*
X10625476Y-17471524D01*
X10668333Y-17471524D01*
X10696904Y-17485810D01*
X10711190Y-17500096D01*
X10725476Y-17528667D01*
X10725476Y-17614382D01*
X10711190Y-17642953D01*
X10696904Y-17657239D01*
X10668333Y-17671524D01*
X10625476Y-17671524D01*
X10896904Y-17671524D02*
X10868333Y-17657239D01*
X10854047Y-17628667D01*
X10854047Y-17371524D01*
X11125476Y-17657239D02*
X11096904Y-17671524D01*
X11039761Y-17671524D01*
X11011190Y-17657239D01*
X10996904Y-17628667D01*
X10996904Y-17514382D01*
X11011190Y-17485810D01*
X11039761Y-17471524D01*
X11096904Y-17471524D01*
X11125476Y-17485810D01*
X11139761Y-17514382D01*
X11139761Y-17542953D01*
X10996904Y-17571524D01*
X11254047Y-17657239D02*
X11282618Y-17671524D01*
X11339761Y-17671524D01*
X11368333Y-17657239D01*
X11382618Y-17628667D01*
X11382618Y-17614382D01*
X11368333Y-17585810D01*
X11339761Y-17571524D01*
X11296904Y-17571524D01*
X11268333Y-17557239D01*
X11254047Y-17528667D01*
X11254047Y-17514382D01*
X11268333Y-17485810D01*
X11296904Y-17471524D01*
X11339761Y-17471524D01*
X11368333Y-17485810D01*
X11482618Y-17785810D02*
X11496904Y-17771524D01*
X11525476Y-17728667D01*
X11539761Y-17700096D01*
X11554047Y-17657239D01*
X11568333Y-17585810D01*
X11568333Y-17528667D01*
X11554047Y-17457239D01*
X11539761Y-17414382D01*
X11525476Y-17385810D01*
X11496904Y-17342953D01*
X11482618Y-17328667D01*
X4676190Y-17810610D02*
X4996190Y-18130610D01*
X4996190Y-17810610D02*
X4676190Y-18130610D01*
X4836190Y-18130610D02*
X4996190Y-17970610D01*
X4836190Y-17810610D01*
X4676190Y-17970610D01*
X4836190Y-18130610D01*
X5254047Y-17806324D02*
X5439761Y-17806324D01*
X5339761Y-17920610D01*
X5382618Y-17920610D01*
X5411190Y-17934896D01*
X5425476Y-17949182D01*
X5439761Y-17977753D01*
X5439761Y-18049182D01*
X5425476Y-18077753D01*
X5411190Y-18092039D01*
X5382618Y-18106324D01*
X5296904Y-18106324D01*
X5268333Y-18092039D01*
X5254047Y-18077753D01*
X5568333Y-18077753D02*
X5582618Y-18092039D01*
X5568333Y-18106324D01*
X5554047Y-18092039D01*
X5568333Y-18077753D01*
X5568333Y-18106324D01*
X5696904Y-17834896D02*
X5711190Y-17820610D01*
X5739761Y-17806324D01*
X5811190Y-17806324D01*
X5839761Y-17820610D01*
X5854047Y-17834896D01*
X5868333Y-17863467D01*
X5868333Y-17892039D01*
X5854047Y-17934896D01*
X5682618Y-18106324D01*
X5868333Y-18106324D01*
X6054047Y-17806324D02*
X6082618Y-17806324D01*
X6111190Y-17820610D01*
X6125476Y-17834896D01*
X6139761Y-17863467D01*
X6154047Y-17920610D01*
X6154047Y-17992039D01*
X6139761Y-18049182D01*
X6125476Y-18077753D01*
X6111190Y-18092039D01*
X6082618Y-18106324D01*
X6054047Y-18106324D01*
X6025476Y-18092039D01*
X6011190Y-18077753D01*
X5996904Y-18049182D01*
X5982618Y-17992039D01*
X5982618Y-17920610D01*
X5996904Y-17863467D01*
X6011190Y-17834896D01*
X6025476Y-17820610D01*
X6054047Y-17806324D01*
X6282618Y-18106324D02*
X6282618Y-17906324D01*
X6282618Y-17934896D02*
X6296904Y-17920610D01*
X6325476Y-17906324D01*
X6368333Y-17906324D01*
X6396904Y-17920610D01*
X6411190Y-17949182D01*
X6411190Y-18106324D01*
X6411190Y-17949182D02*
X6425476Y-17920610D01*
X6454047Y-17906324D01*
X6496904Y-17906324D01*
X6525476Y-17920610D01*
X6539761Y-17949182D01*
X6539761Y-18106324D01*
X6682618Y-18106324D02*
X6682618Y-17906324D01*
X6682618Y-17934896D02*
X6696904Y-17920610D01*
X6725476Y-17906324D01*
X6768333Y-17906324D01*
X6796904Y-17920610D01*
X6811190Y-17949182D01*
X6811190Y-18106324D01*
X6811190Y-17949182D02*
X6825476Y-17920610D01*
X6854047Y-17906324D01*
X6896904Y-17906324D01*
X6925476Y-17920610D01*
X6939761Y-17949182D01*
X6939761Y-18106324D01*
X7525476Y-17792039D02*
X7268333Y-18177753D01*
X7911190Y-17806324D02*
X7939761Y-17806324D01*
X7968333Y-17820610D01*
X7982618Y-17834896D01*
X7996904Y-17863467D01*
X8011190Y-17920610D01*
X8011190Y-17992039D01*
X7996904Y-18049182D01*
X7982618Y-18077753D01*
X7968333Y-18092039D01*
X7939761Y-18106324D01*
X7911190Y-18106324D01*
X7882618Y-18092039D01*
X7868333Y-18077753D01*
X7854047Y-18049182D01*
X7839761Y-17992039D01*
X7839761Y-17920610D01*
X7854047Y-17863467D01*
X7868333Y-17834896D01*
X7882618Y-17820610D01*
X7911190Y-17806324D01*
X8139761Y-18077753D02*
X8154047Y-18092039D01*
X8139761Y-18106324D01*
X8125476Y-18092039D01*
X8139761Y-18077753D01*
X8139761Y-18106324D01*
X8439761Y-18106324D02*
X8268333Y-18106324D01*
X8354047Y-18106324D02*
X8354047Y-17806324D01*
X8325476Y-17849182D01*
X8296904Y-17877753D01*
X8268333Y-17892039D01*
X8554047Y-17834896D02*
X8568333Y-17820610D01*
X8596904Y-17806324D01*
X8668333Y-17806324D01*
X8696904Y-17820610D01*
X8711190Y-17834896D01*
X8725476Y-17863467D01*
X8725476Y-17892039D01*
X8711190Y-17934896D01*
X8539761Y-18106324D01*
X8725476Y-18106324D01*
X8982618Y-17806324D02*
X8925476Y-17806324D01*
X8896904Y-17820610D01*
X8882618Y-17834896D01*
X8854047Y-17877753D01*
X8839761Y-17934896D01*
X8839761Y-18049182D01*
X8854047Y-18077753D01*
X8868333Y-18092039D01*
X8896904Y-18106324D01*
X8954047Y-18106324D01*
X8982618Y-18092039D01*
X8996904Y-18077753D01*
X9011190Y-18049182D01*
X9011190Y-17977753D01*
X8996904Y-17949182D01*
X8982618Y-17934896D01*
X8954047Y-17920610D01*
X8896904Y-17920610D01*
X8868333Y-17934896D01*
X8854047Y-17949182D01*
X8839761Y-17977753D01*
X9125476Y-17806324D02*
X9125476Y-17863467D01*
X9239761Y-17806324D02*
X9239761Y-17863467D01*
X9682618Y-18220610D02*
X9668333Y-18206324D01*
X9639761Y-18163467D01*
X9625476Y-18134896D01*
X9611190Y-18092039D01*
X9596904Y-18020610D01*
X9596904Y-17963467D01*
X9611190Y-17892039D01*
X9625476Y-17849182D01*
X9639761Y-17820610D01*
X9668333Y-17777753D01*
X9682618Y-17763467D01*
X9925476Y-17906324D02*
X9925476Y-18106324D01*
X9854047Y-17792039D02*
X9782618Y-18006324D01*
X9968333Y-18006324D01*
X10311190Y-18106324D02*
X10311190Y-17806324D01*
X10439761Y-18106324D02*
X10439761Y-17949182D01*
X10425476Y-17920610D01*
X10396904Y-17906324D01*
X10354047Y-17906324D01*
X10325476Y-17920610D01*
X10311190Y-17934896D01*
X10625476Y-18106324D02*
X10596904Y-18092039D01*
X10582618Y-18077753D01*
X10568333Y-18049182D01*
X10568333Y-17963467D01*
X10582618Y-17934896D01*
X10596904Y-17920610D01*
X10625476Y-17906324D01*
X10668333Y-17906324D01*
X10696904Y-17920610D01*
X10711190Y-17934896D01*
X10725476Y-17963467D01*
X10725476Y-18049182D01*
X10711190Y-18077753D01*
X10696904Y-18092039D01*
X10668333Y-18106324D01*
X10625476Y-18106324D01*
X10896904Y-18106324D02*
X10868333Y-18092039D01*
X10854047Y-18063467D01*
X10854047Y-17806324D01*
X11125476Y-18092039D02*
X11096904Y-18106324D01*
X11039761Y-18106324D01*
X11011190Y-18092039D01*
X10996904Y-18063467D01*
X10996904Y-17949182D01*
X11011190Y-17920610D01*
X11039761Y-17906324D01*
X11096904Y-17906324D01*
X11125476Y-17920610D01*
X11139761Y-17949182D01*
X11139761Y-17977753D01*
X10996904Y-18006324D01*
X11254047Y-18092039D02*
X11282618Y-18106324D01*
X11339761Y-18106324D01*
X11368333Y-18092039D01*
X11382618Y-18063467D01*
X11382618Y-18049182D01*
X11368333Y-18020610D01*
X11339761Y-18006324D01*
X11296904Y-18006324D01*
X11268333Y-17992039D01*
X11254047Y-17963467D01*
X11254047Y-17949182D01*
X11268333Y-17920610D01*
X11296904Y-17906324D01*
X11339761Y-17906324D01*
X11368333Y-17920610D01*
X11482618Y-18220610D02*
X11496904Y-18206324D01*
X11525476Y-18163467D01*
X11539761Y-18134896D01*
X11554047Y-18092039D01*
X11568333Y-18020610D01*
X11568333Y-17963467D01*
X11554047Y-17892039D01*
X11539761Y-17849182D01*
X11525476Y-17820610D01*
X11496904Y-17777753D01*
X11482618Y-17763467D01*
X4906190Y-18330610D02*
X4906190Y-18510610D01*
X4816190Y-18420610D02*
X4996190Y-18420610D01*
X4996190Y-18420610D02*
G75*
G03*
X4996190Y-18420610I-90000J0D01*
G01*
X5439761Y-18556324D02*
X5268333Y-18556324D01*
X5354047Y-18556324D02*
X5354047Y-18256324D01*
X5325476Y-18299182D01*
X5296904Y-18327753D01*
X5268333Y-18342039D01*
X5568333Y-18527753D02*
X5582618Y-18542039D01*
X5568333Y-18556324D01*
X5554047Y-18542039D01*
X5568333Y-18527753D01*
X5568333Y-18556324D01*
X5754047Y-18384896D02*
X5725476Y-18370610D01*
X5711190Y-18356324D01*
X5696904Y-18327753D01*
X5696904Y-18313467D01*
X5711190Y-18284896D01*
X5725476Y-18270610D01*
X5754047Y-18256324D01*
X5811190Y-18256324D01*
X5839761Y-18270610D01*
X5854047Y-18284896D01*
X5868333Y-18313467D01*
X5868333Y-18327753D01*
X5854047Y-18356324D01*
X5839761Y-18370610D01*
X5811190Y-18384896D01*
X5754047Y-18384896D01*
X5725476Y-18399182D01*
X5711190Y-18413467D01*
X5696904Y-18442039D01*
X5696904Y-18499182D01*
X5711190Y-18527753D01*
X5725476Y-18542039D01*
X5754047Y-18556324D01*
X5811190Y-18556324D01*
X5839761Y-18542039D01*
X5854047Y-18527753D01*
X5868333Y-18499182D01*
X5868333Y-18442039D01*
X5854047Y-18413467D01*
X5839761Y-18399182D01*
X5811190Y-18384896D01*
X6054047Y-18256324D02*
X6082618Y-18256324D01*
X6111190Y-18270610D01*
X6125476Y-18284896D01*
X6139761Y-18313467D01*
X6154047Y-18370610D01*
X6154047Y-18442039D01*
X6139761Y-18499182D01*
X6125476Y-18527753D01*
X6111190Y-18542039D01*
X6082618Y-18556324D01*
X6054047Y-18556324D01*
X6025476Y-18542039D01*
X6011190Y-18527753D01*
X5996904Y-18499182D01*
X5982618Y-18442039D01*
X5982618Y-18370610D01*
X5996904Y-18313467D01*
X6011190Y-18284896D01*
X6025476Y-18270610D01*
X6054047Y-18256324D01*
X6282618Y-18556324D02*
X6282618Y-18356324D01*
X6282618Y-18384896D02*
X6296904Y-18370610D01*
X6325476Y-18356324D01*
X6368333Y-18356324D01*
X6396904Y-18370610D01*
X6411190Y-18399182D01*
X6411190Y-18556324D01*
X6411190Y-18399182D02*
X6425476Y-18370610D01*
X6454047Y-18356324D01*
X6496904Y-18356324D01*
X6525476Y-18370610D01*
X6539761Y-18399182D01*
X6539761Y-18556324D01*
X6682618Y-18556324D02*
X6682618Y-18356324D01*
X6682618Y-18384896D02*
X6696904Y-18370610D01*
X6725476Y-18356324D01*
X6768333Y-18356324D01*
X6796904Y-18370610D01*
X6811190Y-18399182D01*
X6811190Y-18556324D01*
X6811190Y-18399182D02*
X6825476Y-18370610D01*
X6854047Y-18356324D01*
X6896904Y-18356324D01*
X6925476Y-18370610D01*
X6939761Y-18399182D01*
X6939761Y-18556324D01*
X7525476Y-18242039D02*
X7268333Y-18627753D01*
X7911190Y-18256324D02*
X7939761Y-18256324D01*
X7968333Y-18270610D01*
X7982618Y-18284896D01*
X7996904Y-18313467D01*
X8011190Y-18370610D01*
X8011190Y-18442039D01*
X7996904Y-18499182D01*
X7982618Y-18527753D01*
X7968333Y-18542039D01*
X7939761Y-18556324D01*
X7911190Y-18556324D01*
X7882618Y-18542039D01*
X7868333Y-18527753D01*
X7854047Y-18499182D01*
X7839761Y-18442039D01*
X7839761Y-18370610D01*
X7854047Y-18313467D01*
X7868333Y-18284896D01*
X7882618Y-18270610D01*
X7911190Y-18256324D01*
X8139761Y-18527753D02*
X8154047Y-18542039D01*
X8139761Y-18556324D01*
X8125476Y-18542039D01*
X8139761Y-18527753D01*
X8139761Y-18556324D01*
X8339761Y-18256324D02*
X8368333Y-18256324D01*
X8396904Y-18270610D01*
X8411190Y-18284896D01*
X8425476Y-18313467D01*
X8439761Y-18370610D01*
X8439761Y-18442039D01*
X8425476Y-18499182D01*
X8411190Y-18527753D01*
X8396904Y-18542039D01*
X8368333Y-18556324D01*
X8339761Y-18556324D01*
X8311190Y-18542039D01*
X8296904Y-18527753D01*
X8282618Y-18499182D01*
X8268333Y-18442039D01*
X8268333Y-18370610D01*
X8282618Y-18313467D01*
X8296904Y-18284896D01*
X8311190Y-18270610D01*
X8339761Y-18256324D01*
X8539761Y-18256324D02*
X8739761Y-18256324D01*
X8611190Y-18556324D01*
X9011190Y-18556324D02*
X8839761Y-18556324D01*
X8925476Y-18556324D02*
X8925476Y-18256324D01*
X8896904Y-18299182D01*
X8868333Y-18327753D01*
X8839761Y-18342039D01*
X9125476Y-18256324D02*
X9125476Y-18313467D01*
X9239761Y-18256324D02*
X9239761Y-18313467D01*
X9682618Y-18670610D02*
X9668333Y-18656324D01*
X9639761Y-18613467D01*
X9625476Y-18584896D01*
X9611190Y-18542039D01*
X9596904Y-18470610D01*
X9596904Y-18413467D01*
X9611190Y-18342039D01*
X9625476Y-18299182D01*
X9639761Y-18270610D01*
X9668333Y-18227753D01*
X9682618Y-18213467D01*
X9768333Y-18256324D02*
X9954047Y-18256324D01*
X9854047Y-18370610D01*
X9896904Y-18370610D01*
X9925476Y-18384896D01*
X9939761Y-18399182D01*
X9954047Y-18427753D01*
X9954047Y-18499182D01*
X9939761Y-18527753D01*
X9925476Y-18542039D01*
X9896904Y-18556324D01*
X9811190Y-18556324D01*
X9782618Y-18542039D01*
X9768333Y-18527753D01*
X10311190Y-18556324D02*
X10311190Y-18256324D01*
X10439761Y-18556324D02*
X10439761Y-18399182D01*
X10425476Y-18370610D01*
X10396904Y-18356324D01*
X10354047Y-18356324D01*
X10325476Y-18370610D01*
X10311190Y-18384896D01*
X10625476Y-18556324D02*
X10596904Y-18542039D01*
X10582618Y-18527753D01*
X10568333Y-18499182D01*
X10568333Y-18413467D01*
X10582618Y-18384896D01*
X10596904Y-18370610D01*
X10625476Y-18356324D01*
X10668333Y-18356324D01*
X10696904Y-18370610D01*
X10711190Y-18384896D01*
X10725476Y-18413467D01*
X10725476Y-18499182D01*
X10711190Y-18527753D01*
X10696904Y-18542039D01*
X10668333Y-18556324D01*
X10625476Y-18556324D01*
X10896904Y-18556324D02*
X10868333Y-18542039D01*
X10854047Y-18513467D01*
X10854047Y-18256324D01*
X11125476Y-18542039D02*
X11096904Y-18556324D01*
X11039761Y-18556324D01*
X11011190Y-18542039D01*
X10996904Y-18513467D01*
X10996904Y-18399182D01*
X11011190Y-18370610D01*
X11039761Y-18356324D01*
X11096904Y-18356324D01*
X11125476Y-18370610D01*
X11139761Y-18399182D01*
X11139761Y-18427753D01*
X10996904Y-18456324D01*
X11254047Y-18542039D02*
X11282618Y-18556324D01*
X11339761Y-18556324D01*
X11368333Y-18542039D01*
X11382618Y-18513467D01*
X11382618Y-18499182D01*
X11368333Y-18470610D01*
X11339761Y-18456324D01*
X11296904Y-18456324D01*
X11268333Y-18442039D01*
X11254047Y-18413467D01*
X11254047Y-18399182D01*
X11268333Y-18370610D01*
X11296904Y-18356324D01*
X11339761Y-18356324D01*
X11368333Y-18370610D01*
X11482618Y-18670610D02*
X11496904Y-18656324D01*
X11525476Y-18613467D01*
X11539761Y-18584896D01*
X11554047Y-18542039D01*
X11568333Y-18470610D01*
X11568333Y-18413467D01*
X11554047Y-18342039D01*
X11539761Y-18299182D01*
X11525476Y-18270610D01*
X11496904Y-18227753D01*
X11482618Y-18213467D01*
X12025476Y-18670610D02*
X12011190Y-18656324D01*
X11982618Y-18613467D01*
X11968333Y-18584896D01*
X11954047Y-18542039D01*
X11939761Y-18470610D01*
X11939761Y-18413467D01*
X11954047Y-18342039D01*
X11968333Y-18299182D01*
X11982618Y-18270610D01*
X12011190Y-18227753D01*
X12025476Y-18213467D01*
X12139761Y-18356324D02*
X12139761Y-18556324D01*
X12139761Y-18384896D02*
X12154047Y-18370610D01*
X12182618Y-18356324D01*
X12225476Y-18356324D01*
X12254047Y-18370610D01*
X12268333Y-18399182D01*
X12268333Y-18556324D01*
X12454047Y-18556324D02*
X12425476Y-18542039D01*
X12411190Y-18527753D01*
X12396904Y-18499182D01*
X12396904Y-18413467D01*
X12411190Y-18384896D01*
X12425476Y-18370610D01*
X12454047Y-18356324D01*
X12496904Y-18356324D01*
X12525476Y-18370610D01*
X12539761Y-18384896D01*
X12554047Y-18413467D01*
X12554047Y-18499182D01*
X12539761Y-18527753D01*
X12525476Y-18542039D01*
X12496904Y-18556324D01*
X12454047Y-18556324D01*
X12639761Y-18356324D02*
X12754047Y-18356324D01*
X12682618Y-18256324D02*
X12682618Y-18513467D01*
X12696904Y-18542039D01*
X12725476Y-18556324D01*
X12754047Y-18556324D01*
X13082618Y-18356324D02*
X13082618Y-18656324D01*
X13082618Y-18370610D02*
X13111190Y-18356324D01*
X13168333Y-18356324D01*
X13196904Y-18370610D01*
X13211190Y-18384896D01*
X13225476Y-18413467D01*
X13225476Y-18499182D01*
X13211190Y-18527753D01*
X13196904Y-18542039D01*
X13168333Y-18556324D01*
X13111190Y-18556324D01*
X13082618Y-18542039D01*
X13396904Y-18556324D02*
X13368333Y-18542039D01*
X13354047Y-18513467D01*
X13354047Y-18256324D01*
X13639761Y-18556324D02*
X13639761Y-18399182D01*
X13625476Y-18370610D01*
X13596904Y-18356324D01*
X13539761Y-18356324D01*
X13511190Y-18370610D01*
X13639761Y-18542039D02*
X13611190Y-18556324D01*
X13539761Y-18556324D01*
X13511190Y-18542039D01*
X13496904Y-18513467D01*
X13496904Y-18484896D01*
X13511190Y-18456324D01*
X13539761Y-18442039D01*
X13611190Y-18442039D01*
X13639761Y-18427753D01*
X13739761Y-18356324D02*
X13854047Y-18356324D01*
X13782618Y-18256324D02*
X13782618Y-18513467D01*
X13796904Y-18542039D01*
X13825476Y-18556324D01*
X13854047Y-18556324D01*
X14068333Y-18542039D02*
X14039761Y-18556324D01*
X13982618Y-18556324D01*
X13954047Y-18542039D01*
X13939761Y-18513467D01*
X13939761Y-18399182D01*
X13954047Y-18370610D01*
X13982618Y-18356324D01*
X14039761Y-18356324D01*
X14068333Y-18370610D01*
X14082618Y-18399182D01*
X14082618Y-18427753D01*
X13939761Y-18456324D01*
X14339761Y-18556324D02*
X14339761Y-18256324D01*
X14339761Y-18542039D02*
X14311190Y-18556324D01*
X14254047Y-18556324D01*
X14225476Y-18542039D01*
X14211190Y-18527753D01*
X14196904Y-18499182D01*
X14196904Y-18413467D01*
X14211190Y-18384896D01*
X14225476Y-18370610D01*
X14254047Y-18356324D01*
X14311190Y-18356324D01*
X14339761Y-18370610D01*
X14454047Y-18670610D02*
X14468333Y-18656324D01*
X14496904Y-18613467D01*
X14511190Y-18584896D01*
X14525476Y-18542039D01*
X14539761Y-18470610D01*
X14539761Y-18413467D01*
X14525476Y-18342039D01*
X14511190Y-18299182D01*
X14496904Y-18270610D01*
X14468333Y-18227753D01*
X14454047Y-18213467D01*
X4952257Y-18922677D02*
X4952257Y-18710543D01*
X4740123Y-18710543D01*
X4740123Y-18922677D01*
X4952257Y-18922677D01*
X4996190Y-18816610D02*
G75*
G03*
X4996190Y-18816610I-150000J0D01*
G01*
X5254047Y-18652324D02*
X5439761Y-18652324D01*
X5339761Y-18766610D01*
X5382618Y-18766610D01*
X5411190Y-18780896D01*
X5425476Y-18795182D01*
X5439761Y-18823753D01*
X5439761Y-18895182D01*
X5425476Y-18923753D01*
X5411190Y-18938039D01*
X5382618Y-18952324D01*
X5296904Y-18952324D01*
X5268333Y-18938039D01*
X5254047Y-18923753D01*
X5568333Y-18923753D02*
X5582618Y-18938039D01*
X5568333Y-18952324D01*
X5554047Y-18938039D01*
X5568333Y-18923753D01*
X5568333Y-18952324D01*
X5768333Y-18652324D02*
X5796904Y-18652324D01*
X5825476Y-18666610D01*
X5839761Y-18680896D01*
X5854047Y-18709467D01*
X5868333Y-18766610D01*
X5868333Y-18838039D01*
X5854047Y-18895182D01*
X5839761Y-18923753D01*
X5825476Y-18938039D01*
X5796904Y-18952324D01*
X5768333Y-18952324D01*
X5739761Y-18938039D01*
X5725476Y-18923753D01*
X5711190Y-18895182D01*
X5696904Y-18838039D01*
X5696904Y-18766610D01*
X5711190Y-18709467D01*
X5725476Y-18680896D01*
X5739761Y-18666610D01*
X5768333Y-18652324D01*
X6054047Y-18652324D02*
X6082618Y-18652324D01*
X6111190Y-18666610D01*
X6125476Y-18680896D01*
X6139761Y-18709467D01*
X6154047Y-18766610D01*
X6154047Y-18838039D01*
X6139761Y-18895182D01*
X6125476Y-18923753D01*
X6111190Y-18938039D01*
X6082618Y-18952324D01*
X6054047Y-18952324D01*
X6025476Y-18938039D01*
X6011190Y-18923753D01*
X5996904Y-18895182D01*
X5982618Y-18838039D01*
X5982618Y-18766610D01*
X5996904Y-18709467D01*
X6011190Y-18680896D01*
X6025476Y-18666610D01*
X6054047Y-18652324D01*
X6282618Y-18952324D02*
X6282618Y-18752324D01*
X6282618Y-18780896D02*
X6296904Y-18766610D01*
X6325476Y-18752324D01*
X6368333Y-18752324D01*
X6396904Y-18766610D01*
X6411190Y-18795182D01*
X6411190Y-18952324D01*
X6411190Y-18795182D02*
X6425476Y-18766610D01*
X6454047Y-18752324D01*
X6496904Y-18752324D01*
X6525476Y-18766610D01*
X6539761Y-18795182D01*
X6539761Y-18952324D01*
X6682618Y-18952324D02*
X6682618Y-18752324D01*
X6682618Y-18780896D02*
X6696904Y-18766610D01*
X6725476Y-18752324D01*
X6768333Y-18752324D01*
X6796904Y-18766610D01*
X6811190Y-18795182D01*
X6811190Y-18952324D01*
X6811190Y-18795182D02*
X6825476Y-18766610D01*
X6854047Y-18752324D01*
X6896904Y-18752324D01*
X6925476Y-18766610D01*
X6939761Y-18795182D01*
X6939761Y-18952324D01*
X7525476Y-18638039D02*
X7268333Y-19023753D01*
X7911190Y-18652324D02*
X7939761Y-18652324D01*
X7968333Y-18666610D01*
X7982618Y-18680896D01*
X7996904Y-18709467D01*
X8011190Y-18766610D01*
X8011190Y-18838039D01*
X7996904Y-18895182D01*
X7982618Y-18923753D01*
X7968333Y-18938039D01*
X7939761Y-18952324D01*
X7911190Y-18952324D01*
X7882618Y-18938039D01*
X7868333Y-18923753D01*
X7854047Y-18895182D01*
X7839761Y-18838039D01*
X7839761Y-18766610D01*
X7854047Y-18709467D01*
X7868333Y-18680896D01*
X7882618Y-18666610D01*
X7911190Y-18652324D01*
X8139761Y-18923753D02*
X8154047Y-18938039D01*
X8139761Y-18952324D01*
X8125476Y-18938039D01*
X8139761Y-18923753D01*
X8139761Y-18952324D01*
X8439761Y-18952324D02*
X8268333Y-18952324D01*
X8354047Y-18952324D02*
X8354047Y-18652324D01*
X8325476Y-18695182D01*
X8296904Y-18723753D01*
X8268333Y-18738039D01*
X8725476Y-18952324D02*
X8554047Y-18952324D01*
X8639761Y-18952324D02*
X8639761Y-18652324D01*
X8611190Y-18695182D01*
X8582618Y-18723753D01*
X8554047Y-18738039D01*
X8896904Y-18780896D02*
X8868333Y-18766610D01*
X8854047Y-18752324D01*
X8839761Y-18723753D01*
X8839761Y-18709467D01*
X8854047Y-18680896D01*
X8868333Y-18666610D01*
X8896904Y-18652324D01*
X8954047Y-18652324D01*
X8982618Y-18666610D01*
X8996904Y-18680896D01*
X9011190Y-18709467D01*
X9011190Y-18723753D01*
X8996904Y-18752324D01*
X8982618Y-18766610D01*
X8954047Y-18780896D01*
X8896904Y-18780896D01*
X8868333Y-18795182D01*
X8854047Y-18809467D01*
X8839761Y-18838039D01*
X8839761Y-18895182D01*
X8854047Y-18923753D01*
X8868333Y-18938039D01*
X8896904Y-18952324D01*
X8954047Y-18952324D01*
X8982618Y-18938039D01*
X8996904Y-18923753D01*
X9011190Y-18895182D01*
X9011190Y-18838039D01*
X8996904Y-18809467D01*
X8982618Y-18795182D01*
X8954047Y-18780896D01*
X9125476Y-18652324D02*
X9125476Y-18709467D01*
X9239761Y-18652324D02*
X9239761Y-18709467D01*
X9682618Y-19066610D02*
X9668333Y-19052324D01*
X9639761Y-19009467D01*
X9625476Y-18980896D01*
X9611190Y-18938039D01*
X9596904Y-18866610D01*
X9596904Y-18809467D01*
X9611190Y-18738039D01*
X9625476Y-18695182D01*
X9639761Y-18666610D01*
X9668333Y-18623753D01*
X9682618Y-18609467D01*
X9768333Y-18652324D02*
X9954047Y-18652324D01*
X9854047Y-18766610D01*
X9896904Y-18766610D01*
X9925476Y-18780896D01*
X9939761Y-18795182D01*
X9954047Y-18823753D01*
X9954047Y-18895182D01*
X9939761Y-18923753D01*
X9925476Y-18938039D01*
X9896904Y-18952324D01*
X9811190Y-18952324D01*
X9782618Y-18938039D01*
X9768333Y-18923753D01*
X10311190Y-18952324D02*
X10311190Y-18652324D01*
X10439761Y-18952324D02*
X10439761Y-18795182D01*
X10425476Y-18766610D01*
X10396904Y-18752324D01*
X10354047Y-18752324D01*
X10325476Y-18766610D01*
X10311190Y-18780896D01*
X10625476Y-18952324D02*
X10596904Y-18938039D01*
X10582618Y-18923753D01*
X10568333Y-18895182D01*
X10568333Y-18809467D01*
X10582618Y-18780896D01*
X10596904Y-18766610D01*
X10625476Y-18752324D01*
X10668333Y-18752324D01*
X10696904Y-18766610D01*
X10711190Y-18780896D01*
X10725476Y-18809467D01*
X10725476Y-18895182D01*
X10711190Y-18923753D01*
X10696904Y-18938039D01*
X10668333Y-18952324D01*
X10625476Y-18952324D01*
X10896904Y-18952324D02*
X10868333Y-18938039D01*
X10854047Y-18909467D01*
X10854047Y-18652324D01*
X11125476Y-18938039D02*
X11096904Y-18952324D01*
X11039761Y-18952324D01*
X11011190Y-18938039D01*
X10996904Y-18909467D01*
X10996904Y-18795182D01*
X11011190Y-18766610D01*
X11039761Y-18752324D01*
X11096904Y-18752324D01*
X11125476Y-18766610D01*
X11139761Y-18795182D01*
X11139761Y-18823753D01*
X10996904Y-18852324D01*
X11254047Y-18938039D02*
X11282618Y-18952324D01*
X11339761Y-18952324D01*
X11368333Y-18938039D01*
X11382618Y-18909467D01*
X11382618Y-18895182D01*
X11368333Y-18866610D01*
X11339761Y-18852324D01*
X11296904Y-18852324D01*
X11268333Y-18838039D01*
X11254047Y-18809467D01*
X11254047Y-18795182D01*
X11268333Y-18766610D01*
X11296904Y-18752324D01*
X11339761Y-18752324D01*
X11368333Y-18766610D01*
X11482618Y-19066610D02*
X11496904Y-19052324D01*
X11525476Y-19009467D01*
X11539761Y-18980896D01*
X11554047Y-18938039D01*
X11568333Y-18866610D01*
X11568333Y-18809467D01*
X11554047Y-18738039D01*
X11539761Y-18695182D01*
X11525476Y-18666610D01*
X11496904Y-18623753D01*
X11482618Y-18609467D01*
X12025476Y-19066610D02*
X12011190Y-19052324D01*
X11982618Y-19009467D01*
X11968333Y-18980896D01*
X11954047Y-18938039D01*
X11939761Y-18866610D01*
X11939761Y-18809467D01*
X11954047Y-18738039D01*
X11968333Y-18695182D01*
X11982618Y-18666610D01*
X12011190Y-18623753D01*
X12025476Y-18609467D01*
X12139761Y-18752324D02*
X12139761Y-18952324D01*
X12139761Y-18780896D02*
X12154047Y-18766610D01*
X12182618Y-18752324D01*
X12225476Y-18752324D01*
X12254047Y-18766610D01*
X12268333Y-18795182D01*
X12268333Y-18952324D01*
X12454047Y-18952324D02*
X12425476Y-18938039D01*
X12411190Y-18923753D01*
X12396904Y-18895182D01*
X12396904Y-18809467D01*
X12411190Y-18780896D01*
X12425476Y-18766610D01*
X12454047Y-18752324D01*
X12496904Y-18752324D01*
X12525476Y-18766610D01*
X12539761Y-18780896D01*
X12554047Y-18809467D01*
X12554047Y-18895182D01*
X12539761Y-18923753D01*
X12525476Y-18938039D01*
X12496904Y-18952324D01*
X12454047Y-18952324D01*
X12639761Y-18752324D02*
X12754047Y-18752324D01*
X12682618Y-18652324D02*
X12682618Y-18909467D01*
X12696904Y-18938039D01*
X12725476Y-18952324D01*
X12754047Y-18952324D01*
X13082618Y-18752324D02*
X13082618Y-19052324D01*
X13082618Y-18766610D02*
X13111190Y-18752324D01*
X13168333Y-18752324D01*
X13196904Y-18766610D01*
X13211190Y-18780896D01*
X13225476Y-18809467D01*
X13225476Y-18895182D01*
X13211190Y-18923753D01*
X13196904Y-18938039D01*
X13168333Y-18952324D01*
X13111190Y-18952324D01*
X13082618Y-18938039D01*
X13396904Y-18952324D02*
X13368333Y-18938039D01*
X13354047Y-18909467D01*
X13354047Y-18652324D01*
X13639761Y-18952324D02*
X13639761Y-18795182D01*
X13625476Y-18766610D01*
X13596904Y-18752324D01*
X13539761Y-18752324D01*
X13511190Y-18766610D01*
X13639761Y-18938039D02*
X13611190Y-18952324D01*
X13539761Y-18952324D01*
X13511190Y-18938039D01*
X13496904Y-18909467D01*
X13496904Y-18880896D01*
X13511190Y-18852324D01*
X13539761Y-18838039D01*
X13611190Y-18838039D01*
X13639761Y-18823753D01*
X13739761Y-18752324D02*
X13854047Y-18752324D01*
X13782618Y-18652324D02*
X13782618Y-18909467D01*
X13796904Y-18938039D01*
X13825476Y-18952324D01*
X13854047Y-18952324D01*
X14068333Y-18938039D02*
X14039761Y-18952324D01*
X13982618Y-18952324D01*
X13954047Y-18938039D01*
X13939761Y-18909467D01*
X13939761Y-18795182D01*
X13954047Y-18766610D01*
X13982618Y-18752324D01*
X14039761Y-18752324D01*
X14068333Y-18766610D01*
X14082618Y-18795182D01*
X14082618Y-18823753D01*
X13939761Y-18852324D01*
X14339761Y-18952324D02*
X14339761Y-18652324D01*
X14339761Y-18938039D02*
X14311190Y-18952324D01*
X14254047Y-18952324D01*
X14225476Y-18938039D01*
X14211190Y-18923753D01*
X14196904Y-18895182D01*
X14196904Y-18809467D01*
X14211190Y-18780896D01*
X14225476Y-18766610D01*
X14254047Y-18752324D01*
X14311190Y-18752324D01*
X14339761Y-18766610D01*
X14454047Y-19066610D02*
X14468333Y-19052324D01*
X14496904Y-19009467D01*
X14511190Y-18980896D01*
X14525476Y-18938039D01*
X14539761Y-18866610D01*
X14539761Y-18809467D01*
X14525476Y-18738039D01*
X14511190Y-18695182D01*
X14496904Y-18666610D01*
X14468333Y-18623753D01*
X14454047Y-18609467D01*
X4843790Y-19399010D02*
X4996190Y-19246610D01*
X4843790Y-19094210D01*
X4691390Y-19246610D01*
X4843790Y-19399010D01*
X4996190Y-19246610D02*
G75*
G03*
X4996190Y-19246610I-152400J0D01*
G01*
X5254047Y-19082324D02*
X5439761Y-19082324D01*
X5339761Y-19196610D01*
X5382618Y-19196610D01*
X5411190Y-19210896D01*
X5425476Y-19225182D01*
X5439761Y-19253753D01*
X5439761Y-19325182D01*
X5425476Y-19353753D01*
X5411190Y-19368039D01*
X5382618Y-19382324D01*
X5296904Y-19382324D01*
X5268333Y-19368039D01*
X5254047Y-19353753D01*
X5568333Y-19353753D02*
X5582618Y-19368039D01*
X5568333Y-19382324D01*
X5554047Y-19368039D01*
X5568333Y-19353753D01*
X5568333Y-19382324D01*
X5768333Y-19082324D02*
X5796904Y-19082324D01*
X5825476Y-19096610D01*
X5839761Y-19110896D01*
X5854047Y-19139467D01*
X5868333Y-19196610D01*
X5868333Y-19268039D01*
X5854047Y-19325182D01*
X5839761Y-19353753D01*
X5825476Y-19368039D01*
X5796904Y-19382324D01*
X5768333Y-19382324D01*
X5739761Y-19368039D01*
X5725476Y-19353753D01*
X5711190Y-19325182D01*
X5696904Y-19268039D01*
X5696904Y-19196610D01*
X5711190Y-19139467D01*
X5725476Y-19110896D01*
X5739761Y-19096610D01*
X5768333Y-19082324D01*
X6139761Y-19082324D02*
X5996904Y-19082324D01*
X5982618Y-19225182D01*
X5996904Y-19210896D01*
X6025476Y-19196610D01*
X6096904Y-19196610D01*
X6125476Y-19210896D01*
X6139761Y-19225182D01*
X6154047Y-19253753D01*
X6154047Y-19325182D01*
X6139761Y-19353753D01*
X6125476Y-19368039D01*
X6096904Y-19382324D01*
X6025476Y-19382324D01*
X5996904Y-19368039D01*
X5982618Y-19353753D01*
X6282618Y-19382324D02*
X6282618Y-19182324D01*
X6282618Y-19210896D02*
X6296904Y-19196610D01*
X6325476Y-19182324D01*
X6368333Y-19182324D01*
X6396904Y-19196610D01*
X6411190Y-19225182D01*
X6411190Y-19382324D01*
X6411190Y-19225182D02*
X6425476Y-19196610D01*
X6454047Y-19182324D01*
X6496904Y-19182324D01*
X6525476Y-19196610D01*
X6539761Y-19225182D01*
X6539761Y-19382324D01*
X6682618Y-19382324D02*
X6682618Y-19182324D01*
X6682618Y-19210896D02*
X6696904Y-19196610D01*
X6725476Y-19182324D01*
X6768333Y-19182324D01*
X6796904Y-19196610D01*
X6811190Y-19225182D01*
X6811190Y-19382324D01*
X6811190Y-19225182D02*
X6825476Y-19196610D01*
X6854047Y-19182324D01*
X6896904Y-19182324D01*
X6925476Y-19196610D01*
X6939761Y-19225182D01*
X6939761Y-19382324D01*
X7525476Y-19068039D02*
X7268333Y-19453753D01*
X7911190Y-19082324D02*
X7939761Y-19082324D01*
X7968333Y-19096610D01*
X7982618Y-19110896D01*
X7996904Y-19139467D01*
X8011190Y-19196610D01*
X8011190Y-19268039D01*
X7996904Y-19325182D01*
X7982618Y-19353753D01*
X7968333Y-19368039D01*
X7939761Y-19382324D01*
X7911190Y-19382324D01*
X7882618Y-19368039D01*
X7868333Y-19353753D01*
X7854047Y-19325182D01*
X7839761Y-19268039D01*
X7839761Y-19196610D01*
X7854047Y-19139467D01*
X7868333Y-19110896D01*
X7882618Y-19096610D01*
X7911190Y-19082324D01*
X8139761Y-19353753D02*
X8154047Y-19368039D01*
X8139761Y-19382324D01*
X8125476Y-19368039D01*
X8139761Y-19353753D01*
X8139761Y-19382324D01*
X8439761Y-19382324D02*
X8268333Y-19382324D01*
X8354047Y-19382324D02*
X8354047Y-19082324D01*
X8325476Y-19125182D01*
X8296904Y-19153753D01*
X8268333Y-19168039D01*
X8554047Y-19110896D02*
X8568333Y-19096610D01*
X8596904Y-19082324D01*
X8668333Y-19082324D01*
X8696904Y-19096610D01*
X8711190Y-19110896D01*
X8725476Y-19139467D01*
X8725476Y-19168039D01*
X8711190Y-19210896D01*
X8539761Y-19382324D01*
X8725476Y-19382324D01*
X8911190Y-19082324D02*
X8939761Y-19082324D01*
X8968333Y-19096610D01*
X8982618Y-19110896D01*
X8996904Y-19139467D01*
X9011190Y-19196610D01*
X9011190Y-19268039D01*
X8996904Y-19325182D01*
X8982618Y-19353753D01*
X8968333Y-19368039D01*
X8939761Y-19382324D01*
X8911190Y-19382324D01*
X8882618Y-19368039D01*
X8868333Y-19353753D01*
X8854047Y-19325182D01*
X8839761Y-19268039D01*
X8839761Y-19196610D01*
X8854047Y-19139467D01*
X8868333Y-19110896D01*
X8882618Y-19096610D01*
X8911190Y-19082324D01*
X9125476Y-19082324D02*
X9125476Y-19139467D01*
X9239761Y-19082324D02*
X9239761Y-19139467D01*
X9682618Y-19496610D02*
X9668333Y-19482324D01*
X9639761Y-19439467D01*
X9625476Y-19410896D01*
X9611190Y-19368039D01*
X9596904Y-19296610D01*
X9596904Y-19239467D01*
X9611190Y-19168039D01*
X9625476Y-19125182D01*
X9639761Y-19096610D01*
X9668333Y-19053753D01*
X9682618Y-19039467D01*
X9768333Y-19082324D02*
X9968333Y-19082324D01*
X9839761Y-19382324D01*
X10311190Y-19382324D02*
X10311190Y-19082324D01*
X10439761Y-19382324D02*
X10439761Y-19225182D01*
X10425476Y-19196610D01*
X10396904Y-19182324D01*
X10354047Y-19182324D01*
X10325476Y-19196610D01*
X10311190Y-19210896D01*
X10625476Y-19382324D02*
X10596904Y-19368039D01*
X10582618Y-19353753D01*
X10568333Y-19325182D01*
X10568333Y-19239467D01*
X10582618Y-19210896D01*
X10596904Y-19196610D01*
X10625476Y-19182324D01*
X10668333Y-19182324D01*
X10696904Y-19196610D01*
X10711190Y-19210896D01*
X10725476Y-19239467D01*
X10725476Y-19325182D01*
X10711190Y-19353753D01*
X10696904Y-19368039D01*
X10668333Y-19382324D01*
X10625476Y-19382324D01*
X10896904Y-19382324D02*
X10868333Y-19368039D01*
X10854047Y-19339467D01*
X10854047Y-19082324D01*
X11125476Y-19368039D02*
X11096904Y-19382324D01*
X11039761Y-19382324D01*
X11011190Y-19368039D01*
X10996904Y-19339467D01*
X10996904Y-19225182D01*
X11011190Y-19196610D01*
X11039761Y-19182324D01*
X11096904Y-19182324D01*
X11125476Y-19196610D01*
X11139761Y-19225182D01*
X11139761Y-19253753D01*
X10996904Y-19282324D01*
X11254047Y-19368039D02*
X11282618Y-19382324D01*
X11339761Y-19382324D01*
X11368333Y-19368039D01*
X11382618Y-19339467D01*
X11382618Y-19325182D01*
X11368333Y-19296610D01*
X11339761Y-19282324D01*
X11296904Y-19282324D01*
X11268333Y-19268039D01*
X11254047Y-19239467D01*
X11254047Y-19225182D01*
X11268333Y-19196610D01*
X11296904Y-19182324D01*
X11339761Y-19182324D01*
X11368333Y-19196610D01*
X11482618Y-19496610D02*
X11496904Y-19482324D01*
X11525476Y-19439467D01*
X11539761Y-19410896D01*
X11554047Y-19368039D01*
X11568333Y-19296610D01*
X11568333Y-19239467D01*
X11554047Y-19168039D01*
X11539761Y-19125182D01*
X11525476Y-19096610D01*
X11496904Y-19053753D01*
X11482618Y-19039467D01*
X12025476Y-19496610D02*
X12011190Y-19482324D01*
X11982618Y-19439467D01*
X11968333Y-19410896D01*
X11954047Y-19368039D01*
X11939761Y-19296610D01*
X11939761Y-19239467D01*
X11954047Y-19168039D01*
X11968333Y-19125182D01*
X11982618Y-19096610D01*
X12011190Y-19053753D01*
X12025476Y-19039467D01*
X12139761Y-19182324D02*
X12139761Y-19382324D01*
X12139761Y-19210896D02*
X12154047Y-19196610D01*
X12182618Y-19182324D01*
X12225476Y-19182324D01*
X12254047Y-19196610D01*
X12268333Y-19225182D01*
X12268333Y-19382324D01*
X12454047Y-19382324D02*
X12425476Y-19368039D01*
X12411190Y-19353753D01*
X12396904Y-19325182D01*
X12396904Y-19239467D01*
X12411190Y-19210896D01*
X12425476Y-19196610D01*
X12454047Y-19182324D01*
X12496904Y-19182324D01*
X12525476Y-19196610D01*
X12539761Y-19210896D01*
X12554047Y-19239467D01*
X12554047Y-19325182D01*
X12539761Y-19353753D01*
X12525476Y-19368039D01*
X12496904Y-19382324D01*
X12454047Y-19382324D01*
X12639761Y-19182324D02*
X12754047Y-19182324D01*
X12682618Y-19082324D02*
X12682618Y-19339467D01*
X12696904Y-19368039D01*
X12725476Y-19382324D01*
X12754047Y-19382324D01*
X13082618Y-19182324D02*
X13082618Y-19482324D01*
X13082618Y-19196610D02*
X13111190Y-19182324D01*
X13168333Y-19182324D01*
X13196904Y-19196610D01*
X13211190Y-19210896D01*
X13225476Y-19239467D01*
X13225476Y-19325182D01*
X13211190Y-19353753D01*
X13196904Y-19368039D01*
X13168333Y-19382324D01*
X13111190Y-19382324D01*
X13082618Y-19368039D01*
X13396904Y-19382324D02*
X13368333Y-19368039D01*
X13354047Y-19339467D01*
X13354047Y-19082324D01*
X13639761Y-19382324D02*
X13639761Y-19225182D01*
X13625476Y-19196610D01*
X13596904Y-19182324D01*
X13539761Y-19182324D01*
X13511190Y-19196610D01*
X13639761Y-19368039D02*
X13611190Y-19382324D01*
X13539761Y-19382324D01*
X13511190Y-19368039D01*
X13496904Y-19339467D01*
X13496904Y-19310896D01*
X13511190Y-19282324D01*
X13539761Y-19268039D01*
X13611190Y-19268039D01*
X13639761Y-19253753D01*
X13739761Y-19182324D02*
X13854047Y-19182324D01*
X13782618Y-19082324D02*
X13782618Y-19339467D01*
X13796904Y-19368039D01*
X13825476Y-19382324D01*
X13854047Y-19382324D01*
X14068333Y-19368039D02*
X14039761Y-19382324D01*
X13982618Y-19382324D01*
X13954047Y-19368039D01*
X13939761Y-19339467D01*
X13939761Y-19225182D01*
X13954047Y-19196610D01*
X13982618Y-19182324D01*
X14039761Y-19182324D01*
X14068333Y-19196610D01*
X14082618Y-19225182D01*
X14082618Y-19253753D01*
X13939761Y-19282324D01*
X14339761Y-19382324D02*
X14339761Y-19082324D01*
X14339761Y-19368039D02*
X14311190Y-19382324D01*
X14254047Y-19382324D01*
X14225476Y-19368039D01*
X14211190Y-19353753D01*
X14196904Y-19325182D01*
X14196904Y-19239467D01*
X14211190Y-19210896D01*
X14225476Y-19196610D01*
X14254047Y-19182324D01*
X14311190Y-19182324D01*
X14339761Y-19196610D01*
X14454047Y-19496610D02*
X14468333Y-19482324D01*
X14496904Y-19439467D01*
X14511190Y-19410896D01*
X14525476Y-19368039D01*
X14539761Y-19296610D01*
X14539761Y-19239467D01*
X14525476Y-19168039D01*
X14511190Y-19125182D01*
X14496904Y-19096610D01*
X14468333Y-19053753D01*
X14454047Y-19039467D01*
M02*
