%TF.GenerationSoftware,KiCad,Pcbnew,5.1.9-73d0e3b20d~88~ubuntu20.04.1*%
%TF.CreationDate,2021-10-11T11:35:55+05:30*%
%TF.ProjectId,vayuO2,76617975-4f32-42e6-9b69-6361645f7063,rev 2*%
%TF.SameCoordinates,Original*%
%TF.FileFunction,Copper,L1,Top*%
%TF.FilePolarity,Positive*%
%FSLAX46Y46*%
G04 Gerber Fmt 4.6, Leading zero omitted, Abs format (unit mm)*
G04 Created by KiCad (PCBNEW 5.1.9-73d0e3b20d~88~ubuntu20.04.1) date 2021-10-11 11:35:55*
%MOMM*%
%LPD*%
G01*
G04 APERTURE LIST*
%TA.AperFunction,EtchedComponent*%
%ADD10C,0.127000*%
%TD*%
%TA.AperFunction,ComponentPad*%
%ADD11R,1.700000X1.700000*%
%TD*%
%TA.AperFunction,ComponentPad*%
%ADD12O,1.700000X1.700000*%
%TD*%
%TA.AperFunction,SMDPad,CuDef*%
%ADD13R,0.900000X0.800000*%
%TD*%
%TA.AperFunction,SMDPad,CuDef*%
%ADD14C,0.127000*%
%TD*%
%TA.AperFunction,ComponentPad*%
%ADD15C,1.700000*%
%TD*%
%TA.AperFunction,ComponentPad*%
%ADD16C,3.000000*%
%TD*%
%TA.AperFunction,ComponentPad*%
%ADD17O,2.600000X3.900000*%
%TD*%
%TA.AperFunction,ComponentPad*%
%ADD18O,2.000000X1.700000*%
%TD*%
%TA.AperFunction,ComponentPad*%
%ADD19O,1.700000X2.000000*%
%TD*%
%TA.AperFunction,SMDPad,CuDef*%
%ADD20R,0.939800X2.489200*%
%TD*%
%TA.AperFunction,SMDPad,CuDef*%
%ADD21R,4.368800X5.918200*%
%TD*%
%TA.AperFunction,ComponentPad*%
%ADD22O,1.950000X1.700000*%
%TD*%
%TA.AperFunction,SMDPad,CuDef*%
%ADD23R,1.200000X2.200000*%
%TD*%
%TA.AperFunction,SMDPad,CuDef*%
%ADD24R,5.800000X6.400000*%
%TD*%
%TA.AperFunction,SMDPad,CuDef*%
%ADD25R,0.600000X0.400000*%
%TD*%
%TA.AperFunction,ComponentPad*%
%ADD26C,6.400000*%
%TD*%
%TA.AperFunction,ComponentPad*%
%ADD27C,0.800000*%
%TD*%
%TA.AperFunction,ComponentPad*%
%ADD28C,2.600000*%
%TD*%
%TA.AperFunction,SMDPad,CuDef*%
%ADD29R,1.998980X0.599440*%
%TD*%
%TA.AperFunction,SMDPad,CuDef*%
%ADD30R,0.800000X0.900000*%
%TD*%
%TA.AperFunction,SMDPad,CuDef*%
%ADD31R,2.500000X2.300000*%
%TD*%
%TA.AperFunction,ComponentPad*%
%ADD32C,1.524000*%
%TD*%
%TA.AperFunction,ComponentPad*%
%ADD33C,4.572000*%
%TD*%
%TA.AperFunction,ViaPad*%
%ADD34C,0.900000*%
%TD*%
%TA.AperFunction,Conductor*%
%ADD35C,1.000000*%
%TD*%
%TA.AperFunction,Conductor*%
%ADD36C,0.500000*%
%TD*%
%TA.AperFunction,Conductor*%
%ADD37C,0.250000*%
%TD*%
%TA.AperFunction,Conductor*%
%ADD38C,0.750000*%
%TD*%
%TA.AperFunction,Conductor*%
%ADD39C,1.500000*%
%TD*%
%TA.AperFunction,Conductor*%
%ADD40C,0.127000*%
%TD*%
G04 APERTURE END LIST*
D10*
G36*
X149300000Y-130250000D02*
G01*
X149300000Y-129750000D01*
X148700000Y-129750000D01*
X148700000Y-130250000D01*
X149300000Y-130250000D01*
G37*
D11*
X163700000Y-131000000D03*
D12*
X163700000Y-128460000D03*
X163700000Y-125920000D03*
X163700000Y-123380000D03*
X163700000Y-120840000D03*
X163700000Y-118300000D03*
X163700000Y-115760000D03*
X163700000Y-113220000D03*
X163700000Y-110680000D03*
X163700000Y-108140000D03*
X163700000Y-105600000D03*
X163700000Y-103060000D03*
X163700000Y-100520000D03*
X163700000Y-97980000D03*
X163700000Y-95440000D03*
X138300000Y-95440000D03*
X138300000Y-115760000D03*
X138300000Y-110680000D03*
X138300000Y-105600000D03*
X138300000Y-113220000D03*
X138300000Y-108140000D03*
X138300000Y-100520000D03*
X138300000Y-97980000D03*
X138300000Y-103060000D03*
X138300000Y-125920000D03*
X138300000Y-118300000D03*
X138300000Y-120840000D03*
X138300000Y-123380000D03*
X138300000Y-128460000D03*
D11*
X138300000Y-131000000D03*
D13*
X157200000Y-114000000D03*
X155200000Y-114950000D03*
X155200000Y-113050000D03*
%TA.AperFunction,ComponentPad*%
G36*
G01*
X139300000Y-95800000D02*
X139300000Y-95000000D01*
G75*
G02*
X139700000Y-94600000I400000J0D01*
G01*
X140500000Y-94600000D01*
G75*
G02*
X140900000Y-95000000I0J-400000D01*
G01*
X140900000Y-95800000D01*
G75*
G02*
X140500000Y-96200000I-400000J0D01*
G01*
X139700000Y-96200000D01*
G75*
G02*
X139300000Y-95800000I0J400000D01*
G01*
G37*
%TD.AperFunction*%
%TA.AperFunction,ComponentPad*%
G36*
G01*
X165700000Y-95900000D02*
X165700000Y-95100000D01*
G75*
G02*
X166100000Y-94700000I400000J0D01*
G01*
X166900000Y-94700000D01*
G75*
G02*
X167300000Y-95100000I0J-400000D01*
G01*
X167300000Y-95900000D01*
G75*
G02*
X166900000Y-96300000I-400000J0D01*
G01*
X166100000Y-96300000D01*
G75*
G02*
X165700000Y-95900000I0J400000D01*
G01*
G37*
%TD.AperFunction*%
%TA.AperFunction,ComponentPad*%
G36*
G01*
X139800000Y-98400000D02*
X139800000Y-97600000D01*
G75*
G02*
X140200000Y-97200000I400000J0D01*
G01*
X141000000Y-97200000D01*
G75*
G02*
X141400000Y-97600000I0J-400000D01*
G01*
X141400000Y-98400000D01*
G75*
G02*
X141000000Y-98800000I-400000J0D01*
G01*
X140200000Y-98800000D01*
G75*
G02*
X139800000Y-98400000I0J400000D01*
G01*
G37*
%TD.AperFunction*%
%TA.AperFunction,ComponentPad*%
G36*
G01*
X139800000Y-100900000D02*
X139800000Y-100100000D01*
G75*
G02*
X140200000Y-99700000I400000J0D01*
G01*
X141000000Y-99700000D01*
G75*
G02*
X141400000Y-100100000I0J-400000D01*
G01*
X141400000Y-100900000D01*
G75*
G02*
X141000000Y-101300000I-400000J0D01*
G01*
X140200000Y-101300000D01*
G75*
G02*
X139800000Y-100900000I0J400000D01*
G01*
G37*
%TD.AperFunction*%
%TA.AperFunction,ComponentPad*%
G36*
G01*
X139800000Y-103500000D02*
X139800000Y-102700000D01*
G75*
G02*
X140200000Y-102300000I400000J0D01*
G01*
X141000000Y-102300000D01*
G75*
G02*
X141400000Y-102700000I0J-400000D01*
G01*
X141400000Y-103500000D01*
G75*
G02*
X141000000Y-103900000I-400000J0D01*
G01*
X140200000Y-103900000D01*
G75*
G02*
X139800000Y-103500000I0J400000D01*
G01*
G37*
%TD.AperFunction*%
%TA.AperFunction,ComponentPad*%
G36*
G01*
X139800000Y-106000000D02*
X139800000Y-105200000D01*
G75*
G02*
X140200000Y-104800000I400000J0D01*
G01*
X141000000Y-104800000D01*
G75*
G02*
X141400000Y-105200000I0J-400000D01*
G01*
X141400000Y-106000000D01*
G75*
G02*
X141000000Y-106400000I-400000J0D01*
G01*
X140200000Y-106400000D01*
G75*
G02*
X139800000Y-106000000I0J400000D01*
G01*
G37*
%TD.AperFunction*%
%TA.AperFunction,ComponentPad*%
G36*
G01*
X165700000Y-121400000D02*
X165700000Y-120600000D01*
G75*
G02*
X166100000Y-120200000I400000J0D01*
G01*
X166900000Y-120200000D01*
G75*
G02*
X167300000Y-120600000I0J-400000D01*
G01*
X167300000Y-121400000D01*
G75*
G02*
X166900000Y-121800000I-400000J0D01*
G01*
X166100000Y-121800000D01*
G75*
G02*
X165700000Y-121400000I0J400000D01*
G01*
G37*
%TD.AperFunction*%
%TA.AperFunction,ComponentPad*%
G36*
G01*
X165700000Y-123900000D02*
X165700000Y-123100000D01*
G75*
G02*
X166100000Y-122700000I400000J0D01*
G01*
X166900000Y-122700000D01*
G75*
G02*
X167300000Y-123100000I0J-400000D01*
G01*
X167300000Y-123900000D01*
G75*
G02*
X166900000Y-124300000I-400000J0D01*
G01*
X166100000Y-124300000D01*
G75*
G02*
X165700000Y-123900000I0J400000D01*
G01*
G37*
%TD.AperFunction*%
%TA.AperFunction,ComponentPad*%
G36*
G01*
X85900000Y-122530000D02*
X85100000Y-122530000D01*
G75*
G02*
X84700000Y-122130000I0J400000D01*
G01*
X84700000Y-121330000D01*
G75*
G02*
X85100000Y-120930000I400000J0D01*
G01*
X85900000Y-120930000D01*
G75*
G02*
X86300000Y-121330000I0J-400000D01*
G01*
X86300000Y-122130000D01*
G75*
G02*
X85900000Y-122530000I-400000J0D01*
G01*
G37*
%TD.AperFunction*%
%TA.AperFunction,ComponentPad*%
G36*
G01*
X139950000Y-126400000D02*
X139950000Y-125600000D01*
G75*
G02*
X140350000Y-125200000I400000J0D01*
G01*
X141150000Y-125200000D01*
G75*
G02*
X141550000Y-125600000I0J-400000D01*
G01*
X141550000Y-126400000D01*
G75*
G02*
X141150000Y-126800000I-400000J0D01*
G01*
X140350000Y-126800000D01*
G75*
G02*
X139950000Y-126400000I0J400000D01*
G01*
G37*
%TD.AperFunction*%
%TA.AperFunction,ComponentPad*%
G36*
G01*
X165700000Y-126400000D02*
X165700000Y-125600000D01*
G75*
G02*
X166100000Y-125200000I400000J0D01*
G01*
X166900000Y-125200000D01*
G75*
G02*
X167300000Y-125600000I0J-400000D01*
G01*
X167300000Y-126400000D01*
G75*
G02*
X166900000Y-126800000I-400000J0D01*
G01*
X166100000Y-126800000D01*
G75*
G02*
X165700000Y-126400000I0J400000D01*
G01*
G37*
%TD.AperFunction*%
%TA.AperFunction,ComponentPad*%
G36*
G01*
X165700000Y-128900000D02*
X165700000Y-128100000D01*
G75*
G02*
X166100000Y-127700000I400000J0D01*
G01*
X166900000Y-127700000D01*
G75*
G02*
X167300000Y-128100000I0J-400000D01*
G01*
X167300000Y-128900000D01*
G75*
G02*
X166900000Y-129300000I-400000J0D01*
G01*
X166100000Y-129300000D01*
G75*
G02*
X165700000Y-128900000I0J400000D01*
G01*
G37*
%TD.AperFunction*%
%TA.AperFunction,ComponentPad*%
G36*
G01*
X139950000Y-131400000D02*
X139950000Y-130600000D01*
G75*
G02*
X140350000Y-130200000I400000J0D01*
G01*
X141150000Y-130200000D01*
G75*
G02*
X141550000Y-130600000I0J-400000D01*
G01*
X141550000Y-131400000D01*
G75*
G02*
X141150000Y-131800000I-400000J0D01*
G01*
X140350000Y-131800000D01*
G75*
G02*
X139950000Y-131400000I0J400000D01*
G01*
G37*
%TD.AperFunction*%
%TA.AperFunction,ComponentPad*%
G36*
G01*
X165700000Y-131400000D02*
X165700000Y-130600000D01*
G75*
G02*
X166100000Y-130200000I400000J0D01*
G01*
X166900000Y-130200000D01*
G75*
G02*
X167300000Y-130600000I0J-400000D01*
G01*
X167300000Y-131400000D01*
G75*
G02*
X166900000Y-131800000I-400000J0D01*
G01*
X166100000Y-131800000D01*
G75*
G02*
X165700000Y-131400000I0J400000D01*
G01*
G37*
%TD.AperFunction*%
X147000000Y-112300000D03*
X145000000Y-113250000D03*
X145000000Y-111350000D03*
%TA.AperFunction,SMDPad,CuDef*%
D14*
G36*
X143250602Y-129350000D02*
G01*
X143250602Y-129325466D01*
X143255412Y-129276635D01*
X143264984Y-129228510D01*
X143279228Y-129181555D01*
X143298005Y-129136222D01*
X143321136Y-129092949D01*
X143348396Y-129052150D01*
X143379524Y-129014221D01*
X143414221Y-128979524D01*
X143452150Y-128948396D01*
X143492949Y-128921136D01*
X143536222Y-128898005D01*
X143581555Y-128879228D01*
X143628510Y-128864984D01*
X143676635Y-128855412D01*
X143725466Y-128850602D01*
X143750000Y-128850602D01*
X143750000Y-128850000D01*
X144250000Y-128850000D01*
X144250000Y-128850602D01*
X144274534Y-128850602D01*
X144323365Y-128855412D01*
X144371490Y-128864984D01*
X144418445Y-128879228D01*
X144463778Y-128898005D01*
X144507051Y-128921136D01*
X144547850Y-128948396D01*
X144585779Y-128979524D01*
X144620476Y-129014221D01*
X144651604Y-129052150D01*
X144678864Y-129092949D01*
X144701995Y-129136222D01*
X144720772Y-129181555D01*
X144735016Y-129228510D01*
X144744588Y-129276635D01*
X144749398Y-129325466D01*
X144749398Y-129350000D01*
X144750000Y-129350000D01*
X144750000Y-129850000D01*
X143250000Y-129850000D01*
X143250000Y-129350000D01*
X143250602Y-129350000D01*
G37*
%TD.AperFunction*%
%TA.AperFunction,SMDPad,CuDef*%
G36*
X144750000Y-130150000D02*
G01*
X144750000Y-130650000D01*
X144749398Y-130650000D01*
X144749398Y-130674534D01*
X144744588Y-130723365D01*
X144735016Y-130771490D01*
X144720772Y-130818445D01*
X144701995Y-130863778D01*
X144678864Y-130907051D01*
X144651604Y-130947850D01*
X144620476Y-130985779D01*
X144585779Y-131020476D01*
X144547850Y-131051604D01*
X144507051Y-131078864D01*
X144463778Y-131101995D01*
X144418445Y-131120772D01*
X144371490Y-131135016D01*
X144323365Y-131144588D01*
X144274534Y-131149398D01*
X144250000Y-131149398D01*
X144250000Y-131150000D01*
X143750000Y-131150000D01*
X143750000Y-131149398D01*
X143725466Y-131149398D01*
X143676635Y-131144588D01*
X143628510Y-131135016D01*
X143581555Y-131120772D01*
X143536222Y-131101995D01*
X143492949Y-131078864D01*
X143452150Y-131051604D01*
X143414221Y-131020476D01*
X143379524Y-130985779D01*
X143348396Y-130947850D01*
X143321136Y-130907051D01*
X143298005Y-130863778D01*
X143279228Y-130818445D01*
X143264984Y-130771490D01*
X143255412Y-130723365D01*
X143250602Y-130674534D01*
X143250602Y-130650000D01*
X143250000Y-130650000D01*
X143250000Y-130150000D01*
X144750000Y-130150000D01*
G37*
%TD.AperFunction*%
%TA.AperFunction,SMDPad,CuDef*%
G36*
X148250000Y-129850000D02*
G01*
X148250000Y-129350000D01*
X148250602Y-129350000D01*
X148250602Y-129325466D01*
X148255412Y-129276635D01*
X148264984Y-129228510D01*
X148279228Y-129181555D01*
X148298005Y-129136222D01*
X148321136Y-129092949D01*
X148348396Y-129052150D01*
X148379524Y-129014221D01*
X148414221Y-128979524D01*
X148452150Y-128948396D01*
X148492949Y-128921136D01*
X148536222Y-128898005D01*
X148581555Y-128879228D01*
X148628510Y-128864984D01*
X148676635Y-128855412D01*
X148725466Y-128850602D01*
X148750000Y-128850602D01*
X148750000Y-128850000D01*
X149250000Y-128850000D01*
X149250000Y-128850602D01*
X149274534Y-128850602D01*
X149323365Y-128855412D01*
X149371490Y-128864984D01*
X149418445Y-128879228D01*
X149463778Y-128898005D01*
X149507051Y-128921136D01*
X149547850Y-128948396D01*
X149585779Y-128979524D01*
X149620476Y-129014221D01*
X149651604Y-129052150D01*
X149678864Y-129092949D01*
X149701995Y-129136222D01*
X149720772Y-129181555D01*
X149735016Y-129228510D01*
X149744588Y-129276635D01*
X149749398Y-129325466D01*
X149749398Y-129350000D01*
X149750000Y-129350000D01*
X149750000Y-129850000D01*
X148250000Y-129850000D01*
G37*
%TD.AperFunction*%
%TA.AperFunction,SMDPad,CuDef*%
G36*
X149749398Y-130650000D02*
G01*
X149749398Y-130674534D01*
X149744588Y-130723365D01*
X149735016Y-130771490D01*
X149720772Y-130818445D01*
X149701995Y-130863778D01*
X149678864Y-130907051D01*
X149651604Y-130947850D01*
X149620476Y-130985779D01*
X149585779Y-131020476D01*
X149547850Y-131051604D01*
X149507051Y-131078864D01*
X149463778Y-131101995D01*
X149418445Y-131120772D01*
X149371490Y-131135016D01*
X149323365Y-131144588D01*
X149274534Y-131149398D01*
X149250000Y-131149398D01*
X149250000Y-131150000D01*
X148750000Y-131150000D01*
X148750000Y-131149398D01*
X148725466Y-131149398D01*
X148676635Y-131144588D01*
X148628510Y-131135016D01*
X148581555Y-131120772D01*
X148536222Y-131101995D01*
X148492949Y-131078864D01*
X148452150Y-131051604D01*
X148414221Y-131020476D01*
X148379524Y-130985779D01*
X148348396Y-130947850D01*
X148321136Y-130907051D01*
X148298005Y-130863778D01*
X148279228Y-130818445D01*
X148264984Y-130771490D01*
X148255412Y-130723365D01*
X148250602Y-130674534D01*
X148250602Y-130650000D01*
X148250000Y-130650000D01*
X148250000Y-130150000D01*
X149750000Y-130150000D01*
X149750000Y-130650000D01*
X149749398Y-130650000D01*
G37*
%TD.AperFunction*%
D12*
X59200000Y-88000000D03*
X59200000Y-85460000D03*
D15*
X59200000Y-77840000D03*
D11*
X59200000Y-75300000D03*
D15*
X59200000Y-80380000D03*
X59200000Y-90540000D03*
X59200000Y-93080000D03*
D16*
X53300000Y-100950000D03*
X68700000Y-100950000D03*
X53300000Y-63050000D03*
X68700000Y-63050000D03*
D11*
X68400000Y-77800000D03*
D12*
X68400000Y-80340000D03*
X68400000Y-85420000D03*
X68400000Y-87960000D03*
X68400000Y-90500000D03*
%TA.AperFunction,ComponentPad*%
G36*
G01*
X100500000Y-129000000D02*
X100500000Y-131600000D01*
G75*
G02*
X99850000Y-132250000I-650000J0D01*
G01*
X98550000Y-132250000D01*
G75*
G02*
X97900000Y-131600000I0J650000D01*
G01*
X97900000Y-129000000D01*
G75*
G02*
X98550000Y-128350000I650000J0D01*
G01*
X99850000Y-128350000D01*
G75*
G02*
X100500000Y-129000000I0J-650000D01*
G01*
G37*
%TD.AperFunction*%
D17*
X99200000Y-109800000D03*
%TA.AperFunction,SMDPad,CuDef*%
G36*
G01*
X150275000Y-64075000D02*
X149725000Y-64075000D01*
G75*
G02*
X149525000Y-63875000I0J200000D01*
G01*
X149525000Y-63475000D01*
G75*
G02*
X149725000Y-63275000I200000J0D01*
G01*
X150275000Y-63275000D01*
G75*
G02*
X150475000Y-63475000I0J-200000D01*
G01*
X150475000Y-63875000D01*
G75*
G02*
X150275000Y-64075000I-200000J0D01*
G01*
G37*
%TD.AperFunction*%
%TA.AperFunction,SMDPad,CuDef*%
G36*
G01*
X150275000Y-65725000D02*
X149725000Y-65725000D01*
G75*
G02*
X149525000Y-65525000I0J200000D01*
G01*
X149525000Y-65125000D01*
G75*
G02*
X149725000Y-64925000I200000J0D01*
G01*
X150275000Y-64925000D01*
G75*
G02*
X150475000Y-65125000I0J-200000D01*
G01*
X150475000Y-65525000D01*
G75*
G02*
X150275000Y-65725000I-200000J0D01*
G01*
G37*
%TD.AperFunction*%
%TA.AperFunction,SMDPad,CuDef*%
G36*
G01*
X155550000Y-128950000D02*
X154450000Y-128950000D01*
G75*
G02*
X154200000Y-128700000I0J250000D01*
G01*
X154200000Y-125700000D01*
G75*
G02*
X154450000Y-125450000I250000J0D01*
G01*
X155550000Y-125450000D01*
G75*
G02*
X155800000Y-125700000I0J-250000D01*
G01*
X155800000Y-128700000D01*
G75*
G02*
X155550000Y-128950000I-250000J0D01*
G01*
G37*
%TD.AperFunction*%
%TA.AperFunction,SMDPad,CuDef*%
G36*
G01*
X155550000Y-134550000D02*
X154450000Y-134550000D01*
G75*
G02*
X154200000Y-134300000I0J250000D01*
G01*
X154200000Y-131300000D01*
G75*
G02*
X154450000Y-131050000I250000J0D01*
G01*
X155550000Y-131050000D01*
G75*
G02*
X155800000Y-131300000I0J-250000D01*
G01*
X155800000Y-134300000D01*
G75*
G02*
X155550000Y-134550000I-250000J0D01*
G01*
G37*
%TD.AperFunction*%
D18*
X134000000Y-55500000D03*
%TA.AperFunction,ComponentPad*%
G36*
G01*
X133250000Y-52150000D02*
X134750000Y-52150000D01*
G75*
G02*
X135000000Y-52400000I0J-250000D01*
G01*
X135000000Y-53600000D01*
G75*
G02*
X134750000Y-53850000I-250000J0D01*
G01*
X133250000Y-53850000D01*
G75*
G02*
X133000000Y-53600000I0J250000D01*
G01*
X133000000Y-52400000D01*
G75*
G02*
X133250000Y-52150000I250000J0D01*
G01*
G37*
%TD.AperFunction*%
D19*
X115750000Y-54750000D03*
%TA.AperFunction,ComponentPad*%
G36*
G01*
X119100000Y-54000000D02*
X119100000Y-55500000D01*
G75*
G02*
X118850000Y-55750000I-250000J0D01*
G01*
X117650000Y-55750000D01*
G75*
G02*
X117400000Y-55500000I0J250000D01*
G01*
X117400000Y-54000000D01*
G75*
G02*
X117650000Y-53750000I250000J0D01*
G01*
X118850000Y-53750000D01*
G75*
G02*
X119100000Y-54000000I0J-250000D01*
G01*
G37*
%TD.AperFunction*%
X105750000Y-54750000D03*
%TA.AperFunction,ComponentPad*%
G36*
G01*
X109100000Y-54000000D02*
X109100000Y-55500000D01*
G75*
G02*
X108850000Y-55750000I-250000J0D01*
G01*
X107650000Y-55750000D01*
G75*
G02*
X107400000Y-55500000I0J250000D01*
G01*
X107400000Y-54000000D01*
G75*
G02*
X107650000Y-53750000I250000J0D01*
G01*
X108850000Y-53750000D01*
G75*
G02*
X109100000Y-54000000I0J-250000D01*
G01*
G37*
%TD.AperFunction*%
X95750000Y-54750000D03*
%TA.AperFunction,ComponentPad*%
G36*
G01*
X99100000Y-54000000D02*
X99100000Y-55500000D01*
G75*
G02*
X98850000Y-55750000I-250000J0D01*
G01*
X97650000Y-55750000D01*
G75*
G02*
X97400000Y-55500000I0J250000D01*
G01*
X97400000Y-54000000D01*
G75*
G02*
X97650000Y-53750000I250000J0D01*
G01*
X98850000Y-53750000D01*
G75*
G02*
X99100000Y-54000000I0J-250000D01*
G01*
G37*
%TD.AperFunction*%
X85750000Y-54750000D03*
%TA.AperFunction,ComponentPad*%
G36*
G01*
X89100000Y-54000000D02*
X89100000Y-55500000D01*
G75*
G02*
X88850000Y-55750000I-250000J0D01*
G01*
X87650000Y-55750000D01*
G75*
G02*
X87400000Y-55500000I0J250000D01*
G01*
X87400000Y-54000000D01*
G75*
G02*
X87650000Y-53750000I250000J0D01*
G01*
X88850000Y-53750000D01*
G75*
G02*
X89100000Y-54000000I0J-250000D01*
G01*
G37*
%TD.AperFunction*%
X75750000Y-54750000D03*
%TA.AperFunction,ComponentPad*%
G36*
G01*
X79100000Y-54000000D02*
X79100000Y-55500000D01*
G75*
G02*
X78850000Y-55750000I-250000J0D01*
G01*
X77650000Y-55750000D01*
G75*
G02*
X77400000Y-55500000I0J250000D01*
G01*
X77400000Y-54000000D01*
G75*
G02*
X77650000Y-53750000I250000J0D01*
G01*
X78850000Y-53750000D01*
G75*
G02*
X79100000Y-54000000I0J-250000D01*
G01*
G37*
%TD.AperFunction*%
X65750000Y-54750000D03*
%TA.AperFunction,ComponentPad*%
G36*
G01*
X69100000Y-54000000D02*
X69100000Y-55500000D01*
G75*
G02*
X68850000Y-55750000I-250000J0D01*
G01*
X67650000Y-55750000D01*
G75*
G02*
X67400000Y-55500000I0J250000D01*
G01*
X67400000Y-54000000D01*
G75*
G02*
X67650000Y-53750000I250000J0D01*
G01*
X68850000Y-53750000D01*
G75*
G02*
X69100000Y-54000000I0J-250000D01*
G01*
G37*
%TD.AperFunction*%
D11*
X116650000Y-133500000D03*
D12*
X119190000Y-133500000D03*
X121730000Y-133500000D03*
X124270000Y-133500000D03*
X126810000Y-133500000D03*
X129350000Y-133500000D03*
X126810000Y-97940000D03*
X124270000Y-97940000D03*
X119190000Y-97940000D03*
X121730000Y-97940000D03*
%TA.AperFunction,SMDPad,CuDef*%
G36*
G01*
X104265000Y-93525000D02*
X103865000Y-93525000D01*
G75*
G02*
X103665000Y-93325000I0J200000D01*
G01*
X103665000Y-91925000D01*
G75*
G02*
X103865000Y-91725000I200000J0D01*
G01*
X104265000Y-91725000D01*
G75*
G02*
X104465000Y-91925000I0J-200000D01*
G01*
X104465000Y-93325000D01*
G75*
G02*
X104265000Y-93525000I-200000J0D01*
G01*
G37*
%TD.AperFunction*%
%TA.AperFunction,SMDPad,CuDef*%
G36*
G01*
X105535000Y-93525000D02*
X105135000Y-93525000D01*
G75*
G02*
X104935000Y-93325000I0J200000D01*
G01*
X104935000Y-91925000D01*
G75*
G02*
X105135000Y-91725000I200000J0D01*
G01*
X105535000Y-91725000D01*
G75*
G02*
X105735000Y-91925000I0J-200000D01*
G01*
X105735000Y-93325000D01*
G75*
G02*
X105535000Y-93525000I-200000J0D01*
G01*
G37*
%TD.AperFunction*%
%TA.AperFunction,SMDPad,CuDef*%
G36*
G01*
X105535000Y-87275000D02*
X105135000Y-87275000D01*
G75*
G02*
X104935000Y-87075000I0J200000D01*
G01*
X104935000Y-85675000D01*
G75*
G02*
X105135000Y-85475000I200000J0D01*
G01*
X105535000Y-85475000D01*
G75*
G02*
X105735000Y-85675000I0J-200000D01*
G01*
X105735000Y-87075000D01*
G75*
G02*
X105535000Y-87275000I-200000J0D01*
G01*
G37*
%TD.AperFunction*%
%TA.AperFunction,SMDPad,CuDef*%
G36*
G01*
X104265000Y-87275000D02*
X103865000Y-87275000D01*
G75*
G02*
X103665000Y-87075000I0J200000D01*
G01*
X103665000Y-85675000D01*
G75*
G02*
X103865000Y-85475000I200000J0D01*
G01*
X104265000Y-85475000D01*
G75*
G02*
X104465000Y-85675000I0J-200000D01*
G01*
X104465000Y-87075000D01*
G75*
G02*
X104265000Y-87275000I-200000J0D01*
G01*
G37*
%TD.AperFunction*%
%TA.AperFunction,SMDPad,CuDef*%
G36*
G01*
X101065000Y-93525000D02*
X100665000Y-93525000D01*
G75*
G02*
X100465000Y-93325000I0J200000D01*
G01*
X100465000Y-91925000D01*
G75*
G02*
X100665000Y-91725000I200000J0D01*
G01*
X101065000Y-91725000D01*
G75*
G02*
X101265000Y-91925000I0J-200000D01*
G01*
X101265000Y-93325000D01*
G75*
G02*
X101065000Y-93525000I-200000J0D01*
G01*
G37*
%TD.AperFunction*%
%TA.AperFunction,SMDPad,CuDef*%
G36*
G01*
X102335000Y-93525000D02*
X101935000Y-93525000D01*
G75*
G02*
X101735000Y-93325000I0J200000D01*
G01*
X101735000Y-91925000D01*
G75*
G02*
X101935000Y-91725000I200000J0D01*
G01*
X102335000Y-91725000D01*
G75*
G02*
X102535000Y-91925000I0J-200000D01*
G01*
X102535000Y-93325000D01*
G75*
G02*
X102335000Y-93525000I-200000J0D01*
G01*
G37*
%TD.AperFunction*%
%TA.AperFunction,SMDPad,CuDef*%
G36*
G01*
X102335000Y-87275000D02*
X101935000Y-87275000D01*
G75*
G02*
X101735000Y-87075000I0J200000D01*
G01*
X101735000Y-85675000D01*
G75*
G02*
X101935000Y-85475000I200000J0D01*
G01*
X102335000Y-85475000D01*
G75*
G02*
X102535000Y-85675000I0J-200000D01*
G01*
X102535000Y-87075000D01*
G75*
G02*
X102335000Y-87275000I-200000J0D01*
G01*
G37*
%TD.AperFunction*%
%TA.AperFunction,SMDPad,CuDef*%
G36*
G01*
X101065000Y-87275000D02*
X100665000Y-87275000D01*
G75*
G02*
X100465000Y-87075000I0J200000D01*
G01*
X100465000Y-85675000D01*
G75*
G02*
X100665000Y-85475000I200000J0D01*
G01*
X101065000Y-85475000D01*
G75*
G02*
X101265000Y-85675000I0J-200000D01*
G01*
X101265000Y-87075000D01*
G75*
G02*
X101065000Y-87275000I-200000J0D01*
G01*
G37*
%TD.AperFunction*%
%TA.AperFunction,SMDPad,CuDef*%
G36*
G01*
X97865000Y-93525000D02*
X97465000Y-93525000D01*
G75*
G02*
X97265000Y-93325000I0J200000D01*
G01*
X97265000Y-91925000D01*
G75*
G02*
X97465000Y-91725000I200000J0D01*
G01*
X97865000Y-91725000D01*
G75*
G02*
X98065000Y-91925000I0J-200000D01*
G01*
X98065000Y-93325000D01*
G75*
G02*
X97865000Y-93525000I-200000J0D01*
G01*
G37*
%TD.AperFunction*%
%TA.AperFunction,SMDPad,CuDef*%
G36*
G01*
X99135000Y-93525000D02*
X98735000Y-93525000D01*
G75*
G02*
X98535000Y-93325000I0J200000D01*
G01*
X98535000Y-91925000D01*
G75*
G02*
X98735000Y-91725000I200000J0D01*
G01*
X99135000Y-91725000D01*
G75*
G02*
X99335000Y-91925000I0J-200000D01*
G01*
X99335000Y-93325000D01*
G75*
G02*
X99135000Y-93525000I-200000J0D01*
G01*
G37*
%TD.AperFunction*%
%TA.AperFunction,SMDPad,CuDef*%
G36*
G01*
X99135000Y-87275000D02*
X98735000Y-87275000D01*
G75*
G02*
X98535000Y-87075000I0J200000D01*
G01*
X98535000Y-85675000D01*
G75*
G02*
X98735000Y-85475000I200000J0D01*
G01*
X99135000Y-85475000D01*
G75*
G02*
X99335000Y-85675000I0J-200000D01*
G01*
X99335000Y-87075000D01*
G75*
G02*
X99135000Y-87275000I-200000J0D01*
G01*
G37*
%TD.AperFunction*%
%TA.AperFunction,SMDPad,CuDef*%
G36*
G01*
X97865000Y-87275000D02*
X97465000Y-87275000D01*
G75*
G02*
X97265000Y-87075000I0J200000D01*
G01*
X97265000Y-85675000D01*
G75*
G02*
X97465000Y-85475000I200000J0D01*
G01*
X97865000Y-85475000D01*
G75*
G02*
X98065000Y-85675000I0J-200000D01*
G01*
X98065000Y-87075000D01*
G75*
G02*
X97865000Y-87275000I-200000J0D01*
G01*
G37*
%TD.AperFunction*%
%TA.AperFunction,SMDPad,CuDef*%
G36*
G01*
X94665000Y-93525000D02*
X94265000Y-93525000D01*
G75*
G02*
X94065000Y-93325000I0J200000D01*
G01*
X94065000Y-91925000D01*
G75*
G02*
X94265000Y-91725000I200000J0D01*
G01*
X94665000Y-91725000D01*
G75*
G02*
X94865000Y-91925000I0J-200000D01*
G01*
X94865000Y-93325000D01*
G75*
G02*
X94665000Y-93525000I-200000J0D01*
G01*
G37*
%TD.AperFunction*%
%TA.AperFunction,SMDPad,CuDef*%
G36*
G01*
X95935000Y-93525000D02*
X95535000Y-93525000D01*
G75*
G02*
X95335000Y-93325000I0J200000D01*
G01*
X95335000Y-91925000D01*
G75*
G02*
X95535000Y-91725000I200000J0D01*
G01*
X95935000Y-91725000D01*
G75*
G02*
X96135000Y-91925000I0J-200000D01*
G01*
X96135000Y-93325000D01*
G75*
G02*
X95935000Y-93525000I-200000J0D01*
G01*
G37*
%TD.AperFunction*%
%TA.AperFunction,SMDPad,CuDef*%
G36*
G01*
X95935000Y-87275000D02*
X95535000Y-87275000D01*
G75*
G02*
X95335000Y-87075000I0J200000D01*
G01*
X95335000Y-85675000D01*
G75*
G02*
X95535000Y-85475000I200000J0D01*
G01*
X95935000Y-85475000D01*
G75*
G02*
X96135000Y-85675000I0J-200000D01*
G01*
X96135000Y-87075000D01*
G75*
G02*
X95935000Y-87275000I-200000J0D01*
G01*
G37*
%TD.AperFunction*%
%TA.AperFunction,SMDPad,CuDef*%
G36*
G01*
X94665000Y-87275000D02*
X94265000Y-87275000D01*
G75*
G02*
X94065000Y-87075000I0J200000D01*
G01*
X94065000Y-85675000D01*
G75*
G02*
X94265000Y-85475000I200000J0D01*
G01*
X94665000Y-85475000D01*
G75*
G02*
X94865000Y-85675000I0J-200000D01*
G01*
X94865000Y-87075000D01*
G75*
G02*
X94665000Y-87275000I-200000J0D01*
G01*
G37*
%TD.AperFunction*%
%TA.AperFunction,SMDPad,CuDef*%
G36*
G01*
X107465000Y-93525000D02*
X107065000Y-93525000D01*
G75*
G02*
X106865000Y-93325000I0J200000D01*
G01*
X106865000Y-91925000D01*
G75*
G02*
X107065000Y-91725000I200000J0D01*
G01*
X107465000Y-91725000D01*
G75*
G02*
X107665000Y-91925000I0J-200000D01*
G01*
X107665000Y-93325000D01*
G75*
G02*
X107465000Y-93525000I-200000J0D01*
G01*
G37*
%TD.AperFunction*%
%TA.AperFunction,SMDPad,CuDef*%
G36*
G01*
X108735000Y-93525000D02*
X108335000Y-93525000D01*
G75*
G02*
X108135000Y-93325000I0J200000D01*
G01*
X108135000Y-91925000D01*
G75*
G02*
X108335000Y-91725000I200000J0D01*
G01*
X108735000Y-91725000D01*
G75*
G02*
X108935000Y-91925000I0J-200000D01*
G01*
X108935000Y-93325000D01*
G75*
G02*
X108735000Y-93525000I-200000J0D01*
G01*
G37*
%TD.AperFunction*%
%TA.AperFunction,SMDPad,CuDef*%
G36*
G01*
X108735000Y-87275000D02*
X108335000Y-87275000D01*
G75*
G02*
X108135000Y-87075000I0J200000D01*
G01*
X108135000Y-85675000D01*
G75*
G02*
X108335000Y-85475000I200000J0D01*
G01*
X108735000Y-85475000D01*
G75*
G02*
X108935000Y-85675000I0J-200000D01*
G01*
X108935000Y-87075000D01*
G75*
G02*
X108735000Y-87275000I-200000J0D01*
G01*
G37*
%TD.AperFunction*%
%TA.AperFunction,SMDPad,CuDef*%
G36*
G01*
X107465000Y-87275000D02*
X107065000Y-87275000D01*
G75*
G02*
X106865000Y-87075000I0J200000D01*
G01*
X106865000Y-85675000D01*
G75*
G02*
X107065000Y-85475000I200000J0D01*
G01*
X107465000Y-85475000D01*
G75*
G02*
X107665000Y-85675000I0J-200000D01*
G01*
X107665000Y-87075000D01*
G75*
G02*
X107465000Y-87275000I-200000J0D01*
G01*
G37*
%TD.AperFunction*%
%TA.AperFunction,SMDPad,CuDef*%
G36*
G01*
X63550000Y-109550000D02*
X62450000Y-109550000D01*
G75*
G02*
X62200000Y-109300000I0J250000D01*
G01*
X62200000Y-106300000D01*
G75*
G02*
X62450000Y-106050000I250000J0D01*
G01*
X63550000Y-106050000D01*
G75*
G02*
X63800000Y-106300000I0J-250000D01*
G01*
X63800000Y-109300000D01*
G75*
G02*
X63550000Y-109550000I-250000J0D01*
G01*
G37*
%TD.AperFunction*%
%TA.AperFunction,SMDPad,CuDef*%
G36*
G01*
X63550000Y-114950000D02*
X62450000Y-114950000D01*
G75*
G02*
X62200000Y-114700000I0J250000D01*
G01*
X62200000Y-111700000D01*
G75*
G02*
X62450000Y-111450000I250000J0D01*
G01*
X63550000Y-111450000D01*
G75*
G02*
X63800000Y-111700000I0J-250000D01*
G01*
X63800000Y-114700000D01*
G75*
G02*
X63550000Y-114950000I-250000J0D01*
G01*
G37*
%TD.AperFunction*%
%TA.AperFunction,SMDPad,CuDef*%
G36*
G01*
X55550000Y-109550000D02*
X54450000Y-109550000D01*
G75*
G02*
X54200000Y-109300000I0J250000D01*
G01*
X54200000Y-106300000D01*
G75*
G02*
X54450000Y-106050000I250000J0D01*
G01*
X55550000Y-106050000D01*
G75*
G02*
X55800000Y-106300000I0J-250000D01*
G01*
X55800000Y-109300000D01*
G75*
G02*
X55550000Y-109550000I-250000J0D01*
G01*
G37*
%TD.AperFunction*%
%TA.AperFunction,SMDPad,CuDef*%
G36*
G01*
X55550000Y-114950000D02*
X54450000Y-114950000D01*
G75*
G02*
X54200000Y-114700000I0J250000D01*
G01*
X54200000Y-111700000D01*
G75*
G02*
X54450000Y-111450000I250000J0D01*
G01*
X55550000Y-111450000D01*
G75*
G02*
X55800000Y-111700000I0J-250000D01*
G01*
X55800000Y-114700000D01*
G75*
G02*
X55550000Y-114950000I-250000J0D01*
G01*
G37*
%TD.AperFunction*%
%TA.AperFunction,SMDPad,CuDef*%
G36*
G01*
X60050000Y-63450000D02*
X60050000Y-64550000D01*
G75*
G02*
X59800000Y-64800000I-250000J0D01*
G01*
X56800000Y-64800000D01*
G75*
G02*
X56550000Y-64550000I0J250000D01*
G01*
X56550000Y-63450000D01*
G75*
G02*
X56800000Y-63200000I250000J0D01*
G01*
X59800000Y-63200000D01*
G75*
G02*
X60050000Y-63450000I0J-250000D01*
G01*
G37*
%TD.AperFunction*%
%TA.AperFunction,SMDPad,CuDef*%
G36*
G01*
X65450000Y-63450000D02*
X65450000Y-64550000D01*
G75*
G02*
X65200000Y-64800000I-250000J0D01*
G01*
X62200000Y-64800000D01*
G75*
G02*
X61950000Y-64550000I0J250000D01*
G01*
X61950000Y-63450000D01*
G75*
G02*
X62200000Y-63200000I250000J0D01*
G01*
X65200000Y-63200000D01*
G75*
G02*
X65450000Y-63450000I0J-250000D01*
G01*
G37*
%TD.AperFunction*%
%TA.AperFunction,SMDPad,CuDef*%
G36*
G01*
X90375000Y-82525000D02*
X90375000Y-83075000D01*
G75*
G02*
X90175000Y-83275000I-200000J0D01*
G01*
X89775000Y-83275000D01*
G75*
G02*
X89575000Y-83075000I0J200000D01*
G01*
X89575000Y-82525000D01*
G75*
G02*
X89775000Y-82325000I200000J0D01*
G01*
X90175000Y-82325000D01*
G75*
G02*
X90375000Y-82525000I0J-200000D01*
G01*
G37*
%TD.AperFunction*%
%TA.AperFunction,SMDPad,CuDef*%
G36*
G01*
X92025000Y-82525000D02*
X92025000Y-83075000D01*
G75*
G02*
X91825000Y-83275000I-200000J0D01*
G01*
X91425000Y-83275000D01*
G75*
G02*
X91225000Y-83075000I0J200000D01*
G01*
X91225000Y-82525000D01*
G75*
G02*
X91425000Y-82325000I200000J0D01*
G01*
X91825000Y-82325000D01*
G75*
G02*
X92025000Y-82525000I0J-200000D01*
G01*
G37*
%TD.AperFunction*%
D20*
X99300000Y-77943500D03*
X97014000Y-77943500D03*
X101586000Y-77943500D03*
D21*
X99300000Y-70844200D03*
D20*
X79300000Y-77943500D03*
X77014000Y-77943500D03*
X81586000Y-77943500D03*
D21*
X79300000Y-70844200D03*
%TA.AperFunction,SMDPad,CuDef*%
G36*
G01*
X108950000Y-95975000D02*
X108450000Y-95975000D01*
G75*
G02*
X108225000Y-95750000I0J225000D01*
G01*
X108225000Y-95300000D01*
G75*
G02*
X108450000Y-95075000I225000J0D01*
G01*
X108950000Y-95075000D01*
G75*
G02*
X109175000Y-95300000I0J-225000D01*
G01*
X109175000Y-95750000D01*
G75*
G02*
X108950000Y-95975000I-225000J0D01*
G01*
G37*
%TD.AperFunction*%
%TA.AperFunction,SMDPad,CuDef*%
G36*
G01*
X108950000Y-97525000D02*
X108450000Y-97525000D01*
G75*
G02*
X108225000Y-97300000I0J225000D01*
G01*
X108225000Y-96850000D01*
G75*
G02*
X108450000Y-96625000I225000J0D01*
G01*
X108950000Y-96625000D01*
G75*
G02*
X109175000Y-96850000I0J-225000D01*
G01*
X109175000Y-97300000D01*
G75*
G02*
X108950000Y-97525000I-225000J0D01*
G01*
G37*
%TD.AperFunction*%
%TA.AperFunction,SMDPad,CuDef*%
G36*
G01*
X153225000Y-118975000D02*
X153225000Y-118425000D01*
G75*
G02*
X153425000Y-118225000I200000J0D01*
G01*
X153825000Y-118225000D01*
G75*
G02*
X154025000Y-118425000I0J-200000D01*
G01*
X154025000Y-118975000D01*
G75*
G02*
X153825000Y-119175000I-200000J0D01*
G01*
X153425000Y-119175000D01*
G75*
G02*
X153225000Y-118975000I0J200000D01*
G01*
G37*
%TD.AperFunction*%
%TA.AperFunction,SMDPad,CuDef*%
G36*
G01*
X151575000Y-118975000D02*
X151575000Y-118425000D01*
G75*
G02*
X151775000Y-118225000I200000J0D01*
G01*
X152175000Y-118225000D01*
G75*
G02*
X152375000Y-118425000I0J-200000D01*
G01*
X152375000Y-118975000D01*
G75*
G02*
X152175000Y-119175000I-200000J0D01*
G01*
X151775000Y-119175000D01*
G75*
G02*
X151575000Y-118975000I0J200000D01*
G01*
G37*
%TD.AperFunction*%
%TA.AperFunction,SMDPad,CuDef*%
G36*
G01*
X159175000Y-118425000D02*
X159175000Y-118975000D01*
G75*
G02*
X158975000Y-119175000I-200000J0D01*
G01*
X158575000Y-119175000D01*
G75*
G02*
X158375000Y-118975000I0J200000D01*
G01*
X158375000Y-118425000D01*
G75*
G02*
X158575000Y-118225000I200000J0D01*
G01*
X158975000Y-118225000D01*
G75*
G02*
X159175000Y-118425000I0J-200000D01*
G01*
G37*
%TD.AperFunction*%
%TA.AperFunction,SMDPad,CuDef*%
G36*
G01*
X160825000Y-118425000D02*
X160825000Y-118975000D01*
G75*
G02*
X160625000Y-119175000I-200000J0D01*
G01*
X160225000Y-119175000D01*
G75*
G02*
X160025000Y-118975000I0J200000D01*
G01*
X160025000Y-118425000D01*
G75*
G02*
X160225000Y-118225000I200000J0D01*
G01*
X160625000Y-118225000D01*
G75*
G02*
X160825000Y-118425000I0J-200000D01*
G01*
G37*
%TD.AperFunction*%
D13*
X157200000Y-117700000D03*
X155200000Y-118650000D03*
X155200000Y-116750000D03*
D22*
X134000000Y-80500000D03*
X134000000Y-78000000D03*
X134000000Y-75500000D03*
%TA.AperFunction,ComponentPad*%
G36*
G01*
X133275000Y-72150000D02*
X134725000Y-72150000D01*
G75*
G02*
X134975000Y-72400000I0J-250000D01*
G01*
X134975000Y-73600000D01*
G75*
G02*
X134725000Y-73850000I-250000J0D01*
G01*
X133275000Y-73850000D01*
G75*
G02*
X133025000Y-73600000I0J250000D01*
G01*
X133025000Y-72400000D01*
G75*
G02*
X133275000Y-72150000I250000J0D01*
G01*
G37*
%TD.AperFunction*%
D23*
X60780000Y-117800000D03*
X58500000Y-117800000D03*
X56220000Y-117800000D03*
D24*
X58500000Y-124100000D03*
%TA.AperFunction,SMDPad,CuDef*%
G36*
G01*
X160850000Y-129175000D02*
X160350000Y-129175000D01*
G75*
G02*
X160125000Y-128950000I0J225000D01*
G01*
X160125000Y-128500000D01*
G75*
G02*
X160350000Y-128275000I225000J0D01*
G01*
X160850000Y-128275000D01*
G75*
G02*
X161075000Y-128500000I0J-225000D01*
G01*
X161075000Y-128950000D01*
G75*
G02*
X160850000Y-129175000I-225000J0D01*
G01*
G37*
%TD.AperFunction*%
%TA.AperFunction,SMDPad,CuDef*%
G36*
G01*
X160850000Y-130725000D02*
X160350000Y-130725000D01*
G75*
G02*
X160125000Y-130500000I0J225000D01*
G01*
X160125000Y-130050000D01*
G75*
G02*
X160350000Y-129825000I225000J0D01*
G01*
X160850000Y-129825000D01*
G75*
G02*
X161075000Y-130050000I0J-225000D01*
G01*
X161075000Y-130500000D01*
G75*
G02*
X160850000Y-130725000I-225000J0D01*
G01*
G37*
%TD.AperFunction*%
%TA.AperFunction,SMDPad,CuDef*%
G36*
G01*
X81756250Y-93525000D02*
X81243750Y-93525000D01*
G75*
G02*
X81025000Y-93306250I0J218750D01*
G01*
X81025000Y-92868750D01*
G75*
G02*
X81243750Y-92650000I218750J0D01*
G01*
X81756250Y-92650000D01*
G75*
G02*
X81975000Y-92868750I0J-218750D01*
G01*
X81975000Y-93306250D01*
G75*
G02*
X81756250Y-93525000I-218750J0D01*
G01*
G37*
%TD.AperFunction*%
%TA.AperFunction,SMDPad,CuDef*%
G36*
G01*
X81756250Y-91950000D02*
X81243750Y-91950000D01*
G75*
G02*
X81025000Y-91731250I0J218750D01*
G01*
X81025000Y-91293750D01*
G75*
G02*
X81243750Y-91075000I218750J0D01*
G01*
X81756250Y-91075000D01*
G75*
G02*
X81975000Y-91293750I0J-218750D01*
G01*
X81975000Y-91731250D01*
G75*
G02*
X81756250Y-91950000I-218750J0D01*
G01*
G37*
%TD.AperFunction*%
%TA.AperFunction,SMDPad,CuDef*%
G36*
G01*
X79075000Y-93525000D02*
X78525000Y-93525000D01*
G75*
G02*
X78325000Y-93325000I0J200000D01*
G01*
X78325000Y-92925000D01*
G75*
G02*
X78525000Y-92725000I200000J0D01*
G01*
X79075000Y-92725000D01*
G75*
G02*
X79275000Y-92925000I0J-200000D01*
G01*
X79275000Y-93325000D01*
G75*
G02*
X79075000Y-93525000I-200000J0D01*
G01*
G37*
%TD.AperFunction*%
%TA.AperFunction,SMDPad,CuDef*%
G36*
G01*
X79075000Y-91875000D02*
X78525000Y-91875000D01*
G75*
G02*
X78325000Y-91675000I0J200000D01*
G01*
X78325000Y-91275000D01*
G75*
G02*
X78525000Y-91075000I200000J0D01*
G01*
X79075000Y-91075000D01*
G75*
G02*
X79275000Y-91275000I0J-200000D01*
G01*
X79275000Y-91675000D01*
G75*
G02*
X79075000Y-91875000I-200000J0D01*
G01*
G37*
%TD.AperFunction*%
D25*
X84000000Y-92750000D03*
X84000000Y-91850000D03*
%TA.AperFunction,SMDPad,CuDef*%
G36*
G01*
X96875000Y-82525000D02*
X96875000Y-83075000D01*
G75*
G02*
X96675000Y-83275000I-200000J0D01*
G01*
X96275000Y-83275000D01*
G75*
G02*
X96075000Y-83075000I0J200000D01*
G01*
X96075000Y-82525000D01*
G75*
G02*
X96275000Y-82325000I200000J0D01*
G01*
X96675000Y-82325000D01*
G75*
G02*
X96875000Y-82525000I0J-200000D01*
G01*
G37*
%TD.AperFunction*%
%TA.AperFunction,SMDPad,CuDef*%
G36*
G01*
X98525000Y-82525000D02*
X98525000Y-83075000D01*
G75*
G02*
X98325000Y-83275000I-200000J0D01*
G01*
X97925000Y-83275000D01*
G75*
G02*
X97725000Y-83075000I0J200000D01*
G01*
X97725000Y-82525000D01*
G75*
G02*
X97925000Y-82325000I200000J0D01*
G01*
X98325000Y-82325000D01*
G75*
G02*
X98525000Y-82525000I0J-200000D01*
G01*
G37*
%TD.AperFunction*%
D18*
X144000000Y-55500000D03*
%TA.AperFunction,ComponentPad*%
G36*
G01*
X143250000Y-52150000D02*
X144750000Y-52150000D01*
G75*
G02*
X145000000Y-52400000I0J-250000D01*
G01*
X145000000Y-53600000D01*
G75*
G02*
X144750000Y-53850000I-250000J0D01*
G01*
X143250000Y-53850000D01*
G75*
G02*
X143000000Y-53600000I0J250000D01*
G01*
X143000000Y-52400000D01*
G75*
G02*
X143250000Y-52150000I250000J0D01*
G01*
G37*
%TD.AperFunction*%
D26*
X170000000Y-54000000D03*
D27*
X172400000Y-54000000D03*
X171697056Y-55697056D03*
X170000000Y-56400000D03*
X168302944Y-55697056D03*
X167600000Y-54000000D03*
X168302944Y-52302944D03*
X170000000Y-51600000D03*
X171697056Y-52302944D03*
D26*
X170000000Y-134000000D03*
D27*
X172400000Y-134000000D03*
X171697056Y-135697056D03*
X170000000Y-136400000D03*
X168302944Y-135697056D03*
X167600000Y-134000000D03*
X168302944Y-132302944D03*
X170000000Y-131600000D03*
X171697056Y-132302944D03*
D26*
X54000000Y-54000000D03*
D27*
X56400000Y-54000000D03*
X55697056Y-55697056D03*
X54000000Y-56400000D03*
X52302944Y-55697056D03*
X51600000Y-54000000D03*
X52302944Y-52302944D03*
X54000000Y-51600000D03*
X55697056Y-52302944D03*
D26*
X54000000Y-134000000D03*
D27*
X56400000Y-134000000D03*
X55697056Y-135697056D03*
X54000000Y-136400000D03*
X52302944Y-135697056D03*
X51600000Y-134000000D03*
X52302944Y-132302944D03*
X54000000Y-131600000D03*
X55697056Y-132302944D03*
D28*
X108392388Y-114607612D03*
%TA.AperFunction,ComponentPad*%
G36*
G01*
X103230509Y-117931013D02*
X104786143Y-116375379D01*
G75*
G02*
X106624621Y-116375379I919239J-919239D01*
G01*
X106624621Y-116375379D01*
G75*
G02*
X106624621Y-118213857I-919239J-919239D01*
G01*
X105068987Y-119769491D01*
G75*
G02*
X103230509Y-119769491I-919239J919239D01*
G01*
X103230509Y-119769491D01*
G75*
G02*
X103230509Y-117931013I919239J919239D01*
G01*
G37*
%TD.AperFunction*%
%TA.AperFunction,ComponentPad*%
G36*
G01*
X88381267Y-132780255D02*
X89936901Y-131224621D01*
G75*
G02*
X91775379Y-131224621I919239J-919239D01*
G01*
X91775379Y-131224621D01*
G75*
G02*
X91775379Y-133063099I-919239J-919239D01*
G01*
X90219745Y-134618733D01*
G75*
G02*
X88381267Y-134618733I-919239J919239D01*
G01*
X88381267Y-134618733D01*
G75*
G02*
X88381267Y-132780255I919239J919239D01*
G01*
G37*
%TD.AperFunction*%
D29*
X128050740Y-112855000D03*
X128050740Y-114125000D03*
X128050740Y-115395000D03*
X128050740Y-116665000D03*
X128050740Y-117935000D03*
X128050740Y-119205000D03*
X128050740Y-120475000D03*
X128050740Y-121745000D03*
X118749260Y-121745000D03*
X118749260Y-120475000D03*
X118749260Y-119205000D03*
X118749260Y-117935000D03*
X118749260Y-116665000D03*
X118749260Y-115395000D03*
X118749260Y-114125000D03*
X118749260Y-112855000D03*
%TA.AperFunction,ComponentPad*%
G36*
G01*
X116200000Y-120800000D02*
X115400000Y-120800000D01*
G75*
G02*
X115000000Y-120400000I0J400000D01*
G01*
X115000000Y-119600000D01*
G75*
G02*
X115400000Y-119200000I400000J0D01*
G01*
X116200000Y-119200000D01*
G75*
G02*
X116600000Y-119600000I0J-400000D01*
G01*
X116600000Y-120400000D01*
G75*
G02*
X116200000Y-120800000I-400000J0D01*
G01*
G37*
%TD.AperFunction*%
%TA.AperFunction,SMDPad,CuDef*%
G36*
G01*
X145575000Y-114725000D02*
X145575000Y-115275000D01*
G75*
G02*
X145375000Y-115475000I-200000J0D01*
G01*
X144975000Y-115475000D01*
G75*
G02*
X144775000Y-115275000I0J200000D01*
G01*
X144775000Y-114725000D01*
G75*
G02*
X144975000Y-114525000I200000J0D01*
G01*
X145375000Y-114525000D01*
G75*
G02*
X145575000Y-114725000I0J-200000D01*
G01*
G37*
%TD.AperFunction*%
%TA.AperFunction,SMDPad,CuDef*%
G36*
G01*
X147225000Y-114725000D02*
X147225000Y-115275000D01*
G75*
G02*
X147025000Y-115475000I-200000J0D01*
G01*
X146625000Y-115475000D01*
G75*
G02*
X146425000Y-115275000I0J200000D01*
G01*
X146425000Y-114725000D01*
G75*
G02*
X146625000Y-114525000I200000J0D01*
G01*
X147025000Y-114525000D01*
G75*
G02*
X147225000Y-114725000I0J-200000D01*
G01*
G37*
%TD.AperFunction*%
%TA.AperFunction,SMDPad,CuDef*%
G36*
G01*
X153225000Y-115275000D02*
X153225000Y-114725000D01*
G75*
G02*
X153425000Y-114525000I200000J0D01*
G01*
X153825000Y-114525000D01*
G75*
G02*
X154025000Y-114725000I0J-200000D01*
G01*
X154025000Y-115275000D01*
G75*
G02*
X153825000Y-115475000I-200000J0D01*
G01*
X153425000Y-115475000D01*
G75*
G02*
X153225000Y-115275000I0J200000D01*
G01*
G37*
%TD.AperFunction*%
%TA.AperFunction,SMDPad,CuDef*%
G36*
G01*
X151575000Y-115275000D02*
X151575000Y-114725000D01*
G75*
G02*
X151775000Y-114525000I200000J0D01*
G01*
X152175000Y-114525000D01*
G75*
G02*
X152375000Y-114725000I0J-200000D01*
G01*
X152375000Y-115275000D01*
G75*
G02*
X152175000Y-115475000I-200000J0D01*
G01*
X151775000Y-115475000D01*
G75*
G02*
X151575000Y-115275000I0J200000D01*
G01*
G37*
%TD.AperFunction*%
%TA.AperFunction,SMDPad,CuDef*%
G36*
G01*
X159175000Y-114725000D02*
X159175000Y-115275000D01*
G75*
G02*
X158975000Y-115475000I-200000J0D01*
G01*
X158575000Y-115475000D01*
G75*
G02*
X158375000Y-115275000I0J200000D01*
G01*
X158375000Y-114725000D01*
G75*
G02*
X158575000Y-114525000I200000J0D01*
G01*
X158975000Y-114525000D01*
G75*
G02*
X159175000Y-114725000I0J-200000D01*
G01*
G37*
%TD.AperFunction*%
%TA.AperFunction,SMDPad,CuDef*%
G36*
G01*
X160825000Y-114725000D02*
X160825000Y-115275000D01*
G75*
G02*
X160625000Y-115475000I-200000J0D01*
G01*
X160225000Y-115475000D01*
G75*
G02*
X160025000Y-115275000I0J200000D01*
G01*
X160025000Y-114725000D01*
G75*
G02*
X160225000Y-114525000I200000J0D01*
G01*
X160625000Y-114525000D01*
G75*
G02*
X160825000Y-114725000I0J-200000D01*
G01*
G37*
%TD.AperFunction*%
%TA.AperFunction,SMDPad,CuDef*%
G36*
G01*
X153225000Y-103775000D02*
X153225000Y-103225000D01*
G75*
G02*
X153425000Y-103025000I200000J0D01*
G01*
X153825000Y-103025000D01*
G75*
G02*
X154025000Y-103225000I0J-200000D01*
G01*
X154025000Y-103775000D01*
G75*
G02*
X153825000Y-103975000I-200000J0D01*
G01*
X153425000Y-103975000D01*
G75*
G02*
X153225000Y-103775000I0J200000D01*
G01*
G37*
%TD.AperFunction*%
%TA.AperFunction,SMDPad,CuDef*%
G36*
G01*
X151575000Y-103775000D02*
X151575000Y-103225000D01*
G75*
G02*
X151775000Y-103025000I200000J0D01*
G01*
X152175000Y-103025000D01*
G75*
G02*
X152375000Y-103225000I0J-200000D01*
G01*
X152375000Y-103775000D01*
G75*
G02*
X152175000Y-103975000I-200000J0D01*
G01*
X151775000Y-103975000D01*
G75*
G02*
X151575000Y-103775000I0J200000D01*
G01*
G37*
%TD.AperFunction*%
%TA.AperFunction,SMDPad,CuDef*%
G36*
G01*
X159175000Y-103225000D02*
X159175000Y-103775000D01*
G75*
G02*
X158975000Y-103975000I-200000J0D01*
G01*
X158575000Y-103975000D01*
G75*
G02*
X158375000Y-103775000I0J200000D01*
G01*
X158375000Y-103225000D01*
G75*
G02*
X158575000Y-103025000I200000J0D01*
G01*
X158975000Y-103025000D01*
G75*
G02*
X159175000Y-103225000I0J-200000D01*
G01*
G37*
%TD.AperFunction*%
%TA.AperFunction,SMDPad,CuDef*%
G36*
G01*
X160825000Y-103225000D02*
X160825000Y-103775000D01*
G75*
G02*
X160625000Y-103975000I-200000J0D01*
G01*
X160225000Y-103975000D01*
G75*
G02*
X160025000Y-103775000I0J200000D01*
G01*
X160025000Y-103225000D01*
G75*
G02*
X160225000Y-103025000I200000J0D01*
G01*
X160625000Y-103025000D01*
G75*
G02*
X160825000Y-103225000I0J-200000D01*
G01*
G37*
%TD.AperFunction*%
%TA.AperFunction,SMDPad,CuDef*%
G36*
G01*
X153225000Y-99975000D02*
X153225000Y-99425000D01*
G75*
G02*
X153425000Y-99225000I200000J0D01*
G01*
X153825000Y-99225000D01*
G75*
G02*
X154025000Y-99425000I0J-200000D01*
G01*
X154025000Y-99975000D01*
G75*
G02*
X153825000Y-100175000I-200000J0D01*
G01*
X153425000Y-100175000D01*
G75*
G02*
X153225000Y-99975000I0J200000D01*
G01*
G37*
%TD.AperFunction*%
%TA.AperFunction,SMDPad,CuDef*%
G36*
G01*
X151575000Y-99975000D02*
X151575000Y-99425000D01*
G75*
G02*
X151775000Y-99225000I200000J0D01*
G01*
X152175000Y-99225000D01*
G75*
G02*
X152375000Y-99425000I0J-200000D01*
G01*
X152375000Y-99975000D01*
G75*
G02*
X152175000Y-100175000I-200000J0D01*
G01*
X151775000Y-100175000D01*
G75*
G02*
X151575000Y-99975000I0J200000D01*
G01*
G37*
%TD.AperFunction*%
%TA.AperFunction,SMDPad,CuDef*%
G36*
G01*
X159175000Y-99425000D02*
X159175000Y-99975000D01*
G75*
G02*
X158975000Y-100175000I-200000J0D01*
G01*
X158575000Y-100175000D01*
G75*
G02*
X158375000Y-99975000I0J200000D01*
G01*
X158375000Y-99425000D01*
G75*
G02*
X158575000Y-99225000I200000J0D01*
G01*
X158975000Y-99225000D01*
G75*
G02*
X159175000Y-99425000I0J-200000D01*
G01*
G37*
%TD.AperFunction*%
%TA.AperFunction,SMDPad,CuDef*%
G36*
G01*
X160825000Y-99425000D02*
X160825000Y-99975000D01*
G75*
G02*
X160625000Y-100175000I-200000J0D01*
G01*
X160225000Y-100175000D01*
G75*
G02*
X160025000Y-99975000I0J200000D01*
G01*
X160025000Y-99425000D01*
G75*
G02*
X160225000Y-99225000I200000J0D01*
G01*
X160625000Y-99225000D01*
G75*
G02*
X160825000Y-99425000I0J-200000D01*
G01*
G37*
%TD.AperFunction*%
%TA.AperFunction,SMDPad,CuDef*%
G36*
G01*
X146825000Y-108375000D02*
X147375000Y-108375000D01*
G75*
G02*
X147575000Y-108575000I0J-200000D01*
G01*
X147575000Y-108975000D01*
G75*
G02*
X147375000Y-109175000I-200000J0D01*
G01*
X146825000Y-109175000D01*
G75*
G02*
X146625000Y-108975000I0J200000D01*
G01*
X146625000Y-108575000D01*
G75*
G02*
X146825000Y-108375000I200000J0D01*
G01*
G37*
%TD.AperFunction*%
%TA.AperFunction,SMDPad,CuDef*%
G36*
G01*
X146825000Y-106725000D02*
X147375000Y-106725000D01*
G75*
G02*
X147575000Y-106925000I0J-200000D01*
G01*
X147575000Y-107325000D01*
G75*
G02*
X147375000Y-107525000I-200000J0D01*
G01*
X146825000Y-107525000D01*
G75*
G02*
X146625000Y-107325000I0J200000D01*
G01*
X146625000Y-106925000D01*
G75*
G02*
X146825000Y-106725000I200000J0D01*
G01*
G37*
%TD.AperFunction*%
%TA.AperFunction,SMDPad,CuDef*%
G36*
G01*
X141875000Y-107525000D02*
X141325000Y-107525000D01*
G75*
G02*
X141125000Y-107325000I0J200000D01*
G01*
X141125000Y-106925000D01*
G75*
G02*
X141325000Y-106725000I200000J0D01*
G01*
X141875000Y-106725000D01*
G75*
G02*
X142075000Y-106925000I0J-200000D01*
G01*
X142075000Y-107325000D01*
G75*
G02*
X141875000Y-107525000I-200000J0D01*
G01*
G37*
%TD.AperFunction*%
%TA.AperFunction,SMDPad,CuDef*%
G36*
G01*
X141875000Y-109175000D02*
X141325000Y-109175000D01*
G75*
G02*
X141125000Y-108975000I0J200000D01*
G01*
X141125000Y-108575000D01*
G75*
G02*
X141325000Y-108375000I200000J0D01*
G01*
X141875000Y-108375000D01*
G75*
G02*
X142075000Y-108575000I0J-200000D01*
G01*
X142075000Y-108975000D01*
G75*
G02*
X141875000Y-109175000I-200000J0D01*
G01*
G37*
%TD.AperFunction*%
%TA.AperFunction,SMDPad,CuDef*%
G36*
G01*
X120375000Y-82525000D02*
X120375000Y-83075000D01*
G75*
G02*
X120175000Y-83275000I-200000J0D01*
G01*
X119775000Y-83275000D01*
G75*
G02*
X119575000Y-83075000I0J200000D01*
G01*
X119575000Y-82525000D01*
G75*
G02*
X119775000Y-82325000I200000J0D01*
G01*
X120175000Y-82325000D01*
G75*
G02*
X120375000Y-82525000I0J-200000D01*
G01*
G37*
%TD.AperFunction*%
%TA.AperFunction,SMDPad,CuDef*%
G36*
G01*
X122025000Y-82525000D02*
X122025000Y-83075000D01*
G75*
G02*
X121825000Y-83275000I-200000J0D01*
G01*
X121425000Y-83275000D01*
G75*
G02*
X121225000Y-83075000I0J200000D01*
G01*
X121225000Y-82525000D01*
G75*
G02*
X121425000Y-82325000I200000J0D01*
G01*
X121825000Y-82325000D01*
G75*
G02*
X122025000Y-82525000I0J-200000D01*
G01*
G37*
%TD.AperFunction*%
%TA.AperFunction,SMDPad,CuDef*%
G36*
G01*
X116875000Y-82525000D02*
X116875000Y-83075000D01*
G75*
G02*
X116675000Y-83275000I-200000J0D01*
G01*
X116275000Y-83275000D01*
G75*
G02*
X116075000Y-83075000I0J200000D01*
G01*
X116075000Y-82525000D01*
G75*
G02*
X116275000Y-82325000I200000J0D01*
G01*
X116675000Y-82325000D01*
G75*
G02*
X116875000Y-82525000I0J-200000D01*
G01*
G37*
%TD.AperFunction*%
%TA.AperFunction,SMDPad,CuDef*%
G36*
G01*
X118525000Y-82525000D02*
X118525000Y-83075000D01*
G75*
G02*
X118325000Y-83275000I-200000J0D01*
G01*
X117925000Y-83275000D01*
G75*
G02*
X117725000Y-83075000I0J200000D01*
G01*
X117725000Y-82525000D01*
G75*
G02*
X117925000Y-82325000I200000J0D01*
G01*
X118325000Y-82325000D01*
G75*
G02*
X118525000Y-82525000I0J-200000D01*
G01*
G37*
%TD.AperFunction*%
%TA.AperFunction,SMDPad,CuDef*%
G36*
G01*
X116875000Y-80525000D02*
X116875000Y-81075000D01*
G75*
G02*
X116675000Y-81275000I-200000J0D01*
G01*
X116275000Y-81275000D01*
G75*
G02*
X116075000Y-81075000I0J200000D01*
G01*
X116075000Y-80525000D01*
G75*
G02*
X116275000Y-80325000I200000J0D01*
G01*
X116675000Y-80325000D01*
G75*
G02*
X116875000Y-80525000I0J-200000D01*
G01*
G37*
%TD.AperFunction*%
%TA.AperFunction,SMDPad,CuDef*%
G36*
G01*
X118525000Y-80525000D02*
X118525000Y-81075000D01*
G75*
G02*
X118325000Y-81275000I-200000J0D01*
G01*
X117925000Y-81275000D01*
G75*
G02*
X117725000Y-81075000I0J200000D01*
G01*
X117725000Y-80525000D01*
G75*
G02*
X117925000Y-80325000I200000J0D01*
G01*
X118325000Y-80325000D01*
G75*
G02*
X118525000Y-80525000I0J-200000D01*
G01*
G37*
%TD.AperFunction*%
%TA.AperFunction,SMDPad,CuDef*%
G36*
G01*
X107375000Y-95875000D02*
X106825000Y-95875000D01*
G75*
G02*
X106625000Y-95675000I0J200000D01*
G01*
X106625000Y-95275000D01*
G75*
G02*
X106825000Y-95075000I200000J0D01*
G01*
X107375000Y-95075000D01*
G75*
G02*
X107575000Y-95275000I0J-200000D01*
G01*
X107575000Y-95675000D01*
G75*
G02*
X107375000Y-95875000I-200000J0D01*
G01*
G37*
%TD.AperFunction*%
%TA.AperFunction,SMDPad,CuDef*%
G36*
G01*
X107375000Y-97525000D02*
X106825000Y-97525000D01*
G75*
G02*
X106625000Y-97325000I0J200000D01*
G01*
X106625000Y-96925000D01*
G75*
G02*
X106825000Y-96725000I200000J0D01*
G01*
X107375000Y-96725000D01*
G75*
G02*
X107575000Y-96925000I0J-200000D01*
G01*
X107575000Y-97325000D01*
G75*
G02*
X107375000Y-97525000I-200000J0D01*
G01*
G37*
%TD.AperFunction*%
%TA.AperFunction,SMDPad,CuDef*%
G36*
G01*
X110375000Y-82525000D02*
X110375000Y-83075000D01*
G75*
G02*
X110175000Y-83275000I-200000J0D01*
G01*
X109775000Y-83275000D01*
G75*
G02*
X109575000Y-83075000I0J200000D01*
G01*
X109575000Y-82525000D01*
G75*
G02*
X109775000Y-82325000I200000J0D01*
G01*
X110175000Y-82325000D01*
G75*
G02*
X110375000Y-82525000I0J-200000D01*
G01*
G37*
%TD.AperFunction*%
%TA.AperFunction,SMDPad,CuDef*%
G36*
G01*
X112025000Y-82525000D02*
X112025000Y-83075000D01*
G75*
G02*
X111825000Y-83275000I-200000J0D01*
G01*
X111425000Y-83275000D01*
G75*
G02*
X111225000Y-83075000I0J200000D01*
G01*
X111225000Y-82525000D01*
G75*
G02*
X111425000Y-82325000I200000J0D01*
G01*
X111825000Y-82325000D01*
G75*
G02*
X112025000Y-82525000I0J-200000D01*
G01*
G37*
%TD.AperFunction*%
%TA.AperFunction,SMDPad,CuDef*%
G36*
G01*
X106875000Y-82525000D02*
X106875000Y-83075000D01*
G75*
G02*
X106675000Y-83275000I-200000J0D01*
G01*
X106275000Y-83275000D01*
G75*
G02*
X106075000Y-83075000I0J200000D01*
G01*
X106075000Y-82525000D01*
G75*
G02*
X106275000Y-82325000I200000J0D01*
G01*
X106675000Y-82325000D01*
G75*
G02*
X106875000Y-82525000I0J-200000D01*
G01*
G37*
%TD.AperFunction*%
%TA.AperFunction,SMDPad,CuDef*%
G36*
G01*
X108525000Y-82525000D02*
X108525000Y-83075000D01*
G75*
G02*
X108325000Y-83275000I-200000J0D01*
G01*
X107925000Y-83275000D01*
G75*
G02*
X107725000Y-83075000I0J200000D01*
G01*
X107725000Y-82525000D01*
G75*
G02*
X107925000Y-82325000I200000J0D01*
G01*
X108325000Y-82325000D01*
G75*
G02*
X108525000Y-82525000I0J-200000D01*
G01*
G37*
%TD.AperFunction*%
%TA.AperFunction,SMDPad,CuDef*%
G36*
G01*
X106875000Y-80525000D02*
X106875000Y-81075000D01*
G75*
G02*
X106675000Y-81275000I-200000J0D01*
G01*
X106275000Y-81275000D01*
G75*
G02*
X106075000Y-81075000I0J200000D01*
G01*
X106075000Y-80525000D01*
G75*
G02*
X106275000Y-80325000I200000J0D01*
G01*
X106675000Y-80325000D01*
G75*
G02*
X106875000Y-80525000I0J-200000D01*
G01*
G37*
%TD.AperFunction*%
%TA.AperFunction,SMDPad,CuDef*%
G36*
G01*
X108525000Y-80525000D02*
X108525000Y-81075000D01*
G75*
G02*
X108325000Y-81275000I-200000J0D01*
G01*
X107925000Y-81275000D01*
G75*
G02*
X107725000Y-81075000I0J200000D01*
G01*
X107725000Y-80525000D01*
G75*
G02*
X107925000Y-80325000I200000J0D01*
G01*
X108325000Y-80325000D01*
G75*
G02*
X108525000Y-80525000I0J-200000D01*
G01*
G37*
%TD.AperFunction*%
%TA.AperFunction,SMDPad,CuDef*%
G36*
G01*
X104175000Y-95875000D02*
X103625000Y-95875000D01*
G75*
G02*
X103425000Y-95675000I0J200000D01*
G01*
X103425000Y-95275000D01*
G75*
G02*
X103625000Y-95075000I200000J0D01*
G01*
X104175000Y-95075000D01*
G75*
G02*
X104375000Y-95275000I0J-200000D01*
G01*
X104375000Y-95675000D01*
G75*
G02*
X104175000Y-95875000I-200000J0D01*
G01*
G37*
%TD.AperFunction*%
%TA.AperFunction,SMDPad,CuDef*%
G36*
G01*
X104175000Y-97525000D02*
X103625000Y-97525000D01*
G75*
G02*
X103425000Y-97325000I0J200000D01*
G01*
X103425000Y-96925000D01*
G75*
G02*
X103625000Y-96725000I200000J0D01*
G01*
X104175000Y-96725000D01*
G75*
G02*
X104375000Y-96925000I0J-200000D01*
G01*
X104375000Y-97325000D01*
G75*
G02*
X104175000Y-97525000I-200000J0D01*
G01*
G37*
%TD.AperFunction*%
%TA.AperFunction,SMDPad,CuDef*%
G36*
G01*
X100375000Y-82525000D02*
X100375000Y-83075000D01*
G75*
G02*
X100175000Y-83275000I-200000J0D01*
G01*
X99775000Y-83275000D01*
G75*
G02*
X99575000Y-83075000I0J200000D01*
G01*
X99575000Y-82525000D01*
G75*
G02*
X99775000Y-82325000I200000J0D01*
G01*
X100175000Y-82325000D01*
G75*
G02*
X100375000Y-82525000I0J-200000D01*
G01*
G37*
%TD.AperFunction*%
%TA.AperFunction,SMDPad,CuDef*%
G36*
G01*
X102025000Y-82525000D02*
X102025000Y-83075000D01*
G75*
G02*
X101825000Y-83275000I-200000J0D01*
G01*
X101425000Y-83275000D01*
G75*
G02*
X101225000Y-83075000I0J200000D01*
G01*
X101225000Y-82525000D01*
G75*
G02*
X101425000Y-82325000I200000J0D01*
G01*
X101825000Y-82325000D01*
G75*
G02*
X102025000Y-82525000I0J-200000D01*
G01*
G37*
%TD.AperFunction*%
%TA.AperFunction,SMDPad,CuDef*%
G36*
G01*
X96875000Y-80525000D02*
X96875000Y-81075000D01*
G75*
G02*
X96675000Y-81275000I-200000J0D01*
G01*
X96275000Y-81275000D01*
G75*
G02*
X96075000Y-81075000I0J200000D01*
G01*
X96075000Y-80525000D01*
G75*
G02*
X96275000Y-80325000I200000J0D01*
G01*
X96675000Y-80325000D01*
G75*
G02*
X96875000Y-80525000I0J-200000D01*
G01*
G37*
%TD.AperFunction*%
%TA.AperFunction,SMDPad,CuDef*%
G36*
G01*
X98525000Y-80525000D02*
X98525000Y-81075000D01*
G75*
G02*
X98325000Y-81275000I-200000J0D01*
G01*
X97925000Y-81275000D01*
G75*
G02*
X97725000Y-81075000I0J200000D01*
G01*
X97725000Y-80525000D01*
G75*
G02*
X97925000Y-80325000I200000J0D01*
G01*
X98325000Y-80325000D01*
G75*
G02*
X98525000Y-80525000I0J-200000D01*
G01*
G37*
%TD.AperFunction*%
%TA.AperFunction,SMDPad,CuDef*%
G36*
G01*
X100975000Y-95875000D02*
X100425000Y-95875000D01*
G75*
G02*
X100225000Y-95675000I0J200000D01*
G01*
X100225000Y-95275000D01*
G75*
G02*
X100425000Y-95075000I200000J0D01*
G01*
X100975000Y-95075000D01*
G75*
G02*
X101175000Y-95275000I0J-200000D01*
G01*
X101175000Y-95675000D01*
G75*
G02*
X100975000Y-95875000I-200000J0D01*
G01*
G37*
%TD.AperFunction*%
%TA.AperFunction,SMDPad,CuDef*%
G36*
G01*
X100975000Y-97525000D02*
X100425000Y-97525000D01*
G75*
G02*
X100225000Y-97325000I0J200000D01*
G01*
X100225000Y-96925000D01*
G75*
G02*
X100425000Y-96725000I200000J0D01*
G01*
X100975000Y-96725000D01*
G75*
G02*
X101175000Y-96925000I0J-200000D01*
G01*
X101175000Y-97325000D01*
G75*
G02*
X100975000Y-97525000I-200000J0D01*
G01*
G37*
%TD.AperFunction*%
%TA.AperFunction,SMDPad,CuDef*%
G36*
G01*
X86875000Y-82525000D02*
X86875000Y-83075000D01*
G75*
G02*
X86675000Y-83275000I-200000J0D01*
G01*
X86275000Y-83275000D01*
G75*
G02*
X86075000Y-83075000I0J200000D01*
G01*
X86075000Y-82525000D01*
G75*
G02*
X86275000Y-82325000I200000J0D01*
G01*
X86675000Y-82325000D01*
G75*
G02*
X86875000Y-82525000I0J-200000D01*
G01*
G37*
%TD.AperFunction*%
%TA.AperFunction,SMDPad,CuDef*%
G36*
G01*
X88525000Y-82525000D02*
X88525000Y-83075000D01*
G75*
G02*
X88325000Y-83275000I-200000J0D01*
G01*
X87925000Y-83275000D01*
G75*
G02*
X87725000Y-83075000I0J200000D01*
G01*
X87725000Y-82525000D01*
G75*
G02*
X87925000Y-82325000I200000J0D01*
G01*
X88325000Y-82325000D01*
G75*
G02*
X88525000Y-82525000I0J-200000D01*
G01*
G37*
%TD.AperFunction*%
%TA.AperFunction,SMDPad,CuDef*%
G36*
G01*
X86875000Y-80525000D02*
X86875000Y-81075000D01*
G75*
G02*
X86675000Y-81275000I-200000J0D01*
G01*
X86275000Y-81275000D01*
G75*
G02*
X86075000Y-81075000I0J200000D01*
G01*
X86075000Y-80525000D01*
G75*
G02*
X86275000Y-80325000I200000J0D01*
G01*
X86675000Y-80325000D01*
G75*
G02*
X86875000Y-80525000I0J-200000D01*
G01*
G37*
%TD.AperFunction*%
%TA.AperFunction,SMDPad,CuDef*%
G36*
G01*
X88525000Y-80525000D02*
X88525000Y-81075000D01*
G75*
G02*
X88325000Y-81275000I-200000J0D01*
G01*
X87925000Y-81275000D01*
G75*
G02*
X87725000Y-81075000I0J200000D01*
G01*
X87725000Y-80525000D01*
G75*
G02*
X87925000Y-80325000I200000J0D01*
G01*
X88325000Y-80325000D01*
G75*
G02*
X88525000Y-80525000I0J-200000D01*
G01*
G37*
%TD.AperFunction*%
%TA.AperFunction,SMDPad,CuDef*%
G36*
G01*
X97775000Y-95875000D02*
X97225000Y-95875000D01*
G75*
G02*
X97025000Y-95675000I0J200000D01*
G01*
X97025000Y-95275000D01*
G75*
G02*
X97225000Y-95075000I200000J0D01*
G01*
X97775000Y-95075000D01*
G75*
G02*
X97975000Y-95275000I0J-200000D01*
G01*
X97975000Y-95675000D01*
G75*
G02*
X97775000Y-95875000I-200000J0D01*
G01*
G37*
%TD.AperFunction*%
%TA.AperFunction,SMDPad,CuDef*%
G36*
G01*
X97775000Y-97525000D02*
X97225000Y-97525000D01*
G75*
G02*
X97025000Y-97325000I0J200000D01*
G01*
X97025000Y-96925000D01*
G75*
G02*
X97225000Y-96725000I200000J0D01*
G01*
X97775000Y-96725000D01*
G75*
G02*
X97975000Y-96925000I0J-200000D01*
G01*
X97975000Y-97325000D01*
G75*
G02*
X97775000Y-97525000I-200000J0D01*
G01*
G37*
%TD.AperFunction*%
%TA.AperFunction,SMDPad,CuDef*%
G36*
G01*
X80375000Y-82525000D02*
X80375000Y-83075000D01*
G75*
G02*
X80175000Y-83275000I-200000J0D01*
G01*
X79775000Y-83275000D01*
G75*
G02*
X79575000Y-83075000I0J200000D01*
G01*
X79575000Y-82525000D01*
G75*
G02*
X79775000Y-82325000I200000J0D01*
G01*
X80175000Y-82325000D01*
G75*
G02*
X80375000Y-82525000I0J-200000D01*
G01*
G37*
%TD.AperFunction*%
%TA.AperFunction,SMDPad,CuDef*%
G36*
G01*
X82025000Y-82525000D02*
X82025000Y-83075000D01*
G75*
G02*
X81825000Y-83275000I-200000J0D01*
G01*
X81425000Y-83275000D01*
G75*
G02*
X81225000Y-83075000I0J200000D01*
G01*
X81225000Y-82525000D01*
G75*
G02*
X81425000Y-82325000I200000J0D01*
G01*
X81825000Y-82325000D01*
G75*
G02*
X82025000Y-82525000I0J-200000D01*
G01*
G37*
%TD.AperFunction*%
%TA.AperFunction,SMDPad,CuDef*%
G36*
G01*
X77075000Y-82525000D02*
X77075000Y-83075000D01*
G75*
G02*
X76875000Y-83275000I-200000J0D01*
G01*
X76475000Y-83275000D01*
G75*
G02*
X76275000Y-83075000I0J200000D01*
G01*
X76275000Y-82525000D01*
G75*
G02*
X76475000Y-82325000I200000J0D01*
G01*
X76875000Y-82325000D01*
G75*
G02*
X77075000Y-82525000I0J-200000D01*
G01*
G37*
%TD.AperFunction*%
%TA.AperFunction,SMDPad,CuDef*%
G36*
G01*
X78725000Y-82525000D02*
X78725000Y-83075000D01*
G75*
G02*
X78525000Y-83275000I-200000J0D01*
G01*
X78125000Y-83275000D01*
G75*
G02*
X77925000Y-83075000I0J200000D01*
G01*
X77925000Y-82525000D01*
G75*
G02*
X78125000Y-82325000I200000J0D01*
G01*
X78525000Y-82325000D01*
G75*
G02*
X78725000Y-82525000I0J-200000D01*
G01*
G37*
%TD.AperFunction*%
%TA.AperFunction,SMDPad,CuDef*%
G36*
G01*
X77075000Y-80525000D02*
X77075000Y-81075000D01*
G75*
G02*
X76875000Y-81275000I-200000J0D01*
G01*
X76475000Y-81275000D01*
G75*
G02*
X76275000Y-81075000I0J200000D01*
G01*
X76275000Y-80525000D01*
G75*
G02*
X76475000Y-80325000I200000J0D01*
G01*
X76875000Y-80325000D01*
G75*
G02*
X77075000Y-80525000I0J-200000D01*
G01*
G37*
%TD.AperFunction*%
%TA.AperFunction,SMDPad,CuDef*%
G36*
G01*
X78725000Y-80525000D02*
X78725000Y-81075000D01*
G75*
G02*
X78525000Y-81275000I-200000J0D01*
G01*
X78125000Y-81275000D01*
G75*
G02*
X77925000Y-81075000I0J200000D01*
G01*
X77925000Y-80525000D01*
G75*
G02*
X78125000Y-80325000I200000J0D01*
G01*
X78525000Y-80325000D01*
G75*
G02*
X78725000Y-80525000I0J-200000D01*
G01*
G37*
%TD.AperFunction*%
%TA.AperFunction,SMDPad,CuDef*%
G36*
G01*
X94575000Y-95875000D02*
X94025000Y-95875000D01*
G75*
G02*
X93825000Y-95675000I0J200000D01*
G01*
X93825000Y-95275000D01*
G75*
G02*
X94025000Y-95075000I200000J0D01*
G01*
X94575000Y-95075000D01*
G75*
G02*
X94775000Y-95275000I0J-200000D01*
G01*
X94775000Y-95675000D01*
G75*
G02*
X94575000Y-95875000I-200000J0D01*
G01*
G37*
%TD.AperFunction*%
%TA.AperFunction,SMDPad,CuDef*%
G36*
G01*
X94575000Y-97525000D02*
X94025000Y-97525000D01*
G75*
G02*
X93825000Y-97325000I0J200000D01*
G01*
X93825000Y-96925000D01*
G75*
G02*
X94025000Y-96725000I200000J0D01*
G01*
X94575000Y-96725000D01*
G75*
G02*
X94775000Y-96925000I0J-200000D01*
G01*
X94775000Y-97325000D01*
G75*
G02*
X94575000Y-97525000I-200000J0D01*
G01*
G37*
%TD.AperFunction*%
%TA.AperFunction,SMDPad,CuDef*%
G36*
G01*
X70025000Y-127075000D02*
X70025000Y-126525000D01*
G75*
G02*
X70225000Y-126325000I200000J0D01*
G01*
X70625000Y-126325000D01*
G75*
G02*
X70825000Y-126525000I0J-200000D01*
G01*
X70825000Y-127075000D01*
G75*
G02*
X70625000Y-127275000I-200000J0D01*
G01*
X70225000Y-127275000D01*
G75*
G02*
X70025000Y-127075000I0J200000D01*
G01*
G37*
%TD.AperFunction*%
%TA.AperFunction,SMDPad,CuDef*%
G36*
G01*
X68375000Y-127075000D02*
X68375000Y-126525000D01*
G75*
G02*
X68575000Y-126325000I200000J0D01*
G01*
X68975000Y-126325000D01*
G75*
G02*
X69175000Y-126525000I0J-200000D01*
G01*
X69175000Y-127075000D01*
G75*
G02*
X68975000Y-127275000I-200000J0D01*
G01*
X68575000Y-127275000D01*
G75*
G02*
X68375000Y-127075000I0J200000D01*
G01*
G37*
%TD.AperFunction*%
%TA.AperFunction,SMDPad,CuDef*%
G36*
G01*
X70025000Y-129625000D02*
X70025000Y-129075000D01*
G75*
G02*
X70225000Y-128875000I200000J0D01*
G01*
X70625000Y-128875000D01*
G75*
G02*
X70825000Y-129075000I0J-200000D01*
G01*
X70825000Y-129625000D01*
G75*
G02*
X70625000Y-129825000I-200000J0D01*
G01*
X70225000Y-129825000D01*
G75*
G02*
X70025000Y-129625000I0J200000D01*
G01*
G37*
%TD.AperFunction*%
%TA.AperFunction,SMDPad,CuDef*%
G36*
G01*
X68375000Y-129625000D02*
X68375000Y-129075000D01*
G75*
G02*
X68575000Y-128875000I200000J0D01*
G01*
X68975000Y-128875000D01*
G75*
G02*
X69175000Y-129075000I0J-200000D01*
G01*
X69175000Y-129625000D01*
G75*
G02*
X68975000Y-129825000I-200000J0D01*
G01*
X68575000Y-129825000D01*
G75*
G02*
X68375000Y-129625000I0J200000D01*
G01*
G37*
%TD.AperFunction*%
%TA.AperFunction,SMDPad,CuDef*%
G36*
G01*
X116125000Y-113075000D02*
X116125000Y-112525000D01*
G75*
G02*
X116325000Y-112325000I200000J0D01*
G01*
X116725000Y-112325000D01*
G75*
G02*
X116925000Y-112525000I0J-200000D01*
G01*
X116925000Y-113075000D01*
G75*
G02*
X116725000Y-113275000I-200000J0D01*
G01*
X116325000Y-113275000D01*
G75*
G02*
X116125000Y-113075000I0J200000D01*
G01*
G37*
%TD.AperFunction*%
%TA.AperFunction,SMDPad,CuDef*%
G36*
G01*
X114475000Y-113075000D02*
X114475000Y-112525000D01*
G75*
G02*
X114675000Y-112325000I200000J0D01*
G01*
X115075000Y-112325000D01*
G75*
G02*
X115275000Y-112525000I0J-200000D01*
G01*
X115275000Y-113075000D01*
G75*
G02*
X115075000Y-113275000I-200000J0D01*
G01*
X114675000Y-113275000D01*
G75*
G02*
X114475000Y-113075000I0J200000D01*
G01*
G37*
%TD.AperFunction*%
%TA.AperFunction,SMDPad,CuDef*%
G36*
G01*
X116125000Y-115575000D02*
X116125000Y-115025000D01*
G75*
G02*
X116325000Y-114825000I200000J0D01*
G01*
X116725000Y-114825000D01*
G75*
G02*
X116925000Y-115025000I0J-200000D01*
G01*
X116925000Y-115575000D01*
G75*
G02*
X116725000Y-115775000I-200000J0D01*
G01*
X116325000Y-115775000D01*
G75*
G02*
X116125000Y-115575000I0J200000D01*
G01*
G37*
%TD.AperFunction*%
%TA.AperFunction,SMDPad,CuDef*%
G36*
G01*
X114475000Y-115575000D02*
X114475000Y-115025000D01*
G75*
G02*
X114675000Y-114825000I200000J0D01*
G01*
X115075000Y-114825000D01*
G75*
G02*
X115275000Y-115025000I0J-200000D01*
G01*
X115275000Y-115575000D01*
G75*
G02*
X115075000Y-115775000I-200000J0D01*
G01*
X114675000Y-115775000D01*
G75*
G02*
X114475000Y-115575000I0J200000D01*
G01*
G37*
%TD.AperFunction*%
%TA.AperFunction,SMDPad,CuDef*%
G36*
G01*
X141875000Y-111025000D02*
X141875000Y-111575000D01*
G75*
G02*
X141675000Y-111775000I-200000J0D01*
G01*
X141275000Y-111775000D01*
G75*
G02*
X141075000Y-111575000I0J200000D01*
G01*
X141075000Y-111025000D01*
G75*
G02*
X141275000Y-110825000I200000J0D01*
G01*
X141675000Y-110825000D01*
G75*
G02*
X141875000Y-111025000I0J-200000D01*
G01*
G37*
%TD.AperFunction*%
%TA.AperFunction,SMDPad,CuDef*%
G36*
G01*
X143525000Y-111025000D02*
X143525000Y-111575000D01*
G75*
G02*
X143325000Y-111775000I-200000J0D01*
G01*
X142925000Y-111775000D01*
G75*
G02*
X142725000Y-111575000I0J200000D01*
G01*
X142725000Y-111025000D01*
G75*
G02*
X142925000Y-110825000I200000J0D01*
G01*
X143325000Y-110825000D01*
G75*
G02*
X143525000Y-111025000I0J-200000D01*
G01*
G37*
%TD.AperFunction*%
%TA.AperFunction,SMDPad,CuDef*%
G36*
G01*
X140275000Y-64075000D02*
X139725000Y-64075000D01*
G75*
G02*
X139525000Y-63875000I0J200000D01*
G01*
X139525000Y-63475000D01*
G75*
G02*
X139725000Y-63275000I200000J0D01*
G01*
X140275000Y-63275000D01*
G75*
G02*
X140475000Y-63475000I0J-200000D01*
G01*
X140475000Y-63875000D01*
G75*
G02*
X140275000Y-64075000I-200000J0D01*
G01*
G37*
%TD.AperFunction*%
%TA.AperFunction,SMDPad,CuDef*%
G36*
G01*
X140275000Y-65725000D02*
X139725000Y-65725000D01*
G75*
G02*
X139525000Y-65525000I0J200000D01*
G01*
X139525000Y-65125000D01*
G75*
G02*
X139725000Y-64925000I200000J0D01*
G01*
X140275000Y-64925000D01*
G75*
G02*
X140475000Y-65125000I0J-200000D01*
G01*
X140475000Y-65525000D01*
G75*
G02*
X140275000Y-65725000I-200000J0D01*
G01*
G37*
%TD.AperFunction*%
%TA.AperFunction,SMDPad,CuDef*%
G36*
G01*
X130275000Y-64075000D02*
X129725000Y-64075000D01*
G75*
G02*
X129525000Y-63875000I0J200000D01*
G01*
X129525000Y-63475000D01*
G75*
G02*
X129725000Y-63275000I200000J0D01*
G01*
X130275000Y-63275000D01*
G75*
G02*
X130475000Y-63475000I0J-200000D01*
G01*
X130475000Y-63875000D01*
G75*
G02*
X130275000Y-64075000I-200000J0D01*
G01*
G37*
%TD.AperFunction*%
%TA.AperFunction,SMDPad,CuDef*%
G36*
G01*
X130275000Y-65725000D02*
X129725000Y-65725000D01*
G75*
G02*
X129525000Y-65525000I0J200000D01*
G01*
X129525000Y-65125000D01*
G75*
G02*
X129725000Y-64925000I200000J0D01*
G01*
X130275000Y-64925000D01*
G75*
G02*
X130475000Y-65125000I0J-200000D01*
G01*
X130475000Y-65525000D01*
G75*
G02*
X130275000Y-65725000I-200000J0D01*
G01*
G37*
%TD.AperFunction*%
D13*
X157200000Y-102500000D03*
X155200000Y-103450000D03*
X155200000Y-101550000D03*
X157200000Y-98700000D03*
X155200000Y-99650000D03*
X155200000Y-97750000D03*
D30*
X144300000Y-106700000D03*
X145250000Y-108700000D03*
X143350000Y-108700000D03*
D20*
X119300000Y-77943500D03*
X117014000Y-77943500D03*
X121586000Y-77943500D03*
D21*
X119300000Y-70844200D03*
D20*
X109300000Y-77943500D03*
X107014000Y-77943500D03*
X111586000Y-77943500D03*
D21*
X109300000Y-70844200D03*
D20*
X89300000Y-77943500D03*
X87014000Y-77943500D03*
X91586000Y-77943500D03*
D21*
X89300000Y-70844200D03*
%TA.AperFunction,SMDPad,CuDef*%
G36*
G01*
X121150000Y-81056250D02*
X121150000Y-80543750D01*
G75*
G02*
X121368750Y-80325000I218750J0D01*
G01*
X121806250Y-80325000D01*
G75*
G02*
X122025000Y-80543750I0J-218750D01*
G01*
X122025000Y-81056250D01*
G75*
G02*
X121806250Y-81275000I-218750J0D01*
G01*
X121368750Y-81275000D01*
G75*
G02*
X121150000Y-81056250I0J218750D01*
G01*
G37*
%TD.AperFunction*%
%TA.AperFunction,SMDPad,CuDef*%
G36*
G01*
X119575000Y-81056250D02*
X119575000Y-80543750D01*
G75*
G02*
X119793750Y-80325000I218750J0D01*
G01*
X120231250Y-80325000D01*
G75*
G02*
X120450000Y-80543750I0J-218750D01*
G01*
X120450000Y-81056250D01*
G75*
G02*
X120231250Y-81275000I-218750J0D01*
G01*
X119793750Y-81275000D01*
G75*
G02*
X119575000Y-81056250I0J218750D01*
G01*
G37*
%TD.AperFunction*%
D31*
X117150000Y-63000000D03*
X121450000Y-63000000D03*
%TA.AperFunction,SMDPad,CuDef*%
G36*
G01*
X111150000Y-81056250D02*
X111150000Y-80543750D01*
G75*
G02*
X111368750Y-80325000I218750J0D01*
G01*
X111806250Y-80325000D01*
G75*
G02*
X112025000Y-80543750I0J-218750D01*
G01*
X112025000Y-81056250D01*
G75*
G02*
X111806250Y-81275000I-218750J0D01*
G01*
X111368750Y-81275000D01*
G75*
G02*
X111150000Y-81056250I0J218750D01*
G01*
G37*
%TD.AperFunction*%
%TA.AperFunction,SMDPad,CuDef*%
G36*
G01*
X109575000Y-81056250D02*
X109575000Y-80543750D01*
G75*
G02*
X109793750Y-80325000I218750J0D01*
G01*
X110231250Y-80325000D01*
G75*
G02*
X110450000Y-80543750I0J-218750D01*
G01*
X110450000Y-81056250D01*
G75*
G02*
X110231250Y-81275000I-218750J0D01*
G01*
X109793750Y-81275000D01*
G75*
G02*
X109575000Y-81056250I0J218750D01*
G01*
G37*
%TD.AperFunction*%
X107150000Y-63000000D03*
X111450000Y-63000000D03*
%TA.AperFunction,SMDPad,CuDef*%
G36*
G01*
X101150000Y-81056250D02*
X101150000Y-80543750D01*
G75*
G02*
X101368750Y-80325000I218750J0D01*
G01*
X101806250Y-80325000D01*
G75*
G02*
X102025000Y-80543750I0J-218750D01*
G01*
X102025000Y-81056250D01*
G75*
G02*
X101806250Y-81275000I-218750J0D01*
G01*
X101368750Y-81275000D01*
G75*
G02*
X101150000Y-81056250I0J218750D01*
G01*
G37*
%TD.AperFunction*%
%TA.AperFunction,SMDPad,CuDef*%
G36*
G01*
X99575000Y-81056250D02*
X99575000Y-80543750D01*
G75*
G02*
X99793750Y-80325000I218750J0D01*
G01*
X100231250Y-80325000D01*
G75*
G02*
X100450000Y-80543750I0J-218750D01*
G01*
X100450000Y-81056250D01*
G75*
G02*
X100231250Y-81275000I-218750J0D01*
G01*
X99793750Y-81275000D01*
G75*
G02*
X99575000Y-81056250I0J218750D01*
G01*
G37*
%TD.AperFunction*%
X97150000Y-63000000D03*
X101450000Y-63000000D03*
%TA.AperFunction,SMDPad,CuDef*%
G36*
G01*
X91150000Y-81056250D02*
X91150000Y-80543750D01*
G75*
G02*
X91368750Y-80325000I218750J0D01*
G01*
X91806250Y-80325000D01*
G75*
G02*
X92025000Y-80543750I0J-218750D01*
G01*
X92025000Y-81056250D01*
G75*
G02*
X91806250Y-81275000I-218750J0D01*
G01*
X91368750Y-81275000D01*
G75*
G02*
X91150000Y-81056250I0J218750D01*
G01*
G37*
%TD.AperFunction*%
%TA.AperFunction,SMDPad,CuDef*%
G36*
G01*
X89575000Y-81056250D02*
X89575000Y-80543750D01*
G75*
G02*
X89793750Y-80325000I218750J0D01*
G01*
X90231250Y-80325000D01*
G75*
G02*
X90450000Y-80543750I0J-218750D01*
G01*
X90450000Y-81056250D01*
G75*
G02*
X90231250Y-81275000I-218750J0D01*
G01*
X89793750Y-81275000D01*
G75*
G02*
X89575000Y-81056250I0J218750D01*
G01*
G37*
%TD.AperFunction*%
%TA.AperFunction,SMDPad,CuDef*%
G36*
G01*
X81150000Y-81056250D02*
X81150000Y-80543750D01*
G75*
G02*
X81368750Y-80325000I218750J0D01*
G01*
X81806250Y-80325000D01*
G75*
G02*
X82025000Y-80543750I0J-218750D01*
G01*
X82025000Y-81056250D01*
G75*
G02*
X81806250Y-81275000I-218750J0D01*
G01*
X81368750Y-81275000D01*
G75*
G02*
X81150000Y-81056250I0J218750D01*
G01*
G37*
%TD.AperFunction*%
%TA.AperFunction,SMDPad,CuDef*%
G36*
G01*
X79575000Y-81056250D02*
X79575000Y-80543750D01*
G75*
G02*
X79793750Y-80325000I218750J0D01*
G01*
X80231250Y-80325000D01*
G75*
G02*
X80450000Y-80543750I0J-218750D01*
G01*
X80450000Y-81056250D01*
G75*
G02*
X80231250Y-81275000I-218750J0D01*
G01*
X79793750Y-81275000D01*
G75*
G02*
X79575000Y-81056250I0J218750D01*
G01*
G37*
%TD.AperFunction*%
X77150000Y-63000000D03*
X81450000Y-63000000D03*
X87150000Y-63000000D03*
X91450000Y-63000000D03*
D18*
X154000000Y-65500000D03*
%TA.AperFunction,ComponentPad*%
G36*
G01*
X153250000Y-62150000D02*
X154750000Y-62150000D01*
G75*
G02*
X155000000Y-62400000I0J-250000D01*
G01*
X155000000Y-63600000D01*
G75*
G02*
X154750000Y-63850000I-250000J0D01*
G01*
X153250000Y-63850000D01*
G75*
G02*
X153000000Y-63600000I0J250000D01*
G01*
X153000000Y-62400000D01*
G75*
G02*
X153250000Y-62150000I250000J0D01*
G01*
G37*
%TD.AperFunction*%
X144000000Y-65500000D03*
%TA.AperFunction,ComponentPad*%
G36*
G01*
X143250000Y-62150000D02*
X144750000Y-62150000D01*
G75*
G02*
X145000000Y-62400000I0J-250000D01*
G01*
X145000000Y-63600000D01*
G75*
G02*
X144750000Y-63850000I-250000J0D01*
G01*
X143250000Y-63850000D01*
G75*
G02*
X143000000Y-63600000I0J250000D01*
G01*
X143000000Y-62400000D01*
G75*
G02*
X143250000Y-62150000I250000J0D01*
G01*
G37*
%TD.AperFunction*%
X134000000Y-65500000D03*
%TA.AperFunction,ComponentPad*%
G36*
G01*
X133250000Y-62150000D02*
X134750000Y-62150000D01*
G75*
G02*
X135000000Y-62400000I0J-250000D01*
G01*
X135000000Y-63600000D01*
G75*
G02*
X134750000Y-63850000I-250000J0D01*
G01*
X133250000Y-63850000D01*
G75*
G02*
X133000000Y-63600000I0J250000D01*
G01*
X133000000Y-62400000D01*
G75*
G02*
X133250000Y-62150000I250000J0D01*
G01*
G37*
%TD.AperFunction*%
D32*
X83000000Y-124270000D03*
X83000000Y-121730000D03*
X83000000Y-119190000D03*
X83000000Y-116650000D03*
X83000000Y-114110000D03*
X83000000Y-111570000D03*
X83000000Y-126810000D03*
X83000000Y-129350000D03*
X83000000Y-131890000D03*
X83000000Y-134430000D03*
D33*
X70554000Y-134430000D03*
X70554000Y-111570000D03*
D18*
X87250000Y-110250000D03*
%TA.AperFunction,ComponentPad*%
G36*
G01*
X88000000Y-113600000D02*
X86500000Y-113600000D01*
G75*
G02*
X86250000Y-113350000I0J250000D01*
G01*
X86250000Y-112150000D01*
G75*
G02*
X86500000Y-111900000I250000J0D01*
G01*
X88000000Y-111900000D01*
G75*
G02*
X88250000Y-112150000I0J-250000D01*
G01*
X88250000Y-113350000D01*
G75*
G02*
X88000000Y-113600000I-250000J0D01*
G01*
G37*
%TD.AperFunction*%
D22*
X154000000Y-80500000D03*
X154000000Y-78000000D03*
X154000000Y-75500000D03*
%TA.AperFunction,ComponentPad*%
G36*
G01*
X153275000Y-72150000D02*
X154725000Y-72150000D01*
G75*
G02*
X154975000Y-72400000I0J-250000D01*
G01*
X154975000Y-73600000D01*
G75*
G02*
X154725000Y-73850000I-250000J0D01*
G01*
X153275000Y-73850000D01*
G75*
G02*
X153025000Y-73600000I0J250000D01*
G01*
X153025000Y-72400000D01*
G75*
G02*
X153275000Y-72150000I250000J0D01*
G01*
G37*
%TD.AperFunction*%
X164000000Y-80500000D03*
X164000000Y-78000000D03*
X164000000Y-75500000D03*
%TA.AperFunction,ComponentPad*%
G36*
G01*
X163275000Y-72150000D02*
X164725000Y-72150000D01*
G75*
G02*
X164975000Y-72400000I0J-250000D01*
G01*
X164975000Y-73600000D01*
G75*
G02*
X164725000Y-73850000I-250000J0D01*
G01*
X163275000Y-73850000D01*
G75*
G02*
X163025000Y-73600000I0J250000D01*
G01*
X163025000Y-72400000D01*
G75*
G02*
X163275000Y-72150000I250000J0D01*
G01*
G37*
%TD.AperFunction*%
X144000000Y-80500000D03*
X144000000Y-78000000D03*
X144000000Y-75500000D03*
%TA.AperFunction,ComponentPad*%
G36*
G01*
X143275000Y-72150000D02*
X144725000Y-72150000D01*
G75*
G02*
X144975000Y-72400000I0J-250000D01*
G01*
X144975000Y-73600000D01*
G75*
G02*
X144725000Y-73850000I-250000J0D01*
G01*
X143275000Y-73850000D01*
G75*
G02*
X143025000Y-73600000I0J250000D01*
G01*
X143025000Y-72400000D01*
G75*
G02*
X143275000Y-72150000I250000J0D01*
G01*
G37*
%TD.AperFunction*%
X164000000Y-58000000D03*
X164000000Y-55500000D03*
%TA.AperFunction,ComponentPad*%
G36*
G01*
X163275000Y-52150000D02*
X164725000Y-52150000D01*
G75*
G02*
X164975000Y-52400000I0J-250000D01*
G01*
X164975000Y-53600000D01*
G75*
G02*
X164725000Y-53850000I-250000J0D01*
G01*
X163275000Y-53850000D01*
G75*
G02*
X163025000Y-53600000I0J250000D01*
G01*
X163025000Y-52400000D01*
G75*
G02*
X163275000Y-52150000I250000J0D01*
G01*
G37*
%TD.AperFunction*%
%TA.AperFunction,SMDPad,CuDef*%
G36*
G01*
X141975000Y-113050000D02*
X141975000Y-113550000D01*
G75*
G02*
X141750000Y-113775000I-225000J0D01*
G01*
X141300000Y-113775000D01*
G75*
G02*
X141075000Y-113550000I0J225000D01*
G01*
X141075000Y-113050000D01*
G75*
G02*
X141300000Y-112825000I225000J0D01*
G01*
X141750000Y-112825000D01*
G75*
G02*
X141975000Y-113050000I0J-225000D01*
G01*
G37*
%TD.AperFunction*%
%TA.AperFunction,SMDPad,CuDef*%
G36*
G01*
X143525000Y-113050000D02*
X143525000Y-113550000D01*
G75*
G02*
X143300000Y-113775000I-225000J0D01*
G01*
X142850000Y-113775000D01*
G75*
G02*
X142625000Y-113550000I0J225000D01*
G01*
X142625000Y-113050000D01*
G75*
G02*
X142850000Y-112825000I225000J0D01*
G01*
X143300000Y-112825000D01*
G75*
G02*
X143525000Y-113050000I0J-225000D01*
G01*
G37*
%TD.AperFunction*%
%TA.AperFunction,SMDPad,CuDef*%
G36*
G01*
X105750000Y-95975000D02*
X105250000Y-95975000D01*
G75*
G02*
X105025000Y-95750000I0J225000D01*
G01*
X105025000Y-95300000D01*
G75*
G02*
X105250000Y-95075000I225000J0D01*
G01*
X105750000Y-95075000D01*
G75*
G02*
X105975000Y-95300000I0J-225000D01*
G01*
X105975000Y-95750000D01*
G75*
G02*
X105750000Y-95975000I-225000J0D01*
G01*
G37*
%TD.AperFunction*%
%TA.AperFunction,SMDPad,CuDef*%
G36*
G01*
X105750000Y-97525000D02*
X105250000Y-97525000D01*
G75*
G02*
X105025000Y-97300000I0J225000D01*
G01*
X105025000Y-96850000D01*
G75*
G02*
X105250000Y-96625000I225000J0D01*
G01*
X105750000Y-96625000D01*
G75*
G02*
X105975000Y-96850000I0J-225000D01*
G01*
X105975000Y-97300000D01*
G75*
G02*
X105750000Y-97525000I-225000J0D01*
G01*
G37*
%TD.AperFunction*%
%TA.AperFunction,SMDPad,CuDef*%
G36*
G01*
X102550000Y-95975000D02*
X102050000Y-95975000D01*
G75*
G02*
X101825000Y-95750000I0J225000D01*
G01*
X101825000Y-95300000D01*
G75*
G02*
X102050000Y-95075000I225000J0D01*
G01*
X102550000Y-95075000D01*
G75*
G02*
X102775000Y-95300000I0J-225000D01*
G01*
X102775000Y-95750000D01*
G75*
G02*
X102550000Y-95975000I-225000J0D01*
G01*
G37*
%TD.AperFunction*%
%TA.AperFunction,SMDPad,CuDef*%
G36*
G01*
X102550000Y-97525000D02*
X102050000Y-97525000D01*
G75*
G02*
X101825000Y-97300000I0J225000D01*
G01*
X101825000Y-96850000D01*
G75*
G02*
X102050000Y-96625000I225000J0D01*
G01*
X102550000Y-96625000D01*
G75*
G02*
X102775000Y-96850000I0J-225000D01*
G01*
X102775000Y-97300000D01*
G75*
G02*
X102550000Y-97525000I-225000J0D01*
G01*
G37*
%TD.AperFunction*%
%TA.AperFunction,SMDPad,CuDef*%
G36*
G01*
X99350000Y-95975000D02*
X98850000Y-95975000D01*
G75*
G02*
X98625000Y-95750000I0J225000D01*
G01*
X98625000Y-95300000D01*
G75*
G02*
X98850000Y-95075000I225000J0D01*
G01*
X99350000Y-95075000D01*
G75*
G02*
X99575000Y-95300000I0J-225000D01*
G01*
X99575000Y-95750000D01*
G75*
G02*
X99350000Y-95975000I-225000J0D01*
G01*
G37*
%TD.AperFunction*%
%TA.AperFunction,SMDPad,CuDef*%
G36*
G01*
X99350000Y-97525000D02*
X98850000Y-97525000D01*
G75*
G02*
X98625000Y-97300000I0J225000D01*
G01*
X98625000Y-96850000D01*
G75*
G02*
X98850000Y-96625000I225000J0D01*
G01*
X99350000Y-96625000D01*
G75*
G02*
X99575000Y-96850000I0J-225000D01*
G01*
X99575000Y-97300000D01*
G75*
G02*
X99350000Y-97525000I-225000J0D01*
G01*
G37*
%TD.AperFunction*%
%TA.AperFunction,SMDPad,CuDef*%
G36*
G01*
X96150000Y-95975000D02*
X95650000Y-95975000D01*
G75*
G02*
X95425000Y-95750000I0J225000D01*
G01*
X95425000Y-95300000D01*
G75*
G02*
X95650000Y-95075000I225000J0D01*
G01*
X96150000Y-95075000D01*
G75*
G02*
X96375000Y-95300000I0J-225000D01*
G01*
X96375000Y-95750000D01*
G75*
G02*
X96150000Y-95975000I-225000J0D01*
G01*
G37*
%TD.AperFunction*%
%TA.AperFunction,SMDPad,CuDef*%
G36*
G01*
X96150000Y-97525000D02*
X95650000Y-97525000D01*
G75*
G02*
X95425000Y-97300000I0J225000D01*
G01*
X95425000Y-96850000D01*
G75*
G02*
X95650000Y-96625000I225000J0D01*
G01*
X96150000Y-96625000D01*
G75*
G02*
X96375000Y-96850000I0J-225000D01*
G01*
X96375000Y-97300000D01*
G75*
G02*
X96150000Y-97525000I-225000J0D01*
G01*
G37*
%TD.AperFunction*%
%TA.AperFunction,SMDPad,CuDef*%
G36*
G01*
X75950000Y-92525000D02*
X76450000Y-92525000D01*
G75*
G02*
X76675000Y-92750000I0J-225000D01*
G01*
X76675000Y-93200000D01*
G75*
G02*
X76450000Y-93425000I-225000J0D01*
G01*
X75950000Y-93425000D01*
G75*
G02*
X75725000Y-93200000I0J225000D01*
G01*
X75725000Y-92750000D01*
G75*
G02*
X75950000Y-92525000I225000J0D01*
G01*
G37*
%TD.AperFunction*%
%TA.AperFunction,SMDPad,CuDef*%
G36*
G01*
X75950000Y-90975000D02*
X76450000Y-90975000D01*
G75*
G02*
X76675000Y-91200000I0J-225000D01*
G01*
X76675000Y-91650000D01*
G75*
G02*
X76450000Y-91875000I-225000J0D01*
G01*
X75950000Y-91875000D01*
G75*
G02*
X75725000Y-91650000I0J225000D01*
G01*
X75725000Y-91200000D01*
G75*
G02*
X75950000Y-90975000I225000J0D01*
G01*
G37*
%TD.AperFunction*%
%TA.AperFunction,SMDPad,CuDef*%
G36*
G01*
X60675000Y-68250000D02*
X60675000Y-68750000D01*
G75*
G02*
X60450000Y-68975000I-225000J0D01*
G01*
X60000000Y-68975000D01*
G75*
G02*
X59775000Y-68750000I0J225000D01*
G01*
X59775000Y-68250000D01*
G75*
G02*
X60000000Y-68025000I225000J0D01*
G01*
X60450000Y-68025000D01*
G75*
G02*
X60675000Y-68250000I0J-225000D01*
G01*
G37*
%TD.AperFunction*%
%TA.AperFunction,SMDPad,CuDef*%
G36*
G01*
X62225000Y-68250000D02*
X62225000Y-68750000D01*
G75*
G02*
X62000000Y-68975000I-225000J0D01*
G01*
X61550000Y-68975000D01*
G75*
G02*
X61325000Y-68750000I0J225000D01*
G01*
X61325000Y-68250000D01*
G75*
G02*
X61550000Y-68025000I225000J0D01*
G01*
X62000000Y-68025000D01*
G75*
G02*
X62225000Y-68250000I0J-225000D01*
G01*
G37*
%TD.AperFunction*%
%TA.AperFunction,SMDPad,CuDef*%
G36*
G01*
X130150000Y-116425000D02*
X130650000Y-116425000D01*
G75*
G02*
X130875000Y-116650000I0J-225000D01*
G01*
X130875000Y-117100000D01*
G75*
G02*
X130650000Y-117325000I-225000J0D01*
G01*
X130150000Y-117325000D01*
G75*
G02*
X129925000Y-117100000I0J225000D01*
G01*
X129925000Y-116650000D01*
G75*
G02*
X130150000Y-116425000I225000J0D01*
G01*
G37*
%TD.AperFunction*%
%TA.AperFunction,SMDPad,CuDef*%
G36*
G01*
X130150000Y-114875000D02*
X130650000Y-114875000D01*
G75*
G02*
X130875000Y-115100000I0J-225000D01*
G01*
X130875000Y-115550000D01*
G75*
G02*
X130650000Y-115775000I-225000J0D01*
G01*
X130150000Y-115775000D01*
G75*
G02*
X129925000Y-115550000I0J225000D01*
G01*
X129925000Y-115100000D01*
G75*
G02*
X130150000Y-114875000I225000J0D01*
G01*
G37*
%TD.AperFunction*%
%TA.AperFunction,SMDPad,CuDef*%
G36*
G01*
X149750000Y-74825000D02*
X150250000Y-74825000D01*
G75*
G02*
X150475000Y-75050000I0J-225000D01*
G01*
X150475000Y-75500000D01*
G75*
G02*
X150250000Y-75725000I-225000J0D01*
G01*
X149750000Y-75725000D01*
G75*
G02*
X149525000Y-75500000I0J225000D01*
G01*
X149525000Y-75050000D01*
G75*
G02*
X149750000Y-74825000I225000J0D01*
G01*
G37*
%TD.AperFunction*%
%TA.AperFunction,SMDPad,CuDef*%
G36*
G01*
X149750000Y-73275000D02*
X150250000Y-73275000D01*
G75*
G02*
X150475000Y-73500000I0J-225000D01*
G01*
X150475000Y-73950000D01*
G75*
G02*
X150250000Y-74175000I-225000J0D01*
G01*
X149750000Y-74175000D01*
G75*
G02*
X149525000Y-73950000I0J225000D01*
G01*
X149525000Y-73500000D01*
G75*
G02*
X149750000Y-73275000I225000J0D01*
G01*
G37*
%TD.AperFunction*%
%TA.AperFunction,SMDPad,CuDef*%
G36*
G01*
X159750000Y-74825000D02*
X160250000Y-74825000D01*
G75*
G02*
X160475000Y-75050000I0J-225000D01*
G01*
X160475000Y-75500000D01*
G75*
G02*
X160250000Y-75725000I-225000J0D01*
G01*
X159750000Y-75725000D01*
G75*
G02*
X159525000Y-75500000I0J225000D01*
G01*
X159525000Y-75050000D01*
G75*
G02*
X159750000Y-74825000I225000J0D01*
G01*
G37*
%TD.AperFunction*%
%TA.AperFunction,SMDPad,CuDef*%
G36*
G01*
X159750000Y-73275000D02*
X160250000Y-73275000D01*
G75*
G02*
X160475000Y-73500000I0J-225000D01*
G01*
X160475000Y-73950000D01*
G75*
G02*
X160250000Y-74175000I-225000J0D01*
G01*
X159750000Y-74175000D01*
G75*
G02*
X159525000Y-73950000I0J225000D01*
G01*
X159525000Y-73500000D01*
G75*
G02*
X159750000Y-73275000I225000J0D01*
G01*
G37*
%TD.AperFunction*%
%TA.AperFunction,SMDPad,CuDef*%
G36*
G01*
X129750000Y-74825000D02*
X130250000Y-74825000D01*
G75*
G02*
X130475000Y-75050000I0J-225000D01*
G01*
X130475000Y-75500000D01*
G75*
G02*
X130250000Y-75725000I-225000J0D01*
G01*
X129750000Y-75725000D01*
G75*
G02*
X129525000Y-75500000I0J225000D01*
G01*
X129525000Y-75050000D01*
G75*
G02*
X129750000Y-74825000I225000J0D01*
G01*
G37*
%TD.AperFunction*%
%TA.AperFunction,SMDPad,CuDef*%
G36*
G01*
X129750000Y-73275000D02*
X130250000Y-73275000D01*
G75*
G02*
X130475000Y-73500000I0J-225000D01*
G01*
X130475000Y-73950000D01*
G75*
G02*
X130250000Y-74175000I-225000J0D01*
G01*
X129750000Y-74175000D01*
G75*
G02*
X129525000Y-73950000I0J225000D01*
G01*
X129525000Y-73500000D01*
G75*
G02*
X129750000Y-73275000I225000J0D01*
G01*
G37*
%TD.AperFunction*%
%TA.AperFunction,SMDPad,CuDef*%
G36*
G01*
X139750000Y-74825000D02*
X140250000Y-74825000D01*
G75*
G02*
X140475000Y-75050000I0J-225000D01*
G01*
X140475000Y-75500000D01*
G75*
G02*
X140250000Y-75725000I-225000J0D01*
G01*
X139750000Y-75725000D01*
G75*
G02*
X139525000Y-75500000I0J225000D01*
G01*
X139525000Y-75050000D01*
G75*
G02*
X139750000Y-74825000I225000J0D01*
G01*
G37*
%TD.AperFunction*%
%TA.AperFunction,SMDPad,CuDef*%
G36*
G01*
X139750000Y-73275000D02*
X140250000Y-73275000D01*
G75*
G02*
X140475000Y-73500000I0J-225000D01*
G01*
X140475000Y-73950000D01*
G75*
G02*
X140250000Y-74175000I-225000J0D01*
G01*
X139750000Y-74175000D01*
G75*
G02*
X139525000Y-73950000I0J225000D01*
G01*
X139525000Y-73500000D01*
G75*
G02*
X139750000Y-73275000I225000J0D01*
G01*
G37*
%TD.AperFunction*%
D34*
X53600000Y-107800000D03*
X84000000Y-93500000D03*
X143050000Y-114350000D03*
X130000000Y-62700000D03*
X140000000Y-62700000D03*
X150000000Y-62700000D03*
X118750000Y-122700000D03*
X128050000Y-122700000D03*
X98940000Y-91000000D03*
X102130000Y-91000000D03*
X105330000Y-91000000D03*
X108535000Y-91035000D03*
X95800000Y-91000000D03*
X61550000Y-107800000D03*
X60780000Y-116140000D03*
X62320000Y-116140000D03*
X56400000Y-107800000D03*
X58000000Y-107800000D03*
X60000000Y-107800000D03*
X76200000Y-94000000D03*
X150900000Y-99700000D03*
X150900000Y-103500000D03*
X147100000Y-106000000D03*
X148000001Y-118700001D03*
X148000000Y-97750000D03*
X143350000Y-110000000D03*
X92500000Y-112500000D03*
X92500000Y-111250000D03*
X92500000Y-110000000D03*
X92500000Y-108750000D03*
X51500000Y-120000000D03*
X51500000Y-122500000D03*
X51500000Y-125000000D03*
X51500000Y-127500000D03*
X51500000Y-129500000D03*
X54000000Y-129500000D03*
X54000000Y-127500000D03*
X54000000Y-125000000D03*
X54000000Y-122500000D03*
X54000000Y-120000000D03*
X60000000Y-135000000D03*
X60000000Y-132500000D03*
X60000000Y-130000000D03*
X62500000Y-130000000D03*
X62500000Y-132500000D03*
X62500000Y-135000000D03*
X65000000Y-135000000D03*
X65000000Y-132500000D03*
X65000000Y-130000000D03*
X67000000Y-130000000D03*
X67000000Y-132500000D03*
X67000000Y-135000000D03*
X67000000Y-137000000D03*
X65000000Y-137000000D03*
X62500000Y-137000000D03*
X60000000Y-137000000D03*
X65000000Y-127500000D03*
X65000000Y-125000000D03*
X65000000Y-122500000D03*
X65000000Y-120000000D03*
X67000000Y-120000000D03*
X67000000Y-122500000D03*
X67000000Y-125000000D03*
X67000000Y-127500000D03*
X69500000Y-120000000D03*
X72000000Y-120000000D03*
X74500000Y-120000000D03*
X74500000Y-122500000D03*
X72000000Y-122500000D03*
X69500000Y-122500000D03*
X69500000Y-125000000D03*
X72000000Y-125000000D03*
X74500000Y-125000000D03*
X149000000Y-125000000D03*
X149000000Y-127000000D03*
X149000000Y-128000000D03*
X121050000Y-110500000D03*
X121000000Y-112000000D03*
X82750000Y-77950000D03*
X102750000Y-77950000D03*
X112750000Y-77950000D03*
X122743500Y-77943500D03*
X82750000Y-82750000D03*
X92750000Y-82750000D03*
X102750000Y-82750000D03*
X112750000Y-82750000D03*
X122750000Y-82750000D03*
X92750000Y-77950000D03*
X95740000Y-88000000D03*
X98940000Y-88000000D03*
X102140000Y-88000000D03*
X105330000Y-88000000D03*
X108530000Y-88000000D03*
X78000000Y-58000000D03*
X75000000Y-58000000D03*
X75000000Y-60000000D03*
X78000000Y-60000000D03*
X75000000Y-62000000D03*
X75000000Y-64000000D03*
X75000000Y-66000000D03*
X75000000Y-68000000D03*
X75000000Y-70000000D03*
X75000000Y-72000000D03*
X75000000Y-74000000D03*
X76000000Y-75000000D03*
X78000000Y-75000000D03*
X82300000Y-75000000D03*
X82300000Y-73000000D03*
X82300000Y-71000000D03*
X82300000Y-69000000D03*
X82300000Y-67000000D03*
X81000000Y-66000000D03*
X79000000Y-66000000D03*
X88000000Y-58000000D03*
X85000000Y-58000000D03*
X85000000Y-60000000D03*
X88000000Y-60000000D03*
X85000000Y-62000000D03*
X85000000Y-64000000D03*
X85000000Y-66000000D03*
X85000000Y-68000000D03*
X85000000Y-70000000D03*
X85000000Y-72000000D03*
X85000000Y-74000000D03*
X86000000Y-75000000D03*
X88000000Y-75000000D03*
X92300000Y-75000000D03*
X92300000Y-73000000D03*
X92300000Y-71000000D03*
X92300000Y-69000000D03*
X92300000Y-67000000D03*
X91000000Y-66000000D03*
X89000000Y-66000000D03*
X98000000Y-58000000D03*
X95000000Y-58000000D03*
X95000000Y-60000000D03*
X98000000Y-60000000D03*
X95000000Y-62000000D03*
X95000000Y-64000000D03*
X95000000Y-66000000D03*
X95000000Y-68000000D03*
X95000000Y-70000000D03*
X95000000Y-72000000D03*
X95000000Y-74000000D03*
X96000000Y-75000000D03*
X98000000Y-75000000D03*
X102300000Y-75000000D03*
X102300000Y-73000000D03*
X102300000Y-71000000D03*
X102300000Y-69000000D03*
X102300000Y-67000000D03*
X101000000Y-66000000D03*
X99000000Y-66000000D03*
X108000000Y-58000000D03*
X108000000Y-60000000D03*
X105000000Y-58000000D03*
X105000000Y-60000000D03*
X105000000Y-62000000D03*
X105000000Y-64000000D03*
X105000000Y-66000000D03*
X105000000Y-68000000D03*
X105000000Y-70000000D03*
X105000000Y-72000000D03*
X105000000Y-74000000D03*
X106000000Y-75000000D03*
X108000000Y-75000000D03*
X112300000Y-75000000D03*
X112300000Y-73000000D03*
X112300000Y-71000000D03*
X112300000Y-69000000D03*
X112300000Y-67000000D03*
X111000000Y-66000000D03*
X109100000Y-65900000D03*
X122300000Y-73000000D03*
X122300000Y-71000000D03*
X115000000Y-66000000D03*
X115000000Y-60000000D03*
X115000000Y-58000000D03*
X115000000Y-70000000D03*
X115000000Y-72000000D03*
X115000000Y-73900000D03*
X116000000Y-75000000D03*
X122300000Y-75000000D03*
X122300000Y-69000000D03*
X115000000Y-68000000D03*
X122300000Y-67000000D03*
X118000000Y-58000000D03*
X118000000Y-60000000D03*
X115000000Y-62000000D03*
X115000000Y-64000000D03*
X121000000Y-66000000D03*
X118000000Y-75000000D03*
X119000000Y-66000000D03*
D35*
X55000000Y-107800000D02*
X53600000Y-107800000D01*
D36*
X84000000Y-92750000D02*
X84000000Y-93500000D01*
X118749260Y-117935000D02*
X118749260Y-119205000D01*
X118749260Y-119205000D02*
X118749260Y-120475000D01*
X118749260Y-120475000D02*
X118749260Y-121745000D01*
X128050740Y-121745000D02*
X128050740Y-120475000D01*
X128050740Y-120475000D02*
X128050740Y-119205000D01*
X128050740Y-119205000D02*
X128050740Y-117935000D01*
X130400000Y-116875000D02*
X129825000Y-116875000D01*
X129400740Y-117299260D02*
X128050740Y-117299260D01*
X129825000Y-116875000D02*
X129400740Y-117299260D01*
X128050740Y-117299260D02*
X128050740Y-116665000D01*
X128050740Y-117935000D02*
X128050740Y-117299260D01*
D37*
X143075000Y-114325000D02*
X143050000Y-114350000D01*
X143075000Y-113300000D02*
X143075000Y-114325000D01*
X130000000Y-63675000D02*
X130000000Y-62700000D01*
X140000000Y-63675000D02*
X140000000Y-62700000D01*
X150000000Y-63675000D02*
X150000000Y-62700000D01*
X134000000Y-73000000D02*
X132250000Y-73000000D01*
X131525000Y-73725000D02*
X130000000Y-73725000D01*
X132250000Y-73000000D02*
X131525000Y-73725000D01*
X144000000Y-73000000D02*
X142000000Y-73000000D01*
X141275000Y-73725000D02*
X140000000Y-73725000D01*
X142000000Y-73000000D02*
X141275000Y-73725000D01*
X154000000Y-73000000D02*
X151950000Y-73000000D01*
X151225000Y-73725000D02*
X150000000Y-73725000D01*
X151950000Y-73000000D02*
X151225000Y-73725000D01*
X164000000Y-73000000D02*
X162000000Y-73000000D01*
X161275000Y-73725000D02*
X160000000Y-73725000D01*
X162000000Y-73000000D02*
X161275000Y-73725000D01*
X118749260Y-122699260D02*
X118750000Y-122700000D01*
X118749260Y-121745000D02*
X118749260Y-122699260D01*
X128050740Y-122699260D02*
X128050000Y-122700000D01*
X128050740Y-121745000D02*
X128050740Y-122699260D01*
X98935000Y-91005000D02*
X98940000Y-91000000D01*
X98935000Y-92625000D02*
X98935000Y-91005000D01*
X102135000Y-91005000D02*
X102140000Y-91000000D01*
X102135000Y-92625000D02*
X102135000Y-91005000D01*
X102140000Y-91000000D02*
X102130000Y-91000000D01*
X105335000Y-91015000D02*
X105350000Y-91000000D01*
X105335000Y-92625000D02*
X105335000Y-91015000D01*
X105350000Y-91000000D02*
X105330000Y-91000000D01*
X108700000Y-95525000D02*
X108700000Y-94290000D01*
X108535000Y-94125000D02*
X108535000Y-92625000D01*
X108700000Y-94290000D02*
X108535000Y-94125000D01*
X105500000Y-95525000D02*
X105500000Y-94300000D01*
X105335000Y-94135000D02*
X105335000Y-92625000D01*
X105500000Y-94300000D02*
X105335000Y-94135000D01*
X102300000Y-95525000D02*
X102300000Y-94390000D01*
X102135000Y-94225000D02*
X102135000Y-92625000D01*
X102300000Y-94390000D02*
X102135000Y-94225000D01*
X99100000Y-95525000D02*
X99100000Y-94300000D01*
X98935000Y-94135000D02*
X98935000Y-92625000D01*
X99100000Y-94300000D02*
X98935000Y-94135000D01*
X95900000Y-95525000D02*
X95900000Y-94390000D01*
X95735000Y-94225000D02*
X95735000Y-92625000D01*
X95900000Y-94390000D02*
X95735000Y-94225000D01*
X102130000Y-91000000D02*
X98940000Y-91000000D01*
X105330000Y-91000000D02*
X102140000Y-91000000D01*
X95735000Y-91000000D02*
X95735000Y-92625000D01*
X98940000Y-91000000D02*
X95800000Y-91000000D01*
X108500000Y-91000000D02*
X105350000Y-91000000D01*
X108535000Y-91035000D02*
X108535000Y-91035000D01*
X108535000Y-92625000D02*
X108535000Y-91035000D01*
X108535000Y-91035000D02*
X108500000Y-91000000D01*
X95800000Y-91000000D02*
X95735000Y-91000000D01*
D35*
X63000000Y-107800000D02*
X61550000Y-107800000D01*
X60780000Y-117800000D02*
X60780000Y-116140000D01*
X60780000Y-117680000D02*
X62320000Y-116140000D01*
X60780000Y-117800000D02*
X60780000Y-117680000D01*
X55000000Y-107800000D02*
X56400000Y-107800000D01*
X56400000Y-107800000D02*
X58000000Y-107800000D01*
X58000000Y-107800000D02*
X60000000Y-107800000D01*
X61550000Y-107800000D02*
X60000000Y-107800000D01*
D38*
X76200000Y-92975000D02*
X76200000Y-94000000D01*
D39*
X166460000Y-128460000D02*
X166500000Y-128500000D01*
X163700000Y-128460000D02*
X166460000Y-128460000D01*
D35*
X159600000Y-127200000D02*
X155000000Y-127200000D01*
X160600000Y-128200000D02*
X159600000Y-127200000D01*
X160600000Y-128725000D02*
X160600000Y-128200000D01*
X163700000Y-128460000D02*
X162040000Y-128460000D01*
X161775000Y-128725000D02*
X160600000Y-128725000D01*
X162040000Y-128460000D02*
X161775000Y-128725000D01*
D37*
X143125000Y-113250000D02*
X143075000Y-113300000D01*
X145000000Y-113250000D02*
X143125000Y-113250000D01*
D39*
X56220000Y-117800000D02*
X56220000Y-116720000D01*
X55000000Y-115500000D02*
X55000000Y-113200000D01*
X56220000Y-116720000D02*
X55000000Y-115500000D01*
D38*
X76200000Y-91425000D02*
X77325000Y-91425000D01*
X77375000Y-91475000D02*
X78800000Y-91475000D01*
X77325000Y-91425000D02*
X77375000Y-91475000D01*
X151975000Y-118700001D02*
X148000001Y-118700001D01*
X146825000Y-117525000D02*
X148000001Y-118700001D01*
X146825000Y-115000000D02*
X146825000Y-117525000D01*
X151975000Y-103500000D02*
X151975000Y-115000000D01*
X151975000Y-103500000D02*
X150900000Y-103500000D01*
X151975000Y-99700000D02*
X150900000Y-99700000D01*
X147100000Y-106000000D02*
X147100000Y-107125000D01*
D39*
X164000000Y-53000000D02*
X144000000Y-53000000D01*
X144000000Y-53000000D02*
X137510000Y-53000000D01*
X134000000Y-53000000D02*
X137510000Y-53000000D01*
D35*
X130000000Y-75275000D02*
X129175000Y-75275000D01*
X130000000Y-75275000D02*
X131375000Y-75275000D01*
X131600000Y-75500000D02*
X131375000Y-75275000D01*
X134000000Y-75500000D02*
X131600000Y-75500000D01*
X134000000Y-75500000D02*
X136750000Y-75500000D01*
X136975000Y-75275000D02*
X136750000Y-75500000D01*
X140000000Y-75275000D02*
X136975000Y-75275000D01*
X141325000Y-75275000D02*
X141550000Y-75500000D01*
X140000000Y-75275000D02*
X141325000Y-75275000D01*
X144000000Y-75500000D02*
X141550000Y-75500000D01*
D39*
X137510000Y-57790000D02*
X137510000Y-53000000D01*
X130200000Y-58800000D02*
X136500000Y-58800000D01*
X128300000Y-74400000D02*
X128300000Y-60700000D01*
X136500000Y-58800000D02*
X137510000Y-57790000D01*
X128300000Y-60700000D02*
X130200000Y-58800000D01*
X129175000Y-75275000D02*
X128300000Y-74400000D01*
X55000000Y-113200000D02*
X52400000Y-113200000D01*
X52400000Y-113200000D02*
X51200000Y-112000000D01*
X51200000Y-112000000D02*
X51200000Y-105600000D01*
X51200000Y-105600000D02*
X52500000Y-104300000D01*
X52500000Y-104300000D02*
X59900000Y-104300000D01*
X63250000Y-100950000D02*
X68700000Y-100950000D01*
X59900000Y-104300000D02*
X63250000Y-100950000D01*
X59200000Y-88000000D02*
X62500000Y-88000000D01*
X65000000Y-90500000D02*
X68400000Y-90500000D01*
X62500000Y-88000000D02*
X65000000Y-90500000D01*
X68700000Y-100950000D02*
X68700000Y-94300000D01*
X68400000Y-94000000D02*
X68400000Y-90500000D01*
X68700000Y-94300000D02*
X68400000Y-94000000D01*
D38*
X71925000Y-91425000D02*
X76200000Y-91425000D01*
X71000000Y-90500000D02*
X71925000Y-91425000D01*
X68400000Y-90500000D02*
X71000000Y-90500000D01*
D35*
X144000000Y-129350000D02*
X144000000Y-125400000D01*
X148000001Y-121399999D02*
X148000001Y-118700001D01*
X144000000Y-125400000D02*
X148000001Y-121399999D01*
D36*
X130400000Y-115325000D02*
X129475000Y-115325000D01*
X129405000Y-115395000D02*
X128050740Y-115395000D01*
X129475000Y-115325000D02*
X129405000Y-115395000D01*
X99200000Y-109800000D02*
X118300000Y-109800000D01*
X119200000Y-108900000D02*
X122150000Y-108900000D01*
X118300000Y-109800000D02*
X119200000Y-108900000D01*
X123400000Y-110150000D02*
X123400000Y-114300000D01*
X122150000Y-108900000D02*
X123400000Y-110150000D01*
X124495000Y-115395000D02*
X123400000Y-114300000D01*
X128050740Y-115395000D02*
X124495000Y-115395000D01*
D35*
X58500000Y-117800000D02*
X58500000Y-113200000D01*
X58500000Y-113200000D02*
X63000000Y-113200000D01*
X58500000Y-117800000D02*
X58500000Y-124100000D01*
D36*
X160425000Y-99700003D02*
X160425002Y-99700003D01*
X114875000Y-114075000D02*
X114875000Y-115300000D01*
X114875000Y-112800000D02*
X114875000Y-114075000D01*
D37*
X156200001Y-120499999D02*
X156200001Y-116750001D01*
D38*
X68775000Y-129350000D02*
X68775000Y-126800000D01*
X114875000Y-115300000D02*
X114875000Y-112800000D01*
D36*
X114925000Y-114125000D02*
X114875000Y-114075000D01*
X118749260Y-114125000D02*
X114925000Y-114125000D01*
D38*
X151325000Y-75275000D02*
X151550000Y-75500000D01*
X150000000Y-75275000D02*
X151325000Y-75275000D01*
X154000000Y-75500000D02*
X151550000Y-75500000D01*
X154000000Y-75500000D02*
X157150000Y-75500000D01*
X157375000Y-75275000D02*
X157150000Y-75500000D01*
X160000000Y-75275000D02*
X157375000Y-75275000D01*
X161400000Y-75500000D02*
X161175000Y-75275000D01*
X164000000Y-75500000D02*
X161400000Y-75500000D01*
X160000000Y-75275000D02*
X161175000Y-75275000D01*
D39*
X134000000Y-61650000D02*
X134550000Y-61100000D01*
X134000000Y-63000000D02*
X134000000Y-61650000D01*
X154000000Y-63000000D02*
X154000000Y-61550000D01*
X134550000Y-61100000D02*
X144000000Y-61100000D01*
X144000000Y-63000000D02*
X144000000Y-61100000D01*
X153550000Y-61100000D02*
X154000000Y-61550000D01*
X144000000Y-61100000D02*
X153550000Y-61100000D01*
D38*
X148000001Y-97749999D02*
X148000000Y-97750000D01*
D36*
X160425002Y-118699997D02*
X160425001Y-118699998D01*
X156150000Y-116750001D02*
X156150000Y-120550000D01*
D39*
X119190000Y-133500000D02*
X119190000Y-131590000D01*
X119190000Y-131590000D02*
X118500000Y-130900000D01*
X118500000Y-130900000D02*
X110600000Y-130900000D01*
X108750000Y-129050000D02*
X108750000Y-121500000D01*
X110600000Y-130900000D02*
X108750000Y-129050000D01*
D38*
X114875000Y-115300000D02*
X112200000Y-115300000D01*
X110975000Y-116525000D02*
X110975000Y-119275000D01*
X112200000Y-115300000D02*
X110975000Y-116525000D01*
X110975000Y-119275000D02*
X108750000Y-121500000D01*
X77180000Y-134430000D02*
X83000000Y-134430000D01*
X69600000Y-130800000D02*
X73550000Y-130800000D01*
X73550000Y-130800000D02*
X77180000Y-134430000D01*
X68775000Y-129975000D02*
X69600000Y-130800000D01*
X68775000Y-129350000D02*
X68775000Y-129975000D01*
D39*
X92500000Y-118750000D02*
X95250000Y-121500000D01*
X92500000Y-108750000D02*
X92500000Y-118750000D01*
X95250000Y-121500000D02*
X108750000Y-121500000D01*
X68500000Y-106500000D02*
X90250000Y-106500000D01*
X90250000Y-106500000D02*
X92500000Y-108750000D01*
X66850000Y-108150000D02*
X68500000Y-106500000D01*
X66850000Y-111050000D02*
X66850000Y-108150000D01*
X64700000Y-113200000D02*
X66850000Y-111050000D01*
X63000000Y-113200000D02*
X64700000Y-113200000D01*
D36*
X149000000Y-129350000D02*
X149000000Y-128000000D01*
X149000000Y-125000000D02*
X151600000Y-122400000D01*
X154300000Y-122400000D02*
X156150000Y-120550000D01*
X151600000Y-122400000D02*
X154300000Y-122400000D01*
D38*
X141600000Y-108775000D02*
X142425000Y-108775000D01*
X142500000Y-108700000D02*
X143350000Y-108700000D01*
X142425000Y-108775000D02*
X142500000Y-108700000D01*
X143350000Y-110000000D02*
X143350000Y-108700000D01*
D36*
X156199999Y-98749999D02*
X155200000Y-97750000D01*
X156199999Y-101549998D02*
X156199999Y-98749999D01*
X156199997Y-101550000D02*
X156199999Y-101549998D01*
X155200000Y-101550000D02*
X156199997Y-101550000D01*
X148000000Y-97750000D02*
X155200000Y-97750000D01*
D39*
X149000000Y-128000000D02*
X149000000Y-125000000D01*
D36*
X156199999Y-112050001D02*
X155200000Y-113050000D01*
X156199999Y-101549998D02*
X156199999Y-112050001D01*
X156150000Y-114000000D02*
X155200000Y-113050000D01*
X156150000Y-116750001D02*
X156150000Y-114000000D01*
X155200000Y-116750000D02*
X156149999Y-116750000D01*
X160425000Y-103499999D02*
X160425002Y-103500001D01*
X160400000Y-101550000D02*
X160425000Y-101575000D01*
X156199997Y-101550000D02*
X160400000Y-101550000D01*
X160425000Y-101575000D02*
X160425000Y-103500000D01*
X160425000Y-99700000D02*
X160425000Y-101575000D01*
X156149999Y-116750000D02*
X156150000Y-116750001D01*
X156149999Y-116750000D02*
X160350000Y-116750000D01*
X160425000Y-116675000D02*
X160425000Y-118700000D01*
X160350000Y-116750000D02*
X160425000Y-116675000D01*
X160425000Y-115000000D02*
X160425000Y-116675000D01*
D39*
X140060000Y-95440000D02*
X140100000Y-95400000D01*
X138300000Y-95440000D02*
X140060000Y-95440000D01*
D36*
X81462500Y-93075000D02*
X81500000Y-93037500D01*
D38*
X81487500Y-93075000D02*
X81500000Y-93087500D01*
D36*
X81500000Y-93087500D02*
X79987500Y-93087500D01*
X79950000Y-93125000D02*
X78800000Y-93125000D01*
X79987500Y-93087500D02*
X79950000Y-93125000D01*
X81500000Y-91512500D02*
X82512500Y-91512500D01*
X82850000Y-91850000D02*
X84000000Y-91850000D01*
X82512500Y-91512500D02*
X82850000Y-91850000D01*
D37*
X164000000Y-80500000D02*
X154000000Y-80500000D01*
X83000000Y-129350000D02*
X70425000Y-129350000D01*
X83950000Y-128400000D02*
X83000000Y-129350000D01*
X84700000Y-128400000D02*
X83950000Y-128400000D01*
X85850000Y-129550000D02*
X84700000Y-128400000D01*
X123300000Y-135600000D02*
X122600000Y-136300000D01*
X85850000Y-134750000D02*
X85850000Y-129550000D01*
X122600000Y-136300000D02*
X87400000Y-136300000D01*
X123300000Y-134470000D02*
X123300000Y-135600000D01*
X87400000Y-136300000D02*
X85850000Y-134750000D01*
X124270000Y-133500000D02*
X123300000Y-134470000D01*
X132400000Y-114425000D02*
X131175000Y-113200000D01*
X132400000Y-121300000D02*
X132400000Y-114425000D01*
X123300000Y-130400000D02*
X132400000Y-121300000D01*
X123300000Y-132530000D02*
X123300000Y-130400000D01*
X124270000Y-133500000D02*
X123300000Y-132530000D01*
X128050740Y-112855000D02*
X129155000Y-112855000D01*
X129155000Y-112855000D02*
X129500000Y-113200000D01*
X131175000Y-113200000D02*
X129500000Y-113200000D01*
X120700000Y-98970000D02*
X121730000Y-97940000D01*
X120700000Y-102000000D02*
X120700000Y-98970000D01*
X125400000Y-106700000D02*
X120700000Y-102000000D01*
X125400000Y-112800000D02*
X125400000Y-106700000D01*
X125800000Y-113200000D02*
X125400000Y-112800000D01*
X126600000Y-113200000D02*
X125800000Y-113200000D01*
X126945000Y-112855000D02*
X126600000Y-113200000D01*
X128050740Y-112855000D02*
X126945000Y-112855000D01*
X166000000Y-79600000D02*
X164900000Y-79600000D01*
X168000000Y-81600000D02*
X166000000Y-79600000D01*
X164900000Y-79600000D02*
X164000000Y-80500000D01*
X168000000Y-96500000D02*
X168000000Y-81600000D01*
X166520000Y-97980000D02*
X168000000Y-96500000D01*
X163700000Y-97980000D02*
X166520000Y-97980000D01*
X164000000Y-78000000D02*
X154000000Y-78000000D01*
X70435000Y-126810000D02*
X70425000Y-126800000D01*
X83000000Y-126810000D02*
X70435000Y-126810000D01*
X85000000Y-127800000D02*
X83990000Y-127800000D01*
X83990000Y-127800000D02*
X83000000Y-126810000D01*
X86500000Y-129300000D02*
X85000000Y-127800000D01*
X86500000Y-134500000D02*
X86500000Y-129300000D01*
X87750000Y-135750000D02*
X86500000Y-134500000D01*
X122350000Y-135750000D02*
X87750000Y-135750000D01*
X122700000Y-135400000D02*
X122350000Y-135750000D01*
X122700000Y-134470000D02*
X122700000Y-135400000D01*
X121730000Y-133500000D02*
X122700000Y-134470000D01*
X122700000Y-132530000D02*
X121730000Y-133500000D01*
X122700000Y-130100000D02*
X122700000Y-132530000D01*
X130950000Y-113800000D02*
X131850000Y-114700000D01*
X131850000Y-120950000D02*
X122700000Y-130100000D01*
X131850000Y-114700000D02*
X131850000Y-120950000D01*
X129175000Y-114125000D02*
X129500000Y-113800000D01*
X128050740Y-114125000D02*
X129175000Y-114125000D01*
X129500000Y-113800000D02*
X130950000Y-113800000D01*
X120200000Y-98950000D02*
X119190000Y-97940000D01*
X120200000Y-102350000D02*
X120200000Y-98950000D01*
X124800000Y-106950000D02*
X120200000Y-102350000D01*
X125600000Y-113800000D02*
X124800000Y-113000000D01*
X126600000Y-113800000D02*
X125600000Y-113800000D01*
X126925000Y-114125000D02*
X126600000Y-113800000D01*
X124800000Y-113000000D02*
X124800000Y-106950000D01*
X128050740Y-114125000D02*
X126925000Y-114125000D01*
X166500000Y-105600000D02*
X163700000Y-105600000D01*
X168750000Y-103350000D02*
X166500000Y-105600000D01*
X168750000Y-81550000D02*
X168750000Y-103350000D01*
X166200000Y-79000000D02*
X168750000Y-81550000D01*
X165000000Y-79000000D02*
X166200000Y-79000000D01*
X164000000Y-78000000D02*
X165000000Y-79000000D01*
D36*
X116620000Y-115395000D02*
X116525000Y-115300000D01*
X118749260Y-115395000D02*
X116620000Y-115395000D01*
D37*
X118749260Y-115395000D02*
X121355000Y-115395000D01*
X121355000Y-115395000D02*
X122350000Y-114400000D01*
X122350000Y-111800000D02*
X121050000Y-110500000D01*
X122350000Y-114400000D02*
X122350000Y-111800000D01*
D36*
X116580000Y-112855000D02*
X116525000Y-112800000D01*
X118749260Y-112855000D02*
X116580000Y-112855000D01*
D37*
X120145000Y-112855000D02*
X121000000Y-112000000D01*
X118749260Y-112855000D02*
X120145000Y-112855000D01*
X130000000Y-65325000D02*
X131975000Y-65325000D01*
X132150000Y-65500000D02*
X134000000Y-65500000D01*
X131975000Y-65325000D02*
X132150000Y-65500000D01*
X136500000Y-68000000D02*
X134000000Y-65500000D01*
X166400000Y-68000000D02*
X136500000Y-68000000D01*
X169500000Y-71100000D02*
X166400000Y-68000000D01*
X169500000Y-105700000D02*
X169500000Y-71100000D01*
X167060000Y-108140000D02*
X169500000Y-105700000D01*
X163700000Y-108140000D02*
X167060000Y-108140000D01*
D39*
X166420000Y-125920000D02*
X166500000Y-126000000D01*
X163700000Y-125920000D02*
X166420000Y-125920000D01*
X140670000Y-125920000D02*
X140750000Y-126000000D01*
X138300000Y-125920000D02*
X140670000Y-125920000D01*
D37*
X161880000Y-98700000D02*
X163700000Y-100520000D01*
X158775000Y-98725000D02*
X158800000Y-98700000D01*
X158775000Y-99700000D02*
X158775000Y-98725000D01*
X158800000Y-98700000D02*
X161880000Y-98700000D01*
X157200000Y-98700000D02*
X158800000Y-98700000D01*
X157200000Y-102500000D02*
X157200000Y-104100000D01*
X157200000Y-104100000D02*
X157700000Y-104600000D01*
X162160000Y-104600000D02*
X163700000Y-103060000D01*
X158775000Y-104575000D02*
X158800000Y-104600000D01*
X158775000Y-103500000D02*
X158775000Y-104575000D01*
X158800000Y-104600000D02*
X162160000Y-104600000D01*
X157700000Y-104600000D02*
X158800000Y-104600000D01*
X140000000Y-65325000D02*
X141925000Y-65325000D01*
X142100000Y-65500000D02*
X144000000Y-65500000D01*
X141925000Y-65325000D02*
X142100000Y-65500000D01*
X170250000Y-108150000D02*
X167720000Y-110680000D01*
X167720000Y-110680000D02*
X163700000Y-110680000D01*
X170250000Y-71050000D02*
X170250000Y-108150000D01*
X166700000Y-67500000D02*
X170250000Y-71050000D01*
X146000000Y-67500000D02*
X166700000Y-67500000D01*
X144000000Y-65500000D02*
X146000000Y-67500000D01*
X150000000Y-65325000D02*
X151825000Y-65325000D01*
X152000000Y-65500000D02*
X154000000Y-65500000D01*
X151825000Y-65325000D02*
X152000000Y-65500000D01*
X155500000Y-67000000D02*
X154000000Y-65500000D01*
X171000000Y-70900000D02*
X167100000Y-67000000D01*
X167100000Y-67000000D02*
X155500000Y-67000000D01*
X171000000Y-110400000D02*
X171000000Y-70900000D01*
X168180000Y-113220000D02*
X171000000Y-110400000D01*
X163700000Y-113220000D02*
X168180000Y-113220000D01*
D36*
X118749260Y-116665000D02*
X116435000Y-116665000D01*
X115800000Y-117300000D02*
X115800000Y-120000000D01*
X116435000Y-116665000D02*
X115800000Y-117300000D01*
D39*
X166380000Y-123380000D02*
X166500000Y-123500000D01*
X163700000Y-123380000D02*
X166380000Y-123380000D01*
X166440000Y-95440000D02*
X166500000Y-95500000D01*
X163700000Y-95440000D02*
X166440000Y-95440000D01*
X140580000Y-100520000D02*
X140600000Y-100500000D01*
X138300000Y-100520000D02*
X140580000Y-100520000D01*
X140580000Y-97980000D02*
X140600000Y-98000000D01*
X138300000Y-97980000D02*
X140580000Y-97980000D01*
D38*
X81575000Y-80787500D02*
X81537500Y-80750000D01*
X81536000Y-80748500D02*
X81537500Y-80750000D01*
D36*
X81536000Y-80748500D02*
X81587500Y-80800000D01*
X81575000Y-80812500D02*
X81587500Y-80800000D01*
X81586000Y-80798500D02*
X81587500Y-80800000D01*
X81586000Y-77943500D02*
X81586000Y-80798500D01*
X82743500Y-77943500D02*
X82750000Y-77950000D01*
X81586000Y-77943500D02*
X82743500Y-77943500D01*
X91586000Y-80798500D02*
X91587500Y-80800000D01*
X91586000Y-77943500D02*
X91586000Y-80798500D01*
X101586000Y-80798500D02*
X101587500Y-80800000D01*
X101586000Y-77943500D02*
X101586000Y-80798500D01*
X102743500Y-77943500D02*
X102750000Y-77950000D01*
X101586000Y-77943500D02*
X102743500Y-77943500D01*
X111586000Y-80798500D02*
X111587500Y-80800000D01*
X111586000Y-77943500D02*
X111586000Y-80798500D01*
X112743500Y-77943500D02*
X112750000Y-77950000D01*
X111586000Y-77943500D02*
X112743500Y-77943500D01*
X121586000Y-80798500D02*
X121587500Y-80800000D01*
X121586000Y-77943500D02*
X121586000Y-80798500D01*
X121586000Y-77943500D02*
X122743500Y-77943500D01*
D38*
X82700000Y-82800000D02*
X82750000Y-82750000D01*
X81625000Y-82800000D02*
X82700000Y-82800000D01*
X92700000Y-82800000D02*
X92750000Y-82750000D01*
X91625000Y-82800000D02*
X92700000Y-82800000D01*
D36*
X102700000Y-82800000D02*
X102750000Y-82750000D01*
X101625000Y-82800000D02*
X102700000Y-82800000D01*
X112700000Y-82800000D02*
X112750000Y-82750000D01*
X111625000Y-82800000D02*
X112700000Y-82800000D01*
X111625000Y-80837500D02*
X111587500Y-80800000D01*
X111625000Y-82800000D02*
X111625000Y-80837500D01*
X101625000Y-80837500D02*
X101587500Y-80800000D01*
X101625000Y-82800000D02*
X101625000Y-80837500D01*
X91625000Y-80837500D02*
X91587500Y-80800000D01*
X91625000Y-82800000D02*
X91625000Y-80837500D01*
X81625000Y-80837500D02*
X81587500Y-80800000D01*
X81625000Y-82800000D02*
X81625000Y-80837500D01*
X122700000Y-82800000D02*
X122750000Y-82750000D01*
X121625000Y-82800000D02*
X122700000Y-82800000D01*
X121625000Y-80837500D02*
X121587500Y-80800000D01*
X121625000Y-82800000D02*
X121625000Y-80837500D01*
X92743500Y-77943500D02*
X92750000Y-77950000D01*
X91586000Y-77943500D02*
X92743500Y-77943500D01*
D38*
X95735000Y-87995000D02*
X95740000Y-88000000D01*
X95735000Y-86375000D02*
X95735000Y-87995000D01*
X98935000Y-87995000D02*
X98940000Y-88000000D01*
X98935000Y-86375000D02*
X98935000Y-87995000D01*
X102135000Y-87995000D02*
X102140000Y-88000000D01*
X102135000Y-86375000D02*
X102135000Y-87995000D01*
X105335000Y-87995000D02*
X105330000Y-88000000D01*
X105335000Y-86375000D02*
X105335000Y-87995000D01*
X108535000Y-87995000D02*
X108530000Y-88000000D01*
X108535000Y-86375000D02*
X108535000Y-87995000D01*
D39*
X65750000Y-54750000D02*
X62750000Y-54750000D01*
X58300000Y-59200000D02*
X58300000Y-64000000D01*
X62750000Y-54750000D02*
X58300000Y-59200000D01*
X59200000Y-73000000D02*
X59200000Y-75300000D01*
X58300000Y-72100000D02*
X59200000Y-73000000D01*
X53300000Y-63050000D02*
X54850000Y-63050000D01*
X55800000Y-64000000D02*
X58300000Y-64000000D01*
X54850000Y-63050000D02*
X55800000Y-64000000D01*
D38*
X58400000Y-68500000D02*
X58300000Y-68400000D01*
X60225000Y-68500000D02*
X58400000Y-68500000D01*
D39*
X58300000Y-68400000D02*
X58300000Y-72100000D01*
X58300000Y-64000000D02*
X58300000Y-68400000D01*
X118250000Y-54750000D02*
X118250000Y-52550000D01*
X118250000Y-52550000D02*
X116850000Y-51150000D01*
X78250000Y-54750000D02*
X78250000Y-51150000D01*
X88250000Y-51250000D02*
X88350000Y-51150000D01*
X88250000Y-54750000D02*
X88250000Y-51250000D01*
X88350000Y-51150000D02*
X78250000Y-51150000D01*
X98250000Y-51250000D02*
X98350000Y-51150000D01*
X98250000Y-54750000D02*
X98250000Y-51250000D01*
X98350000Y-51150000D02*
X88350000Y-51150000D01*
X108250000Y-54750000D02*
X108250000Y-51150000D01*
X108250000Y-51150000D02*
X98350000Y-51150000D01*
X116850000Y-51150000D02*
X108250000Y-51150000D01*
X68250000Y-54750000D02*
X68250000Y-51150000D01*
X78250000Y-51150000D02*
X68250000Y-51150000D01*
X121450000Y-57950000D02*
X118250000Y-54750000D01*
X121450000Y-63000000D02*
X121450000Y-57950000D01*
X111450000Y-57950000D02*
X108250000Y-54750000D01*
X111450000Y-63000000D02*
X111450000Y-57950000D01*
X101450000Y-57950000D02*
X98250000Y-54750000D01*
X101450000Y-63000000D02*
X101450000Y-57950000D01*
X91450000Y-57950000D02*
X88250000Y-54750000D01*
X91450000Y-63000000D02*
X91450000Y-57950000D01*
X81450000Y-57950000D02*
X78250000Y-54750000D01*
X81450000Y-63000000D02*
X81450000Y-57950000D01*
X68250000Y-54750000D02*
X68250000Y-57250000D01*
X63700000Y-61800000D02*
X63700000Y-64000000D01*
X68250000Y-57250000D02*
X63700000Y-61800000D01*
X59240000Y-77800000D02*
X59200000Y-77840000D01*
X68400000Y-77800000D02*
X59240000Y-77800000D01*
X68400000Y-74200000D02*
X68400000Y-77800000D01*
X63700000Y-69500000D02*
X68400000Y-74200000D01*
X68700000Y-63050000D02*
X67150000Y-63050000D01*
X66200000Y-64000000D02*
X63700000Y-64000000D01*
X67150000Y-63050000D02*
X66200000Y-64000000D01*
D38*
X63600000Y-68500000D02*
X63700000Y-68400000D01*
X61775000Y-68500000D02*
X63600000Y-68500000D01*
D39*
X63700000Y-68400000D02*
X63700000Y-69500000D01*
X63700000Y-64000000D02*
X63700000Y-68400000D01*
D37*
X95900000Y-97075000D02*
X94300000Y-95475000D01*
X94300000Y-95475000D02*
X94300000Y-94400000D01*
X94465000Y-94235000D02*
X94465000Y-92625000D01*
X94300000Y-94400000D02*
X94465000Y-94235000D01*
X99100000Y-97075000D02*
X97500000Y-95475000D01*
X97500000Y-95475000D02*
X97500000Y-94400000D01*
X97665000Y-94235000D02*
X97665000Y-92625000D01*
X97500000Y-94400000D02*
X97665000Y-94235000D01*
X102300000Y-97075000D02*
X100700000Y-95475000D01*
X100700000Y-95475000D02*
X100700000Y-94400000D01*
X100865000Y-94235000D02*
X100865000Y-92625000D01*
X100700000Y-94400000D02*
X100865000Y-94235000D01*
X105500000Y-97075000D02*
X103900000Y-95475000D01*
X103900000Y-95475000D02*
X103900000Y-94400000D01*
X104065000Y-94235000D02*
X104065000Y-92625000D01*
X103900000Y-94400000D02*
X104065000Y-94235000D01*
X108700000Y-97075000D02*
X107100000Y-95475000D01*
X107100000Y-95475000D02*
X107100000Y-94400000D01*
X107265000Y-94235000D02*
X107265000Y-92625000D01*
X107100000Y-94400000D02*
X107265000Y-94235000D01*
X141525000Y-112900000D02*
X143125000Y-111300000D01*
X141525000Y-113300000D02*
X141525000Y-112900000D01*
X143175000Y-111350000D02*
X143125000Y-111300000D01*
X145000000Y-111350000D02*
X143175000Y-111350000D01*
X165900000Y-55000000D02*
X165400000Y-55500000D01*
X147100000Y-108775000D02*
X147925000Y-108775000D01*
X147925000Y-108775000D02*
X148300000Y-108400000D01*
X165400000Y-55500000D02*
X164000000Y-55500000D01*
X165150000Y-51250000D02*
X165900000Y-52000000D01*
X148300000Y-104800000D02*
X141800000Y-98300000D01*
X148300000Y-108400000D02*
X148300000Y-104800000D01*
X141800000Y-98300000D02*
X141800000Y-95300000D01*
X126500000Y-86300000D02*
X126500000Y-56850000D01*
X141800000Y-95300000D02*
X140400000Y-93900000D01*
X134100000Y-93900000D02*
X126500000Y-86300000D01*
X126500000Y-56850000D02*
X132100000Y-51250000D01*
X140400000Y-93900000D02*
X134100000Y-93900000D01*
X132100000Y-51250000D02*
X165150000Y-51250000D01*
X165900000Y-52000000D02*
X165900000Y-55000000D01*
X147100000Y-108775000D02*
X146375000Y-108775000D01*
X146300000Y-108700000D02*
X145250000Y-108700000D01*
X146375000Y-108775000D02*
X146300000Y-108700000D01*
X153625000Y-115475000D02*
X153625000Y-115000000D01*
X150500000Y-116600000D02*
X152500000Y-116600000D01*
X152500000Y-116600000D02*
X153625000Y-115475000D01*
X149800000Y-115900000D02*
X150500000Y-116600000D01*
X143300000Y-97829120D02*
X149800000Y-104329120D01*
X149800000Y-104329120D02*
X149800000Y-115900000D01*
X141000000Y-92700000D02*
X143300000Y-95000000D01*
X134700000Y-92700000D02*
X141000000Y-92700000D01*
X132775000Y-80500000D02*
X132100000Y-81175000D01*
X143300000Y-95000000D02*
X143300000Y-97829120D01*
X132100000Y-90100000D02*
X134700000Y-92700000D01*
X132100000Y-81175000D02*
X132100000Y-90100000D01*
X134000000Y-80500000D02*
X132775000Y-80500000D01*
X155150001Y-115000001D02*
X155199998Y-114950000D01*
X155200000Y-114950000D02*
X154450000Y-114950000D01*
X154400000Y-115000000D02*
X153625000Y-115000000D01*
X154450000Y-114950000D02*
X154400000Y-115000000D01*
X155150000Y-118699999D02*
X155200002Y-118649999D01*
X152499999Y-117100000D02*
X153625000Y-118225001D01*
X150302747Y-117100000D02*
X152499999Y-117100000D01*
X149300000Y-104500000D02*
X149300000Y-116097253D01*
X153625000Y-118225001D02*
X153625000Y-118700001D01*
X142800000Y-98000000D02*
X149300000Y-104500000D01*
X142800000Y-95100000D02*
X142800000Y-98000000D01*
X131600000Y-90200000D02*
X134500000Y-93100000D01*
X131600000Y-79175000D02*
X131600000Y-90200000D01*
X149300000Y-116097253D02*
X150302747Y-117100000D01*
X140800000Y-93100000D02*
X142800000Y-95100000D01*
X134500000Y-93100000D02*
X140800000Y-93100000D01*
X132775000Y-78000000D02*
X131600000Y-79175000D01*
X134000000Y-78000000D02*
X132775000Y-78000000D01*
X155200000Y-118650000D02*
X154450000Y-118650000D01*
X154399999Y-118700001D02*
X153625000Y-118700001D01*
X154450000Y-118650000D02*
X154399999Y-118700001D01*
D35*
X79300000Y-77943500D02*
X79300000Y-76000000D01*
D39*
X79300000Y-76000000D02*
X79300000Y-70844200D01*
X77150000Y-65850000D02*
X77150000Y-63000000D01*
X79300000Y-68000000D02*
X77150000Y-65850000D01*
X79300000Y-70844200D02*
X79300000Y-68000000D01*
X75750000Y-56750000D02*
X75750000Y-54750000D01*
X76500000Y-57500000D02*
X75750000Y-56750000D01*
X77150000Y-61650000D02*
X76500000Y-61000000D01*
X76500000Y-61000000D02*
X76500000Y-57500000D01*
X77150000Y-63000000D02*
X77150000Y-61650000D01*
D35*
X89300000Y-77943500D02*
X89300000Y-76000000D01*
D39*
X89300000Y-76000000D02*
X89300000Y-70844200D01*
X87150000Y-65850000D02*
X87150000Y-63000000D01*
X89300000Y-68000000D02*
X87150000Y-65850000D01*
X89300000Y-70844200D02*
X89300000Y-68000000D01*
X87150000Y-63000000D02*
X87150000Y-61650000D01*
X87150000Y-61650000D02*
X86500000Y-61000000D01*
X86500000Y-61000000D02*
X86500000Y-57500000D01*
X85750000Y-56750000D02*
X85750000Y-54750000D01*
X86500000Y-57500000D02*
X85750000Y-56750000D01*
D35*
X99300000Y-77943500D02*
X99300000Y-76000000D01*
D39*
X99300000Y-76000000D02*
X99300000Y-70844200D01*
X97150000Y-65850000D02*
X97150000Y-63000000D01*
X99300000Y-68000000D02*
X97150000Y-65850000D01*
X99300000Y-70844200D02*
X99300000Y-68000000D01*
X97150000Y-63000000D02*
X97150000Y-61150000D01*
X97150000Y-61150000D02*
X96500000Y-60500000D01*
X96500000Y-60500000D02*
X96500000Y-57500000D01*
X95750000Y-56750000D02*
X95750000Y-54750000D01*
X96500000Y-57500000D02*
X95750000Y-56750000D01*
D35*
X109300000Y-77943500D02*
X109300000Y-76000000D01*
D39*
X109300000Y-76000000D02*
X109300000Y-70844200D01*
X107150000Y-65650000D02*
X107150000Y-63000000D01*
X109300000Y-67800000D02*
X107150000Y-65650000D01*
X109300000Y-70844200D02*
X109300000Y-67800000D01*
X107150000Y-63000000D02*
X107150000Y-61650000D01*
X107150000Y-61650000D02*
X106500000Y-61000000D01*
X106500000Y-61000000D02*
X106500000Y-57500000D01*
X105750000Y-56750000D02*
X105750000Y-54750000D01*
X106500000Y-57500000D02*
X105750000Y-56750000D01*
D35*
X119300000Y-77943500D02*
X119300000Y-76000000D01*
D39*
X119300000Y-76000000D02*
X119300000Y-70844200D01*
X119300000Y-70844200D02*
X119300000Y-68000000D01*
X117150000Y-65850000D02*
X117150000Y-63000000D01*
X119300000Y-68000000D02*
X117150000Y-65850000D01*
X117150000Y-63000000D02*
X117150000Y-62150000D01*
X117150000Y-62150000D02*
X116500000Y-61500000D01*
X116500000Y-61500000D02*
X116500000Y-57500000D01*
X115750000Y-56750000D02*
X115750000Y-54750000D01*
X116500000Y-57500000D02*
X115750000Y-56750000D01*
D37*
X78275000Y-82750000D02*
X78275000Y-82437500D01*
X78325000Y-82487500D02*
X80012500Y-80800000D01*
X78325000Y-82800000D02*
X78325000Y-82487500D01*
X88075000Y-82750000D02*
X88075000Y-82637500D01*
X88125000Y-82687500D02*
X90012500Y-80800000D01*
X88125000Y-82800000D02*
X88125000Y-82687500D01*
X98125000Y-82687500D02*
X100012500Y-80800000D01*
X98125000Y-82800000D02*
X98125000Y-82687500D01*
X108075000Y-82750000D02*
X108075000Y-82637500D01*
X108125000Y-82687500D02*
X110012500Y-80800000D01*
X108125000Y-82800000D02*
X108125000Y-82687500D01*
X118125000Y-82687500D02*
X120012500Y-80800000D01*
X118125000Y-82800000D02*
X118125000Y-82687500D01*
D36*
X77014000Y-79489000D02*
X78325000Y-80800000D01*
X77014000Y-77943500D02*
X77014000Y-79489000D01*
X87014000Y-79689000D02*
X88125000Y-80800000D01*
X87014000Y-77943500D02*
X87014000Y-79689000D01*
X97014000Y-79689000D02*
X98125000Y-80800000D01*
X97014000Y-77943500D02*
X97014000Y-79689000D01*
X107014000Y-79689000D02*
X108125000Y-80800000D01*
X107014000Y-77943500D02*
X107014000Y-79689000D01*
X117014000Y-79689000D02*
X118125000Y-80800000D01*
X117014000Y-77943500D02*
X117014000Y-79689000D01*
D37*
X139314999Y-107125000D02*
X138300000Y-108139998D01*
X141599998Y-107124998D02*
X139314999Y-107125000D01*
X141600000Y-107125000D02*
X142775000Y-107125000D01*
X143200000Y-106700000D02*
X144300000Y-106700000D01*
X142775000Y-107125000D02*
X143200000Y-106700000D01*
X161940000Y-114000000D02*
X163700000Y-115760000D01*
X158775000Y-114025000D02*
X158800000Y-114000000D01*
X158800000Y-114000000D02*
X161940000Y-114000000D01*
X158775000Y-115000000D02*
X158775000Y-114025000D01*
X157200000Y-114000000D02*
X158800000Y-114000000D01*
X157200000Y-117700000D02*
X157200000Y-119100000D01*
X157200000Y-119100000D02*
X158100000Y-120000000D01*
X162000000Y-120000000D02*
X163700000Y-118300000D01*
X158775000Y-119975000D02*
X158800000Y-120000000D01*
X158800000Y-120000000D02*
X162000000Y-120000000D01*
X158775000Y-118700000D02*
X158775000Y-119975000D01*
X158100000Y-120000000D02*
X158800000Y-120000000D01*
X138919997Y-111300001D02*
X138300000Y-110680001D01*
X141475001Y-111300001D02*
X138919997Y-111300001D01*
X134300000Y-119380000D02*
X138300000Y-123380000D01*
X134300000Y-97800000D02*
X134300000Y-119380000D01*
X132100000Y-95600000D02*
X134300000Y-97800000D01*
X112700000Y-95600000D02*
X132100000Y-95600000D01*
X109575000Y-99900000D02*
X111400000Y-98075000D01*
X95900000Y-99900000D02*
X109575000Y-99900000D01*
X94300000Y-98300000D02*
X95900000Y-99900000D01*
X111400000Y-96900000D02*
X112700000Y-95600000D01*
X111400000Y-98075000D02*
X111400000Y-96900000D01*
X94300000Y-97125000D02*
X94300000Y-98300000D01*
X76625000Y-80850000D02*
X76675000Y-80800000D01*
X76675000Y-82800000D02*
X76675000Y-80800000D01*
X79975000Y-85035000D02*
X79955000Y-85055000D01*
X79975000Y-82800000D02*
X79975000Y-85035000D01*
X78405000Y-85055000D02*
X79955000Y-85055000D01*
X76675000Y-83325000D02*
X78405000Y-85055000D01*
X76675000Y-82800000D02*
X76675000Y-83325000D01*
X94465000Y-86375000D02*
X94465000Y-85375000D01*
X94145000Y-85055000D02*
X79955000Y-85055000D01*
X94465000Y-85375000D02*
X94145000Y-85055000D01*
X134800000Y-117340000D02*
X138300000Y-120840000D01*
X134800000Y-97600000D02*
X134800000Y-117340000D01*
X132400000Y-95200000D02*
X134800000Y-97600000D01*
X112500000Y-95200000D02*
X132400000Y-95200000D01*
X111000000Y-96700000D02*
X112500000Y-95200000D01*
X111000000Y-97900000D02*
X111000000Y-96700000D01*
X109400000Y-99500000D02*
X111000000Y-97900000D01*
X99875000Y-99500000D02*
X109400000Y-99500000D01*
X97500000Y-97125000D02*
X99875000Y-99500000D01*
X86425000Y-80850000D02*
X86475000Y-80800000D01*
X86475000Y-80800000D02*
X86475000Y-82800000D01*
X86475000Y-83975000D02*
X86475000Y-82800000D01*
X87000000Y-84500000D02*
X86475000Y-83975000D01*
X89975000Y-84425000D02*
X89900000Y-84500000D01*
X89975000Y-82800000D02*
X89975000Y-84425000D01*
X89900000Y-84500000D02*
X87000000Y-84500000D01*
X97665000Y-86375000D02*
X97665000Y-85375000D01*
X96790000Y-84500000D02*
X89900000Y-84500000D01*
X97665000Y-85375000D02*
X96790000Y-84500000D01*
X135300000Y-115300000D02*
X138300000Y-118300000D01*
X135300000Y-97400000D02*
X135300000Y-115300000D01*
X112300000Y-94800000D02*
X132700000Y-94800000D01*
X132700000Y-94800000D02*
X135300000Y-97400000D01*
X110600000Y-96500000D02*
X112300000Y-94800000D01*
X110600000Y-97777748D02*
X110600000Y-96500000D01*
X109277748Y-99100000D02*
X110600000Y-97777748D01*
X102675000Y-99100000D02*
X109277748Y-99100000D01*
X100700000Y-97125000D02*
X102675000Y-99100000D01*
X96475000Y-80800000D02*
X96475000Y-82800000D01*
X96475000Y-83475000D02*
X96475000Y-82800000D01*
X96900000Y-83900000D02*
X96475000Y-83475000D01*
X99950000Y-83900000D02*
X96900000Y-83900000D01*
X100865000Y-86375000D02*
X100865000Y-85375000D01*
X99950000Y-84460000D02*
X99950000Y-83900000D01*
X100865000Y-85375000D02*
X99950000Y-84460000D01*
X99950000Y-82825000D02*
X99975000Y-82800000D01*
X99950000Y-83900000D02*
X99950000Y-82825000D01*
X135700000Y-113160000D02*
X138300000Y-115760000D01*
X135700000Y-97100000D02*
X135700000Y-113160000D01*
X133000000Y-94400000D02*
X135700000Y-97100000D01*
X112100000Y-94400000D02*
X133000000Y-94400000D01*
X110200000Y-96300000D02*
X112100000Y-94400000D01*
X110200000Y-97600000D02*
X110200000Y-96300000D01*
X109100000Y-98700000D02*
X110200000Y-97600000D01*
X105475000Y-98700000D02*
X109100000Y-98700000D01*
X103900000Y-97125000D02*
X105475000Y-98700000D01*
X106425000Y-80850000D02*
X106475000Y-80800000D01*
X109500000Y-83750000D02*
X106400000Y-83750000D01*
X109975000Y-83275000D02*
X109500000Y-83750000D01*
X109975000Y-82800000D02*
X109975000Y-83275000D01*
X106475000Y-80800000D02*
X106475000Y-82800000D01*
X106475000Y-83675000D02*
X106400000Y-83750000D01*
X106475000Y-82800000D02*
X106475000Y-83675000D01*
X104065000Y-86375000D02*
X104065000Y-85375000D01*
X105690000Y-83750000D02*
X106400000Y-83750000D01*
X104065000Y-85375000D02*
X105690000Y-83750000D01*
X136156444Y-111076444D02*
X138300000Y-113220000D01*
X136156444Y-96856444D02*
X136156444Y-111076444D01*
X111900000Y-94000000D02*
X133300000Y-94000000D01*
X109800000Y-96100000D02*
X111900000Y-94000000D01*
X109800000Y-97400000D02*
X109800000Y-96100000D01*
X108900000Y-98300000D02*
X109800000Y-97400000D01*
X133300000Y-94000000D02*
X136156444Y-96856444D01*
X108275000Y-98300000D02*
X108900000Y-98300000D01*
X107100000Y-97125000D02*
X108275000Y-98300000D01*
X116475000Y-80800000D02*
X116475000Y-82800000D01*
X119975000Y-83925000D02*
X119975000Y-82800000D01*
X119650000Y-84250000D02*
X119975000Y-83925000D01*
X116475000Y-84225000D02*
X116450000Y-84250000D01*
X116475000Y-82800000D02*
X116475000Y-84225000D01*
X116450000Y-84250000D02*
X119650000Y-84250000D01*
X107265000Y-86375000D02*
X107265000Y-85375000D01*
X108390000Y-84250000D02*
X116450000Y-84250000D01*
X107265000Y-85375000D02*
X108390000Y-84250000D01*
D39*
X166340000Y-120840000D02*
X166500000Y-121000000D01*
X163700000Y-120840000D02*
X166340000Y-120840000D01*
D37*
X151925000Y-101400000D02*
X153625000Y-99700000D01*
X148300000Y-101400000D02*
X151925000Y-101400000D01*
X141400000Y-91900000D02*
X144300000Y-94800000D01*
X144300000Y-97400000D02*
X148300000Y-101400000D01*
X135200000Y-91900000D02*
X141400000Y-91900000D01*
X144300000Y-94800000D02*
X144300000Y-97400000D01*
X134750000Y-91450000D02*
X135200000Y-91900000D01*
X134750000Y-85250000D02*
X134750000Y-91450000D01*
X139500000Y-80500000D02*
X134750000Y-85250000D01*
X144000000Y-80500000D02*
X139500000Y-80500000D01*
X155200000Y-99650000D02*
X154350000Y-99650000D01*
X154300000Y-99700000D02*
X153625000Y-99700000D01*
X154350000Y-99650000D02*
X154300000Y-99700000D01*
X151925000Y-101800000D02*
X153625000Y-103500000D01*
X148000000Y-101800000D02*
X151925000Y-101800000D01*
X143800000Y-97600000D02*
X148000000Y-101800000D01*
X143800000Y-94900000D02*
X143800000Y-97600000D01*
X135000000Y-92300000D02*
X141200000Y-92300000D01*
X134300000Y-91600000D02*
X135000000Y-92300000D01*
X134300000Y-85000000D02*
X134300000Y-91600000D01*
X141300000Y-78000000D02*
X134300000Y-85000000D01*
X141200000Y-92300000D02*
X143800000Y-94900000D01*
X144000000Y-78000000D02*
X141300000Y-78000000D01*
X155200000Y-103450000D02*
X154450000Y-103450000D01*
X154400000Y-103500000D02*
X153625000Y-103500000D01*
X154450000Y-103450000D02*
X154400000Y-103500000D01*
X142300000Y-98126373D02*
X148800000Y-104626373D01*
X140600000Y-93500000D02*
X142300000Y-95200000D01*
X148800000Y-104626373D02*
X148800000Y-111199998D01*
X127000000Y-86200000D02*
X134300000Y-93500000D01*
X134300000Y-93500000D02*
X140600000Y-93500000D01*
X127000000Y-57100000D02*
X127000000Y-86200000D01*
X142300000Y-95200000D02*
X142300000Y-98126373D01*
X128600000Y-55500000D02*
X127000000Y-57100000D01*
X134000000Y-55500000D02*
X128600000Y-55500000D01*
X147699998Y-112300000D02*
X148800000Y-111199998D01*
X147000000Y-112300000D02*
X147699998Y-112300000D01*
X145175000Y-115000000D02*
X145175000Y-114825000D01*
X147000000Y-113000000D02*
X147000000Y-112300000D01*
X145175000Y-114825000D02*
X147000000Y-113000000D01*
D35*
X138300000Y-131000000D02*
X140750000Y-131000000D01*
X143650000Y-131000000D02*
X144000000Y-130650000D01*
X140750000Y-131000000D02*
X143650000Y-131000000D01*
D39*
X138300000Y-105600000D02*
X140600000Y-105600000D01*
X140560000Y-103060000D02*
X140600000Y-103100000D01*
X138300000Y-103060000D02*
X140560000Y-103060000D01*
D35*
X166500000Y-131000000D02*
X163700000Y-131000000D01*
X155000000Y-132800000D02*
X159100000Y-132800000D01*
X155000000Y-132800000D02*
X150100000Y-132800000D01*
X149000000Y-131700000D02*
X149000000Y-130650000D01*
X150100000Y-132800000D02*
X149000000Y-131700000D01*
X160600000Y-131300000D02*
X159100000Y-132800000D01*
X160600000Y-130275000D02*
X160600000Y-131300000D01*
X163700000Y-131000000D02*
X162500000Y-131000000D01*
X161775000Y-130275000D02*
X160600000Y-130275000D01*
X162500000Y-131000000D02*
X161775000Y-130275000D01*
D37*
X118096780Y-57638820D02*
X118186959Y-57676173D01*
X118264402Y-57735598D01*
X118323827Y-57813041D01*
X118361180Y-57903220D01*
X118375000Y-58008196D01*
X118375000Y-61222054D01*
X117431250Y-61225000D01*
X117275000Y-61381250D01*
X117275000Y-62875000D01*
X117295000Y-62875000D01*
X117295000Y-63125000D01*
X117275000Y-63125000D01*
X117275000Y-64618750D01*
X117431250Y-64775000D01*
X118377601Y-64777954D01*
X118393106Y-64895726D01*
X118401552Y-64927245D01*
X118451502Y-65047835D01*
X118467818Y-65076096D01*
X118547278Y-65179649D01*
X118570351Y-65202722D01*
X118673904Y-65282182D01*
X118702165Y-65298498D01*
X118822755Y-65348448D01*
X118854274Y-65356894D01*
X118983684Y-65373931D01*
X119000000Y-65375000D01*
X122241804Y-65375000D01*
X122346780Y-65388820D01*
X122436959Y-65426173D01*
X122514402Y-65485598D01*
X122573827Y-65563041D01*
X122611180Y-65653220D01*
X122625000Y-65758196D01*
X122625000Y-75491804D01*
X122611180Y-75596780D01*
X122573827Y-75686959D01*
X122514402Y-75764402D01*
X122436959Y-75823827D01*
X122346780Y-75861180D01*
X122241804Y-75875000D01*
X114508196Y-75875000D01*
X114403220Y-75861180D01*
X114313041Y-75823827D01*
X114235598Y-75764402D01*
X114176173Y-75686959D01*
X114138820Y-75596780D01*
X114125000Y-75491804D01*
X114125000Y-73803300D01*
X116487576Y-73803300D01*
X116499643Y-73925821D01*
X116535381Y-74043634D01*
X116593417Y-74152211D01*
X116671520Y-74247380D01*
X116766689Y-74325483D01*
X116875266Y-74383519D01*
X116993079Y-74419257D01*
X117115600Y-74431324D01*
X119018750Y-74428300D01*
X119175000Y-74272050D01*
X119175000Y-70969200D01*
X119425000Y-70969200D01*
X119425000Y-74272050D01*
X119581250Y-74428300D01*
X121484400Y-74431324D01*
X121606921Y-74419257D01*
X121724734Y-74383519D01*
X121833311Y-74325483D01*
X121928480Y-74247380D01*
X122006583Y-74152211D01*
X122064619Y-74043634D01*
X122100357Y-73925821D01*
X122112424Y-73803300D01*
X122109400Y-71125450D01*
X121953150Y-70969200D01*
X119425000Y-70969200D01*
X119175000Y-70969200D01*
X116646850Y-70969200D01*
X116490600Y-71125450D01*
X116487576Y-73803300D01*
X114125000Y-73803300D01*
X114125000Y-67885100D01*
X116487576Y-67885100D01*
X116490600Y-70562950D01*
X116646850Y-70719200D01*
X119175000Y-70719200D01*
X119175000Y-67416350D01*
X119425000Y-67416350D01*
X119425000Y-70719200D01*
X121953150Y-70719200D01*
X122109400Y-70562950D01*
X122112424Y-67885100D01*
X122100357Y-67762579D01*
X122064619Y-67644766D01*
X122006583Y-67536189D01*
X121928480Y-67441020D01*
X121833311Y-67362917D01*
X121724734Y-67304881D01*
X121606921Y-67269143D01*
X121484400Y-67257076D01*
X119581250Y-67260100D01*
X119425000Y-67416350D01*
X119175000Y-67416350D01*
X119018750Y-67260100D01*
X117115600Y-67257076D01*
X116993079Y-67269143D01*
X116875266Y-67304881D01*
X116766689Y-67362917D01*
X116671520Y-67441020D01*
X116593417Y-67536189D01*
X116535381Y-67644766D01*
X116499643Y-67762579D01*
X116487576Y-67885100D01*
X114125000Y-67885100D01*
X114125000Y-64150000D01*
X115271976Y-64150000D01*
X115284043Y-64272521D01*
X115319781Y-64390334D01*
X115377817Y-64498911D01*
X115455920Y-64594080D01*
X115551089Y-64672183D01*
X115659666Y-64730219D01*
X115777479Y-64765957D01*
X115900000Y-64778024D01*
X116868750Y-64775000D01*
X117025000Y-64618750D01*
X117025000Y-63125000D01*
X115431250Y-63125000D01*
X115275000Y-63281250D01*
X115271976Y-64150000D01*
X114125000Y-64150000D01*
X114125000Y-61850000D01*
X115271976Y-61850000D01*
X115275000Y-62718750D01*
X115431250Y-62875000D01*
X117025000Y-62875000D01*
X117025000Y-61381250D01*
X116868750Y-61225000D01*
X115900000Y-61221976D01*
X115777479Y-61234043D01*
X115659666Y-61269781D01*
X115551089Y-61327817D01*
X115455920Y-61405920D01*
X115377817Y-61501089D01*
X115319781Y-61609666D01*
X115284043Y-61727479D01*
X115271976Y-61850000D01*
X114125000Y-61850000D01*
X114125000Y-58008196D01*
X114138820Y-57903220D01*
X114176173Y-57813041D01*
X114235598Y-57735598D01*
X114313041Y-57676173D01*
X114403220Y-57638820D01*
X114508196Y-57625000D01*
X117991804Y-57625000D01*
X118096780Y-57638820D01*
%TA.AperFunction,Conductor*%
D40*
G36*
X118096780Y-57638820D02*
G01*
X118186959Y-57676173D01*
X118264402Y-57735598D01*
X118323827Y-57813041D01*
X118361180Y-57903220D01*
X118375000Y-58008196D01*
X118375000Y-61222054D01*
X117431250Y-61225000D01*
X117275000Y-61381250D01*
X117275000Y-62875000D01*
X117295000Y-62875000D01*
X117295000Y-63125000D01*
X117275000Y-63125000D01*
X117275000Y-64618750D01*
X117431250Y-64775000D01*
X118377601Y-64777954D01*
X118393106Y-64895726D01*
X118401552Y-64927245D01*
X118451502Y-65047835D01*
X118467818Y-65076096D01*
X118547278Y-65179649D01*
X118570351Y-65202722D01*
X118673904Y-65282182D01*
X118702165Y-65298498D01*
X118822755Y-65348448D01*
X118854274Y-65356894D01*
X118983684Y-65373931D01*
X119000000Y-65375000D01*
X122241804Y-65375000D01*
X122346780Y-65388820D01*
X122436959Y-65426173D01*
X122514402Y-65485598D01*
X122573827Y-65563041D01*
X122611180Y-65653220D01*
X122625000Y-65758196D01*
X122625000Y-75491804D01*
X122611180Y-75596780D01*
X122573827Y-75686959D01*
X122514402Y-75764402D01*
X122436959Y-75823827D01*
X122346780Y-75861180D01*
X122241804Y-75875000D01*
X114508196Y-75875000D01*
X114403220Y-75861180D01*
X114313041Y-75823827D01*
X114235598Y-75764402D01*
X114176173Y-75686959D01*
X114138820Y-75596780D01*
X114125000Y-75491804D01*
X114125000Y-73803300D01*
X116487576Y-73803300D01*
X116499643Y-73925821D01*
X116535381Y-74043634D01*
X116593417Y-74152211D01*
X116671520Y-74247380D01*
X116766689Y-74325483D01*
X116875266Y-74383519D01*
X116993079Y-74419257D01*
X117115600Y-74431324D01*
X119018750Y-74428300D01*
X119175000Y-74272050D01*
X119175000Y-70969200D01*
X119425000Y-70969200D01*
X119425000Y-74272050D01*
X119581250Y-74428300D01*
X121484400Y-74431324D01*
X121606921Y-74419257D01*
X121724734Y-74383519D01*
X121833311Y-74325483D01*
X121928480Y-74247380D01*
X122006583Y-74152211D01*
X122064619Y-74043634D01*
X122100357Y-73925821D01*
X122112424Y-73803300D01*
X122109400Y-71125450D01*
X121953150Y-70969200D01*
X119425000Y-70969200D01*
X119175000Y-70969200D01*
X116646850Y-70969200D01*
X116490600Y-71125450D01*
X116487576Y-73803300D01*
X114125000Y-73803300D01*
X114125000Y-67885100D01*
X116487576Y-67885100D01*
X116490600Y-70562950D01*
X116646850Y-70719200D01*
X119175000Y-70719200D01*
X119175000Y-67416350D01*
X119425000Y-67416350D01*
X119425000Y-70719200D01*
X121953150Y-70719200D01*
X122109400Y-70562950D01*
X122112424Y-67885100D01*
X122100357Y-67762579D01*
X122064619Y-67644766D01*
X122006583Y-67536189D01*
X121928480Y-67441020D01*
X121833311Y-67362917D01*
X121724734Y-67304881D01*
X121606921Y-67269143D01*
X121484400Y-67257076D01*
X119581250Y-67260100D01*
X119425000Y-67416350D01*
X119175000Y-67416350D01*
X119018750Y-67260100D01*
X117115600Y-67257076D01*
X116993079Y-67269143D01*
X116875266Y-67304881D01*
X116766689Y-67362917D01*
X116671520Y-67441020D01*
X116593417Y-67536189D01*
X116535381Y-67644766D01*
X116499643Y-67762579D01*
X116487576Y-67885100D01*
X114125000Y-67885100D01*
X114125000Y-64150000D01*
X115271976Y-64150000D01*
X115284043Y-64272521D01*
X115319781Y-64390334D01*
X115377817Y-64498911D01*
X115455920Y-64594080D01*
X115551089Y-64672183D01*
X115659666Y-64730219D01*
X115777479Y-64765957D01*
X115900000Y-64778024D01*
X116868750Y-64775000D01*
X117025000Y-64618750D01*
X117025000Y-63125000D01*
X115431250Y-63125000D01*
X115275000Y-63281250D01*
X115271976Y-64150000D01*
X114125000Y-64150000D01*
X114125000Y-61850000D01*
X115271976Y-61850000D01*
X115275000Y-62718750D01*
X115431250Y-62875000D01*
X117025000Y-62875000D01*
X117025000Y-61381250D01*
X116868750Y-61225000D01*
X115900000Y-61221976D01*
X115777479Y-61234043D01*
X115659666Y-61269781D01*
X115551089Y-61327817D01*
X115455920Y-61405920D01*
X115377817Y-61501089D01*
X115319781Y-61609666D01*
X115284043Y-61727479D01*
X115271976Y-61850000D01*
X114125000Y-61850000D01*
X114125000Y-58008196D01*
X114138820Y-57903220D01*
X114176173Y-57813041D01*
X114235598Y-57735598D01*
X114313041Y-57676173D01*
X114403220Y-57638820D01*
X114508196Y-57625000D01*
X117991804Y-57625000D01*
X118096780Y-57638820D01*
G37*
%TD.AperFunction*%
D37*
X108096780Y-57638820D02*
X108186959Y-57676173D01*
X108264402Y-57735598D01*
X108323827Y-57813041D01*
X108361180Y-57903220D01*
X108375000Y-58008196D01*
X108375000Y-61222054D01*
X107431250Y-61225000D01*
X107275000Y-61381250D01*
X107275000Y-62875000D01*
X107295000Y-62875000D01*
X107295000Y-63125000D01*
X107275000Y-63125000D01*
X107275000Y-64618750D01*
X107431250Y-64775000D01*
X108377601Y-64777954D01*
X108393106Y-64895726D01*
X108401552Y-64927245D01*
X108451502Y-65047835D01*
X108467818Y-65076096D01*
X108547278Y-65179649D01*
X108570351Y-65202722D01*
X108673904Y-65282182D01*
X108702165Y-65298498D01*
X108822755Y-65348448D01*
X108854274Y-65356894D01*
X108983684Y-65373931D01*
X109000000Y-65375000D01*
X112241804Y-65375000D01*
X112346780Y-65388820D01*
X112436959Y-65426173D01*
X112514402Y-65485598D01*
X112573827Y-65563041D01*
X112611180Y-65653220D01*
X112625000Y-65758196D01*
X112625000Y-75491804D01*
X112611180Y-75596780D01*
X112573827Y-75686959D01*
X112514402Y-75764402D01*
X112436959Y-75823827D01*
X112346780Y-75861180D01*
X112241804Y-75875000D01*
X104508196Y-75875000D01*
X104403220Y-75861180D01*
X104313041Y-75823827D01*
X104235598Y-75764402D01*
X104176173Y-75686959D01*
X104138820Y-75596780D01*
X104125000Y-75491804D01*
X104125000Y-73803300D01*
X106487576Y-73803300D01*
X106499643Y-73925821D01*
X106535381Y-74043634D01*
X106593417Y-74152211D01*
X106671520Y-74247380D01*
X106766689Y-74325483D01*
X106875266Y-74383519D01*
X106993079Y-74419257D01*
X107115600Y-74431324D01*
X109018750Y-74428300D01*
X109175000Y-74272050D01*
X109175000Y-70969200D01*
X109425000Y-70969200D01*
X109425000Y-74272050D01*
X109581250Y-74428300D01*
X111484400Y-74431324D01*
X111606921Y-74419257D01*
X111724734Y-74383519D01*
X111833311Y-74325483D01*
X111928480Y-74247380D01*
X112006583Y-74152211D01*
X112064619Y-74043634D01*
X112100357Y-73925821D01*
X112112424Y-73803300D01*
X112109400Y-71125450D01*
X111953150Y-70969200D01*
X109425000Y-70969200D01*
X109175000Y-70969200D01*
X106646850Y-70969200D01*
X106490600Y-71125450D01*
X106487576Y-73803300D01*
X104125000Y-73803300D01*
X104125000Y-67885100D01*
X106487576Y-67885100D01*
X106490600Y-70562950D01*
X106646850Y-70719200D01*
X109175000Y-70719200D01*
X109175000Y-67416350D01*
X109425000Y-67416350D01*
X109425000Y-70719200D01*
X111953150Y-70719200D01*
X112109400Y-70562950D01*
X112112424Y-67885100D01*
X112100357Y-67762579D01*
X112064619Y-67644766D01*
X112006583Y-67536189D01*
X111928480Y-67441020D01*
X111833311Y-67362917D01*
X111724734Y-67304881D01*
X111606921Y-67269143D01*
X111484400Y-67257076D01*
X109581250Y-67260100D01*
X109425000Y-67416350D01*
X109175000Y-67416350D01*
X109018750Y-67260100D01*
X107115600Y-67257076D01*
X106993079Y-67269143D01*
X106875266Y-67304881D01*
X106766689Y-67362917D01*
X106671520Y-67441020D01*
X106593417Y-67536189D01*
X106535381Y-67644766D01*
X106499643Y-67762579D01*
X106487576Y-67885100D01*
X104125000Y-67885100D01*
X104125000Y-64150000D01*
X105271976Y-64150000D01*
X105284043Y-64272521D01*
X105319781Y-64390334D01*
X105377817Y-64498911D01*
X105455920Y-64594080D01*
X105551089Y-64672183D01*
X105659666Y-64730219D01*
X105777479Y-64765957D01*
X105900000Y-64778024D01*
X106868750Y-64775000D01*
X107025000Y-64618750D01*
X107025000Y-63125000D01*
X105431250Y-63125000D01*
X105275000Y-63281250D01*
X105271976Y-64150000D01*
X104125000Y-64150000D01*
X104125000Y-61850000D01*
X105271976Y-61850000D01*
X105275000Y-62718750D01*
X105431250Y-62875000D01*
X107025000Y-62875000D01*
X107025000Y-61381250D01*
X106868750Y-61225000D01*
X105900000Y-61221976D01*
X105777479Y-61234043D01*
X105659666Y-61269781D01*
X105551089Y-61327817D01*
X105455920Y-61405920D01*
X105377817Y-61501089D01*
X105319781Y-61609666D01*
X105284043Y-61727479D01*
X105271976Y-61850000D01*
X104125000Y-61850000D01*
X104125000Y-58008196D01*
X104138820Y-57903220D01*
X104176173Y-57813041D01*
X104235598Y-57735598D01*
X104313041Y-57676173D01*
X104403220Y-57638820D01*
X104508196Y-57625000D01*
X107991804Y-57625000D01*
X108096780Y-57638820D01*
%TA.AperFunction,Conductor*%
D40*
G36*
X108096780Y-57638820D02*
G01*
X108186959Y-57676173D01*
X108264402Y-57735598D01*
X108323827Y-57813041D01*
X108361180Y-57903220D01*
X108375000Y-58008196D01*
X108375000Y-61222054D01*
X107431250Y-61225000D01*
X107275000Y-61381250D01*
X107275000Y-62875000D01*
X107295000Y-62875000D01*
X107295000Y-63125000D01*
X107275000Y-63125000D01*
X107275000Y-64618750D01*
X107431250Y-64775000D01*
X108377601Y-64777954D01*
X108393106Y-64895726D01*
X108401552Y-64927245D01*
X108451502Y-65047835D01*
X108467818Y-65076096D01*
X108547278Y-65179649D01*
X108570351Y-65202722D01*
X108673904Y-65282182D01*
X108702165Y-65298498D01*
X108822755Y-65348448D01*
X108854274Y-65356894D01*
X108983684Y-65373931D01*
X109000000Y-65375000D01*
X112241804Y-65375000D01*
X112346780Y-65388820D01*
X112436959Y-65426173D01*
X112514402Y-65485598D01*
X112573827Y-65563041D01*
X112611180Y-65653220D01*
X112625000Y-65758196D01*
X112625000Y-75491804D01*
X112611180Y-75596780D01*
X112573827Y-75686959D01*
X112514402Y-75764402D01*
X112436959Y-75823827D01*
X112346780Y-75861180D01*
X112241804Y-75875000D01*
X104508196Y-75875000D01*
X104403220Y-75861180D01*
X104313041Y-75823827D01*
X104235598Y-75764402D01*
X104176173Y-75686959D01*
X104138820Y-75596780D01*
X104125000Y-75491804D01*
X104125000Y-73803300D01*
X106487576Y-73803300D01*
X106499643Y-73925821D01*
X106535381Y-74043634D01*
X106593417Y-74152211D01*
X106671520Y-74247380D01*
X106766689Y-74325483D01*
X106875266Y-74383519D01*
X106993079Y-74419257D01*
X107115600Y-74431324D01*
X109018750Y-74428300D01*
X109175000Y-74272050D01*
X109175000Y-70969200D01*
X109425000Y-70969200D01*
X109425000Y-74272050D01*
X109581250Y-74428300D01*
X111484400Y-74431324D01*
X111606921Y-74419257D01*
X111724734Y-74383519D01*
X111833311Y-74325483D01*
X111928480Y-74247380D01*
X112006583Y-74152211D01*
X112064619Y-74043634D01*
X112100357Y-73925821D01*
X112112424Y-73803300D01*
X112109400Y-71125450D01*
X111953150Y-70969200D01*
X109425000Y-70969200D01*
X109175000Y-70969200D01*
X106646850Y-70969200D01*
X106490600Y-71125450D01*
X106487576Y-73803300D01*
X104125000Y-73803300D01*
X104125000Y-67885100D01*
X106487576Y-67885100D01*
X106490600Y-70562950D01*
X106646850Y-70719200D01*
X109175000Y-70719200D01*
X109175000Y-67416350D01*
X109425000Y-67416350D01*
X109425000Y-70719200D01*
X111953150Y-70719200D01*
X112109400Y-70562950D01*
X112112424Y-67885100D01*
X112100357Y-67762579D01*
X112064619Y-67644766D01*
X112006583Y-67536189D01*
X111928480Y-67441020D01*
X111833311Y-67362917D01*
X111724734Y-67304881D01*
X111606921Y-67269143D01*
X111484400Y-67257076D01*
X109581250Y-67260100D01*
X109425000Y-67416350D01*
X109175000Y-67416350D01*
X109018750Y-67260100D01*
X107115600Y-67257076D01*
X106993079Y-67269143D01*
X106875266Y-67304881D01*
X106766689Y-67362917D01*
X106671520Y-67441020D01*
X106593417Y-67536189D01*
X106535381Y-67644766D01*
X106499643Y-67762579D01*
X106487576Y-67885100D01*
X104125000Y-67885100D01*
X104125000Y-64150000D01*
X105271976Y-64150000D01*
X105284043Y-64272521D01*
X105319781Y-64390334D01*
X105377817Y-64498911D01*
X105455920Y-64594080D01*
X105551089Y-64672183D01*
X105659666Y-64730219D01*
X105777479Y-64765957D01*
X105900000Y-64778024D01*
X106868750Y-64775000D01*
X107025000Y-64618750D01*
X107025000Y-63125000D01*
X105431250Y-63125000D01*
X105275000Y-63281250D01*
X105271976Y-64150000D01*
X104125000Y-64150000D01*
X104125000Y-61850000D01*
X105271976Y-61850000D01*
X105275000Y-62718750D01*
X105431250Y-62875000D01*
X107025000Y-62875000D01*
X107025000Y-61381250D01*
X106868750Y-61225000D01*
X105900000Y-61221976D01*
X105777479Y-61234043D01*
X105659666Y-61269781D01*
X105551089Y-61327817D01*
X105455920Y-61405920D01*
X105377817Y-61501089D01*
X105319781Y-61609666D01*
X105284043Y-61727479D01*
X105271976Y-61850000D01*
X104125000Y-61850000D01*
X104125000Y-58008196D01*
X104138820Y-57903220D01*
X104176173Y-57813041D01*
X104235598Y-57735598D01*
X104313041Y-57676173D01*
X104403220Y-57638820D01*
X104508196Y-57625000D01*
X107991804Y-57625000D01*
X108096780Y-57638820D01*
G37*
%TD.AperFunction*%
D37*
X98096780Y-57638820D02*
X98186959Y-57676173D01*
X98264402Y-57735598D01*
X98323827Y-57813041D01*
X98361180Y-57903220D01*
X98375000Y-58008196D01*
X98375000Y-61222054D01*
X97431250Y-61225000D01*
X97275000Y-61381250D01*
X97275000Y-62875000D01*
X97295000Y-62875000D01*
X97295000Y-63125000D01*
X97275000Y-63125000D01*
X97275000Y-64618750D01*
X97431250Y-64775000D01*
X98377601Y-64777954D01*
X98393106Y-64895726D01*
X98401552Y-64927245D01*
X98451502Y-65047835D01*
X98467818Y-65076096D01*
X98547278Y-65179649D01*
X98570351Y-65202722D01*
X98673904Y-65282182D01*
X98702165Y-65298498D01*
X98822755Y-65348448D01*
X98854274Y-65356894D01*
X98983684Y-65373931D01*
X99000000Y-65375000D01*
X102241804Y-65375000D01*
X102346780Y-65388820D01*
X102436959Y-65426173D01*
X102514402Y-65485598D01*
X102573827Y-65563041D01*
X102611180Y-65653220D01*
X102625000Y-65758196D01*
X102625000Y-75491804D01*
X102611180Y-75596780D01*
X102573827Y-75686959D01*
X102514402Y-75764402D01*
X102436959Y-75823827D01*
X102346780Y-75861180D01*
X102241804Y-75875000D01*
X94508196Y-75875000D01*
X94403220Y-75861180D01*
X94313041Y-75823827D01*
X94235598Y-75764402D01*
X94176173Y-75686959D01*
X94138820Y-75596780D01*
X94125000Y-75491804D01*
X94125000Y-73803300D01*
X96487576Y-73803300D01*
X96499643Y-73925821D01*
X96535381Y-74043634D01*
X96593417Y-74152211D01*
X96671520Y-74247380D01*
X96766689Y-74325483D01*
X96875266Y-74383519D01*
X96993079Y-74419257D01*
X97115600Y-74431324D01*
X99018750Y-74428300D01*
X99175000Y-74272050D01*
X99175000Y-70969200D01*
X99425000Y-70969200D01*
X99425000Y-74272050D01*
X99581250Y-74428300D01*
X101484400Y-74431324D01*
X101606921Y-74419257D01*
X101724734Y-74383519D01*
X101833311Y-74325483D01*
X101928480Y-74247380D01*
X102006583Y-74152211D01*
X102064619Y-74043634D01*
X102100357Y-73925821D01*
X102112424Y-73803300D01*
X102109400Y-71125450D01*
X101953150Y-70969200D01*
X99425000Y-70969200D01*
X99175000Y-70969200D01*
X96646850Y-70969200D01*
X96490600Y-71125450D01*
X96487576Y-73803300D01*
X94125000Y-73803300D01*
X94125000Y-67885100D01*
X96487576Y-67885100D01*
X96490600Y-70562950D01*
X96646850Y-70719200D01*
X99175000Y-70719200D01*
X99175000Y-67416350D01*
X99425000Y-67416350D01*
X99425000Y-70719200D01*
X101953150Y-70719200D01*
X102109400Y-70562950D01*
X102112424Y-67885100D01*
X102100357Y-67762579D01*
X102064619Y-67644766D01*
X102006583Y-67536189D01*
X101928480Y-67441020D01*
X101833311Y-67362917D01*
X101724734Y-67304881D01*
X101606921Y-67269143D01*
X101484400Y-67257076D01*
X99581250Y-67260100D01*
X99425000Y-67416350D01*
X99175000Y-67416350D01*
X99018750Y-67260100D01*
X97115600Y-67257076D01*
X96993079Y-67269143D01*
X96875266Y-67304881D01*
X96766689Y-67362917D01*
X96671520Y-67441020D01*
X96593417Y-67536189D01*
X96535381Y-67644766D01*
X96499643Y-67762579D01*
X96487576Y-67885100D01*
X94125000Y-67885100D01*
X94125000Y-64150000D01*
X95271976Y-64150000D01*
X95284043Y-64272521D01*
X95319781Y-64390334D01*
X95377817Y-64498911D01*
X95455920Y-64594080D01*
X95551089Y-64672183D01*
X95659666Y-64730219D01*
X95777479Y-64765957D01*
X95900000Y-64778024D01*
X96868750Y-64775000D01*
X97025000Y-64618750D01*
X97025000Y-63125000D01*
X95431250Y-63125000D01*
X95275000Y-63281250D01*
X95271976Y-64150000D01*
X94125000Y-64150000D01*
X94125000Y-61850000D01*
X95271976Y-61850000D01*
X95275000Y-62718750D01*
X95431250Y-62875000D01*
X97025000Y-62875000D01*
X97025000Y-61381250D01*
X96868750Y-61225000D01*
X95900000Y-61221976D01*
X95777479Y-61234043D01*
X95659666Y-61269781D01*
X95551089Y-61327817D01*
X95455920Y-61405920D01*
X95377817Y-61501089D01*
X95319781Y-61609666D01*
X95284043Y-61727479D01*
X95271976Y-61850000D01*
X94125000Y-61850000D01*
X94125000Y-58008196D01*
X94138820Y-57903220D01*
X94176173Y-57813041D01*
X94235598Y-57735598D01*
X94313041Y-57676173D01*
X94403220Y-57638820D01*
X94508196Y-57625000D01*
X97991804Y-57625000D01*
X98096780Y-57638820D01*
%TA.AperFunction,Conductor*%
D40*
G36*
X98096780Y-57638820D02*
G01*
X98186959Y-57676173D01*
X98264402Y-57735598D01*
X98323827Y-57813041D01*
X98361180Y-57903220D01*
X98375000Y-58008196D01*
X98375000Y-61222054D01*
X97431250Y-61225000D01*
X97275000Y-61381250D01*
X97275000Y-62875000D01*
X97295000Y-62875000D01*
X97295000Y-63125000D01*
X97275000Y-63125000D01*
X97275000Y-64618750D01*
X97431250Y-64775000D01*
X98377601Y-64777954D01*
X98393106Y-64895726D01*
X98401552Y-64927245D01*
X98451502Y-65047835D01*
X98467818Y-65076096D01*
X98547278Y-65179649D01*
X98570351Y-65202722D01*
X98673904Y-65282182D01*
X98702165Y-65298498D01*
X98822755Y-65348448D01*
X98854274Y-65356894D01*
X98983684Y-65373931D01*
X99000000Y-65375000D01*
X102241804Y-65375000D01*
X102346780Y-65388820D01*
X102436959Y-65426173D01*
X102514402Y-65485598D01*
X102573827Y-65563041D01*
X102611180Y-65653220D01*
X102625000Y-65758196D01*
X102625000Y-75491804D01*
X102611180Y-75596780D01*
X102573827Y-75686959D01*
X102514402Y-75764402D01*
X102436959Y-75823827D01*
X102346780Y-75861180D01*
X102241804Y-75875000D01*
X94508196Y-75875000D01*
X94403220Y-75861180D01*
X94313041Y-75823827D01*
X94235598Y-75764402D01*
X94176173Y-75686959D01*
X94138820Y-75596780D01*
X94125000Y-75491804D01*
X94125000Y-73803300D01*
X96487576Y-73803300D01*
X96499643Y-73925821D01*
X96535381Y-74043634D01*
X96593417Y-74152211D01*
X96671520Y-74247380D01*
X96766689Y-74325483D01*
X96875266Y-74383519D01*
X96993079Y-74419257D01*
X97115600Y-74431324D01*
X99018750Y-74428300D01*
X99175000Y-74272050D01*
X99175000Y-70969200D01*
X99425000Y-70969200D01*
X99425000Y-74272050D01*
X99581250Y-74428300D01*
X101484400Y-74431324D01*
X101606921Y-74419257D01*
X101724734Y-74383519D01*
X101833311Y-74325483D01*
X101928480Y-74247380D01*
X102006583Y-74152211D01*
X102064619Y-74043634D01*
X102100357Y-73925821D01*
X102112424Y-73803300D01*
X102109400Y-71125450D01*
X101953150Y-70969200D01*
X99425000Y-70969200D01*
X99175000Y-70969200D01*
X96646850Y-70969200D01*
X96490600Y-71125450D01*
X96487576Y-73803300D01*
X94125000Y-73803300D01*
X94125000Y-67885100D01*
X96487576Y-67885100D01*
X96490600Y-70562950D01*
X96646850Y-70719200D01*
X99175000Y-70719200D01*
X99175000Y-67416350D01*
X99425000Y-67416350D01*
X99425000Y-70719200D01*
X101953150Y-70719200D01*
X102109400Y-70562950D01*
X102112424Y-67885100D01*
X102100357Y-67762579D01*
X102064619Y-67644766D01*
X102006583Y-67536189D01*
X101928480Y-67441020D01*
X101833311Y-67362917D01*
X101724734Y-67304881D01*
X101606921Y-67269143D01*
X101484400Y-67257076D01*
X99581250Y-67260100D01*
X99425000Y-67416350D01*
X99175000Y-67416350D01*
X99018750Y-67260100D01*
X97115600Y-67257076D01*
X96993079Y-67269143D01*
X96875266Y-67304881D01*
X96766689Y-67362917D01*
X96671520Y-67441020D01*
X96593417Y-67536189D01*
X96535381Y-67644766D01*
X96499643Y-67762579D01*
X96487576Y-67885100D01*
X94125000Y-67885100D01*
X94125000Y-64150000D01*
X95271976Y-64150000D01*
X95284043Y-64272521D01*
X95319781Y-64390334D01*
X95377817Y-64498911D01*
X95455920Y-64594080D01*
X95551089Y-64672183D01*
X95659666Y-64730219D01*
X95777479Y-64765957D01*
X95900000Y-64778024D01*
X96868750Y-64775000D01*
X97025000Y-64618750D01*
X97025000Y-63125000D01*
X95431250Y-63125000D01*
X95275000Y-63281250D01*
X95271976Y-64150000D01*
X94125000Y-64150000D01*
X94125000Y-61850000D01*
X95271976Y-61850000D01*
X95275000Y-62718750D01*
X95431250Y-62875000D01*
X97025000Y-62875000D01*
X97025000Y-61381250D01*
X96868750Y-61225000D01*
X95900000Y-61221976D01*
X95777479Y-61234043D01*
X95659666Y-61269781D01*
X95551089Y-61327817D01*
X95455920Y-61405920D01*
X95377817Y-61501089D01*
X95319781Y-61609666D01*
X95284043Y-61727479D01*
X95271976Y-61850000D01*
X94125000Y-61850000D01*
X94125000Y-58008196D01*
X94138820Y-57903220D01*
X94176173Y-57813041D01*
X94235598Y-57735598D01*
X94313041Y-57676173D01*
X94403220Y-57638820D01*
X94508196Y-57625000D01*
X97991804Y-57625000D01*
X98096780Y-57638820D01*
G37*
%TD.AperFunction*%
D37*
X88096780Y-57638820D02*
X88186959Y-57676173D01*
X88264402Y-57735598D01*
X88323827Y-57813041D01*
X88361180Y-57903220D01*
X88375000Y-58008196D01*
X88375000Y-61222054D01*
X87431250Y-61225000D01*
X87275000Y-61381250D01*
X87275000Y-62875000D01*
X87295000Y-62875000D01*
X87295000Y-63125000D01*
X87275000Y-63125000D01*
X87275000Y-64618750D01*
X87431250Y-64775000D01*
X88377601Y-64777954D01*
X88393106Y-64895726D01*
X88401552Y-64927245D01*
X88451502Y-65047835D01*
X88467818Y-65076096D01*
X88547278Y-65179649D01*
X88570351Y-65202722D01*
X88673904Y-65282182D01*
X88702165Y-65298498D01*
X88822755Y-65348448D01*
X88854274Y-65356894D01*
X88983684Y-65373931D01*
X89000000Y-65375000D01*
X92241804Y-65375000D01*
X92346780Y-65388820D01*
X92436959Y-65426173D01*
X92514402Y-65485598D01*
X92573827Y-65563041D01*
X92611180Y-65653220D01*
X92625000Y-65758196D01*
X92625000Y-75491804D01*
X92611180Y-75596780D01*
X92573827Y-75686959D01*
X92514402Y-75764402D01*
X92436959Y-75823827D01*
X92346780Y-75861180D01*
X92241804Y-75875000D01*
X84508196Y-75875000D01*
X84403220Y-75861180D01*
X84313041Y-75823827D01*
X84235598Y-75764402D01*
X84176173Y-75686959D01*
X84138820Y-75596780D01*
X84125000Y-75491804D01*
X84125000Y-73803300D01*
X86487576Y-73803300D01*
X86499643Y-73925821D01*
X86535381Y-74043634D01*
X86593417Y-74152211D01*
X86671520Y-74247380D01*
X86766689Y-74325483D01*
X86875266Y-74383519D01*
X86993079Y-74419257D01*
X87115600Y-74431324D01*
X89018750Y-74428300D01*
X89175000Y-74272050D01*
X89175000Y-70969200D01*
X89425000Y-70969200D01*
X89425000Y-74272050D01*
X89581250Y-74428300D01*
X91484400Y-74431324D01*
X91606921Y-74419257D01*
X91724734Y-74383519D01*
X91833311Y-74325483D01*
X91928480Y-74247380D01*
X92006583Y-74152211D01*
X92064619Y-74043634D01*
X92100357Y-73925821D01*
X92112424Y-73803300D01*
X92109400Y-71125450D01*
X91953150Y-70969200D01*
X89425000Y-70969200D01*
X89175000Y-70969200D01*
X86646850Y-70969200D01*
X86490600Y-71125450D01*
X86487576Y-73803300D01*
X84125000Y-73803300D01*
X84125000Y-67885100D01*
X86487576Y-67885100D01*
X86490600Y-70562950D01*
X86646850Y-70719200D01*
X89175000Y-70719200D01*
X89175000Y-67416350D01*
X89425000Y-67416350D01*
X89425000Y-70719200D01*
X91953150Y-70719200D01*
X92109400Y-70562950D01*
X92112424Y-67885100D01*
X92100357Y-67762579D01*
X92064619Y-67644766D01*
X92006583Y-67536189D01*
X91928480Y-67441020D01*
X91833311Y-67362917D01*
X91724734Y-67304881D01*
X91606921Y-67269143D01*
X91484400Y-67257076D01*
X89581250Y-67260100D01*
X89425000Y-67416350D01*
X89175000Y-67416350D01*
X89018750Y-67260100D01*
X87115600Y-67257076D01*
X86993079Y-67269143D01*
X86875266Y-67304881D01*
X86766689Y-67362917D01*
X86671520Y-67441020D01*
X86593417Y-67536189D01*
X86535381Y-67644766D01*
X86499643Y-67762579D01*
X86487576Y-67885100D01*
X84125000Y-67885100D01*
X84125000Y-64150000D01*
X85271976Y-64150000D01*
X85284043Y-64272521D01*
X85319781Y-64390334D01*
X85377817Y-64498911D01*
X85455920Y-64594080D01*
X85551089Y-64672183D01*
X85659666Y-64730219D01*
X85777479Y-64765957D01*
X85900000Y-64778024D01*
X86868750Y-64775000D01*
X87025000Y-64618750D01*
X87025000Y-63125000D01*
X85431250Y-63125000D01*
X85275000Y-63281250D01*
X85271976Y-64150000D01*
X84125000Y-64150000D01*
X84125000Y-61850000D01*
X85271976Y-61850000D01*
X85275000Y-62718750D01*
X85431250Y-62875000D01*
X87025000Y-62875000D01*
X87025000Y-61381250D01*
X86868750Y-61225000D01*
X85900000Y-61221976D01*
X85777479Y-61234043D01*
X85659666Y-61269781D01*
X85551089Y-61327817D01*
X85455920Y-61405920D01*
X85377817Y-61501089D01*
X85319781Y-61609666D01*
X85284043Y-61727479D01*
X85271976Y-61850000D01*
X84125000Y-61850000D01*
X84125000Y-58008196D01*
X84138820Y-57903220D01*
X84176173Y-57813041D01*
X84235598Y-57735598D01*
X84313041Y-57676173D01*
X84403220Y-57638820D01*
X84508196Y-57625000D01*
X87991804Y-57625000D01*
X88096780Y-57638820D01*
%TA.AperFunction,Conductor*%
D40*
G36*
X88096780Y-57638820D02*
G01*
X88186959Y-57676173D01*
X88264402Y-57735598D01*
X88323827Y-57813041D01*
X88361180Y-57903220D01*
X88375000Y-58008196D01*
X88375000Y-61222054D01*
X87431250Y-61225000D01*
X87275000Y-61381250D01*
X87275000Y-62875000D01*
X87295000Y-62875000D01*
X87295000Y-63125000D01*
X87275000Y-63125000D01*
X87275000Y-64618750D01*
X87431250Y-64775000D01*
X88377601Y-64777954D01*
X88393106Y-64895726D01*
X88401552Y-64927245D01*
X88451502Y-65047835D01*
X88467818Y-65076096D01*
X88547278Y-65179649D01*
X88570351Y-65202722D01*
X88673904Y-65282182D01*
X88702165Y-65298498D01*
X88822755Y-65348448D01*
X88854274Y-65356894D01*
X88983684Y-65373931D01*
X89000000Y-65375000D01*
X92241804Y-65375000D01*
X92346780Y-65388820D01*
X92436959Y-65426173D01*
X92514402Y-65485598D01*
X92573827Y-65563041D01*
X92611180Y-65653220D01*
X92625000Y-65758196D01*
X92625000Y-75491804D01*
X92611180Y-75596780D01*
X92573827Y-75686959D01*
X92514402Y-75764402D01*
X92436959Y-75823827D01*
X92346780Y-75861180D01*
X92241804Y-75875000D01*
X84508196Y-75875000D01*
X84403220Y-75861180D01*
X84313041Y-75823827D01*
X84235598Y-75764402D01*
X84176173Y-75686959D01*
X84138820Y-75596780D01*
X84125000Y-75491804D01*
X84125000Y-73803300D01*
X86487576Y-73803300D01*
X86499643Y-73925821D01*
X86535381Y-74043634D01*
X86593417Y-74152211D01*
X86671520Y-74247380D01*
X86766689Y-74325483D01*
X86875266Y-74383519D01*
X86993079Y-74419257D01*
X87115600Y-74431324D01*
X89018750Y-74428300D01*
X89175000Y-74272050D01*
X89175000Y-70969200D01*
X89425000Y-70969200D01*
X89425000Y-74272050D01*
X89581250Y-74428300D01*
X91484400Y-74431324D01*
X91606921Y-74419257D01*
X91724734Y-74383519D01*
X91833311Y-74325483D01*
X91928480Y-74247380D01*
X92006583Y-74152211D01*
X92064619Y-74043634D01*
X92100357Y-73925821D01*
X92112424Y-73803300D01*
X92109400Y-71125450D01*
X91953150Y-70969200D01*
X89425000Y-70969200D01*
X89175000Y-70969200D01*
X86646850Y-70969200D01*
X86490600Y-71125450D01*
X86487576Y-73803300D01*
X84125000Y-73803300D01*
X84125000Y-67885100D01*
X86487576Y-67885100D01*
X86490600Y-70562950D01*
X86646850Y-70719200D01*
X89175000Y-70719200D01*
X89175000Y-67416350D01*
X89425000Y-67416350D01*
X89425000Y-70719200D01*
X91953150Y-70719200D01*
X92109400Y-70562950D01*
X92112424Y-67885100D01*
X92100357Y-67762579D01*
X92064619Y-67644766D01*
X92006583Y-67536189D01*
X91928480Y-67441020D01*
X91833311Y-67362917D01*
X91724734Y-67304881D01*
X91606921Y-67269143D01*
X91484400Y-67257076D01*
X89581250Y-67260100D01*
X89425000Y-67416350D01*
X89175000Y-67416350D01*
X89018750Y-67260100D01*
X87115600Y-67257076D01*
X86993079Y-67269143D01*
X86875266Y-67304881D01*
X86766689Y-67362917D01*
X86671520Y-67441020D01*
X86593417Y-67536189D01*
X86535381Y-67644766D01*
X86499643Y-67762579D01*
X86487576Y-67885100D01*
X84125000Y-67885100D01*
X84125000Y-64150000D01*
X85271976Y-64150000D01*
X85284043Y-64272521D01*
X85319781Y-64390334D01*
X85377817Y-64498911D01*
X85455920Y-64594080D01*
X85551089Y-64672183D01*
X85659666Y-64730219D01*
X85777479Y-64765957D01*
X85900000Y-64778024D01*
X86868750Y-64775000D01*
X87025000Y-64618750D01*
X87025000Y-63125000D01*
X85431250Y-63125000D01*
X85275000Y-63281250D01*
X85271976Y-64150000D01*
X84125000Y-64150000D01*
X84125000Y-61850000D01*
X85271976Y-61850000D01*
X85275000Y-62718750D01*
X85431250Y-62875000D01*
X87025000Y-62875000D01*
X87025000Y-61381250D01*
X86868750Y-61225000D01*
X85900000Y-61221976D01*
X85777479Y-61234043D01*
X85659666Y-61269781D01*
X85551089Y-61327817D01*
X85455920Y-61405920D01*
X85377817Y-61501089D01*
X85319781Y-61609666D01*
X85284043Y-61727479D01*
X85271976Y-61850000D01*
X84125000Y-61850000D01*
X84125000Y-58008196D01*
X84138820Y-57903220D01*
X84176173Y-57813041D01*
X84235598Y-57735598D01*
X84313041Y-57676173D01*
X84403220Y-57638820D01*
X84508196Y-57625000D01*
X87991804Y-57625000D01*
X88096780Y-57638820D01*
G37*
%TD.AperFunction*%
D37*
X78096780Y-57638820D02*
X78186959Y-57676173D01*
X78264402Y-57735598D01*
X78323827Y-57813041D01*
X78361180Y-57903220D01*
X78375000Y-58008196D01*
X78375000Y-61222054D01*
X77431250Y-61225000D01*
X77275000Y-61381250D01*
X77275000Y-62875000D01*
X77295000Y-62875000D01*
X77295000Y-63125000D01*
X77275000Y-63125000D01*
X77275000Y-64618750D01*
X77431250Y-64775000D01*
X78377601Y-64777954D01*
X78393106Y-64895726D01*
X78401552Y-64927245D01*
X78451502Y-65047835D01*
X78467818Y-65076096D01*
X78547278Y-65179649D01*
X78570351Y-65202722D01*
X78673904Y-65282182D01*
X78702165Y-65298498D01*
X78822755Y-65348448D01*
X78854274Y-65356894D01*
X78983684Y-65373931D01*
X79000000Y-65375000D01*
X82241804Y-65375000D01*
X82346780Y-65388820D01*
X82436959Y-65426173D01*
X82514402Y-65485598D01*
X82573827Y-65563041D01*
X82611180Y-65653220D01*
X82625000Y-65758196D01*
X82625000Y-75491804D01*
X82611180Y-75596780D01*
X82573827Y-75686959D01*
X82514402Y-75764402D01*
X82436959Y-75823827D01*
X82346780Y-75861180D01*
X82241804Y-75875000D01*
X74508196Y-75875000D01*
X74403220Y-75861180D01*
X74313041Y-75823827D01*
X74235598Y-75764402D01*
X74176173Y-75686959D01*
X74138820Y-75596780D01*
X74125000Y-75491804D01*
X74125000Y-73803300D01*
X76487576Y-73803300D01*
X76499643Y-73925821D01*
X76535381Y-74043634D01*
X76593417Y-74152211D01*
X76671520Y-74247380D01*
X76766689Y-74325483D01*
X76875266Y-74383519D01*
X76993079Y-74419257D01*
X77115600Y-74431324D01*
X79018750Y-74428300D01*
X79175000Y-74272050D01*
X79175000Y-70969200D01*
X79425000Y-70969200D01*
X79425000Y-74272050D01*
X79581250Y-74428300D01*
X81484400Y-74431324D01*
X81606921Y-74419257D01*
X81724734Y-74383519D01*
X81833311Y-74325483D01*
X81928480Y-74247380D01*
X82006583Y-74152211D01*
X82064619Y-74043634D01*
X82100357Y-73925821D01*
X82112424Y-73803300D01*
X82109400Y-71125450D01*
X81953150Y-70969200D01*
X79425000Y-70969200D01*
X79175000Y-70969200D01*
X76646850Y-70969200D01*
X76490600Y-71125450D01*
X76487576Y-73803300D01*
X74125000Y-73803300D01*
X74125000Y-67885100D01*
X76487576Y-67885100D01*
X76490600Y-70562950D01*
X76646850Y-70719200D01*
X79175000Y-70719200D01*
X79175000Y-67416350D01*
X79425000Y-67416350D01*
X79425000Y-70719200D01*
X81953150Y-70719200D01*
X82109400Y-70562950D01*
X82112424Y-67885100D01*
X82100357Y-67762579D01*
X82064619Y-67644766D01*
X82006583Y-67536189D01*
X81928480Y-67441020D01*
X81833311Y-67362917D01*
X81724734Y-67304881D01*
X81606921Y-67269143D01*
X81484400Y-67257076D01*
X79581250Y-67260100D01*
X79425000Y-67416350D01*
X79175000Y-67416350D01*
X79018750Y-67260100D01*
X77115600Y-67257076D01*
X76993079Y-67269143D01*
X76875266Y-67304881D01*
X76766689Y-67362917D01*
X76671520Y-67441020D01*
X76593417Y-67536189D01*
X76535381Y-67644766D01*
X76499643Y-67762579D01*
X76487576Y-67885100D01*
X74125000Y-67885100D01*
X74125000Y-64150000D01*
X75271976Y-64150000D01*
X75284043Y-64272521D01*
X75319781Y-64390334D01*
X75377817Y-64498911D01*
X75455920Y-64594080D01*
X75551089Y-64672183D01*
X75659666Y-64730219D01*
X75777479Y-64765957D01*
X75900000Y-64778024D01*
X76868750Y-64775000D01*
X77025000Y-64618750D01*
X77025000Y-63125000D01*
X75431250Y-63125000D01*
X75275000Y-63281250D01*
X75271976Y-64150000D01*
X74125000Y-64150000D01*
X74125000Y-61850000D01*
X75271976Y-61850000D01*
X75275000Y-62718750D01*
X75431250Y-62875000D01*
X77025000Y-62875000D01*
X77025000Y-61381250D01*
X76868750Y-61225000D01*
X75900000Y-61221976D01*
X75777479Y-61234043D01*
X75659666Y-61269781D01*
X75551089Y-61327817D01*
X75455920Y-61405920D01*
X75377817Y-61501089D01*
X75319781Y-61609666D01*
X75284043Y-61727479D01*
X75271976Y-61850000D01*
X74125000Y-61850000D01*
X74125000Y-58008196D01*
X74138820Y-57903220D01*
X74176173Y-57813041D01*
X74235598Y-57735598D01*
X74313041Y-57676173D01*
X74403220Y-57638820D01*
X74508196Y-57625000D01*
X77991804Y-57625000D01*
X78096780Y-57638820D01*
%TA.AperFunction,Conductor*%
D40*
G36*
X78096780Y-57638820D02*
G01*
X78186959Y-57676173D01*
X78264402Y-57735598D01*
X78323827Y-57813041D01*
X78361180Y-57903220D01*
X78375000Y-58008196D01*
X78375000Y-61222054D01*
X77431250Y-61225000D01*
X77275000Y-61381250D01*
X77275000Y-62875000D01*
X77295000Y-62875000D01*
X77295000Y-63125000D01*
X77275000Y-63125000D01*
X77275000Y-64618750D01*
X77431250Y-64775000D01*
X78377601Y-64777954D01*
X78393106Y-64895726D01*
X78401552Y-64927245D01*
X78451502Y-65047835D01*
X78467818Y-65076096D01*
X78547278Y-65179649D01*
X78570351Y-65202722D01*
X78673904Y-65282182D01*
X78702165Y-65298498D01*
X78822755Y-65348448D01*
X78854274Y-65356894D01*
X78983684Y-65373931D01*
X79000000Y-65375000D01*
X82241804Y-65375000D01*
X82346780Y-65388820D01*
X82436959Y-65426173D01*
X82514402Y-65485598D01*
X82573827Y-65563041D01*
X82611180Y-65653220D01*
X82625000Y-65758196D01*
X82625000Y-75491804D01*
X82611180Y-75596780D01*
X82573827Y-75686959D01*
X82514402Y-75764402D01*
X82436959Y-75823827D01*
X82346780Y-75861180D01*
X82241804Y-75875000D01*
X74508196Y-75875000D01*
X74403220Y-75861180D01*
X74313041Y-75823827D01*
X74235598Y-75764402D01*
X74176173Y-75686959D01*
X74138820Y-75596780D01*
X74125000Y-75491804D01*
X74125000Y-73803300D01*
X76487576Y-73803300D01*
X76499643Y-73925821D01*
X76535381Y-74043634D01*
X76593417Y-74152211D01*
X76671520Y-74247380D01*
X76766689Y-74325483D01*
X76875266Y-74383519D01*
X76993079Y-74419257D01*
X77115600Y-74431324D01*
X79018750Y-74428300D01*
X79175000Y-74272050D01*
X79175000Y-70969200D01*
X79425000Y-70969200D01*
X79425000Y-74272050D01*
X79581250Y-74428300D01*
X81484400Y-74431324D01*
X81606921Y-74419257D01*
X81724734Y-74383519D01*
X81833311Y-74325483D01*
X81928480Y-74247380D01*
X82006583Y-74152211D01*
X82064619Y-74043634D01*
X82100357Y-73925821D01*
X82112424Y-73803300D01*
X82109400Y-71125450D01*
X81953150Y-70969200D01*
X79425000Y-70969200D01*
X79175000Y-70969200D01*
X76646850Y-70969200D01*
X76490600Y-71125450D01*
X76487576Y-73803300D01*
X74125000Y-73803300D01*
X74125000Y-67885100D01*
X76487576Y-67885100D01*
X76490600Y-70562950D01*
X76646850Y-70719200D01*
X79175000Y-70719200D01*
X79175000Y-67416350D01*
X79425000Y-67416350D01*
X79425000Y-70719200D01*
X81953150Y-70719200D01*
X82109400Y-70562950D01*
X82112424Y-67885100D01*
X82100357Y-67762579D01*
X82064619Y-67644766D01*
X82006583Y-67536189D01*
X81928480Y-67441020D01*
X81833311Y-67362917D01*
X81724734Y-67304881D01*
X81606921Y-67269143D01*
X81484400Y-67257076D01*
X79581250Y-67260100D01*
X79425000Y-67416350D01*
X79175000Y-67416350D01*
X79018750Y-67260100D01*
X77115600Y-67257076D01*
X76993079Y-67269143D01*
X76875266Y-67304881D01*
X76766689Y-67362917D01*
X76671520Y-67441020D01*
X76593417Y-67536189D01*
X76535381Y-67644766D01*
X76499643Y-67762579D01*
X76487576Y-67885100D01*
X74125000Y-67885100D01*
X74125000Y-64150000D01*
X75271976Y-64150000D01*
X75284043Y-64272521D01*
X75319781Y-64390334D01*
X75377817Y-64498911D01*
X75455920Y-64594080D01*
X75551089Y-64672183D01*
X75659666Y-64730219D01*
X75777479Y-64765957D01*
X75900000Y-64778024D01*
X76868750Y-64775000D01*
X77025000Y-64618750D01*
X77025000Y-63125000D01*
X75431250Y-63125000D01*
X75275000Y-63281250D01*
X75271976Y-64150000D01*
X74125000Y-64150000D01*
X74125000Y-61850000D01*
X75271976Y-61850000D01*
X75275000Y-62718750D01*
X75431250Y-62875000D01*
X77025000Y-62875000D01*
X77025000Y-61381250D01*
X76868750Y-61225000D01*
X75900000Y-61221976D01*
X75777479Y-61234043D01*
X75659666Y-61269781D01*
X75551089Y-61327817D01*
X75455920Y-61405920D01*
X75377817Y-61501089D01*
X75319781Y-61609666D01*
X75284043Y-61727479D01*
X75271976Y-61850000D01*
X74125000Y-61850000D01*
X74125000Y-58008196D01*
X74138820Y-57903220D01*
X74176173Y-57813041D01*
X74235598Y-57735598D01*
X74313041Y-57676173D01*
X74403220Y-57638820D01*
X74508196Y-57625000D01*
X77991804Y-57625000D01*
X78096780Y-57638820D01*
G37*
%TD.AperFunction*%
D37*
X80645751Y-104138859D02*
X80736047Y-104176323D01*
X80813542Y-104235906D01*
X80872949Y-104313544D01*
X80910200Y-104403923D01*
X80923816Y-104509075D01*
X80876179Y-124992691D01*
X80862156Y-125097481D01*
X80824701Y-125187462D01*
X80765257Y-125264712D01*
X80687874Y-125323972D01*
X80597799Y-125361221D01*
X80492978Y-125375000D01*
X69500000Y-125375000D01*
X69483684Y-125376069D01*
X69354274Y-125393106D01*
X69322755Y-125401552D01*
X69202165Y-125451502D01*
X69173904Y-125467818D01*
X69070351Y-125547278D01*
X69047278Y-125570351D01*
X68967818Y-125673904D01*
X68951502Y-125702165D01*
X68901552Y-125822755D01*
X68893106Y-125854274D01*
X68876069Y-125983684D01*
X68875000Y-126000000D01*
X68875000Y-129491804D01*
X68874579Y-129495000D01*
X68650000Y-129495000D01*
X68650000Y-129475000D01*
X67906250Y-129475000D01*
X67750000Y-129631250D01*
X67746976Y-129825000D01*
X67759043Y-129947521D01*
X67794781Y-130065334D01*
X67852817Y-130173911D01*
X67926178Y-130263302D01*
X67901552Y-130322755D01*
X67893106Y-130354274D01*
X67876069Y-130483684D01*
X67875000Y-130500000D01*
X67875000Y-133290868D01*
X67754868Y-133580893D01*
X67643000Y-134143292D01*
X67643000Y-134716708D01*
X67754868Y-135279107D01*
X67875000Y-135569132D01*
X67875000Y-136991804D01*
X67861180Y-137096780D01*
X67823827Y-137186959D01*
X67764402Y-137264402D01*
X67686959Y-137323827D01*
X67655398Y-137336900D01*
X58344602Y-137336900D01*
X58313041Y-137323827D01*
X58235598Y-137264402D01*
X58176173Y-137186959D01*
X58138820Y-137096780D01*
X58125000Y-136991804D01*
X58125000Y-130500000D01*
X58123931Y-130483684D01*
X58106894Y-130354274D01*
X58098448Y-130322755D01*
X58048498Y-130202165D01*
X58032182Y-130173904D01*
X57952722Y-130070351D01*
X57929649Y-130047278D01*
X57826096Y-129967818D01*
X57797835Y-129951502D01*
X57677245Y-129901552D01*
X57645726Y-129893106D01*
X57516316Y-129876069D01*
X57500000Y-129875000D01*
X51008196Y-129875000D01*
X50903220Y-129861180D01*
X50813041Y-129823827D01*
X50735598Y-129764402D01*
X50676173Y-129686959D01*
X50663100Y-129655398D01*
X50663100Y-128875000D01*
X67746976Y-128875000D01*
X67750000Y-129068750D01*
X67906250Y-129225000D01*
X68650000Y-129225000D01*
X68650000Y-128406250D01*
X68493750Y-128250000D01*
X68375000Y-128246976D01*
X68252479Y-128259043D01*
X68134666Y-128294781D01*
X68026089Y-128352817D01*
X67930920Y-128430920D01*
X67852817Y-128526089D01*
X67794781Y-128634666D01*
X67759043Y-128752479D01*
X67746976Y-128875000D01*
X50663100Y-128875000D01*
X50663100Y-127300000D01*
X54971976Y-127300000D01*
X54984043Y-127422521D01*
X55019781Y-127540334D01*
X55077817Y-127648911D01*
X55155920Y-127744080D01*
X55251089Y-127822183D01*
X55359666Y-127880219D01*
X55477479Y-127915957D01*
X55600000Y-127928024D01*
X58218750Y-127925000D01*
X58375000Y-127768750D01*
X58375000Y-124225000D01*
X58625000Y-124225000D01*
X58625000Y-127768750D01*
X58781250Y-127925000D01*
X61400000Y-127928024D01*
X61522521Y-127915957D01*
X61640334Y-127880219D01*
X61748911Y-127822183D01*
X61844080Y-127744080D01*
X61922183Y-127648911D01*
X61980219Y-127540334D01*
X62015957Y-127422521D01*
X62028024Y-127300000D01*
X62027999Y-127275000D01*
X67746976Y-127275000D01*
X67759043Y-127397521D01*
X67794781Y-127515334D01*
X67852817Y-127623911D01*
X67930920Y-127719080D01*
X68026089Y-127797183D01*
X68134666Y-127855219D01*
X68252479Y-127890957D01*
X68375000Y-127903024D01*
X68493750Y-127900000D01*
X68650000Y-127743750D01*
X68650000Y-126925000D01*
X67906250Y-126925000D01*
X67750000Y-127081250D01*
X67746976Y-127275000D01*
X62027999Y-127275000D01*
X62027015Y-126325000D01*
X67746976Y-126325000D01*
X67750000Y-126518750D01*
X67906250Y-126675000D01*
X68650000Y-126675000D01*
X68650000Y-125856250D01*
X68493750Y-125700000D01*
X68375000Y-125696976D01*
X68252479Y-125709043D01*
X68134666Y-125744781D01*
X68026089Y-125802817D01*
X67930920Y-125880920D01*
X67852817Y-125976089D01*
X67794781Y-126084666D01*
X67759043Y-126202479D01*
X67746976Y-126325000D01*
X62027015Y-126325000D01*
X62025000Y-124381250D01*
X61868750Y-124225000D01*
X58625000Y-124225000D01*
X58375000Y-124225000D01*
X55131250Y-124225000D01*
X54975000Y-124381250D01*
X54971976Y-127300000D01*
X50663100Y-127300000D01*
X50663100Y-120900000D01*
X54971976Y-120900000D01*
X54975000Y-123818750D01*
X55131250Y-123975000D01*
X58375000Y-123975000D01*
X58375000Y-120431250D01*
X58625000Y-120431250D01*
X58625000Y-123975000D01*
X61868750Y-123975000D01*
X62025000Y-123818750D01*
X62028024Y-120900000D01*
X62015957Y-120777479D01*
X61980219Y-120659666D01*
X61922183Y-120551089D01*
X61844080Y-120455920D01*
X61748911Y-120377817D01*
X61640334Y-120319781D01*
X61522521Y-120284043D01*
X61400000Y-120271976D01*
X58781250Y-120275000D01*
X58625000Y-120431250D01*
X58375000Y-120431250D01*
X58218750Y-120275000D01*
X55600000Y-120271976D01*
X55477479Y-120284043D01*
X55359666Y-120319781D01*
X55251089Y-120377817D01*
X55155920Y-120455920D01*
X55077817Y-120551089D01*
X55019781Y-120659666D01*
X54984043Y-120777479D01*
X54971976Y-120900000D01*
X50663100Y-120900000D01*
X50663100Y-119844602D01*
X50676173Y-119813041D01*
X50735598Y-119735598D01*
X50813041Y-119676173D01*
X50903220Y-119638820D01*
X51008196Y-119625000D01*
X57000000Y-119625000D01*
X57016316Y-119623931D01*
X57145726Y-119606894D01*
X57177245Y-119598448D01*
X57297835Y-119548498D01*
X57326096Y-119532182D01*
X57429649Y-119452722D01*
X57452722Y-119429649D01*
X57494247Y-119375534D01*
X57551089Y-119422183D01*
X57659666Y-119480219D01*
X57777479Y-119515957D01*
X57900000Y-119528024D01*
X58218750Y-119525000D01*
X58375000Y-119368750D01*
X58375000Y-117925000D01*
X58355000Y-117925000D01*
X58355000Y-117675000D01*
X58375000Y-117675000D01*
X58375000Y-116231250D01*
X58625000Y-116231250D01*
X58625000Y-117675000D01*
X58645000Y-117675000D01*
X58645000Y-117925000D01*
X58625000Y-117925000D01*
X58625000Y-119368750D01*
X58781250Y-119525000D01*
X59100000Y-119528024D01*
X59222521Y-119515957D01*
X59340334Y-119480219D01*
X59448911Y-119422183D01*
X59544080Y-119344080D01*
X59622183Y-119248911D01*
X59640000Y-119215578D01*
X59657817Y-119248911D01*
X59735920Y-119344080D01*
X59831089Y-119422183D01*
X59939666Y-119480219D01*
X60057479Y-119515957D01*
X60180000Y-119528024D01*
X61380000Y-119528024D01*
X61502521Y-119515957D01*
X61620334Y-119480219D01*
X61728911Y-119422183D01*
X61824080Y-119344080D01*
X61902183Y-119248911D01*
X61960219Y-119140334D01*
X61995957Y-119022521D01*
X62008024Y-118900000D01*
X62008024Y-118042965D01*
X63154572Y-116896418D01*
X63259928Y-116768041D01*
X63364393Y-116572602D01*
X63428721Y-116360539D01*
X63450443Y-116140000D01*
X63428721Y-115919462D01*
X63364393Y-115707399D01*
X63293663Y-115575072D01*
X63800000Y-115578024D01*
X63922521Y-115565957D01*
X64040334Y-115530219D01*
X64148911Y-115472183D01*
X64244080Y-115394080D01*
X64322183Y-115298911D01*
X64380219Y-115190334D01*
X64415957Y-115072521D01*
X64428024Y-114950000D01*
X64425000Y-113481250D01*
X64268750Y-113325000D01*
X63125000Y-113325000D01*
X63125000Y-113345000D01*
X62875000Y-113345000D01*
X62875000Y-113325000D01*
X61731250Y-113325000D01*
X61575000Y-113481250D01*
X61571976Y-114950000D01*
X61584043Y-115072521D01*
X61619781Y-115190334D01*
X61645407Y-115238276D01*
X61563582Y-115305428D01*
X61551338Y-115317672D01*
X61408040Y-115200071D01*
X61212602Y-115095607D01*
X61000538Y-115031278D01*
X60780000Y-115009557D01*
X60559463Y-115031278D01*
X60347399Y-115095607D01*
X60151961Y-115200071D01*
X59980657Y-115340656D01*
X59840072Y-115511960D01*
X59735608Y-115707398D01*
X59671278Y-115919462D01*
X59655000Y-116084736D01*
X59655000Y-116356359D01*
X59640000Y-116384422D01*
X59622183Y-116351089D01*
X59544080Y-116255920D01*
X59448911Y-116177817D01*
X59340334Y-116119781D01*
X59222521Y-116084043D01*
X59100000Y-116071976D01*
X58781250Y-116075000D01*
X58625000Y-116231250D01*
X58375000Y-116231250D01*
X58218750Y-116075000D01*
X57900000Y-116071976D01*
X57777479Y-116084043D01*
X57659666Y-116119781D01*
X57625000Y-116138310D01*
X57625000Y-111450000D01*
X61571976Y-111450000D01*
X61575000Y-112918750D01*
X61731250Y-113075000D01*
X62875000Y-113075000D01*
X62875000Y-110981250D01*
X63125000Y-110981250D01*
X63125000Y-113075000D01*
X64268750Y-113075000D01*
X64425000Y-112918750D01*
X64428024Y-111450000D01*
X64415957Y-111327479D01*
X64402554Y-111283292D01*
X67643000Y-111283292D01*
X67643000Y-111856708D01*
X67754868Y-112419107D01*
X67974305Y-112948876D01*
X68292879Y-113425654D01*
X68698346Y-113831121D01*
X69175124Y-114149695D01*
X69704893Y-114369132D01*
X70267292Y-114481000D01*
X70840708Y-114481000D01*
X71403107Y-114369132D01*
X71932876Y-114149695D01*
X72409654Y-113831121D01*
X72815121Y-113425654D01*
X73133695Y-112948876D01*
X73353132Y-112419107D01*
X73465000Y-111856708D01*
X73465000Y-111283292D01*
X73353132Y-110720893D01*
X73133695Y-110191124D01*
X72815121Y-109714346D01*
X72409654Y-109308879D01*
X71932876Y-108990305D01*
X71403107Y-108770868D01*
X70840708Y-108659000D01*
X70267292Y-108659000D01*
X69704893Y-108770868D01*
X69175124Y-108990305D01*
X68698346Y-109308879D01*
X68292879Y-109714346D01*
X67974305Y-110191124D01*
X67754868Y-110720893D01*
X67643000Y-111283292D01*
X64402554Y-111283292D01*
X64380219Y-111209666D01*
X64322183Y-111101089D01*
X64244080Y-111005920D01*
X64148911Y-110927817D01*
X64040334Y-110869781D01*
X63922521Y-110834043D01*
X63800000Y-110821976D01*
X63281250Y-110825000D01*
X63125000Y-110981250D01*
X62875000Y-110981250D01*
X62718750Y-110825000D01*
X62200000Y-110821976D01*
X62077479Y-110834043D01*
X61959666Y-110869781D01*
X61851089Y-110927817D01*
X61755920Y-111005920D01*
X61677817Y-111101089D01*
X61619781Y-111209666D01*
X61584043Y-111327479D01*
X61571976Y-111450000D01*
X57625000Y-111450000D01*
X57625000Y-111008196D01*
X57638820Y-110903220D01*
X57676173Y-110813041D01*
X57735598Y-110735598D01*
X57813041Y-110676173D01*
X57903220Y-110638820D01*
X58008196Y-110625000D01*
X65403831Y-110625000D01*
X65420068Y-110623941D01*
X65548859Y-110607069D01*
X65580235Y-110598705D01*
X65700333Y-110549229D01*
X65728497Y-110533065D01*
X65831799Y-110454324D01*
X65854849Y-110431450D01*
X65934383Y-110328756D01*
X65950763Y-110300718D01*
X66001162Y-110181004D01*
X66009767Y-110149692D01*
X66027629Y-110021035D01*
X66028813Y-110004807D01*
X66071116Y-104505266D01*
X66085605Y-104400908D01*
X66123297Y-104311376D01*
X66182777Y-104234576D01*
X66260035Y-104175687D01*
X66349851Y-104138686D01*
X66454322Y-104125000D01*
X80540635Y-104125000D01*
X80645751Y-104138859D01*
%TA.AperFunction,Conductor*%
D40*
G36*
X80645751Y-104138859D02*
G01*
X80736047Y-104176323D01*
X80813542Y-104235906D01*
X80872949Y-104313544D01*
X80910200Y-104403923D01*
X80923816Y-104509075D01*
X80876179Y-124992691D01*
X80862156Y-125097481D01*
X80824701Y-125187462D01*
X80765257Y-125264712D01*
X80687874Y-125323972D01*
X80597799Y-125361221D01*
X80492978Y-125375000D01*
X69500000Y-125375000D01*
X69483684Y-125376069D01*
X69354274Y-125393106D01*
X69322755Y-125401552D01*
X69202165Y-125451502D01*
X69173904Y-125467818D01*
X69070351Y-125547278D01*
X69047278Y-125570351D01*
X68967818Y-125673904D01*
X68951502Y-125702165D01*
X68901552Y-125822755D01*
X68893106Y-125854274D01*
X68876069Y-125983684D01*
X68875000Y-126000000D01*
X68875000Y-129491804D01*
X68874579Y-129495000D01*
X68650000Y-129495000D01*
X68650000Y-129475000D01*
X67906250Y-129475000D01*
X67750000Y-129631250D01*
X67746976Y-129825000D01*
X67759043Y-129947521D01*
X67794781Y-130065334D01*
X67852817Y-130173911D01*
X67926178Y-130263302D01*
X67901552Y-130322755D01*
X67893106Y-130354274D01*
X67876069Y-130483684D01*
X67875000Y-130500000D01*
X67875000Y-133290868D01*
X67754868Y-133580893D01*
X67643000Y-134143292D01*
X67643000Y-134716708D01*
X67754868Y-135279107D01*
X67875000Y-135569132D01*
X67875000Y-136991804D01*
X67861180Y-137096780D01*
X67823827Y-137186959D01*
X67764402Y-137264402D01*
X67686959Y-137323827D01*
X67655398Y-137336900D01*
X58344602Y-137336900D01*
X58313041Y-137323827D01*
X58235598Y-137264402D01*
X58176173Y-137186959D01*
X58138820Y-137096780D01*
X58125000Y-136991804D01*
X58125000Y-130500000D01*
X58123931Y-130483684D01*
X58106894Y-130354274D01*
X58098448Y-130322755D01*
X58048498Y-130202165D01*
X58032182Y-130173904D01*
X57952722Y-130070351D01*
X57929649Y-130047278D01*
X57826096Y-129967818D01*
X57797835Y-129951502D01*
X57677245Y-129901552D01*
X57645726Y-129893106D01*
X57516316Y-129876069D01*
X57500000Y-129875000D01*
X51008196Y-129875000D01*
X50903220Y-129861180D01*
X50813041Y-129823827D01*
X50735598Y-129764402D01*
X50676173Y-129686959D01*
X50663100Y-129655398D01*
X50663100Y-128875000D01*
X67746976Y-128875000D01*
X67750000Y-129068750D01*
X67906250Y-129225000D01*
X68650000Y-129225000D01*
X68650000Y-128406250D01*
X68493750Y-128250000D01*
X68375000Y-128246976D01*
X68252479Y-128259043D01*
X68134666Y-128294781D01*
X68026089Y-128352817D01*
X67930920Y-128430920D01*
X67852817Y-128526089D01*
X67794781Y-128634666D01*
X67759043Y-128752479D01*
X67746976Y-128875000D01*
X50663100Y-128875000D01*
X50663100Y-127300000D01*
X54971976Y-127300000D01*
X54984043Y-127422521D01*
X55019781Y-127540334D01*
X55077817Y-127648911D01*
X55155920Y-127744080D01*
X55251089Y-127822183D01*
X55359666Y-127880219D01*
X55477479Y-127915957D01*
X55600000Y-127928024D01*
X58218750Y-127925000D01*
X58375000Y-127768750D01*
X58375000Y-124225000D01*
X58625000Y-124225000D01*
X58625000Y-127768750D01*
X58781250Y-127925000D01*
X61400000Y-127928024D01*
X61522521Y-127915957D01*
X61640334Y-127880219D01*
X61748911Y-127822183D01*
X61844080Y-127744080D01*
X61922183Y-127648911D01*
X61980219Y-127540334D01*
X62015957Y-127422521D01*
X62028024Y-127300000D01*
X62027999Y-127275000D01*
X67746976Y-127275000D01*
X67759043Y-127397521D01*
X67794781Y-127515334D01*
X67852817Y-127623911D01*
X67930920Y-127719080D01*
X68026089Y-127797183D01*
X68134666Y-127855219D01*
X68252479Y-127890957D01*
X68375000Y-127903024D01*
X68493750Y-127900000D01*
X68650000Y-127743750D01*
X68650000Y-126925000D01*
X67906250Y-126925000D01*
X67750000Y-127081250D01*
X67746976Y-127275000D01*
X62027999Y-127275000D01*
X62027015Y-126325000D01*
X67746976Y-126325000D01*
X67750000Y-126518750D01*
X67906250Y-126675000D01*
X68650000Y-126675000D01*
X68650000Y-125856250D01*
X68493750Y-125700000D01*
X68375000Y-125696976D01*
X68252479Y-125709043D01*
X68134666Y-125744781D01*
X68026089Y-125802817D01*
X67930920Y-125880920D01*
X67852817Y-125976089D01*
X67794781Y-126084666D01*
X67759043Y-126202479D01*
X67746976Y-126325000D01*
X62027015Y-126325000D01*
X62025000Y-124381250D01*
X61868750Y-124225000D01*
X58625000Y-124225000D01*
X58375000Y-124225000D01*
X55131250Y-124225000D01*
X54975000Y-124381250D01*
X54971976Y-127300000D01*
X50663100Y-127300000D01*
X50663100Y-120900000D01*
X54971976Y-120900000D01*
X54975000Y-123818750D01*
X55131250Y-123975000D01*
X58375000Y-123975000D01*
X58375000Y-120431250D01*
X58625000Y-120431250D01*
X58625000Y-123975000D01*
X61868750Y-123975000D01*
X62025000Y-123818750D01*
X62028024Y-120900000D01*
X62015957Y-120777479D01*
X61980219Y-120659666D01*
X61922183Y-120551089D01*
X61844080Y-120455920D01*
X61748911Y-120377817D01*
X61640334Y-120319781D01*
X61522521Y-120284043D01*
X61400000Y-120271976D01*
X58781250Y-120275000D01*
X58625000Y-120431250D01*
X58375000Y-120431250D01*
X58218750Y-120275000D01*
X55600000Y-120271976D01*
X55477479Y-120284043D01*
X55359666Y-120319781D01*
X55251089Y-120377817D01*
X55155920Y-120455920D01*
X55077817Y-120551089D01*
X55019781Y-120659666D01*
X54984043Y-120777479D01*
X54971976Y-120900000D01*
X50663100Y-120900000D01*
X50663100Y-119844602D01*
X50676173Y-119813041D01*
X50735598Y-119735598D01*
X50813041Y-119676173D01*
X50903220Y-119638820D01*
X51008196Y-119625000D01*
X57000000Y-119625000D01*
X57016316Y-119623931D01*
X57145726Y-119606894D01*
X57177245Y-119598448D01*
X57297835Y-119548498D01*
X57326096Y-119532182D01*
X57429649Y-119452722D01*
X57452722Y-119429649D01*
X57494247Y-119375534D01*
X57551089Y-119422183D01*
X57659666Y-119480219D01*
X57777479Y-119515957D01*
X57900000Y-119528024D01*
X58218750Y-119525000D01*
X58375000Y-119368750D01*
X58375000Y-117925000D01*
X58355000Y-117925000D01*
X58355000Y-117675000D01*
X58375000Y-117675000D01*
X58375000Y-116231250D01*
X58625000Y-116231250D01*
X58625000Y-117675000D01*
X58645000Y-117675000D01*
X58645000Y-117925000D01*
X58625000Y-117925000D01*
X58625000Y-119368750D01*
X58781250Y-119525000D01*
X59100000Y-119528024D01*
X59222521Y-119515957D01*
X59340334Y-119480219D01*
X59448911Y-119422183D01*
X59544080Y-119344080D01*
X59622183Y-119248911D01*
X59640000Y-119215578D01*
X59657817Y-119248911D01*
X59735920Y-119344080D01*
X59831089Y-119422183D01*
X59939666Y-119480219D01*
X60057479Y-119515957D01*
X60180000Y-119528024D01*
X61380000Y-119528024D01*
X61502521Y-119515957D01*
X61620334Y-119480219D01*
X61728911Y-119422183D01*
X61824080Y-119344080D01*
X61902183Y-119248911D01*
X61960219Y-119140334D01*
X61995957Y-119022521D01*
X62008024Y-118900000D01*
X62008024Y-118042965D01*
X63154572Y-116896418D01*
X63259928Y-116768041D01*
X63364393Y-116572602D01*
X63428721Y-116360539D01*
X63450443Y-116140000D01*
X63428721Y-115919462D01*
X63364393Y-115707399D01*
X63293663Y-115575072D01*
X63800000Y-115578024D01*
X63922521Y-115565957D01*
X64040334Y-115530219D01*
X64148911Y-115472183D01*
X64244080Y-115394080D01*
X64322183Y-115298911D01*
X64380219Y-115190334D01*
X64415957Y-115072521D01*
X64428024Y-114950000D01*
X64425000Y-113481250D01*
X64268750Y-113325000D01*
X63125000Y-113325000D01*
X63125000Y-113345000D01*
X62875000Y-113345000D01*
X62875000Y-113325000D01*
X61731250Y-113325000D01*
X61575000Y-113481250D01*
X61571976Y-114950000D01*
X61584043Y-115072521D01*
X61619781Y-115190334D01*
X61645407Y-115238276D01*
X61563582Y-115305428D01*
X61551338Y-115317672D01*
X61408040Y-115200071D01*
X61212602Y-115095607D01*
X61000538Y-115031278D01*
X60780000Y-115009557D01*
X60559463Y-115031278D01*
X60347399Y-115095607D01*
X60151961Y-115200071D01*
X59980657Y-115340656D01*
X59840072Y-115511960D01*
X59735608Y-115707398D01*
X59671278Y-115919462D01*
X59655000Y-116084736D01*
X59655000Y-116356359D01*
X59640000Y-116384422D01*
X59622183Y-116351089D01*
X59544080Y-116255920D01*
X59448911Y-116177817D01*
X59340334Y-116119781D01*
X59222521Y-116084043D01*
X59100000Y-116071976D01*
X58781250Y-116075000D01*
X58625000Y-116231250D01*
X58375000Y-116231250D01*
X58218750Y-116075000D01*
X57900000Y-116071976D01*
X57777479Y-116084043D01*
X57659666Y-116119781D01*
X57625000Y-116138310D01*
X57625000Y-111450000D01*
X61571976Y-111450000D01*
X61575000Y-112918750D01*
X61731250Y-113075000D01*
X62875000Y-113075000D01*
X62875000Y-110981250D01*
X63125000Y-110981250D01*
X63125000Y-113075000D01*
X64268750Y-113075000D01*
X64425000Y-112918750D01*
X64428024Y-111450000D01*
X64415957Y-111327479D01*
X64402554Y-111283292D01*
X67643000Y-111283292D01*
X67643000Y-111856708D01*
X67754868Y-112419107D01*
X67974305Y-112948876D01*
X68292879Y-113425654D01*
X68698346Y-113831121D01*
X69175124Y-114149695D01*
X69704893Y-114369132D01*
X70267292Y-114481000D01*
X70840708Y-114481000D01*
X71403107Y-114369132D01*
X71932876Y-114149695D01*
X72409654Y-113831121D01*
X72815121Y-113425654D01*
X73133695Y-112948876D01*
X73353132Y-112419107D01*
X73465000Y-111856708D01*
X73465000Y-111283292D01*
X73353132Y-110720893D01*
X73133695Y-110191124D01*
X72815121Y-109714346D01*
X72409654Y-109308879D01*
X71932876Y-108990305D01*
X71403107Y-108770868D01*
X70840708Y-108659000D01*
X70267292Y-108659000D01*
X69704893Y-108770868D01*
X69175124Y-108990305D01*
X68698346Y-109308879D01*
X68292879Y-109714346D01*
X67974305Y-110191124D01*
X67754868Y-110720893D01*
X67643000Y-111283292D01*
X64402554Y-111283292D01*
X64380219Y-111209666D01*
X64322183Y-111101089D01*
X64244080Y-111005920D01*
X64148911Y-110927817D01*
X64040334Y-110869781D01*
X63922521Y-110834043D01*
X63800000Y-110821976D01*
X63281250Y-110825000D01*
X63125000Y-110981250D01*
X62875000Y-110981250D01*
X62718750Y-110825000D01*
X62200000Y-110821976D01*
X62077479Y-110834043D01*
X61959666Y-110869781D01*
X61851089Y-110927817D01*
X61755920Y-111005920D01*
X61677817Y-111101089D01*
X61619781Y-111209666D01*
X61584043Y-111327479D01*
X61571976Y-111450000D01*
X57625000Y-111450000D01*
X57625000Y-111008196D01*
X57638820Y-110903220D01*
X57676173Y-110813041D01*
X57735598Y-110735598D01*
X57813041Y-110676173D01*
X57903220Y-110638820D01*
X58008196Y-110625000D01*
X65403831Y-110625000D01*
X65420068Y-110623941D01*
X65548859Y-110607069D01*
X65580235Y-110598705D01*
X65700333Y-110549229D01*
X65728497Y-110533065D01*
X65831799Y-110454324D01*
X65854849Y-110431450D01*
X65934383Y-110328756D01*
X65950763Y-110300718D01*
X66001162Y-110181004D01*
X66009767Y-110149692D01*
X66027629Y-110021035D01*
X66028813Y-110004807D01*
X66071116Y-104505266D01*
X66085605Y-104400908D01*
X66123297Y-104311376D01*
X66182777Y-104234576D01*
X66260035Y-104175687D01*
X66349851Y-104138686D01*
X66454322Y-104125000D01*
X80540635Y-104125000D01*
X80645751Y-104138859D01*
G37*
%TD.AperFunction*%
M02*
