M48
; DRILL file {KiCad (5.1.10)-1} date 10/14/21 14:44:51
; FORMAT={-:-/ absolute / metric / decimal}
; #@! TF.CreationDate,2021-10-14T14:44:51+05:30
; #@! TF.GenerationSoftware,Kicad,Pcbnew,(5.1.10)-1
FMAT,2
METRIC
T1C0.500
T2C0.762
T3C0.950
T4C1.000
T5C1.020
T6C1.300
T7C1.500
T8C3.048
T9C3.200
T10C1.800
T11C3.000
T12C3.048
%
G90
G05
T1
X51.5Y-120.0
X51.5Y-122.5
X51.5Y-125.0
X51.5Y-127.5
X51.5Y-129.5
X51.6Y-54.0
X51.6Y-134.0
X52.303Y-52.303
X52.303Y-55.697
X52.303Y-132.303
X52.303Y-135.697
X53.6Y-107.8
X54.0Y-51.6
X54.0Y-56.4
X54.0Y-120.0
X54.0Y-122.5
X54.0Y-125.0
X54.0Y-127.5
X54.0Y-129.5
X54.0Y-131.6
X54.0Y-136.4
X55.697Y-52.303
X55.697Y-55.697
X55.697Y-132.303
X55.697Y-135.697
X56.4Y-54.0
X56.4Y-107.8
X56.4Y-134.0
X58.0Y-107.8
X60.0Y-107.8
X60.0Y-130.0
X60.0Y-132.5
X60.0Y-135.0
X60.0Y-137.0
X60.78Y-116.14
X61.55Y-107.8
X62.32Y-116.14
X62.5Y-130.0
X62.5Y-132.5
X62.5Y-135.0
X62.5Y-137.0
X65.0Y-120.0
X65.0Y-122.5
X65.0Y-125.0
X65.0Y-127.5
X65.0Y-130.0
X65.0Y-132.5
X65.0Y-135.0
X65.0Y-137.0
X67.0Y-120.0
X67.0Y-122.5
X67.0Y-125.0
X67.0Y-127.5
X67.0Y-130.0
X67.0Y-132.5
X67.0Y-135.0
X67.0Y-137.0
X69.5Y-120.0
X69.5Y-122.5
X69.5Y-125.0
X72.0Y-120.0
X72.0Y-122.5
X72.0Y-125.0
X73.0Y-64.0
X73.0Y-67.5
X73.0Y-71.0
X74.5Y-120.0
X74.5Y-122.5
X74.5Y-125.0
X76.2Y-94.0
X77.25Y-64.0
X77.25Y-67.5
X77.25Y-71.0
X81.5Y-64.0
X81.5Y-67.5
X81.5Y-71.0
X82.0Y-77.0
X82.0Y-80.0
X84.0Y-93.5
X85.0Y-64.0
X85.0Y-67.5
X85.0Y-71.0
X89.25Y-64.0
X89.25Y-67.5
X89.25Y-71.0
X92.5Y-108.75
X92.5Y-110.0
X92.5Y-111.25
X92.5Y-112.5
X93.5Y-64.0
X93.5Y-67.5
X93.5Y-71.0
X94.0Y-77.0
X94.0Y-80.0
X95.735Y-87.985
X95.735Y-91.015
X97.0Y-64.0
X97.0Y-67.5
X97.0Y-71.0
X98.25Y-88.0
X98.315Y-91.015
X100.815Y-91.015
X100.85Y-88.0
X101.25Y-64.0
X101.25Y-67.5
X101.25Y-71.0
X103.35Y-88.0
X103.365Y-91.015
X105.5Y-64.0
X105.5Y-67.5
X105.5Y-71.0
X105.9Y-77.0
X106.0Y-80.0
X106.695Y-87.9
X106.7Y-91.0
X108.53Y-87.9
X109.0Y-64.0
X109.0Y-67.5
X109.0Y-71.0
X113.25Y-64.0
X113.25Y-67.5
X113.25Y-71.0
X117.5Y-64.0
X117.5Y-67.5
X117.5Y-71.0
X118.0Y-77.0
X118.0Y-80.0
X118.75Y-122.7
X121.0Y-64.0
X121.0Y-67.5
X121.0Y-71.0
X121.0Y-112.0
X121.05Y-110.5
X125.25Y-64.0
X125.25Y-67.5
X125.25Y-71.0
X128.05Y-122.7
X129.5Y-64.0
X129.5Y-67.5
X129.5Y-71.0
X130.0Y-77.0
X130.0Y-80.0
X143.05Y-114.35
X143.35Y-110.0
X146.0Y-62.7
X147.1Y-106.0
X148.0Y-97.75
X148.0Y-118.7
X149.0Y-125.0
X149.0Y-127.0
X149.0Y-128.0
X150.9Y-99.7
X150.9Y-103.5
X155.0Y-62.7
X164.0Y-62.7
X167.6Y-54.0
X167.6Y-134.0
X168.303Y-52.303
X168.303Y-55.697
X168.303Y-132.303
X168.303Y-135.697
X170.0Y-51.6
X170.0Y-56.4
X170.0Y-131.6
X170.0Y-136.4
X171.697Y-52.303
X171.697Y-55.697
X171.697Y-132.303
X171.697Y-135.697
X172.4Y-54.0
X172.4Y-134.0
T2
X83.0Y-111.57
X83.0Y-114.11
X83.0Y-116.65
X83.0Y-119.19
X83.0Y-121.73
X83.0Y-124.27
X83.0Y-126.81
X83.0Y-129.35
X83.0Y-131.89
X83.0Y-134.43
T3
X141.0Y-53.0
X141.0Y-55.5
X141.0Y-58.0
X141.0Y-73.0
X141.0Y-75.5
X141.0Y-78.0
X141.0Y-80.5
X150.0Y-73.0
X150.0Y-75.5
X150.0Y-78.0
X150.0Y-80.5
X159.0Y-73.0
X159.0Y-75.5
X159.0Y-78.0
X159.0Y-80.5
X168.0Y-73.0
X168.0Y-75.5
X168.0Y-78.0
X168.0Y-80.5
T4
X59.2Y-75.3
X59.2Y-77.84
X59.2Y-80.38
X59.2Y-85.46
X59.2Y-88.0
X59.2Y-90.54
X59.2Y-93.08
X65.75Y-54.75
X68.25Y-54.75
X68.4Y-77.8
X68.4Y-80.34
X68.4Y-85.42
X68.4Y-87.96
X68.4Y-90.5
X76.0Y-54.75
X78.5Y-54.75
X87.25Y-110.25
X87.25Y-112.75
X88.0Y-54.75
X90.5Y-54.75
X100.0Y-54.75
X102.5Y-54.75
X112.0Y-54.75
X114.5Y-54.75
X116.65Y-133.5
X119.19Y-97.94
X119.19Y-133.5
X121.73Y-97.94
X121.73Y-133.5
X124.0Y-54.75
X124.27Y-97.94
X124.27Y-133.5
X126.5Y-54.75
X126.81Y-97.94
X126.81Y-133.5
X129.35Y-133.5
X138.3Y-95.44
X138.3Y-97.98
X138.3Y-100.52
X138.3Y-103.06
X138.3Y-105.6
X138.3Y-108.14
X138.3Y-110.68
X138.3Y-113.22
X138.3Y-115.76
X138.3Y-118.3
X138.3Y-120.84
X138.3Y-123.38
X138.3Y-125.92
X138.3Y-128.46
X138.3Y-131.0
X149.0Y-53.0
X149.0Y-55.5
X150.0Y-63.0
X150.0Y-65.5
X159.0Y-53.0
X159.0Y-55.5
X159.0Y-63.0
X159.0Y-65.5
X163.7Y-95.44
X163.7Y-97.98
X163.7Y-100.52
X163.7Y-103.06
X163.7Y-105.6
X163.7Y-108.14
X163.7Y-110.68
X163.7Y-113.22
X163.7Y-115.76
X163.7Y-118.3
X163.7Y-120.84
X163.7Y-123.38
X163.7Y-125.92
X163.7Y-128.46
X163.7Y-131.0
X168.0Y-63.0
X168.0Y-65.5
T5
X85.5Y-121.73
X115.8Y-120.0
X140.1Y-95.4
X140.6Y-98.0
X140.6Y-100.5
X140.6Y-103.1
X140.6Y-105.6
X140.75Y-126.0
X140.75Y-131.0
X166.5Y-95.5
X166.5Y-121.0
X166.5Y-123.5
X166.5Y-126.0
X166.5Y-128.5
X166.5Y-131.0
T6
X108.392Y-114.608
T7
X53.3Y-63.05
X53.3Y-100.95
X68.7Y-63.05
X68.7Y-100.95
T8
X70.554Y-111.57
X70.554Y-134.43
T9
X54.0Y-54.0
X54.0Y-134.0
X170.0Y-54.0
X170.0Y-134.0
T10
X89.675Y-123.8
X103.962Y-115.551
X103.962Y-132.049
T11
X53.35Y-67.15
X53.35Y-96.85
X68.65Y-67.15
T12
X113.75Y-100.77
X113.75Y-126.77
X132.25Y-126.77
X139.062Y-88.074
X139.062Y-135.318
X162.938Y-88.074
X162.938Y-135.318
T6
X90.856Y-132.144G85X89.301Y-133.699
G05
X99.2Y-110.45G85X99.2Y-109.15
G05
X99.2Y-130.95G85X99.2Y-129.65
G05
X105.705Y-117.295G85X104.15Y-118.85
G05
T0
M30
