%TF.GenerationSoftware,KiCad,Pcbnew,5.1.9-73d0e3b20d~88~ubuntu20.04.1*%
%TF.CreationDate,2021-10-11T11:35:55+05:30*%
%TF.ProjectId,vayuO2,76617975-4f32-42e6-9b69-6361645f7063,rev 2*%
%TF.SameCoordinates,Original*%
%TF.FileFunction,Profile,NP*%
%FSLAX46Y46*%
G04 Gerber Fmt 4.6, Leading zero omitted, Abs format (unit mm)*
G04 Created by KiCad (PCBNEW 5.1.9-73d0e3b20d~88~ubuntu20.04.1) date 2021-10-11 11:35:55*
%MOMM*%
%LPD*%
G01*
G04 APERTURE LIST*
%TA.AperFunction,Profile*%
%ADD10C,0.076200*%
%TD*%
G04 APERTURE END LIST*
D10*
X123750000Y-85000001D02*
X123750000Y-56100000D01*
X125250002Y-56100000D02*
X125250000Y-84999999D01*
X125250000Y-84999999D02*
G75*
G02*
X123750000Y-85000001I-750000J-1D01*
G01*
X123749996Y-56100000D02*
G75*
G02*
X125250002Y-56100000I750003J0D01*
G01*
X73500000Y-82250000D02*
G75*
G02*
X73500000Y-83750000I0J-750000D01*
G01*
X53000000Y-83750000D02*
G75*
G02*
X53000000Y-82250000I0J750000D01*
G01*
X73500000Y-83750000D02*
X53000000Y-83750000D01*
X53000000Y-82250000D02*
X73500000Y-82250000D01*
X174000000Y-54000000D02*
X174000000Y-134000000D01*
X93000000Y-90250000D02*
X110500000Y-90250000D01*
X110500000Y-88750000D02*
X93000000Y-88750000D01*
X110500000Y-88750000D02*
G75*
G02*
X110500000Y-90250000I0J-750000D01*
G01*
X93000000Y-90250000D02*
G75*
G02*
X93000000Y-88750000I0J750000D01*
G01*
X54000000Y-138000000D02*
X170000000Y-138000000D01*
X54000000Y-138000000D02*
G75*
G02*
X50000000Y-134000000I0J4000000D01*
G01*
X50000000Y-54000000D02*
G75*
G02*
X54000000Y-50000000I4000000J0D01*
G01*
X170000000Y-50000000D02*
G75*
G02*
X174000000Y-54000000I0J-4000000D01*
G01*
X174000000Y-134000000D02*
G75*
G02*
X170000000Y-138000000I-4000000J0D01*
G01*
X50000000Y-54000000D02*
X50000000Y-134000000D01*
X170000000Y-50000000D02*
X54000000Y-50000000D01*
M02*
