G04 #@! TF.GenerationSoftware,KiCad,Pcbnew,5.1.9-73d0e3b20d~88~ubuntu20.04.1*
G04 #@! TF.CreationDate,2021-10-07T21:39:00+05:30*
G04 #@! TF.ProjectId,vayuO2,76617975-4f32-42e6-9b69-6361645f7063,rev 1*
G04 #@! TF.SameCoordinates,Original*
G04 #@! TF.FileFunction,Paste,Top*
G04 #@! TF.FilePolarity,Positive*
%FSLAX46Y46*%
G04 Gerber Fmt 4.6, Leading zero omitted, Abs format (unit mm)*
G04 Created by KiCad (PCBNEW 5.1.9-73d0e3b20d~88~ubuntu20.04.1) date 2021-10-07 21:39:00*
%MOMM*%
%LPD*%
G01*
G04 APERTURE LIST*
%ADD10R,1.330000X1.330000*%
%ADD11R,0.900000X2.000000*%
%ADD12R,2.000000X0.900000*%
%ADD13R,0.939800X2.489200*%
%ADD14R,4.368800X5.918200*%
%ADD15R,1.200000X1.400000*%
%ADD16R,1.400000X1.400000*%
%ADD17R,1.800000X1.300000*%
%ADD18R,0.650000X0.400000*%
%ADD19R,0.900000X0.800000*%
%ADD20R,2.200000X1.200000*%
%ADD21R,3.050000X2.750000*%
%ADD22R,0.600000X0.400000*%
%ADD23R,2.000000X2.000000*%
%ADD24R,1.350000X0.400000*%
%ADD25R,1.005000X1.005000*%
%ADD26O,0.300000X0.850000*%
%ADD27O,0.850000X0.300000*%
%ADD28R,0.599440X1.998980*%
%ADD29R,0.800000X0.900000*%
%ADD30R,2.500000X2.300000*%
G04 APERTURE END LIST*
G36*
G01*
X104265000Y-93525000D02*
X103865000Y-93525000D01*
G75*
G02*
X103665000Y-93325000I0J200000D01*
G01*
X103665000Y-91925000D01*
G75*
G02*
X103865000Y-91725000I200000J0D01*
G01*
X104265000Y-91725000D01*
G75*
G02*
X104465000Y-91925000I0J-200000D01*
G01*
X104465000Y-93325000D01*
G75*
G02*
X104265000Y-93525000I-200000J0D01*
G01*
G37*
G36*
G01*
X105535000Y-93525000D02*
X105135000Y-93525000D01*
G75*
G02*
X104935000Y-93325000I0J200000D01*
G01*
X104935000Y-91925000D01*
G75*
G02*
X105135000Y-91725000I200000J0D01*
G01*
X105535000Y-91725000D01*
G75*
G02*
X105735000Y-91925000I0J-200000D01*
G01*
X105735000Y-93325000D01*
G75*
G02*
X105535000Y-93525000I-200000J0D01*
G01*
G37*
G36*
G01*
X105535000Y-87275000D02*
X105135000Y-87275000D01*
G75*
G02*
X104935000Y-87075000I0J200000D01*
G01*
X104935000Y-85675000D01*
G75*
G02*
X105135000Y-85475000I200000J0D01*
G01*
X105535000Y-85475000D01*
G75*
G02*
X105735000Y-85675000I0J-200000D01*
G01*
X105735000Y-87075000D01*
G75*
G02*
X105535000Y-87275000I-200000J0D01*
G01*
G37*
G36*
G01*
X104265000Y-87275000D02*
X103865000Y-87275000D01*
G75*
G02*
X103665000Y-87075000I0J200000D01*
G01*
X103665000Y-85675000D01*
G75*
G02*
X103865000Y-85475000I200000J0D01*
G01*
X104265000Y-85475000D01*
G75*
G02*
X104465000Y-85675000I0J-200000D01*
G01*
X104465000Y-87075000D01*
G75*
G02*
X104265000Y-87275000I-200000J0D01*
G01*
G37*
G36*
G01*
X101065000Y-93525000D02*
X100665000Y-93525000D01*
G75*
G02*
X100465000Y-93325000I0J200000D01*
G01*
X100465000Y-91925000D01*
G75*
G02*
X100665000Y-91725000I200000J0D01*
G01*
X101065000Y-91725000D01*
G75*
G02*
X101265000Y-91925000I0J-200000D01*
G01*
X101265000Y-93325000D01*
G75*
G02*
X101065000Y-93525000I-200000J0D01*
G01*
G37*
G36*
G01*
X102335000Y-93525000D02*
X101935000Y-93525000D01*
G75*
G02*
X101735000Y-93325000I0J200000D01*
G01*
X101735000Y-91925000D01*
G75*
G02*
X101935000Y-91725000I200000J0D01*
G01*
X102335000Y-91725000D01*
G75*
G02*
X102535000Y-91925000I0J-200000D01*
G01*
X102535000Y-93325000D01*
G75*
G02*
X102335000Y-93525000I-200000J0D01*
G01*
G37*
G36*
G01*
X102335000Y-87275000D02*
X101935000Y-87275000D01*
G75*
G02*
X101735000Y-87075000I0J200000D01*
G01*
X101735000Y-85675000D01*
G75*
G02*
X101935000Y-85475000I200000J0D01*
G01*
X102335000Y-85475000D01*
G75*
G02*
X102535000Y-85675000I0J-200000D01*
G01*
X102535000Y-87075000D01*
G75*
G02*
X102335000Y-87275000I-200000J0D01*
G01*
G37*
G36*
G01*
X101065000Y-87275000D02*
X100665000Y-87275000D01*
G75*
G02*
X100465000Y-87075000I0J200000D01*
G01*
X100465000Y-85675000D01*
G75*
G02*
X100665000Y-85475000I200000J0D01*
G01*
X101065000Y-85475000D01*
G75*
G02*
X101265000Y-85675000I0J-200000D01*
G01*
X101265000Y-87075000D01*
G75*
G02*
X101065000Y-87275000I-200000J0D01*
G01*
G37*
G36*
G01*
X97865000Y-93525000D02*
X97465000Y-93525000D01*
G75*
G02*
X97265000Y-93325000I0J200000D01*
G01*
X97265000Y-91925000D01*
G75*
G02*
X97465000Y-91725000I200000J0D01*
G01*
X97865000Y-91725000D01*
G75*
G02*
X98065000Y-91925000I0J-200000D01*
G01*
X98065000Y-93325000D01*
G75*
G02*
X97865000Y-93525000I-200000J0D01*
G01*
G37*
G36*
G01*
X99135000Y-93525000D02*
X98735000Y-93525000D01*
G75*
G02*
X98535000Y-93325000I0J200000D01*
G01*
X98535000Y-91925000D01*
G75*
G02*
X98735000Y-91725000I200000J0D01*
G01*
X99135000Y-91725000D01*
G75*
G02*
X99335000Y-91925000I0J-200000D01*
G01*
X99335000Y-93325000D01*
G75*
G02*
X99135000Y-93525000I-200000J0D01*
G01*
G37*
G36*
G01*
X99135000Y-87275000D02*
X98735000Y-87275000D01*
G75*
G02*
X98535000Y-87075000I0J200000D01*
G01*
X98535000Y-85675000D01*
G75*
G02*
X98735000Y-85475000I200000J0D01*
G01*
X99135000Y-85475000D01*
G75*
G02*
X99335000Y-85675000I0J-200000D01*
G01*
X99335000Y-87075000D01*
G75*
G02*
X99135000Y-87275000I-200000J0D01*
G01*
G37*
G36*
G01*
X97865000Y-87275000D02*
X97465000Y-87275000D01*
G75*
G02*
X97265000Y-87075000I0J200000D01*
G01*
X97265000Y-85675000D01*
G75*
G02*
X97465000Y-85475000I200000J0D01*
G01*
X97865000Y-85475000D01*
G75*
G02*
X98065000Y-85675000I0J-200000D01*
G01*
X98065000Y-87075000D01*
G75*
G02*
X97865000Y-87275000I-200000J0D01*
G01*
G37*
G36*
G01*
X94665000Y-93525000D02*
X94265000Y-93525000D01*
G75*
G02*
X94065000Y-93325000I0J200000D01*
G01*
X94065000Y-91925000D01*
G75*
G02*
X94265000Y-91725000I200000J0D01*
G01*
X94665000Y-91725000D01*
G75*
G02*
X94865000Y-91925000I0J-200000D01*
G01*
X94865000Y-93325000D01*
G75*
G02*
X94665000Y-93525000I-200000J0D01*
G01*
G37*
G36*
G01*
X95935000Y-93525000D02*
X95535000Y-93525000D01*
G75*
G02*
X95335000Y-93325000I0J200000D01*
G01*
X95335000Y-91925000D01*
G75*
G02*
X95535000Y-91725000I200000J0D01*
G01*
X95935000Y-91725000D01*
G75*
G02*
X96135000Y-91925000I0J-200000D01*
G01*
X96135000Y-93325000D01*
G75*
G02*
X95935000Y-93525000I-200000J0D01*
G01*
G37*
G36*
G01*
X95935000Y-87275000D02*
X95535000Y-87275000D01*
G75*
G02*
X95335000Y-87075000I0J200000D01*
G01*
X95335000Y-85675000D01*
G75*
G02*
X95535000Y-85475000I200000J0D01*
G01*
X95935000Y-85475000D01*
G75*
G02*
X96135000Y-85675000I0J-200000D01*
G01*
X96135000Y-87075000D01*
G75*
G02*
X95935000Y-87275000I-200000J0D01*
G01*
G37*
G36*
G01*
X94665000Y-87275000D02*
X94265000Y-87275000D01*
G75*
G02*
X94065000Y-87075000I0J200000D01*
G01*
X94065000Y-85675000D01*
G75*
G02*
X94265000Y-85475000I200000J0D01*
G01*
X94665000Y-85475000D01*
G75*
G02*
X94865000Y-85675000I0J-200000D01*
G01*
X94865000Y-87075000D01*
G75*
G02*
X94665000Y-87275000I-200000J0D01*
G01*
G37*
G36*
G01*
X107465000Y-93525000D02*
X107065000Y-93525000D01*
G75*
G02*
X106865000Y-93325000I0J200000D01*
G01*
X106865000Y-91925000D01*
G75*
G02*
X107065000Y-91725000I200000J0D01*
G01*
X107465000Y-91725000D01*
G75*
G02*
X107665000Y-91925000I0J-200000D01*
G01*
X107665000Y-93325000D01*
G75*
G02*
X107465000Y-93525000I-200000J0D01*
G01*
G37*
G36*
G01*
X108735000Y-93525000D02*
X108335000Y-93525000D01*
G75*
G02*
X108135000Y-93325000I0J200000D01*
G01*
X108135000Y-91925000D01*
G75*
G02*
X108335000Y-91725000I200000J0D01*
G01*
X108735000Y-91725000D01*
G75*
G02*
X108935000Y-91925000I0J-200000D01*
G01*
X108935000Y-93325000D01*
G75*
G02*
X108735000Y-93525000I-200000J0D01*
G01*
G37*
G36*
G01*
X108735000Y-87275000D02*
X108335000Y-87275000D01*
G75*
G02*
X108135000Y-87075000I0J200000D01*
G01*
X108135000Y-85675000D01*
G75*
G02*
X108335000Y-85475000I200000J0D01*
G01*
X108735000Y-85475000D01*
G75*
G02*
X108935000Y-85675000I0J-200000D01*
G01*
X108935000Y-87075000D01*
G75*
G02*
X108735000Y-87275000I-200000J0D01*
G01*
G37*
G36*
G01*
X107465000Y-87275000D02*
X107065000Y-87275000D01*
G75*
G02*
X106865000Y-87075000I0J200000D01*
G01*
X106865000Y-85675000D01*
G75*
G02*
X107065000Y-85475000I200000J0D01*
G01*
X107465000Y-85475000D01*
G75*
G02*
X107665000Y-85675000I0J-200000D01*
G01*
X107665000Y-87075000D01*
G75*
G02*
X107465000Y-87275000I-200000J0D01*
G01*
G37*
G36*
G01*
X79550000Y-123450000D02*
X79550000Y-124550000D01*
G75*
G02*
X79300000Y-124800000I-250000J0D01*
G01*
X76300000Y-124800000D01*
G75*
G02*
X76050000Y-124550000I0J250000D01*
G01*
X76050000Y-123450000D01*
G75*
G02*
X76300000Y-123200000I250000J0D01*
G01*
X79300000Y-123200000D01*
G75*
G02*
X79550000Y-123450000I0J-250000D01*
G01*
G37*
G36*
G01*
X84950000Y-123450000D02*
X84950000Y-124550000D01*
G75*
G02*
X84700000Y-124800000I-250000J0D01*
G01*
X81700000Y-124800000D01*
G75*
G02*
X81450000Y-124550000I0J250000D01*
G01*
X81450000Y-123450000D01*
G75*
G02*
X81700000Y-123200000I250000J0D01*
G01*
X84700000Y-123200000D01*
G75*
G02*
X84950000Y-123450000I0J-250000D01*
G01*
G37*
D10*
X170760001Y-76250000D03*
D11*
X178260001Y-85750000D03*
X176990001Y-85750000D03*
X175720001Y-85750000D03*
X174450001Y-85750000D03*
X173180001Y-85750000D03*
X171910001Y-85750000D03*
X170640001Y-85750000D03*
X169370001Y-85750000D03*
X168100001Y-85750000D03*
X166830001Y-85750000D03*
X165560001Y-85750000D03*
X164290001Y-85750000D03*
X163020001Y-85750000D03*
X161750001Y-85750000D03*
D12*
X160750001Y-82965000D03*
X160750001Y-81695000D03*
X160750001Y-80425000D03*
X160750001Y-79155000D03*
X160750001Y-77885000D03*
X160750001Y-76615000D03*
X160750001Y-75345000D03*
X160750001Y-74075000D03*
X160750001Y-72805000D03*
X160750001Y-71535000D03*
D11*
X161750001Y-68750000D03*
X163020001Y-68750000D03*
X164290001Y-68750000D03*
X165560001Y-68750000D03*
X166830001Y-68750000D03*
X168100001Y-68750000D03*
X169370001Y-68750000D03*
X170640001Y-68750000D03*
X171910001Y-68750000D03*
X173180001Y-68750000D03*
X174450001Y-68750000D03*
X175720001Y-68750000D03*
X176990001Y-68750000D03*
X178260001Y-68750000D03*
D10*
X170760001Y-78085000D03*
X170760001Y-74415000D03*
X172595001Y-76250000D03*
X172595001Y-74415000D03*
X172595001Y-78085000D03*
X168925001Y-76250000D03*
X168925001Y-74415000D03*
X168925001Y-78085000D03*
G36*
G01*
X142850000Y-124250000D02*
X142850000Y-125350000D01*
G75*
G02*
X142600000Y-125600000I-250000J0D01*
G01*
X139600000Y-125600000D01*
G75*
G02*
X139350000Y-125350000I0J250000D01*
G01*
X139350000Y-124250000D01*
G75*
G02*
X139600000Y-124000000I250000J0D01*
G01*
X142600000Y-124000000D01*
G75*
G02*
X142850000Y-124250000I0J-250000D01*
G01*
G37*
G36*
G01*
X148250000Y-124250000D02*
X148250000Y-125350000D01*
G75*
G02*
X148000000Y-125600000I-250000J0D01*
G01*
X145000000Y-125600000D01*
G75*
G02*
X144750000Y-125350000I0J250000D01*
G01*
X144750000Y-124250000D01*
G75*
G02*
X145000000Y-124000000I250000J0D01*
G01*
X148000000Y-124000000D01*
G75*
G02*
X148250000Y-124250000I0J-250000D01*
G01*
G37*
G36*
G01*
X79550000Y-130950000D02*
X79550000Y-132050000D01*
G75*
G02*
X79300000Y-132300000I-250000J0D01*
G01*
X76300000Y-132300000D01*
G75*
G02*
X76050000Y-132050000I0J250000D01*
G01*
X76050000Y-130950000D01*
G75*
G02*
X76300000Y-130700000I250000J0D01*
G01*
X79300000Y-130700000D01*
G75*
G02*
X79550000Y-130950000I0J-250000D01*
G01*
G37*
G36*
G01*
X84950000Y-130950000D02*
X84950000Y-132050000D01*
G75*
G02*
X84700000Y-132300000I-250000J0D01*
G01*
X81700000Y-132300000D01*
G75*
G02*
X81450000Y-132050000I0J250000D01*
G01*
X81450000Y-130950000D01*
G75*
G02*
X81700000Y-130700000I250000J0D01*
G01*
X84700000Y-130700000D01*
G75*
G02*
X84950000Y-130950000I0J-250000D01*
G01*
G37*
G36*
G01*
X64850000Y-63750000D02*
X64850000Y-64850000D01*
G75*
G02*
X64600000Y-65100000I-250000J0D01*
G01*
X61600000Y-65100000D01*
G75*
G02*
X61350000Y-64850000I0J250000D01*
G01*
X61350000Y-63750000D01*
G75*
G02*
X61600000Y-63500000I250000J0D01*
G01*
X64600000Y-63500000D01*
G75*
G02*
X64850000Y-63750000I0J-250000D01*
G01*
G37*
G36*
G01*
X70250000Y-63750000D02*
X70250000Y-64850000D01*
G75*
G02*
X70000000Y-65100000I-250000J0D01*
G01*
X67000000Y-65100000D01*
G75*
G02*
X66750000Y-64850000I0J250000D01*
G01*
X66750000Y-63750000D01*
G75*
G02*
X67000000Y-63500000I250000J0D01*
G01*
X70000000Y-63500000D01*
G75*
G02*
X70250000Y-63750000I0J-250000D01*
G01*
G37*
G36*
G01*
X169500000Y-55000000D02*
X169500000Y-57000000D01*
G75*
G02*
X169250000Y-57250000I-250000J0D01*
G01*
X166250000Y-57250000D01*
G75*
G02*
X166000000Y-57000000I0J250000D01*
G01*
X166000000Y-55000000D01*
G75*
G02*
X166250000Y-54750000I250000J0D01*
G01*
X169250000Y-54750000D01*
G75*
G02*
X169500000Y-55000000I0J-250000D01*
G01*
G37*
G36*
G01*
X176000000Y-55000000D02*
X176000000Y-57000000D01*
G75*
G02*
X175750000Y-57250000I-250000J0D01*
G01*
X172750000Y-57250000D01*
G75*
G02*
X172500000Y-57000000I0J250000D01*
G01*
X172500000Y-55000000D01*
G75*
G02*
X172750000Y-54750000I250000J0D01*
G01*
X175750000Y-54750000D01*
G75*
G02*
X176000000Y-55000000I0J-250000D01*
G01*
G37*
G36*
G01*
X90375000Y-82525000D02*
X90375000Y-83075000D01*
G75*
G02*
X90175000Y-83275000I-200000J0D01*
G01*
X89775000Y-83275000D01*
G75*
G02*
X89575000Y-83075000I0J200000D01*
G01*
X89575000Y-82525000D01*
G75*
G02*
X89775000Y-82325000I200000J0D01*
G01*
X90175000Y-82325000D01*
G75*
G02*
X90375000Y-82525000I0J-200000D01*
G01*
G37*
G36*
G01*
X92025000Y-82525000D02*
X92025000Y-83075000D01*
G75*
G02*
X91825000Y-83275000I-200000J0D01*
G01*
X91425000Y-83275000D01*
G75*
G02*
X91225000Y-83075000I0J200000D01*
G01*
X91225000Y-82525000D01*
G75*
G02*
X91425000Y-82325000I200000J0D01*
G01*
X91825000Y-82325000D01*
G75*
G02*
X92025000Y-82525000I0J-200000D01*
G01*
G37*
G36*
G01*
X158125000Y-116725000D02*
X158675000Y-116725000D01*
G75*
G02*
X158875000Y-116925000I0J-200000D01*
G01*
X158875000Y-117325000D01*
G75*
G02*
X158675000Y-117525000I-200000J0D01*
G01*
X158125000Y-117525000D01*
G75*
G02*
X157925000Y-117325000I0J200000D01*
G01*
X157925000Y-116925000D01*
G75*
G02*
X158125000Y-116725000I200000J0D01*
G01*
G37*
G36*
G01*
X158125000Y-115075000D02*
X158675000Y-115075000D01*
G75*
G02*
X158875000Y-115275000I0J-200000D01*
G01*
X158875000Y-115675000D01*
G75*
G02*
X158675000Y-115875000I-200000J0D01*
G01*
X158125000Y-115875000D01*
G75*
G02*
X157925000Y-115675000I0J200000D01*
G01*
X157925000Y-115275000D01*
G75*
G02*
X158125000Y-115075000I200000J0D01*
G01*
G37*
D13*
X99300000Y-77943500D03*
X97014000Y-77943500D03*
X101586000Y-77943500D03*
D14*
X99300000Y-70844200D03*
D13*
X79300000Y-77943500D03*
X77014000Y-77943500D03*
X81586000Y-77943500D03*
D14*
X79300000Y-70844200D03*
G36*
G01*
X108950000Y-95975000D02*
X108450000Y-95975000D01*
G75*
G02*
X108225000Y-95750000I0J225000D01*
G01*
X108225000Y-95300000D01*
G75*
G02*
X108450000Y-95075000I225000J0D01*
G01*
X108950000Y-95075000D01*
G75*
G02*
X109175000Y-95300000I0J-225000D01*
G01*
X109175000Y-95750000D01*
G75*
G02*
X108950000Y-95975000I-225000J0D01*
G01*
G37*
G36*
G01*
X108950000Y-97525000D02*
X108450000Y-97525000D01*
G75*
G02*
X108225000Y-97300000I0J225000D01*
G01*
X108225000Y-96850000D01*
G75*
G02*
X108450000Y-96625000I225000J0D01*
G01*
X108950000Y-96625000D01*
G75*
G02*
X109175000Y-96850000I0J-225000D01*
G01*
X109175000Y-97300000D01*
G75*
G02*
X108950000Y-97525000I-225000J0D01*
G01*
G37*
G36*
G01*
X156125000Y-130925000D02*
X156675000Y-130925000D01*
G75*
G02*
X156875000Y-131125000I0J-200000D01*
G01*
X156875000Y-131525000D01*
G75*
G02*
X156675000Y-131725000I-200000J0D01*
G01*
X156125000Y-131725000D01*
G75*
G02*
X155925000Y-131525000I0J200000D01*
G01*
X155925000Y-131125000D01*
G75*
G02*
X156125000Y-130925000I200000J0D01*
G01*
G37*
G36*
G01*
X156125000Y-129275000D02*
X156675000Y-129275000D01*
G75*
G02*
X156875000Y-129475000I0J-200000D01*
G01*
X156875000Y-129875000D01*
G75*
G02*
X156675000Y-130075000I-200000J0D01*
G01*
X156125000Y-130075000D01*
G75*
G02*
X155925000Y-129875000I0J200000D01*
G01*
X155925000Y-129475000D01*
G75*
G02*
X156125000Y-129275000I200000J0D01*
G01*
G37*
D15*
X176400000Y-118800000D03*
X178600000Y-118800000D03*
X178600000Y-121400000D03*
D16*
X176500000Y-121400000D03*
D17*
X124525000Y-129750000D03*
X132475000Y-129750000D03*
X132475000Y-134250000D03*
X124525000Y-134250000D03*
D18*
X166850000Y-124950000D03*
X166850000Y-126250000D03*
X164950000Y-125600000D03*
X166850000Y-125600000D03*
X164950000Y-126250000D03*
X164950000Y-124950000D03*
G36*
G01*
X146525000Y-92975000D02*
X146525000Y-92425000D01*
G75*
G02*
X146725000Y-92225000I200000J0D01*
G01*
X147125000Y-92225000D01*
G75*
G02*
X147325000Y-92425000I0J-200000D01*
G01*
X147325000Y-92975000D01*
G75*
G02*
X147125000Y-93175000I-200000J0D01*
G01*
X146725000Y-93175000D01*
G75*
G02*
X146525000Y-92975000I0J200000D01*
G01*
G37*
G36*
G01*
X144875000Y-92975000D02*
X144875000Y-92425000D01*
G75*
G02*
X145075000Y-92225000I200000J0D01*
G01*
X145475000Y-92225000D01*
G75*
G02*
X145675000Y-92425000I0J-200000D01*
G01*
X145675000Y-92975000D01*
G75*
G02*
X145475000Y-93175000I-200000J0D01*
G01*
X145075000Y-93175000D01*
G75*
G02*
X144875000Y-92975000I0J200000D01*
G01*
G37*
G36*
G01*
X152475000Y-92425000D02*
X152475000Y-92975000D01*
G75*
G02*
X152275000Y-93175000I-200000J0D01*
G01*
X151875000Y-93175000D01*
G75*
G02*
X151675000Y-92975000I0J200000D01*
G01*
X151675000Y-92425000D01*
G75*
G02*
X151875000Y-92225000I200000J0D01*
G01*
X152275000Y-92225000D01*
G75*
G02*
X152475000Y-92425000I0J-200000D01*
G01*
G37*
G36*
G01*
X154125000Y-92425000D02*
X154125000Y-92975000D01*
G75*
G02*
X153925000Y-93175000I-200000J0D01*
G01*
X153525000Y-93175000D01*
G75*
G02*
X153325000Y-92975000I0J200000D01*
G01*
X153325000Y-92425000D01*
G75*
G02*
X153525000Y-92225000I200000J0D01*
G01*
X153925000Y-92225000D01*
G75*
G02*
X154125000Y-92425000I0J-200000D01*
G01*
G37*
D19*
X150500000Y-91700000D03*
X148500000Y-92650000D03*
X148500000Y-90750000D03*
D20*
X87800000Y-125520000D03*
X87800000Y-127800000D03*
X87800000Y-130080000D03*
D21*
X95775000Y-129325000D03*
X92425000Y-126275000D03*
X95775000Y-126275000D03*
X92425000Y-129325000D03*
G36*
G01*
X174375000Y-62150000D02*
X174375000Y-62650000D01*
G75*
G02*
X174150000Y-62875000I-225000J0D01*
G01*
X173700000Y-62875000D01*
G75*
G02*
X173475000Y-62650000I0J225000D01*
G01*
X173475000Y-62150000D01*
G75*
G02*
X173700000Y-61925000I225000J0D01*
G01*
X174150000Y-61925000D01*
G75*
G02*
X174375000Y-62150000I0J-225000D01*
G01*
G37*
G36*
G01*
X175925000Y-62150000D02*
X175925000Y-62650000D01*
G75*
G02*
X175700000Y-62875000I-225000J0D01*
G01*
X175250000Y-62875000D01*
G75*
G02*
X175025000Y-62650000I0J225000D01*
G01*
X175025000Y-62150000D01*
G75*
G02*
X175250000Y-61925000I225000J0D01*
G01*
X175700000Y-61925000D01*
G75*
G02*
X175925000Y-62150000I0J-225000D01*
G01*
G37*
G36*
G01*
X81756250Y-93525000D02*
X81243750Y-93525000D01*
G75*
G02*
X81025000Y-93306250I0J218750D01*
G01*
X81025000Y-92868750D01*
G75*
G02*
X81243750Y-92650000I218750J0D01*
G01*
X81756250Y-92650000D01*
G75*
G02*
X81975000Y-92868750I0J-218750D01*
G01*
X81975000Y-93306250D01*
G75*
G02*
X81756250Y-93525000I-218750J0D01*
G01*
G37*
G36*
G01*
X81756250Y-91950000D02*
X81243750Y-91950000D01*
G75*
G02*
X81025000Y-91731250I0J218750D01*
G01*
X81025000Y-91293750D01*
G75*
G02*
X81243750Y-91075000I218750J0D01*
G01*
X81756250Y-91075000D01*
G75*
G02*
X81975000Y-91293750I0J-218750D01*
G01*
X81975000Y-91731250D01*
G75*
G02*
X81756250Y-91950000I-218750J0D01*
G01*
G37*
G36*
G01*
X79075000Y-93525000D02*
X78525000Y-93525000D01*
G75*
G02*
X78325000Y-93325000I0J200000D01*
G01*
X78325000Y-92925000D01*
G75*
G02*
X78525000Y-92725000I200000J0D01*
G01*
X79075000Y-92725000D01*
G75*
G02*
X79275000Y-92925000I0J-200000D01*
G01*
X79275000Y-93325000D01*
G75*
G02*
X79075000Y-93525000I-200000J0D01*
G01*
G37*
G36*
G01*
X79075000Y-91875000D02*
X78525000Y-91875000D01*
G75*
G02*
X78325000Y-91675000I0J200000D01*
G01*
X78325000Y-91275000D01*
G75*
G02*
X78525000Y-91075000I200000J0D01*
G01*
X79075000Y-91075000D01*
G75*
G02*
X79275000Y-91275000I0J-200000D01*
G01*
X79275000Y-91675000D01*
G75*
G02*
X79075000Y-91875000I-200000J0D01*
G01*
G37*
D22*
X84000000Y-92750000D03*
X84000000Y-91850000D03*
D23*
X183850000Y-120950000D03*
D16*
X181600000Y-116600000D03*
D24*
X181175000Y-119800000D03*
X181175000Y-119150000D03*
X181175000Y-118500000D03*
X181175000Y-121100000D03*
X181175000Y-120450000D03*
D16*
X181600000Y-123000000D03*
D23*
X183850000Y-118650000D03*
D17*
X114025000Y-129750000D03*
X121975000Y-129750000D03*
X121975000Y-134250000D03*
X114025000Y-134250000D03*
G36*
G01*
X180725000Y-114075000D02*
X180725000Y-113525000D01*
G75*
G02*
X180925000Y-113325000I200000J0D01*
G01*
X181325000Y-113325000D01*
G75*
G02*
X181525000Y-113525000I0J-200000D01*
G01*
X181525000Y-114075000D01*
G75*
G02*
X181325000Y-114275000I-200000J0D01*
G01*
X180925000Y-114275000D01*
G75*
G02*
X180725000Y-114075000I0J200000D01*
G01*
G37*
G36*
G01*
X179075000Y-114075000D02*
X179075000Y-113525000D01*
G75*
G02*
X179275000Y-113325000I200000J0D01*
G01*
X179675000Y-113325000D01*
G75*
G02*
X179875000Y-113525000I0J-200000D01*
G01*
X179875000Y-114075000D01*
G75*
G02*
X179675000Y-114275000I-200000J0D01*
G01*
X179275000Y-114275000D01*
G75*
G02*
X179075000Y-114075000I0J200000D01*
G01*
G37*
G36*
G01*
X173725000Y-132075000D02*
X173725000Y-131525000D01*
G75*
G02*
X173925000Y-131325000I200000J0D01*
G01*
X174325000Y-131325000D01*
G75*
G02*
X174525000Y-131525000I0J-200000D01*
G01*
X174525000Y-132075000D01*
G75*
G02*
X174325000Y-132275000I-200000J0D01*
G01*
X173925000Y-132275000D01*
G75*
G02*
X173725000Y-132075000I0J200000D01*
G01*
G37*
G36*
G01*
X172075000Y-132075000D02*
X172075000Y-131525000D01*
G75*
G02*
X172275000Y-131325000I200000J0D01*
G01*
X172675000Y-131325000D01*
G75*
G02*
X172875000Y-131525000I0J-200000D01*
G01*
X172875000Y-132075000D01*
G75*
G02*
X172675000Y-132275000I-200000J0D01*
G01*
X172275000Y-132275000D01*
G75*
G02*
X172075000Y-132075000I0J200000D01*
G01*
G37*
G36*
G01*
X96875000Y-82525000D02*
X96875000Y-83075000D01*
G75*
G02*
X96675000Y-83275000I-200000J0D01*
G01*
X96275000Y-83275000D01*
G75*
G02*
X96075000Y-83075000I0J200000D01*
G01*
X96075000Y-82525000D01*
G75*
G02*
X96275000Y-82325000I200000J0D01*
G01*
X96675000Y-82325000D01*
G75*
G02*
X96875000Y-82525000I0J-200000D01*
G01*
G37*
G36*
G01*
X98525000Y-82525000D02*
X98525000Y-83075000D01*
G75*
G02*
X98325000Y-83275000I-200000J0D01*
G01*
X97925000Y-83275000D01*
G75*
G02*
X97725000Y-83075000I0J200000D01*
G01*
X97725000Y-82525000D01*
G75*
G02*
X97925000Y-82325000I200000J0D01*
G01*
X98325000Y-82325000D01*
G75*
G02*
X98525000Y-82525000I0J-200000D01*
G01*
G37*
D25*
X155562500Y-124462500D03*
X155562500Y-126137500D03*
X157237500Y-124462500D03*
X157237500Y-126137500D03*
D26*
X154900000Y-122850000D03*
X155400000Y-122850000D03*
X155900000Y-122850000D03*
X156400000Y-122850000D03*
X156900000Y-122850000D03*
X157400000Y-122850000D03*
X157900000Y-122850000D03*
D27*
X158850000Y-123800000D03*
X158850000Y-124300000D03*
X158850000Y-124800000D03*
X158850000Y-125300000D03*
X158850000Y-125800000D03*
X158850000Y-126300000D03*
X158850000Y-126800000D03*
D26*
X157900000Y-127750000D03*
X157400000Y-127750000D03*
X156900000Y-127750000D03*
X156400000Y-127750000D03*
X155900000Y-127750000D03*
X155400000Y-127750000D03*
X154900000Y-127750000D03*
D27*
X153950000Y-126800000D03*
X153950000Y-126300000D03*
X153950000Y-125800000D03*
X153950000Y-125300000D03*
X153950000Y-124800000D03*
X153950000Y-124300000D03*
X153950000Y-123800000D03*
D28*
X92445000Y-116150740D03*
X91175000Y-116150740D03*
X89905000Y-116150740D03*
X88635000Y-116150740D03*
X87365000Y-116150740D03*
X86095000Y-116150740D03*
X84825000Y-116150740D03*
X83555000Y-116150740D03*
X83555000Y-106849260D03*
X84825000Y-106849260D03*
X86095000Y-106849260D03*
X87365000Y-106849260D03*
X88635000Y-106849260D03*
X89905000Y-106849260D03*
X91175000Y-106849260D03*
X92445000Y-106849260D03*
G36*
G01*
X136725000Y-57775000D02*
X136725000Y-57225000D01*
G75*
G02*
X136925000Y-57025000I200000J0D01*
G01*
X137325000Y-57025000D01*
G75*
G02*
X137525000Y-57225000I0J-200000D01*
G01*
X137525000Y-57775000D01*
G75*
G02*
X137325000Y-57975000I-200000J0D01*
G01*
X136925000Y-57975000D01*
G75*
G02*
X136725000Y-57775000I0J200000D01*
G01*
G37*
G36*
G01*
X135075000Y-57775000D02*
X135075000Y-57225000D01*
G75*
G02*
X135275000Y-57025000I200000J0D01*
G01*
X135675000Y-57025000D01*
G75*
G02*
X135875000Y-57225000I0J-200000D01*
G01*
X135875000Y-57775000D01*
G75*
G02*
X135675000Y-57975000I-200000J0D01*
G01*
X135275000Y-57975000D01*
G75*
G02*
X135075000Y-57775000I0J200000D01*
G01*
G37*
G36*
G01*
X146525000Y-89375000D02*
X146525000Y-88825000D01*
G75*
G02*
X146725000Y-88625000I200000J0D01*
G01*
X147125000Y-88625000D01*
G75*
G02*
X147325000Y-88825000I0J-200000D01*
G01*
X147325000Y-89375000D01*
G75*
G02*
X147125000Y-89575000I-200000J0D01*
G01*
X146725000Y-89575000D01*
G75*
G02*
X146525000Y-89375000I0J200000D01*
G01*
G37*
G36*
G01*
X144875000Y-89375000D02*
X144875000Y-88825000D01*
G75*
G02*
X145075000Y-88625000I200000J0D01*
G01*
X145475000Y-88625000D01*
G75*
G02*
X145675000Y-88825000I0J-200000D01*
G01*
X145675000Y-89375000D01*
G75*
G02*
X145475000Y-89575000I-200000J0D01*
G01*
X145075000Y-89575000D01*
G75*
G02*
X144875000Y-89375000I0J200000D01*
G01*
G37*
G36*
G01*
X152475000Y-88825000D02*
X152475000Y-89375000D01*
G75*
G02*
X152275000Y-89575000I-200000J0D01*
G01*
X151875000Y-89575000D01*
G75*
G02*
X151675000Y-89375000I0J200000D01*
G01*
X151675000Y-88825000D01*
G75*
G02*
X151875000Y-88625000I200000J0D01*
G01*
X152275000Y-88625000D01*
G75*
G02*
X152475000Y-88825000I0J-200000D01*
G01*
G37*
G36*
G01*
X154125000Y-88825000D02*
X154125000Y-89375000D01*
G75*
G02*
X153925000Y-89575000I-200000J0D01*
G01*
X153525000Y-89575000D01*
G75*
G02*
X153325000Y-89375000I0J200000D01*
G01*
X153325000Y-88825000D01*
G75*
G02*
X153525000Y-88625000I200000J0D01*
G01*
X153925000Y-88625000D01*
G75*
G02*
X154125000Y-88825000I0J-200000D01*
G01*
G37*
G36*
G01*
X146625000Y-67775000D02*
X146625000Y-67225000D01*
G75*
G02*
X146825000Y-67025000I200000J0D01*
G01*
X147225000Y-67025000D01*
G75*
G02*
X147425000Y-67225000I0J-200000D01*
G01*
X147425000Y-67775000D01*
G75*
G02*
X147225000Y-67975000I-200000J0D01*
G01*
X146825000Y-67975000D01*
G75*
G02*
X146625000Y-67775000I0J200000D01*
G01*
G37*
G36*
G01*
X144975000Y-67775000D02*
X144975000Y-67225000D01*
G75*
G02*
X145175000Y-67025000I200000J0D01*
G01*
X145575000Y-67025000D01*
G75*
G02*
X145775000Y-67225000I0J-200000D01*
G01*
X145775000Y-67775000D01*
G75*
G02*
X145575000Y-67975000I-200000J0D01*
G01*
X145175000Y-67975000D01*
G75*
G02*
X144975000Y-67775000I0J200000D01*
G01*
G37*
G36*
G01*
X152575000Y-67225000D02*
X152575000Y-67775000D01*
G75*
G02*
X152375000Y-67975000I-200000J0D01*
G01*
X151975000Y-67975000D01*
G75*
G02*
X151775000Y-67775000I0J200000D01*
G01*
X151775000Y-67225000D01*
G75*
G02*
X151975000Y-67025000I200000J0D01*
G01*
X152375000Y-67025000D01*
G75*
G02*
X152575000Y-67225000I0J-200000D01*
G01*
G37*
G36*
G01*
X154225000Y-67225000D02*
X154225000Y-67775000D01*
G75*
G02*
X154025000Y-67975000I-200000J0D01*
G01*
X153625000Y-67975000D01*
G75*
G02*
X153425000Y-67775000I0J200000D01*
G01*
X153425000Y-67225000D01*
G75*
G02*
X153625000Y-67025000I200000J0D01*
G01*
X154025000Y-67025000D01*
G75*
G02*
X154225000Y-67225000I0J-200000D01*
G01*
G37*
G36*
G01*
X146625000Y-71475000D02*
X146625000Y-70925000D01*
G75*
G02*
X146825000Y-70725000I200000J0D01*
G01*
X147225000Y-70725000D01*
G75*
G02*
X147425000Y-70925000I0J-200000D01*
G01*
X147425000Y-71475000D01*
G75*
G02*
X147225000Y-71675000I-200000J0D01*
G01*
X146825000Y-71675000D01*
G75*
G02*
X146625000Y-71475000I0J200000D01*
G01*
G37*
G36*
G01*
X144975000Y-71475000D02*
X144975000Y-70925000D01*
G75*
G02*
X145175000Y-70725000I200000J0D01*
G01*
X145575000Y-70725000D01*
G75*
G02*
X145775000Y-70925000I0J-200000D01*
G01*
X145775000Y-71475000D01*
G75*
G02*
X145575000Y-71675000I-200000J0D01*
G01*
X145175000Y-71675000D01*
G75*
G02*
X144975000Y-71475000I0J200000D01*
G01*
G37*
G36*
G01*
X152575000Y-70925000D02*
X152575000Y-71475000D01*
G75*
G02*
X152375000Y-71675000I-200000J0D01*
G01*
X151975000Y-71675000D01*
G75*
G02*
X151775000Y-71475000I0J200000D01*
G01*
X151775000Y-70925000D01*
G75*
G02*
X151975000Y-70725000I200000J0D01*
G01*
X152375000Y-70725000D01*
G75*
G02*
X152575000Y-70925000I0J-200000D01*
G01*
G37*
G36*
G01*
X154225000Y-70925000D02*
X154225000Y-71475000D01*
G75*
G02*
X154025000Y-71675000I-200000J0D01*
G01*
X153625000Y-71675000D01*
G75*
G02*
X153425000Y-71475000I0J200000D01*
G01*
X153425000Y-70925000D01*
G75*
G02*
X153625000Y-70725000I200000J0D01*
G01*
X154025000Y-70725000D01*
G75*
G02*
X154225000Y-70925000I0J-200000D01*
G01*
G37*
G36*
G01*
X144275000Y-57825000D02*
X143725000Y-57825000D01*
G75*
G02*
X143525000Y-57625000I0J200000D01*
G01*
X143525000Y-57225000D01*
G75*
G02*
X143725000Y-57025000I200000J0D01*
G01*
X144275000Y-57025000D01*
G75*
G02*
X144475000Y-57225000I0J-200000D01*
G01*
X144475000Y-57625000D01*
G75*
G02*
X144275000Y-57825000I-200000J0D01*
G01*
G37*
G36*
G01*
X144275000Y-59475000D02*
X143725000Y-59475000D01*
G75*
G02*
X143525000Y-59275000I0J200000D01*
G01*
X143525000Y-58875000D01*
G75*
G02*
X143725000Y-58675000I200000J0D01*
G01*
X144275000Y-58675000D01*
G75*
G02*
X144475000Y-58875000I0J-200000D01*
G01*
X144475000Y-59275000D01*
G75*
G02*
X144275000Y-59475000I-200000J0D01*
G01*
G37*
G36*
G01*
X149225000Y-58675000D02*
X149775000Y-58675000D01*
G75*
G02*
X149975000Y-58875000I0J-200000D01*
G01*
X149975000Y-59275000D01*
G75*
G02*
X149775000Y-59475000I-200000J0D01*
G01*
X149225000Y-59475000D01*
G75*
G02*
X149025000Y-59275000I0J200000D01*
G01*
X149025000Y-58875000D01*
G75*
G02*
X149225000Y-58675000I200000J0D01*
G01*
G37*
G36*
G01*
X149225000Y-57025000D02*
X149775000Y-57025000D01*
G75*
G02*
X149975000Y-57225000I0J-200000D01*
G01*
X149975000Y-57625000D01*
G75*
G02*
X149775000Y-57825000I-200000J0D01*
G01*
X149225000Y-57825000D01*
G75*
G02*
X149025000Y-57625000I0J200000D01*
G01*
X149025000Y-57225000D01*
G75*
G02*
X149225000Y-57025000I200000J0D01*
G01*
G37*
G36*
G01*
X120375000Y-82525000D02*
X120375000Y-83075000D01*
G75*
G02*
X120175000Y-83275000I-200000J0D01*
G01*
X119775000Y-83275000D01*
G75*
G02*
X119575000Y-83075000I0J200000D01*
G01*
X119575000Y-82525000D01*
G75*
G02*
X119775000Y-82325000I200000J0D01*
G01*
X120175000Y-82325000D01*
G75*
G02*
X120375000Y-82525000I0J-200000D01*
G01*
G37*
G36*
G01*
X122025000Y-82525000D02*
X122025000Y-83075000D01*
G75*
G02*
X121825000Y-83275000I-200000J0D01*
G01*
X121425000Y-83275000D01*
G75*
G02*
X121225000Y-83075000I0J200000D01*
G01*
X121225000Y-82525000D01*
G75*
G02*
X121425000Y-82325000I200000J0D01*
G01*
X121825000Y-82325000D01*
G75*
G02*
X122025000Y-82525000I0J-200000D01*
G01*
G37*
G36*
G01*
X116875000Y-82525000D02*
X116875000Y-83075000D01*
G75*
G02*
X116675000Y-83275000I-200000J0D01*
G01*
X116275000Y-83275000D01*
G75*
G02*
X116075000Y-83075000I0J200000D01*
G01*
X116075000Y-82525000D01*
G75*
G02*
X116275000Y-82325000I200000J0D01*
G01*
X116675000Y-82325000D01*
G75*
G02*
X116875000Y-82525000I0J-200000D01*
G01*
G37*
G36*
G01*
X118525000Y-82525000D02*
X118525000Y-83075000D01*
G75*
G02*
X118325000Y-83275000I-200000J0D01*
G01*
X117925000Y-83275000D01*
G75*
G02*
X117725000Y-83075000I0J200000D01*
G01*
X117725000Y-82525000D01*
G75*
G02*
X117925000Y-82325000I200000J0D01*
G01*
X118325000Y-82325000D01*
G75*
G02*
X118525000Y-82525000I0J-200000D01*
G01*
G37*
G36*
G01*
X116875000Y-80525000D02*
X116875000Y-81075000D01*
G75*
G02*
X116675000Y-81275000I-200000J0D01*
G01*
X116275000Y-81275000D01*
G75*
G02*
X116075000Y-81075000I0J200000D01*
G01*
X116075000Y-80525000D01*
G75*
G02*
X116275000Y-80325000I200000J0D01*
G01*
X116675000Y-80325000D01*
G75*
G02*
X116875000Y-80525000I0J-200000D01*
G01*
G37*
G36*
G01*
X118525000Y-80525000D02*
X118525000Y-81075000D01*
G75*
G02*
X118325000Y-81275000I-200000J0D01*
G01*
X117925000Y-81275000D01*
G75*
G02*
X117725000Y-81075000I0J200000D01*
G01*
X117725000Y-80525000D01*
G75*
G02*
X117925000Y-80325000I200000J0D01*
G01*
X118325000Y-80325000D01*
G75*
G02*
X118525000Y-80525000I0J-200000D01*
G01*
G37*
G36*
G01*
X107375000Y-95875000D02*
X106825000Y-95875000D01*
G75*
G02*
X106625000Y-95675000I0J200000D01*
G01*
X106625000Y-95275000D01*
G75*
G02*
X106825000Y-95075000I200000J0D01*
G01*
X107375000Y-95075000D01*
G75*
G02*
X107575000Y-95275000I0J-200000D01*
G01*
X107575000Y-95675000D01*
G75*
G02*
X107375000Y-95875000I-200000J0D01*
G01*
G37*
G36*
G01*
X107375000Y-97525000D02*
X106825000Y-97525000D01*
G75*
G02*
X106625000Y-97325000I0J200000D01*
G01*
X106625000Y-96925000D01*
G75*
G02*
X106825000Y-96725000I200000J0D01*
G01*
X107375000Y-96725000D01*
G75*
G02*
X107575000Y-96925000I0J-200000D01*
G01*
X107575000Y-97325000D01*
G75*
G02*
X107375000Y-97525000I-200000J0D01*
G01*
G37*
G36*
G01*
X110375000Y-82525000D02*
X110375000Y-83075000D01*
G75*
G02*
X110175000Y-83275000I-200000J0D01*
G01*
X109775000Y-83275000D01*
G75*
G02*
X109575000Y-83075000I0J200000D01*
G01*
X109575000Y-82525000D01*
G75*
G02*
X109775000Y-82325000I200000J0D01*
G01*
X110175000Y-82325000D01*
G75*
G02*
X110375000Y-82525000I0J-200000D01*
G01*
G37*
G36*
G01*
X112025000Y-82525000D02*
X112025000Y-83075000D01*
G75*
G02*
X111825000Y-83275000I-200000J0D01*
G01*
X111425000Y-83275000D01*
G75*
G02*
X111225000Y-83075000I0J200000D01*
G01*
X111225000Y-82525000D01*
G75*
G02*
X111425000Y-82325000I200000J0D01*
G01*
X111825000Y-82325000D01*
G75*
G02*
X112025000Y-82525000I0J-200000D01*
G01*
G37*
G36*
G01*
X106875000Y-82525000D02*
X106875000Y-83075000D01*
G75*
G02*
X106675000Y-83275000I-200000J0D01*
G01*
X106275000Y-83275000D01*
G75*
G02*
X106075000Y-83075000I0J200000D01*
G01*
X106075000Y-82525000D01*
G75*
G02*
X106275000Y-82325000I200000J0D01*
G01*
X106675000Y-82325000D01*
G75*
G02*
X106875000Y-82525000I0J-200000D01*
G01*
G37*
G36*
G01*
X108525000Y-82525000D02*
X108525000Y-83075000D01*
G75*
G02*
X108325000Y-83275000I-200000J0D01*
G01*
X107925000Y-83275000D01*
G75*
G02*
X107725000Y-83075000I0J200000D01*
G01*
X107725000Y-82525000D01*
G75*
G02*
X107925000Y-82325000I200000J0D01*
G01*
X108325000Y-82325000D01*
G75*
G02*
X108525000Y-82525000I0J-200000D01*
G01*
G37*
G36*
G01*
X106875000Y-80525000D02*
X106875000Y-81075000D01*
G75*
G02*
X106675000Y-81275000I-200000J0D01*
G01*
X106275000Y-81275000D01*
G75*
G02*
X106075000Y-81075000I0J200000D01*
G01*
X106075000Y-80525000D01*
G75*
G02*
X106275000Y-80325000I200000J0D01*
G01*
X106675000Y-80325000D01*
G75*
G02*
X106875000Y-80525000I0J-200000D01*
G01*
G37*
G36*
G01*
X108525000Y-80525000D02*
X108525000Y-81075000D01*
G75*
G02*
X108325000Y-81275000I-200000J0D01*
G01*
X107925000Y-81275000D01*
G75*
G02*
X107725000Y-81075000I0J200000D01*
G01*
X107725000Y-80525000D01*
G75*
G02*
X107925000Y-80325000I200000J0D01*
G01*
X108325000Y-80325000D01*
G75*
G02*
X108525000Y-80525000I0J-200000D01*
G01*
G37*
G36*
G01*
X104175000Y-95875000D02*
X103625000Y-95875000D01*
G75*
G02*
X103425000Y-95675000I0J200000D01*
G01*
X103425000Y-95275000D01*
G75*
G02*
X103625000Y-95075000I200000J0D01*
G01*
X104175000Y-95075000D01*
G75*
G02*
X104375000Y-95275000I0J-200000D01*
G01*
X104375000Y-95675000D01*
G75*
G02*
X104175000Y-95875000I-200000J0D01*
G01*
G37*
G36*
G01*
X104175000Y-97525000D02*
X103625000Y-97525000D01*
G75*
G02*
X103425000Y-97325000I0J200000D01*
G01*
X103425000Y-96925000D01*
G75*
G02*
X103625000Y-96725000I200000J0D01*
G01*
X104175000Y-96725000D01*
G75*
G02*
X104375000Y-96925000I0J-200000D01*
G01*
X104375000Y-97325000D01*
G75*
G02*
X104175000Y-97525000I-200000J0D01*
G01*
G37*
G36*
G01*
X100375000Y-82525000D02*
X100375000Y-83075000D01*
G75*
G02*
X100175000Y-83275000I-200000J0D01*
G01*
X99775000Y-83275000D01*
G75*
G02*
X99575000Y-83075000I0J200000D01*
G01*
X99575000Y-82525000D01*
G75*
G02*
X99775000Y-82325000I200000J0D01*
G01*
X100175000Y-82325000D01*
G75*
G02*
X100375000Y-82525000I0J-200000D01*
G01*
G37*
G36*
G01*
X102025000Y-82525000D02*
X102025000Y-83075000D01*
G75*
G02*
X101825000Y-83275000I-200000J0D01*
G01*
X101425000Y-83275000D01*
G75*
G02*
X101225000Y-83075000I0J200000D01*
G01*
X101225000Y-82525000D01*
G75*
G02*
X101425000Y-82325000I200000J0D01*
G01*
X101825000Y-82325000D01*
G75*
G02*
X102025000Y-82525000I0J-200000D01*
G01*
G37*
G36*
G01*
X96875000Y-80525000D02*
X96875000Y-81075000D01*
G75*
G02*
X96675000Y-81275000I-200000J0D01*
G01*
X96275000Y-81275000D01*
G75*
G02*
X96075000Y-81075000I0J200000D01*
G01*
X96075000Y-80525000D01*
G75*
G02*
X96275000Y-80325000I200000J0D01*
G01*
X96675000Y-80325000D01*
G75*
G02*
X96875000Y-80525000I0J-200000D01*
G01*
G37*
G36*
G01*
X98525000Y-80525000D02*
X98525000Y-81075000D01*
G75*
G02*
X98325000Y-81275000I-200000J0D01*
G01*
X97925000Y-81275000D01*
G75*
G02*
X97725000Y-81075000I0J200000D01*
G01*
X97725000Y-80525000D01*
G75*
G02*
X97925000Y-80325000I200000J0D01*
G01*
X98325000Y-80325000D01*
G75*
G02*
X98525000Y-80525000I0J-200000D01*
G01*
G37*
G36*
G01*
X100975000Y-95875000D02*
X100425000Y-95875000D01*
G75*
G02*
X100225000Y-95675000I0J200000D01*
G01*
X100225000Y-95275000D01*
G75*
G02*
X100425000Y-95075000I200000J0D01*
G01*
X100975000Y-95075000D01*
G75*
G02*
X101175000Y-95275000I0J-200000D01*
G01*
X101175000Y-95675000D01*
G75*
G02*
X100975000Y-95875000I-200000J0D01*
G01*
G37*
G36*
G01*
X100975000Y-97525000D02*
X100425000Y-97525000D01*
G75*
G02*
X100225000Y-97325000I0J200000D01*
G01*
X100225000Y-96925000D01*
G75*
G02*
X100425000Y-96725000I200000J0D01*
G01*
X100975000Y-96725000D01*
G75*
G02*
X101175000Y-96925000I0J-200000D01*
G01*
X101175000Y-97325000D01*
G75*
G02*
X100975000Y-97525000I-200000J0D01*
G01*
G37*
G36*
G01*
X86875000Y-82525000D02*
X86875000Y-83075000D01*
G75*
G02*
X86675000Y-83275000I-200000J0D01*
G01*
X86275000Y-83275000D01*
G75*
G02*
X86075000Y-83075000I0J200000D01*
G01*
X86075000Y-82525000D01*
G75*
G02*
X86275000Y-82325000I200000J0D01*
G01*
X86675000Y-82325000D01*
G75*
G02*
X86875000Y-82525000I0J-200000D01*
G01*
G37*
G36*
G01*
X88525000Y-82525000D02*
X88525000Y-83075000D01*
G75*
G02*
X88325000Y-83275000I-200000J0D01*
G01*
X87925000Y-83275000D01*
G75*
G02*
X87725000Y-83075000I0J200000D01*
G01*
X87725000Y-82525000D01*
G75*
G02*
X87925000Y-82325000I200000J0D01*
G01*
X88325000Y-82325000D01*
G75*
G02*
X88525000Y-82525000I0J-200000D01*
G01*
G37*
G36*
G01*
X86875000Y-80525000D02*
X86875000Y-81075000D01*
G75*
G02*
X86675000Y-81275000I-200000J0D01*
G01*
X86275000Y-81275000D01*
G75*
G02*
X86075000Y-81075000I0J200000D01*
G01*
X86075000Y-80525000D01*
G75*
G02*
X86275000Y-80325000I200000J0D01*
G01*
X86675000Y-80325000D01*
G75*
G02*
X86875000Y-80525000I0J-200000D01*
G01*
G37*
G36*
G01*
X88525000Y-80525000D02*
X88525000Y-81075000D01*
G75*
G02*
X88325000Y-81275000I-200000J0D01*
G01*
X87925000Y-81275000D01*
G75*
G02*
X87725000Y-81075000I0J200000D01*
G01*
X87725000Y-80525000D01*
G75*
G02*
X87925000Y-80325000I200000J0D01*
G01*
X88325000Y-80325000D01*
G75*
G02*
X88525000Y-80525000I0J-200000D01*
G01*
G37*
G36*
G01*
X97775000Y-95875000D02*
X97225000Y-95875000D01*
G75*
G02*
X97025000Y-95675000I0J200000D01*
G01*
X97025000Y-95275000D01*
G75*
G02*
X97225000Y-95075000I200000J0D01*
G01*
X97775000Y-95075000D01*
G75*
G02*
X97975000Y-95275000I0J-200000D01*
G01*
X97975000Y-95675000D01*
G75*
G02*
X97775000Y-95875000I-200000J0D01*
G01*
G37*
G36*
G01*
X97775000Y-97525000D02*
X97225000Y-97525000D01*
G75*
G02*
X97025000Y-97325000I0J200000D01*
G01*
X97025000Y-96925000D01*
G75*
G02*
X97225000Y-96725000I200000J0D01*
G01*
X97775000Y-96725000D01*
G75*
G02*
X97975000Y-96925000I0J-200000D01*
G01*
X97975000Y-97325000D01*
G75*
G02*
X97775000Y-97525000I-200000J0D01*
G01*
G37*
G36*
G01*
X80375000Y-82525000D02*
X80375000Y-83075000D01*
G75*
G02*
X80175000Y-83275000I-200000J0D01*
G01*
X79775000Y-83275000D01*
G75*
G02*
X79575000Y-83075000I0J200000D01*
G01*
X79575000Y-82525000D01*
G75*
G02*
X79775000Y-82325000I200000J0D01*
G01*
X80175000Y-82325000D01*
G75*
G02*
X80375000Y-82525000I0J-200000D01*
G01*
G37*
G36*
G01*
X82025000Y-82525000D02*
X82025000Y-83075000D01*
G75*
G02*
X81825000Y-83275000I-200000J0D01*
G01*
X81425000Y-83275000D01*
G75*
G02*
X81225000Y-83075000I0J200000D01*
G01*
X81225000Y-82525000D01*
G75*
G02*
X81425000Y-82325000I200000J0D01*
G01*
X81825000Y-82325000D01*
G75*
G02*
X82025000Y-82525000I0J-200000D01*
G01*
G37*
G36*
G01*
X77075000Y-82525000D02*
X77075000Y-83075000D01*
G75*
G02*
X76875000Y-83275000I-200000J0D01*
G01*
X76475000Y-83275000D01*
G75*
G02*
X76275000Y-83075000I0J200000D01*
G01*
X76275000Y-82525000D01*
G75*
G02*
X76475000Y-82325000I200000J0D01*
G01*
X76875000Y-82325000D01*
G75*
G02*
X77075000Y-82525000I0J-200000D01*
G01*
G37*
G36*
G01*
X78725000Y-82525000D02*
X78725000Y-83075000D01*
G75*
G02*
X78525000Y-83275000I-200000J0D01*
G01*
X78125000Y-83275000D01*
G75*
G02*
X77925000Y-83075000I0J200000D01*
G01*
X77925000Y-82525000D01*
G75*
G02*
X78125000Y-82325000I200000J0D01*
G01*
X78525000Y-82325000D01*
G75*
G02*
X78725000Y-82525000I0J-200000D01*
G01*
G37*
G36*
G01*
X77075000Y-80525000D02*
X77075000Y-81075000D01*
G75*
G02*
X76875000Y-81275000I-200000J0D01*
G01*
X76475000Y-81275000D01*
G75*
G02*
X76275000Y-81075000I0J200000D01*
G01*
X76275000Y-80525000D01*
G75*
G02*
X76475000Y-80325000I200000J0D01*
G01*
X76875000Y-80325000D01*
G75*
G02*
X77075000Y-80525000I0J-200000D01*
G01*
G37*
G36*
G01*
X78725000Y-80525000D02*
X78725000Y-81075000D01*
G75*
G02*
X78525000Y-81275000I-200000J0D01*
G01*
X78125000Y-81275000D01*
G75*
G02*
X77925000Y-81075000I0J200000D01*
G01*
X77925000Y-80525000D01*
G75*
G02*
X78125000Y-80325000I200000J0D01*
G01*
X78525000Y-80325000D01*
G75*
G02*
X78725000Y-80525000I0J-200000D01*
G01*
G37*
G36*
G01*
X94575000Y-95875000D02*
X94025000Y-95875000D01*
G75*
G02*
X93825000Y-95675000I0J200000D01*
G01*
X93825000Y-95275000D01*
G75*
G02*
X94025000Y-95075000I200000J0D01*
G01*
X94575000Y-95075000D01*
G75*
G02*
X94775000Y-95275000I0J-200000D01*
G01*
X94775000Y-95675000D01*
G75*
G02*
X94575000Y-95875000I-200000J0D01*
G01*
G37*
G36*
G01*
X94575000Y-97525000D02*
X94025000Y-97525000D01*
G75*
G02*
X93825000Y-97325000I0J200000D01*
G01*
X93825000Y-96925000D01*
G75*
G02*
X94025000Y-96725000I200000J0D01*
G01*
X94575000Y-96725000D01*
G75*
G02*
X94775000Y-96925000I0J-200000D01*
G01*
X94775000Y-97325000D01*
G75*
G02*
X94575000Y-97525000I-200000J0D01*
G01*
G37*
G36*
G01*
X152125000Y-116725000D02*
X152675000Y-116725000D01*
G75*
G02*
X152875000Y-116925000I0J-200000D01*
G01*
X152875000Y-117325000D01*
G75*
G02*
X152675000Y-117525000I-200000J0D01*
G01*
X152125000Y-117525000D01*
G75*
G02*
X151925000Y-117325000I0J200000D01*
G01*
X151925000Y-116925000D01*
G75*
G02*
X152125000Y-116725000I200000J0D01*
G01*
G37*
G36*
G01*
X152125000Y-115075000D02*
X152675000Y-115075000D01*
G75*
G02*
X152875000Y-115275000I0J-200000D01*
G01*
X152875000Y-115675000D01*
G75*
G02*
X152675000Y-115875000I-200000J0D01*
G01*
X152125000Y-115875000D01*
G75*
G02*
X151925000Y-115675000I0J200000D01*
G01*
X151925000Y-115275000D01*
G75*
G02*
X152125000Y-115075000I200000J0D01*
G01*
G37*
G36*
G01*
X152675000Y-119075000D02*
X152125000Y-119075000D01*
G75*
G02*
X151925000Y-118875000I0J200000D01*
G01*
X151925000Y-118475000D01*
G75*
G02*
X152125000Y-118275000I200000J0D01*
G01*
X152675000Y-118275000D01*
G75*
G02*
X152875000Y-118475000I0J-200000D01*
G01*
X152875000Y-118875000D01*
G75*
G02*
X152675000Y-119075000I-200000J0D01*
G01*
G37*
G36*
G01*
X152675000Y-120725000D02*
X152125000Y-120725000D01*
G75*
G02*
X151925000Y-120525000I0J200000D01*
G01*
X151925000Y-120125000D01*
G75*
G02*
X152125000Y-119925000I200000J0D01*
G01*
X152675000Y-119925000D01*
G75*
G02*
X152875000Y-120125000I0J-200000D01*
G01*
X152875000Y-120525000D01*
G75*
G02*
X152675000Y-120725000I-200000J0D01*
G01*
G37*
G36*
G01*
X154125000Y-116725000D02*
X154675000Y-116725000D01*
G75*
G02*
X154875000Y-116925000I0J-200000D01*
G01*
X154875000Y-117325000D01*
G75*
G02*
X154675000Y-117525000I-200000J0D01*
G01*
X154125000Y-117525000D01*
G75*
G02*
X153925000Y-117325000I0J200000D01*
G01*
X153925000Y-116925000D01*
G75*
G02*
X154125000Y-116725000I200000J0D01*
G01*
G37*
G36*
G01*
X154125000Y-115075000D02*
X154675000Y-115075000D01*
G75*
G02*
X154875000Y-115275000I0J-200000D01*
G01*
X154875000Y-115675000D01*
G75*
G02*
X154675000Y-115875000I-200000J0D01*
G01*
X154125000Y-115875000D01*
G75*
G02*
X153925000Y-115675000I0J200000D01*
G01*
X153925000Y-115275000D01*
G75*
G02*
X154125000Y-115075000I200000J0D01*
G01*
G37*
G36*
G01*
X155075000Y-130075000D02*
X154525000Y-130075000D01*
G75*
G02*
X154325000Y-129875000I0J200000D01*
G01*
X154325000Y-129475000D01*
G75*
G02*
X154525000Y-129275000I200000J0D01*
G01*
X155075000Y-129275000D01*
G75*
G02*
X155275000Y-129475000I0J-200000D01*
G01*
X155275000Y-129875000D01*
G75*
G02*
X155075000Y-130075000I-200000J0D01*
G01*
G37*
G36*
G01*
X155075000Y-131725000D02*
X154525000Y-131725000D01*
G75*
G02*
X154325000Y-131525000I0J200000D01*
G01*
X154325000Y-131125000D01*
G75*
G02*
X154525000Y-130925000I200000J0D01*
G01*
X155075000Y-130925000D01*
G75*
G02*
X155275000Y-131125000I0J-200000D01*
G01*
X155275000Y-131525000D01*
G75*
G02*
X155075000Y-131725000I-200000J0D01*
G01*
G37*
G36*
G01*
X156125000Y-116725000D02*
X156675000Y-116725000D01*
G75*
G02*
X156875000Y-116925000I0J-200000D01*
G01*
X156875000Y-117325000D01*
G75*
G02*
X156675000Y-117525000I-200000J0D01*
G01*
X156125000Y-117525000D01*
G75*
G02*
X155925000Y-117325000I0J200000D01*
G01*
X155925000Y-116925000D01*
G75*
G02*
X156125000Y-116725000I200000J0D01*
G01*
G37*
G36*
G01*
X156125000Y-115075000D02*
X156675000Y-115075000D01*
G75*
G02*
X156875000Y-115275000I0J-200000D01*
G01*
X156875000Y-115675000D01*
G75*
G02*
X156675000Y-115875000I-200000J0D01*
G01*
X156125000Y-115875000D01*
G75*
G02*
X155925000Y-115675000I0J200000D01*
G01*
X155925000Y-115275000D01*
G75*
G02*
X156125000Y-115075000I200000J0D01*
G01*
G37*
G36*
G01*
X165275000Y-128375000D02*
X164725000Y-128375000D01*
G75*
G02*
X164525000Y-128175000I0J200000D01*
G01*
X164525000Y-127775000D01*
G75*
G02*
X164725000Y-127575000I200000J0D01*
G01*
X165275000Y-127575000D01*
G75*
G02*
X165475000Y-127775000I0J-200000D01*
G01*
X165475000Y-128175000D01*
G75*
G02*
X165275000Y-128375000I-200000J0D01*
G01*
G37*
G36*
G01*
X165275000Y-130025000D02*
X164725000Y-130025000D01*
G75*
G02*
X164525000Y-129825000I0J200000D01*
G01*
X164525000Y-129425000D01*
G75*
G02*
X164725000Y-129225000I200000J0D01*
G01*
X165275000Y-129225000D01*
G75*
G02*
X165475000Y-129425000I0J-200000D01*
G01*
X165475000Y-129825000D01*
G75*
G02*
X165275000Y-130025000I-200000J0D01*
G01*
G37*
G36*
G01*
X168225000Y-122725000D02*
X168775000Y-122725000D01*
G75*
G02*
X168975000Y-122925000I0J-200000D01*
G01*
X168975000Y-123325000D01*
G75*
G02*
X168775000Y-123525000I-200000J0D01*
G01*
X168225000Y-123525000D01*
G75*
G02*
X168025000Y-123325000I0J200000D01*
G01*
X168025000Y-122925000D01*
G75*
G02*
X168225000Y-122725000I200000J0D01*
G01*
G37*
G36*
G01*
X168225000Y-121075000D02*
X168775000Y-121075000D01*
G75*
G02*
X168975000Y-121275000I0J-200000D01*
G01*
X168975000Y-121675000D01*
G75*
G02*
X168775000Y-121875000I-200000J0D01*
G01*
X168225000Y-121875000D01*
G75*
G02*
X168025000Y-121675000I0J200000D01*
G01*
X168025000Y-121275000D01*
G75*
G02*
X168225000Y-121075000I200000J0D01*
G01*
G37*
G36*
G01*
X164725000Y-122725000D02*
X165275000Y-122725000D01*
G75*
G02*
X165475000Y-122925000I0J-200000D01*
G01*
X165475000Y-123325000D01*
G75*
G02*
X165275000Y-123525000I-200000J0D01*
G01*
X164725000Y-123525000D01*
G75*
G02*
X164525000Y-123325000I0J200000D01*
G01*
X164525000Y-122925000D01*
G75*
G02*
X164725000Y-122725000I200000J0D01*
G01*
G37*
G36*
G01*
X164725000Y-121075000D02*
X165275000Y-121075000D01*
G75*
G02*
X165475000Y-121275000I0J-200000D01*
G01*
X165475000Y-121675000D01*
G75*
G02*
X165275000Y-121875000I-200000J0D01*
G01*
X164725000Y-121875000D01*
G75*
G02*
X164525000Y-121675000I0J200000D01*
G01*
X164525000Y-121275000D01*
G75*
G02*
X164725000Y-121075000I200000J0D01*
G01*
G37*
G36*
G01*
X94075000Y-119725000D02*
X94075000Y-120275000D01*
G75*
G02*
X93875000Y-120475000I-200000J0D01*
G01*
X93475000Y-120475000D01*
G75*
G02*
X93275000Y-120275000I0J200000D01*
G01*
X93275000Y-119725000D01*
G75*
G02*
X93475000Y-119525000I200000J0D01*
G01*
X93875000Y-119525000D01*
G75*
G02*
X94075000Y-119725000I0J-200000D01*
G01*
G37*
G36*
G01*
X95725000Y-119725000D02*
X95725000Y-120275000D01*
G75*
G02*
X95525000Y-120475000I-200000J0D01*
G01*
X95125000Y-120475000D01*
G75*
G02*
X94925000Y-120275000I0J200000D01*
G01*
X94925000Y-119725000D01*
G75*
G02*
X95125000Y-119525000I200000J0D01*
G01*
X95525000Y-119525000D01*
G75*
G02*
X95725000Y-119725000I0J-200000D01*
G01*
G37*
G36*
G01*
X94075000Y-118125000D02*
X94075000Y-118675000D01*
G75*
G02*
X93875000Y-118875000I-200000J0D01*
G01*
X93475000Y-118875000D01*
G75*
G02*
X93275000Y-118675000I0J200000D01*
G01*
X93275000Y-118125000D01*
G75*
G02*
X93475000Y-117925000I200000J0D01*
G01*
X93875000Y-117925000D01*
G75*
G02*
X94075000Y-118125000I0J-200000D01*
G01*
G37*
G36*
G01*
X95725000Y-118125000D02*
X95725000Y-118675000D01*
G75*
G02*
X95525000Y-118875000I-200000J0D01*
G01*
X95125000Y-118875000D01*
G75*
G02*
X94925000Y-118675000I0J200000D01*
G01*
X94925000Y-118125000D01*
G75*
G02*
X95125000Y-117925000I200000J0D01*
G01*
X95525000Y-117925000D01*
G75*
G02*
X95725000Y-118125000I0J-200000D01*
G01*
G37*
G36*
G01*
X92225000Y-104225000D02*
X92775000Y-104225000D01*
G75*
G02*
X92975000Y-104425000I0J-200000D01*
G01*
X92975000Y-104825000D01*
G75*
G02*
X92775000Y-105025000I-200000J0D01*
G01*
X92225000Y-105025000D01*
G75*
G02*
X92025000Y-104825000I0J200000D01*
G01*
X92025000Y-104425000D01*
G75*
G02*
X92225000Y-104225000I200000J0D01*
G01*
G37*
G36*
G01*
X92225000Y-102575000D02*
X92775000Y-102575000D01*
G75*
G02*
X92975000Y-102775000I0J-200000D01*
G01*
X92975000Y-103175000D01*
G75*
G02*
X92775000Y-103375000I-200000J0D01*
G01*
X92225000Y-103375000D01*
G75*
G02*
X92025000Y-103175000I0J200000D01*
G01*
X92025000Y-102775000D01*
G75*
G02*
X92225000Y-102575000I200000J0D01*
G01*
G37*
G36*
G01*
X89725000Y-104225000D02*
X90275000Y-104225000D01*
G75*
G02*
X90475000Y-104425000I0J-200000D01*
G01*
X90475000Y-104825000D01*
G75*
G02*
X90275000Y-105025000I-200000J0D01*
G01*
X89725000Y-105025000D01*
G75*
G02*
X89525000Y-104825000I0J200000D01*
G01*
X89525000Y-104425000D01*
G75*
G02*
X89725000Y-104225000I200000J0D01*
G01*
G37*
G36*
G01*
X89725000Y-102575000D02*
X90275000Y-102575000D01*
G75*
G02*
X90475000Y-102775000I0J-200000D01*
G01*
X90475000Y-103175000D01*
G75*
G02*
X90275000Y-103375000I-200000J0D01*
G01*
X89725000Y-103375000D01*
G75*
G02*
X89525000Y-103175000I0J200000D01*
G01*
X89525000Y-102775000D01*
G75*
G02*
X89725000Y-102575000I200000J0D01*
G01*
G37*
G36*
G01*
X140125000Y-61475000D02*
X140125000Y-60925000D01*
G75*
G02*
X140325000Y-60725000I200000J0D01*
G01*
X140725000Y-60725000D01*
G75*
G02*
X140925000Y-60925000I0J-200000D01*
G01*
X140925000Y-61475000D01*
G75*
G02*
X140725000Y-61675000I-200000J0D01*
G01*
X140325000Y-61675000D01*
G75*
G02*
X140125000Y-61475000I0J200000D01*
G01*
G37*
G36*
G01*
X138475000Y-61475000D02*
X138475000Y-60925000D01*
G75*
G02*
X138675000Y-60725000I200000J0D01*
G01*
X139075000Y-60725000D01*
G75*
G02*
X139275000Y-60925000I0J-200000D01*
G01*
X139275000Y-61475000D01*
G75*
G02*
X139075000Y-61675000I-200000J0D01*
G01*
X138675000Y-61675000D01*
G75*
G02*
X138475000Y-61475000I0J200000D01*
G01*
G37*
G36*
G01*
X175575000Y-96425000D02*
X175575000Y-96975000D01*
G75*
G02*
X175375000Y-97175000I-200000J0D01*
G01*
X174975000Y-97175000D01*
G75*
G02*
X174775000Y-96975000I0J200000D01*
G01*
X174775000Y-96425000D01*
G75*
G02*
X174975000Y-96225000I200000J0D01*
G01*
X175375000Y-96225000D01*
G75*
G02*
X175575000Y-96425000I0J-200000D01*
G01*
G37*
G36*
G01*
X177225000Y-96425000D02*
X177225000Y-96975000D01*
G75*
G02*
X177025000Y-97175000I-200000J0D01*
G01*
X176625000Y-97175000D01*
G75*
G02*
X176425000Y-96975000I0J200000D01*
G01*
X176425000Y-96425000D01*
G75*
G02*
X176625000Y-96225000I200000J0D01*
G01*
X177025000Y-96225000D01*
G75*
G02*
X177225000Y-96425000I0J-200000D01*
G01*
G37*
G36*
G01*
X175575000Y-101425000D02*
X175575000Y-101975000D01*
G75*
G02*
X175375000Y-102175000I-200000J0D01*
G01*
X174975000Y-102175000D01*
G75*
G02*
X174775000Y-101975000I0J200000D01*
G01*
X174775000Y-101425000D01*
G75*
G02*
X174975000Y-101225000I200000J0D01*
G01*
X175375000Y-101225000D01*
G75*
G02*
X175575000Y-101425000I0J-200000D01*
G01*
G37*
G36*
G01*
X177225000Y-101425000D02*
X177225000Y-101975000D01*
G75*
G02*
X177025000Y-102175000I-200000J0D01*
G01*
X176625000Y-102175000D01*
G75*
G02*
X176425000Y-101975000I0J200000D01*
G01*
X176425000Y-101425000D01*
G75*
G02*
X176625000Y-101225000I200000J0D01*
G01*
X177025000Y-101225000D01*
G75*
G02*
X177225000Y-101425000I0J-200000D01*
G01*
G37*
G36*
G01*
X175575000Y-106425000D02*
X175575000Y-106975000D01*
G75*
G02*
X175375000Y-107175000I-200000J0D01*
G01*
X174975000Y-107175000D01*
G75*
G02*
X174775000Y-106975000I0J200000D01*
G01*
X174775000Y-106425000D01*
G75*
G02*
X174975000Y-106225000I200000J0D01*
G01*
X175375000Y-106225000D01*
G75*
G02*
X175575000Y-106425000I0J-200000D01*
G01*
G37*
G36*
G01*
X177225000Y-106425000D02*
X177225000Y-106975000D01*
G75*
G02*
X177025000Y-107175000I-200000J0D01*
G01*
X176625000Y-107175000D01*
G75*
G02*
X176425000Y-106975000I0J200000D01*
G01*
X176425000Y-106425000D01*
G75*
G02*
X176625000Y-106225000I200000J0D01*
G01*
X177025000Y-106225000D01*
G75*
G02*
X177225000Y-106425000I0J-200000D01*
G01*
G37*
D19*
X150500000Y-88100000D03*
X148500000Y-89050000D03*
X148500000Y-87150000D03*
X150600000Y-66500000D03*
X148600000Y-67450000D03*
X148600000Y-65550000D03*
X150600000Y-70200000D03*
X148600000Y-71150000D03*
X148600000Y-69250000D03*
D29*
X146800000Y-59500000D03*
X145850000Y-57500000D03*
X147750000Y-57500000D03*
D13*
X119300000Y-77943500D03*
X117014000Y-77943500D03*
X121586000Y-77943500D03*
D14*
X119300000Y-70844200D03*
D13*
X109300000Y-77943500D03*
X107014000Y-77943500D03*
X111586000Y-77943500D03*
D14*
X109300000Y-70844200D03*
D13*
X89300000Y-77943500D03*
X87014000Y-77943500D03*
X91586000Y-77943500D03*
D14*
X89300000Y-70844200D03*
D19*
X135500000Y-60200000D03*
X137500000Y-59250000D03*
X137500000Y-61150000D03*
G36*
G01*
X121150000Y-81056250D02*
X121150000Y-80543750D01*
G75*
G02*
X121368750Y-80325000I218750J0D01*
G01*
X121806250Y-80325000D01*
G75*
G02*
X122025000Y-80543750I0J-218750D01*
G01*
X122025000Y-81056250D01*
G75*
G02*
X121806250Y-81275000I-218750J0D01*
G01*
X121368750Y-81275000D01*
G75*
G02*
X121150000Y-81056250I0J218750D01*
G01*
G37*
G36*
G01*
X119575000Y-81056250D02*
X119575000Y-80543750D01*
G75*
G02*
X119793750Y-80325000I218750J0D01*
G01*
X120231250Y-80325000D01*
G75*
G02*
X120450000Y-80543750I0J-218750D01*
G01*
X120450000Y-81056250D01*
G75*
G02*
X120231250Y-81275000I-218750J0D01*
G01*
X119793750Y-81275000D01*
G75*
G02*
X119575000Y-81056250I0J218750D01*
G01*
G37*
D30*
X117150000Y-63000000D03*
X121450000Y-63000000D03*
G36*
G01*
X111150000Y-81056250D02*
X111150000Y-80543750D01*
G75*
G02*
X111368750Y-80325000I218750J0D01*
G01*
X111806250Y-80325000D01*
G75*
G02*
X112025000Y-80543750I0J-218750D01*
G01*
X112025000Y-81056250D01*
G75*
G02*
X111806250Y-81275000I-218750J0D01*
G01*
X111368750Y-81275000D01*
G75*
G02*
X111150000Y-81056250I0J218750D01*
G01*
G37*
G36*
G01*
X109575000Y-81056250D02*
X109575000Y-80543750D01*
G75*
G02*
X109793750Y-80325000I218750J0D01*
G01*
X110231250Y-80325000D01*
G75*
G02*
X110450000Y-80543750I0J-218750D01*
G01*
X110450000Y-81056250D01*
G75*
G02*
X110231250Y-81275000I-218750J0D01*
G01*
X109793750Y-81275000D01*
G75*
G02*
X109575000Y-81056250I0J218750D01*
G01*
G37*
X107150000Y-63000000D03*
X111450000Y-63000000D03*
G36*
G01*
X101150000Y-81056250D02*
X101150000Y-80543750D01*
G75*
G02*
X101368750Y-80325000I218750J0D01*
G01*
X101806250Y-80325000D01*
G75*
G02*
X102025000Y-80543750I0J-218750D01*
G01*
X102025000Y-81056250D01*
G75*
G02*
X101806250Y-81275000I-218750J0D01*
G01*
X101368750Y-81275000D01*
G75*
G02*
X101150000Y-81056250I0J218750D01*
G01*
G37*
G36*
G01*
X99575000Y-81056250D02*
X99575000Y-80543750D01*
G75*
G02*
X99793750Y-80325000I218750J0D01*
G01*
X100231250Y-80325000D01*
G75*
G02*
X100450000Y-80543750I0J-218750D01*
G01*
X100450000Y-81056250D01*
G75*
G02*
X100231250Y-81275000I-218750J0D01*
G01*
X99793750Y-81275000D01*
G75*
G02*
X99575000Y-81056250I0J218750D01*
G01*
G37*
X97150000Y-63000000D03*
X101450000Y-63000000D03*
G36*
G01*
X91150000Y-81056250D02*
X91150000Y-80543750D01*
G75*
G02*
X91368750Y-80325000I218750J0D01*
G01*
X91806250Y-80325000D01*
G75*
G02*
X92025000Y-80543750I0J-218750D01*
G01*
X92025000Y-81056250D01*
G75*
G02*
X91806250Y-81275000I-218750J0D01*
G01*
X91368750Y-81275000D01*
G75*
G02*
X91150000Y-81056250I0J218750D01*
G01*
G37*
G36*
G01*
X89575000Y-81056250D02*
X89575000Y-80543750D01*
G75*
G02*
X89793750Y-80325000I218750J0D01*
G01*
X90231250Y-80325000D01*
G75*
G02*
X90450000Y-80543750I0J-218750D01*
G01*
X90450000Y-81056250D01*
G75*
G02*
X90231250Y-81275000I-218750J0D01*
G01*
X89793750Y-81275000D01*
G75*
G02*
X89575000Y-81056250I0J218750D01*
G01*
G37*
G36*
G01*
X81150000Y-81056250D02*
X81150000Y-80543750D01*
G75*
G02*
X81368750Y-80325000I218750J0D01*
G01*
X81806250Y-80325000D01*
G75*
G02*
X82025000Y-80543750I0J-218750D01*
G01*
X82025000Y-81056250D01*
G75*
G02*
X81806250Y-81275000I-218750J0D01*
G01*
X81368750Y-81275000D01*
G75*
G02*
X81150000Y-81056250I0J218750D01*
G01*
G37*
G36*
G01*
X79575000Y-81056250D02*
X79575000Y-80543750D01*
G75*
G02*
X79793750Y-80325000I218750J0D01*
G01*
X80231250Y-80325000D01*
G75*
G02*
X80450000Y-80543750I0J-218750D01*
G01*
X80450000Y-81056250D01*
G75*
G02*
X80231250Y-81275000I-218750J0D01*
G01*
X79793750Y-81275000D01*
G75*
G02*
X79575000Y-81056250I0J218750D01*
G01*
G37*
X77150000Y-63000000D03*
X81450000Y-63000000D03*
X87150000Y-63000000D03*
X91450000Y-63000000D03*
G36*
G01*
X140025000Y-59450000D02*
X140025000Y-58950000D01*
G75*
G02*
X140250000Y-58725000I225000J0D01*
G01*
X140700000Y-58725000D01*
G75*
G02*
X140925000Y-58950000I0J-225000D01*
G01*
X140925000Y-59450000D01*
G75*
G02*
X140700000Y-59675000I-225000J0D01*
G01*
X140250000Y-59675000D01*
G75*
G02*
X140025000Y-59450000I0J225000D01*
G01*
G37*
G36*
G01*
X138475000Y-59450000D02*
X138475000Y-58950000D01*
G75*
G02*
X138700000Y-58725000I225000J0D01*
G01*
X139150000Y-58725000D01*
G75*
G02*
X139375000Y-58950000I0J-225000D01*
G01*
X139375000Y-59450000D01*
G75*
G02*
X139150000Y-59675000I-225000J0D01*
G01*
X138700000Y-59675000D01*
G75*
G02*
X138475000Y-59450000I0J225000D01*
G01*
G37*
G36*
G01*
X105750000Y-95975000D02*
X105250000Y-95975000D01*
G75*
G02*
X105025000Y-95750000I0J225000D01*
G01*
X105025000Y-95300000D01*
G75*
G02*
X105250000Y-95075000I225000J0D01*
G01*
X105750000Y-95075000D01*
G75*
G02*
X105975000Y-95300000I0J-225000D01*
G01*
X105975000Y-95750000D01*
G75*
G02*
X105750000Y-95975000I-225000J0D01*
G01*
G37*
G36*
G01*
X105750000Y-97525000D02*
X105250000Y-97525000D01*
G75*
G02*
X105025000Y-97300000I0J225000D01*
G01*
X105025000Y-96850000D01*
G75*
G02*
X105250000Y-96625000I225000J0D01*
G01*
X105750000Y-96625000D01*
G75*
G02*
X105975000Y-96850000I0J-225000D01*
G01*
X105975000Y-97300000D01*
G75*
G02*
X105750000Y-97525000I-225000J0D01*
G01*
G37*
G36*
G01*
X102550000Y-95975000D02*
X102050000Y-95975000D01*
G75*
G02*
X101825000Y-95750000I0J225000D01*
G01*
X101825000Y-95300000D01*
G75*
G02*
X102050000Y-95075000I225000J0D01*
G01*
X102550000Y-95075000D01*
G75*
G02*
X102775000Y-95300000I0J-225000D01*
G01*
X102775000Y-95750000D01*
G75*
G02*
X102550000Y-95975000I-225000J0D01*
G01*
G37*
G36*
G01*
X102550000Y-97525000D02*
X102050000Y-97525000D01*
G75*
G02*
X101825000Y-97300000I0J225000D01*
G01*
X101825000Y-96850000D01*
G75*
G02*
X102050000Y-96625000I225000J0D01*
G01*
X102550000Y-96625000D01*
G75*
G02*
X102775000Y-96850000I0J-225000D01*
G01*
X102775000Y-97300000D01*
G75*
G02*
X102550000Y-97525000I-225000J0D01*
G01*
G37*
G36*
G01*
X99350000Y-95975000D02*
X98850000Y-95975000D01*
G75*
G02*
X98625000Y-95750000I0J225000D01*
G01*
X98625000Y-95300000D01*
G75*
G02*
X98850000Y-95075000I225000J0D01*
G01*
X99350000Y-95075000D01*
G75*
G02*
X99575000Y-95300000I0J-225000D01*
G01*
X99575000Y-95750000D01*
G75*
G02*
X99350000Y-95975000I-225000J0D01*
G01*
G37*
G36*
G01*
X99350000Y-97525000D02*
X98850000Y-97525000D01*
G75*
G02*
X98625000Y-97300000I0J225000D01*
G01*
X98625000Y-96850000D01*
G75*
G02*
X98850000Y-96625000I225000J0D01*
G01*
X99350000Y-96625000D01*
G75*
G02*
X99575000Y-96850000I0J-225000D01*
G01*
X99575000Y-97300000D01*
G75*
G02*
X99350000Y-97525000I-225000J0D01*
G01*
G37*
G36*
G01*
X96150000Y-95975000D02*
X95650000Y-95975000D01*
G75*
G02*
X95425000Y-95750000I0J225000D01*
G01*
X95425000Y-95300000D01*
G75*
G02*
X95650000Y-95075000I225000J0D01*
G01*
X96150000Y-95075000D01*
G75*
G02*
X96375000Y-95300000I0J-225000D01*
G01*
X96375000Y-95750000D01*
G75*
G02*
X96150000Y-95975000I-225000J0D01*
G01*
G37*
G36*
G01*
X96150000Y-97525000D02*
X95650000Y-97525000D01*
G75*
G02*
X95425000Y-97300000I0J225000D01*
G01*
X95425000Y-96850000D01*
G75*
G02*
X95650000Y-96625000I225000J0D01*
G01*
X96150000Y-96625000D01*
G75*
G02*
X96375000Y-96850000I0J-225000D01*
G01*
X96375000Y-97300000D01*
G75*
G02*
X96150000Y-97525000I-225000J0D01*
G01*
G37*
G36*
G01*
X152950000Y-130825000D02*
X153450000Y-130825000D01*
G75*
G02*
X153675000Y-131050000I0J-225000D01*
G01*
X153675000Y-131500000D01*
G75*
G02*
X153450000Y-131725000I-225000J0D01*
G01*
X152950000Y-131725000D01*
G75*
G02*
X152725000Y-131500000I0J225000D01*
G01*
X152725000Y-131050000D01*
G75*
G02*
X152950000Y-130825000I225000J0D01*
G01*
G37*
G36*
G01*
X152950000Y-129275000D02*
X153450000Y-129275000D01*
G75*
G02*
X153675000Y-129500000I0J-225000D01*
G01*
X153675000Y-129950000D01*
G75*
G02*
X153450000Y-130175000I-225000J0D01*
G01*
X152950000Y-130175000D01*
G75*
G02*
X152725000Y-129950000I0J225000D01*
G01*
X152725000Y-129500000D01*
G75*
G02*
X152950000Y-129275000I225000J0D01*
G01*
G37*
G36*
G01*
X142750000Y-131450000D02*
X142750000Y-132550000D01*
G75*
G02*
X142500000Y-132800000I-250000J0D01*
G01*
X139500000Y-132800000D01*
G75*
G02*
X139250000Y-132550000I0J250000D01*
G01*
X139250000Y-131450000D01*
G75*
G02*
X139500000Y-131200000I250000J0D01*
G01*
X142500000Y-131200000D01*
G75*
G02*
X142750000Y-131450000I0J-250000D01*
G01*
G37*
G36*
G01*
X148350000Y-131450000D02*
X148350000Y-132550000D01*
G75*
G02*
X148100000Y-132800000I-250000J0D01*
G01*
X145100000Y-132800000D01*
G75*
G02*
X144850000Y-132550000I0J250000D01*
G01*
X144850000Y-131450000D01*
G75*
G02*
X145100000Y-131200000I250000J0D01*
G01*
X148100000Y-131200000D01*
G75*
G02*
X148350000Y-131450000I0J-250000D01*
G01*
G37*
G36*
G01*
X149750000Y-125475000D02*
X149250000Y-125475000D01*
G75*
G02*
X149025000Y-125250000I0J225000D01*
G01*
X149025000Y-124800000D01*
G75*
G02*
X149250000Y-124575000I225000J0D01*
G01*
X149750000Y-124575000D01*
G75*
G02*
X149975000Y-124800000I0J-225000D01*
G01*
X149975000Y-125250000D01*
G75*
G02*
X149750000Y-125475000I-225000J0D01*
G01*
G37*
G36*
G01*
X149750000Y-127025000D02*
X149250000Y-127025000D01*
G75*
G02*
X149025000Y-126800000I0J225000D01*
G01*
X149025000Y-126350000D01*
G75*
G02*
X149250000Y-126125000I225000J0D01*
G01*
X149750000Y-126125000D01*
G75*
G02*
X149975000Y-126350000I0J-225000D01*
G01*
X149975000Y-126800000D01*
G75*
G02*
X149750000Y-127025000I-225000J0D01*
G01*
G37*
G36*
G01*
X167050000Y-128475000D02*
X166550000Y-128475000D01*
G75*
G02*
X166325000Y-128250000I0J225000D01*
G01*
X166325000Y-127800000D01*
G75*
G02*
X166550000Y-127575000I225000J0D01*
G01*
X167050000Y-127575000D01*
G75*
G02*
X167275000Y-127800000I0J-225000D01*
G01*
X167275000Y-128250000D01*
G75*
G02*
X167050000Y-128475000I-225000J0D01*
G01*
G37*
G36*
G01*
X167050000Y-130025000D02*
X166550000Y-130025000D01*
G75*
G02*
X166325000Y-129800000I0J225000D01*
G01*
X166325000Y-129350000D01*
G75*
G02*
X166550000Y-129125000I225000J0D01*
G01*
X167050000Y-129125000D01*
G75*
G02*
X167275000Y-129350000I0J-225000D01*
G01*
X167275000Y-129800000D01*
G75*
G02*
X167050000Y-130025000I-225000J0D01*
G01*
G37*
G36*
G01*
X170550000Y-121975000D02*
X170050000Y-121975000D01*
G75*
G02*
X169825000Y-121750000I0J225000D01*
G01*
X169825000Y-121300000D01*
G75*
G02*
X170050000Y-121075000I225000J0D01*
G01*
X170550000Y-121075000D01*
G75*
G02*
X170775000Y-121300000I0J-225000D01*
G01*
X170775000Y-121750000D01*
G75*
G02*
X170550000Y-121975000I-225000J0D01*
G01*
G37*
G36*
G01*
X170550000Y-123525000D02*
X170050000Y-123525000D01*
G75*
G02*
X169825000Y-123300000I0J225000D01*
G01*
X169825000Y-122850000D01*
G75*
G02*
X170050000Y-122625000I225000J0D01*
G01*
X170550000Y-122625000D01*
G75*
G02*
X170775000Y-122850000I0J-225000D01*
G01*
X170775000Y-123300000D01*
G75*
G02*
X170550000Y-123525000I-225000J0D01*
G01*
G37*
G36*
G01*
X167050000Y-121975000D02*
X166550000Y-121975000D01*
G75*
G02*
X166325000Y-121750000I0J225000D01*
G01*
X166325000Y-121300000D01*
G75*
G02*
X166550000Y-121075000I225000J0D01*
G01*
X167050000Y-121075000D01*
G75*
G02*
X167275000Y-121300000I0J-225000D01*
G01*
X167275000Y-121750000D01*
G75*
G02*
X167050000Y-121975000I-225000J0D01*
G01*
G37*
G36*
G01*
X167050000Y-123525000D02*
X166550000Y-123525000D01*
G75*
G02*
X166325000Y-123300000I0J225000D01*
G01*
X166325000Y-122850000D01*
G75*
G02*
X166550000Y-122625000I225000J0D01*
G01*
X167050000Y-122625000D01*
G75*
G02*
X167275000Y-122850000I0J-225000D01*
G01*
X167275000Y-123300000D01*
G75*
G02*
X167050000Y-123525000I-225000J0D01*
G01*
G37*
G36*
G01*
X75950000Y-92525000D02*
X76450000Y-92525000D01*
G75*
G02*
X76675000Y-92750000I0J-225000D01*
G01*
X76675000Y-93200000D01*
G75*
G02*
X76450000Y-93425000I-225000J0D01*
G01*
X75950000Y-93425000D01*
G75*
G02*
X75725000Y-93200000I0J225000D01*
G01*
X75725000Y-92750000D01*
G75*
G02*
X75950000Y-92525000I225000J0D01*
G01*
G37*
G36*
G01*
X75950000Y-90975000D02*
X76450000Y-90975000D01*
G75*
G02*
X76675000Y-91200000I0J-225000D01*
G01*
X76675000Y-91650000D01*
G75*
G02*
X76450000Y-91875000I-225000J0D01*
G01*
X75950000Y-91875000D01*
G75*
G02*
X75725000Y-91650000I0J225000D01*
G01*
X75725000Y-91200000D01*
G75*
G02*
X75950000Y-90975000I225000J0D01*
G01*
G37*
G36*
G01*
X65475000Y-69050000D02*
X65475000Y-69550000D01*
G75*
G02*
X65250000Y-69775000I-225000J0D01*
G01*
X64800000Y-69775000D01*
G75*
G02*
X64575000Y-69550000I0J225000D01*
G01*
X64575000Y-69050000D01*
G75*
G02*
X64800000Y-68825000I225000J0D01*
G01*
X65250000Y-68825000D01*
G75*
G02*
X65475000Y-69050000I0J-225000D01*
G01*
G37*
G36*
G01*
X67025000Y-69050000D02*
X67025000Y-69550000D01*
G75*
G02*
X66800000Y-69775000I-225000J0D01*
G01*
X66350000Y-69775000D01*
G75*
G02*
X66125000Y-69550000I0J225000D01*
G01*
X66125000Y-69050000D01*
G75*
G02*
X66350000Y-68825000I225000J0D01*
G01*
X66800000Y-68825000D01*
G75*
G02*
X67025000Y-69050000I0J-225000D01*
G01*
G37*
G36*
G01*
X88875000Y-118250000D02*
X88875000Y-118750000D01*
G75*
G02*
X88650000Y-118975000I-225000J0D01*
G01*
X88200000Y-118975000D01*
G75*
G02*
X87975000Y-118750000I0J225000D01*
G01*
X87975000Y-118250000D01*
G75*
G02*
X88200000Y-118025000I225000J0D01*
G01*
X88650000Y-118025000D01*
G75*
G02*
X88875000Y-118250000I0J-225000D01*
G01*
G37*
G36*
G01*
X90425000Y-118250000D02*
X90425000Y-118750000D01*
G75*
G02*
X90200000Y-118975000I-225000J0D01*
G01*
X89750000Y-118975000D01*
G75*
G02*
X89525000Y-118750000I0J225000D01*
G01*
X89525000Y-118250000D01*
G75*
G02*
X89750000Y-118025000I225000J0D01*
G01*
X90200000Y-118025000D01*
G75*
G02*
X90425000Y-118250000I0J-225000D01*
G01*
G37*
G36*
G01*
X141050000Y-100125000D02*
X141550000Y-100125000D01*
G75*
G02*
X141775000Y-100350000I0J-225000D01*
G01*
X141775000Y-100800000D01*
G75*
G02*
X141550000Y-101025000I-225000J0D01*
G01*
X141050000Y-101025000D01*
G75*
G02*
X140825000Y-100800000I0J225000D01*
G01*
X140825000Y-100350000D01*
G75*
G02*
X141050000Y-100125000I225000J0D01*
G01*
G37*
G36*
G01*
X141050000Y-98575000D02*
X141550000Y-98575000D01*
G75*
G02*
X141775000Y-98800000I0J-225000D01*
G01*
X141775000Y-99250000D01*
G75*
G02*
X141550000Y-99475000I-225000J0D01*
G01*
X141050000Y-99475000D01*
G75*
G02*
X140825000Y-99250000I0J225000D01*
G01*
X140825000Y-98800000D01*
G75*
G02*
X141050000Y-98575000I225000J0D01*
G01*
G37*
G36*
G01*
X154050000Y-100125000D02*
X154550000Y-100125000D01*
G75*
G02*
X154775000Y-100350000I0J-225000D01*
G01*
X154775000Y-100800000D01*
G75*
G02*
X154550000Y-101025000I-225000J0D01*
G01*
X154050000Y-101025000D01*
G75*
G02*
X153825000Y-100800000I0J225000D01*
G01*
X153825000Y-100350000D01*
G75*
G02*
X154050000Y-100125000I225000J0D01*
G01*
G37*
G36*
G01*
X154050000Y-98575000D02*
X154550000Y-98575000D01*
G75*
G02*
X154775000Y-98800000I0J-225000D01*
G01*
X154775000Y-99250000D01*
G75*
G02*
X154550000Y-99475000I-225000J0D01*
G01*
X154050000Y-99475000D01*
G75*
G02*
X153825000Y-99250000I0J225000D01*
G01*
X153825000Y-98800000D01*
G75*
G02*
X154050000Y-98575000I225000J0D01*
G01*
G37*
G36*
G01*
X154050000Y-77125000D02*
X154550000Y-77125000D01*
G75*
G02*
X154775000Y-77350000I0J-225000D01*
G01*
X154775000Y-77800000D01*
G75*
G02*
X154550000Y-78025000I-225000J0D01*
G01*
X154050000Y-78025000D01*
G75*
G02*
X153825000Y-77800000I0J225000D01*
G01*
X153825000Y-77350000D01*
G75*
G02*
X154050000Y-77125000I225000J0D01*
G01*
G37*
G36*
G01*
X154050000Y-75575000D02*
X154550000Y-75575000D01*
G75*
G02*
X154775000Y-75800000I0J-225000D01*
G01*
X154775000Y-76250000D01*
G75*
G02*
X154550000Y-76475000I-225000J0D01*
G01*
X154050000Y-76475000D01*
G75*
G02*
X153825000Y-76250000I0J225000D01*
G01*
X153825000Y-75800000D01*
G75*
G02*
X154050000Y-75575000I225000J0D01*
G01*
G37*
G36*
G01*
X141050000Y-77125000D02*
X141550000Y-77125000D01*
G75*
G02*
X141775000Y-77350000I0J-225000D01*
G01*
X141775000Y-77800000D01*
G75*
G02*
X141550000Y-78025000I-225000J0D01*
G01*
X141050000Y-78025000D01*
G75*
G02*
X140825000Y-77800000I0J225000D01*
G01*
X140825000Y-77350000D01*
G75*
G02*
X141050000Y-77125000I225000J0D01*
G01*
G37*
G36*
G01*
X141050000Y-75575000D02*
X141550000Y-75575000D01*
G75*
G02*
X141775000Y-75800000I0J-225000D01*
G01*
X141775000Y-76250000D01*
G75*
G02*
X141550000Y-76475000I-225000J0D01*
G01*
X141050000Y-76475000D01*
G75*
G02*
X140825000Y-76250000I0J225000D01*
G01*
X140825000Y-75800000D01*
G75*
G02*
X141050000Y-75575000I225000J0D01*
G01*
G37*
M02*
