G04 #@! TF.GenerationSoftware,KiCad,Pcbnew,5.1.9-73d0e3b20d~88~ubuntu20.04.1*
G04 #@! TF.CreationDate,2021-10-06T19:48:26+05:30*
G04 #@! TF.ProjectId,vayuO2,76617975-4f32-42e6-9b69-6361645f7063,rev 1*
G04 #@! TF.SameCoordinates,Original*
G04 #@! TF.FileFunction,Soldermask,Bot*
G04 #@! TF.FilePolarity,Negative*
%FSLAX46Y46*%
G04 Gerber Fmt 4.6, Leading zero omitted, Abs format (unit mm)*
G04 Created by KiCad (PCBNEW 5.1.9-73d0e3b20d~88~ubuntu20.04.1) date 2021-10-06 19:48:26*
%MOMM*%
%LPD*%
G01*
G04 APERTURE LIST*
%ADD10O,2.000000X1.000000*%
%ADD11O,1.000000X2.000000*%
%ADD12C,0.900000*%
%ADD13C,1.524000*%
%ADD14R,1.700000X1.700000*%
%ADD15O,1.700000X1.700000*%
%ADD16C,3.302000*%
%ADD17O,1.950000X1.700000*%
%ADD18C,1.800000*%
%ADD19C,4.572000*%
%ADD20O,2.200000X1.100000*%
%ADD21C,0.600000*%
%ADD22O,1.700000X2.000000*%
%ADD23C,6.400000*%
%ADD24C,0.800000*%
%ADD25C,0.127000*%
%ADD26O,3.900000X2.600000*%
%ADD27C,2.600000*%
%ADD28O,4.800000X2.600000*%
%ADD29O,2.000000X1.700000*%
%ADD30O,1.700000X1.950000*%
G04 APERTURE END LIST*
D10*
X157760001Y-77885000D03*
X157760001Y-82965000D03*
X157760001Y-81695000D03*
X157760001Y-80425000D03*
X157760001Y-79155000D03*
X157760001Y-76615000D03*
X157760001Y-75345000D03*
X157760001Y-74075000D03*
X157760001Y-72805000D03*
X157760001Y-71535000D03*
D11*
X175720001Y-88750000D03*
X164290001Y-88750000D03*
X173180001Y-88750000D03*
X170640001Y-88750000D03*
X169370001Y-88750000D03*
X163020001Y-88750000D03*
X161750001Y-88750000D03*
X171910001Y-88750000D03*
X165560001Y-88750000D03*
X178260001Y-88750000D03*
X174450001Y-88750000D03*
X166830001Y-88750000D03*
X168100001Y-88750000D03*
X176990001Y-88750000D03*
X161750001Y-65750000D03*
X163020001Y-65750000D03*
X164290001Y-65750000D03*
X165560001Y-65750000D03*
X166830001Y-65750000D03*
X168100001Y-65750000D03*
X169370001Y-65750000D03*
X170640001Y-65750000D03*
X171910001Y-65750000D03*
X173180001Y-65750000D03*
X174450001Y-65750000D03*
X175720001Y-65750000D03*
X176990001Y-65750000D03*
X178260001Y-65750000D03*
D12*
X172595001Y-75332500D03*
X172595001Y-77250000D03*
X170760001Y-75332500D03*
X171677501Y-76250000D03*
X170760001Y-77250000D03*
X171677501Y-74415000D03*
X171677501Y-78085000D03*
X169842501Y-76250000D03*
X169842501Y-74415000D03*
X169842501Y-78085000D03*
X168925001Y-77250000D03*
X168925001Y-75332500D03*
D13*
X72550000Y-96030000D03*
X72550000Y-93490000D03*
X72550000Y-83330000D03*
D14*
X72550000Y-78250000D03*
D15*
X72550000Y-80790000D03*
X72550000Y-88410000D03*
X72550000Y-90950000D03*
D13*
X175780000Y-128590000D03*
G36*
G01*
X175399000Y-110048000D02*
X176161000Y-110048000D01*
G75*
G02*
X176542000Y-110429000I0J-381000D01*
G01*
X176542000Y-111191000D01*
G75*
G02*
X176161000Y-111572000I-381000J0D01*
G01*
X175399000Y-111572000D01*
G75*
G02*
X175018000Y-111191000I0J381000D01*
G01*
X175018000Y-110429000D01*
G75*
G02*
X175399000Y-110048000I381000J0D01*
G01*
G37*
G36*
G01*
X172859000Y-110048000D02*
X173621000Y-110048000D01*
G75*
G02*
X174002000Y-110429000I0J-381000D01*
G01*
X174002000Y-111191000D01*
G75*
G02*
X173621000Y-111572000I-381000J0D01*
G01*
X172859000Y-111572000D01*
G75*
G02*
X172478000Y-111191000I0J381000D01*
G01*
X172478000Y-110429000D01*
G75*
G02*
X172859000Y-110048000I381000J0D01*
G01*
G37*
X173240000Y-113350000D03*
X173240000Y-115890000D03*
X173240000Y-128590000D03*
X173240000Y-126050000D03*
X173240000Y-123510000D03*
X173240000Y-120970000D03*
X173240000Y-118430000D03*
D16*
X183400000Y-112080000D03*
X183400000Y-127320000D03*
G36*
G01*
X87000000Y-104300000D02*
X87000000Y-103500000D01*
G75*
G02*
X87400000Y-103100000I400000J0D01*
G01*
X88200000Y-103100000D01*
G75*
G02*
X88600000Y-103500000I0J-400000D01*
G01*
X88600000Y-104300000D01*
G75*
G02*
X88200000Y-104700000I-400000J0D01*
G01*
X87400000Y-104700000D01*
G75*
G02*
X87000000Y-104300000I0J400000D01*
G01*
G37*
D17*
X150800000Y-83000000D03*
X150800000Y-80500000D03*
X150800000Y-78000000D03*
G36*
G01*
X150075000Y-74650000D02*
X151525000Y-74650000D01*
G75*
G02*
X151775000Y-74900000I0J-250000D01*
G01*
X151775000Y-76100000D01*
G75*
G02*
X151525000Y-76350000I-250000J0D01*
G01*
X150075000Y-76350000D01*
G75*
G02*
X149825000Y-76100000I0J250000D01*
G01*
X149825000Y-74900000D01*
G75*
G02*
X150075000Y-74650000I250000J0D01*
G01*
G37*
D18*
X57750000Y-85830000D03*
X57750000Y-101070000D03*
X57750000Y-75670000D03*
X57750000Y-60430000D03*
D19*
X53940000Y-68050000D03*
X53940000Y-93450000D03*
D20*
X183850000Y-116965000D03*
X183850000Y-122635000D03*
D21*
X181700000Y-121800000D03*
X181700000Y-117800000D03*
D14*
X67550000Y-78250000D03*
D15*
X67550000Y-80790000D03*
X67550000Y-85870000D03*
X67550000Y-88410000D03*
X67550000Y-90950000D03*
D22*
X155000000Y-53000000D03*
G36*
G01*
X158350000Y-52250000D02*
X158350000Y-53750000D01*
G75*
G02*
X158100000Y-54000000I-250000J0D01*
G01*
X156900000Y-54000000D01*
G75*
G02*
X156650000Y-53750000I0J250000D01*
G01*
X156650000Y-52250000D01*
G75*
G02*
X156900000Y-52000000I250000J0D01*
G01*
X158100000Y-52000000D01*
G75*
G02*
X158350000Y-52250000I0J-250000D01*
G01*
G37*
D23*
X182000000Y-54000000D03*
D24*
X184400000Y-54000000D03*
X183697056Y-55697056D03*
X182000000Y-56400000D03*
X180302944Y-55697056D03*
X179600000Y-54000000D03*
X180302944Y-52302944D03*
X182000000Y-51600000D03*
X183697056Y-52302944D03*
D23*
X182000000Y-134000000D03*
D24*
X184400000Y-134000000D03*
X183697056Y-135697056D03*
X182000000Y-136400000D03*
X180302944Y-135697056D03*
X179600000Y-134000000D03*
X180302944Y-132302944D03*
X182000000Y-131600000D03*
X183697056Y-132302944D03*
D23*
X54000000Y-54000000D03*
D24*
X56400000Y-54000000D03*
X55697056Y-55697056D03*
X54000000Y-56400000D03*
X52302944Y-55697056D03*
X51600000Y-54000000D03*
X52302944Y-52302944D03*
X54000000Y-51600000D03*
X55697056Y-52302944D03*
D23*
X54000000Y-134000000D03*
D24*
X56400000Y-134000000D03*
X55697056Y-135697056D03*
X54000000Y-136400000D03*
X52302944Y-135697056D03*
X51600000Y-134000000D03*
X52302944Y-132302944D03*
X54000000Y-131600000D03*
X55697056Y-132302944D03*
D25*
G36*
X125250000Y-98669398D02*
G01*
X125225466Y-98669398D01*
X125176635Y-98664588D01*
X125128510Y-98655016D01*
X125081555Y-98640772D01*
X125036222Y-98621995D01*
X124992949Y-98598864D01*
X124952150Y-98571604D01*
X124914221Y-98540476D01*
X124879524Y-98505779D01*
X124848396Y-98467850D01*
X124821136Y-98427051D01*
X124798005Y-98383778D01*
X124779228Y-98338445D01*
X124764984Y-98291490D01*
X124755412Y-98243365D01*
X124750602Y-98194534D01*
X124750602Y-98170000D01*
X124750000Y-98170000D01*
X124750000Y-97670000D01*
X124750602Y-97670000D01*
X124750602Y-97645466D01*
X124755412Y-97596635D01*
X124764984Y-97548510D01*
X124779228Y-97501555D01*
X124798005Y-97456222D01*
X124821136Y-97412949D01*
X124848396Y-97372150D01*
X124879524Y-97334221D01*
X124914221Y-97299524D01*
X124952150Y-97268396D01*
X124992949Y-97241136D01*
X125036222Y-97218005D01*
X125081555Y-97199228D01*
X125128510Y-97184984D01*
X125176635Y-97175412D01*
X125225466Y-97170602D01*
X125250000Y-97170602D01*
X125250000Y-97170000D01*
X125750000Y-97170000D01*
X125750000Y-98670000D01*
X125250000Y-98670000D01*
X125250000Y-98669398D01*
G37*
G36*
X126050000Y-97170000D02*
G01*
X126550000Y-97170000D01*
X126550000Y-97170602D01*
X126574534Y-97170602D01*
X126623365Y-97175412D01*
X126671490Y-97184984D01*
X126718445Y-97199228D01*
X126763778Y-97218005D01*
X126807051Y-97241136D01*
X126847850Y-97268396D01*
X126885779Y-97299524D01*
X126920476Y-97334221D01*
X126951604Y-97372150D01*
X126978864Y-97412949D01*
X127001995Y-97456222D01*
X127020772Y-97501555D01*
X127035016Y-97548510D01*
X127044588Y-97596635D01*
X127049398Y-97645466D01*
X127049398Y-97670000D01*
X127050000Y-97670000D01*
X127050000Y-98170000D01*
X127049398Y-98170000D01*
X127049398Y-98194534D01*
X127044588Y-98243365D01*
X127035016Y-98291490D01*
X127020772Y-98338445D01*
X127001995Y-98383778D01*
X126978864Y-98427051D01*
X126951604Y-98467850D01*
X126920476Y-98505779D01*
X126885779Y-98540476D01*
X126847850Y-98571604D01*
X126807051Y-98598864D01*
X126763778Y-98621995D01*
X126718445Y-98640772D01*
X126671490Y-98655016D01*
X126623365Y-98664588D01*
X126574534Y-98669398D01*
X126550000Y-98669398D01*
X126550000Y-98670000D01*
X126050000Y-98670000D01*
X126050000Y-97170000D01*
G37*
G36*
X125250000Y-101209398D02*
G01*
X125225466Y-101209398D01*
X125176635Y-101204588D01*
X125128510Y-101195016D01*
X125081555Y-101180772D01*
X125036222Y-101161995D01*
X124992949Y-101138864D01*
X124952150Y-101111604D01*
X124914221Y-101080476D01*
X124879524Y-101045779D01*
X124848396Y-101007850D01*
X124821136Y-100967051D01*
X124798005Y-100923778D01*
X124779228Y-100878445D01*
X124764984Y-100831490D01*
X124755412Y-100783365D01*
X124750602Y-100734534D01*
X124750602Y-100710000D01*
X124750000Y-100710000D01*
X124750000Y-100210000D01*
X124750602Y-100210000D01*
X124750602Y-100185466D01*
X124755412Y-100136635D01*
X124764984Y-100088510D01*
X124779228Y-100041555D01*
X124798005Y-99996222D01*
X124821136Y-99952949D01*
X124848396Y-99912150D01*
X124879524Y-99874221D01*
X124914221Y-99839524D01*
X124952150Y-99808396D01*
X124992949Y-99781136D01*
X125036222Y-99758005D01*
X125081555Y-99739228D01*
X125128510Y-99724984D01*
X125176635Y-99715412D01*
X125225466Y-99710602D01*
X125250000Y-99710602D01*
X125250000Y-99710000D01*
X125750000Y-99710000D01*
X125750000Y-101210000D01*
X125250000Y-101210000D01*
X125250000Y-101209398D01*
G37*
G36*
X126050000Y-99710000D02*
G01*
X126550000Y-99710000D01*
X126550000Y-99710602D01*
X126574534Y-99710602D01*
X126623365Y-99715412D01*
X126671490Y-99724984D01*
X126718445Y-99739228D01*
X126763778Y-99758005D01*
X126807051Y-99781136D01*
X126847850Y-99808396D01*
X126885779Y-99839524D01*
X126920476Y-99874221D01*
X126951604Y-99912150D01*
X126978864Y-99952949D01*
X127001995Y-99996222D01*
X127020772Y-100041555D01*
X127035016Y-100088510D01*
X127044588Y-100136635D01*
X127049398Y-100185466D01*
X127049398Y-100210000D01*
X127050000Y-100210000D01*
X127050000Y-100710000D01*
X127049398Y-100710000D01*
X127049398Y-100734534D01*
X127044588Y-100783365D01*
X127035016Y-100831490D01*
X127020772Y-100878445D01*
X127001995Y-100923778D01*
X126978864Y-100967051D01*
X126951604Y-101007850D01*
X126920476Y-101045779D01*
X126885779Y-101080476D01*
X126847850Y-101111604D01*
X126807051Y-101138864D01*
X126763778Y-101161995D01*
X126718445Y-101180772D01*
X126671490Y-101195016D01*
X126623365Y-101204588D01*
X126574534Y-101209398D01*
X126550000Y-101209398D01*
X126550000Y-101210000D01*
X126050000Y-101210000D01*
X126050000Y-99710000D01*
G37*
G36*
X125250000Y-103749398D02*
G01*
X125225466Y-103749398D01*
X125176635Y-103744588D01*
X125128510Y-103735016D01*
X125081555Y-103720772D01*
X125036222Y-103701995D01*
X124992949Y-103678864D01*
X124952150Y-103651604D01*
X124914221Y-103620476D01*
X124879524Y-103585779D01*
X124848396Y-103547850D01*
X124821136Y-103507051D01*
X124798005Y-103463778D01*
X124779228Y-103418445D01*
X124764984Y-103371490D01*
X124755412Y-103323365D01*
X124750602Y-103274534D01*
X124750602Y-103250000D01*
X124750000Y-103250000D01*
X124750000Y-102750000D01*
X124750602Y-102750000D01*
X124750602Y-102725466D01*
X124755412Y-102676635D01*
X124764984Y-102628510D01*
X124779228Y-102581555D01*
X124798005Y-102536222D01*
X124821136Y-102492949D01*
X124848396Y-102452150D01*
X124879524Y-102414221D01*
X124914221Y-102379524D01*
X124952150Y-102348396D01*
X124992949Y-102321136D01*
X125036222Y-102298005D01*
X125081555Y-102279228D01*
X125128510Y-102264984D01*
X125176635Y-102255412D01*
X125225466Y-102250602D01*
X125250000Y-102250602D01*
X125250000Y-102250000D01*
X125750000Y-102250000D01*
X125750000Y-103750000D01*
X125250000Y-103750000D01*
X125250000Y-103749398D01*
G37*
G36*
X126050000Y-102250000D02*
G01*
X126550000Y-102250000D01*
X126550000Y-102250602D01*
X126574534Y-102250602D01*
X126623365Y-102255412D01*
X126671490Y-102264984D01*
X126718445Y-102279228D01*
X126763778Y-102298005D01*
X126807051Y-102321136D01*
X126847850Y-102348396D01*
X126885779Y-102379524D01*
X126920476Y-102414221D01*
X126951604Y-102452150D01*
X126978864Y-102492949D01*
X127001995Y-102536222D01*
X127020772Y-102581555D01*
X127035016Y-102628510D01*
X127044588Y-102676635D01*
X127049398Y-102725466D01*
X127049398Y-102750000D01*
X127050000Y-102750000D01*
X127050000Y-103250000D01*
X127049398Y-103250000D01*
X127049398Y-103274534D01*
X127044588Y-103323365D01*
X127035016Y-103371490D01*
X127020772Y-103418445D01*
X127001995Y-103463778D01*
X126978864Y-103507051D01*
X126951604Y-103547850D01*
X126920476Y-103585779D01*
X126885779Y-103620476D01*
X126847850Y-103651604D01*
X126807051Y-103678864D01*
X126763778Y-103701995D01*
X126718445Y-103720772D01*
X126671490Y-103735016D01*
X126623365Y-103744588D01*
X126574534Y-103749398D01*
X126550000Y-103749398D01*
X126550000Y-103750000D01*
X126050000Y-103750000D01*
X126050000Y-102250000D01*
G37*
G36*
X125250000Y-106289398D02*
G01*
X125225466Y-106289398D01*
X125176635Y-106284588D01*
X125128510Y-106275016D01*
X125081555Y-106260772D01*
X125036222Y-106241995D01*
X124992949Y-106218864D01*
X124952150Y-106191604D01*
X124914221Y-106160476D01*
X124879524Y-106125779D01*
X124848396Y-106087850D01*
X124821136Y-106047051D01*
X124798005Y-106003778D01*
X124779228Y-105958445D01*
X124764984Y-105911490D01*
X124755412Y-105863365D01*
X124750602Y-105814534D01*
X124750602Y-105790000D01*
X124750000Y-105790000D01*
X124750000Y-105290000D01*
X124750602Y-105290000D01*
X124750602Y-105265466D01*
X124755412Y-105216635D01*
X124764984Y-105168510D01*
X124779228Y-105121555D01*
X124798005Y-105076222D01*
X124821136Y-105032949D01*
X124848396Y-104992150D01*
X124879524Y-104954221D01*
X124914221Y-104919524D01*
X124952150Y-104888396D01*
X124992949Y-104861136D01*
X125036222Y-104838005D01*
X125081555Y-104819228D01*
X125128510Y-104804984D01*
X125176635Y-104795412D01*
X125225466Y-104790602D01*
X125250000Y-104790602D01*
X125250000Y-104790000D01*
X125750000Y-104790000D01*
X125750000Y-106290000D01*
X125250000Y-106290000D01*
X125250000Y-106289398D01*
G37*
G36*
X126050000Y-104790000D02*
G01*
X126550000Y-104790000D01*
X126550000Y-104790602D01*
X126574534Y-104790602D01*
X126623365Y-104795412D01*
X126671490Y-104804984D01*
X126718445Y-104819228D01*
X126763778Y-104838005D01*
X126807051Y-104861136D01*
X126847850Y-104888396D01*
X126885779Y-104919524D01*
X126920476Y-104954221D01*
X126951604Y-104992150D01*
X126978864Y-105032949D01*
X127001995Y-105076222D01*
X127020772Y-105121555D01*
X127035016Y-105168510D01*
X127044588Y-105216635D01*
X127049398Y-105265466D01*
X127049398Y-105290000D01*
X127050000Y-105290000D01*
X127050000Y-105790000D01*
X127049398Y-105790000D01*
X127049398Y-105814534D01*
X127044588Y-105863365D01*
X127035016Y-105911490D01*
X127020772Y-105958445D01*
X127001995Y-106003778D01*
X126978864Y-106047051D01*
X126951604Y-106087850D01*
X126920476Y-106125779D01*
X126885779Y-106160476D01*
X126847850Y-106191604D01*
X126807051Y-106218864D01*
X126763778Y-106241995D01*
X126718445Y-106260772D01*
X126671490Y-106275016D01*
X126623365Y-106284588D01*
X126574534Y-106289398D01*
X126550000Y-106289398D01*
X126550000Y-106290000D01*
X126050000Y-106290000D01*
X126050000Y-104790000D01*
G37*
G36*
X125250000Y-113909398D02*
G01*
X125225466Y-113909398D01*
X125176635Y-113904588D01*
X125128510Y-113895016D01*
X125081555Y-113880772D01*
X125036222Y-113861995D01*
X124992949Y-113838864D01*
X124952150Y-113811604D01*
X124914221Y-113780476D01*
X124879524Y-113745779D01*
X124848396Y-113707850D01*
X124821136Y-113667051D01*
X124798005Y-113623778D01*
X124779228Y-113578445D01*
X124764984Y-113531490D01*
X124755412Y-113483365D01*
X124750602Y-113434534D01*
X124750602Y-113410000D01*
X124750000Y-113410000D01*
X124750000Y-112910000D01*
X124750602Y-112910000D01*
X124750602Y-112885466D01*
X124755412Y-112836635D01*
X124764984Y-112788510D01*
X124779228Y-112741555D01*
X124798005Y-112696222D01*
X124821136Y-112652949D01*
X124848396Y-112612150D01*
X124879524Y-112574221D01*
X124914221Y-112539524D01*
X124952150Y-112508396D01*
X124992949Y-112481136D01*
X125036222Y-112458005D01*
X125081555Y-112439228D01*
X125128510Y-112424984D01*
X125176635Y-112415412D01*
X125225466Y-112410602D01*
X125250000Y-112410602D01*
X125250000Y-112410000D01*
X125750000Y-112410000D01*
X125750000Y-113910000D01*
X125250000Y-113910000D01*
X125250000Y-113909398D01*
G37*
G36*
X126050000Y-112410000D02*
G01*
X126550000Y-112410000D01*
X126550000Y-112410602D01*
X126574534Y-112410602D01*
X126623365Y-112415412D01*
X126671490Y-112424984D01*
X126718445Y-112439228D01*
X126763778Y-112458005D01*
X126807051Y-112481136D01*
X126847850Y-112508396D01*
X126885779Y-112539524D01*
X126920476Y-112574221D01*
X126951604Y-112612150D01*
X126978864Y-112652949D01*
X127001995Y-112696222D01*
X127020772Y-112741555D01*
X127035016Y-112788510D01*
X127044588Y-112836635D01*
X127049398Y-112885466D01*
X127049398Y-112910000D01*
X127050000Y-112910000D01*
X127050000Y-113410000D01*
X127049398Y-113410000D01*
X127049398Y-113434534D01*
X127044588Y-113483365D01*
X127035016Y-113531490D01*
X127020772Y-113578445D01*
X127001995Y-113623778D01*
X126978864Y-113667051D01*
X126951604Y-113707850D01*
X126920476Y-113745779D01*
X126885779Y-113780476D01*
X126847850Y-113811604D01*
X126807051Y-113838864D01*
X126763778Y-113861995D01*
X126718445Y-113880772D01*
X126671490Y-113895016D01*
X126623365Y-113904588D01*
X126574534Y-113909398D01*
X126550000Y-113909398D01*
X126550000Y-113910000D01*
X126050000Y-113910000D01*
X126050000Y-112410000D01*
G37*
G36*
X125250001Y-116449398D02*
G01*
X125225467Y-116449398D01*
X125176636Y-116444588D01*
X125128511Y-116435016D01*
X125081556Y-116420772D01*
X125036223Y-116401995D01*
X124992950Y-116378864D01*
X124952151Y-116351604D01*
X124914222Y-116320476D01*
X124879525Y-116285779D01*
X124848397Y-116247850D01*
X124821137Y-116207051D01*
X124798006Y-116163778D01*
X124779229Y-116118445D01*
X124764985Y-116071490D01*
X124755413Y-116023365D01*
X124750603Y-115974534D01*
X124750603Y-115950000D01*
X124750001Y-115950000D01*
X124750001Y-115450000D01*
X124750603Y-115450000D01*
X124750603Y-115425466D01*
X124755413Y-115376635D01*
X124764985Y-115328510D01*
X124779229Y-115281555D01*
X124798006Y-115236222D01*
X124821137Y-115192949D01*
X124848397Y-115152150D01*
X124879525Y-115114221D01*
X124914222Y-115079524D01*
X124952151Y-115048396D01*
X124992950Y-115021136D01*
X125036223Y-114998005D01*
X125081556Y-114979228D01*
X125128511Y-114964984D01*
X125176636Y-114955412D01*
X125225467Y-114950602D01*
X125250001Y-114950602D01*
X125250001Y-114950000D01*
X125750001Y-114950000D01*
X125750001Y-116450000D01*
X125250001Y-116450000D01*
X125250001Y-116449398D01*
G37*
G36*
X126050001Y-114950000D02*
G01*
X126550001Y-114950000D01*
X126550001Y-114950602D01*
X126574535Y-114950602D01*
X126623366Y-114955412D01*
X126671491Y-114964984D01*
X126718446Y-114979228D01*
X126763779Y-114998005D01*
X126807052Y-115021136D01*
X126847851Y-115048396D01*
X126885780Y-115079524D01*
X126920477Y-115114221D01*
X126951605Y-115152150D01*
X126978865Y-115192949D01*
X127001996Y-115236222D01*
X127020773Y-115281555D01*
X127035017Y-115328510D01*
X127044589Y-115376635D01*
X127049399Y-115425466D01*
X127049399Y-115450000D01*
X127050001Y-115450000D01*
X127050001Y-115950000D01*
X127049399Y-115950000D01*
X127049399Y-115974534D01*
X127044589Y-116023365D01*
X127035017Y-116071490D01*
X127020773Y-116118445D01*
X127001996Y-116163778D01*
X126978865Y-116207051D01*
X126951605Y-116247850D01*
X126920477Y-116285779D01*
X126885780Y-116320476D01*
X126847851Y-116351604D01*
X126807052Y-116378864D01*
X126763779Y-116401995D01*
X126718446Y-116420772D01*
X126671491Y-116435016D01*
X126623366Y-116444588D01*
X126574535Y-116449398D01*
X126550001Y-116449398D01*
X126550001Y-116450000D01*
X126050001Y-116450000D01*
X126050001Y-114950000D01*
G37*
G36*
X125250000Y-118989398D02*
G01*
X125225466Y-118989398D01*
X125176635Y-118984588D01*
X125128510Y-118975016D01*
X125081555Y-118960772D01*
X125036222Y-118941995D01*
X124992949Y-118918864D01*
X124952150Y-118891604D01*
X124914221Y-118860476D01*
X124879524Y-118825779D01*
X124848396Y-118787850D01*
X124821136Y-118747051D01*
X124798005Y-118703778D01*
X124779228Y-118658445D01*
X124764984Y-118611490D01*
X124755412Y-118563365D01*
X124750602Y-118514534D01*
X124750602Y-118490000D01*
X124750000Y-118490000D01*
X124750000Y-117990000D01*
X124750602Y-117990000D01*
X124750602Y-117965466D01*
X124755412Y-117916635D01*
X124764984Y-117868510D01*
X124779228Y-117821555D01*
X124798005Y-117776222D01*
X124821136Y-117732949D01*
X124848396Y-117692150D01*
X124879524Y-117654221D01*
X124914221Y-117619524D01*
X124952150Y-117588396D01*
X124992949Y-117561136D01*
X125036222Y-117538005D01*
X125081555Y-117519228D01*
X125128510Y-117504984D01*
X125176635Y-117495412D01*
X125225466Y-117490602D01*
X125250000Y-117490602D01*
X125250000Y-117490000D01*
X125750000Y-117490000D01*
X125750000Y-118990000D01*
X125250000Y-118990000D01*
X125250000Y-118989398D01*
G37*
G36*
X126050000Y-117490000D02*
G01*
X126550000Y-117490000D01*
X126550000Y-117490602D01*
X126574534Y-117490602D01*
X126623365Y-117495412D01*
X126671490Y-117504984D01*
X126718445Y-117519228D01*
X126763778Y-117538005D01*
X126807051Y-117561136D01*
X126847850Y-117588396D01*
X126885779Y-117619524D01*
X126920476Y-117654221D01*
X126951604Y-117692150D01*
X126978864Y-117732949D01*
X127001995Y-117776222D01*
X127020772Y-117821555D01*
X127035016Y-117868510D01*
X127044588Y-117916635D01*
X127049398Y-117965466D01*
X127049398Y-117990000D01*
X127050000Y-117990000D01*
X127050000Y-118490000D01*
X127049398Y-118490000D01*
X127049398Y-118514534D01*
X127044588Y-118563365D01*
X127035016Y-118611490D01*
X127020772Y-118658445D01*
X127001995Y-118703778D01*
X126978864Y-118747051D01*
X126951604Y-118787850D01*
X126920476Y-118825779D01*
X126885779Y-118860476D01*
X126847850Y-118891604D01*
X126807051Y-118918864D01*
X126763778Y-118941995D01*
X126718445Y-118960772D01*
X126671490Y-118975016D01*
X126623365Y-118984588D01*
X126574534Y-118989398D01*
X126550000Y-118989398D01*
X126550000Y-118990000D01*
X126050000Y-118990000D01*
X126050000Y-117490000D01*
G37*
G36*
X125250000Y-121529398D02*
G01*
X125225466Y-121529398D01*
X125176635Y-121524588D01*
X125128510Y-121515016D01*
X125081555Y-121500772D01*
X125036222Y-121481995D01*
X124992949Y-121458864D01*
X124952150Y-121431604D01*
X124914221Y-121400476D01*
X124879524Y-121365779D01*
X124848396Y-121327850D01*
X124821136Y-121287051D01*
X124798005Y-121243778D01*
X124779228Y-121198445D01*
X124764984Y-121151490D01*
X124755412Y-121103365D01*
X124750602Y-121054534D01*
X124750602Y-121030000D01*
X124750000Y-121030000D01*
X124750000Y-120530000D01*
X124750602Y-120530000D01*
X124750602Y-120505466D01*
X124755412Y-120456635D01*
X124764984Y-120408510D01*
X124779228Y-120361555D01*
X124798005Y-120316222D01*
X124821136Y-120272949D01*
X124848396Y-120232150D01*
X124879524Y-120194221D01*
X124914221Y-120159524D01*
X124952150Y-120128396D01*
X124992949Y-120101136D01*
X125036222Y-120078005D01*
X125081555Y-120059228D01*
X125128510Y-120044984D01*
X125176635Y-120035412D01*
X125225466Y-120030602D01*
X125250000Y-120030602D01*
X125250000Y-120030000D01*
X125750000Y-120030000D01*
X125750000Y-121530000D01*
X125250000Y-121530000D01*
X125250000Y-121529398D01*
G37*
G36*
X126050000Y-120030000D02*
G01*
X126550000Y-120030000D01*
X126550000Y-120030602D01*
X126574534Y-120030602D01*
X126623365Y-120035412D01*
X126671490Y-120044984D01*
X126718445Y-120059228D01*
X126763778Y-120078005D01*
X126807051Y-120101136D01*
X126847850Y-120128396D01*
X126885779Y-120159524D01*
X126920476Y-120194221D01*
X126951604Y-120232150D01*
X126978864Y-120272949D01*
X127001995Y-120316222D01*
X127020772Y-120361555D01*
X127035016Y-120408510D01*
X127044588Y-120456635D01*
X127049398Y-120505466D01*
X127049398Y-120530000D01*
X127050000Y-120530000D01*
X127050000Y-121030000D01*
X127049398Y-121030000D01*
X127049398Y-121054534D01*
X127044588Y-121103365D01*
X127035016Y-121151490D01*
X127020772Y-121198445D01*
X127001995Y-121243778D01*
X126978864Y-121287051D01*
X126951604Y-121327850D01*
X126920476Y-121365779D01*
X126885779Y-121400476D01*
X126847850Y-121431604D01*
X126807051Y-121458864D01*
X126763778Y-121481995D01*
X126718445Y-121500772D01*
X126671490Y-121515016D01*
X126623365Y-121524588D01*
X126574534Y-121529398D01*
X126550000Y-121529398D01*
X126550000Y-121530000D01*
X126050000Y-121530000D01*
X126050000Y-120030000D01*
G37*
G36*
G01*
X58800000Y-115300000D02*
X56200000Y-115300000D01*
G75*
G02*
X55550000Y-114650000I0J650000D01*
G01*
X55550000Y-113350000D01*
G75*
G02*
X56200000Y-112700000I650000J0D01*
G01*
X58800000Y-112700000D01*
G75*
G02*
X59450000Y-113350000I0J-650000D01*
G01*
X59450000Y-114650000D01*
G75*
G02*
X58800000Y-115300000I-650000J0D01*
G01*
G37*
D26*
X78000000Y-114000000D03*
D18*
X72249000Y-118762000D03*
X64000000Y-104475000D03*
X55751000Y-118762000D03*
D27*
X52600000Y-114000000D03*
D28*
X57500000Y-114000000D03*
X78500000Y-114000000D03*
D24*
X155765000Y-124665000D03*
X157035000Y-124665000D03*
X157035000Y-125935000D03*
X155765000Y-125935000D03*
X156400000Y-125300000D03*
G36*
G01*
X94620000Y-104300000D02*
X94620000Y-103500000D01*
G75*
G02*
X95020000Y-103100000I400000J0D01*
G01*
X95820000Y-103100000D01*
G75*
G02*
X96220000Y-103500000I0J-400000D01*
G01*
X96220000Y-104300000D01*
G75*
G02*
X95820000Y-104700000I-400000J0D01*
G01*
X95020000Y-104700000D01*
G75*
G02*
X94620000Y-104300000I0J400000D01*
G01*
G37*
G36*
G01*
X84460000Y-104300000D02*
X84460000Y-103500000D01*
G75*
G02*
X84860000Y-103100000I400000J0D01*
G01*
X85660000Y-103100000D01*
G75*
G02*
X86060000Y-103500000I0J-400000D01*
G01*
X86060000Y-104300000D01*
G75*
G02*
X85660000Y-104700000I-400000J0D01*
G01*
X84860000Y-104700000D01*
G75*
G02*
X84460000Y-104300000I0J400000D01*
G01*
G37*
D22*
X135500000Y-53000000D03*
G36*
G01*
X138850000Y-52250000D02*
X138850000Y-53750000D01*
G75*
G02*
X138600000Y-54000000I-250000J0D01*
G01*
X137400000Y-54000000D01*
G75*
G02*
X137150000Y-53750000I0J250000D01*
G01*
X137150000Y-52250000D01*
G75*
G02*
X137400000Y-52000000I250000J0D01*
G01*
X138600000Y-52000000D01*
G75*
G02*
X138850000Y-52250000I0J-250000D01*
G01*
G37*
G36*
G01*
X126300000Y-108880000D02*
X125500000Y-108880000D01*
G75*
G02*
X125100000Y-108480000I0J400000D01*
G01*
X125100000Y-107680000D01*
G75*
G02*
X125500000Y-107280000I400000J0D01*
G01*
X126300000Y-107280000D01*
G75*
G02*
X126700000Y-107680000I0J-400000D01*
G01*
X126700000Y-108480000D01*
G75*
G02*
X126300000Y-108880000I-400000J0D01*
G01*
G37*
X180500000Y-95000000D03*
G36*
G01*
X183850000Y-94250000D02*
X183850000Y-95750000D01*
G75*
G02*
X183600000Y-96000000I-250000J0D01*
G01*
X182400000Y-96000000D01*
G75*
G02*
X182150000Y-95750000I0J250000D01*
G01*
X182150000Y-94250000D01*
G75*
G02*
X182400000Y-94000000I250000J0D01*
G01*
X183600000Y-94000000D01*
G75*
G02*
X183850000Y-94250000I0J-250000D01*
G01*
G37*
X180500000Y-100000000D03*
G36*
G01*
X183850000Y-99250000D02*
X183850000Y-100750000D01*
G75*
G02*
X183600000Y-101000000I-250000J0D01*
G01*
X182400000Y-101000000D01*
G75*
G02*
X182150000Y-100750000I0J250000D01*
G01*
X182150000Y-99250000D01*
G75*
G02*
X182400000Y-99000000I250000J0D01*
G01*
X183600000Y-99000000D01*
G75*
G02*
X183850000Y-99250000I0J-250000D01*
G01*
G37*
X180500000Y-105000000D03*
G36*
G01*
X183850000Y-104250000D02*
X183850000Y-105750000D01*
G75*
G02*
X183600000Y-106000000I-250000J0D01*
G01*
X182400000Y-106000000D01*
G75*
G02*
X182150000Y-105750000I0J250000D01*
G01*
X182150000Y-104250000D01*
G75*
G02*
X182400000Y-104000000I250000J0D01*
G01*
X183600000Y-104000000D01*
G75*
G02*
X183850000Y-104250000I0J-250000D01*
G01*
G37*
D13*
X131400000Y-110620000D03*
X131400000Y-108080000D03*
X131400000Y-105540000D03*
X131400000Y-103000000D03*
X131400000Y-100460000D03*
X131400000Y-97920000D03*
X131400000Y-113160000D03*
X131400000Y-115700000D03*
X131400000Y-118240000D03*
X131400000Y-120780000D03*
D19*
X118954000Y-120780000D03*
X118954000Y-97920000D03*
D29*
X136250000Y-98500000D03*
G36*
G01*
X137000000Y-101850000D02*
X135500000Y-101850000D01*
G75*
G02*
X135250000Y-101600000I0J250000D01*
G01*
X135250000Y-100400000D01*
G75*
G02*
X135500000Y-100150000I250000J0D01*
G01*
X137000000Y-100150000D01*
G75*
G02*
X137250000Y-100400000I0J-250000D01*
G01*
X137250000Y-101600000D01*
G75*
G02*
X137000000Y-101850000I-250000J0D01*
G01*
G37*
G36*
G01*
X119550000Y-54100000D02*
X119550000Y-55400000D01*
G75*
G02*
X118900000Y-56050000I-650000J0D01*
G01*
X117600000Y-56050000D01*
G75*
G02*
X116950000Y-55400000I0J650000D01*
G01*
X116950000Y-54100000D01*
G75*
G02*
X117600000Y-53450000I650000J0D01*
G01*
X118900000Y-53450000D01*
G75*
G02*
X119550000Y-54100000I0J-650000D01*
G01*
G37*
G36*
G01*
X114550000Y-54100000D02*
X114550000Y-55400000D01*
G75*
G02*
X113900000Y-56050000I-650000J0D01*
G01*
X112600000Y-56050000D01*
G75*
G02*
X111950000Y-55400000I0J650000D01*
G01*
X111950000Y-54100000D01*
G75*
G02*
X112600000Y-53450000I650000J0D01*
G01*
X113900000Y-53450000D01*
G75*
G02*
X114550000Y-54100000I0J-650000D01*
G01*
G37*
G36*
G01*
X109550000Y-54100000D02*
X109550000Y-55400000D01*
G75*
G02*
X108900000Y-56050000I-650000J0D01*
G01*
X107600000Y-56050000D01*
G75*
G02*
X106950000Y-55400000I0J650000D01*
G01*
X106950000Y-54100000D01*
G75*
G02*
X107600000Y-53450000I650000J0D01*
G01*
X108900000Y-53450000D01*
G75*
G02*
X109550000Y-54100000I0J-650000D01*
G01*
G37*
G36*
G01*
X104550000Y-54100000D02*
X104550000Y-55400000D01*
G75*
G02*
X103900000Y-56050000I-650000J0D01*
G01*
X102600000Y-56050000D01*
G75*
G02*
X101950000Y-55400000I0J650000D01*
G01*
X101950000Y-54100000D01*
G75*
G02*
X102600000Y-53450000I650000J0D01*
G01*
X103900000Y-53450000D01*
G75*
G02*
X104550000Y-54100000I0J-650000D01*
G01*
G37*
G36*
G01*
X99550000Y-54100000D02*
X99550000Y-55400000D01*
G75*
G02*
X98900000Y-56050000I-650000J0D01*
G01*
X97600000Y-56050000D01*
G75*
G02*
X96950000Y-55400000I0J650000D01*
G01*
X96950000Y-54100000D01*
G75*
G02*
X97600000Y-53450000I650000J0D01*
G01*
X98900000Y-53450000D01*
G75*
G02*
X99550000Y-54100000I0J-650000D01*
G01*
G37*
G36*
G01*
X94550000Y-54100000D02*
X94550000Y-55400000D01*
G75*
G02*
X93900000Y-56050000I-650000J0D01*
G01*
X92600000Y-56050000D01*
G75*
G02*
X91950000Y-55400000I0J650000D01*
G01*
X91950000Y-54100000D01*
G75*
G02*
X92600000Y-53450000I650000J0D01*
G01*
X93900000Y-53450000D01*
G75*
G02*
X94550000Y-54100000I0J-650000D01*
G01*
G37*
G36*
G01*
X89550000Y-54100000D02*
X89550000Y-55400000D01*
G75*
G02*
X88900000Y-56050000I-650000J0D01*
G01*
X87600000Y-56050000D01*
G75*
G02*
X86950000Y-55400000I0J650000D01*
G01*
X86950000Y-54100000D01*
G75*
G02*
X87600000Y-53450000I650000J0D01*
G01*
X88900000Y-53450000D01*
G75*
G02*
X89550000Y-54100000I0J-650000D01*
G01*
G37*
G36*
G01*
X84550000Y-54100000D02*
X84550000Y-55400000D01*
G75*
G02*
X83900000Y-56050000I-650000J0D01*
G01*
X82600000Y-56050000D01*
G75*
G02*
X81950000Y-55400000I0J650000D01*
G01*
X81950000Y-54100000D01*
G75*
G02*
X82600000Y-53450000I650000J0D01*
G01*
X83900000Y-53450000D01*
G75*
G02*
X84550000Y-54100000I0J-650000D01*
G01*
G37*
G36*
G01*
X79550000Y-54100000D02*
X79550000Y-55400000D01*
G75*
G02*
X78900000Y-56050000I-650000J0D01*
G01*
X77600000Y-56050000D01*
G75*
G02*
X76950000Y-55400000I0J650000D01*
G01*
X76950000Y-54100000D01*
G75*
G02*
X77600000Y-53450000I650000J0D01*
G01*
X78900000Y-53450000D01*
G75*
G02*
X79550000Y-54100000I0J-650000D01*
G01*
G37*
G36*
G01*
X74550000Y-54100000D02*
X74550000Y-55400000D01*
G75*
G02*
X73900000Y-56050000I-650000J0D01*
G01*
X72600000Y-56050000D01*
G75*
G02*
X71950000Y-55400000I0J650000D01*
G01*
X71950000Y-54100000D01*
G75*
G02*
X72600000Y-53450000I650000J0D01*
G01*
X73900000Y-53450000D01*
G75*
G02*
X74550000Y-54100000I0J-650000D01*
G01*
G37*
G36*
G01*
X69550000Y-54100000D02*
X69550000Y-55400000D01*
G75*
G02*
X68900000Y-56050000I-650000J0D01*
G01*
X67600000Y-56050000D01*
G75*
G02*
X66950000Y-55400000I0J650000D01*
G01*
X66950000Y-54100000D01*
G75*
G02*
X67600000Y-53450000I650000J0D01*
G01*
X68900000Y-53450000D01*
G75*
G02*
X69550000Y-54100000I0J-650000D01*
G01*
G37*
G36*
G01*
X64550000Y-54100000D02*
X64550000Y-55400000D01*
G75*
G02*
X63900000Y-56050000I-650000J0D01*
G01*
X62600000Y-56050000D01*
G75*
G02*
X61950000Y-55400000I0J650000D01*
G01*
X61950000Y-54100000D01*
G75*
G02*
X62600000Y-53450000I650000J0D01*
G01*
X63900000Y-53450000D01*
G75*
G02*
X64550000Y-54100000I0J-650000D01*
G01*
G37*
D17*
X145250000Y-106000000D03*
X145250000Y-103500000D03*
X145250000Y-101000000D03*
G36*
G01*
X144525000Y-97650000D02*
X145975000Y-97650000D01*
G75*
G02*
X146225000Y-97900000I0J-250000D01*
G01*
X146225000Y-99100000D01*
G75*
G02*
X145975000Y-99350000I-250000J0D01*
G01*
X144525000Y-99350000D01*
G75*
G02*
X144275000Y-99100000I0J250000D01*
G01*
X144275000Y-97900000D01*
G75*
G02*
X144525000Y-97650000I250000J0D01*
G01*
G37*
X150750000Y-106000000D03*
X150750000Y-103500000D03*
X150750000Y-101000000D03*
G36*
G01*
X150025000Y-97650000D02*
X151475000Y-97650000D01*
G75*
G02*
X151725000Y-97900000I0J-250000D01*
G01*
X151725000Y-99100000D01*
G75*
G02*
X151475000Y-99350000I-250000J0D01*
G01*
X150025000Y-99350000D01*
G75*
G02*
X149775000Y-99100000I0J250000D01*
G01*
X149775000Y-97900000D01*
G75*
G02*
X150025000Y-97650000I250000J0D01*
G01*
G37*
X145250000Y-83000000D03*
X145250000Y-80500000D03*
X145250000Y-78000000D03*
G36*
G01*
X144525000Y-74650000D02*
X145975000Y-74650000D01*
G75*
G02*
X146225000Y-74900000I0J-250000D01*
G01*
X146225000Y-76100000D01*
G75*
G02*
X145975000Y-76350000I-250000J0D01*
G01*
X144525000Y-76350000D01*
G75*
G02*
X144275000Y-76100000I0J250000D01*
G01*
X144275000Y-74900000D01*
G75*
G02*
X144525000Y-74650000I250000J0D01*
G01*
G37*
D30*
X144000000Y-53000000D03*
X146500000Y-53000000D03*
G36*
G01*
X149850000Y-52275000D02*
X149850000Y-53725000D01*
G75*
G02*
X149600000Y-53975000I-250000J0D01*
G01*
X148400000Y-53975000D01*
G75*
G02*
X148150000Y-53725000I0J250000D01*
G01*
X148150000Y-52275000D01*
G75*
G02*
X148400000Y-52025000I250000J0D01*
G01*
X149600000Y-52025000D01*
G75*
G02*
X149850000Y-52275000I0J-250000D01*
G01*
G37*
D25*
G36*
X156785427Y-125407913D02*
G01*
X156786098Y-125409613D01*
X156784317Y-125427693D01*
X156786680Y-125451684D01*
X156793680Y-125474759D01*
X156805045Y-125496023D01*
X156820340Y-125514660D01*
X156838977Y-125529955D01*
X156860241Y-125541320D01*
X156883316Y-125548320D01*
X156907307Y-125550683D01*
X156925387Y-125548902D01*
X156927209Y-125549727D01*
X156927405Y-125551717D01*
X156925973Y-125552854D01*
X156919468Y-125554148D01*
X156847388Y-125584004D01*
X156782517Y-125627350D01*
X156727350Y-125682517D01*
X156684004Y-125747388D01*
X156654148Y-125819468D01*
X156652854Y-125825973D01*
X156651535Y-125827477D01*
X156649573Y-125827087D01*
X156648902Y-125825387D01*
X156650683Y-125807307D01*
X156648320Y-125783316D01*
X156641320Y-125760241D01*
X156629955Y-125738977D01*
X156614660Y-125720340D01*
X156596023Y-125705045D01*
X156574759Y-125693680D01*
X156551684Y-125686680D01*
X156527693Y-125684317D01*
X156509613Y-125686098D01*
X156507791Y-125685273D01*
X156507595Y-125683283D01*
X156509027Y-125682146D01*
X156515532Y-125680852D01*
X156587612Y-125650996D01*
X156652483Y-125607650D01*
X156707650Y-125552483D01*
X156750996Y-125487612D01*
X156780852Y-125415532D01*
X156782146Y-125409027D01*
X156783465Y-125407523D01*
X156785427Y-125407913D01*
G37*
G36*
X156017854Y-125409027D02*
G01*
X156019148Y-125415532D01*
X156049004Y-125487612D01*
X156092350Y-125552483D01*
X156147517Y-125607650D01*
X156212388Y-125650996D01*
X156284468Y-125680852D01*
X156290973Y-125682146D01*
X156292477Y-125683465D01*
X156292087Y-125685427D01*
X156290387Y-125686098D01*
X156272307Y-125684317D01*
X156248316Y-125686680D01*
X156225241Y-125693680D01*
X156203977Y-125705045D01*
X156185340Y-125720340D01*
X156170045Y-125738977D01*
X156158680Y-125760241D01*
X156151680Y-125783316D01*
X156149317Y-125807307D01*
X156151098Y-125825387D01*
X156150273Y-125827209D01*
X156148283Y-125827405D01*
X156147146Y-125825973D01*
X156145852Y-125819468D01*
X156115996Y-125747388D01*
X156072650Y-125682517D01*
X156017483Y-125627350D01*
X155952612Y-125584004D01*
X155880532Y-125554148D01*
X155874027Y-125552854D01*
X155872523Y-125551535D01*
X155872913Y-125549573D01*
X155874613Y-125548902D01*
X155892693Y-125550683D01*
X155916684Y-125548320D01*
X155939759Y-125541320D01*
X155961023Y-125529955D01*
X155979660Y-125514660D01*
X155994955Y-125496023D01*
X156006320Y-125474759D01*
X156013320Y-125451684D01*
X156015683Y-125427693D01*
X156013902Y-125409613D01*
X156014727Y-125407791D01*
X156016717Y-125407595D01*
X156017854Y-125409027D01*
G37*
G36*
X156150427Y-124772913D02*
G01*
X156151098Y-124774613D01*
X156149317Y-124792693D01*
X156151680Y-124816684D01*
X156158680Y-124839759D01*
X156170045Y-124861023D01*
X156185340Y-124879660D01*
X156203977Y-124894955D01*
X156225241Y-124906320D01*
X156248316Y-124913320D01*
X156272307Y-124915683D01*
X156290387Y-124913902D01*
X156292209Y-124914727D01*
X156292405Y-124916717D01*
X156290973Y-124917854D01*
X156284468Y-124919148D01*
X156212388Y-124949004D01*
X156147517Y-124992350D01*
X156092350Y-125047517D01*
X156049004Y-125112388D01*
X156019148Y-125184468D01*
X156017854Y-125190973D01*
X156016535Y-125192477D01*
X156014573Y-125192087D01*
X156013902Y-125190387D01*
X156015683Y-125172307D01*
X156013320Y-125148316D01*
X156006320Y-125125241D01*
X155994955Y-125103977D01*
X155979660Y-125085340D01*
X155961023Y-125070045D01*
X155939759Y-125058680D01*
X155916684Y-125051680D01*
X155892693Y-125049317D01*
X155874613Y-125051098D01*
X155872791Y-125050273D01*
X155872595Y-125048283D01*
X155874027Y-125047146D01*
X155880532Y-125045852D01*
X155952612Y-125015996D01*
X156017483Y-124972650D01*
X156072650Y-124917483D01*
X156115996Y-124852612D01*
X156145852Y-124780532D01*
X156147146Y-124774027D01*
X156148465Y-124772523D01*
X156150427Y-124772913D01*
G37*
G36*
X156652854Y-124774027D02*
G01*
X156654148Y-124780532D01*
X156684004Y-124852612D01*
X156727350Y-124917483D01*
X156782517Y-124972650D01*
X156847388Y-125015996D01*
X156919468Y-125045852D01*
X156925973Y-125047146D01*
X156927477Y-125048465D01*
X156927087Y-125050427D01*
X156925387Y-125051098D01*
X156907307Y-125049317D01*
X156883316Y-125051680D01*
X156860241Y-125058680D01*
X156838977Y-125070045D01*
X156820340Y-125085340D01*
X156805045Y-125103977D01*
X156793680Y-125125241D01*
X156786680Y-125148316D01*
X156784317Y-125172307D01*
X156786098Y-125190387D01*
X156785273Y-125192209D01*
X156783283Y-125192405D01*
X156782146Y-125190973D01*
X156780852Y-125184468D01*
X156750996Y-125112388D01*
X156707650Y-125047517D01*
X156652483Y-124992350D01*
X156587612Y-124949004D01*
X156515532Y-124919148D01*
X156509027Y-124917854D01*
X156507523Y-124916535D01*
X156507913Y-124914573D01*
X156509613Y-124913902D01*
X156527693Y-124915683D01*
X156551684Y-124913320D01*
X156574759Y-124906320D01*
X156596023Y-124894955D01*
X156614660Y-124879660D01*
X156629955Y-124861023D01*
X156641320Y-124839759D01*
X156648320Y-124816684D01*
X156650683Y-124792693D01*
X156648902Y-124774613D01*
X156649727Y-124772791D01*
X156651717Y-124772595D01*
X156652854Y-124774027D01*
G37*
G36*
X59320572Y-115080668D02*
G01*
X59321515Y-115082431D01*
X59320785Y-115083912D01*
X59315116Y-115088565D01*
X59297933Y-115105749D01*
X59279043Y-115128767D01*
X59278766Y-115129044D01*
X59189829Y-115202032D01*
X59189503Y-115202250D01*
X59088038Y-115256485D01*
X59087676Y-115256635D01*
X58977580Y-115290033D01*
X58977195Y-115290109D01*
X58856556Y-115301990D01*
X58856360Y-115302000D01*
X58800000Y-115302000D01*
X58798268Y-115301000D01*
X58798268Y-115299000D01*
X58799804Y-115298010D01*
X58926414Y-115285540D01*
X59047975Y-115248665D01*
X59160005Y-115188784D01*
X59241706Y-115121733D01*
X59242032Y-115121515D01*
X59318573Y-115080602D01*
X59320572Y-115080668D01*
G37*
G36*
X55681427Y-115080602D02*
G01*
X55757968Y-115121515D01*
X55758294Y-115121733D01*
X55839995Y-115188784D01*
X55952025Y-115248665D01*
X56073586Y-115285540D01*
X56200196Y-115298010D01*
X56201822Y-115299175D01*
X56201626Y-115301165D01*
X56200000Y-115302000D01*
X56143640Y-115302000D01*
X56143444Y-115301990D01*
X56022805Y-115290109D01*
X56022420Y-115290033D01*
X55912324Y-115256635D01*
X55911962Y-115256485D01*
X55810497Y-115202250D01*
X55810171Y-115202032D01*
X55721234Y-115129044D01*
X55720957Y-115128767D01*
X55702067Y-115105749D01*
X55684884Y-115088565D01*
X55679215Y-115083912D01*
X55678511Y-115082040D01*
X55679780Y-115080494D01*
X55681427Y-115080602D01*
G37*
G36*
X58856556Y-112698010D02*
G01*
X58977195Y-112709891D01*
X58977580Y-112709967D01*
X59087676Y-112743365D01*
X59088038Y-112743515D01*
X59189503Y-112797750D01*
X59189829Y-112797968D01*
X59278766Y-112870956D01*
X59279043Y-112871233D01*
X59297933Y-112894251D01*
X59315116Y-112911435D01*
X59320785Y-112916088D01*
X59321489Y-112917960D01*
X59320220Y-112919506D01*
X59318573Y-112919398D01*
X59242032Y-112878485D01*
X59241706Y-112878267D01*
X59160005Y-112811216D01*
X59047975Y-112751335D01*
X58926414Y-112714460D01*
X58799804Y-112701990D01*
X58798178Y-112700825D01*
X58798374Y-112698835D01*
X58800000Y-112698000D01*
X58856360Y-112698000D01*
X58856556Y-112698010D01*
G37*
G36*
X56201732Y-112699000D02*
G01*
X56201732Y-112701000D01*
X56200196Y-112701990D01*
X56073586Y-112714460D01*
X55952025Y-112751335D01*
X55839995Y-112811216D01*
X55758294Y-112878267D01*
X55757968Y-112878485D01*
X55681427Y-112919398D01*
X55679428Y-112919332D01*
X55678485Y-112917569D01*
X55679215Y-112916088D01*
X55684884Y-112911435D01*
X55702067Y-112894251D01*
X55720957Y-112871233D01*
X55721234Y-112870956D01*
X55810171Y-112797968D01*
X55810497Y-112797750D01*
X55911962Y-112743515D01*
X55912324Y-112743365D01*
X56022420Y-112709967D01*
X56022805Y-112709891D01*
X56143444Y-112698010D01*
X56143640Y-112698000D01*
X56200000Y-112698000D01*
X56201732Y-112699000D01*
G37*
G36*
X174003165Y-111189374D02*
G01*
X174004000Y-111191000D01*
X174004000Y-111247359D01*
X174003990Y-111247555D01*
X173997277Y-111315714D01*
X173997201Y-111316099D01*
X173979111Y-111375734D01*
X173978961Y-111376096D01*
X173949584Y-111431057D01*
X173949366Y-111431383D01*
X173909832Y-111479555D01*
X173909555Y-111479832D01*
X173861383Y-111519366D01*
X173861057Y-111519584D01*
X173806096Y-111548961D01*
X173805734Y-111549111D01*
X173746099Y-111567201D01*
X173745714Y-111567277D01*
X173677555Y-111573990D01*
X173677359Y-111574000D01*
X173621000Y-111574000D01*
X173619268Y-111573000D01*
X173619268Y-111571000D01*
X173620804Y-111570010D01*
X173694934Y-111562709D01*
X173766033Y-111541141D01*
X173831556Y-111506119D01*
X173888987Y-111458987D01*
X173936119Y-111401556D01*
X173971141Y-111336033D01*
X173992709Y-111264934D01*
X174000010Y-111190804D01*
X174001175Y-111189178D01*
X174003165Y-111189374D01*
G37*
G36*
X175019990Y-111190804D02*
G01*
X175027291Y-111264934D01*
X175048859Y-111336033D01*
X175083881Y-111401556D01*
X175131013Y-111458987D01*
X175188444Y-111506119D01*
X175253967Y-111541141D01*
X175325066Y-111562709D01*
X175399196Y-111570010D01*
X175400822Y-111571175D01*
X175400626Y-111573165D01*
X175399000Y-111574000D01*
X175342641Y-111574000D01*
X175342445Y-111573990D01*
X175274286Y-111567277D01*
X175273901Y-111567201D01*
X175214266Y-111549111D01*
X175213904Y-111548961D01*
X175158943Y-111519584D01*
X175158617Y-111519366D01*
X175110445Y-111479832D01*
X175110168Y-111479555D01*
X175070634Y-111431383D01*
X175070416Y-111431057D01*
X175041039Y-111376096D01*
X175040889Y-111375734D01*
X175022799Y-111316099D01*
X175022723Y-111315714D01*
X175016010Y-111247555D01*
X175016000Y-111247359D01*
X175016000Y-111191000D01*
X175017000Y-111189268D01*
X175019000Y-111189268D01*
X175019990Y-111190804D01*
G37*
G36*
X176543165Y-111189374D02*
G01*
X176544000Y-111191000D01*
X176544000Y-111247359D01*
X176543990Y-111247555D01*
X176537277Y-111315714D01*
X176537201Y-111316099D01*
X176519111Y-111375734D01*
X176518961Y-111376096D01*
X176489584Y-111431057D01*
X176489366Y-111431383D01*
X176449832Y-111479555D01*
X176449555Y-111479832D01*
X176401383Y-111519366D01*
X176401057Y-111519584D01*
X176346096Y-111548961D01*
X176345734Y-111549111D01*
X176286099Y-111567201D01*
X176285714Y-111567277D01*
X176217555Y-111573990D01*
X176217359Y-111574000D01*
X176161000Y-111574000D01*
X176159268Y-111573000D01*
X176159268Y-111571000D01*
X176160804Y-111570010D01*
X176234934Y-111562709D01*
X176306033Y-111541141D01*
X176371556Y-111506119D01*
X176428987Y-111458987D01*
X176476119Y-111401556D01*
X176511141Y-111336033D01*
X176532709Y-111264934D01*
X176540010Y-111190804D01*
X176541175Y-111189178D01*
X176543165Y-111189374D01*
G37*
G36*
X172479990Y-111190804D02*
G01*
X172487291Y-111264934D01*
X172508859Y-111336033D01*
X172543881Y-111401556D01*
X172591013Y-111458987D01*
X172648444Y-111506119D01*
X172713967Y-111541141D01*
X172785066Y-111562709D01*
X172859196Y-111570010D01*
X172860822Y-111571175D01*
X172860626Y-111573165D01*
X172859000Y-111574000D01*
X172802641Y-111574000D01*
X172802445Y-111573990D01*
X172734286Y-111567277D01*
X172733901Y-111567201D01*
X172674266Y-111549111D01*
X172673904Y-111548961D01*
X172618943Y-111519584D01*
X172618617Y-111519366D01*
X172570445Y-111479832D01*
X172570168Y-111479555D01*
X172530634Y-111431383D01*
X172530416Y-111431057D01*
X172501039Y-111376096D01*
X172500889Y-111375734D01*
X172482799Y-111316099D01*
X172482723Y-111315714D01*
X172476010Y-111247555D01*
X172476000Y-111247359D01*
X172476000Y-111191000D01*
X172477000Y-111189268D01*
X172479000Y-111189268D01*
X172479990Y-111190804D01*
G37*
G36*
X175400732Y-110047000D02*
G01*
X175400732Y-110049000D01*
X175399196Y-110049990D01*
X175325066Y-110057291D01*
X175253967Y-110078859D01*
X175188444Y-110113881D01*
X175131013Y-110161013D01*
X175083881Y-110218444D01*
X175048859Y-110283967D01*
X175027291Y-110355066D01*
X175019990Y-110429196D01*
X175018825Y-110430822D01*
X175016835Y-110430626D01*
X175016000Y-110429000D01*
X175016000Y-110372641D01*
X175016010Y-110372445D01*
X175022723Y-110304286D01*
X175022799Y-110303901D01*
X175040889Y-110244266D01*
X175041039Y-110243904D01*
X175070416Y-110188943D01*
X175070634Y-110188617D01*
X175110168Y-110140445D01*
X175110445Y-110140168D01*
X175158617Y-110100634D01*
X175158943Y-110100416D01*
X175213904Y-110071039D01*
X175214266Y-110070889D01*
X175273901Y-110052799D01*
X175274286Y-110052723D01*
X175342445Y-110046010D01*
X175342641Y-110046000D01*
X175399000Y-110046000D01*
X175400732Y-110047000D01*
G37*
G36*
X172860732Y-110047000D02*
G01*
X172860732Y-110049000D01*
X172859196Y-110049990D01*
X172785066Y-110057291D01*
X172713967Y-110078859D01*
X172648444Y-110113881D01*
X172591013Y-110161013D01*
X172543881Y-110218444D01*
X172508859Y-110283967D01*
X172487291Y-110355066D01*
X172479990Y-110429196D01*
X172478825Y-110430822D01*
X172476835Y-110430626D01*
X172476000Y-110429000D01*
X172476000Y-110372641D01*
X172476010Y-110372445D01*
X172482723Y-110304286D01*
X172482799Y-110303901D01*
X172500889Y-110244266D01*
X172501039Y-110243904D01*
X172530416Y-110188943D01*
X172530634Y-110188617D01*
X172570168Y-110140445D01*
X172570445Y-110140168D01*
X172618617Y-110100634D01*
X172618943Y-110100416D01*
X172673904Y-110071039D01*
X172674266Y-110070889D01*
X172733901Y-110052799D01*
X172734286Y-110052723D01*
X172802445Y-110046010D01*
X172802641Y-110046000D01*
X172859000Y-110046000D01*
X172860732Y-110047000D01*
G37*
G36*
X176217555Y-110046010D02*
G01*
X176285714Y-110052723D01*
X176286099Y-110052799D01*
X176345734Y-110070889D01*
X176346096Y-110071039D01*
X176401057Y-110100416D01*
X176401383Y-110100634D01*
X176449555Y-110140168D01*
X176449832Y-110140445D01*
X176489366Y-110188617D01*
X176489584Y-110188943D01*
X176518961Y-110243904D01*
X176519111Y-110244266D01*
X176537201Y-110303901D01*
X176537277Y-110304286D01*
X176543990Y-110372445D01*
X176544000Y-110372641D01*
X176544000Y-110429000D01*
X176543000Y-110430732D01*
X176541000Y-110430732D01*
X176540010Y-110429196D01*
X176532709Y-110355066D01*
X176511141Y-110283967D01*
X176476119Y-110218444D01*
X176428987Y-110161013D01*
X176371556Y-110113881D01*
X176306033Y-110078859D01*
X176234934Y-110057291D01*
X176160804Y-110049990D01*
X176159178Y-110048825D01*
X176159374Y-110046835D01*
X176161000Y-110046000D01*
X176217359Y-110046000D01*
X176217555Y-110046010D01*
G37*
G36*
X173677555Y-110046010D02*
G01*
X173745714Y-110052723D01*
X173746099Y-110052799D01*
X173805734Y-110070889D01*
X173806096Y-110071039D01*
X173861057Y-110100416D01*
X173861383Y-110100634D01*
X173909555Y-110140168D01*
X173909832Y-110140445D01*
X173949366Y-110188617D01*
X173949584Y-110188943D01*
X173978961Y-110243904D01*
X173979111Y-110244266D01*
X173997201Y-110303901D01*
X173997277Y-110304286D01*
X174003990Y-110372445D01*
X174004000Y-110372641D01*
X174004000Y-110429000D01*
X174003000Y-110430732D01*
X174001000Y-110430732D01*
X174000010Y-110429196D01*
X173992709Y-110355066D01*
X173971141Y-110283967D01*
X173936119Y-110218444D01*
X173888987Y-110161013D01*
X173831556Y-110113881D01*
X173766033Y-110078859D01*
X173694934Y-110057291D01*
X173620804Y-110049990D01*
X173619178Y-110048825D01*
X173619374Y-110046835D01*
X173621000Y-110046000D01*
X173677359Y-110046000D01*
X173677555Y-110046010D01*
G37*
G36*
X126701165Y-108478374D02*
G01*
X126702000Y-108480000D01*
X126702000Y-108536360D01*
X126701990Y-108536556D01*
X126694912Y-108608419D01*
X126694836Y-108608804D01*
X126675664Y-108672004D01*
X126675514Y-108672366D01*
X126644380Y-108730615D01*
X126644162Y-108730941D01*
X126602267Y-108781990D01*
X126601990Y-108782267D01*
X126550941Y-108824162D01*
X126550615Y-108824380D01*
X126492366Y-108855514D01*
X126492004Y-108855664D01*
X126428804Y-108874836D01*
X126428419Y-108874912D01*
X126356556Y-108881990D01*
X126356360Y-108882000D01*
X126300000Y-108882000D01*
X126298268Y-108881000D01*
X126298268Y-108879000D01*
X126299804Y-108878010D01*
X126377641Y-108870344D01*
X126452304Y-108847695D01*
X126521112Y-108810917D01*
X126581422Y-108761422D01*
X126630917Y-108701112D01*
X126667695Y-108632304D01*
X126690344Y-108557641D01*
X126698010Y-108479804D01*
X126699175Y-108478178D01*
X126701165Y-108478374D01*
G37*
G36*
X125101990Y-108479804D02*
G01*
X125109656Y-108557641D01*
X125132305Y-108632304D01*
X125169083Y-108701112D01*
X125218578Y-108761422D01*
X125278888Y-108810917D01*
X125347696Y-108847695D01*
X125422359Y-108870344D01*
X125500196Y-108878010D01*
X125501822Y-108879175D01*
X125501626Y-108881165D01*
X125500000Y-108882000D01*
X125443640Y-108882000D01*
X125443444Y-108881990D01*
X125371581Y-108874912D01*
X125371196Y-108874836D01*
X125307996Y-108855664D01*
X125307634Y-108855514D01*
X125249385Y-108824380D01*
X125249059Y-108824162D01*
X125198010Y-108782267D01*
X125197733Y-108781990D01*
X125155838Y-108730941D01*
X125155620Y-108730615D01*
X125124486Y-108672366D01*
X125124336Y-108672004D01*
X125105164Y-108608804D01*
X125105088Y-108608419D01*
X125098010Y-108536556D01*
X125098000Y-108536360D01*
X125098000Y-108480000D01*
X125099000Y-108478268D01*
X125101000Y-108478268D01*
X125101990Y-108479804D01*
G37*
G36*
X125501732Y-107279000D02*
G01*
X125501732Y-107281000D01*
X125500196Y-107281990D01*
X125422359Y-107289656D01*
X125347696Y-107312305D01*
X125278888Y-107349083D01*
X125218578Y-107398578D01*
X125169083Y-107458888D01*
X125132305Y-107527696D01*
X125109656Y-107602359D01*
X125101990Y-107680196D01*
X125100825Y-107681822D01*
X125098835Y-107681626D01*
X125098000Y-107680000D01*
X125098000Y-107623640D01*
X125098010Y-107623444D01*
X125105088Y-107551581D01*
X125105164Y-107551196D01*
X125124336Y-107487996D01*
X125124486Y-107487634D01*
X125155620Y-107429385D01*
X125155838Y-107429059D01*
X125197733Y-107378010D01*
X125198010Y-107377733D01*
X125249059Y-107335838D01*
X125249385Y-107335620D01*
X125307634Y-107304486D01*
X125307996Y-107304336D01*
X125371196Y-107285164D01*
X125371581Y-107285088D01*
X125443444Y-107278010D01*
X125443640Y-107278000D01*
X125500000Y-107278000D01*
X125501732Y-107279000D01*
G37*
G36*
X126356556Y-107278010D02*
G01*
X126428419Y-107285088D01*
X126428804Y-107285164D01*
X126492004Y-107304336D01*
X126492366Y-107304486D01*
X126550615Y-107335620D01*
X126550941Y-107335838D01*
X126601990Y-107377733D01*
X126602267Y-107378010D01*
X126644162Y-107429059D01*
X126644380Y-107429385D01*
X126675514Y-107487634D01*
X126675664Y-107487996D01*
X126694836Y-107551196D01*
X126694912Y-107551581D01*
X126701990Y-107623444D01*
X126702000Y-107623640D01*
X126702000Y-107680000D01*
X126701000Y-107681732D01*
X126699000Y-107681732D01*
X126698010Y-107680196D01*
X126690344Y-107602359D01*
X126667695Y-107527696D01*
X126630917Y-107458888D01*
X126581422Y-107398578D01*
X126521112Y-107349083D01*
X126452304Y-107312305D01*
X126377641Y-107289656D01*
X126299804Y-107281990D01*
X126298178Y-107280825D01*
X126298374Y-107278835D01*
X126300000Y-107278000D01*
X126356360Y-107278000D01*
X126356556Y-107278010D01*
G37*
G36*
X87001990Y-104299804D02*
G01*
X87009656Y-104377641D01*
X87032305Y-104452304D01*
X87069083Y-104521112D01*
X87118578Y-104581422D01*
X87178888Y-104630917D01*
X87247696Y-104667695D01*
X87322359Y-104690344D01*
X87400196Y-104698010D01*
X87401822Y-104699175D01*
X87401626Y-104701165D01*
X87400000Y-104702000D01*
X87343640Y-104702000D01*
X87343444Y-104701990D01*
X87271581Y-104694912D01*
X87271196Y-104694836D01*
X87207996Y-104675664D01*
X87207634Y-104675514D01*
X87149385Y-104644380D01*
X87149059Y-104644162D01*
X87098010Y-104602267D01*
X87097733Y-104601990D01*
X87055838Y-104550941D01*
X87055620Y-104550615D01*
X87024486Y-104492366D01*
X87024336Y-104492004D01*
X87005164Y-104428804D01*
X87005088Y-104428419D01*
X86998010Y-104356556D01*
X86998000Y-104356360D01*
X86998000Y-104300000D01*
X86999000Y-104298268D01*
X87001000Y-104298268D01*
X87001990Y-104299804D01*
G37*
G36*
X84461990Y-104299804D02*
G01*
X84469656Y-104377641D01*
X84492305Y-104452304D01*
X84529083Y-104521112D01*
X84578578Y-104581422D01*
X84638888Y-104630917D01*
X84707696Y-104667695D01*
X84782359Y-104690344D01*
X84860196Y-104698010D01*
X84861822Y-104699175D01*
X84861626Y-104701165D01*
X84860000Y-104702000D01*
X84803640Y-104702000D01*
X84803444Y-104701990D01*
X84731581Y-104694912D01*
X84731196Y-104694836D01*
X84667996Y-104675664D01*
X84667634Y-104675514D01*
X84609385Y-104644380D01*
X84609059Y-104644162D01*
X84558010Y-104602267D01*
X84557733Y-104601990D01*
X84515838Y-104550941D01*
X84515620Y-104550615D01*
X84484486Y-104492366D01*
X84484336Y-104492004D01*
X84465164Y-104428804D01*
X84465088Y-104428419D01*
X84458010Y-104356556D01*
X84458000Y-104356360D01*
X84458000Y-104300000D01*
X84459000Y-104298268D01*
X84461000Y-104298268D01*
X84461990Y-104299804D01*
G37*
G36*
X88601165Y-104298374D02*
G01*
X88602000Y-104300000D01*
X88602000Y-104356360D01*
X88601990Y-104356556D01*
X88594912Y-104428419D01*
X88594836Y-104428804D01*
X88575664Y-104492004D01*
X88575514Y-104492366D01*
X88544380Y-104550615D01*
X88544162Y-104550941D01*
X88502267Y-104601990D01*
X88501990Y-104602267D01*
X88450941Y-104644162D01*
X88450615Y-104644380D01*
X88392366Y-104675514D01*
X88392004Y-104675664D01*
X88328804Y-104694836D01*
X88328419Y-104694912D01*
X88256556Y-104701990D01*
X88256360Y-104702000D01*
X88200000Y-104702000D01*
X88198268Y-104701000D01*
X88198268Y-104699000D01*
X88199804Y-104698010D01*
X88277641Y-104690344D01*
X88352304Y-104667695D01*
X88421112Y-104630917D01*
X88481422Y-104581422D01*
X88530917Y-104521112D01*
X88567695Y-104452304D01*
X88590344Y-104377641D01*
X88598010Y-104299804D01*
X88599175Y-104298178D01*
X88601165Y-104298374D01*
G37*
G36*
X96221165Y-104298374D02*
G01*
X96222000Y-104300000D01*
X96222000Y-104356360D01*
X96221990Y-104356556D01*
X96214912Y-104428419D01*
X96214836Y-104428804D01*
X96195664Y-104492004D01*
X96195514Y-104492366D01*
X96164380Y-104550615D01*
X96164162Y-104550941D01*
X96122267Y-104601990D01*
X96121990Y-104602267D01*
X96070941Y-104644162D01*
X96070615Y-104644380D01*
X96012366Y-104675514D01*
X96012004Y-104675664D01*
X95948804Y-104694836D01*
X95948419Y-104694912D01*
X95876556Y-104701990D01*
X95876360Y-104702000D01*
X95820000Y-104702000D01*
X95818268Y-104701000D01*
X95818268Y-104699000D01*
X95819804Y-104698010D01*
X95897641Y-104690344D01*
X95972304Y-104667695D01*
X96041112Y-104630917D01*
X96101422Y-104581422D01*
X96150917Y-104521112D01*
X96187695Y-104452304D01*
X96210344Y-104377641D01*
X96218010Y-104299804D01*
X96219175Y-104298178D01*
X96221165Y-104298374D01*
G37*
G36*
X94621990Y-104299804D02*
G01*
X94629656Y-104377641D01*
X94652305Y-104452304D01*
X94689083Y-104521112D01*
X94738578Y-104581422D01*
X94798888Y-104630917D01*
X94867696Y-104667695D01*
X94942359Y-104690344D01*
X95020196Y-104698010D01*
X95021822Y-104699175D01*
X95021626Y-104701165D01*
X95020000Y-104702000D01*
X94963640Y-104702000D01*
X94963444Y-104701990D01*
X94891581Y-104694912D01*
X94891196Y-104694836D01*
X94827996Y-104675664D01*
X94827634Y-104675514D01*
X94769385Y-104644380D01*
X94769059Y-104644162D01*
X94718010Y-104602267D01*
X94717733Y-104601990D01*
X94675838Y-104550941D01*
X94675620Y-104550615D01*
X94644486Y-104492366D01*
X94644336Y-104492004D01*
X94625164Y-104428804D01*
X94625088Y-104428419D01*
X94618010Y-104356556D01*
X94618000Y-104356360D01*
X94618000Y-104300000D01*
X94619000Y-104298268D01*
X94621000Y-104298268D01*
X94621990Y-104299804D01*
G37*
G36*
X86061165Y-104298374D02*
G01*
X86062000Y-104300000D01*
X86062000Y-104356360D01*
X86061990Y-104356556D01*
X86054912Y-104428419D01*
X86054836Y-104428804D01*
X86035664Y-104492004D01*
X86035514Y-104492366D01*
X86004380Y-104550615D01*
X86004162Y-104550941D01*
X85962267Y-104601990D01*
X85961990Y-104602267D01*
X85910941Y-104644162D01*
X85910615Y-104644380D01*
X85852366Y-104675514D01*
X85852004Y-104675664D01*
X85788804Y-104694836D01*
X85788419Y-104694912D01*
X85716556Y-104701990D01*
X85716360Y-104702000D01*
X85660000Y-104702000D01*
X85658268Y-104701000D01*
X85658268Y-104699000D01*
X85659804Y-104698010D01*
X85737641Y-104690344D01*
X85812304Y-104667695D01*
X85881112Y-104630917D01*
X85941422Y-104581422D01*
X85990917Y-104521112D01*
X86027695Y-104452304D01*
X86050344Y-104377641D01*
X86058010Y-104299804D01*
X86059175Y-104298178D01*
X86061165Y-104298374D01*
G37*
G36*
X87401732Y-103099000D02*
G01*
X87401732Y-103101000D01*
X87400196Y-103101990D01*
X87322359Y-103109656D01*
X87247696Y-103132305D01*
X87178888Y-103169083D01*
X87118578Y-103218578D01*
X87069083Y-103278888D01*
X87032305Y-103347696D01*
X87009656Y-103422359D01*
X87001990Y-103500196D01*
X87000825Y-103501822D01*
X86998835Y-103501626D01*
X86998000Y-103500000D01*
X86998000Y-103443640D01*
X86998010Y-103443444D01*
X87005088Y-103371581D01*
X87005164Y-103371196D01*
X87024336Y-103307996D01*
X87024486Y-103307634D01*
X87055620Y-103249385D01*
X87055838Y-103249059D01*
X87097733Y-103198010D01*
X87098010Y-103197733D01*
X87149059Y-103155838D01*
X87149385Y-103155620D01*
X87207634Y-103124486D01*
X87207996Y-103124336D01*
X87271196Y-103105164D01*
X87271581Y-103105088D01*
X87343444Y-103098010D01*
X87343640Y-103098000D01*
X87400000Y-103098000D01*
X87401732Y-103099000D01*
G37*
G36*
X84861732Y-103099000D02*
G01*
X84861732Y-103101000D01*
X84860196Y-103101990D01*
X84782359Y-103109656D01*
X84707696Y-103132305D01*
X84638888Y-103169083D01*
X84578578Y-103218578D01*
X84529083Y-103278888D01*
X84492305Y-103347696D01*
X84469656Y-103422359D01*
X84461990Y-103500196D01*
X84460825Y-103501822D01*
X84458835Y-103501626D01*
X84458000Y-103500000D01*
X84458000Y-103443640D01*
X84458010Y-103443444D01*
X84465088Y-103371581D01*
X84465164Y-103371196D01*
X84484336Y-103307996D01*
X84484486Y-103307634D01*
X84515620Y-103249385D01*
X84515838Y-103249059D01*
X84557733Y-103198010D01*
X84558010Y-103197733D01*
X84609059Y-103155838D01*
X84609385Y-103155620D01*
X84667634Y-103124486D01*
X84667996Y-103124336D01*
X84731196Y-103105164D01*
X84731581Y-103105088D01*
X84803444Y-103098010D01*
X84803640Y-103098000D01*
X84860000Y-103098000D01*
X84861732Y-103099000D01*
G37*
G36*
X95021732Y-103099000D02*
G01*
X95021732Y-103101000D01*
X95020196Y-103101990D01*
X94942359Y-103109656D01*
X94867696Y-103132305D01*
X94798888Y-103169083D01*
X94738578Y-103218578D01*
X94689083Y-103278888D01*
X94652305Y-103347696D01*
X94629656Y-103422359D01*
X94621990Y-103500196D01*
X94620825Y-103501822D01*
X94618835Y-103501626D01*
X94618000Y-103500000D01*
X94618000Y-103443640D01*
X94618010Y-103443444D01*
X94625088Y-103371581D01*
X94625164Y-103371196D01*
X94644336Y-103307996D01*
X94644486Y-103307634D01*
X94675620Y-103249385D01*
X94675838Y-103249059D01*
X94717733Y-103198010D01*
X94718010Y-103197733D01*
X94769059Y-103155838D01*
X94769385Y-103155620D01*
X94827634Y-103124486D01*
X94827996Y-103124336D01*
X94891196Y-103105164D01*
X94891581Y-103105088D01*
X94963444Y-103098010D01*
X94963640Y-103098000D01*
X95020000Y-103098000D01*
X95021732Y-103099000D01*
G37*
G36*
X85716556Y-103098010D02*
G01*
X85788419Y-103105088D01*
X85788804Y-103105164D01*
X85852004Y-103124336D01*
X85852366Y-103124486D01*
X85910615Y-103155620D01*
X85910941Y-103155838D01*
X85961990Y-103197733D01*
X85962267Y-103198010D01*
X86004162Y-103249059D01*
X86004380Y-103249385D01*
X86035514Y-103307634D01*
X86035664Y-103307996D01*
X86054836Y-103371196D01*
X86054912Y-103371581D01*
X86061990Y-103443444D01*
X86062000Y-103443640D01*
X86062000Y-103500000D01*
X86061000Y-103501732D01*
X86059000Y-103501732D01*
X86058010Y-103500196D01*
X86050344Y-103422359D01*
X86027695Y-103347696D01*
X85990917Y-103278888D01*
X85941422Y-103218578D01*
X85881112Y-103169083D01*
X85812304Y-103132305D01*
X85737641Y-103109656D01*
X85659804Y-103101990D01*
X85658178Y-103100825D01*
X85658374Y-103098835D01*
X85660000Y-103098000D01*
X85716360Y-103098000D01*
X85716556Y-103098010D01*
G37*
G36*
X95876556Y-103098010D02*
G01*
X95948419Y-103105088D01*
X95948804Y-103105164D01*
X96012004Y-103124336D01*
X96012366Y-103124486D01*
X96070615Y-103155620D01*
X96070941Y-103155838D01*
X96121990Y-103197733D01*
X96122267Y-103198010D01*
X96164162Y-103249059D01*
X96164380Y-103249385D01*
X96195514Y-103307634D01*
X96195664Y-103307996D01*
X96214836Y-103371196D01*
X96214912Y-103371581D01*
X96221990Y-103443444D01*
X96222000Y-103443640D01*
X96222000Y-103500000D01*
X96221000Y-103501732D01*
X96219000Y-103501732D01*
X96218010Y-103500196D01*
X96210344Y-103422359D01*
X96187695Y-103347696D01*
X96150917Y-103278888D01*
X96101422Y-103218578D01*
X96041112Y-103169083D01*
X95972304Y-103132305D01*
X95897641Y-103109656D01*
X95819804Y-103101990D01*
X95818178Y-103100825D01*
X95818374Y-103098835D01*
X95820000Y-103098000D01*
X95876360Y-103098000D01*
X95876556Y-103098010D01*
G37*
G36*
X88256556Y-103098010D02*
G01*
X88328419Y-103105088D01*
X88328804Y-103105164D01*
X88392004Y-103124336D01*
X88392366Y-103124486D01*
X88450615Y-103155620D01*
X88450941Y-103155838D01*
X88501990Y-103197733D01*
X88502267Y-103198010D01*
X88544162Y-103249059D01*
X88544380Y-103249385D01*
X88575514Y-103307634D01*
X88575664Y-103307996D01*
X88594836Y-103371196D01*
X88594912Y-103371581D01*
X88601990Y-103443444D01*
X88602000Y-103443640D01*
X88602000Y-103500000D01*
X88601000Y-103501732D01*
X88599000Y-103501732D01*
X88598010Y-103500196D01*
X88590344Y-103422359D01*
X88567695Y-103347696D01*
X88530917Y-103278888D01*
X88481422Y-103218578D01*
X88421112Y-103169083D01*
X88352304Y-103132305D01*
X88277641Y-103109656D01*
X88199804Y-103101990D01*
X88198178Y-103100825D01*
X88198374Y-103098835D01*
X88200000Y-103098000D01*
X88256360Y-103098000D01*
X88256556Y-103098010D01*
G37*
G36*
X79551165Y-55398374D02*
G01*
X79552000Y-55400000D01*
X79552000Y-55456360D01*
X79551990Y-55456556D01*
X79540109Y-55577195D01*
X79540033Y-55577580D01*
X79506635Y-55687676D01*
X79506485Y-55688038D01*
X79452250Y-55789503D01*
X79452032Y-55789829D01*
X79379044Y-55878767D01*
X79378767Y-55879044D01*
X79289829Y-55952032D01*
X79289503Y-55952250D01*
X79188038Y-56006485D01*
X79187676Y-56006635D01*
X79077580Y-56040033D01*
X79077195Y-56040109D01*
X78956556Y-56051990D01*
X78956360Y-56052000D01*
X78900000Y-56052000D01*
X78898268Y-56051000D01*
X78898268Y-56049000D01*
X78899804Y-56048010D01*
X79026414Y-56035540D01*
X79147975Y-55998665D01*
X79260005Y-55938784D01*
X79358198Y-55858198D01*
X79438784Y-55760005D01*
X79498665Y-55647975D01*
X79535540Y-55526414D01*
X79548010Y-55399804D01*
X79549175Y-55398178D01*
X79551165Y-55398374D01*
G37*
G36*
X61951990Y-55399804D02*
G01*
X61964460Y-55526414D01*
X62001335Y-55647975D01*
X62061216Y-55760005D01*
X62141802Y-55858198D01*
X62239995Y-55938784D01*
X62352025Y-55998665D01*
X62473586Y-56035540D01*
X62600196Y-56048010D01*
X62601822Y-56049175D01*
X62601626Y-56051165D01*
X62600000Y-56052000D01*
X62543640Y-56052000D01*
X62543444Y-56051990D01*
X62422805Y-56040109D01*
X62422420Y-56040033D01*
X62312324Y-56006635D01*
X62311962Y-56006485D01*
X62210497Y-55952250D01*
X62210171Y-55952032D01*
X62121233Y-55879044D01*
X62120956Y-55878767D01*
X62047968Y-55789829D01*
X62047750Y-55789503D01*
X61993515Y-55688038D01*
X61993365Y-55687676D01*
X61959967Y-55577580D01*
X61959891Y-55577195D01*
X61948010Y-55456556D01*
X61948000Y-55456360D01*
X61948000Y-55400000D01*
X61949000Y-55398268D01*
X61951000Y-55398268D01*
X61951990Y-55399804D01*
G37*
G36*
X119551165Y-55398374D02*
G01*
X119552000Y-55400000D01*
X119552000Y-55456360D01*
X119551990Y-55456556D01*
X119540109Y-55577195D01*
X119540033Y-55577580D01*
X119506635Y-55687676D01*
X119506485Y-55688038D01*
X119452250Y-55789503D01*
X119452032Y-55789829D01*
X119379044Y-55878767D01*
X119378767Y-55879044D01*
X119289829Y-55952032D01*
X119289503Y-55952250D01*
X119188038Y-56006485D01*
X119187676Y-56006635D01*
X119077580Y-56040033D01*
X119077195Y-56040109D01*
X118956556Y-56051990D01*
X118956360Y-56052000D01*
X118900000Y-56052000D01*
X118898268Y-56051000D01*
X118898268Y-56049000D01*
X118899804Y-56048010D01*
X119026414Y-56035540D01*
X119147975Y-55998665D01*
X119260005Y-55938784D01*
X119358198Y-55858198D01*
X119438784Y-55760005D01*
X119498665Y-55647975D01*
X119535540Y-55526414D01*
X119548010Y-55399804D01*
X119549175Y-55398178D01*
X119551165Y-55398374D01*
G37*
G36*
X106951990Y-55399804D02*
G01*
X106964460Y-55526414D01*
X107001335Y-55647975D01*
X107061216Y-55760005D01*
X107141802Y-55858198D01*
X107239995Y-55938784D01*
X107352025Y-55998665D01*
X107473586Y-56035540D01*
X107600196Y-56048010D01*
X107601822Y-56049175D01*
X107601626Y-56051165D01*
X107600000Y-56052000D01*
X107543640Y-56052000D01*
X107543444Y-56051990D01*
X107422805Y-56040109D01*
X107422420Y-56040033D01*
X107312324Y-56006635D01*
X107311962Y-56006485D01*
X107210497Y-55952250D01*
X107210171Y-55952032D01*
X107121233Y-55879044D01*
X107120956Y-55878767D01*
X107047968Y-55789829D01*
X107047750Y-55789503D01*
X106993515Y-55688038D01*
X106993365Y-55687676D01*
X106959967Y-55577580D01*
X106959891Y-55577195D01*
X106948010Y-55456556D01*
X106948000Y-55456360D01*
X106948000Y-55400000D01*
X106949000Y-55398268D01*
X106951000Y-55398268D01*
X106951990Y-55399804D01*
G37*
G36*
X89551165Y-55398374D02*
G01*
X89552000Y-55400000D01*
X89552000Y-55456360D01*
X89551990Y-55456556D01*
X89540109Y-55577195D01*
X89540033Y-55577580D01*
X89506635Y-55687676D01*
X89506485Y-55688038D01*
X89452250Y-55789503D01*
X89452032Y-55789829D01*
X89379044Y-55878767D01*
X89378767Y-55879044D01*
X89289829Y-55952032D01*
X89289503Y-55952250D01*
X89188038Y-56006485D01*
X89187676Y-56006635D01*
X89077580Y-56040033D01*
X89077195Y-56040109D01*
X88956556Y-56051990D01*
X88956360Y-56052000D01*
X88900000Y-56052000D01*
X88898268Y-56051000D01*
X88898268Y-56049000D01*
X88899804Y-56048010D01*
X89026414Y-56035540D01*
X89147975Y-55998665D01*
X89260005Y-55938784D01*
X89358198Y-55858198D01*
X89438784Y-55760005D01*
X89498665Y-55647975D01*
X89535540Y-55526414D01*
X89548010Y-55399804D01*
X89549175Y-55398178D01*
X89551165Y-55398374D01*
G37*
G36*
X94551165Y-55398374D02*
G01*
X94552000Y-55400000D01*
X94552000Y-55456360D01*
X94551990Y-55456556D01*
X94540109Y-55577195D01*
X94540033Y-55577580D01*
X94506635Y-55687676D01*
X94506485Y-55688038D01*
X94452250Y-55789503D01*
X94452032Y-55789829D01*
X94379044Y-55878767D01*
X94378767Y-55879044D01*
X94289829Y-55952032D01*
X94289503Y-55952250D01*
X94188038Y-56006485D01*
X94187676Y-56006635D01*
X94077580Y-56040033D01*
X94077195Y-56040109D01*
X93956556Y-56051990D01*
X93956360Y-56052000D01*
X93900000Y-56052000D01*
X93898268Y-56051000D01*
X93898268Y-56049000D01*
X93899804Y-56048010D01*
X94026414Y-56035540D01*
X94147975Y-55998665D01*
X94260005Y-55938784D01*
X94358198Y-55858198D01*
X94438784Y-55760005D01*
X94498665Y-55647975D01*
X94535540Y-55526414D01*
X94548010Y-55399804D01*
X94549175Y-55398178D01*
X94551165Y-55398374D01*
G37*
G36*
X69551165Y-55398374D02*
G01*
X69552000Y-55400000D01*
X69552000Y-55456360D01*
X69551990Y-55456556D01*
X69540109Y-55577195D01*
X69540033Y-55577580D01*
X69506635Y-55687676D01*
X69506485Y-55688038D01*
X69452250Y-55789503D01*
X69452032Y-55789829D01*
X69379044Y-55878767D01*
X69378767Y-55879044D01*
X69289829Y-55952032D01*
X69289503Y-55952250D01*
X69188038Y-56006485D01*
X69187676Y-56006635D01*
X69077580Y-56040033D01*
X69077195Y-56040109D01*
X68956556Y-56051990D01*
X68956360Y-56052000D01*
X68900000Y-56052000D01*
X68898268Y-56051000D01*
X68898268Y-56049000D01*
X68899804Y-56048010D01*
X69026414Y-56035540D01*
X69147975Y-55998665D01*
X69260005Y-55938784D01*
X69358198Y-55858198D01*
X69438784Y-55760005D01*
X69498665Y-55647975D01*
X69535540Y-55526414D01*
X69548010Y-55399804D01*
X69549175Y-55398178D01*
X69551165Y-55398374D01*
G37*
G36*
X64551165Y-55398374D02*
G01*
X64552000Y-55400000D01*
X64552000Y-55456360D01*
X64551990Y-55456556D01*
X64540109Y-55577195D01*
X64540033Y-55577580D01*
X64506635Y-55687676D01*
X64506485Y-55688038D01*
X64452250Y-55789503D01*
X64452032Y-55789829D01*
X64379044Y-55878767D01*
X64378767Y-55879044D01*
X64289829Y-55952032D01*
X64289503Y-55952250D01*
X64188038Y-56006485D01*
X64187676Y-56006635D01*
X64077580Y-56040033D01*
X64077195Y-56040109D01*
X63956556Y-56051990D01*
X63956360Y-56052000D01*
X63900000Y-56052000D01*
X63898268Y-56051000D01*
X63898268Y-56049000D01*
X63899804Y-56048010D01*
X64026414Y-56035540D01*
X64147975Y-55998665D01*
X64260005Y-55938784D01*
X64358198Y-55858198D01*
X64438784Y-55760005D01*
X64498665Y-55647975D01*
X64535540Y-55526414D01*
X64548010Y-55399804D01*
X64549175Y-55398178D01*
X64551165Y-55398374D01*
G37*
G36*
X84551165Y-55398374D02*
G01*
X84552000Y-55400000D01*
X84552000Y-55456360D01*
X84551990Y-55456556D01*
X84540109Y-55577195D01*
X84540033Y-55577580D01*
X84506635Y-55687676D01*
X84506485Y-55688038D01*
X84452250Y-55789503D01*
X84452032Y-55789829D01*
X84379044Y-55878767D01*
X84378767Y-55879044D01*
X84289829Y-55952032D01*
X84289503Y-55952250D01*
X84188038Y-56006485D01*
X84187676Y-56006635D01*
X84077580Y-56040033D01*
X84077195Y-56040109D01*
X83956556Y-56051990D01*
X83956360Y-56052000D01*
X83900000Y-56052000D01*
X83898268Y-56051000D01*
X83898268Y-56049000D01*
X83899804Y-56048010D01*
X84026414Y-56035540D01*
X84147975Y-55998665D01*
X84260005Y-55938784D01*
X84358198Y-55858198D01*
X84438784Y-55760005D01*
X84498665Y-55647975D01*
X84535540Y-55526414D01*
X84548010Y-55399804D01*
X84549175Y-55398178D01*
X84551165Y-55398374D01*
G37*
G36*
X91951990Y-55399804D02*
G01*
X91964460Y-55526414D01*
X92001335Y-55647975D01*
X92061216Y-55760005D01*
X92141802Y-55858198D01*
X92239995Y-55938784D01*
X92352025Y-55998665D01*
X92473586Y-56035540D01*
X92600196Y-56048010D01*
X92601822Y-56049175D01*
X92601626Y-56051165D01*
X92600000Y-56052000D01*
X92543640Y-56052000D01*
X92543444Y-56051990D01*
X92422805Y-56040109D01*
X92422420Y-56040033D01*
X92312324Y-56006635D01*
X92311962Y-56006485D01*
X92210497Y-55952250D01*
X92210171Y-55952032D01*
X92121233Y-55879044D01*
X92120956Y-55878767D01*
X92047968Y-55789829D01*
X92047750Y-55789503D01*
X91993515Y-55688038D01*
X91993365Y-55687676D01*
X91959967Y-55577580D01*
X91959891Y-55577195D01*
X91948010Y-55456556D01*
X91948000Y-55456360D01*
X91948000Y-55400000D01*
X91949000Y-55398268D01*
X91951000Y-55398268D01*
X91951990Y-55399804D01*
G37*
G36*
X76951990Y-55399804D02*
G01*
X76964460Y-55526414D01*
X77001335Y-55647975D01*
X77061216Y-55760005D01*
X77141802Y-55858198D01*
X77239995Y-55938784D01*
X77352025Y-55998665D01*
X77473586Y-56035540D01*
X77600196Y-56048010D01*
X77601822Y-56049175D01*
X77601626Y-56051165D01*
X77600000Y-56052000D01*
X77543640Y-56052000D01*
X77543444Y-56051990D01*
X77422805Y-56040109D01*
X77422420Y-56040033D01*
X77312324Y-56006635D01*
X77311962Y-56006485D01*
X77210497Y-55952250D01*
X77210171Y-55952032D01*
X77121233Y-55879044D01*
X77120956Y-55878767D01*
X77047968Y-55789829D01*
X77047750Y-55789503D01*
X76993515Y-55688038D01*
X76993365Y-55687676D01*
X76959967Y-55577580D01*
X76959891Y-55577195D01*
X76948010Y-55456556D01*
X76948000Y-55456360D01*
X76948000Y-55400000D01*
X76949000Y-55398268D01*
X76951000Y-55398268D01*
X76951990Y-55399804D01*
G37*
G36*
X101951990Y-55399804D02*
G01*
X101964460Y-55526414D01*
X102001335Y-55647975D01*
X102061216Y-55760005D01*
X102141802Y-55858198D01*
X102239995Y-55938784D01*
X102352025Y-55998665D01*
X102473586Y-56035540D01*
X102600196Y-56048010D01*
X102601822Y-56049175D01*
X102601626Y-56051165D01*
X102600000Y-56052000D01*
X102543640Y-56052000D01*
X102543444Y-56051990D01*
X102422805Y-56040109D01*
X102422420Y-56040033D01*
X102312324Y-56006635D01*
X102311962Y-56006485D01*
X102210497Y-55952250D01*
X102210171Y-55952032D01*
X102121233Y-55879044D01*
X102120956Y-55878767D01*
X102047968Y-55789829D01*
X102047750Y-55789503D01*
X101993515Y-55688038D01*
X101993365Y-55687676D01*
X101959967Y-55577580D01*
X101959891Y-55577195D01*
X101948010Y-55456556D01*
X101948000Y-55456360D01*
X101948000Y-55400000D01*
X101949000Y-55398268D01*
X101951000Y-55398268D01*
X101951990Y-55399804D01*
G37*
G36*
X114551165Y-55398374D02*
G01*
X114552000Y-55400000D01*
X114552000Y-55456360D01*
X114551990Y-55456556D01*
X114540109Y-55577195D01*
X114540033Y-55577580D01*
X114506635Y-55687676D01*
X114506485Y-55688038D01*
X114452250Y-55789503D01*
X114452032Y-55789829D01*
X114379044Y-55878767D01*
X114378767Y-55879044D01*
X114289829Y-55952032D01*
X114289503Y-55952250D01*
X114188038Y-56006485D01*
X114187676Y-56006635D01*
X114077580Y-56040033D01*
X114077195Y-56040109D01*
X113956556Y-56051990D01*
X113956360Y-56052000D01*
X113900000Y-56052000D01*
X113898268Y-56051000D01*
X113898268Y-56049000D01*
X113899804Y-56048010D01*
X114026414Y-56035540D01*
X114147975Y-55998665D01*
X114260005Y-55938784D01*
X114358198Y-55858198D01*
X114438784Y-55760005D01*
X114498665Y-55647975D01*
X114535540Y-55526414D01*
X114548010Y-55399804D01*
X114549175Y-55398178D01*
X114551165Y-55398374D01*
G37*
G36*
X111951990Y-55399804D02*
G01*
X111964460Y-55526414D01*
X112001335Y-55647975D01*
X112061216Y-55760005D01*
X112141802Y-55858198D01*
X112239995Y-55938784D01*
X112352025Y-55998665D01*
X112473586Y-56035540D01*
X112600196Y-56048010D01*
X112601822Y-56049175D01*
X112601626Y-56051165D01*
X112600000Y-56052000D01*
X112543640Y-56052000D01*
X112543444Y-56051990D01*
X112422805Y-56040109D01*
X112422420Y-56040033D01*
X112312324Y-56006635D01*
X112311962Y-56006485D01*
X112210497Y-55952250D01*
X112210171Y-55952032D01*
X112121233Y-55879044D01*
X112120956Y-55878767D01*
X112047968Y-55789829D01*
X112047750Y-55789503D01*
X111993515Y-55688038D01*
X111993365Y-55687676D01*
X111959967Y-55577580D01*
X111959891Y-55577195D01*
X111948010Y-55456556D01*
X111948000Y-55456360D01*
X111948000Y-55400000D01*
X111949000Y-55398268D01*
X111951000Y-55398268D01*
X111951990Y-55399804D01*
G37*
G36*
X71951990Y-55399804D02*
G01*
X71964460Y-55526414D01*
X72001335Y-55647975D01*
X72061216Y-55760005D01*
X72141802Y-55858198D01*
X72239995Y-55938784D01*
X72352025Y-55998665D01*
X72473586Y-56035540D01*
X72600196Y-56048010D01*
X72601822Y-56049175D01*
X72601626Y-56051165D01*
X72600000Y-56052000D01*
X72543640Y-56052000D01*
X72543444Y-56051990D01*
X72422805Y-56040109D01*
X72422420Y-56040033D01*
X72312324Y-56006635D01*
X72311962Y-56006485D01*
X72210497Y-55952250D01*
X72210171Y-55952032D01*
X72121233Y-55879044D01*
X72120956Y-55878767D01*
X72047968Y-55789829D01*
X72047750Y-55789503D01*
X71993515Y-55688038D01*
X71993365Y-55687676D01*
X71959967Y-55577580D01*
X71959891Y-55577195D01*
X71948010Y-55456556D01*
X71948000Y-55456360D01*
X71948000Y-55400000D01*
X71949000Y-55398268D01*
X71951000Y-55398268D01*
X71951990Y-55399804D01*
G37*
G36*
X99551165Y-55398374D02*
G01*
X99552000Y-55400000D01*
X99552000Y-55456360D01*
X99551990Y-55456556D01*
X99540109Y-55577195D01*
X99540033Y-55577580D01*
X99506635Y-55687676D01*
X99506485Y-55688038D01*
X99452250Y-55789503D01*
X99452032Y-55789829D01*
X99379044Y-55878767D01*
X99378767Y-55879044D01*
X99289829Y-55952032D01*
X99289503Y-55952250D01*
X99188038Y-56006485D01*
X99187676Y-56006635D01*
X99077580Y-56040033D01*
X99077195Y-56040109D01*
X98956556Y-56051990D01*
X98956360Y-56052000D01*
X98900000Y-56052000D01*
X98898268Y-56051000D01*
X98898268Y-56049000D01*
X98899804Y-56048010D01*
X99026414Y-56035540D01*
X99147975Y-55998665D01*
X99260005Y-55938784D01*
X99358198Y-55858198D01*
X99438784Y-55760005D01*
X99498665Y-55647975D01*
X99535540Y-55526414D01*
X99548010Y-55399804D01*
X99549175Y-55398178D01*
X99551165Y-55398374D01*
G37*
G36*
X116951990Y-55399804D02*
G01*
X116964460Y-55526414D01*
X117001335Y-55647975D01*
X117061216Y-55760005D01*
X117141802Y-55858198D01*
X117239995Y-55938784D01*
X117352025Y-55998665D01*
X117473586Y-56035540D01*
X117600196Y-56048010D01*
X117601822Y-56049175D01*
X117601626Y-56051165D01*
X117600000Y-56052000D01*
X117543640Y-56052000D01*
X117543444Y-56051990D01*
X117422805Y-56040109D01*
X117422420Y-56040033D01*
X117312324Y-56006635D01*
X117311962Y-56006485D01*
X117210497Y-55952250D01*
X117210171Y-55952032D01*
X117121233Y-55879044D01*
X117120956Y-55878767D01*
X117047968Y-55789829D01*
X117047750Y-55789503D01*
X116993515Y-55688038D01*
X116993365Y-55687676D01*
X116959967Y-55577580D01*
X116959891Y-55577195D01*
X116948010Y-55456556D01*
X116948000Y-55456360D01*
X116948000Y-55400000D01*
X116949000Y-55398268D01*
X116951000Y-55398268D01*
X116951990Y-55399804D01*
G37*
G36*
X86951990Y-55399804D02*
G01*
X86964460Y-55526414D01*
X87001335Y-55647975D01*
X87061216Y-55760005D01*
X87141802Y-55858198D01*
X87239995Y-55938784D01*
X87352025Y-55998665D01*
X87473586Y-56035540D01*
X87600196Y-56048010D01*
X87601822Y-56049175D01*
X87601626Y-56051165D01*
X87600000Y-56052000D01*
X87543640Y-56052000D01*
X87543444Y-56051990D01*
X87422805Y-56040109D01*
X87422420Y-56040033D01*
X87312324Y-56006635D01*
X87311962Y-56006485D01*
X87210497Y-55952250D01*
X87210171Y-55952032D01*
X87121233Y-55879044D01*
X87120956Y-55878767D01*
X87047968Y-55789829D01*
X87047750Y-55789503D01*
X86993515Y-55688038D01*
X86993365Y-55687676D01*
X86959967Y-55577580D01*
X86959891Y-55577195D01*
X86948010Y-55456556D01*
X86948000Y-55456360D01*
X86948000Y-55400000D01*
X86949000Y-55398268D01*
X86951000Y-55398268D01*
X86951990Y-55399804D01*
G37*
G36*
X104551165Y-55398374D02*
G01*
X104552000Y-55400000D01*
X104552000Y-55456360D01*
X104551990Y-55456556D01*
X104540109Y-55577195D01*
X104540033Y-55577580D01*
X104506635Y-55687676D01*
X104506485Y-55688038D01*
X104452250Y-55789503D01*
X104452032Y-55789829D01*
X104379044Y-55878767D01*
X104378767Y-55879044D01*
X104289829Y-55952032D01*
X104289503Y-55952250D01*
X104188038Y-56006485D01*
X104187676Y-56006635D01*
X104077580Y-56040033D01*
X104077195Y-56040109D01*
X103956556Y-56051990D01*
X103956360Y-56052000D01*
X103900000Y-56052000D01*
X103898268Y-56051000D01*
X103898268Y-56049000D01*
X103899804Y-56048010D01*
X104026414Y-56035540D01*
X104147975Y-55998665D01*
X104260005Y-55938784D01*
X104358198Y-55858198D01*
X104438784Y-55760005D01*
X104498665Y-55647975D01*
X104535540Y-55526414D01*
X104548010Y-55399804D01*
X104549175Y-55398178D01*
X104551165Y-55398374D01*
G37*
G36*
X66951990Y-55399804D02*
G01*
X66964460Y-55526414D01*
X67001335Y-55647975D01*
X67061216Y-55760005D01*
X67141802Y-55858198D01*
X67239995Y-55938784D01*
X67352025Y-55998665D01*
X67473586Y-56035540D01*
X67600196Y-56048010D01*
X67601822Y-56049175D01*
X67601626Y-56051165D01*
X67600000Y-56052000D01*
X67543640Y-56052000D01*
X67543444Y-56051990D01*
X67422805Y-56040109D01*
X67422420Y-56040033D01*
X67312324Y-56006635D01*
X67311962Y-56006485D01*
X67210497Y-55952250D01*
X67210171Y-55952032D01*
X67121233Y-55879044D01*
X67120956Y-55878767D01*
X67047968Y-55789829D01*
X67047750Y-55789503D01*
X66993515Y-55688038D01*
X66993365Y-55687676D01*
X66959967Y-55577580D01*
X66959891Y-55577195D01*
X66948010Y-55456556D01*
X66948000Y-55456360D01*
X66948000Y-55400000D01*
X66949000Y-55398268D01*
X66951000Y-55398268D01*
X66951990Y-55399804D01*
G37*
G36*
X74551165Y-55398374D02*
G01*
X74552000Y-55400000D01*
X74552000Y-55456360D01*
X74551990Y-55456556D01*
X74540109Y-55577195D01*
X74540033Y-55577580D01*
X74506635Y-55687676D01*
X74506485Y-55688038D01*
X74452250Y-55789503D01*
X74452032Y-55789829D01*
X74379044Y-55878767D01*
X74378767Y-55879044D01*
X74289829Y-55952032D01*
X74289503Y-55952250D01*
X74188038Y-56006485D01*
X74187676Y-56006635D01*
X74077580Y-56040033D01*
X74077195Y-56040109D01*
X73956556Y-56051990D01*
X73956360Y-56052000D01*
X73900000Y-56052000D01*
X73898268Y-56051000D01*
X73898268Y-56049000D01*
X73899804Y-56048010D01*
X74026414Y-56035540D01*
X74147975Y-55998665D01*
X74260005Y-55938784D01*
X74358198Y-55858198D01*
X74438784Y-55760005D01*
X74498665Y-55647975D01*
X74535540Y-55526414D01*
X74548010Y-55399804D01*
X74549175Y-55398178D01*
X74551165Y-55398374D01*
G37*
G36*
X109551165Y-55398374D02*
G01*
X109552000Y-55400000D01*
X109552000Y-55456360D01*
X109551990Y-55456556D01*
X109540109Y-55577195D01*
X109540033Y-55577580D01*
X109506635Y-55687676D01*
X109506485Y-55688038D01*
X109452250Y-55789503D01*
X109452032Y-55789829D01*
X109379044Y-55878767D01*
X109378767Y-55879044D01*
X109289829Y-55952032D01*
X109289503Y-55952250D01*
X109188038Y-56006485D01*
X109187676Y-56006635D01*
X109077580Y-56040033D01*
X109077195Y-56040109D01*
X108956556Y-56051990D01*
X108956360Y-56052000D01*
X108900000Y-56052000D01*
X108898268Y-56051000D01*
X108898268Y-56049000D01*
X108899804Y-56048010D01*
X109026414Y-56035540D01*
X109147975Y-55998665D01*
X109260005Y-55938784D01*
X109358198Y-55858198D01*
X109438784Y-55760005D01*
X109498665Y-55647975D01*
X109535540Y-55526414D01*
X109548010Y-55399804D01*
X109549175Y-55398178D01*
X109551165Y-55398374D01*
G37*
G36*
X96951990Y-55399804D02*
G01*
X96964460Y-55526414D01*
X97001335Y-55647975D01*
X97061216Y-55760005D01*
X97141802Y-55858198D01*
X97239995Y-55938784D01*
X97352025Y-55998665D01*
X97473586Y-56035540D01*
X97600196Y-56048010D01*
X97601822Y-56049175D01*
X97601626Y-56051165D01*
X97600000Y-56052000D01*
X97543640Y-56052000D01*
X97543444Y-56051990D01*
X97422805Y-56040109D01*
X97422420Y-56040033D01*
X97312324Y-56006635D01*
X97311962Y-56006485D01*
X97210497Y-55952250D01*
X97210171Y-55952032D01*
X97121233Y-55879044D01*
X97120956Y-55878767D01*
X97047968Y-55789829D01*
X97047750Y-55789503D01*
X96993515Y-55688038D01*
X96993365Y-55687676D01*
X96959967Y-55577580D01*
X96959891Y-55577195D01*
X96948010Y-55456556D01*
X96948000Y-55456360D01*
X96948000Y-55400000D01*
X96949000Y-55398268D01*
X96951000Y-55398268D01*
X96951990Y-55399804D01*
G37*
G36*
X81951990Y-55399804D02*
G01*
X81964460Y-55526414D01*
X82001335Y-55647975D01*
X82061216Y-55760005D01*
X82141802Y-55858198D01*
X82239995Y-55938784D01*
X82352025Y-55998665D01*
X82473586Y-56035540D01*
X82600196Y-56048010D01*
X82601822Y-56049175D01*
X82601626Y-56051165D01*
X82600000Y-56052000D01*
X82543640Y-56052000D01*
X82543444Y-56051990D01*
X82422805Y-56040109D01*
X82422420Y-56040033D01*
X82312324Y-56006635D01*
X82311962Y-56006485D01*
X82210497Y-55952250D01*
X82210171Y-55952032D01*
X82121233Y-55879044D01*
X82120956Y-55878767D01*
X82047968Y-55789829D01*
X82047750Y-55789503D01*
X81993515Y-55688038D01*
X81993365Y-55687676D01*
X81959967Y-55577580D01*
X81959891Y-55577195D01*
X81948010Y-55456556D01*
X81948000Y-55456360D01*
X81948000Y-55400000D01*
X81949000Y-55398268D01*
X81951000Y-55398268D01*
X81951990Y-55399804D01*
G37*
G36*
X92601732Y-53449000D02*
G01*
X92601732Y-53451000D01*
X92600196Y-53451990D01*
X92473586Y-53464460D01*
X92352025Y-53501335D01*
X92239995Y-53561216D01*
X92141802Y-53641802D01*
X92061216Y-53739995D01*
X92001335Y-53852025D01*
X91964460Y-53973586D01*
X91951990Y-54100196D01*
X91950825Y-54101822D01*
X91948835Y-54101626D01*
X91948000Y-54100000D01*
X91948000Y-54043640D01*
X91948010Y-54043444D01*
X91959891Y-53922805D01*
X91959967Y-53922420D01*
X91993365Y-53812324D01*
X91993515Y-53811962D01*
X92047750Y-53710497D01*
X92047968Y-53710171D01*
X92120956Y-53621233D01*
X92121233Y-53620956D01*
X92210171Y-53547968D01*
X92210497Y-53547750D01*
X92311962Y-53493515D01*
X92312324Y-53493365D01*
X92422420Y-53459967D01*
X92422805Y-53459891D01*
X92543444Y-53448010D01*
X92543640Y-53448000D01*
X92600000Y-53448000D01*
X92601732Y-53449000D01*
G37*
G36*
X87601732Y-53449000D02*
G01*
X87601732Y-53451000D01*
X87600196Y-53451990D01*
X87473586Y-53464460D01*
X87352025Y-53501335D01*
X87239995Y-53561216D01*
X87141802Y-53641802D01*
X87061216Y-53739995D01*
X87001335Y-53852025D01*
X86964460Y-53973586D01*
X86951990Y-54100196D01*
X86950825Y-54101822D01*
X86948835Y-54101626D01*
X86948000Y-54100000D01*
X86948000Y-54043640D01*
X86948010Y-54043444D01*
X86959891Y-53922805D01*
X86959967Y-53922420D01*
X86993365Y-53812324D01*
X86993515Y-53811962D01*
X87047750Y-53710497D01*
X87047968Y-53710171D01*
X87120956Y-53621233D01*
X87121233Y-53620956D01*
X87210171Y-53547968D01*
X87210497Y-53547750D01*
X87311962Y-53493515D01*
X87312324Y-53493365D01*
X87422420Y-53459967D01*
X87422805Y-53459891D01*
X87543444Y-53448010D01*
X87543640Y-53448000D01*
X87600000Y-53448000D01*
X87601732Y-53449000D01*
G37*
G36*
X62601732Y-53449000D02*
G01*
X62601732Y-53451000D01*
X62600196Y-53451990D01*
X62473586Y-53464460D01*
X62352025Y-53501335D01*
X62239995Y-53561216D01*
X62141802Y-53641802D01*
X62061216Y-53739995D01*
X62001335Y-53852025D01*
X61964460Y-53973586D01*
X61951990Y-54100196D01*
X61950825Y-54101822D01*
X61948835Y-54101626D01*
X61948000Y-54100000D01*
X61948000Y-54043640D01*
X61948010Y-54043444D01*
X61959891Y-53922805D01*
X61959967Y-53922420D01*
X61993365Y-53812324D01*
X61993515Y-53811962D01*
X62047750Y-53710497D01*
X62047968Y-53710171D01*
X62120956Y-53621233D01*
X62121233Y-53620956D01*
X62210171Y-53547968D01*
X62210497Y-53547750D01*
X62311962Y-53493515D01*
X62312324Y-53493365D01*
X62422420Y-53459967D01*
X62422805Y-53459891D01*
X62543444Y-53448010D01*
X62543640Y-53448000D01*
X62600000Y-53448000D01*
X62601732Y-53449000D01*
G37*
G36*
X112601732Y-53449000D02*
G01*
X112601732Y-53451000D01*
X112600196Y-53451990D01*
X112473586Y-53464460D01*
X112352025Y-53501335D01*
X112239995Y-53561216D01*
X112141802Y-53641802D01*
X112061216Y-53739995D01*
X112001335Y-53852025D01*
X111964460Y-53973586D01*
X111951990Y-54100196D01*
X111950825Y-54101822D01*
X111948835Y-54101626D01*
X111948000Y-54100000D01*
X111948000Y-54043640D01*
X111948010Y-54043444D01*
X111959891Y-53922805D01*
X111959967Y-53922420D01*
X111993365Y-53812324D01*
X111993515Y-53811962D01*
X112047750Y-53710497D01*
X112047968Y-53710171D01*
X112120956Y-53621233D01*
X112121233Y-53620956D01*
X112210171Y-53547968D01*
X112210497Y-53547750D01*
X112311962Y-53493515D01*
X112312324Y-53493365D01*
X112422420Y-53459967D01*
X112422805Y-53459891D01*
X112543444Y-53448010D01*
X112543640Y-53448000D01*
X112600000Y-53448000D01*
X112601732Y-53449000D01*
G37*
G36*
X97601732Y-53449000D02*
G01*
X97601732Y-53451000D01*
X97600196Y-53451990D01*
X97473586Y-53464460D01*
X97352025Y-53501335D01*
X97239995Y-53561216D01*
X97141802Y-53641802D01*
X97061216Y-53739995D01*
X97001335Y-53852025D01*
X96964460Y-53973586D01*
X96951990Y-54100196D01*
X96950825Y-54101822D01*
X96948835Y-54101626D01*
X96948000Y-54100000D01*
X96948000Y-54043640D01*
X96948010Y-54043444D01*
X96959891Y-53922805D01*
X96959967Y-53922420D01*
X96993365Y-53812324D01*
X96993515Y-53811962D01*
X97047750Y-53710497D01*
X97047968Y-53710171D01*
X97120956Y-53621233D01*
X97121233Y-53620956D01*
X97210171Y-53547968D01*
X97210497Y-53547750D01*
X97311962Y-53493515D01*
X97312324Y-53493365D01*
X97422420Y-53459967D01*
X97422805Y-53459891D01*
X97543444Y-53448010D01*
X97543640Y-53448000D01*
X97600000Y-53448000D01*
X97601732Y-53449000D01*
G37*
G36*
X67601732Y-53449000D02*
G01*
X67601732Y-53451000D01*
X67600196Y-53451990D01*
X67473586Y-53464460D01*
X67352025Y-53501335D01*
X67239995Y-53561216D01*
X67141802Y-53641802D01*
X67061216Y-53739995D01*
X67001335Y-53852025D01*
X66964460Y-53973586D01*
X66951990Y-54100196D01*
X66950825Y-54101822D01*
X66948835Y-54101626D01*
X66948000Y-54100000D01*
X66948000Y-54043640D01*
X66948010Y-54043444D01*
X66959891Y-53922805D01*
X66959967Y-53922420D01*
X66993365Y-53812324D01*
X66993515Y-53811962D01*
X67047750Y-53710497D01*
X67047968Y-53710171D01*
X67120956Y-53621233D01*
X67121233Y-53620956D01*
X67210171Y-53547968D01*
X67210497Y-53547750D01*
X67311962Y-53493515D01*
X67312324Y-53493365D01*
X67422420Y-53459967D01*
X67422805Y-53459891D01*
X67543444Y-53448010D01*
X67543640Y-53448000D01*
X67600000Y-53448000D01*
X67601732Y-53449000D01*
G37*
G36*
X107601732Y-53449000D02*
G01*
X107601732Y-53451000D01*
X107600196Y-53451990D01*
X107473586Y-53464460D01*
X107352025Y-53501335D01*
X107239995Y-53561216D01*
X107141802Y-53641802D01*
X107061216Y-53739995D01*
X107001335Y-53852025D01*
X106964460Y-53973586D01*
X106951990Y-54100196D01*
X106950825Y-54101822D01*
X106948835Y-54101626D01*
X106948000Y-54100000D01*
X106948000Y-54043640D01*
X106948010Y-54043444D01*
X106959891Y-53922805D01*
X106959967Y-53922420D01*
X106993365Y-53812324D01*
X106993515Y-53811962D01*
X107047750Y-53710497D01*
X107047968Y-53710171D01*
X107120956Y-53621233D01*
X107121233Y-53620956D01*
X107210171Y-53547968D01*
X107210497Y-53547750D01*
X107311962Y-53493515D01*
X107312324Y-53493365D01*
X107422420Y-53459967D01*
X107422805Y-53459891D01*
X107543444Y-53448010D01*
X107543640Y-53448000D01*
X107600000Y-53448000D01*
X107601732Y-53449000D01*
G37*
G36*
X72601732Y-53449000D02*
G01*
X72601732Y-53451000D01*
X72600196Y-53451990D01*
X72473586Y-53464460D01*
X72352025Y-53501335D01*
X72239995Y-53561216D01*
X72141802Y-53641802D01*
X72061216Y-53739995D01*
X72001335Y-53852025D01*
X71964460Y-53973586D01*
X71951990Y-54100196D01*
X71950825Y-54101822D01*
X71948835Y-54101626D01*
X71948000Y-54100000D01*
X71948000Y-54043640D01*
X71948010Y-54043444D01*
X71959891Y-53922805D01*
X71959967Y-53922420D01*
X71993365Y-53812324D01*
X71993515Y-53811962D01*
X72047750Y-53710497D01*
X72047968Y-53710171D01*
X72120956Y-53621233D01*
X72121233Y-53620956D01*
X72210171Y-53547968D01*
X72210497Y-53547750D01*
X72311962Y-53493515D01*
X72312324Y-53493365D01*
X72422420Y-53459967D01*
X72422805Y-53459891D01*
X72543444Y-53448010D01*
X72543640Y-53448000D01*
X72600000Y-53448000D01*
X72601732Y-53449000D01*
G37*
G36*
X77601732Y-53449000D02*
G01*
X77601732Y-53451000D01*
X77600196Y-53451990D01*
X77473586Y-53464460D01*
X77352025Y-53501335D01*
X77239995Y-53561216D01*
X77141802Y-53641802D01*
X77061216Y-53739995D01*
X77001335Y-53852025D01*
X76964460Y-53973586D01*
X76951990Y-54100196D01*
X76950825Y-54101822D01*
X76948835Y-54101626D01*
X76948000Y-54100000D01*
X76948000Y-54043640D01*
X76948010Y-54043444D01*
X76959891Y-53922805D01*
X76959967Y-53922420D01*
X76993365Y-53812324D01*
X76993515Y-53811962D01*
X77047750Y-53710497D01*
X77047968Y-53710171D01*
X77120956Y-53621233D01*
X77121233Y-53620956D01*
X77210171Y-53547968D01*
X77210497Y-53547750D01*
X77311962Y-53493515D01*
X77312324Y-53493365D01*
X77422420Y-53459967D01*
X77422805Y-53459891D01*
X77543444Y-53448010D01*
X77543640Y-53448000D01*
X77600000Y-53448000D01*
X77601732Y-53449000D01*
G37*
G36*
X82601732Y-53449000D02*
G01*
X82601732Y-53451000D01*
X82600196Y-53451990D01*
X82473586Y-53464460D01*
X82352025Y-53501335D01*
X82239995Y-53561216D01*
X82141802Y-53641802D01*
X82061216Y-53739995D01*
X82001335Y-53852025D01*
X81964460Y-53973586D01*
X81951990Y-54100196D01*
X81950825Y-54101822D01*
X81948835Y-54101626D01*
X81948000Y-54100000D01*
X81948000Y-54043640D01*
X81948010Y-54043444D01*
X81959891Y-53922805D01*
X81959967Y-53922420D01*
X81993365Y-53812324D01*
X81993515Y-53811962D01*
X82047750Y-53710497D01*
X82047968Y-53710171D01*
X82120956Y-53621233D01*
X82121233Y-53620956D01*
X82210171Y-53547968D01*
X82210497Y-53547750D01*
X82311962Y-53493515D01*
X82312324Y-53493365D01*
X82422420Y-53459967D01*
X82422805Y-53459891D01*
X82543444Y-53448010D01*
X82543640Y-53448000D01*
X82600000Y-53448000D01*
X82601732Y-53449000D01*
G37*
G36*
X117601732Y-53449000D02*
G01*
X117601732Y-53451000D01*
X117600196Y-53451990D01*
X117473586Y-53464460D01*
X117352025Y-53501335D01*
X117239995Y-53561216D01*
X117141802Y-53641802D01*
X117061216Y-53739995D01*
X117001335Y-53852025D01*
X116964460Y-53973586D01*
X116951990Y-54100196D01*
X116950825Y-54101822D01*
X116948835Y-54101626D01*
X116948000Y-54100000D01*
X116948000Y-54043640D01*
X116948010Y-54043444D01*
X116959891Y-53922805D01*
X116959967Y-53922420D01*
X116993365Y-53812324D01*
X116993515Y-53811962D01*
X117047750Y-53710497D01*
X117047968Y-53710171D01*
X117120956Y-53621233D01*
X117121233Y-53620956D01*
X117210171Y-53547968D01*
X117210497Y-53547750D01*
X117311962Y-53493515D01*
X117312324Y-53493365D01*
X117422420Y-53459967D01*
X117422805Y-53459891D01*
X117543444Y-53448010D01*
X117543640Y-53448000D01*
X117600000Y-53448000D01*
X117601732Y-53449000D01*
G37*
G36*
X102601732Y-53449000D02*
G01*
X102601732Y-53451000D01*
X102600196Y-53451990D01*
X102473586Y-53464460D01*
X102352025Y-53501335D01*
X102239995Y-53561216D01*
X102141802Y-53641802D01*
X102061216Y-53739995D01*
X102001335Y-53852025D01*
X101964460Y-53973586D01*
X101951990Y-54100196D01*
X101950825Y-54101822D01*
X101948835Y-54101626D01*
X101948000Y-54100000D01*
X101948000Y-54043640D01*
X101948010Y-54043444D01*
X101959891Y-53922805D01*
X101959967Y-53922420D01*
X101993365Y-53812324D01*
X101993515Y-53811962D01*
X102047750Y-53710497D01*
X102047968Y-53710171D01*
X102120956Y-53621233D01*
X102121233Y-53620956D01*
X102210171Y-53547968D01*
X102210497Y-53547750D01*
X102311962Y-53493515D01*
X102312324Y-53493365D01*
X102422420Y-53459967D01*
X102422805Y-53459891D01*
X102543444Y-53448010D01*
X102543640Y-53448000D01*
X102600000Y-53448000D01*
X102601732Y-53449000D01*
G37*
G36*
X103956556Y-53448010D02*
G01*
X104077195Y-53459891D01*
X104077580Y-53459967D01*
X104187676Y-53493365D01*
X104188038Y-53493515D01*
X104289503Y-53547750D01*
X104289829Y-53547968D01*
X104378767Y-53620956D01*
X104379044Y-53621233D01*
X104452032Y-53710171D01*
X104452250Y-53710497D01*
X104506485Y-53811962D01*
X104506635Y-53812324D01*
X104540033Y-53922420D01*
X104540109Y-53922805D01*
X104551990Y-54043444D01*
X104552000Y-54043640D01*
X104552000Y-54100000D01*
X104551000Y-54101732D01*
X104549000Y-54101732D01*
X104548010Y-54100196D01*
X104535540Y-53973586D01*
X104498665Y-53852025D01*
X104438784Y-53739995D01*
X104358198Y-53641802D01*
X104260005Y-53561216D01*
X104147975Y-53501335D01*
X104026414Y-53464460D01*
X103899804Y-53451990D01*
X103898178Y-53450825D01*
X103898374Y-53448835D01*
X103900000Y-53448000D01*
X103956360Y-53448000D01*
X103956556Y-53448010D01*
G37*
G36*
X93956556Y-53448010D02*
G01*
X94077195Y-53459891D01*
X94077580Y-53459967D01*
X94187676Y-53493365D01*
X94188038Y-53493515D01*
X94289503Y-53547750D01*
X94289829Y-53547968D01*
X94378767Y-53620956D01*
X94379044Y-53621233D01*
X94452032Y-53710171D01*
X94452250Y-53710497D01*
X94506485Y-53811962D01*
X94506635Y-53812324D01*
X94540033Y-53922420D01*
X94540109Y-53922805D01*
X94551990Y-54043444D01*
X94552000Y-54043640D01*
X94552000Y-54100000D01*
X94551000Y-54101732D01*
X94549000Y-54101732D01*
X94548010Y-54100196D01*
X94535540Y-53973586D01*
X94498665Y-53852025D01*
X94438784Y-53739995D01*
X94358198Y-53641802D01*
X94260005Y-53561216D01*
X94147975Y-53501335D01*
X94026414Y-53464460D01*
X93899804Y-53451990D01*
X93898178Y-53450825D01*
X93898374Y-53448835D01*
X93900000Y-53448000D01*
X93956360Y-53448000D01*
X93956556Y-53448010D01*
G37*
G36*
X108956556Y-53448010D02*
G01*
X109077195Y-53459891D01*
X109077580Y-53459967D01*
X109187676Y-53493365D01*
X109188038Y-53493515D01*
X109289503Y-53547750D01*
X109289829Y-53547968D01*
X109378767Y-53620956D01*
X109379044Y-53621233D01*
X109452032Y-53710171D01*
X109452250Y-53710497D01*
X109506485Y-53811962D01*
X109506635Y-53812324D01*
X109540033Y-53922420D01*
X109540109Y-53922805D01*
X109551990Y-54043444D01*
X109552000Y-54043640D01*
X109552000Y-54100000D01*
X109551000Y-54101732D01*
X109549000Y-54101732D01*
X109548010Y-54100196D01*
X109535540Y-53973586D01*
X109498665Y-53852025D01*
X109438784Y-53739995D01*
X109358198Y-53641802D01*
X109260005Y-53561216D01*
X109147975Y-53501335D01*
X109026414Y-53464460D01*
X108899804Y-53451990D01*
X108898178Y-53450825D01*
X108898374Y-53448835D01*
X108900000Y-53448000D01*
X108956360Y-53448000D01*
X108956556Y-53448010D01*
G37*
G36*
X118956556Y-53448010D02*
G01*
X119077195Y-53459891D01*
X119077580Y-53459967D01*
X119187676Y-53493365D01*
X119188038Y-53493515D01*
X119289503Y-53547750D01*
X119289829Y-53547968D01*
X119378767Y-53620956D01*
X119379044Y-53621233D01*
X119452032Y-53710171D01*
X119452250Y-53710497D01*
X119506485Y-53811962D01*
X119506635Y-53812324D01*
X119540033Y-53922420D01*
X119540109Y-53922805D01*
X119551990Y-54043444D01*
X119552000Y-54043640D01*
X119552000Y-54100000D01*
X119551000Y-54101732D01*
X119549000Y-54101732D01*
X119548010Y-54100196D01*
X119535540Y-53973586D01*
X119498665Y-53852025D01*
X119438784Y-53739995D01*
X119358198Y-53641802D01*
X119260005Y-53561216D01*
X119147975Y-53501335D01*
X119026414Y-53464460D01*
X118899804Y-53451990D01*
X118898178Y-53450825D01*
X118898374Y-53448835D01*
X118900000Y-53448000D01*
X118956360Y-53448000D01*
X118956556Y-53448010D01*
G37*
G36*
X98956556Y-53448010D02*
G01*
X99077195Y-53459891D01*
X99077580Y-53459967D01*
X99187676Y-53493365D01*
X99188038Y-53493515D01*
X99289503Y-53547750D01*
X99289829Y-53547968D01*
X99378767Y-53620956D01*
X99379044Y-53621233D01*
X99452032Y-53710171D01*
X99452250Y-53710497D01*
X99506485Y-53811962D01*
X99506635Y-53812324D01*
X99540033Y-53922420D01*
X99540109Y-53922805D01*
X99551990Y-54043444D01*
X99552000Y-54043640D01*
X99552000Y-54100000D01*
X99551000Y-54101732D01*
X99549000Y-54101732D01*
X99548010Y-54100196D01*
X99535540Y-53973586D01*
X99498665Y-53852025D01*
X99438784Y-53739995D01*
X99358198Y-53641802D01*
X99260005Y-53561216D01*
X99147975Y-53501335D01*
X99026414Y-53464460D01*
X98899804Y-53451990D01*
X98898178Y-53450825D01*
X98898374Y-53448835D01*
X98900000Y-53448000D01*
X98956360Y-53448000D01*
X98956556Y-53448010D01*
G37*
G36*
X88956556Y-53448010D02*
G01*
X89077195Y-53459891D01*
X89077580Y-53459967D01*
X89187676Y-53493365D01*
X89188038Y-53493515D01*
X89289503Y-53547750D01*
X89289829Y-53547968D01*
X89378767Y-53620956D01*
X89379044Y-53621233D01*
X89452032Y-53710171D01*
X89452250Y-53710497D01*
X89506485Y-53811962D01*
X89506635Y-53812324D01*
X89540033Y-53922420D01*
X89540109Y-53922805D01*
X89551990Y-54043444D01*
X89552000Y-54043640D01*
X89552000Y-54100000D01*
X89551000Y-54101732D01*
X89549000Y-54101732D01*
X89548010Y-54100196D01*
X89535540Y-53973586D01*
X89498665Y-53852025D01*
X89438784Y-53739995D01*
X89358198Y-53641802D01*
X89260005Y-53561216D01*
X89147975Y-53501335D01*
X89026414Y-53464460D01*
X88899804Y-53451990D01*
X88898178Y-53450825D01*
X88898374Y-53448835D01*
X88900000Y-53448000D01*
X88956360Y-53448000D01*
X88956556Y-53448010D01*
G37*
G36*
X78956556Y-53448010D02*
G01*
X79077195Y-53459891D01*
X79077580Y-53459967D01*
X79187676Y-53493365D01*
X79188038Y-53493515D01*
X79289503Y-53547750D01*
X79289829Y-53547968D01*
X79378767Y-53620956D01*
X79379044Y-53621233D01*
X79452032Y-53710171D01*
X79452250Y-53710497D01*
X79506485Y-53811962D01*
X79506635Y-53812324D01*
X79540033Y-53922420D01*
X79540109Y-53922805D01*
X79551990Y-54043444D01*
X79552000Y-54043640D01*
X79552000Y-54100000D01*
X79551000Y-54101732D01*
X79549000Y-54101732D01*
X79548010Y-54100196D01*
X79535540Y-53973586D01*
X79498665Y-53852025D01*
X79438784Y-53739995D01*
X79358198Y-53641802D01*
X79260005Y-53561216D01*
X79147975Y-53501335D01*
X79026414Y-53464460D01*
X78899804Y-53451990D01*
X78898178Y-53450825D01*
X78898374Y-53448835D01*
X78900000Y-53448000D01*
X78956360Y-53448000D01*
X78956556Y-53448010D01*
G37*
G36*
X73956556Y-53448010D02*
G01*
X74077195Y-53459891D01*
X74077580Y-53459967D01*
X74187676Y-53493365D01*
X74188038Y-53493515D01*
X74289503Y-53547750D01*
X74289829Y-53547968D01*
X74378767Y-53620956D01*
X74379044Y-53621233D01*
X74452032Y-53710171D01*
X74452250Y-53710497D01*
X74506485Y-53811962D01*
X74506635Y-53812324D01*
X74540033Y-53922420D01*
X74540109Y-53922805D01*
X74551990Y-54043444D01*
X74552000Y-54043640D01*
X74552000Y-54100000D01*
X74551000Y-54101732D01*
X74549000Y-54101732D01*
X74548010Y-54100196D01*
X74535540Y-53973586D01*
X74498665Y-53852025D01*
X74438784Y-53739995D01*
X74358198Y-53641802D01*
X74260005Y-53561216D01*
X74147975Y-53501335D01*
X74026414Y-53464460D01*
X73899804Y-53451990D01*
X73898178Y-53450825D01*
X73898374Y-53448835D01*
X73900000Y-53448000D01*
X73956360Y-53448000D01*
X73956556Y-53448010D01*
G37*
G36*
X113956556Y-53448010D02*
G01*
X114077195Y-53459891D01*
X114077580Y-53459967D01*
X114187676Y-53493365D01*
X114188038Y-53493515D01*
X114289503Y-53547750D01*
X114289829Y-53547968D01*
X114378767Y-53620956D01*
X114379044Y-53621233D01*
X114452032Y-53710171D01*
X114452250Y-53710497D01*
X114506485Y-53811962D01*
X114506635Y-53812324D01*
X114540033Y-53922420D01*
X114540109Y-53922805D01*
X114551990Y-54043444D01*
X114552000Y-54043640D01*
X114552000Y-54100000D01*
X114551000Y-54101732D01*
X114549000Y-54101732D01*
X114548010Y-54100196D01*
X114535540Y-53973586D01*
X114498665Y-53852025D01*
X114438784Y-53739995D01*
X114358198Y-53641802D01*
X114260005Y-53561216D01*
X114147975Y-53501335D01*
X114026414Y-53464460D01*
X113899804Y-53451990D01*
X113898178Y-53450825D01*
X113898374Y-53448835D01*
X113900000Y-53448000D01*
X113956360Y-53448000D01*
X113956556Y-53448010D01*
G37*
G36*
X68956556Y-53448010D02*
G01*
X69077195Y-53459891D01*
X69077580Y-53459967D01*
X69187676Y-53493365D01*
X69188038Y-53493515D01*
X69289503Y-53547750D01*
X69289829Y-53547968D01*
X69378767Y-53620956D01*
X69379044Y-53621233D01*
X69452032Y-53710171D01*
X69452250Y-53710497D01*
X69506485Y-53811962D01*
X69506635Y-53812324D01*
X69540033Y-53922420D01*
X69540109Y-53922805D01*
X69551990Y-54043444D01*
X69552000Y-54043640D01*
X69552000Y-54100000D01*
X69551000Y-54101732D01*
X69549000Y-54101732D01*
X69548010Y-54100196D01*
X69535540Y-53973586D01*
X69498665Y-53852025D01*
X69438784Y-53739995D01*
X69358198Y-53641802D01*
X69260005Y-53561216D01*
X69147975Y-53501335D01*
X69026414Y-53464460D01*
X68899804Y-53451990D01*
X68898178Y-53450825D01*
X68898374Y-53448835D01*
X68900000Y-53448000D01*
X68956360Y-53448000D01*
X68956556Y-53448010D01*
G37*
G36*
X63956556Y-53448010D02*
G01*
X64077195Y-53459891D01*
X64077580Y-53459967D01*
X64187676Y-53493365D01*
X64188038Y-53493515D01*
X64289503Y-53547750D01*
X64289829Y-53547968D01*
X64378767Y-53620956D01*
X64379044Y-53621233D01*
X64452032Y-53710171D01*
X64452250Y-53710497D01*
X64506485Y-53811962D01*
X64506635Y-53812324D01*
X64540033Y-53922420D01*
X64540109Y-53922805D01*
X64551990Y-54043444D01*
X64552000Y-54043640D01*
X64552000Y-54100000D01*
X64551000Y-54101732D01*
X64549000Y-54101732D01*
X64548010Y-54100196D01*
X64535540Y-53973586D01*
X64498665Y-53852025D01*
X64438784Y-53739995D01*
X64358198Y-53641802D01*
X64260005Y-53561216D01*
X64147975Y-53501335D01*
X64026414Y-53464460D01*
X63899804Y-53451990D01*
X63898178Y-53450825D01*
X63898374Y-53448835D01*
X63900000Y-53448000D01*
X63956360Y-53448000D01*
X63956556Y-53448010D01*
G37*
G36*
X83956556Y-53448010D02*
G01*
X84077195Y-53459891D01*
X84077580Y-53459967D01*
X84187676Y-53493365D01*
X84188038Y-53493515D01*
X84289503Y-53547750D01*
X84289829Y-53547968D01*
X84378767Y-53620956D01*
X84379044Y-53621233D01*
X84452032Y-53710171D01*
X84452250Y-53710497D01*
X84506485Y-53811962D01*
X84506635Y-53812324D01*
X84540033Y-53922420D01*
X84540109Y-53922805D01*
X84551990Y-54043444D01*
X84552000Y-54043640D01*
X84552000Y-54100000D01*
X84551000Y-54101732D01*
X84549000Y-54101732D01*
X84548010Y-54100196D01*
X84535540Y-53973586D01*
X84498665Y-53852025D01*
X84438784Y-53739995D01*
X84358198Y-53641802D01*
X84260005Y-53561216D01*
X84147975Y-53501335D01*
X84026414Y-53464460D01*
X83899804Y-53451990D01*
X83898178Y-53450825D01*
X83898374Y-53448835D01*
X83900000Y-53448000D01*
X83956360Y-53448000D01*
X83956556Y-53448010D01*
G37*
M02*
