G04 #@! TF.GenerationSoftware,KiCad,Pcbnew,5.1.9-73d0e3b20d~88~ubuntu20.04.1*
G04 #@! TF.CreationDate,2021-10-06T19:48:26+05:30*
G04 #@! TF.ProjectId,vayuO2,76617975-4f32-42e6-9b69-6361645f7063,rev 1*
G04 #@! TF.SameCoordinates,Original*
G04 #@! TF.FileFunction,Soldermask,Top*
G04 #@! TF.FilePolarity,Negative*
%FSLAX46Y46*%
G04 Gerber Fmt 4.6, Leading zero omitted, Abs format (unit mm)*
G04 Created by KiCad (PCBNEW 5.1.9-73d0e3b20d~88~ubuntu20.04.1) date 2021-10-06 19:48:26*
%MOMM*%
%LPD*%
G01*
G04 APERTURE LIST*
%ADD10O,2.000000X1.000000*%
%ADD11O,1.000000X2.000000*%
%ADD12R,1.330000X1.330000*%
%ADD13R,0.900000X2.000000*%
%ADD14R,2.000000X0.900000*%
%ADD15C,0.900000*%
%ADD16C,1.524000*%
%ADD17R,1.700000X1.700000*%
%ADD18O,1.700000X1.700000*%
%ADD19R,0.939800X2.489200*%
%ADD20R,4.368800X5.918200*%
%ADD21C,3.302000*%
%ADD22R,1.200000X1.400000*%
%ADD23R,1.400000X1.400000*%
%ADD24R,1.800000X1.300000*%
%ADD25R,0.650000X0.400000*%
%ADD26R,0.900000X0.800000*%
%ADD27O,1.950000X1.700000*%
%ADD28R,2.200000X1.200000*%
%ADD29R,6.400000X5.800000*%
%ADD30C,1.800000*%
%ADD31C,4.572000*%
%ADD32R,0.600000X0.400000*%
%ADD33O,2.200000X1.100000*%
%ADD34R,2.000000X2.000000*%
%ADD35R,1.350000X0.400000*%
%ADD36C,0.600000*%
%ADD37O,1.700000X2.000000*%
%ADD38C,6.400000*%
%ADD39C,0.800000*%
%ADD40O,3.900000X2.600000*%
%ADD41C,2.600000*%
%ADD42O,4.800000X2.600000*%
%ADD43R,1.675000X1.675000*%
%ADD44O,0.300000X0.850000*%
%ADD45O,0.850000X0.300000*%
%ADD46R,0.599440X1.998980*%
%ADD47R,0.800000X0.900000*%
%ADD48R,2.500000X2.300000*%
%ADD49O,2.000000X1.700000*%
%ADD50O,1.700000X1.950000*%
%ADD51C,0.127000*%
G04 APERTURE END LIST*
G36*
G01*
X79550000Y-123450000D02*
X79550000Y-124550000D01*
G75*
G02*
X79300000Y-124800000I-250000J0D01*
G01*
X76300000Y-124800000D01*
G75*
G02*
X76050000Y-124550000I0J250000D01*
G01*
X76050000Y-123450000D01*
G75*
G02*
X76300000Y-123200000I250000J0D01*
G01*
X79300000Y-123200000D01*
G75*
G02*
X79550000Y-123450000I0J-250000D01*
G01*
G37*
G36*
G01*
X84950000Y-123450000D02*
X84950000Y-124550000D01*
G75*
G02*
X84700000Y-124800000I-250000J0D01*
G01*
X81700000Y-124800000D01*
G75*
G02*
X81450000Y-124550000I0J250000D01*
G01*
X81450000Y-123450000D01*
G75*
G02*
X81700000Y-123200000I250000J0D01*
G01*
X84700000Y-123200000D01*
G75*
G02*
X84950000Y-123450000I0J-250000D01*
G01*
G37*
D10*
X157760001Y-77885000D03*
X157760001Y-82965000D03*
X157760001Y-81695000D03*
X157760001Y-80425000D03*
X157760001Y-79155000D03*
X157760001Y-76615000D03*
X157760001Y-75345000D03*
X157760001Y-74075000D03*
X157760001Y-72805000D03*
X157760001Y-71535000D03*
D11*
X175720001Y-88750000D03*
X164290001Y-88750000D03*
X173180001Y-88750000D03*
X170640001Y-88750000D03*
X169370001Y-88750000D03*
X163020001Y-88750000D03*
X161750001Y-88750000D03*
X171910001Y-88750000D03*
X165560001Y-88750000D03*
X178260001Y-88750000D03*
X174450001Y-88750000D03*
X166830001Y-88750000D03*
X168100001Y-88750000D03*
X176990001Y-88750000D03*
X161750001Y-65750000D03*
X163020001Y-65750000D03*
X164290001Y-65750000D03*
X165560001Y-65750000D03*
X166830001Y-65750000D03*
X168100001Y-65750000D03*
X169370001Y-65750000D03*
X170640001Y-65750000D03*
X171910001Y-65750000D03*
X173180001Y-65750000D03*
X174450001Y-65750000D03*
X175720001Y-65750000D03*
X176990001Y-65750000D03*
X178260001Y-65750000D03*
D12*
X170760001Y-76250000D03*
D13*
X178260001Y-85750000D03*
X176990001Y-85750000D03*
X175720001Y-85750000D03*
X174450001Y-85750000D03*
X173180001Y-85750000D03*
X171910001Y-85750000D03*
X170640001Y-85750000D03*
X169370001Y-85750000D03*
X168100001Y-85750000D03*
X166830001Y-85750000D03*
X165560001Y-85750000D03*
X164290001Y-85750000D03*
X163020001Y-85750000D03*
X161750001Y-85750000D03*
D14*
X160750001Y-82965000D03*
X160750001Y-81695000D03*
X160750001Y-80425000D03*
X160750001Y-79155000D03*
X160750001Y-77885000D03*
X160750001Y-76615000D03*
X160750001Y-75345000D03*
X160750001Y-74075000D03*
X160750001Y-72805000D03*
X160750001Y-71535000D03*
D13*
X161750001Y-68750000D03*
X163020001Y-68750000D03*
X164290001Y-68750000D03*
X165560001Y-68750000D03*
X166830001Y-68750000D03*
X168100001Y-68750000D03*
X169370001Y-68750000D03*
X170640001Y-68750000D03*
X171910001Y-68750000D03*
X173180001Y-68750000D03*
X174450001Y-68750000D03*
X175720001Y-68750000D03*
X176990001Y-68750000D03*
X178260001Y-68750000D03*
D12*
X170760001Y-78085000D03*
X170760001Y-74415000D03*
X172595001Y-76250000D03*
X172595001Y-74415000D03*
X172595001Y-78085000D03*
X168925001Y-76250000D03*
X168925001Y-74415000D03*
X168925001Y-78085000D03*
D15*
X172595001Y-75332500D03*
X172595001Y-77250000D03*
X170760001Y-75332500D03*
X171677501Y-76250000D03*
X170760001Y-77250000D03*
X171677501Y-74415000D03*
X171677501Y-78085000D03*
X169842501Y-76250000D03*
X169842501Y-74415000D03*
X169842501Y-78085000D03*
X168925001Y-77250000D03*
X168925001Y-75332500D03*
G36*
G01*
X142850000Y-124250000D02*
X142850000Y-125350000D01*
G75*
G02*
X142600000Y-125600000I-250000J0D01*
G01*
X139600000Y-125600000D01*
G75*
G02*
X139350000Y-125350000I0J250000D01*
G01*
X139350000Y-124250000D01*
G75*
G02*
X139600000Y-124000000I250000J0D01*
G01*
X142600000Y-124000000D01*
G75*
G02*
X142850000Y-124250000I0J-250000D01*
G01*
G37*
G36*
G01*
X148250000Y-124250000D02*
X148250000Y-125350000D01*
G75*
G02*
X148000000Y-125600000I-250000J0D01*
G01*
X145000000Y-125600000D01*
G75*
G02*
X144750000Y-125350000I0J250000D01*
G01*
X144750000Y-124250000D01*
G75*
G02*
X145000000Y-124000000I250000J0D01*
G01*
X148000000Y-124000000D01*
G75*
G02*
X148250000Y-124250000I0J-250000D01*
G01*
G37*
G36*
G01*
X79550000Y-130950000D02*
X79550000Y-132050000D01*
G75*
G02*
X79300000Y-132300000I-250000J0D01*
G01*
X76300000Y-132300000D01*
G75*
G02*
X76050000Y-132050000I0J250000D01*
G01*
X76050000Y-130950000D01*
G75*
G02*
X76300000Y-130700000I250000J0D01*
G01*
X79300000Y-130700000D01*
G75*
G02*
X79550000Y-130950000I0J-250000D01*
G01*
G37*
G36*
G01*
X84950000Y-130950000D02*
X84950000Y-132050000D01*
G75*
G02*
X84700000Y-132300000I-250000J0D01*
G01*
X81700000Y-132300000D01*
G75*
G02*
X81450000Y-132050000I0J250000D01*
G01*
X81450000Y-130950000D01*
G75*
G02*
X81700000Y-130700000I250000J0D01*
G01*
X84700000Y-130700000D01*
G75*
G02*
X84950000Y-130950000I0J-250000D01*
G01*
G37*
G36*
G01*
X64850000Y-63750000D02*
X64850000Y-64850000D01*
G75*
G02*
X64600000Y-65100000I-250000J0D01*
G01*
X61600000Y-65100000D01*
G75*
G02*
X61350000Y-64850000I0J250000D01*
G01*
X61350000Y-63750000D01*
G75*
G02*
X61600000Y-63500000I250000J0D01*
G01*
X64600000Y-63500000D01*
G75*
G02*
X64850000Y-63750000I0J-250000D01*
G01*
G37*
G36*
G01*
X70250000Y-63750000D02*
X70250000Y-64850000D01*
G75*
G02*
X70000000Y-65100000I-250000J0D01*
G01*
X67000000Y-65100000D01*
G75*
G02*
X66750000Y-64850000I0J250000D01*
G01*
X66750000Y-63750000D01*
G75*
G02*
X67000000Y-63500000I250000J0D01*
G01*
X70000000Y-63500000D01*
G75*
G02*
X70250000Y-63750000I0J-250000D01*
G01*
G37*
G36*
G01*
X169500000Y-55000000D02*
X169500000Y-57000000D01*
G75*
G02*
X169250000Y-57250000I-250000J0D01*
G01*
X166250000Y-57250000D01*
G75*
G02*
X166000000Y-57000000I0J250000D01*
G01*
X166000000Y-55000000D01*
G75*
G02*
X166250000Y-54750000I250000J0D01*
G01*
X169250000Y-54750000D01*
G75*
G02*
X169500000Y-55000000I0J-250000D01*
G01*
G37*
G36*
G01*
X176000000Y-55000000D02*
X176000000Y-57000000D01*
G75*
G02*
X175750000Y-57250000I-250000J0D01*
G01*
X172750000Y-57250000D01*
G75*
G02*
X172500000Y-57000000I0J250000D01*
G01*
X172500000Y-55000000D01*
G75*
G02*
X172750000Y-54750000I250000J0D01*
G01*
X175750000Y-54750000D01*
G75*
G02*
X176000000Y-55000000I0J-250000D01*
G01*
G37*
D16*
X72550000Y-96030000D03*
X72550000Y-93490000D03*
X72550000Y-83330000D03*
D17*
X72550000Y-78250000D03*
D18*
X72550000Y-80790000D03*
X72550000Y-88410000D03*
X72550000Y-90950000D03*
G36*
G01*
X90375000Y-82525000D02*
X90375000Y-83075000D01*
G75*
G02*
X90175000Y-83275000I-200000J0D01*
G01*
X89775000Y-83275000D01*
G75*
G02*
X89575000Y-83075000I0J200000D01*
G01*
X89575000Y-82525000D01*
G75*
G02*
X89775000Y-82325000I200000J0D01*
G01*
X90175000Y-82325000D01*
G75*
G02*
X90375000Y-82525000I0J-200000D01*
G01*
G37*
G36*
G01*
X92025000Y-82525000D02*
X92025000Y-83075000D01*
G75*
G02*
X91825000Y-83275000I-200000J0D01*
G01*
X91425000Y-83275000D01*
G75*
G02*
X91225000Y-83075000I0J200000D01*
G01*
X91225000Y-82525000D01*
G75*
G02*
X91425000Y-82325000I200000J0D01*
G01*
X91825000Y-82325000D01*
G75*
G02*
X92025000Y-82525000I0J-200000D01*
G01*
G37*
G36*
G01*
X158125000Y-116725000D02*
X158675000Y-116725000D01*
G75*
G02*
X158875000Y-116925000I0J-200000D01*
G01*
X158875000Y-117325000D01*
G75*
G02*
X158675000Y-117525000I-200000J0D01*
G01*
X158125000Y-117525000D01*
G75*
G02*
X157925000Y-117325000I0J200000D01*
G01*
X157925000Y-116925000D01*
G75*
G02*
X158125000Y-116725000I200000J0D01*
G01*
G37*
G36*
G01*
X158125000Y-115075000D02*
X158675000Y-115075000D01*
G75*
G02*
X158875000Y-115275000I0J-200000D01*
G01*
X158875000Y-115675000D01*
G75*
G02*
X158675000Y-115875000I-200000J0D01*
G01*
X158125000Y-115875000D01*
G75*
G02*
X157925000Y-115675000I0J200000D01*
G01*
X157925000Y-115275000D01*
G75*
G02*
X158125000Y-115075000I200000J0D01*
G01*
G37*
G36*
G01*
X106865000Y-93525000D02*
X106465000Y-93525000D01*
G75*
G02*
X106265000Y-93325000I0J200000D01*
G01*
X106265000Y-91925000D01*
G75*
G02*
X106465000Y-91725000I200000J0D01*
G01*
X106865000Y-91725000D01*
G75*
G02*
X107065000Y-91925000I0J-200000D01*
G01*
X107065000Y-93325000D01*
G75*
G02*
X106865000Y-93525000I-200000J0D01*
G01*
G37*
G36*
G01*
X108135000Y-93525000D02*
X107735000Y-93525000D01*
G75*
G02*
X107535000Y-93325000I0J200000D01*
G01*
X107535000Y-91925000D01*
G75*
G02*
X107735000Y-91725000I200000J0D01*
G01*
X108135000Y-91725000D01*
G75*
G02*
X108335000Y-91925000I0J-200000D01*
G01*
X108335000Y-93325000D01*
G75*
G02*
X108135000Y-93525000I-200000J0D01*
G01*
G37*
G36*
G01*
X108135000Y-87275000D02*
X107735000Y-87275000D01*
G75*
G02*
X107535000Y-87075000I0J200000D01*
G01*
X107535000Y-85675000D01*
G75*
G02*
X107735000Y-85475000I200000J0D01*
G01*
X108135000Y-85475000D01*
G75*
G02*
X108335000Y-85675000I0J-200000D01*
G01*
X108335000Y-87075000D01*
G75*
G02*
X108135000Y-87275000I-200000J0D01*
G01*
G37*
G36*
G01*
X106865000Y-87275000D02*
X106465000Y-87275000D01*
G75*
G02*
X106265000Y-87075000I0J200000D01*
G01*
X106265000Y-85675000D01*
G75*
G02*
X106465000Y-85475000I200000J0D01*
G01*
X106865000Y-85475000D01*
G75*
G02*
X107065000Y-85675000I0J-200000D01*
G01*
X107065000Y-87075000D01*
G75*
G02*
X106865000Y-87275000I-200000J0D01*
G01*
G37*
D19*
X99300000Y-77943500D03*
X97014000Y-77943500D03*
X101586000Y-77943500D03*
D20*
X99300000Y-70844200D03*
D16*
X175780000Y-128590000D03*
G36*
G01*
X175399000Y-110048000D02*
X176161000Y-110048000D01*
G75*
G02*
X176542000Y-110429000I0J-381000D01*
G01*
X176542000Y-111191000D01*
G75*
G02*
X176161000Y-111572000I-381000J0D01*
G01*
X175399000Y-111572000D01*
G75*
G02*
X175018000Y-111191000I0J381000D01*
G01*
X175018000Y-110429000D01*
G75*
G02*
X175399000Y-110048000I381000J0D01*
G01*
G37*
G36*
G01*
X172859000Y-110048000D02*
X173621000Y-110048000D01*
G75*
G02*
X174002000Y-110429000I0J-381000D01*
G01*
X174002000Y-111191000D01*
G75*
G02*
X173621000Y-111572000I-381000J0D01*
G01*
X172859000Y-111572000D01*
G75*
G02*
X172478000Y-111191000I0J381000D01*
G01*
X172478000Y-110429000D01*
G75*
G02*
X172859000Y-110048000I381000J0D01*
G01*
G37*
X173240000Y-113350000D03*
X173240000Y-115890000D03*
X173240000Y-128590000D03*
X173240000Y-126050000D03*
X173240000Y-123510000D03*
X173240000Y-120970000D03*
X173240000Y-118430000D03*
D21*
X183400000Y-112080000D03*
X183400000Y-127320000D03*
D19*
X79300000Y-77943500D03*
X77014000Y-77943500D03*
X81586000Y-77943500D03*
D20*
X79300000Y-70844200D03*
G36*
G01*
X109050000Y-95975000D02*
X108550000Y-95975000D01*
G75*
G02*
X108325000Y-95750000I0J225000D01*
G01*
X108325000Y-95300000D01*
G75*
G02*
X108550000Y-95075000I225000J0D01*
G01*
X109050000Y-95075000D01*
G75*
G02*
X109275000Y-95300000I0J-225000D01*
G01*
X109275000Y-95750000D01*
G75*
G02*
X109050000Y-95975000I-225000J0D01*
G01*
G37*
G36*
G01*
X109050000Y-97525000D02*
X108550000Y-97525000D01*
G75*
G02*
X108325000Y-97300000I0J225000D01*
G01*
X108325000Y-96850000D01*
G75*
G02*
X108550000Y-96625000I225000J0D01*
G01*
X109050000Y-96625000D01*
G75*
G02*
X109275000Y-96850000I0J-225000D01*
G01*
X109275000Y-97300000D01*
G75*
G02*
X109050000Y-97525000I-225000J0D01*
G01*
G37*
G36*
G01*
X156125000Y-130925000D02*
X156675000Y-130925000D01*
G75*
G02*
X156875000Y-131125000I0J-200000D01*
G01*
X156875000Y-131525000D01*
G75*
G02*
X156675000Y-131725000I-200000J0D01*
G01*
X156125000Y-131725000D01*
G75*
G02*
X155925000Y-131525000I0J200000D01*
G01*
X155925000Y-131125000D01*
G75*
G02*
X156125000Y-130925000I200000J0D01*
G01*
G37*
G36*
G01*
X156125000Y-129275000D02*
X156675000Y-129275000D01*
G75*
G02*
X156875000Y-129475000I0J-200000D01*
G01*
X156875000Y-129875000D01*
G75*
G02*
X156675000Y-130075000I-200000J0D01*
G01*
X156125000Y-130075000D01*
G75*
G02*
X155925000Y-129875000I0J200000D01*
G01*
X155925000Y-129475000D01*
G75*
G02*
X156125000Y-129275000I200000J0D01*
G01*
G37*
D22*
X176400000Y-118800000D03*
X178600000Y-118800000D03*
X178600000Y-121400000D03*
D23*
X176500000Y-121400000D03*
G36*
G01*
X87000000Y-104300000D02*
X87000000Y-103500000D01*
G75*
G02*
X87400000Y-103100000I400000J0D01*
G01*
X88200000Y-103100000D01*
G75*
G02*
X88600000Y-103500000I0J-400000D01*
G01*
X88600000Y-104300000D01*
G75*
G02*
X88200000Y-104700000I-400000J0D01*
G01*
X87400000Y-104700000D01*
G75*
G02*
X87000000Y-104300000I0J400000D01*
G01*
G37*
D24*
X124525000Y-129750000D03*
X132475000Y-129750000D03*
X132475000Y-134250000D03*
X124525000Y-134250000D03*
D25*
X166850000Y-124950000D03*
X166850000Y-126250000D03*
X164950000Y-125600000D03*
X166850000Y-125600000D03*
X164950000Y-126250000D03*
X164950000Y-124950000D03*
G36*
G01*
X146525000Y-92975000D02*
X146525000Y-92425000D01*
G75*
G02*
X146725000Y-92225000I200000J0D01*
G01*
X147125000Y-92225000D01*
G75*
G02*
X147325000Y-92425000I0J-200000D01*
G01*
X147325000Y-92975000D01*
G75*
G02*
X147125000Y-93175000I-200000J0D01*
G01*
X146725000Y-93175000D01*
G75*
G02*
X146525000Y-92975000I0J200000D01*
G01*
G37*
G36*
G01*
X144875000Y-92975000D02*
X144875000Y-92425000D01*
G75*
G02*
X145075000Y-92225000I200000J0D01*
G01*
X145475000Y-92225000D01*
G75*
G02*
X145675000Y-92425000I0J-200000D01*
G01*
X145675000Y-92975000D01*
G75*
G02*
X145475000Y-93175000I-200000J0D01*
G01*
X145075000Y-93175000D01*
G75*
G02*
X144875000Y-92975000I0J200000D01*
G01*
G37*
G36*
G01*
X152475000Y-92425000D02*
X152475000Y-92975000D01*
G75*
G02*
X152275000Y-93175000I-200000J0D01*
G01*
X151875000Y-93175000D01*
G75*
G02*
X151675000Y-92975000I0J200000D01*
G01*
X151675000Y-92425000D01*
G75*
G02*
X151875000Y-92225000I200000J0D01*
G01*
X152275000Y-92225000D01*
G75*
G02*
X152475000Y-92425000I0J-200000D01*
G01*
G37*
G36*
G01*
X154125000Y-92425000D02*
X154125000Y-92975000D01*
G75*
G02*
X153925000Y-93175000I-200000J0D01*
G01*
X153525000Y-93175000D01*
G75*
G02*
X153325000Y-92975000I0J200000D01*
G01*
X153325000Y-92425000D01*
G75*
G02*
X153525000Y-92225000I200000J0D01*
G01*
X153925000Y-92225000D01*
G75*
G02*
X154125000Y-92425000I0J-200000D01*
G01*
G37*
D26*
X150500000Y-91700000D03*
X148500000Y-92650000D03*
X148500000Y-90750000D03*
D27*
X150800000Y-83000000D03*
X150800000Y-80500000D03*
X150800000Y-78000000D03*
G36*
G01*
X150075000Y-74650000D02*
X151525000Y-74650000D01*
G75*
G02*
X151775000Y-74900000I0J-250000D01*
G01*
X151775000Y-76100000D01*
G75*
G02*
X151525000Y-76350000I-250000J0D01*
G01*
X150075000Y-76350000D01*
G75*
G02*
X149825000Y-76100000I0J250000D01*
G01*
X149825000Y-74900000D01*
G75*
G02*
X150075000Y-74650000I250000J0D01*
G01*
G37*
D28*
X87800000Y-125520000D03*
X87800000Y-127800000D03*
X87800000Y-130080000D03*
D29*
X94100000Y-127800000D03*
D30*
X57750000Y-85830000D03*
X57750000Y-101070000D03*
X57750000Y-75670000D03*
X57750000Y-60430000D03*
D31*
X53940000Y-68050000D03*
X53940000Y-93450000D03*
G36*
G01*
X174375000Y-62150000D02*
X174375000Y-62650000D01*
G75*
G02*
X174150000Y-62875000I-225000J0D01*
G01*
X173700000Y-62875000D01*
G75*
G02*
X173475000Y-62650000I0J225000D01*
G01*
X173475000Y-62150000D01*
G75*
G02*
X173700000Y-61925000I225000J0D01*
G01*
X174150000Y-61925000D01*
G75*
G02*
X174375000Y-62150000I0J-225000D01*
G01*
G37*
G36*
G01*
X175925000Y-62150000D02*
X175925000Y-62650000D01*
G75*
G02*
X175700000Y-62875000I-225000J0D01*
G01*
X175250000Y-62875000D01*
G75*
G02*
X175025000Y-62650000I0J225000D01*
G01*
X175025000Y-62150000D01*
G75*
G02*
X175250000Y-61925000I225000J0D01*
G01*
X175700000Y-61925000D01*
G75*
G02*
X175925000Y-62150000I0J-225000D01*
G01*
G37*
G36*
G01*
X81756250Y-93525000D02*
X81243750Y-93525000D01*
G75*
G02*
X81025000Y-93306250I0J218750D01*
G01*
X81025000Y-92868750D01*
G75*
G02*
X81243750Y-92650000I218750J0D01*
G01*
X81756250Y-92650000D01*
G75*
G02*
X81975000Y-92868750I0J-218750D01*
G01*
X81975000Y-93306250D01*
G75*
G02*
X81756250Y-93525000I-218750J0D01*
G01*
G37*
G36*
G01*
X81756250Y-91950000D02*
X81243750Y-91950000D01*
G75*
G02*
X81025000Y-91731250I0J218750D01*
G01*
X81025000Y-91293750D01*
G75*
G02*
X81243750Y-91075000I218750J0D01*
G01*
X81756250Y-91075000D01*
G75*
G02*
X81975000Y-91293750I0J-218750D01*
G01*
X81975000Y-91731250D01*
G75*
G02*
X81756250Y-91950000I-218750J0D01*
G01*
G37*
G36*
G01*
X79075000Y-93525000D02*
X78525000Y-93525000D01*
G75*
G02*
X78325000Y-93325000I0J200000D01*
G01*
X78325000Y-92925000D01*
G75*
G02*
X78525000Y-92725000I200000J0D01*
G01*
X79075000Y-92725000D01*
G75*
G02*
X79275000Y-92925000I0J-200000D01*
G01*
X79275000Y-93325000D01*
G75*
G02*
X79075000Y-93525000I-200000J0D01*
G01*
G37*
G36*
G01*
X79075000Y-91875000D02*
X78525000Y-91875000D01*
G75*
G02*
X78325000Y-91675000I0J200000D01*
G01*
X78325000Y-91275000D01*
G75*
G02*
X78525000Y-91075000I200000J0D01*
G01*
X79075000Y-91075000D01*
G75*
G02*
X79275000Y-91275000I0J-200000D01*
G01*
X79275000Y-91675000D01*
G75*
G02*
X79075000Y-91875000I-200000J0D01*
G01*
G37*
D32*
X84000000Y-92750000D03*
X84000000Y-91850000D03*
D33*
X183850000Y-116965000D03*
X183850000Y-122635000D03*
D34*
X183850000Y-120950000D03*
D23*
X181600000Y-116600000D03*
D35*
X181175000Y-119800000D03*
X181175000Y-119150000D03*
X181175000Y-118500000D03*
X181175000Y-121100000D03*
X181175000Y-120450000D03*
D23*
X181600000Y-123000000D03*
D34*
X183850000Y-118650000D03*
D36*
X181700000Y-121800000D03*
X181700000Y-117800000D03*
D24*
X114025000Y-129750000D03*
X121975000Y-129750000D03*
X121975000Y-134250000D03*
X114025000Y-134250000D03*
G36*
G01*
X180725000Y-114075000D02*
X180725000Y-113525000D01*
G75*
G02*
X180925000Y-113325000I200000J0D01*
G01*
X181325000Y-113325000D01*
G75*
G02*
X181525000Y-113525000I0J-200000D01*
G01*
X181525000Y-114075000D01*
G75*
G02*
X181325000Y-114275000I-200000J0D01*
G01*
X180925000Y-114275000D01*
G75*
G02*
X180725000Y-114075000I0J200000D01*
G01*
G37*
G36*
G01*
X179075000Y-114075000D02*
X179075000Y-113525000D01*
G75*
G02*
X179275000Y-113325000I200000J0D01*
G01*
X179675000Y-113325000D01*
G75*
G02*
X179875000Y-113525000I0J-200000D01*
G01*
X179875000Y-114075000D01*
G75*
G02*
X179675000Y-114275000I-200000J0D01*
G01*
X179275000Y-114275000D01*
G75*
G02*
X179075000Y-114075000I0J200000D01*
G01*
G37*
G36*
G01*
X173725000Y-132075000D02*
X173725000Y-131525000D01*
G75*
G02*
X173925000Y-131325000I200000J0D01*
G01*
X174325000Y-131325000D01*
G75*
G02*
X174525000Y-131525000I0J-200000D01*
G01*
X174525000Y-132075000D01*
G75*
G02*
X174325000Y-132275000I-200000J0D01*
G01*
X173925000Y-132275000D01*
G75*
G02*
X173725000Y-132075000I0J200000D01*
G01*
G37*
G36*
G01*
X172075000Y-132075000D02*
X172075000Y-131525000D01*
G75*
G02*
X172275000Y-131325000I200000J0D01*
G01*
X172675000Y-131325000D01*
G75*
G02*
X172875000Y-131525000I0J-200000D01*
G01*
X172875000Y-132075000D01*
G75*
G02*
X172675000Y-132275000I-200000J0D01*
G01*
X172275000Y-132275000D01*
G75*
G02*
X172075000Y-132075000I0J200000D01*
G01*
G37*
G36*
G01*
X96875000Y-82525000D02*
X96875000Y-83075000D01*
G75*
G02*
X96675000Y-83275000I-200000J0D01*
G01*
X96275000Y-83275000D01*
G75*
G02*
X96075000Y-83075000I0J200000D01*
G01*
X96075000Y-82525000D01*
G75*
G02*
X96275000Y-82325000I200000J0D01*
G01*
X96675000Y-82325000D01*
G75*
G02*
X96875000Y-82525000I0J-200000D01*
G01*
G37*
G36*
G01*
X98525000Y-82525000D02*
X98525000Y-83075000D01*
G75*
G02*
X98325000Y-83275000I-200000J0D01*
G01*
X97925000Y-83275000D01*
G75*
G02*
X97725000Y-83075000I0J200000D01*
G01*
X97725000Y-82525000D01*
G75*
G02*
X97925000Y-82325000I200000J0D01*
G01*
X98325000Y-82325000D01*
G75*
G02*
X98525000Y-82525000I0J-200000D01*
G01*
G37*
D17*
X67550000Y-78250000D03*
D18*
X67550000Y-80790000D03*
X67550000Y-85870000D03*
X67550000Y-88410000D03*
X67550000Y-90950000D03*
D37*
X155000000Y-53000000D03*
G36*
G01*
X158350000Y-52250000D02*
X158350000Y-53750000D01*
G75*
G02*
X158100000Y-54000000I-250000J0D01*
G01*
X156900000Y-54000000D01*
G75*
G02*
X156650000Y-53750000I0J250000D01*
G01*
X156650000Y-52250000D01*
G75*
G02*
X156900000Y-52000000I250000J0D01*
G01*
X158100000Y-52000000D01*
G75*
G02*
X158350000Y-52250000I0J-250000D01*
G01*
G37*
D38*
X182000000Y-54000000D03*
D39*
X184400000Y-54000000D03*
X183697056Y-55697056D03*
X182000000Y-56400000D03*
X180302944Y-55697056D03*
X179600000Y-54000000D03*
X180302944Y-52302944D03*
X182000000Y-51600000D03*
X183697056Y-52302944D03*
D38*
X182000000Y-134000000D03*
D39*
X184400000Y-134000000D03*
X183697056Y-135697056D03*
X182000000Y-136400000D03*
X180302944Y-135697056D03*
X179600000Y-134000000D03*
X180302944Y-132302944D03*
X182000000Y-131600000D03*
X183697056Y-132302944D03*
D38*
X54000000Y-54000000D03*
D39*
X56400000Y-54000000D03*
X55697056Y-55697056D03*
X54000000Y-56400000D03*
X52302944Y-55697056D03*
X51600000Y-54000000D03*
X52302944Y-52302944D03*
X54000000Y-51600000D03*
X55697056Y-52302944D03*
D38*
X54000000Y-134000000D03*
D39*
X56400000Y-134000000D03*
X55697056Y-135697056D03*
X54000000Y-136400000D03*
X52302944Y-135697056D03*
X51600000Y-134000000D03*
X52302944Y-132302944D03*
X54000000Y-131600000D03*
X55697056Y-132302944D03*
G36*
G01*
X58800000Y-115300000D02*
X56200000Y-115300000D01*
G75*
G02*
X55550000Y-114650000I0J650000D01*
G01*
X55550000Y-113350000D01*
G75*
G02*
X56200000Y-112700000I650000J0D01*
G01*
X58800000Y-112700000D01*
G75*
G02*
X59450000Y-113350000I0J-650000D01*
G01*
X59450000Y-114650000D01*
G75*
G02*
X58800000Y-115300000I-650000J0D01*
G01*
G37*
D40*
X78000000Y-114000000D03*
D30*
X72249000Y-118762000D03*
X64000000Y-104475000D03*
X55751000Y-118762000D03*
D41*
X52600000Y-114000000D03*
D42*
X57500000Y-114000000D03*
X78500000Y-114000000D03*
G36*
G01*
X96055000Y-87275000D02*
X95655000Y-87275000D01*
G75*
G02*
X95455000Y-87075000I0J200000D01*
G01*
X95455000Y-85675000D01*
G75*
G02*
X95655000Y-85475000I200000J0D01*
G01*
X96055000Y-85475000D01*
G75*
G02*
X96255000Y-85675000I0J-200000D01*
G01*
X96255000Y-87075000D01*
G75*
G02*
X96055000Y-87275000I-200000J0D01*
G01*
G37*
G36*
G01*
X97325000Y-87275000D02*
X96925000Y-87275000D01*
G75*
G02*
X96725000Y-87075000I0J200000D01*
G01*
X96725000Y-85675000D01*
G75*
G02*
X96925000Y-85475000I200000J0D01*
G01*
X97325000Y-85475000D01*
G75*
G02*
X97525000Y-85675000I0J-200000D01*
G01*
X97525000Y-87075000D01*
G75*
G02*
X97325000Y-87275000I-200000J0D01*
G01*
G37*
G36*
G01*
X98595000Y-87275000D02*
X98195000Y-87275000D01*
G75*
G02*
X97995000Y-87075000I0J200000D01*
G01*
X97995000Y-85675000D01*
G75*
G02*
X98195000Y-85475000I200000J0D01*
G01*
X98595000Y-85475000D01*
G75*
G02*
X98795000Y-85675000I0J-200000D01*
G01*
X98795000Y-87075000D01*
G75*
G02*
X98595000Y-87275000I-200000J0D01*
G01*
G37*
G36*
G01*
X99865000Y-87275000D02*
X99465000Y-87275000D01*
G75*
G02*
X99265000Y-87075000I0J200000D01*
G01*
X99265000Y-85675000D01*
G75*
G02*
X99465000Y-85475000I200000J0D01*
G01*
X99865000Y-85475000D01*
G75*
G02*
X100065000Y-85675000I0J-200000D01*
G01*
X100065000Y-87075000D01*
G75*
G02*
X99865000Y-87275000I-200000J0D01*
G01*
G37*
G36*
G01*
X101135000Y-87275000D02*
X100735000Y-87275000D01*
G75*
G02*
X100535000Y-87075000I0J200000D01*
G01*
X100535000Y-85675000D01*
G75*
G02*
X100735000Y-85475000I200000J0D01*
G01*
X101135000Y-85475000D01*
G75*
G02*
X101335000Y-85675000I0J-200000D01*
G01*
X101335000Y-87075000D01*
G75*
G02*
X101135000Y-87275000I-200000J0D01*
G01*
G37*
G36*
G01*
X102405000Y-87275000D02*
X102005000Y-87275000D01*
G75*
G02*
X101805000Y-87075000I0J200000D01*
G01*
X101805000Y-85675000D01*
G75*
G02*
X102005000Y-85475000I200000J0D01*
G01*
X102405000Y-85475000D01*
G75*
G02*
X102605000Y-85675000I0J-200000D01*
G01*
X102605000Y-87075000D01*
G75*
G02*
X102405000Y-87275000I-200000J0D01*
G01*
G37*
G36*
G01*
X103675000Y-87275000D02*
X103275000Y-87275000D01*
G75*
G02*
X103075000Y-87075000I0J200000D01*
G01*
X103075000Y-85675000D01*
G75*
G02*
X103275000Y-85475000I200000J0D01*
G01*
X103675000Y-85475000D01*
G75*
G02*
X103875000Y-85675000I0J-200000D01*
G01*
X103875000Y-87075000D01*
G75*
G02*
X103675000Y-87275000I-200000J0D01*
G01*
G37*
G36*
G01*
X104945000Y-87275000D02*
X104545000Y-87275000D01*
G75*
G02*
X104345000Y-87075000I0J200000D01*
G01*
X104345000Y-85675000D01*
G75*
G02*
X104545000Y-85475000I200000J0D01*
G01*
X104945000Y-85475000D01*
G75*
G02*
X105145000Y-85675000I0J-200000D01*
G01*
X105145000Y-87075000D01*
G75*
G02*
X104945000Y-87275000I-200000J0D01*
G01*
G37*
G36*
G01*
X104945000Y-93525000D02*
X104545000Y-93525000D01*
G75*
G02*
X104345000Y-93325000I0J200000D01*
G01*
X104345000Y-91925000D01*
G75*
G02*
X104545000Y-91725000I200000J0D01*
G01*
X104945000Y-91725000D01*
G75*
G02*
X105145000Y-91925000I0J-200000D01*
G01*
X105145000Y-93325000D01*
G75*
G02*
X104945000Y-93525000I-200000J0D01*
G01*
G37*
G36*
G01*
X103675000Y-93525000D02*
X103275000Y-93525000D01*
G75*
G02*
X103075000Y-93325000I0J200000D01*
G01*
X103075000Y-91925000D01*
G75*
G02*
X103275000Y-91725000I200000J0D01*
G01*
X103675000Y-91725000D01*
G75*
G02*
X103875000Y-91925000I0J-200000D01*
G01*
X103875000Y-93325000D01*
G75*
G02*
X103675000Y-93525000I-200000J0D01*
G01*
G37*
G36*
G01*
X102405000Y-93525000D02*
X102005000Y-93525000D01*
G75*
G02*
X101805000Y-93325000I0J200000D01*
G01*
X101805000Y-91925000D01*
G75*
G02*
X102005000Y-91725000I200000J0D01*
G01*
X102405000Y-91725000D01*
G75*
G02*
X102605000Y-91925000I0J-200000D01*
G01*
X102605000Y-93325000D01*
G75*
G02*
X102405000Y-93525000I-200000J0D01*
G01*
G37*
G36*
G01*
X101135000Y-93525000D02*
X100735000Y-93525000D01*
G75*
G02*
X100535000Y-93325000I0J200000D01*
G01*
X100535000Y-91925000D01*
G75*
G02*
X100735000Y-91725000I200000J0D01*
G01*
X101135000Y-91725000D01*
G75*
G02*
X101335000Y-91925000I0J-200000D01*
G01*
X101335000Y-93325000D01*
G75*
G02*
X101135000Y-93525000I-200000J0D01*
G01*
G37*
G36*
G01*
X99865000Y-93525000D02*
X99465000Y-93525000D01*
G75*
G02*
X99265000Y-93325000I0J200000D01*
G01*
X99265000Y-91925000D01*
G75*
G02*
X99465000Y-91725000I200000J0D01*
G01*
X99865000Y-91725000D01*
G75*
G02*
X100065000Y-91925000I0J-200000D01*
G01*
X100065000Y-93325000D01*
G75*
G02*
X99865000Y-93525000I-200000J0D01*
G01*
G37*
G36*
G01*
X98595000Y-93525000D02*
X98195000Y-93525000D01*
G75*
G02*
X97995000Y-93325000I0J200000D01*
G01*
X97995000Y-91925000D01*
G75*
G02*
X98195000Y-91725000I200000J0D01*
G01*
X98595000Y-91725000D01*
G75*
G02*
X98795000Y-91925000I0J-200000D01*
G01*
X98795000Y-93325000D01*
G75*
G02*
X98595000Y-93525000I-200000J0D01*
G01*
G37*
G36*
G01*
X97325000Y-93525000D02*
X96925000Y-93525000D01*
G75*
G02*
X96725000Y-93325000I0J200000D01*
G01*
X96725000Y-91925000D01*
G75*
G02*
X96925000Y-91725000I200000J0D01*
G01*
X97325000Y-91725000D01*
G75*
G02*
X97525000Y-91925000I0J-200000D01*
G01*
X97525000Y-93325000D01*
G75*
G02*
X97325000Y-93525000I-200000J0D01*
G01*
G37*
G36*
G01*
X96055000Y-93525000D02*
X95655000Y-93525000D01*
G75*
G02*
X95455000Y-93325000I0J200000D01*
G01*
X95455000Y-91925000D01*
G75*
G02*
X95655000Y-91725000I200000J0D01*
G01*
X96055000Y-91725000D01*
G75*
G02*
X96255000Y-91925000I0J-200000D01*
G01*
X96255000Y-93325000D01*
G75*
G02*
X96055000Y-93525000I-200000J0D01*
G01*
G37*
D43*
X155562500Y-124462500D03*
X155562500Y-126137500D03*
X157237500Y-124462500D03*
X157237500Y-126137500D03*
D44*
X154900000Y-122850000D03*
X155400000Y-122850000D03*
X155900000Y-122850000D03*
X156400000Y-122850000D03*
X156900000Y-122850000D03*
X157400000Y-122850000D03*
X157900000Y-122850000D03*
D45*
X158850000Y-123800000D03*
X158850000Y-124300000D03*
X158850000Y-124800000D03*
X158850000Y-125300000D03*
X158850000Y-125800000D03*
X158850000Y-126300000D03*
X158850000Y-126800000D03*
D44*
X157900000Y-127750000D03*
X157400000Y-127750000D03*
X156900000Y-127750000D03*
X156400000Y-127750000D03*
X155900000Y-127750000D03*
X155400000Y-127750000D03*
X154900000Y-127750000D03*
D45*
X153950000Y-126800000D03*
X153950000Y-126300000D03*
X153950000Y-125800000D03*
X153950000Y-125300000D03*
X153950000Y-124800000D03*
X153950000Y-124300000D03*
X153950000Y-123800000D03*
D39*
X155765000Y-124665000D03*
X157035000Y-124665000D03*
X157035000Y-125935000D03*
X155765000Y-125935000D03*
X156400000Y-125300000D03*
D46*
X92445000Y-116150740D03*
X91175000Y-116150740D03*
X89905000Y-116150740D03*
X88635000Y-116150740D03*
X87365000Y-116150740D03*
X86095000Y-116150740D03*
X84825000Y-116150740D03*
X83555000Y-116150740D03*
X83555000Y-106849260D03*
X84825000Y-106849260D03*
X86095000Y-106849260D03*
X87365000Y-106849260D03*
X88635000Y-106849260D03*
X89905000Y-106849260D03*
X91175000Y-106849260D03*
X92445000Y-106849260D03*
G36*
G01*
X94620000Y-104300000D02*
X94620000Y-103500000D01*
G75*
G02*
X95020000Y-103100000I400000J0D01*
G01*
X95820000Y-103100000D01*
G75*
G02*
X96220000Y-103500000I0J-400000D01*
G01*
X96220000Y-104300000D01*
G75*
G02*
X95820000Y-104700000I-400000J0D01*
G01*
X95020000Y-104700000D01*
G75*
G02*
X94620000Y-104300000I0J400000D01*
G01*
G37*
G36*
G01*
X84460000Y-104300000D02*
X84460000Y-103500000D01*
G75*
G02*
X84860000Y-103100000I400000J0D01*
G01*
X85660000Y-103100000D01*
G75*
G02*
X86060000Y-103500000I0J-400000D01*
G01*
X86060000Y-104300000D01*
G75*
G02*
X85660000Y-104700000I-400000J0D01*
G01*
X84860000Y-104700000D01*
G75*
G02*
X84460000Y-104300000I0J400000D01*
G01*
G37*
G36*
G01*
X136725000Y-57775000D02*
X136725000Y-57225000D01*
G75*
G02*
X136925000Y-57025000I200000J0D01*
G01*
X137325000Y-57025000D01*
G75*
G02*
X137525000Y-57225000I0J-200000D01*
G01*
X137525000Y-57775000D01*
G75*
G02*
X137325000Y-57975000I-200000J0D01*
G01*
X136925000Y-57975000D01*
G75*
G02*
X136725000Y-57775000I0J200000D01*
G01*
G37*
G36*
G01*
X135075000Y-57775000D02*
X135075000Y-57225000D01*
G75*
G02*
X135275000Y-57025000I200000J0D01*
G01*
X135675000Y-57025000D01*
G75*
G02*
X135875000Y-57225000I0J-200000D01*
G01*
X135875000Y-57775000D01*
G75*
G02*
X135675000Y-57975000I-200000J0D01*
G01*
X135275000Y-57975000D01*
G75*
G02*
X135075000Y-57775000I0J200000D01*
G01*
G37*
G36*
G01*
X146525000Y-89375000D02*
X146525000Y-88825000D01*
G75*
G02*
X146725000Y-88625000I200000J0D01*
G01*
X147125000Y-88625000D01*
G75*
G02*
X147325000Y-88825000I0J-200000D01*
G01*
X147325000Y-89375000D01*
G75*
G02*
X147125000Y-89575000I-200000J0D01*
G01*
X146725000Y-89575000D01*
G75*
G02*
X146525000Y-89375000I0J200000D01*
G01*
G37*
G36*
G01*
X144875000Y-89375000D02*
X144875000Y-88825000D01*
G75*
G02*
X145075000Y-88625000I200000J0D01*
G01*
X145475000Y-88625000D01*
G75*
G02*
X145675000Y-88825000I0J-200000D01*
G01*
X145675000Y-89375000D01*
G75*
G02*
X145475000Y-89575000I-200000J0D01*
G01*
X145075000Y-89575000D01*
G75*
G02*
X144875000Y-89375000I0J200000D01*
G01*
G37*
G36*
G01*
X152475000Y-88825000D02*
X152475000Y-89375000D01*
G75*
G02*
X152275000Y-89575000I-200000J0D01*
G01*
X151875000Y-89575000D01*
G75*
G02*
X151675000Y-89375000I0J200000D01*
G01*
X151675000Y-88825000D01*
G75*
G02*
X151875000Y-88625000I200000J0D01*
G01*
X152275000Y-88625000D01*
G75*
G02*
X152475000Y-88825000I0J-200000D01*
G01*
G37*
G36*
G01*
X154125000Y-88825000D02*
X154125000Y-89375000D01*
G75*
G02*
X153925000Y-89575000I-200000J0D01*
G01*
X153525000Y-89575000D01*
G75*
G02*
X153325000Y-89375000I0J200000D01*
G01*
X153325000Y-88825000D01*
G75*
G02*
X153525000Y-88625000I200000J0D01*
G01*
X153925000Y-88625000D01*
G75*
G02*
X154125000Y-88825000I0J-200000D01*
G01*
G37*
G36*
G01*
X146625000Y-67775000D02*
X146625000Y-67225000D01*
G75*
G02*
X146825000Y-67025000I200000J0D01*
G01*
X147225000Y-67025000D01*
G75*
G02*
X147425000Y-67225000I0J-200000D01*
G01*
X147425000Y-67775000D01*
G75*
G02*
X147225000Y-67975000I-200000J0D01*
G01*
X146825000Y-67975000D01*
G75*
G02*
X146625000Y-67775000I0J200000D01*
G01*
G37*
G36*
G01*
X144975000Y-67775000D02*
X144975000Y-67225000D01*
G75*
G02*
X145175000Y-67025000I200000J0D01*
G01*
X145575000Y-67025000D01*
G75*
G02*
X145775000Y-67225000I0J-200000D01*
G01*
X145775000Y-67775000D01*
G75*
G02*
X145575000Y-67975000I-200000J0D01*
G01*
X145175000Y-67975000D01*
G75*
G02*
X144975000Y-67775000I0J200000D01*
G01*
G37*
G36*
G01*
X152575000Y-67225000D02*
X152575000Y-67775000D01*
G75*
G02*
X152375000Y-67975000I-200000J0D01*
G01*
X151975000Y-67975000D01*
G75*
G02*
X151775000Y-67775000I0J200000D01*
G01*
X151775000Y-67225000D01*
G75*
G02*
X151975000Y-67025000I200000J0D01*
G01*
X152375000Y-67025000D01*
G75*
G02*
X152575000Y-67225000I0J-200000D01*
G01*
G37*
G36*
G01*
X154225000Y-67225000D02*
X154225000Y-67775000D01*
G75*
G02*
X154025000Y-67975000I-200000J0D01*
G01*
X153625000Y-67975000D01*
G75*
G02*
X153425000Y-67775000I0J200000D01*
G01*
X153425000Y-67225000D01*
G75*
G02*
X153625000Y-67025000I200000J0D01*
G01*
X154025000Y-67025000D01*
G75*
G02*
X154225000Y-67225000I0J-200000D01*
G01*
G37*
G36*
G01*
X146625000Y-71475000D02*
X146625000Y-70925000D01*
G75*
G02*
X146825000Y-70725000I200000J0D01*
G01*
X147225000Y-70725000D01*
G75*
G02*
X147425000Y-70925000I0J-200000D01*
G01*
X147425000Y-71475000D01*
G75*
G02*
X147225000Y-71675000I-200000J0D01*
G01*
X146825000Y-71675000D01*
G75*
G02*
X146625000Y-71475000I0J200000D01*
G01*
G37*
G36*
G01*
X144975000Y-71475000D02*
X144975000Y-70925000D01*
G75*
G02*
X145175000Y-70725000I200000J0D01*
G01*
X145575000Y-70725000D01*
G75*
G02*
X145775000Y-70925000I0J-200000D01*
G01*
X145775000Y-71475000D01*
G75*
G02*
X145575000Y-71675000I-200000J0D01*
G01*
X145175000Y-71675000D01*
G75*
G02*
X144975000Y-71475000I0J200000D01*
G01*
G37*
G36*
G01*
X152575000Y-70925000D02*
X152575000Y-71475000D01*
G75*
G02*
X152375000Y-71675000I-200000J0D01*
G01*
X151975000Y-71675000D01*
G75*
G02*
X151775000Y-71475000I0J200000D01*
G01*
X151775000Y-70925000D01*
G75*
G02*
X151975000Y-70725000I200000J0D01*
G01*
X152375000Y-70725000D01*
G75*
G02*
X152575000Y-70925000I0J-200000D01*
G01*
G37*
G36*
G01*
X154225000Y-70925000D02*
X154225000Y-71475000D01*
G75*
G02*
X154025000Y-71675000I-200000J0D01*
G01*
X153625000Y-71675000D01*
G75*
G02*
X153425000Y-71475000I0J200000D01*
G01*
X153425000Y-70925000D01*
G75*
G02*
X153625000Y-70725000I200000J0D01*
G01*
X154025000Y-70725000D01*
G75*
G02*
X154225000Y-70925000I0J-200000D01*
G01*
G37*
G36*
G01*
X144275000Y-57825000D02*
X143725000Y-57825000D01*
G75*
G02*
X143525000Y-57625000I0J200000D01*
G01*
X143525000Y-57225000D01*
G75*
G02*
X143725000Y-57025000I200000J0D01*
G01*
X144275000Y-57025000D01*
G75*
G02*
X144475000Y-57225000I0J-200000D01*
G01*
X144475000Y-57625000D01*
G75*
G02*
X144275000Y-57825000I-200000J0D01*
G01*
G37*
G36*
G01*
X144275000Y-59475000D02*
X143725000Y-59475000D01*
G75*
G02*
X143525000Y-59275000I0J200000D01*
G01*
X143525000Y-58875000D01*
G75*
G02*
X143725000Y-58675000I200000J0D01*
G01*
X144275000Y-58675000D01*
G75*
G02*
X144475000Y-58875000I0J-200000D01*
G01*
X144475000Y-59275000D01*
G75*
G02*
X144275000Y-59475000I-200000J0D01*
G01*
G37*
G36*
G01*
X149225000Y-58675000D02*
X149775000Y-58675000D01*
G75*
G02*
X149975000Y-58875000I0J-200000D01*
G01*
X149975000Y-59275000D01*
G75*
G02*
X149775000Y-59475000I-200000J0D01*
G01*
X149225000Y-59475000D01*
G75*
G02*
X149025000Y-59275000I0J200000D01*
G01*
X149025000Y-58875000D01*
G75*
G02*
X149225000Y-58675000I200000J0D01*
G01*
G37*
G36*
G01*
X149225000Y-57025000D02*
X149775000Y-57025000D01*
G75*
G02*
X149975000Y-57225000I0J-200000D01*
G01*
X149975000Y-57625000D01*
G75*
G02*
X149775000Y-57825000I-200000J0D01*
G01*
X149225000Y-57825000D01*
G75*
G02*
X149025000Y-57625000I0J200000D01*
G01*
X149025000Y-57225000D01*
G75*
G02*
X149225000Y-57025000I200000J0D01*
G01*
G37*
G36*
G01*
X120375000Y-82525000D02*
X120375000Y-83075000D01*
G75*
G02*
X120175000Y-83275000I-200000J0D01*
G01*
X119775000Y-83275000D01*
G75*
G02*
X119575000Y-83075000I0J200000D01*
G01*
X119575000Y-82525000D01*
G75*
G02*
X119775000Y-82325000I200000J0D01*
G01*
X120175000Y-82325000D01*
G75*
G02*
X120375000Y-82525000I0J-200000D01*
G01*
G37*
G36*
G01*
X122025000Y-82525000D02*
X122025000Y-83075000D01*
G75*
G02*
X121825000Y-83275000I-200000J0D01*
G01*
X121425000Y-83275000D01*
G75*
G02*
X121225000Y-83075000I0J200000D01*
G01*
X121225000Y-82525000D01*
G75*
G02*
X121425000Y-82325000I200000J0D01*
G01*
X121825000Y-82325000D01*
G75*
G02*
X122025000Y-82525000I0J-200000D01*
G01*
G37*
G36*
G01*
X116875000Y-82525000D02*
X116875000Y-83075000D01*
G75*
G02*
X116675000Y-83275000I-200000J0D01*
G01*
X116275000Y-83275000D01*
G75*
G02*
X116075000Y-83075000I0J200000D01*
G01*
X116075000Y-82525000D01*
G75*
G02*
X116275000Y-82325000I200000J0D01*
G01*
X116675000Y-82325000D01*
G75*
G02*
X116875000Y-82525000I0J-200000D01*
G01*
G37*
G36*
G01*
X118525000Y-82525000D02*
X118525000Y-83075000D01*
G75*
G02*
X118325000Y-83275000I-200000J0D01*
G01*
X117925000Y-83275000D01*
G75*
G02*
X117725000Y-83075000I0J200000D01*
G01*
X117725000Y-82525000D01*
G75*
G02*
X117925000Y-82325000I200000J0D01*
G01*
X118325000Y-82325000D01*
G75*
G02*
X118525000Y-82525000I0J-200000D01*
G01*
G37*
G36*
G01*
X116875000Y-80525000D02*
X116875000Y-81075000D01*
G75*
G02*
X116675000Y-81275000I-200000J0D01*
G01*
X116275000Y-81275000D01*
G75*
G02*
X116075000Y-81075000I0J200000D01*
G01*
X116075000Y-80525000D01*
G75*
G02*
X116275000Y-80325000I200000J0D01*
G01*
X116675000Y-80325000D01*
G75*
G02*
X116875000Y-80525000I0J-200000D01*
G01*
G37*
G36*
G01*
X118525000Y-80525000D02*
X118525000Y-81075000D01*
G75*
G02*
X118325000Y-81275000I-200000J0D01*
G01*
X117925000Y-81275000D01*
G75*
G02*
X117725000Y-81075000I0J200000D01*
G01*
X117725000Y-80525000D01*
G75*
G02*
X117925000Y-80325000I200000J0D01*
G01*
X118325000Y-80325000D01*
G75*
G02*
X118525000Y-80525000I0J-200000D01*
G01*
G37*
G36*
G01*
X107575000Y-95875000D02*
X107025000Y-95875000D01*
G75*
G02*
X106825000Y-95675000I0J200000D01*
G01*
X106825000Y-95275000D01*
G75*
G02*
X107025000Y-95075000I200000J0D01*
G01*
X107575000Y-95075000D01*
G75*
G02*
X107775000Y-95275000I0J-200000D01*
G01*
X107775000Y-95675000D01*
G75*
G02*
X107575000Y-95875000I-200000J0D01*
G01*
G37*
G36*
G01*
X107575000Y-97525000D02*
X107025000Y-97525000D01*
G75*
G02*
X106825000Y-97325000I0J200000D01*
G01*
X106825000Y-96925000D01*
G75*
G02*
X107025000Y-96725000I200000J0D01*
G01*
X107575000Y-96725000D01*
G75*
G02*
X107775000Y-96925000I0J-200000D01*
G01*
X107775000Y-97325000D01*
G75*
G02*
X107575000Y-97525000I-200000J0D01*
G01*
G37*
G36*
G01*
X110375000Y-82525000D02*
X110375000Y-83075000D01*
G75*
G02*
X110175000Y-83275000I-200000J0D01*
G01*
X109775000Y-83275000D01*
G75*
G02*
X109575000Y-83075000I0J200000D01*
G01*
X109575000Y-82525000D01*
G75*
G02*
X109775000Y-82325000I200000J0D01*
G01*
X110175000Y-82325000D01*
G75*
G02*
X110375000Y-82525000I0J-200000D01*
G01*
G37*
G36*
G01*
X112025000Y-82525000D02*
X112025000Y-83075000D01*
G75*
G02*
X111825000Y-83275000I-200000J0D01*
G01*
X111425000Y-83275000D01*
G75*
G02*
X111225000Y-83075000I0J200000D01*
G01*
X111225000Y-82525000D01*
G75*
G02*
X111425000Y-82325000I200000J0D01*
G01*
X111825000Y-82325000D01*
G75*
G02*
X112025000Y-82525000I0J-200000D01*
G01*
G37*
G36*
G01*
X106875000Y-82525000D02*
X106875000Y-83075000D01*
G75*
G02*
X106675000Y-83275000I-200000J0D01*
G01*
X106275000Y-83275000D01*
G75*
G02*
X106075000Y-83075000I0J200000D01*
G01*
X106075000Y-82525000D01*
G75*
G02*
X106275000Y-82325000I200000J0D01*
G01*
X106675000Y-82325000D01*
G75*
G02*
X106875000Y-82525000I0J-200000D01*
G01*
G37*
G36*
G01*
X108525000Y-82525000D02*
X108525000Y-83075000D01*
G75*
G02*
X108325000Y-83275000I-200000J0D01*
G01*
X107925000Y-83275000D01*
G75*
G02*
X107725000Y-83075000I0J200000D01*
G01*
X107725000Y-82525000D01*
G75*
G02*
X107925000Y-82325000I200000J0D01*
G01*
X108325000Y-82325000D01*
G75*
G02*
X108525000Y-82525000I0J-200000D01*
G01*
G37*
G36*
G01*
X106875000Y-80525000D02*
X106875000Y-81075000D01*
G75*
G02*
X106675000Y-81275000I-200000J0D01*
G01*
X106275000Y-81275000D01*
G75*
G02*
X106075000Y-81075000I0J200000D01*
G01*
X106075000Y-80525000D01*
G75*
G02*
X106275000Y-80325000I200000J0D01*
G01*
X106675000Y-80325000D01*
G75*
G02*
X106875000Y-80525000I0J-200000D01*
G01*
G37*
G36*
G01*
X108525000Y-80525000D02*
X108525000Y-81075000D01*
G75*
G02*
X108325000Y-81275000I-200000J0D01*
G01*
X107925000Y-81275000D01*
G75*
G02*
X107725000Y-81075000I0J200000D01*
G01*
X107725000Y-80525000D01*
G75*
G02*
X107925000Y-80325000I200000J0D01*
G01*
X108325000Y-80325000D01*
G75*
G02*
X108525000Y-80525000I0J-200000D01*
G01*
G37*
G36*
G01*
X104575000Y-95875000D02*
X104025000Y-95875000D01*
G75*
G02*
X103825000Y-95675000I0J200000D01*
G01*
X103825000Y-95275000D01*
G75*
G02*
X104025000Y-95075000I200000J0D01*
G01*
X104575000Y-95075000D01*
G75*
G02*
X104775000Y-95275000I0J-200000D01*
G01*
X104775000Y-95675000D01*
G75*
G02*
X104575000Y-95875000I-200000J0D01*
G01*
G37*
G36*
G01*
X104575000Y-97525000D02*
X104025000Y-97525000D01*
G75*
G02*
X103825000Y-97325000I0J200000D01*
G01*
X103825000Y-96925000D01*
G75*
G02*
X104025000Y-96725000I200000J0D01*
G01*
X104575000Y-96725000D01*
G75*
G02*
X104775000Y-96925000I0J-200000D01*
G01*
X104775000Y-97325000D01*
G75*
G02*
X104575000Y-97525000I-200000J0D01*
G01*
G37*
G36*
G01*
X100375000Y-82525000D02*
X100375000Y-83075000D01*
G75*
G02*
X100175000Y-83275000I-200000J0D01*
G01*
X99775000Y-83275000D01*
G75*
G02*
X99575000Y-83075000I0J200000D01*
G01*
X99575000Y-82525000D01*
G75*
G02*
X99775000Y-82325000I200000J0D01*
G01*
X100175000Y-82325000D01*
G75*
G02*
X100375000Y-82525000I0J-200000D01*
G01*
G37*
G36*
G01*
X102025000Y-82525000D02*
X102025000Y-83075000D01*
G75*
G02*
X101825000Y-83275000I-200000J0D01*
G01*
X101425000Y-83275000D01*
G75*
G02*
X101225000Y-83075000I0J200000D01*
G01*
X101225000Y-82525000D01*
G75*
G02*
X101425000Y-82325000I200000J0D01*
G01*
X101825000Y-82325000D01*
G75*
G02*
X102025000Y-82525000I0J-200000D01*
G01*
G37*
G36*
G01*
X96875000Y-80525000D02*
X96875000Y-81075000D01*
G75*
G02*
X96675000Y-81275000I-200000J0D01*
G01*
X96275000Y-81275000D01*
G75*
G02*
X96075000Y-81075000I0J200000D01*
G01*
X96075000Y-80525000D01*
G75*
G02*
X96275000Y-80325000I200000J0D01*
G01*
X96675000Y-80325000D01*
G75*
G02*
X96875000Y-80525000I0J-200000D01*
G01*
G37*
G36*
G01*
X98525000Y-80525000D02*
X98525000Y-81075000D01*
G75*
G02*
X98325000Y-81275000I-200000J0D01*
G01*
X97925000Y-81275000D01*
G75*
G02*
X97725000Y-81075000I0J200000D01*
G01*
X97725000Y-80525000D01*
G75*
G02*
X97925000Y-80325000I200000J0D01*
G01*
X98325000Y-80325000D01*
G75*
G02*
X98525000Y-80525000I0J-200000D01*
G01*
G37*
G36*
G01*
X101575000Y-95875000D02*
X101025000Y-95875000D01*
G75*
G02*
X100825000Y-95675000I0J200000D01*
G01*
X100825000Y-95275000D01*
G75*
G02*
X101025000Y-95075000I200000J0D01*
G01*
X101575000Y-95075000D01*
G75*
G02*
X101775000Y-95275000I0J-200000D01*
G01*
X101775000Y-95675000D01*
G75*
G02*
X101575000Y-95875000I-200000J0D01*
G01*
G37*
G36*
G01*
X101575000Y-97525000D02*
X101025000Y-97525000D01*
G75*
G02*
X100825000Y-97325000I0J200000D01*
G01*
X100825000Y-96925000D01*
G75*
G02*
X101025000Y-96725000I200000J0D01*
G01*
X101575000Y-96725000D01*
G75*
G02*
X101775000Y-96925000I0J-200000D01*
G01*
X101775000Y-97325000D01*
G75*
G02*
X101575000Y-97525000I-200000J0D01*
G01*
G37*
G36*
G01*
X86875000Y-82525000D02*
X86875000Y-83075000D01*
G75*
G02*
X86675000Y-83275000I-200000J0D01*
G01*
X86275000Y-83275000D01*
G75*
G02*
X86075000Y-83075000I0J200000D01*
G01*
X86075000Y-82525000D01*
G75*
G02*
X86275000Y-82325000I200000J0D01*
G01*
X86675000Y-82325000D01*
G75*
G02*
X86875000Y-82525000I0J-200000D01*
G01*
G37*
G36*
G01*
X88525000Y-82525000D02*
X88525000Y-83075000D01*
G75*
G02*
X88325000Y-83275000I-200000J0D01*
G01*
X87925000Y-83275000D01*
G75*
G02*
X87725000Y-83075000I0J200000D01*
G01*
X87725000Y-82525000D01*
G75*
G02*
X87925000Y-82325000I200000J0D01*
G01*
X88325000Y-82325000D01*
G75*
G02*
X88525000Y-82525000I0J-200000D01*
G01*
G37*
G36*
G01*
X86875000Y-80525000D02*
X86875000Y-81075000D01*
G75*
G02*
X86675000Y-81275000I-200000J0D01*
G01*
X86275000Y-81275000D01*
G75*
G02*
X86075000Y-81075000I0J200000D01*
G01*
X86075000Y-80525000D01*
G75*
G02*
X86275000Y-80325000I200000J0D01*
G01*
X86675000Y-80325000D01*
G75*
G02*
X86875000Y-80525000I0J-200000D01*
G01*
G37*
G36*
G01*
X88525000Y-80525000D02*
X88525000Y-81075000D01*
G75*
G02*
X88325000Y-81275000I-200000J0D01*
G01*
X87925000Y-81275000D01*
G75*
G02*
X87725000Y-81075000I0J200000D01*
G01*
X87725000Y-80525000D01*
G75*
G02*
X87925000Y-80325000I200000J0D01*
G01*
X88325000Y-80325000D01*
G75*
G02*
X88525000Y-80525000I0J-200000D01*
G01*
G37*
G36*
G01*
X98575000Y-95875000D02*
X98025000Y-95875000D01*
G75*
G02*
X97825000Y-95675000I0J200000D01*
G01*
X97825000Y-95275000D01*
G75*
G02*
X98025000Y-95075000I200000J0D01*
G01*
X98575000Y-95075000D01*
G75*
G02*
X98775000Y-95275000I0J-200000D01*
G01*
X98775000Y-95675000D01*
G75*
G02*
X98575000Y-95875000I-200000J0D01*
G01*
G37*
G36*
G01*
X98575000Y-97525000D02*
X98025000Y-97525000D01*
G75*
G02*
X97825000Y-97325000I0J200000D01*
G01*
X97825000Y-96925000D01*
G75*
G02*
X98025000Y-96725000I200000J0D01*
G01*
X98575000Y-96725000D01*
G75*
G02*
X98775000Y-96925000I0J-200000D01*
G01*
X98775000Y-97325000D01*
G75*
G02*
X98575000Y-97525000I-200000J0D01*
G01*
G37*
G36*
G01*
X80375000Y-82525000D02*
X80375000Y-83075000D01*
G75*
G02*
X80175000Y-83275000I-200000J0D01*
G01*
X79775000Y-83275000D01*
G75*
G02*
X79575000Y-83075000I0J200000D01*
G01*
X79575000Y-82525000D01*
G75*
G02*
X79775000Y-82325000I200000J0D01*
G01*
X80175000Y-82325000D01*
G75*
G02*
X80375000Y-82525000I0J-200000D01*
G01*
G37*
G36*
G01*
X82025000Y-82525000D02*
X82025000Y-83075000D01*
G75*
G02*
X81825000Y-83275000I-200000J0D01*
G01*
X81425000Y-83275000D01*
G75*
G02*
X81225000Y-83075000I0J200000D01*
G01*
X81225000Y-82525000D01*
G75*
G02*
X81425000Y-82325000I200000J0D01*
G01*
X81825000Y-82325000D01*
G75*
G02*
X82025000Y-82525000I0J-200000D01*
G01*
G37*
G36*
G01*
X77075000Y-82525000D02*
X77075000Y-83075000D01*
G75*
G02*
X76875000Y-83275000I-200000J0D01*
G01*
X76475000Y-83275000D01*
G75*
G02*
X76275000Y-83075000I0J200000D01*
G01*
X76275000Y-82525000D01*
G75*
G02*
X76475000Y-82325000I200000J0D01*
G01*
X76875000Y-82325000D01*
G75*
G02*
X77075000Y-82525000I0J-200000D01*
G01*
G37*
G36*
G01*
X78725000Y-82525000D02*
X78725000Y-83075000D01*
G75*
G02*
X78525000Y-83275000I-200000J0D01*
G01*
X78125000Y-83275000D01*
G75*
G02*
X77925000Y-83075000I0J200000D01*
G01*
X77925000Y-82525000D01*
G75*
G02*
X78125000Y-82325000I200000J0D01*
G01*
X78525000Y-82325000D01*
G75*
G02*
X78725000Y-82525000I0J-200000D01*
G01*
G37*
G36*
G01*
X77075000Y-80525000D02*
X77075000Y-81075000D01*
G75*
G02*
X76875000Y-81275000I-200000J0D01*
G01*
X76475000Y-81275000D01*
G75*
G02*
X76275000Y-81075000I0J200000D01*
G01*
X76275000Y-80525000D01*
G75*
G02*
X76475000Y-80325000I200000J0D01*
G01*
X76875000Y-80325000D01*
G75*
G02*
X77075000Y-80525000I0J-200000D01*
G01*
G37*
G36*
G01*
X78725000Y-80525000D02*
X78725000Y-81075000D01*
G75*
G02*
X78525000Y-81275000I-200000J0D01*
G01*
X78125000Y-81275000D01*
G75*
G02*
X77925000Y-81075000I0J200000D01*
G01*
X77925000Y-80525000D01*
G75*
G02*
X78125000Y-80325000I200000J0D01*
G01*
X78525000Y-80325000D01*
G75*
G02*
X78725000Y-80525000I0J-200000D01*
G01*
G37*
G36*
G01*
X95575000Y-95875000D02*
X95025000Y-95875000D01*
G75*
G02*
X94825000Y-95675000I0J200000D01*
G01*
X94825000Y-95275000D01*
G75*
G02*
X95025000Y-95075000I200000J0D01*
G01*
X95575000Y-95075000D01*
G75*
G02*
X95775000Y-95275000I0J-200000D01*
G01*
X95775000Y-95675000D01*
G75*
G02*
X95575000Y-95875000I-200000J0D01*
G01*
G37*
G36*
G01*
X95575000Y-97525000D02*
X95025000Y-97525000D01*
G75*
G02*
X94825000Y-97325000I0J200000D01*
G01*
X94825000Y-96925000D01*
G75*
G02*
X95025000Y-96725000I200000J0D01*
G01*
X95575000Y-96725000D01*
G75*
G02*
X95775000Y-96925000I0J-200000D01*
G01*
X95775000Y-97325000D01*
G75*
G02*
X95575000Y-97525000I-200000J0D01*
G01*
G37*
G36*
G01*
X152125000Y-116725000D02*
X152675000Y-116725000D01*
G75*
G02*
X152875000Y-116925000I0J-200000D01*
G01*
X152875000Y-117325000D01*
G75*
G02*
X152675000Y-117525000I-200000J0D01*
G01*
X152125000Y-117525000D01*
G75*
G02*
X151925000Y-117325000I0J200000D01*
G01*
X151925000Y-116925000D01*
G75*
G02*
X152125000Y-116725000I200000J0D01*
G01*
G37*
G36*
G01*
X152125000Y-115075000D02*
X152675000Y-115075000D01*
G75*
G02*
X152875000Y-115275000I0J-200000D01*
G01*
X152875000Y-115675000D01*
G75*
G02*
X152675000Y-115875000I-200000J0D01*
G01*
X152125000Y-115875000D01*
G75*
G02*
X151925000Y-115675000I0J200000D01*
G01*
X151925000Y-115275000D01*
G75*
G02*
X152125000Y-115075000I200000J0D01*
G01*
G37*
G36*
G01*
X152675000Y-119075000D02*
X152125000Y-119075000D01*
G75*
G02*
X151925000Y-118875000I0J200000D01*
G01*
X151925000Y-118475000D01*
G75*
G02*
X152125000Y-118275000I200000J0D01*
G01*
X152675000Y-118275000D01*
G75*
G02*
X152875000Y-118475000I0J-200000D01*
G01*
X152875000Y-118875000D01*
G75*
G02*
X152675000Y-119075000I-200000J0D01*
G01*
G37*
G36*
G01*
X152675000Y-120725000D02*
X152125000Y-120725000D01*
G75*
G02*
X151925000Y-120525000I0J200000D01*
G01*
X151925000Y-120125000D01*
G75*
G02*
X152125000Y-119925000I200000J0D01*
G01*
X152675000Y-119925000D01*
G75*
G02*
X152875000Y-120125000I0J-200000D01*
G01*
X152875000Y-120525000D01*
G75*
G02*
X152675000Y-120725000I-200000J0D01*
G01*
G37*
G36*
G01*
X154125000Y-116725000D02*
X154675000Y-116725000D01*
G75*
G02*
X154875000Y-116925000I0J-200000D01*
G01*
X154875000Y-117325000D01*
G75*
G02*
X154675000Y-117525000I-200000J0D01*
G01*
X154125000Y-117525000D01*
G75*
G02*
X153925000Y-117325000I0J200000D01*
G01*
X153925000Y-116925000D01*
G75*
G02*
X154125000Y-116725000I200000J0D01*
G01*
G37*
G36*
G01*
X154125000Y-115075000D02*
X154675000Y-115075000D01*
G75*
G02*
X154875000Y-115275000I0J-200000D01*
G01*
X154875000Y-115675000D01*
G75*
G02*
X154675000Y-115875000I-200000J0D01*
G01*
X154125000Y-115875000D01*
G75*
G02*
X153925000Y-115675000I0J200000D01*
G01*
X153925000Y-115275000D01*
G75*
G02*
X154125000Y-115075000I200000J0D01*
G01*
G37*
G36*
G01*
X155075000Y-130075000D02*
X154525000Y-130075000D01*
G75*
G02*
X154325000Y-129875000I0J200000D01*
G01*
X154325000Y-129475000D01*
G75*
G02*
X154525000Y-129275000I200000J0D01*
G01*
X155075000Y-129275000D01*
G75*
G02*
X155275000Y-129475000I0J-200000D01*
G01*
X155275000Y-129875000D01*
G75*
G02*
X155075000Y-130075000I-200000J0D01*
G01*
G37*
G36*
G01*
X155075000Y-131725000D02*
X154525000Y-131725000D01*
G75*
G02*
X154325000Y-131525000I0J200000D01*
G01*
X154325000Y-131125000D01*
G75*
G02*
X154525000Y-130925000I200000J0D01*
G01*
X155075000Y-130925000D01*
G75*
G02*
X155275000Y-131125000I0J-200000D01*
G01*
X155275000Y-131525000D01*
G75*
G02*
X155075000Y-131725000I-200000J0D01*
G01*
G37*
G36*
G01*
X156125000Y-116725000D02*
X156675000Y-116725000D01*
G75*
G02*
X156875000Y-116925000I0J-200000D01*
G01*
X156875000Y-117325000D01*
G75*
G02*
X156675000Y-117525000I-200000J0D01*
G01*
X156125000Y-117525000D01*
G75*
G02*
X155925000Y-117325000I0J200000D01*
G01*
X155925000Y-116925000D01*
G75*
G02*
X156125000Y-116725000I200000J0D01*
G01*
G37*
G36*
G01*
X156125000Y-115075000D02*
X156675000Y-115075000D01*
G75*
G02*
X156875000Y-115275000I0J-200000D01*
G01*
X156875000Y-115675000D01*
G75*
G02*
X156675000Y-115875000I-200000J0D01*
G01*
X156125000Y-115875000D01*
G75*
G02*
X155925000Y-115675000I0J200000D01*
G01*
X155925000Y-115275000D01*
G75*
G02*
X156125000Y-115075000I200000J0D01*
G01*
G37*
G36*
G01*
X165275000Y-128375000D02*
X164725000Y-128375000D01*
G75*
G02*
X164525000Y-128175000I0J200000D01*
G01*
X164525000Y-127775000D01*
G75*
G02*
X164725000Y-127575000I200000J0D01*
G01*
X165275000Y-127575000D01*
G75*
G02*
X165475000Y-127775000I0J-200000D01*
G01*
X165475000Y-128175000D01*
G75*
G02*
X165275000Y-128375000I-200000J0D01*
G01*
G37*
G36*
G01*
X165275000Y-130025000D02*
X164725000Y-130025000D01*
G75*
G02*
X164525000Y-129825000I0J200000D01*
G01*
X164525000Y-129425000D01*
G75*
G02*
X164725000Y-129225000I200000J0D01*
G01*
X165275000Y-129225000D01*
G75*
G02*
X165475000Y-129425000I0J-200000D01*
G01*
X165475000Y-129825000D01*
G75*
G02*
X165275000Y-130025000I-200000J0D01*
G01*
G37*
G36*
G01*
X168225000Y-122725000D02*
X168775000Y-122725000D01*
G75*
G02*
X168975000Y-122925000I0J-200000D01*
G01*
X168975000Y-123325000D01*
G75*
G02*
X168775000Y-123525000I-200000J0D01*
G01*
X168225000Y-123525000D01*
G75*
G02*
X168025000Y-123325000I0J200000D01*
G01*
X168025000Y-122925000D01*
G75*
G02*
X168225000Y-122725000I200000J0D01*
G01*
G37*
G36*
G01*
X168225000Y-121075000D02*
X168775000Y-121075000D01*
G75*
G02*
X168975000Y-121275000I0J-200000D01*
G01*
X168975000Y-121675000D01*
G75*
G02*
X168775000Y-121875000I-200000J0D01*
G01*
X168225000Y-121875000D01*
G75*
G02*
X168025000Y-121675000I0J200000D01*
G01*
X168025000Y-121275000D01*
G75*
G02*
X168225000Y-121075000I200000J0D01*
G01*
G37*
G36*
G01*
X164725000Y-122725000D02*
X165275000Y-122725000D01*
G75*
G02*
X165475000Y-122925000I0J-200000D01*
G01*
X165475000Y-123325000D01*
G75*
G02*
X165275000Y-123525000I-200000J0D01*
G01*
X164725000Y-123525000D01*
G75*
G02*
X164525000Y-123325000I0J200000D01*
G01*
X164525000Y-122925000D01*
G75*
G02*
X164725000Y-122725000I200000J0D01*
G01*
G37*
G36*
G01*
X164725000Y-121075000D02*
X165275000Y-121075000D01*
G75*
G02*
X165475000Y-121275000I0J-200000D01*
G01*
X165475000Y-121675000D01*
G75*
G02*
X165275000Y-121875000I-200000J0D01*
G01*
X164725000Y-121875000D01*
G75*
G02*
X164525000Y-121675000I0J200000D01*
G01*
X164525000Y-121275000D01*
G75*
G02*
X164725000Y-121075000I200000J0D01*
G01*
G37*
G36*
G01*
X94075000Y-119725000D02*
X94075000Y-120275000D01*
G75*
G02*
X93875000Y-120475000I-200000J0D01*
G01*
X93475000Y-120475000D01*
G75*
G02*
X93275000Y-120275000I0J200000D01*
G01*
X93275000Y-119725000D01*
G75*
G02*
X93475000Y-119525000I200000J0D01*
G01*
X93875000Y-119525000D01*
G75*
G02*
X94075000Y-119725000I0J-200000D01*
G01*
G37*
G36*
G01*
X95725000Y-119725000D02*
X95725000Y-120275000D01*
G75*
G02*
X95525000Y-120475000I-200000J0D01*
G01*
X95125000Y-120475000D01*
G75*
G02*
X94925000Y-120275000I0J200000D01*
G01*
X94925000Y-119725000D01*
G75*
G02*
X95125000Y-119525000I200000J0D01*
G01*
X95525000Y-119525000D01*
G75*
G02*
X95725000Y-119725000I0J-200000D01*
G01*
G37*
G36*
G01*
X94075000Y-118125000D02*
X94075000Y-118675000D01*
G75*
G02*
X93875000Y-118875000I-200000J0D01*
G01*
X93475000Y-118875000D01*
G75*
G02*
X93275000Y-118675000I0J200000D01*
G01*
X93275000Y-118125000D01*
G75*
G02*
X93475000Y-117925000I200000J0D01*
G01*
X93875000Y-117925000D01*
G75*
G02*
X94075000Y-118125000I0J-200000D01*
G01*
G37*
G36*
G01*
X95725000Y-118125000D02*
X95725000Y-118675000D01*
G75*
G02*
X95525000Y-118875000I-200000J0D01*
G01*
X95125000Y-118875000D01*
G75*
G02*
X94925000Y-118675000I0J200000D01*
G01*
X94925000Y-118125000D01*
G75*
G02*
X95125000Y-117925000I200000J0D01*
G01*
X95525000Y-117925000D01*
G75*
G02*
X95725000Y-118125000I0J-200000D01*
G01*
G37*
G36*
G01*
X92225000Y-104225000D02*
X92775000Y-104225000D01*
G75*
G02*
X92975000Y-104425000I0J-200000D01*
G01*
X92975000Y-104825000D01*
G75*
G02*
X92775000Y-105025000I-200000J0D01*
G01*
X92225000Y-105025000D01*
G75*
G02*
X92025000Y-104825000I0J200000D01*
G01*
X92025000Y-104425000D01*
G75*
G02*
X92225000Y-104225000I200000J0D01*
G01*
G37*
G36*
G01*
X92225000Y-102575000D02*
X92775000Y-102575000D01*
G75*
G02*
X92975000Y-102775000I0J-200000D01*
G01*
X92975000Y-103175000D01*
G75*
G02*
X92775000Y-103375000I-200000J0D01*
G01*
X92225000Y-103375000D01*
G75*
G02*
X92025000Y-103175000I0J200000D01*
G01*
X92025000Y-102775000D01*
G75*
G02*
X92225000Y-102575000I200000J0D01*
G01*
G37*
G36*
G01*
X89725000Y-104225000D02*
X90275000Y-104225000D01*
G75*
G02*
X90475000Y-104425000I0J-200000D01*
G01*
X90475000Y-104825000D01*
G75*
G02*
X90275000Y-105025000I-200000J0D01*
G01*
X89725000Y-105025000D01*
G75*
G02*
X89525000Y-104825000I0J200000D01*
G01*
X89525000Y-104425000D01*
G75*
G02*
X89725000Y-104225000I200000J0D01*
G01*
G37*
G36*
G01*
X89725000Y-102575000D02*
X90275000Y-102575000D01*
G75*
G02*
X90475000Y-102775000I0J-200000D01*
G01*
X90475000Y-103175000D01*
G75*
G02*
X90275000Y-103375000I-200000J0D01*
G01*
X89725000Y-103375000D01*
G75*
G02*
X89525000Y-103175000I0J200000D01*
G01*
X89525000Y-102775000D01*
G75*
G02*
X89725000Y-102575000I200000J0D01*
G01*
G37*
G36*
G01*
X140125000Y-61475000D02*
X140125000Y-60925000D01*
G75*
G02*
X140325000Y-60725000I200000J0D01*
G01*
X140725000Y-60725000D01*
G75*
G02*
X140925000Y-60925000I0J-200000D01*
G01*
X140925000Y-61475000D01*
G75*
G02*
X140725000Y-61675000I-200000J0D01*
G01*
X140325000Y-61675000D01*
G75*
G02*
X140125000Y-61475000I0J200000D01*
G01*
G37*
G36*
G01*
X138475000Y-61475000D02*
X138475000Y-60925000D01*
G75*
G02*
X138675000Y-60725000I200000J0D01*
G01*
X139075000Y-60725000D01*
G75*
G02*
X139275000Y-60925000I0J-200000D01*
G01*
X139275000Y-61475000D01*
G75*
G02*
X139075000Y-61675000I-200000J0D01*
G01*
X138675000Y-61675000D01*
G75*
G02*
X138475000Y-61475000I0J200000D01*
G01*
G37*
G36*
G01*
X175575000Y-94725000D02*
X175575000Y-95275000D01*
G75*
G02*
X175375000Y-95475000I-200000J0D01*
G01*
X174975000Y-95475000D01*
G75*
G02*
X174775000Y-95275000I0J200000D01*
G01*
X174775000Y-94725000D01*
G75*
G02*
X174975000Y-94525000I200000J0D01*
G01*
X175375000Y-94525000D01*
G75*
G02*
X175575000Y-94725000I0J-200000D01*
G01*
G37*
G36*
G01*
X177225000Y-94725000D02*
X177225000Y-95275000D01*
G75*
G02*
X177025000Y-95475000I-200000J0D01*
G01*
X176625000Y-95475000D01*
G75*
G02*
X176425000Y-95275000I0J200000D01*
G01*
X176425000Y-94725000D01*
G75*
G02*
X176625000Y-94525000I200000J0D01*
G01*
X177025000Y-94525000D01*
G75*
G02*
X177225000Y-94725000I0J-200000D01*
G01*
G37*
G36*
G01*
X175575000Y-99725000D02*
X175575000Y-100275000D01*
G75*
G02*
X175375000Y-100475000I-200000J0D01*
G01*
X174975000Y-100475000D01*
G75*
G02*
X174775000Y-100275000I0J200000D01*
G01*
X174775000Y-99725000D01*
G75*
G02*
X174975000Y-99525000I200000J0D01*
G01*
X175375000Y-99525000D01*
G75*
G02*
X175575000Y-99725000I0J-200000D01*
G01*
G37*
G36*
G01*
X177225000Y-99725000D02*
X177225000Y-100275000D01*
G75*
G02*
X177025000Y-100475000I-200000J0D01*
G01*
X176625000Y-100475000D01*
G75*
G02*
X176425000Y-100275000I0J200000D01*
G01*
X176425000Y-99725000D01*
G75*
G02*
X176625000Y-99525000I200000J0D01*
G01*
X177025000Y-99525000D01*
G75*
G02*
X177225000Y-99725000I0J-200000D01*
G01*
G37*
G36*
G01*
X175575000Y-104725000D02*
X175575000Y-105275000D01*
G75*
G02*
X175375000Y-105475000I-200000J0D01*
G01*
X174975000Y-105475000D01*
G75*
G02*
X174775000Y-105275000I0J200000D01*
G01*
X174775000Y-104725000D01*
G75*
G02*
X174975000Y-104525000I200000J0D01*
G01*
X175375000Y-104525000D01*
G75*
G02*
X175575000Y-104725000I0J-200000D01*
G01*
G37*
G36*
G01*
X177225000Y-104725000D02*
X177225000Y-105275000D01*
G75*
G02*
X177025000Y-105475000I-200000J0D01*
G01*
X176625000Y-105475000D01*
G75*
G02*
X176425000Y-105275000I0J200000D01*
G01*
X176425000Y-104725000D01*
G75*
G02*
X176625000Y-104525000I200000J0D01*
G01*
X177025000Y-104525000D01*
G75*
G02*
X177225000Y-104725000I0J-200000D01*
G01*
G37*
D26*
X150500000Y-88100000D03*
X148500000Y-89050000D03*
X148500000Y-87150000D03*
X150600000Y-66500000D03*
X148600000Y-67450000D03*
X148600000Y-65550000D03*
X150600000Y-70200000D03*
X148600000Y-71150000D03*
X148600000Y-69250000D03*
D47*
X146800000Y-59500000D03*
X145850000Y-57500000D03*
X147750000Y-57500000D03*
D19*
X119300000Y-77943500D03*
X117014000Y-77943500D03*
X121586000Y-77943500D03*
D20*
X119300000Y-70844200D03*
D19*
X109300000Y-77943500D03*
X107014000Y-77943500D03*
X111586000Y-77943500D03*
D20*
X109300000Y-70844200D03*
D19*
X89300000Y-77943500D03*
X87014000Y-77943500D03*
X91586000Y-77943500D03*
D20*
X89300000Y-70844200D03*
D26*
X135500000Y-60200000D03*
X137500000Y-59250000D03*
X137500000Y-61150000D03*
D37*
X135500000Y-53000000D03*
G36*
G01*
X138850000Y-52250000D02*
X138850000Y-53750000D01*
G75*
G02*
X138600000Y-54000000I-250000J0D01*
G01*
X137400000Y-54000000D01*
G75*
G02*
X137150000Y-53750000I0J250000D01*
G01*
X137150000Y-52250000D01*
G75*
G02*
X137400000Y-52000000I250000J0D01*
G01*
X138600000Y-52000000D01*
G75*
G02*
X138850000Y-52250000I0J-250000D01*
G01*
G37*
G36*
G01*
X126300000Y-108880000D02*
X125500000Y-108880000D01*
G75*
G02*
X125100000Y-108480000I0J400000D01*
G01*
X125100000Y-107680000D01*
G75*
G02*
X125500000Y-107280000I400000J0D01*
G01*
X126300000Y-107280000D01*
G75*
G02*
X126700000Y-107680000I0J-400000D01*
G01*
X126700000Y-108480000D01*
G75*
G02*
X126300000Y-108880000I-400000J0D01*
G01*
G37*
G36*
G01*
X121150000Y-81056250D02*
X121150000Y-80543750D01*
G75*
G02*
X121368750Y-80325000I218750J0D01*
G01*
X121806250Y-80325000D01*
G75*
G02*
X122025000Y-80543750I0J-218750D01*
G01*
X122025000Y-81056250D01*
G75*
G02*
X121806250Y-81275000I-218750J0D01*
G01*
X121368750Y-81275000D01*
G75*
G02*
X121150000Y-81056250I0J218750D01*
G01*
G37*
G36*
G01*
X119575000Y-81056250D02*
X119575000Y-80543750D01*
G75*
G02*
X119793750Y-80325000I218750J0D01*
G01*
X120231250Y-80325000D01*
G75*
G02*
X120450000Y-80543750I0J-218750D01*
G01*
X120450000Y-81056250D01*
G75*
G02*
X120231250Y-81275000I-218750J0D01*
G01*
X119793750Y-81275000D01*
G75*
G02*
X119575000Y-81056250I0J218750D01*
G01*
G37*
D48*
X117150000Y-63000000D03*
X121450000Y-63000000D03*
G36*
G01*
X111150000Y-81056250D02*
X111150000Y-80543750D01*
G75*
G02*
X111368750Y-80325000I218750J0D01*
G01*
X111806250Y-80325000D01*
G75*
G02*
X112025000Y-80543750I0J-218750D01*
G01*
X112025000Y-81056250D01*
G75*
G02*
X111806250Y-81275000I-218750J0D01*
G01*
X111368750Y-81275000D01*
G75*
G02*
X111150000Y-81056250I0J218750D01*
G01*
G37*
G36*
G01*
X109575000Y-81056250D02*
X109575000Y-80543750D01*
G75*
G02*
X109793750Y-80325000I218750J0D01*
G01*
X110231250Y-80325000D01*
G75*
G02*
X110450000Y-80543750I0J-218750D01*
G01*
X110450000Y-81056250D01*
G75*
G02*
X110231250Y-81275000I-218750J0D01*
G01*
X109793750Y-81275000D01*
G75*
G02*
X109575000Y-81056250I0J218750D01*
G01*
G37*
X107150000Y-63000000D03*
X111450000Y-63000000D03*
G36*
G01*
X101150000Y-81056250D02*
X101150000Y-80543750D01*
G75*
G02*
X101368750Y-80325000I218750J0D01*
G01*
X101806250Y-80325000D01*
G75*
G02*
X102025000Y-80543750I0J-218750D01*
G01*
X102025000Y-81056250D01*
G75*
G02*
X101806250Y-81275000I-218750J0D01*
G01*
X101368750Y-81275000D01*
G75*
G02*
X101150000Y-81056250I0J218750D01*
G01*
G37*
G36*
G01*
X99575000Y-81056250D02*
X99575000Y-80543750D01*
G75*
G02*
X99793750Y-80325000I218750J0D01*
G01*
X100231250Y-80325000D01*
G75*
G02*
X100450000Y-80543750I0J-218750D01*
G01*
X100450000Y-81056250D01*
G75*
G02*
X100231250Y-81275000I-218750J0D01*
G01*
X99793750Y-81275000D01*
G75*
G02*
X99575000Y-81056250I0J218750D01*
G01*
G37*
X97150000Y-63000000D03*
X101450000Y-63000000D03*
G36*
G01*
X91150000Y-81056250D02*
X91150000Y-80543750D01*
G75*
G02*
X91368750Y-80325000I218750J0D01*
G01*
X91806250Y-80325000D01*
G75*
G02*
X92025000Y-80543750I0J-218750D01*
G01*
X92025000Y-81056250D01*
G75*
G02*
X91806250Y-81275000I-218750J0D01*
G01*
X91368750Y-81275000D01*
G75*
G02*
X91150000Y-81056250I0J218750D01*
G01*
G37*
G36*
G01*
X89575000Y-81056250D02*
X89575000Y-80543750D01*
G75*
G02*
X89793750Y-80325000I218750J0D01*
G01*
X90231250Y-80325000D01*
G75*
G02*
X90450000Y-80543750I0J-218750D01*
G01*
X90450000Y-81056250D01*
G75*
G02*
X90231250Y-81275000I-218750J0D01*
G01*
X89793750Y-81275000D01*
G75*
G02*
X89575000Y-81056250I0J218750D01*
G01*
G37*
G36*
G01*
X81150000Y-81056250D02*
X81150000Y-80543750D01*
G75*
G02*
X81368750Y-80325000I218750J0D01*
G01*
X81806250Y-80325000D01*
G75*
G02*
X82025000Y-80543750I0J-218750D01*
G01*
X82025000Y-81056250D01*
G75*
G02*
X81806250Y-81275000I-218750J0D01*
G01*
X81368750Y-81275000D01*
G75*
G02*
X81150000Y-81056250I0J218750D01*
G01*
G37*
G36*
G01*
X79575000Y-81056250D02*
X79575000Y-80543750D01*
G75*
G02*
X79793750Y-80325000I218750J0D01*
G01*
X80231250Y-80325000D01*
G75*
G02*
X80450000Y-80543750I0J-218750D01*
G01*
X80450000Y-81056250D01*
G75*
G02*
X80231250Y-81275000I-218750J0D01*
G01*
X79793750Y-81275000D01*
G75*
G02*
X79575000Y-81056250I0J218750D01*
G01*
G37*
X77150000Y-63000000D03*
X81450000Y-63000000D03*
X87150000Y-63000000D03*
X91450000Y-63000000D03*
D37*
X180500000Y-95000000D03*
G36*
G01*
X183850000Y-94250000D02*
X183850000Y-95750000D01*
G75*
G02*
X183600000Y-96000000I-250000J0D01*
G01*
X182400000Y-96000000D01*
G75*
G02*
X182150000Y-95750000I0J250000D01*
G01*
X182150000Y-94250000D01*
G75*
G02*
X182400000Y-94000000I250000J0D01*
G01*
X183600000Y-94000000D01*
G75*
G02*
X183850000Y-94250000I0J-250000D01*
G01*
G37*
X180500000Y-100000000D03*
G36*
G01*
X183850000Y-99250000D02*
X183850000Y-100750000D01*
G75*
G02*
X183600000Y-101000000I-250000J0D01*
G01*
X182400000Y-101000000D01*
G75*
G02*
X182150000Y-100750000I0J250000D01*
G01*
X182150000Y-99250000D01*
G75*
G02*
X182400000Y-99000000I250000J0D01*
G01*
X183600000Y-99000000D01*
G75*
G02*
X183850000Y-99250000I0J-250000D01*
G01*
G37*
X180500000Y-105000000D03*
G36*
G01*
X183850000Y-104250000D02*
X183850000Y-105750000D01*
G75*
G02*
X183600000Y-106000000I-250000J0D01*
G01*
X182400000Y-106000000D01*
G75*
G02*
X182150000Y-105750000I0J250000D01*
G01*
X182150000Y-104250000D01*
G75*
G02*
X182400000Y-104000000I250000J0D01*
G01*
X183600000Y-104000000D01*
G75*
G02*
X183850000Y-104250000I0J-250000D01*
G01*
G37*
D16*
X131400000Y-110620000D03*
X131400000Y-108080000D03*
X131400000Y-105540000D03*
X131400000Y-103000000D03*
X131400000Y-100460000D03*
X131400000Y-97920000D03*
X131400000Y-113160000D03*
X131400000Y-115700000D03*
X131400000Y-118240000D03*
X131400000Y-120780000D03*
D31*
X118954000Y-120780000D03*
X118954000Y-97920000D03*
D49*
X136250000Y-98500000D03*
G36*
G01*
X137000000Y-101850000D02*
X135500000Y-101850000D01*
G75*
G02*
X135250000Y-101600000I0J250000D01*
G01*
X135250000Y-100400000D01*
G75*
G02*
X135500000Y-100150000I250000J0D01*
G01*
X137000000Y-100150000D01*
G75*
G02*
X137250000Y-100400000I0J-250000D01*
G01*
X137250000Y-101600000D01*
G75*
G02*
X137000000Y-101850000I-250000J0D01*
G01*
G37*
G36*
G01*
X119550000Y-54100000D02*
X119550000Y-55400000D01*
G75*
G02*
X118900000Y-56050000I-650000J0D01*
G01*
X117600000Y-56050000D01*
G75*
G02*
X116950000Y-55400000I0J650000D01*
G01*
X116950000Y-54100000D01*
G75*
G02*
X117600000Y-53450000I650000J0D01*
G01*
X118900000Y-53450000D01*
G75*
G02*
X119550000Y-54100000I0J-650000D01*
G01*
G37*
G36*
G01*
X114550000Y-54100000D02*
X114550000Y-55400000D01*
G75*
G02*
X113900000Y-56050000I-650000J0D01*
G01*
X112600000Y-56050000D01*
G75*
G02*
X111950000Y-55400000I0J650000D01*
G01*
X111950000Y-54100000D01*
G75*
G02*
X112600000Y-53450000I650000J0D01*
G01*
X113900000Y-53450000D01*
G75*
G02*
X114550000Y-54100000I0J-650000D01*
G01*
G37*
G36*
G01*
X109550000Y-54100000D02*
X109550000Y-55400000D01*
G75*
G02*
X108900000Y-56050000I-650000J0D01*
G01*
X107600000Y-56050000D01*
G75*
G02*
X106950000Y-55400000I0J650000D01*
G01*
X106950000Y-54100000D01*
G75*
G02*
X107600000Y-53450000I650000J0D01*
G01*
X108900000Y-53450000D01*
G75*
G02*
X109550000Y-54100000I0J-650000D01*
G01*
G37*
G36*
G01*
X104550000Y-54100000D02*
X104550000Y-55400000D01*
G75*
G02*
X103900000Y-56050000I-650000J0D01*
G01*
X102600000Y-56050000D01*
G75*
G02*
X101950000Y-55400000I0J650000D01*
G01*
X101950000Y-54100000D01*
G75*
G02*
X102600000Y-53450000I650000J0D01*
G01*
X103900000Y-53450000D01*
G75*
G02*
X104550000Y-54100000I0J-650000D01*
G01*
G37*
G36*
G01*
X99550000Y-54100000D02*
X99550000Y-55400000D01*
G75*
G02*
X98900000Y-56050000I-650000J0D01*
G01*
X97600000Y-56050000D01*
G75*
G02*
X96950000Y-55400000I0J650000D01*
G01*
X96950000Y-54100000D01*
G75*
G02*
X97600000Y-53450000I650000J0D01*
G01*
X98900000Y-53450000D01*
G75*
G02*
X99550000Y-54100000I0J-650000D01*
G01*
G37*
G36*
G01*
X94550000Y-54100000D02*
X94550000Y-55400000D01*
G75*
G02*
X93900000Y-56050000I-650000J0D01*
G01*
X92600000Y-56050000D01*
G75*
G02*
X91950000Y-55400000I0J650000D01*
G01*
X91950000Y-54100000D01*
G75*
G02*
X92600000Y-53450000I650000J0D01*
G01*
X93900000Y-53450000D01*
G75*
G02*
X94550000Y-54100000I0J-650000D01*
G01*
G37*
G36*
G01*
X89550000Y-54100000D02*
X89550000Y-55400000D01*
G75*
G02*
X88900000Y-56050000I-650000J0D01*
G01*
X87600000Y-56050000D01*
G75*
G02*
X86950000Y-55400000I0J650000D01*
G01*
X86950000Y-54100000D01*
G75*
G02*
X87600000Y-53450000I650000J0D01*
G01*
X88900000Y-53450000D01*
G75*
G02*
X89550000Y-54100000I0J-650000D01*
G01*
G37*
G36*
G01*
X84550000Y-54100000D02*
X84550000Y-55400000D01*
G75*
G02*
X83900000Y-56050000I-650000J0D01*
G01*
X82600000Y-56050000D01*
G75*
G02*
X81950000Y-55400000I0J650000D01*
G01*
X81950000Y-54100000D01*
G75*
G02*
X82600000Y-53450000I650000J0D01*
G01*
X83900000Y-53450000D01*
G75*
G02*
X84550000Y-54100000I0J-650000D01*
G01*
G37*
G36*
G01*
X79550000Y-54100000D02*
X79550000Y-55400000D01*
G75*
G02*
X78900000Y-56050000I-650000J0D01*
G01*
X77600000Y-56050000D01*
G75*
G02*
X76950000Y-55400000I0J650000D01*
G01*
X76950000Y-54100000D01*
G75*
G02*
X77600000Y-53450000I650000J0D01*
G01*
X78900000Y-53450000D01*
G75*
G02*
X79550000Y-54100000I0J-650000D01*
G01*
G37*
G36*
G01*
X74550000Y-54100000D02*
X74550000Y-55400000D01*
G75*
G02*
X73900000Y-56050000I-650000J0D01*
G01*
X72600000Y-56050000D01*
G75*
G02*
X71950000Y-55400000I0J650000D01*
G01*
X71950000Y-54100000D01*
G75*
G02*
X72600000Y-53450000I650000J0D01*
G01*
X73900000Y-53450000D01*
G75*
G02*
X74550000Y-54100000I0J-650000D01*
G01*
G37*
G36*
G01*
X69550000Y-54100000D02*
X69550000Y-55400000D01*
G75*
G02*
X68900000Y-56050000I-650000J0D01*
G01*
X67600000Y-56050000D01*
G75*
G02*
X66950000Y-55400000I0J650000D01*
G01*
X66950000Y-54100000D01*
G75*
G02*
X67600000Y-53450000I650000J0D01*
G01*
X68900000Y-53450000D01*
G75*
G02*
X69550000Y-54100000I0J-650000D01*
G01*
G37*
G36*
G01*
X64550000Y-54100000D02*
X64550000Y-55400000D01*
G75*
G02*
X63900000Y-56050000I-650000J0D01*
G01*
X62600000Y-56050000D01*
G75*
G02*
X61950000Y-55400000I0J650000D01*
G01*
X61950000Y-54100000D01*
G75*
G02*
X62600000Y-53450000I650000J0D01*
G01*
X63900000Y-53450000D01*
G75*
G02*
X64550000Y-54100000I0J-650000D01*
G01*
G37*
D27*
X145250000Y-106000000D03*
X145250000Y-103500000D03*
X145250000Y-101000000D03*
G36*
G01*
X144525000Y-97650000D02*
X145975000Y-97650000D01*
G75*
G02*
X146225000Y-97900000I0J-250000D01*
G01*
X146225000Y-99100000D01*
G75*
G02*
X145975000Y-99350000I-250000J0D01*
G01*
X144525000Y-99350000D01*
G75*
G02*
X144275000Y-99100000I0J250000D01*
G01*
X144275000Y-97900000D01*
G75*
G02*
X144525000Y-97650000I250000J0D01*
G01*
G37*
X150750000Y-106000000D03*
X150750000Y-103500000D03*
X150750000Y-101000000D03*
G36*
G01*
X150025000Y-97650000D02*
X151475000Y-97650000D01*
G75*
G02*
X151725000Y-97900000I0J-250000D01*
G01*
X151725000Y-99100000D01*
G75*
G02*
X151475000Y-99350000I-250000J0D01*
G01*
X150025000Y-99350000D01*
G75*
G02*
X149775000Y-99100000I0J250000D01*
G01*
X149775000Y-97900000D01*
G75*
G02*
X150025000Y-97650000I250000J0D01*
G01*
G37*
X145250000Y-83000000D03*
X145250000Y-80500000D03*
X145250000Y-78000000D03*
G36*
G01*
X144525000Y-74650000D02*
X145975000Y-74650000D01*
G75*
G02*
X146225000Y-74900000I0J-250000D01*
G01*
X146225000Y-76100000D01*
G75*
G02*
X145975000Y-76350000I-250000J0D01*
G01*
X144525000Y-76350000D01*
G75*
G02*
X144275000Y-76100000I0J250000D01*
G01*
X144275000Y-74900000D01*
G75*
G02*
X144525000Y-74650000I250000J0D01*
G01*
G37*
D50*
X144000000Y-53000000D03*
X146500000Y-53000000D03*
G36*
G01*
X149850000Y-52275000D02*
X149850000Y-53725000D01*
G75*
G02*
X149600000Y-53975000I-250000J0D01*
G01*
X148400000Y-53975000D01*
G75*
G02*
X148150000Y-53725000I0J250000D01*
G01*
X148150000Y-52275000D01*
G75*
G02*
X148400000Y-52025000I250000J0D01*
G01*
X149600000Y-52025000D01*
G75*
G02*
X149850000Y-52275000I0J-250000D01*
G01*
G37*
G36*
G01*
X140025000Y-59450000D02*
X140025000Y-58950000D01*
G75*
G02*
X140250000Y-58725000I225000J0D01*
G01*
X140700000Y-58725000D01*
G75*
G02*
X140925000Y-58950000I0J-225000D01*
G01*
X140925000Y-59450000D01*
G75*
G02*
X140700000Y-59675000I-225000J0D01*
G01*
X140250000Y-59675000D01*
G75*
G02*
X140025000Y-59450000I0J225000D01*
G01*
G37*
G36*
G01*
X138475000Y-59450000D02*
X138475000Y-58950000D01*
G75*
G02*
X138700000Y-58725000I225000J0D01*
G01*
X139150000Y-58725000D01*
G75*
G02*
X139375000Y-58950000I0J-225000D01*
G01*
X139375000Y-59450000D01*
G75*
G02*
X139150000Y-59675000I-225000J0D01*
G01*
X138700000Y-59675000D01*
G75*
G02*
X138475000Y-59450000I0J225000D01*
G01*
G37*
G36*
G01*
X106050000Y-95975000D02*
X105550000Y-95975000D01*
G75*
G02*
X105325000Y-95750000I0J225000D01*
G01*
X105325000Y-95300000D01*
G75*
G02*
X105550000Y-95075000I225000J0D01*
G01*
X106050000Y-95075000D01*
G75*
G02*
X106275000Y-95300000I0J-225000D01*
G01*
X106275000Y-95750000D01*
G75*
G02*
X106050000Y-95975000I-225000J0D01*
G01*
G37*
G36*
G01*
X106050000Y-97525000D02*
X105550000Y-97525000D01*
G75*
G02*
X105325000Y-97300000I0J225000D01*
G01*
X105325000Y-96850000D01*
G75*
G02*
X105550000Y-96625000I225000J0D01*
G01*
X106050000Y-96625000D01*
G75*
G02*
X106275000Y-96850000I0J-225000D01*
G01*
X106275000Y-97300000D01*
G75*
G02*
X106050000Y-97525000I-225000J0D01*
G01*
G37*
G36*
G01*
X103050000Y-95975000D02*
X102550000Y-95975000D01*
G75*
G02*
X102325000Y-95750000I0J225000D01*
G01*
X102325000Y-95300000D01*
G75*
G02*
X102550000Y-95075000I225000J0D01*
G01*
X103050000Y-95075000D01*
G75*
G02*
X103275000Y-95300000I0J-225000D01*
G01*
X103275000Y-95750000D01*
G75*
G02*
X103050000Y-95975000I-225000J0D01*
G01*
G37*
G36*
G01*
X103050000Y-97525000D02*
X102550000Y-97525000D01*
G75*
G02*
X102325000Y-97300000I0J225000D01*
G01*
X102325000Y-96850000D01*
G75*
G02*
X102550000Y-96625000I225000J0D01*
G01*
X103050000Y-96625000D01*
G75*
G02*
X103275000Y-96850000I0J-225000D01*
G01*
X103275000Y-97300000D01*
G75*
G02*
X103050000Y-97525000I-225000J0D01*
G01*
G37*
G36*
G01*
X100050000Y-95975000D02*
X99550000Y-95975000D01*
G75*
G02*
X99325000Y-95750000I0J225000D01*
G01*
X99325000Y-95300000D01*
G75*
G02*
X99550000Y-95075000I225000J0D01*
G01*
X100050000Y-95075000D01*
G75*
G02*
X100275000Y-95300000I0J-225000D01*
G01*
X100275000Y-95750000D01*
G75*
G02*
X100050000Y-95975000I-225000J0D01*
G01*
G37*
G36*
G01*
X100050000Y-97525000D02*
X99550000Y-97525000D01*
G75*
G02*
X99325000Y-97300000I0J225000D01*
G01*
X99325000Y-96850000D01*
G75*
G02*
X99550000Y-96625000I225000J0D01*
G01*
X100050000Y-96625000D01*
G75*
G02*
X100275000Y-96850000I0J-225000D01*
G01*
X100275000Y-97300000D01*
G75*
G02*
X100050000Y-97525000I-225000J0D01*
G01*
G37*
G36*
G01*
X97050000Y-95975000D02*
X96550000Y-95975000D01*
G75*
G02*
X96325000Y-95750000I0J225000D01*
G01*
X96325000Y-95300000D01*
G75*
G02*
X96550000Y-95075000I225000J0D01*
G01*
X97050000Y-95075000D01*
G75*
G02*
X97275000Y-95300000I0J-225000D01*
G01*
X97275000Y-95750000D01*
G75*
G02*
X97050000Y-95975000I-225000J0D01*
G01*
G37*
G36*
G01*
X97050000Y-97525000D02*
X96550000Y-97525000D01*
G75*
G02*
X96325000Y-97300000I0J225000D01*
G01*
X96325000Y-96850000D01*
G75*
G02*
X96550000Y-96625000I225000J0D01*
G01*
X97050000Y-96625000D01*
G75*
G02*
X97275000Y-96850000I0J-225000D01*
G01*
X97275000Y-97300000D01*
G75*
G02*
X97050000Y-97525000I-225000J0D01*
G01*
G37*
G36*
G01*
X152950000Y-130825000D02*
X153450000Y-130825000D01*
G75*
G02*
X153675000Y-131050000I0J-225000D01*
G01*
X153675000Y-131500000D01*
G75*
G02*
X153450000Y-131725000I-225000J0D01*
G01*
X152950000Y-131725000D01*
G75*
G02*
X152725000Y-131500000I0J225000D01*
G01*
X152725000Y-131050000D01*
G75*
G02*
X152950000Y-130825000I225000J0D01*
G01*
G37*
G36*
G01*
X152950000Y-129275000D02*
X153450000Y-129275000D01*
G75*
G02*
X153675000Y-129500000I0J-225000D01*
G01*
X153675000Y-129950000D01*
G75*
G02*
X153450000Y-130175000I-225000J0D01*
G01*
X152950000Y-130175000D01*
G75*
G02*
X152725000Y-129950000I0J225000D01*
G01*
X152725000Y-129500000D01*
G75*
G02*
X152950000Y-129275000I225000J0D01*
G01*
G37*
G36*
G01*
X142750000Y-131450000D02*
X142750000Y-132550000D01*
G75*
G02*
X142500000Y-132800000I-250000J0D01*
G01*
X139500000Y-132800000D01*
G75*
G02*
X139250000Y-132550000I0J250000D01*
G01*
X139250000Y-131450000D01*
G75*
G02*
X139500000Y-131200000I250000J0D01*
G01*
X142500000Y-131200000D01*
G75*
G02*
X142750000Y-131450000I0J-250000D01*
G01*
G37*
G36*
G01*
X148350000Y-131450000D02*
X148350000Y-132550000D01*
G75*
G02*
X148100000Y-132800000I-250000J0D01*
G01*
X145100000Y-132800000D01*
G75*
G02*
X144850000Y-132550000I0J250000D01*
G01*
X144850000Y-131450000D01*
G75*
G02*
X145100000Y-131200000I250000J0D01*
G01*
X148100000Y-131200000D01*
G75*
G02*
X148350000Y-131450000I0J-250000D01*
G01*
G37*
G36*
G01*
X149750000Y-125475000D02*
X149250000Y-125475000D01*
G75*
G02*
X149025000Y-125250000I0J225000D01*
G01*
X149025000Y-124800000D01*
G75*
G02*
X149250000Y-124575000I225000J0D01*
G01*
X149750000Y-124575000D01*
G75*
G02*
X149975000Y-124800000I0J-225000D01*
G01*
X149975000Y-125250000D01*
G75*
G02*
X149750000Y-125475000I-225000J0D01*
G01*
G37*
G36*
G01*
X149750000Y-127025000D02*
X149250000Y-127025000D01*
G75*
G02*
X149025000Y-126800000I0J225000D01*
G01*
X149025000Y-126350000D01*
G75*
G02*
X149250000Y-126125000I225000J0D01*
G01*
X149750000Y-126125000D01*
G75*
G02*
X149975000Y-126350000I0J-225000D01*
G01*
X149975000Y-126800000D01*
G75*
G02*
X149750000Y-127025000I-225000J0D01*
G01*
G37*
G36*
G01*
X167050000Y-128475000D02*
X166550000Y-128475000D01*
G75*
G02*
X166325000Y-128250000I0J225000D01*
G01*
X166325000Y-127800000D01*
G75*
G02*
X166550000Y-127575000I225000J0D01*
G01*
X167050000Y-127575000D01*
G75*
G02*
X167275000Y-127800000I0J-225000D01*
G01*
X167275000Y-128250000D01*
G75*
G02*
X167050000Y-128475000I-225000J0D01*
G01*
G37*
G36*
G01*
X167050000Y-130025000D02*
X166550000Y-130025000D01*
G75*
G02*
X166325000Y-129800000I0J225000D01*
G01*
X166325000Y-129350000D01*
G75*
G02*
X166550000Y-129125000I225000J0D01*
G01*
X167050000Y-129125000D01*
G75*
G02*
X167275000Y-129350000I0J-225000D01*
G01*
X167275000Y-129800000D01*
G75*
G02*
X167050000Y-130025000I-225000J0D01*
G01*
G37*
G36*
G01*
X170550000Y-121975000D02*
X170050000Y-121975000D01*
G75*
G02*
X169825000Y-121750000I0J225000D01*
G01*
X169825000Y-121300000D01*
G75*
G02*
X170050000Y-121075000I225000J0D01*
G01*
X170550000Y-121075000D01*
G75*
G02*
X170775000Y-121300000I0J-225000D01*
G01*
X170775000Y-121750000D01*
G75*
G02*
X170550000Y-121975000I-225000J0D01*
G01*
G37*
G36*
G01*
X170550000Y-123525000D02*
X170050000Y-123525000D01*
G75*
G02*
X169825000Y-123300000I0J225000D01*
G01*
X169825000Y-122850000D01*
G75*
G02*
X170050000Y-122625000I225000J0D01*
G01*
X170550000Y-122625000D01*
G75*
G02*
X170775000Y-122850000I0J-225000D01*
G01*
X170775000Y-123300000D01*
G75*
G02*
X170550000Y-123525000I-225000J0D01*
G01*
G37*
G36*
G01*
X167050000Y-121975000D02*
X166550000Y-121975000D01*
G75*
G02*
X166325000Y-121750000I0J225000D01*
G01*
X166325000Y-121300000D01*
G75*
G02*
X166550000Y-121075000I225000J0D01*
G01*
X167050000Y-121075000D01*
G75*
G02*
X167275000Y-121300000I0J-225000D01*
G01*
X167275000Y-121750000D01*
G75*
G02*
X167050000Y-121975000I-225000J0D01*
G01*
G37*
G36*
G01*
X167050000Y-123525000D02*
X166550000Y-123525000D01*
G75*
G02*
X166325000Y-123300000I0J225000D01*
G01*
X166325000Y-122850000D01*
G75*
G02*
X166550000Y-122625000I225000J0D01*
G01*
X167050000Y-122625000D01*
G75*
G02*
X167275000Y-122850000I0J-225000D01*
G01*
X167275000Y-123300000D01*
G75*
G02*
X167050000Y-123525000I-225000J0D01*
G01*
G37*
G36*
G01*
X75950000Y-92525000D02*
X76450000Y-92525000D01*
G75*
G02*
X76675000Y-92750000I0J-225000D01*
G01*
X76675000Y-93200000D01*
G75*
G02*
X76450000Y-93425000I-225000J0D01*
G01*
X75950000Y-93425000D01*
G75*
G02*
X75725000Y-93200000I0J225000D01*
G01*
X75725000Y-92750000D01*
G75*
G02*
X75950000Y-92525000I225000J0D01*
G01*
G37*
G36*
G01*
X75950000Y-90975000D02*
X76450000Y-90975000D01*
G75*
G02*
X76675000Y-91200000I0J-225000D01*
G01*
X76675000Y-91650000D01*
G75*
G02*
X76450000Y-91875000I-225000J0D01*
G01*
X75950000Y-91875000D01*
G75*
G02*
X75725000Y-91650000I0J225000D01*
G01*
X75725000Y-91200000D01*
G75*
G02*
X75950000Y-90975000I225000J0D01*
G01*
G37*
G36*
G01*
X65475000Y-69050000D02*
X65475000Y-69550000D01*
G75*
G02*
X65250000Y-69775000I-225000J0D01*
G01*
X64800000Y-69775000D01*
G75*
G02*
X64575000Y-69550000I0J225000D01*
G01*
X64575000Y-69050000D01*
G75*
G02*
X64800000Y-68825000I225000J0D01*
G01*
X65250000Y-68825000D01*
G75*
G02*
X65475000Y-69050000I0J-225000D01*
G01*
G37*
G36*
G01*
X67025000Y-69050000D02*
X67025000Y-69550000D01*
G75*
G02*
X66800000Y-69775000I-225000J0D01*
G01*
X66350000Y-69775000D01*
G75*
G02*
X66125000Y-69550000I0J225000D01*
G01*
X66125000Y-69050000D01*
G75*
G02*
X66350000Y-68825000I225000J0D01*
G01*
X66800000Y-68825000D01*
G75*
G02*
X67025000Y-69050000I0J-225000D01*
G01*
G37*
G36*
G01*
X88875000Y-118250000D02*
X88875000Y-118750000D01*
G75*
G02*
X88650000Y-118975000I-225000J0D01*
G01*
X88200000Y-118975000D01*
G75*
G02*
X87975000Y-118750000I0J225000D01*
G01*
X87975000Y-118250000D01*
G75*
G02*
X88200000Y-118025000I225000J0D01*
G01*
X88650000Y-118025000D01*
G75*
G02*
X88875000Y-118250000I0J-225000D01*
G01*
G37*
G36*
G01*
X90425000Y-118250000D02*
X90425000Y-118750000D01*
G75*
G02*
X90200000Y-118975000I-225000J0D01*
G01*
X89750000Y-118975000D01*
G75*
G02*
X89525000Y-118750000I0J225000D01*
G01*
X89525000Y-118250000D01*
G75*
G02*
X89750000Y-118025000I225000J0D01*
G01*
X90200000Y-118025000D01*
G75*
G02*
X90425000Y-118250000I0J-225000D01*
G01*
G37*
G36*
G01*
X141050000Y-100125000D02*
X141550000Y-100125000D01*
G75*
G02*
X141775000Y-100350000I0J-225000D01*
G01*
X141775000Y-100800000D01*
G75*
G02*
X141550000Y-101025000I-225000J0D01*
G01*
X141050000Y-101025000D01*
G75*
G02*
X140825000Y-100800000I0J225000D01*
G01*
X140825000Y-100350000D01*
G75*
G02*
X141050000Y-100125000I225000J0D01*
G01*
G37*
G36*
G01*
X141050000Y-98575000D02*
X141550000Y-98575000D01*
G75*
G02*
X141775000Y-98800000I0J-225000D01*
G01*
X141775000Y-99250000D01*
G75*
G02*
X141550000Y-99475000I-225000J0D01*
G01*
X141050000Y-99475000D01*
G75*
G02*
X140825000Y-99250000I0J225000D01*
G01*
X140825000Y-98800000D01*
G75*
G02*
X141050000Y-98575000I225000J0D01*
G01*
G37*
G36*
G01*
X154050000Y-100125000D02*
X154550000Y-100125000D01*
G75*
G02*
X154775000Y-100350000I0J-225000D01*
G01*
X154775000Y-100800000D01*
G75*
G02*
X154550000Y-101025000I-225000J0D01*
G01*
X154050000Y-101025000D01*
G75*
G02*
X153825000Y-100800000I0J225000D01*
G01*
X153825000Y-100350000D01*
G75*
G02*
X154050000Y-100125000I225000J0D01*
G01*
G37*
G36*
G01*
X154050000Y-98575000D02*
X154550000Y-98575000D01*
G75*
G02*
X154775000Y-98800000I0J-225000D01*
G01*
X154775000Y-99250000D01*
G75*
G02*
X154550000Y-99475000I-225000J0D01*
G01*
X154050000Y-99475000D01*
G75*
G02*
X153825000Y-99250000I0J225000D01*
G01*
X153825000Y-98800000D01*
G75*
G02*
X154050000Y-98575000I225000J0D01*
G01*
G37*
G36*
G01*
X154050000Y-77125000D02*
X154550000Y-77125000D01*
G75*
G02*
X154775000Y-77350000I0J-225000D01*
G01*
X154775000Y-77800000D01*
G75*
G02*
X154550000Y-78025000I-225000J0D01*
G01*
X154050000Y-78025000D01*
G75*
G02*
X153825000Y-77800000I0J225000D01*
G01*
X153825000Y-77350000D01*
G75*
G02*
X154050000Y-77125000I225000J0D01*
G01*
G37*
G36*
G01*
X154050000Y-75575000D02*
X154550000Y-75575000D01*
G75*
G02*
X154775000Y-75800000I0J-225000D01*
G01*
X154775000Y-76250000D01*
G75*
G02*
X154550000Y-76475000I-225000J0D01*
G01*
X154050000Y-76475000D01*
G75*
G02*
X153825000Y-76250000I0J225000D01*
G01*
X153825000Y-75800000D01*
G75*
G02*
X154050000Y-75575000I225000J0D01*
G01*
G37*
G36*
G01*
X141050000Y-77125000D02*
X141550000Y-77125000D01*
G75*
G02*
X141775000Y-77350000I0J-225000D01*
G01*
X141775000Y-77800000D01*
G75*
G02*
X141550000Y-78025000I-225000J0D01*
G01*
X141050000Y-78025000D01*
G75*
G02*
X140825000Y-77800000I0J225000D01*
G01*
X140825000Y-77350000D01*
G75*
G02*
X141050000Y-77125000I225000J0D01*
G01*
G37*
G36*
G01*
X141050000Y-75575000D02*
X141550000Y-75575000D01*
G75*
G02*
X141775000Y-75800000I0J-225000D01*
G01*
X141775000Y-76250000D01*
G75*
G02*
X141550000Y-76475000I-225000J0D01*
G01*
X141050000Y-76475000D01*
G75*
G02*
X140825000Y-76250000I0J225000D01*
G01*
X140825000Y-75800000D01*
G75*
G02*
X141050000Y-75575000I225000J0D01*
G01*
G37*
D51*
G36*
X155762219Y-127419496D02*
G01*
X155762435Y-127421134D01*
X155754852Y-127446132D01*
X155752000Y-127475094D01*
X155752001Y-128024906D01*
X155754853Y-128053869D01*
X155762436Y-128078866D01*
X155761982Y-128080814D01*
X155760068Y-128081395D01*
X155758758Y-128080389D01*
X155758523Y-128079950D01*
X155745072Y-128059819D01*
X155728025Y-128042772D01*
X155707978Y-128029377D01*
X155685704Y-128020151D01*
X155662053Y-128015447D01*
X155637947Y-128015447D01*
X155614297Y-128020152D01*
X155592023Y-128029378D01*
X155571976Y-128042773D01*
X155554929Y-128059820D01*
X155541479Y-128079948D01*
X155541240Y-128080395D01*
X155539541Y-128081450D01*
X155537778Y-128080506D01*
X155537563Y-128078870D01*
X155545148Y-128053869D01*
X155548000Y-128024906D01*
X155548000Y-127475094D01*
X155545148Y-127446131D01*
X155537565Y-127421134D01*
X155538019Y-127419186D01*
X155539933Y-127418605D01*
X155541243Y-127419611D01*
X155541478Y-127420050D01*
X155554929Y-127440181D01*
X155571976Y-127457228D01*
X155592023Y-127470623D01*
X155614297Y-127479849D01*
X155637948Y-127484553D01*
X155662054Y-127484553D01*
X155685704Y-127479848D01*
X155707978Y-127470622D01*
X155728025Y-127457227D01*
X155745072Y-127440180D01*
X155758522Y-127420050D01*
X155758757Y-127419611D01*
X155760455Y-127418554D01*
X155762219Y-127419496D01*
G37*
G36*
X155262219Y-127419496D02*
G01*
X155262435Y-127421134D01*
X155254852Y-127446132D01*
X155252000Y-127475094D01*
X155252001Y-128024906D01*
X155254853Y-128053869D01*
X155262436Y-128078866D01*
X155261982Y-128080814D01*
X155260068Y-128081395D01*
X155258758Y-128080389D01*
X155258523Y-128079950D01*
X155245072Y-128059819D01*
X155228025Y-128042772D01*
X155207978Y-128029377D01*
X155185704Y-128020151D01*
X155162053Y-128015447D01*
X155137947Y-128015447D01*
X155114297Y-128020152D01*
X155092023Y-128029378D01*
X155071976Y-128042773D01*
X155054929Y-128059820D01*
X155041479Y-128079948D01*
X155041240Y-128080395D01*
X155039541Y-128081450D01*
X155037778Y-128080506D01*
X155037563Y-128078870D01*
X155045148Y-128053869D01*
X155048000Y-128024906D01*
X155048000Y-127475094D01*
X155045148Y-127446131D01*
X155037565Y-127421134D01*
X155038019Y-127419186D01*
X155039933Y-127418605D01*
X155041243Y-127419611D01*
X155041478Y-127420050D01*
X155054929Y-127440181D01*
X155071976Y-127457228D01*
X155092023Y-127470623D01*
X155114297Y-127479849D01*
X155137948Y-127484553D01*
X155162054Y-127484553D01*
X155185704Y-127479848D01*
X155207978Y-127470622D01*
X155228025Y-127457227D01*
X155245072Y-127440180D01*
X155258522Y-127420050D01*
X155258757Y-127419611D01*
X155260455Y-127418554D01*
X155262219Y-127419496D01*
G37*
G36*
X156262219Y-127419496D02*
G01*
X156262435Y-127421134D01*
X156254852Y-127446132D01*
X156252000Y-127475094D01*
X156252001Y-128024906D01*
X156254853Y-128053869D01*
X156262436Y-128078866D01*
X156261982Y-128080814D01*
X156260068Y-128081395D01*
X156258758Y-128080389D01*
X156258523Y-128079950D01*
X156245072Y-128059819D01*
X156228025Y-128042772D01*
X156207978Y-128029377D01*
X156185704Y-128020151D01*
X156162053Y-128015447D01*
X156137947Y-128015447D01*
X156114297Y-128020152D01*
X156092023Y-128029378D01*
X156071976Y-128042773D01*
X156054929Y-128059820D01*
X156041479Y-128079948D01*
X156041240Y-128080395D01*
X156039541Y-128081450D01*
X156037778Y-128080506D01*
X156037563Y-128078870D01*
X156045148Y-128053869D01*
X156048000Y-128024906D01*
X156048000Y-127475094D01*
X156045148Y-127446131D01*
X156037565Y-127421134D01*
X156038019Y-127419186D01*
X156039933Y-127418605D01*
X156041243Y-127419611D01*
X156041478Y-127420050D01*
X156054929Y-127440181D01*
X156071976Y-127457228D01*
X156092023Y-127470623D01*
X156114297Y-127479849D01*
X156137948Y-127484553D01*
X156162054Y-127484553D01*
X156185704Y-127479848D01*
X156207978Y-127470622D01*
X156228025Y-127457227D01*
X156245072Y-127440180D01*
X156258522Y-127420050D01*
X156258757Y-127419611D01*
X156260455Y-127418554D01*
X156262219Y-127419496D01*
G37*
G36*
X157762219Y-127419496D02*
G01*
X157762435Y-127421134D01*
X157754852Y-127446132D01*
X157752000Y-127475094D01*
X157752001Y-128024906D01*
X157754853Y-128053869D01*
X157762436Y-128078866D01*
X157761982Y-128080814D01*
X157760068Y-128081395D01*
X157758758Y-128080389D01*
X157758523Y-128079950D01*
X157745072Y-128059819D01*
X157728025Y-128042772D01*
X157707978Y-128029377D01*
X157685704Y-128020151D01*
X157662053Y-128015447D01*
X157637947Y-128015447D01*
X157614297Y-128020152D01*
X157592023Y-128029378D01*
X157571976Y-128042773D01*
X157554929Y-128059820D01*
X157541479Y-128079948D01*
X157541240Y-128080395D01*
X157539541Y-128081450D01*
X157537778Y-128080506D01*
X157537563Y-128078870D01*
X157545148Y-128053869D01*
X157548000Y-128024906D01*
X157548000Y-127475094D01*
X157545148Y-127446131D01*
X157537565Y-127421134D01*
X157538019Y-127419186D01*
X157539933Y-127418605D01*
X157541243Y-127419611D01*
X157541478Y-127420050D01*
X157554929Y-127440181D01*
X157571976Y-127457228D01*
X157592023Y-127470623D01*
X157614297Y-127479849D01*
X157637948Y-127484553D01*
X157662054Y-127484553D01*
X157685704Y-127479848D01*
X157707978Y-127470622D01*
X157728025Y-127457227D01*
X157745072Y-127440180D01*
X157758522Y-127420050D01*
X157758757Y-127419611D01*
X157760455Y-127418554D01*
X157762219Y-127419496D01*
G37*
G36*
X156762219Y-127419496D02*
G01*
X156762435Y-127421134D01*
X156754852Y-127446132D01*
X156752000Y-127475094D01*
X156752001Y-128024906D01*
X156754853Y-128053869D01*
X156762436Y-128078866D01*
X156761982Y-128080814D01*
X156760068Y-128081395D01*
X156758758Y-128080389D01*
X156758523Y-128079950D01*
X156745072Y-128059819D01*
X156728025Y-128042772D01*
X156707978Y-128029377D01*
X156685704Y-128020151D01*
X156662053Y-128015447D01*
X156637947Y-128015447D01*
X156614297Y-128020152D01*
X156592023Y-128029378D01*
X156571976Y-128042773D01*
X156554929Y-128059820D01*
X156541479Y-128079948D01*
X156541240Y-128080395D01*
X156539541Y-128081450D01*
X156537778Y-128080506D01*
X156537563Y-128078870D01*
X156545148Y-128053869D01*
X156548000Y-128024906D01*
X156548000Y-127475094D01*
X156545148Y-127446131D01*
X156537565Y-127421134D01*
X156538019Y-127419186D01*
X156539933Y-127418605D01*
X156541243Y-127419611D01*
X156541478Y-127420050D01*
X156554929Y-127440181D01*
X156571976Y-127457228D01*
X156592023Y-127470623D01*
X156614297Y-127479849D01*
X156637948Y-127484553D01*
X156662054Y-127484553D01*
X156685704Y-127479848D01*
X156707978Y-127470622D01*
X156728025Y-127457227D01*
X156745072Y-127440180D01*
X156758522Y-127420050D01*
X156758757Y-127419611D01*
X156760455Y-127418554D01*
X156762219Y-127419496D01*
G37*
G36*
X157262219Y-127419496D02*
G01*
X157262435Y-127421134D01*
X157254852Y-127446132D01*
X157252000Y-127475094D01*
X157252001Y-128024906D01*
X157254853Y-128053869D01*
X157262436Y-128078866D01*
X157261982Y-128080814D01*
X157260068Y-128081395D01*
X157258758Y-128080389D01*
X157258523Y-128079950D01*
X157245072Y-128059819D01*
X157228025Y-128042772D01*
X157207978Y-128029377D01*
X157185704Y-128020151D01*
X157162053Y-128015447D01*
X157137947Y-128015447D01*
X157114297Y-128020152D01*
X157092023Y-128029378D01*
X157071976Y-128042773D01*
X157054929Y-128059820D01*
X157041479Y-128079948D01*
X157041240Y-128080395D01*
X157039541Y-128081450D01*
X157037778Y-128080506D01*
X157037563Y-128078870D01*
X157045148Y-128053869D01*
X157048000Y-128024906D01*
X157048000Y-127475094D01*
X157045148Y-127446131D01*
X157037565Y-127421134D01*
X157038019Y-127419186D01*
X157039933Y-127418605D01*
X157041243Y-127419611D01*
X157041478Y-127420050D01*
X157054929Y-127440181D01*
X157071976Y-127457228D01*
X157092023Y-127470623D01*
X157114297Y-127479849D01*
X157137948Y-127484553D01*
X157162054Y-127484553D01*
X157185704Y-127479848D01*
X157207978Y-127470622D01*
X157228025Y-127457227D01*
X157245072Y-127440180D01*
X157258522Y-127420050D01*
X157258757Y-127419611D01*
X157260455Y-127418554D01*
X157262219Y-127419496D01*
G37*
G36*
X159180819Y-126438017D02*
G01*
X159181400Y-126439931D01*
X159180395Y-126441241D01*
X159179946Y-126441481D01*
X159159819Y-126454930D01*
X159142772Y-126471977D01*
X159129378Y-126492025D01*
X159120152Y-126514298D01*
X159115448Y-126537949D01*
X159115448Y-126562055D01*
X159120153Y-126585705D01*
X159129380Y-126607979D01*
X159142775Y-126628026D01*
X159159822Y-126645073D01*
X159179946Y-126658519D01*
X159180395Y-126658759D01*
X159181451Y-126660458D01*
X159180508Y-126662222D01*
X159178871Y-126662437D01*
X159153869Y-126654852D01*
X159124906Y-126652000D01*
X158575094Y-126652000D01*
X158546131Y-126654852D01*
X158521129Y-126662437D01*
X158519181Y-126661983D01*
X158518600Y-126660069D01*
X158519605Y-126658759D01*
X158520054Y-126658519D01*
X158540181Y-126645070D01*
X158557228Y-126628023D01*
X158570622Y-126607975D01*
X158579848Y-126585702D01*
X158584552Y-126562051D01*
X158584552Y-126537945D01*
X158579847Y-126514295D01*
X158570620Y-126492021D01*
X158557225Y-126471974D01*
X158540178Y-126454927D01*
X158520054Y-126441481D01*
X158519605Y-126441241D01*
X158518549Y-126439542D01*
X158519492Y-126437778D01*
X158521129Y-126437563D01*
X158546131Y-126445148D01*
X158575094Y-126448000D01*
X159124906Y-126448000D01*
X159153869Y-126445148D01*
X159178871Y-126437563D01*
X159180819Y-126438017D01*
G37*
G36*
X154280819Y-126438017D02*
G01*
X154281400Y-126439931D01*
X154280395Y-126441241D01*
X154279946Y-126441481D01*
X154259819Y-126454930D01*
X154242772Y-126471977D01*
X154229378Y-126492025D01*
X154220152Y-126514298D01*
X154215448Y-126537949D01*
X154215448Y-126562055D01*
X154220153Y-126585705D01*
X154229380Y-126607979D01*
X154242775Y-126628026D01*
X154259822Y-126645073D01*
X154279946Y-126658519D01*
X154280395Y-126658759D01*
X154281451Y-126660458D01*
X154280508Y-126662222D01*
X154278871Y-126662437D01*
X154253869Y-126654852D01*
X154224906Y-126652000D01*
X153675094Y-126652000D01*
X153646131Y-126654852D01*
X153621129Y-126662437D01*
X153619181Y-126661983D01*
X153618600Y-126660069D01*
X153619605Y-126658759D01*
X153620054Y-126658519D01*
X153640181Y-126645070D01*
X153657228Y-126628023D01*
X153670622Y-126607975D01*
X153679848Y-126585702D01*
X153684552Y-126562051D01*
X153684552Y-126537945D01*
X153679847Y-126514295D01*
X153670620Y-126492021D01*
X153657225Y-126471974D01*
X153640178Y-126454927D01*
X153620054Y-126441481D01*
X153619605Y-126441241D01*
X153618549Y-126439542D01*
X153619492Y-126437778D01*
X153621129Y-126437563D01*
X153646131Y-126445148D01*
X153675094Y-126448000D01*
X154224906Y-126448000D01*
X154253869Y-126445148D01*
X154278871Y-126437563D01*
X154280819Y-126438017D01*
G37*
G36*
X159180819Y-125938017D02*
G01*
X159181400Y-125939931D01*
X159180395Y-125941241D01*
X159179946Y-125941481D01*
X159159819Y-125954930D01*
X159142772Y-125971977D01*
X159129378Y-125992025D01*
X159120152Y-126014298D01*
X159115448Y-126037949D01*
X159115448Y-126062055D01*
X159120153Y-126085705D01*
X159129380Y-126107979D01*
X159142775Y-126128026D01*
X159159822Y-126145073D01*
X159179946Y-126158519D01*
X159180395Y-126158759D01*
X159181451Y-126160458D01*
X159180508Y-126162222D01*
X159178871Y-126162437D01*
X159153869Y-126154852D01*
X159124906Y-126152000D01*
X158575094Y-126152000D01*
X158546131Y-126154852D01*
X158521129Y-126162437D01*
X158519181Y-126161983D01*
X158518600Y-126160069D01*
X158519605Y-126158759D01*
X158520054Y-126158519D01*
X158540181Y-126145070D01*
X158557228Y-126128023D01*
X158570622Y-126107975D01*
X158579848Y-126085702D01*
X158584552Y-126062051D01*
X158584552Y-126037945D01*
X158579847Y-126014295D01*
X158570620Y-125992021D01*
X158557225Y-125971974D01*
X158540178Y-125954927D01*
X158520054Y-125941481D01*
X158519605Y-125941241D01*
X158518549Y-125939542D01*
X158519492Y-125937778D01*
X158521129Y-125937563D01*
X158546131Y-125945148D01*
X158575094Y-125948000D01*
X159124906Y-125948000D01*
X159153869Y-125945148D01*
X159178871Y-125937563D01*
X159180819Y-125938017D01*
G37*
G36*
X154280819Y-125938017D02*
G01*
X154281400Y-125939931D01*
X154280395Y-125941241D01*
X154279946Y-125941481D01*
X154259819Y-125954930D01*
X154242772Y-125971977D01*
X154229378Y-125992025D01*
X154220152Y-126014298D01*
X154215448Y-126037949D01*
X154215448Y-126062055D01*
X154220153Y-126085705D01*
X154229380Y-126107979D01*
X154242775Y-126128026D01*
X154259822Y-126145073D01*
X154279946Y-126158519D01*
X154280395Y-126158759D01*
X154281451Y-126160458D01*
X154280508Y-126162222D01*
X154278871Y-126162437D01*
X154253869Y-126154852D01*
X154224906Y-126152000D01*
X153675094Y-126152000D01*
X153646131Y-126154852D01*
X153621129Y-126162437D01*
X153619181Y-126161983D01*
X153618600Y-126160069D01*
X153619605Y-126158759D01*
X153620054Y-126158519D01*
X153640181Y-126145070D01*
X153657228Y-126128023D01*
X153670622Y-126107975D01*
X153679848Y-126085702D01*
X153684552Y-126062051D01*
X153684552Y-126037945D01*
X153679847Y-126014295D01*
X153670620Y-125992021D01*
X153657225Y-125971974D01*
X153640178Y-125954927D01*
X153620054Y-125941481D01*
X153619605Y-125941241D01*
X153618549Y-125939542D01*
X153619492Y-125937778D01*
X153621129Y-125937563D01*
X153646131Y-125945148D01*
X153675094Y-125948000D01*
X154224906Y-125948000D01*
X154253869Y-125945148D01*
X154278871Y-125937563D01*
X154280819Y-125938017D01*
G37*
G36*
X154280819Y-125438017D02*
G01*
X154281400Y-125439931D01*
X154280395Y-125441241D01*
X154279946Y-125441481D01*
X154259819Y-125454930D01*
X154242772Y-125471977D01*
X154229378Y-125492025D01*
X154220152Y-125514298D01*
X154215448Y-125537949D01*
X154215448Y-125562055D01*
X154220153Y-125585705D01*
X154229380Y-125607979D01*
X154242775Y-125628026D01*
X154259822Y-125645073D01*
X154279946Y-125658519D01*
X154280395Y-125658759D01*
X154281451Y-125660458D01*
X154280508Y-125662222D01*
X154278871Y-125662437D01*
X154253869Y-125654852D01*
X154224906Y-125652000D01*
X153675094Y-125652000D01*
X153646131Y-125654852D01*
X153621129Y-125662437D01*
X153619181Y-125661983D01*
X153618600Y-125660069D01*
X153619605Y-125658759D01*
X153620054Y-125658519D01*
X153640181Y-125645070D01*
X153657228Y-125628023D01*
X153670622Y-125607975D01*
X153679848Y-125585702D01*
X153684552Y-125562051D01*
X153684552Y-125537945D01*
X153679847Y-125514295D01*
X153670620Y-125492021D01*
X153657225Y-125471974D01*
X153640178Y-125454927D01*
X153620054Y-125441481D01*
X153619605Y-125441241D01*
X153618549Y-125439542D01*
X153619492Y-125437778D01*
X153621129Y-125437563D01*
X153646131Y-125445148D01*
X153675094Y-125448000D01*
X154224906Y-125448000D01*
X154253869Y-125445148D01*
X154278871Y-125437563D01*
X154280819Y-125438017D01*
G37*
G36*
X159180819Y-125438017D02*
G01*
X159181400Y-125439931D01*
X159180395Y-125441241D01*
X159179946Y-125441481D01*
X159159819Y-125454930D01*
X159142772Y-125471977D01*
X159129378Y-125492025D01*
X159120152Y-125514298D01*
X159115448Y-125537949D01*
X159115448Y-125562055D01*
X159120153Y-125585705D01*
X159129380Y-125607979D01*
X159142775Y-125628026D01*
X159159822Y-125645073D01*
X159179946Y-125658519D01*
X159180395Y-125658759D01*
X159181451Y-125660458D01*
X159180508Y-125662222D01*
X159178871Y-125662437D01*
X159153869Y-125654852D01*
X159124906Y-125652000D01*
X158575094Y-125652000D01*
X158546131Y-125654852D01*
X158521129Y-125662437D01*
X158519181Y-125661983D01*
X158518600Y-125660069D01*
X158519605Y-125658759D01*
X158520054Y-125658519D01*
X158540181Y-125645070D01*
X158557228Y-125628023D01*
X158570622Y-125607975D01*
X158579848Y-125585702D01*
X158584552Y-125562051D01*
X158584552Y-125537945D01*
X158579847Y-125514295D01*
X158570620Y-125492021D01*
X158557225Y-125471974D01*
X158540178Y-125454927D01*
X158520054Y-125441481D01*
X158519605Y-125441241D01*
X158518549Y-125439542D01*
X158519492Y-125437778D01*
X158521129Y-125437563D01*
X158546131Y-125445148D01*
X158575094Y-125448000D01*
X159124906Y-125448000D01*
X159153869Y-125445148D01*
X159178871Y-125437563D01*
X159180819Y-125438017D01*
G37*
G36*
X159180819Y-124938017D02*
G01*
X159181400Y-124939931D01*
X159180395Y-124941241D01*
X159179946Y-124941481D01*
X159159819Y-124954930D01*
X159142772Y-124971977D01*
X159129378Y-124992025D01*
X159120152Y-125014298D01*
X159115448Y-125037949D01*
X159115448Y-125062055D01*
X159120153Y-125085705D01*
X159129380Y-125107979D01*
X159142775Y-125128026D01*
X159159822Y-125145073D01*
X159179946Y-125158519D01*
X159180395Y-125158759D01*
X159181451Y-125160458D01*
X159180508Y-125162222D01*
X159178871Y-125162437D01*
X159153869Y-125154852D01*
X159124906Y-125152000D01*
X158575094Y-125152000D01*
X158546131Y-125154852D01*
X158521129Y-125162437D01*
X158519181Y-125161983D01*
X158518600Y-125160069D01*
X158519605Y-125158759D01*
X158520054Y-125158519D01*
X158540181Y-125145070D01*
X158557228Y-125128023D01*
X158570622Y-125107975D01*
X158579848Y-125085702D01*
X158584552Y-125062051D01*
X158584552Y-125037945D01*
X158579847Y-125014295D01*
X158570620Y-124992021D01*
X158557225Y-124971974D01*
X158540178Y-124954927D01*
X158520054Y-124941481D01*
X158519605Y-124941241D01*
X158518549Y-124939542D01*
X158519492Y-124937778D01*
X158521129Y-124937563D01*
X158546131Y-124945148D01*
X158575094Y-124948000D01*
X159124906Y-124948000D01*
X159153869Y-124945148D01*
X159178871Y-124937563D01*
X159180819Y-124938017D01*
G37*
G36*
X154280819Y-124938017D02*
G01*
X154281400Y-124939931D01*
X154280395Y-124941241D01*
X154279946Y-124941481D01*
X154259819Y-124954930D01*
X154242772Y-124971977D01*
X154229378Y-124992025D01*
X154220152Y-125014298D01*
X154215448Y-125037949D01*
X154215448Y-125062055D01*
X154220153Y-125085705D01*
X154229380Y-125107979D01*
X154242775Y-125128026D01*
X154259822Y-125145073D01*
X154279946Y-125158519D01*
X154280395Y-125158759D01*
X154281451Y-125160458D01*
X154280508Y-125162222D01*
X154278871Y-125162437D01*
X154253869Y-125154852D01*
X154224906Y-125152000D01*
X153675094Y-125152000D01*
X153646131Y-125154852D01*
X153621129Y-125162437D01*
X153619181Y-125161983D01*
X153618600Y-125160069D01*
X153619605Y-125158759D01*
X153620054Y-125158519D01*
X153640181Y-125145070D01*
X153657228Y-125128023D01*
X153670622Y-125107975D01*
X153679848Y-125085702D01*
X153684552Y-125062051D01*
X153684552Y-125037945D01*
X153679847Y-125014295D01*
X153670620Y-124992021D01*
X153657225Y-124971974D01*
X153640178Y-124954927D01*
X153620054Y-124941481D01*
X153619605Y-124941241D01*
X153618549Y-124939542D01*
X153619492Y-124937778D01*
X153621129Y-124937563D01*
X153646131Y-124945148D01*
X153675094Y-124948000D01*
X154224906Y-124948000D01*
X154253869Y-124945148D01*
X154278871Y-124937563D01*
X154280819Y-124938017D01*
G37*
G36*
X154280819Y-124438017D02*
G01*
X154281400Y-124439931D01*
X154280395Y-124441241D01*
X154279946Y-124441481D01*
X154259819Y-124454930D01*
X154242772Y-124471977D01*
X154229378Y-124492025D01*
X154220152Y-124514298D01*
X154215448Y-124537949D01*
X154215448Y-124562055D01*
X154220153Y-124585705D01*
X154229380Y-124607979D01*
X154242775Y-124628026D01*
X154259822Y-124645073D01*
X154279946Y-124658519D01*
X154280395Y-124658759D01*
X154281451Y-124660458D01*
X154280508Y-124662222D01*
X154278871Y-124662437D01*
X154253869Y-124654852D01*
X154224906Y-124652000D01*
X153675094Y-124652000D01*
X153646131Y-124654852D01*
X153621129Y-124662437D01*
X153619181Y-124661983D01*
X153618600Y-124660069D01*
X153619605Y-124658759D01*
X153620054Y-124658519D01*
X153640181Y-124645070D01*
X153657228Y-124628023D01*
X153670622Y-124607975D01*
X153679848Y-124585702D01*
X153684552Y-124562051D01*
X153684552Y-124537945D01*
X153679847Y-124514295D01*
X153670620Y-124492021D01*
X153657225Y-124471974D01*
X153640178Y-124454927D01*
X153620054Y-124441481D01*
X153619605Y-124441241D01*
X153618549Y-124439542D01*
X153619492Y-124437778D01*
X153621129Y-124437563D01*
X153646131Y-124445148D01*
X153675094Y-124448000D01*
X154224906Y-124448000D01*
X154253869Y-124445148D01*
X154278871Y-124437563D01*
X154280819Y-124438017D01*
G37*
G36*
X159180819Y-124438017D02*
G01*
X159181400Y-124439931D01*
X159180395Y-124441241D01*
X159179946Y-124441481D01*
X159159819Y-124454930D01*
X159142772Y-124471977D01*
X159129378Y-124492025D01*
X159120152Y-124514298D01*
X159115448Y-124537949D01*
X159115448Y-124562055D01*
X159120153Y-124585705D01*
X159129380Y-124607979D01*
X159142775Y-124628026D01*
X159159822Y-124645073D01*
X159179946Y-124658519D01*
X159180395Y-124658759D01*
X159181451Y-124660458D01*
X159180508Y-124662222D01*
X159178871Y-124662437D01*
X159153869Y-124654852D01*
X159124906Y-124652000D01*
X158575094Y-124652000D01*
X158546131Y-124654852D01*
X158521129Y-124662437D01*
X158519181Y-124661983D01*
X158518600Y-124660069D01*
X158519605Y-124658759D01*
X158520054Y-124658519D01*
X158540181Y-124645070D01*
X158557228Y-124628023D01*
X158570622Y-124607975D01*
X158579848Y-124585702D01*
X158584552Y-124562051D01*
X158584552Y-124537945D01*
X158579847Y-124514295D01*
X158570620Y-124492021D01*
X158557225Y-124471974D01*
X158540178Y-124454927D01*
X158520054Y-124441481D01*
X158519605Y-124441241D01*
X158518549Y-124439542D01*
X158519492Y-124437778D01*
X158521129Y-124437563D01*
X158546131Y-124445148D01*
X158575094Y-124448000D01*
X159124906Y-124448000D01*
X159153869Y-124445148D01*
X159178871Y-124437563D01*
X159180819Y-124438017D01*
G37*
G36*
X154280819Y-123938017D02*
G01*
X154281400Y-123939931D01*
X154280395Y-123941241D01*
X154279946Y-123941481D01*
X154259819Y-123954930D01*
X154242772Y-123971977D01*
X154229378Y-123992025D01*
X154220152Y-124014298D01*
X154215448Y-124037949D01*
X154215448Y-124062055D01*
X154220153Y-124085705D01*
X154229380Y-124107979D01*
X154242775Y-124128026D01*
X154259822Y-124145073D01*
X154279946Y-124158519D01*
X154280395Y-124158759D01*
X154281451Y-124160458D01*
X154280508Y-124162222D01*
X154278871Y-124162437D01*
X154253869Y-124154852D01*
X154224906Y-124152000D01*
X153675094Y-124152000D01*
X153646131Y-124154852D01*
X153621129Y-124162437D01*
X153619181Y-124161983D01*
X153618600Y-124160069D01*
X153619605Y-124158759D01*
X153620054Y-124158519D01*
X153640181Y-124145070D01*
X153657228Y-124128023D01*
X153670622Y-124107975D01*
X153679848Y-124085702D01*
X153684552Y-124062051D01*
X153684552Y-124037945D01*
X153679847Y-124014295D01*
X153670620Y-123992021D01*
X153657225Y-123971974D01*
X153640178Y-123954927D01*
X153620054Y-123941481D01*
X153619605Y-123941241D01*
X153618549Y-123939542D01*
X153619492Y-123937778D01*
X153621129Y-123937563D01*
X153646131Y-123945148D01*
X153675094Y-123948000D01*
X154224906Y-123948000D01*
X154253869Y-123945148D01*
X154278871Y-123937563D01*
X154280819Y-123938017D01*
G37*
G36*
X159180819Y-123938017D02*
G01*
X159181400Y-123939931D01*
X159180395Y-123941241D01*
X159179946Y-123941481D01*
X159159819Y-123954930D01*
X159142772Y-123971977D01*
X159129378Y-123992025D01*
X159120152Y-124014298D01*
X159115448Y-124037949D01*
X159115448Y-124062055D01*
X159120153Y-124085705D01*
X159129380Y-124107979D01*
X159142775Y-124128026D01*
X159159822Y-124145073D01*
X159179946Y-124158519D01*
X159180395Y-124158759D01*
X159181451Y-124160458D01*
X159180508Y-124162222D01*
X159178871Y-124162437D01*
X159153869Y-124154852D01*
X159124906Y-124152000D01*
X158575094Y-124152000D01*
X158546131Y-124154852D01*
X158521129Y-124162437D01*
X158519181Y-124161983D01*
X158518600Y-124160069D01*
X158519605Y-124158759D01*
X158520054Y-124158519D01*
X158540181Y-124145070D01*
X158557228Y-124128023D01*
X158570622Y-124107975D01*
X158579848Y-124085702D01*
X158584552Y-124062051D01*
X158584552Y-124037945D01*
X158579847Y-124014295D01*
X158570620Y-123992021D01*
X158557225Y-123971974D01*
X158540178Y-123954927D01*
X158520054Y-123941481D01*
X158519605Y-123941241D01*
X158518549Y-123939542D01*
X158519492Y-123937778D01*
X158521129Y-123937563D01*
X158546131Y-123945148D01*
X158575094Y-123948000D01*
X159124906Y-123948000D01*
X159153869Y-123945148D01*
X159178871Y-123937563D01*
X159180819Y-123938017D01*
G37*
G36*
X156262219Y-122519496D02*
G01*
X156262435Y-122521134D01*
X156254852Y-122546132D01*
X156252000Y-122575094D01*
X156252001Y-123124906D01*
X156254853Y-123153869D01*
X156262436Y-123178866D01*
X156261982Y-123180814D01*
X156260068Y-123181395D01*
X156258758Y-123180389D01*
X156258523Y-123179950D01*
X156245072Y-123159819D01*
X156228025Y-123142772D01*
X156207978Y-123129377D01*
X156185704Y-123120151D01*
X156162053Y-123115447D01*
X156137947Y-123115447D01*
X156114297Y-123120152D01*
X156092023Y-123129378D01*
X156071976Y-123142773D01*
X156054929Y-123159820D01*
X156041479Y-123179948D01*
X156041240Y-123180395D01*
X156039541Y-123181450D01*
X156037778Y-123180506D01*
X156037563Y-123178870D01*
X156045148Y-123153869D01*
X156048000Y-123124906D01*
X156048000Y-122575094D01*
X156045148Y-122546131D01*
X156037565Y-122521134D01*
X156038019Y-122519186D01*
X156039933Y-122518605D01*
X156041243Y-122519611D01*
X156041478Y-122520050D01*
X156054929Y-122540181D01*
X156071976Y-122557228D01*
X156092023Y-122570623D01*
X156114297Y-122579849D01*
X156137948Y-122584553D01*
X156162054Y-122584553D01*
X156185704Y-122579848D01*
X156207978Y-122570622D01*
X156228025Y-122557227D01*
X156245072Y-122540180D01*
X156258522Y-122520050D01*
X156258757Y-122519611D01*
X156260455Y-122518554D01*
X156262219Y-122519496D01*
G37*
G36*
X156762219Y-122519496D02*
G01*
X156762435Y-122521134D01*
X156754852Y-122546132D01*
X156752000Y-122575094D01*
X156752001Y-123124906D01*
X156754853Y-123153869D01*
X156762436Y-123178866D01*
X156761982Y-123180814D01*
X156760068Y-123181395D01*
X156758758Y-123180389D01*
X156758523Y-123179950D01*
X156745072Y-123159819D01*
X156728025Y-123142772D01*
X156707978Y-123129377D01*
X156685704Y-123120151D01*
X156662053Y-123115447D01*
X156637947Y-123115447D01*
X156614297Y-123120152D01*
X156592023Y-123129378D01*
X156571976Y-123142773D01*
X156554929Y-123159820D01*
X156541479Y-123179948D01*
X156541240Y-123180395D01*
X156539541Y-123181450D01*
X156537778Y-123180506D01*
X156537563Y-123178870D01*
X156545148Y-123153869D01*
X156548000Y-123124906D01*
X156548000Y-122575094D01*
X156545148Y-122546131D01*
X156537565Y-122521134D01*
X156538019Y-122519186D01*
X156539933Y-122518605D01*
X156541243Y-122519611D01*
X156541478Y-122520050D01*
X156554929Y-122540181D01*
X156571976Y-122557228D01*
X156592023Y-122570623D01*
X156614297Y-122579849D01*
X156637948Y-122584553D01*
X156662054Y-122584553D01*
X156685704Y-122579848D01*
X156707978Y-122570622D01*
X156728025Y-122557227D01*
X156745072Y-122540180D01*
X156758522Y-122520050D01*
X156758757Y-122519611D01*
X156760455Y-122518554D01*
X156762219Y-122519496D01*
G37*
G36*
X155262219Y-122519496D02*
G01*
X155262435Y-122521134D01*
X155254852Y-122546132D01*
X155252000Y-122575094D01*
X155252001Y-123124906D01*
X155254853Y-123153869D01*
X155262436Y-123178866D01*
X155261982Y-123180814D01*
X155260068Y-123181395D01*
X155258758Y-123180389D01*
X155258523Y-123179950D01*
X155245072Y-123159819D01*
X155228025Y-123142772D01*
X155207978Y-123129377D01*
X155185704Y-123120151D01*
X155162053Y-123115447D01*
X155137947Y-123115447D01*
X155114297Y-123120152D01*
X155092023Y-123129378D01*
X155071976Y-123142773D01*
X155054929Y-123159820D01*
X155041479Y-123179948D01*
X155041240Y-123180395D01*
X155039541Y-123181450D01*
X155037778Y-123180506D01*
X155037563Y-123178870D01*
X155045148Y-123153869D01*
X155048000Y-123124906D01*
X155048000Y-122575094D01*
X155045148Y-122546131D01*
X155037565Y-122521134D01*
X155038019Y-122519186D01*
X155039933Y-122518605D01*
X155041243Y-122519611D01*
X155041478Y-122520050D01*
X155054929Y-122540181D01*
X155071976Y-122557228D01*
X155092023Y-122570623D01*
X155114297Y-122579849D01*
X155137948Y-122584553D01*
X155162054Y-122584553D01*
X155185704Y-122579848D01*
X155207978Y-122570622D01*
X155228025Y-122557227D01*
X155245072Y-122540180D01*
X155258522Y-122520050D01*
X155258757Y-122519611D01*
X155260455Y-122518554D01*
X155262219Y-122519496D01*
G37*
G36*
X157262219Y-122519496D02*
G01*
X157262435Y-122521134D01*
X157254852Y-122546132D01*
X157252000Y-122575094D01*
X157252001Y-123124906D01*
X157254853Y-123153869D01*
X157262436Y-123178866D01*
X157261982Y-123180814D01*
X157260068Y-123181395D01*
X157258758Y-123180389D01*
X157258523Y-123179950D01*
X157245072Y-123159819D01*
X157228025Y-123142772D01*
X157207978Y-123129377D01*
X157185704Y-123120151D01*
X157162053Y-123115447D01*
X157137947Y-123115447D01*
X157114297Y-123120152D01*
X157092023Y-123129378D01*
X157071976Y-123142773D01*
X157054929Y-123159820D01*
X157041479Y-123179948D01*
X157041240Y-123180395D01*
X157039541Y-123181450D01*
X157037778Y-123180506D01*
X157037563Y-123178870D01*
X157045148Y-123153869D01*
X157048000Y-123124906D01*
X157048000Y-122575094D01*
X157045148Y-122546131D01*
X157037565Y-122521134D01*
X157038019Y-122519186D01*
X157039933Y-122518605D01*
X157041243Y-122519611D01*
X157041478Y-122520050D01*
X157054929Y-122540181D01*
X157071976Y-122557228D01*
X157092023Y-122570623D01*
X157114297Y-122579849D01*
X157137948Y-122584553D01*
X157162054Y-122584553D01*
X157185704Y-122579848D01*
X157207978Y-122570622D01*
X157228025Y-122557227D01*
X157245072Y-122540180D01*
X157258522Y-122520050D01*
X157258757Y-122519611D01*
X157260455Y-122518554D01*
X157262219Y-122519496D01*
G37*
G36*
X157762219Y-122519496D02*
G01*
X157762435Y-122521134D01*
X157754852Y-122546132D01*
X157752000Y-122575094D01*
X157752001Y-123124906D01*
X157754853Y-123153869D01*
X157762436Y-123178866D01*
X157761982Y-123180814D01*
X157760068Y-123181395D01*
X157758758Y-123180389D01*
X157758523Y-123179950D01*
X157745072Y-123159819D01*
X157728025Y-123142772D01*
X157707978Y-123129377D01*
X157685704Y-123120151D01*
X157662053Y-123115447D01*
X157637947Y-123115447D01*
X157614297Y-123120152D01*
X157592023Y-123129378D01*
X157571976Y-123142773D01*
X157554929Y-123159820D01*
X157541479Y-123179948D01*
X157541240Y-123180395D01*
X157539541Y-123181450D01*
X157537778Y-123180506D01*
X157537563Y-123178870D01*
X157545148Y-123153869D01*
X157548000Y-123124906D01*
X157548000Y-122575094D01*
X157545148Y-122546131D01*
X157537565Y-122521134D01*
X157538019Y-122519186D01*
X157539933Y-122518605D01*
X157541243Y-122519611D01*
X157541478Y-122520050D01*
X157554929Y-122540181D01*
X157571976Y-122557228D01*
X157592023Y-122570623D01*
X157614297Y-122579849D01*
X157637948Y-122584553D01*
X157662054Y-122584553D01*
X157685704Y-122579848D01*
X157707978Y-122570622D01*
X157728025Y-122557227D01*
X157745072Y-122540180D01*
X157758522Y-122520050D01*
X157758757Y-122519611D01*
X157760455Y-122518554D01*
X157762219Y-122519496D01*
G37*
G36*
X155762219Y-122519496D02*
G01*
X155762435Y-122521134D01*
X155754852Y-122546132D01*
X155752000Y-122575094D01*
X155752001Y-123124906D01*
X155754853Y-123153869D01*
X155762436Y-123178866D01*
X155761982Y-123180814D01*
X155760068Y-123181395D01*
X155758758Y-123180389D01*
X155758523Y-123179950D01*
X155745072Y-123159819D01*
X155728025Y-123142772D01*
X155707978Y-123129377D01*
X155685704Y-123120151D01*
X155662053Y-123115447D01*
X155637947Y-123115447D01*
X155614297Y-123120152D01*
X155592023Y-123129378D01*
X155571976Y-123142773D01*
X155554929Y-123159820D01*
X155541479Y-123179948D01*
X155541240Y-123180395D01*
X155539541Y-123181450D01*
X155537778Y-123180506D01*
X155537563Y-123178870D01*
X155545148Y-123153869D01*
X155548000Y-123124906D01*
X155548000Y-122575094D01*
X155545148Y-122546131D01*
X155537565Y-122521134D01*
X155538019Y-122519186D01*
X155539933Y-122518605D01*
X155541243Y-122519611D01*
X155541478Y-122520050D01*
X155554929Y-122540181D01*
X155571976Y-122557228D01*
X155592023Y-122570623D01*
X155614297Y-122579849D01*
X155637948Y-122584553D01*
X155662054Y-122584553D01*
X155685704Y-122579848D01*
X155707978Y-122570622D01*
X155728025Y-122557227D01*
X155745072Y-122540180D01*
X155758522Y-122520050D01*
X155758757Y-122519611D01*
X155760455Y-122518554D01*
X155762219Y-122519496D01*
G37*
G36*
X181839791Y-122064168D02*
G01*
X181840556Y-122066016D01*
X181839684Y-122067418D01*
X181832440Y-122072258D01*
X181832271Y-122072359D01*
X181831596Y-122072720D01*
X181812957Y-122088006D01*
X181797654Y-122106642D01*
X181786283Y-122127902D01*
X181779276Y-122150974D01*
X181776906Y-122174964D01*
X181779263Y-122198957D01*
X181786255Y-122222034D01*
X181797615Y-122243301D01*
X181812901Y-122261940D01*
X181831537Y-122277243D01*
X181852797Y-122288614D01*
X181875870Y-122295621D01*
X181900092Y-122298010D01*
X181901718Y-122299175D01*
X181901522Y-122301165D01*
X181899896Y-122302000D01*
X181500104Y-122302000D01*
X181498372Y-122301000D01*
X181498372Y-122299000D01*
X181499908Y-122298010D01*
X181524095Y-122295628D01*
X181547170Y-122288628D01*
X181568434Y-122277263D01*
X181587071Y-122261968D01*
X181602366Y-122243331D01*
X181613731Y-122222067D01*
X181620731Y-122198992D01*
X181623094Y-122175001D01*
X181620731Y-122151010D01*
X181613731Y-122127935D01*
X181602366Y-122106671D01*
X181587071Y-122088034D01*
X181568432Y-122072738D01*
X181567754Y-122072376D01*
X181567585Y-122072275D01*
X181560315Y-122067418D01*
X181559430Y-122065624D01*
X181560541Y-122063961D01*
X181562191Y-122063907D01*
X181613497Y-122085158D01*
X181670794Y-122096555D01*
X181729206Y-122096555D01*
X181786503Y-122085158D01*
X181837808Y-122063907D01*
X181839791Y-122064168D01*
G37*
G36*
X184778252Y-121949000D02*
G01*
X184778252Y-121951000D01*
X184776716Y-121951990D01*
X184752529Y-121954372D01*
X184729454Y-121961372D01*
X184708190Y-121972737D01*
X184689553Y-121988032D01*
X184674258Y-122006669D01*
X184662893Y-122027933D01*
X184655893Y-122051008D01*
X184653530Y-122074999D01*
X184655893Y-122098990D01*
X184662893Y-122122065D01*
X184674235Y-122143285D01*
X184698603Y-122170171D01*
X184704111Y-122174691D01*
X184704815Y-122176563D01*
X184703547Y-122178109D01*
X184701899Y-122178001D01*
X184609707Y-122128723D01*
X184506905Y-122097538D01*
X184399906Y-122087000D01*
X183300094Y-122087000D01*
X183193095Y-122097538D01*
X183090293Y-122128723D01*
X182998101Y-122178001D01*
X182996102Y-122177935D01*
X182995159Y-122176172D01*
X182995889Y-122174691D01*
X183001438Y-122170137D01*
X183018552Y-122153023D01*
X183031946Y-122132976D01*
X183041173Y-122110702D01*
X183045877Y-122087052D01*
X183045877Y-122062946D01*
X183041173Y-122039296D01*
X183031946Y-122017022D01*
X183018551Y-121996974D01*
X183001504Y-121979927D01*
X182981457Y-121966533D01*
X182959226Y-121957323D01*
X182923187Y-121951978D01*
X182921620Y-121950735D01*
X182921913Y-121948757D01*
X182923480Y-121948000D01*
X184776520Y-121948000D01*
X184778252Y-121949000D01*
G37*
G36*
X181851732Y-121299000D02*
G01*
X181852000Y-121300000D01*
X181852000Y-121310617D01*
X181850943Y-121312381D01*
X181831566Y-121322737D01*
X181812929Y-121338032D01*
X181797634Y-121356669D01*
X181786269Y-121377933D01*
X181779269Y-121401008D01*
X181776906Y-121424999D01*
X181779269Y-121448990D01*
X181786269Y-121472065D01*
X181797634Y-121493329D01*
X181812929Y-121511966D01*
X181831568Y-121527262D01*
X181832246Y-121527624D01*
X181832415Y-121527725D01*
X181839685Y-121532582D01*
X181840570Y-121534376D01*
X181839459Y-121536039D01*
X181837809Y-121536093D01*
X181786503Y-121514842D01*
X181729206Y-121503445D01*
X181670794Y-121503445D01*
X181613497Y-121514842D01*
X181562192Y-121536093D01*
X181560209Y-121535832D01*
X181559444Y-121533984D01*
X181560316Y-121532582D01*
X181567560Y-121527742D01*
X181567729Y-121527641D01*
X181568404Y-121527280D01*
X181587043Y-121511994D01*
X181602346Y-121493358D01*
X181613717Y-121472098D01*
X181620724Y-121449026D01*
X181623094Y-121425034D01*
X181620737Y-121401043D01*
X181613745Y-121377966D01*
X181602385Y-121356699D01*
X181587099Y-121338060D01*
X181568463Y-121322757D01*
X181547203Y-121311386D01*
X181524130Y-121304379D01*
X181499908Y-121301990D01*
X181498282Y-121300825D01*
X181498478Y-121298835D01*
X181500104Y-121298000D01*
X181850000Y-121298000D01*
X181851732Y-121299000D01*
G37*
G36*
X181839791Y-118064168D02*
G01*
X181840556Y-118066016D01*
X181839684Y-118067418D01*
X181832440Y-118072258D01*
X181832271Y-118072359D01*
X181831596Y-118072720D01*
X181812957Y-118088006D01*
X181797654Y-118106642D01*
X181786283Y-118127902D01*
X181779276Y-118150974D01*
X181776906Y-118174964D01*
X181779263Y-118198957D01*
X181786255Y-118222034D01*
X181797615Y-118243301D01*
X181812901Y-118261940D01*
X181831537Y-118277243D01*
X181850943Y-118287623D01*
X181852000Y-118289387D01*
X181852000Y-118300000D01*
X181851000Y-118301732D01*
X181850000Y-118302000D01*
X181500104Y-118302000D01*
X181498372Y-118301000D01*
X181498372Y-118299000D01*
X181499908Y-118298010D01*
X181524095Y-118295628D01*
X181547170Y-118288628D01*
X181568434Y-118277263D01*
X181587071Y-118261968D01*
X181602366Y-118243331D01*
X181613731Y-118222067D01*
X181620731Y-118198992D01*
X181623094Y-118175001D01*
X181620731Y-118151010D01*
X181613731Y-118127935D01*
X181602366Y-118106671D01*
X181587071Y-118088034D01*
X181568432Y-118072738D01*
X181567754Y-118072376D01*
X181567585Y-118072275D01*
X181560315Y-118067418D01*
X181559430Y-118065624D01*
X181560541Y-118063961D01*
X181562191Y-118063907D01*
X181613497Y-118085158D01*
X181670794Y-118096555D01*
X181729206Y-118096555D01*
X181786503Y-118085158D01*
X181837808Y-118063907D01*
X181839791Y-118064168D01*
G37*
G36*
X182998101Y-117421999D02*
G01*
X183090293Y-117471277D01*
X183193095Y-117502462D01*
X183300094Y-117513000D01*
X184399906Y-117513000D01*
X184506905Y-117502462D01*
X184609707Y-117471277D01*
X184701899Y-117421999D01*
X184703898Y-117422065D01*
X184704841Y-117423828D01*
X184704111Y-117425309D01*
X184698562Y-117429863D01*
X184681448Y-117446977D01*
X184668054Y-117467024D01*
X184658827Y-117489298D01*
X184654123Y-117512948D01*
X184654123Y-117537054D01*
X184658827Y-117560704D01*
X184668054Y-117582978D01*
X184681449Y-117603026D01*
X184698496Y-117620073D01*
X184718543Y-117633467D01*
X184740774Y-117642677D01*
X184776813Y-117648022D01*
X184778380Y-117649265D01*
X184778087Y-117651243D01*
X184776520Y-117652000D01*
X182923480Y-117652000D01*
X182921748Y-117651000D01*
X182921748Y-117649000D01*
X182923284Y-117648010D01*
X182947471Y-117645628D01*
X182970546Y-117638628D01*
X182991810Y-117627263D01*
X183010447Y-117611968D01*
X183025742Y-117593331D01*
X183037107Y-117572067D01*
X183044107Y-117548992D01*
X183046470Y-117525001D01*
X183044107Y-117501010D01*
X183037107Y-117477935D01*
X183025765Y-117456715D01*
X183001397Y-117429829D01*
X182995889Y-117425309D01*
X182995185Y-117423437D01*
X182996453Y-117421891D01*
X182998101Y-117421999D01*
G37*
G36*
X181901628Y-117299000D02*
G01*
X181901628Y-117301000D01*
X181900092Y-117301990D01*
X181875905Y-117304372D01*
X181852830Y-117311372D01*
X181831566Y-117322737D01*
X181812929Y-117338032D01*
X181797634Y-117356669D01*
X181786269Y-117377933D01*
X181779269Y-117401008D01*
X181776906Y-117424999D01*
X181779269Y-117448990D01*
X181786269Y-117472065D01*
X181797634Y-117493329D01*
X181812929Y-117511966D01*
X181831568Y-117527262D01*
X181832246Y-117527624D01*
X181832415Y-117527725D01*
X181839685Y-117532582D01*
X181840570Y-117534376D01*
X181839459Y-117536039D01*
X181837809Y-117536093D01*
X181786503Y-117514842D01*
X181729206Y-117503445D01*
X181670794Y-117503445D01*
X181613497Y-117514842D01*
X181562192Y-117536093D01*
X181560209Y-117535832D01*
X181559444Y-117533984D01*
X181560316Y-117532582D01*
X181567560Y-117527742D01*
X181567729Y-117527641D01*
X181568404Y-117527280D01*
X181587043Y-117511994D01*
X181602346Y-117493358D01*
X181613717Y-117472098D01*
X181620724Y-117449026D01*
X181623094Y-117425034D01*
X181620737Y-117401043D01*
X181613745Y-117377966D01*
X181602385Y-117356699D01*
X181587099Y-117338060D01*
X181568463Y-117322757D01*
X181547203Y-117311386D01*
X181524130Y-117304379D01*
X181499908Y-117301990D01*
X181498282Y-117300825D01*
X181498478Y-117298835D01*
X181500104Y-117298000D01*
X181899896Y-117298000D01*
X181901628Y-117299000D01*
G37*
G36*
X55681427Y-115080602D02*
G01*
X55757968Y-115121515D01*
X55758294Y-115121733D01*
X55839995Y-115188784D01*
X55952025Y-115248665D01*
X56073586Y-115285540D01*
X56200196Y-115298010D01*
X56201822Y-115299175D01*
X56201626Y-115301165D01*
X56200000Y-115302000D01*
X56143640Y-115302000D01*
X56143444Y-115301990D01*
X56022805Y-115290109D01*
X56022420Y-115290033D01*
X55912324Y-115256635D01*
X55911962Y-115256485D01*
X55810497Y-115202250D01*
X55810171Y-115202032D01*
X55721234Y-115129044D01*
X55720957Y-115128767D01*
X55702067Y-115105749D01*
X55684884Y-115088565D01*
X55679215Y-115083912D01*
X55678511Y-115082040D01*
X55679780Y-115080494D01*
X55681427Y-115080602D01*
G37*
G36*
X59320572Y-115080668D02*
G01*
X59321515Y-115082431D01*
X59320785Y-115083912D01*
X59315116Y-115088565D01*
X59297933Y-115105749D01*
X59279043Y-115128767D01*
X59278766Y-115129044D01*
X59189829Y-115202032D01*
X59189503Y-115202250D01*
X59088038Y-115256485D01*
X59087676Y-115256635D01*
X58977580Y-115290033D01*
X58977195Y-115290109D01*
X58856556Y-115301990D01*
X58856360Y-115302000D01*
X58800000Y-115302000D01*
X58798268Y-115301000D01*
X58798268Y-115299000D01*
X58799804Y-115298010D01*
X58926414Y-115285540D01*
X59047975Y-115248665D01*
X59160005Y-115188784D01*
X59241706Y-115121733D01*
X59242032Y-115121515D01*
X59318573Y-115080602D01*
X59320572Y-115080668D01*
G37*
G36*
X58856556Y-112698010D02*
G01*
X58977195Y-112709891D01*
X58977580Y-112709967D01*
X59087676Y-112743365D01*
X59088038Y-112743515D01*
X59189503Y-112797750D01*
X59189829Y-112797968D01*
X59278766Y-112870956D01*
X59279043Y-112871233D01*
X59297933Y-112894251D01*
X59315116Y-112911435D01*
X59320785Y-112916088D01*
X59321489Y-112917960D01*
X59320220Y-112919506D01*
X59318573Y-112919398D01*
X59242032Y-112878485D01*
X59241706Y-112878267D01*
X59160005Y-112811216D01*
X59047975Y-112751335D01*
X58926414Y-112714460D01*
X58799804Y-112701990D01*
X58798178Y-112700825D01*
X58798374Y-112698835D01*
X58800000Y-112698000D01*
X58856360Y-112698000D01*
X58856556Y-112698010D01*
G37*
G36*
X56201732Y-112699000D02*
G01*
X56201732Y-112701000D01*
X56200196Y-112701990D01*
X56073586Y-112714460D01*
X55952025Y-112751335D01*
X55839995Y-112811216D01*
X55758294Y-112878267D01*
X55757968Y-112878485D01*
X55681427Y-112919398D01*
X55679428Y-112919332D01*
X55678485Y-112917569D01*
X55679215Y-112916088D01*
X55684884Y-112911435D01*
X55702067Y-112894251D01*
X55720957Y-112871233D01*
X55721234Y-112870956D01*
X55810171Y-112797968D01*
X55810497Y-112797750D01*
X55911962Y-112743515D01*
X55912324Y-112743365D01*
X56022420Y-112709967D01*
X56022805Y-112709891D01*
X56143444Y-112698010D01*
X56143640Y-112698000D01*
X56200000Y-112698000D01*
X56201732Y-112699000D01*
G37*
G36*
X172479990Y-111190804D02*
G01*
X172487291Y-111264934D01*
X172508859Y-111336033D01*
X172543881Y-111401556D01*
X172591013Y-111458987D01*
X172648444Y-111506119D01*
X172713967Y-111541141D01*
X172785066Y-111562709D01*
X172859196Y-111570010D01*
X172860822Y-111571175D01*
X172860626Y-111573165D01*
X172859000Y-111574000D01*
X172802641Y-111574000D01*
X172802445Y-111573990D01*
X172734286Y-111567277D01*
X172733901Y-111567201D01*
X172674266Y-111549111D01*
X172673904Y-111548961D01*
X172618943Y-111519584D01*
X172618617Y-111519366D01*
X172570445Y-111479832D01*
X172570168Y-111479555D01*
X172530634Y-111431383D01*
X172530416Y-111431057D01*
X172501039Y-111376096D01*
X172500889Y-111375734D01*
X172482799Y-111316099D01*
X172482723Y-111315714D01*
X172476010Y-111247555D01*
X172476000Y-111247359D01*
X172476000Y-111191000D01*
X172477000Y-111189268D01*
X172479000Y-111189268D01*
X172479990Y-111190804D01*
G37*
G36*
X175019990Y-111190804D02*
G01*
X175027291Y-111264934D01*
X175048859Y-111336033D01*
X175083881Y-111401556D01*
X175131013Y-111458987D01*
X175188444Y-111506119D01*
X175253967Y-111541141D01*
X175325066Y-111562709D01*
X175399196Y-111570010D01*
X175400822Y-111571175D01*
X175400626Y-111573165D01*
X175399000Y-111574000D01*
X175342641Y-111574000D01*
X175342445Y-111573990D01*
X175274286Y-111567277D01*
X175273901Y-111567201D01*
X175214266Y-111549111D01*
X175213904Y-111548961D01*
X175158943Y-111519584D01*
X175158617Y-111519366D01*
X175110445Y-111479832D01*
X175110168Y-111479555D01*
X175070634Y-111431383D01*
X175070416Y-111431057D01*
X175041039Y-111376096D01*
X175040889Y-111375734D01*
X175022799Y-111316099D01*
X175022723Y-111315714D01*
X175016010Y-111247555D01*
X175016000Y-111247359D01*
X175016000Y-111191000D01*
X175017000Y-111189268D01*
X175019000Y-111189268D01*
X175019990Y-111190804D01*
G37*
G36*
X176543165Y-111189374D02*
G01*
X176544000Y-111191000D01*
X176544000Y-111247359D01*
X176543990Y-111247555D01*
X176537277Y-111315714D01*
X176537201Y-111316099D01*
X176519111Y-111375734D01*
X176518961Y-111376096D01*
X176489584Y-111431057D01*
X176489366Y-111431383D01*
X176449832Y-111479555D01*
X176449555Y-111479832D01*
X176401383Y-111519366D01*
X176401057Y-111519584D01*
X176346096Y-111548961D01*
X176345734Y-111549111D01*
X176286099Y-111567201D01*
X176285714Y-111567277D01*
X176217555Y-111573990D01*
X176217359Y-111574000D01*
X176161000Y-111574000D01*
X176159268Y-111573000D01*
X176159268Y-111571000D01*
X176160804Y-111570010D01*
X176234934Y-111562709D01*
X176306033Y-111541141D01*
X176371556Y-111506119D01*
X176428987Y-111458987D01*
X176476119Y-111401556D01*
X176511141Y-111336033D01*
X176532709Y-111264934D01*
X176540010Y-111190804D01*
X176541175Y-111189178D01*
X176543165Y-111189374D01*
G37*
G36*
X174003165Y-111189374D02*
G01*
X174004000Y-111191000D01*
X174004000Y-111247359D01*
X174003990Y-111247555D01*
X173997277Y-111315714D01*
X173997201Y-111316099D01*
X173979111Y-111375734D01*
X173978961Y-111376096D01*
X173949584Y-111431057D01*
X173949366Y-111431383D01*
X173909832Y-111479555D01*
X173909555Y-111479832D01*
X173861383Y-111519366D01*
X173861057Y-111519584D01*
X173806096Y-111548961D01*
X173805734Y-111549111D01*
X173746099Y-111567201D01*
X173745714Y-111567277D01*
X173677555Y-111573990D01*
X173677359Y-111574000D01*
X173621000Y-111574000D01*
X173619268Y-111573000D01*
X173619268Y-111571000D01*
X173620804Y-111570010D01*
X173694934Y-111562709D01*
X173766033Y-111541141D01*
X173831556Y-111506119D01*
X173888987Y-111458987D01*
X173936119Y-111401556D01*
X173971141Y-111336033D01*
X173992709Y-111264934D01*
X174000010Y-111190804D01*
X174001175Y-111189178D01*
X174003165Y-111189374D01*
G37*
G36*
X172860732Y-110047000D02*
G01*
X172860732Y-110049000D01*
X172859196Y-110049990D01*
X172785066Y-110057291D01*
X172713967Y-110078859D01*
X172648444Y-110113881D01*
X172591013Y-110161013D01*
X172543881Y-110218444D01*
X172508859Y-110283967D01*
X172487291Y-110355066D01*
X172479990Y-110429196D01*
X172478825Y-110430822D01*
X172476835Y-110430626D01*
X172476000Y-110429000D01*
X172476000Y-110372641D01*
X172476010Y-110372445D01*
X172482723Y-110304286D01*
X172482799Y-110303901D01*
X172500889Y-110244266D01*
X172501039Y-110243904D01*
X172530416Y-110188943D01*
X172530634Y-110188617D01*
X172570168Y-110140445D01*
X172570445Y-110140168D01*
X172618617Y-110100634D01*
X172618943Y-110100416D01*
X172673904Y-110071039D01*
X172674266Y-110070889D01*
X172733901Y-110052799D01*
X172734286Y-110052723D01*
X172802445Y-110046010D01*
X172802641Y-110046000D01*
X172859000Y-110046000D01*
X172860732Y-110047000D01*
G37*
G36*
X175400732Y-110047000D02*
G01*
X175400732Y-110049000D01*
X175399196Y-110049990D01*
X175325066Y-110057291D01*
X175253967Y-110078859D01*
X175188444Y-110113881D01*
X175131013Y-110161013D01*
X175083881Y-110218444D01*
X175048859Y-110283967D01*
X175027291Y-110355066D01*
X175019990Y-110429196D01*
X175018825Y-110430822D01*
X175016835Y-110430626D01*
X175016000Y-110429000D01*
X175016000Y-110372641D01*
X175016010Y-110372445D01*
X175022723Y-110304286D01*
X175022799Y-110303901D01*
X175040889Y-110244266D01*
X175041039Y-110243904D01*
X175070416Y-110188943D01*
X175070634Y-110188617D01*
X175110168Y-110140445D01*
X175110445Y-110140168D01*
X175158617Y-110100634D01*
X175158943Y-110100416D01*
X175213904Y-110071039D01*
X175214266Y-110070889D01*
X175273901Y-110052799D01*
X175274286Y-110052723D01*
X175342445Y-110046010D01*
X175342641Y-110046000D01*
X175399000Y-110046000D01*
X175400732Y-110047000D01*
G37*
G36*
X173677555Y-110046010D02*
G01*
X173745714Y-110052723D01*
X173746099Y-110052799D01*
X173805734Y-110070889D01*
X173806096Y-110071039D01*
X173861057Y-110100416D01*
X173861383Y-110100634D01*
X173909555Y-110140168D01*
X173909832Y-110140445D01*
X173949366Y-110188617D01*
X173949584Y-110188943D01*
X173978961Y-110243904D01*
X173979111Y-110244266D01*
X173997201Y-110303901D01*
X173997277Y-110304286D01*
X174003990Y-110372445D01*
X174004000Y-110372641D01*
X174004000Y-110429000D01*
X174003000Y-110430732D01*
X174001000Y-110430732D01*
X174000010Y-110429196D01*
X173992709Y-110355066D01*
X173971141Y-110283967D01*
X173936119Y-110218444D01*
X173888987Y-110161013D01*
X173831556Y-110113881D01*
X173766033Y-110078859D01*
X173694934Y-110057291D01*
X173620804Y-110049990D01*
X173619178Y-110048825D01*
X173619374Y-110046835D01*
X173621000Y-110046000D01*
X173677359Y-110046000D01*
X173677555Y-110046010D01*
G37*
G36*
X176217555Y-110046010D02*
G01*
X176285714Y-110052723D01*
X176286099Y-110052799D01*
X176345734Y-110070889D01*
X176346096Y-110071039D01*
X176401057Y-110100416D01*
X176401383Y-110100634D01*
X176449555Y-110140168D01*
X176449832Y-110140445D01*
X176489366Y-110188617D01*
X176489584Y-110188943D01*
X176518961Y-110243904D01*
X176519111Y-110244266D01*
X176537201Y-110303901D01*
X176537277Y-110304286D01*
X176543990Y-110372445D01*
X176544000Y-110372641D01*
X176544000Y-110429000D01*
X176543000Y-110430732D01*
X176541000Y-110430732D01*
X176540010Y-110429196D01*
X176532709Y-110355066D01*
X176511141Y-110283967D01*
X176476119Y-110218444D01*
X176428987Y-110161013D01*
X176371556Y-110113881D01*
X176306033Y-110078859D01*
X176234934Y-110057291D01*
X176160804Y-110049990D01*
X176159178Y-110048825D01*
X176159374Y-110046835D01*
X176161000Y-110046000D01*
X176217359Y-110046000D01*
X176217555Y-110046010D01*
G37*
G36*
X126701165Y-108478374D02*
G01*
X126702000Y-108480000D01*
X126702000Y-108536360D01*
X126701990Y-108536556D01*
X126694912Y-108608419D01*
X126694836Y-108608804D01*
X126675664Y-108672004D01*
X126675514Y-108672366D01*
X126644380Y-108730615D01*
X126644162Y-108730941D01*
X126602267Y-108781990D01*
X126601990Y-108782267D01*
X126550941Y-108824162D01*
X126550615Y-108824380D01*
X126492366Y-108855514D01*
X126492004Y-108855664D01*
X126428804Y-108874836D01*
X126428419Y-108874912D01*
X126356556Y-108881990D01*
X126356360Y-108882000D01*
X126300000Y-108882000D01*
X126298268Y-108881000D01*
X126298268Y-108879000D01*
X126299804Y-108878010D01*
X126377641Y-108870344D01*
X126452304Y-108847695D01*
X126521112Y-108810917D01*
X126581422Y-108761422D01*
X126630917Y-108701112D01*
X126667695Y-108632304D01*
X126690344Y-108557641D01*
X126698010Y-108479804D01*
X126699175Y-108478178D01*
X126701165Y-108478374D01*
G37*
G36*
X125101990Y-108479804D02*
G01*
X125109656Y-108557641D01*
X125132305Y-108632304D01*
X125169083Y-108701112D01*
X125218578Y-108761422D01*
X125278888Y-108810917D01*
X125347696Y-108847695D01*
X125422359Y-108870344D01*
X125500196Y-108878010D01*
X125501822Y-108879175D01*
X125501626Y-108881165D01*
X125500000Y-108882000D01*
X125443640Y-108882000D01*
X125443444Y-108881990D01*
X125371581Y-108874912D01*
X125371196Y-108874836D01*
X125307996Y-108855664D01*
X125307634Y-108855514D01*
X125249385Y-108824380D01*
X125249059Y-108824162D01*
X125198010Y-108782267D01*
X125197733Y-108781990D01*
X125155838Y-108730941D01*
X125155620Y-108730615D01*
X125124486Y-108672366D01*
X125124336Y-108672004D01*
X125105164Y-108608804D01*
X125105088Y-108608419D01*
X125098010Y-108536556D01*
X125098000Y-108536360D01*
X125098000Y-108480000D01*
X125099000Y-108478268D01*
X125101000Y-108478268D01*
X125101990Y-108479804D01*
G37*
G36*
X125501732Y-107279000D02*
G01*
X125501732Y-107281000D01*
X125500196Y-107281990D01*
X125422359Y-107289656D01*
X125347696Y-107312305D01*
X125278888Y-107349083D01*
X125218578Y-107398578D01*
X125169083Y-107458888D01*
X125132305Y-107527696D01*
X125109656Y-107602359D01*
X125101990Y-107680196D01*
X125100825Y-107681822D01*
X125098835Y-107681626D01*
X125098000Y-107680000D01*
X125098000Y-107623640D01*
X125098010Y-107623444D01*
X125105088Y-107551581D01*
X125105164Y-107551196D01*
X125124336Y-107487996D01*
X125124486Y-107487634D01*
X125155620Y-107429385D01*
X125155838Y-107429059D01*
X125197733Y-107378010D01*
X125198010Y-107377733D01*
X125249059Y-107335838D01*
X125249385Y-107335620D01*
X125307634Y-107304486D01*
X125307996Y-107304336D01*
X125371196Y-107285164D01*
X125371581Y-107285088D01*
X125443444Y-107278010D01*
X125443640Y-107278000D01*
X125500000Y-107278000D01*
X125501732Y-107279000D01*
G37*
G36*
X126356556Y-107278010D02*
G01*
X126428419Y-107285088D01*
X126428804Y-107285164D01*
X126492004Y-107304336D01*
X126492366Y-107304486D01*
X126550615Y-107335620D01*
X126550941Y-107335838D01*
X126601990Y-107377733D01*
X126602267Y-107378010D01*
X126644162Y-107429059D01*
X126644380Y-107429385D01*
X126675514Y-107487634D01*
X126675664Y-107487996D01*
X126694836Y-107551196D01*
X126694912Y-107551581D01*
X126701990Y-107623444D01*
X126702000Y-107623640D01*
X126702000Y-107680000D01*
X126701000Y-107681732D01*
X126699000Y-107681732D01*
X126698010Y-107680196D01*
X126690344Y-107602359D01*
X126667695Y-107527696D01*
X126630917Y-107458888D01*
X126581422Y-107398578D01*
X126521112Y-107349083D01*
X126452304Y-107312305D01*
X126377641Y-107289656D01*
X126299804Y-107281990D01*
X126298178Y-107280825D01*
X126298374Y-107278835D01*
X126300000Y-107278000D01*
X126356360Y-107278000D01*
X126356556Y-107278010D01*
G37*
G36*
X96221165Y-104298374D02*
G01*
X96222000Y-104300000D01*
X96222000Y-104356360D01*
X96221990Y-104356556D01*
X96214912Y-104428419D01*
X96214836Y-104428804D01*
X96195664Y-104492004D01*
X96195514Y-104492366D01*
X96164380Y-104550615D01*
X96164162Y-104550941D01*
X96122267Y-104601990D01*
X96121990Y-104602267D01*
X96070941Y-104644162D01*
X96070615Y-104644380D01*
X96012366Y-104675514D01*
X96012004Y-104675664D01*
X95948804Y-104694836D01*
X95948419Y-104694912D01*
X95876556Y-104701990D01*
X95876360Y-104702000D01*
X95820000Y-104702000D01*
X95818268Y-104701000D01*
X95818268Y-104699000D01*
X95819804Y-104698010D01*
X95897641Y-104690344D01*
X95972304Y-104667695D01*
X96041112Y-104630917D01*
X96101422Y-104581422D01*
X96150917Y-104521112D01*
X96187695Y-104452304D01*
X96210344Y-104377641D01*
X96218010Y-104299804D01*
X96219175Y-104298178D01*
X96221165Y-104298374D01*
G37*
G36*
X88601165Y-104298374D02*
G01*
X88602000Y-104300000D01*
X88602000Y-104356360D01*
X88601990Y-104356556D01*
X88594912Y-104428419D01*
X88594836Y-104428804D01*
X88575664Y-104492004D01*
X88575514Y-104492366D01*
X88544380Y-104550615D01*
X88544162Y-104550941D01*
X88502267Y-104601990D01*
X88501990Y-104602267D01*
X88450941Y-104644162D01*
X88450615Y-104644380D01*
X88392366Y-104675514D01*
X88392004Y-104675664D01*
X88328804Y-104694836D01*
X88328419Y-104694912D01*
X88256556Y-104701990D01*
X88256360Y-104702000D01*
X88200000Y-104702000D01*
X88198268Y-104701000D01*
X88198268Y-104699000D01*
X88199804Y-104698010D01*
X88277641Y-104690344D01*
X88352304Y-104667695D01*
X88421112Y-104630917D01*
X88481422Y-104581422D01*
X88530917Y-104521112D01*
X88567695Y-104452304D01*
X88590344Y-104377641D01*
X88598010Y-104299804D01*
X88599175Y-104298178D01*
X88601165Y-104298374D01*
G37*
G36*
X86061165Y-104298374D02*
G01*
X86062000Y-104300000D01*
X86062000Y-104356360D01*
X86061990Y-104356556D01*
X86054912Y-104428419D01*
X86054836Y-104428804D01*
X86035664Y-104492004D01*
X86035514Y-104492366D01*
X86004380Y-104550615D01*
X86004162Y-104550941D01*
X85962267Y-104601990D01*
X85961990Y-104602267D01*
X85910941Y-104644162D01*
X85910615Y-104644380D01*
X85852366Y-104675514D01*
X85852004Y-104675664D01*
X85788804Y-104694836D01*
X85788419Y-104694912D01*
X85716556Y-104701990D01*
X85716360Y-104702000D01*
X85660000Y-104702000D01*
X85658268Y-104701000D01*
X85658268Y-104699000D01*
X85659804Y-104698010D01*
X85737641Y-104690344D01*
X85812304Y-104667695D01*
X85881112Y-104630917D01*
X85941422Y-104581422D01*
X85990917Y-104521112D01*
X86027695Y-104452304D01*
X86050344Y-104377641D01*
X86058010Y-104299804D01*
X86059175Y-104298178D01*
X86061165Y-104298374D01*
G37*
G36*
X84461990Y-104299804D02*
G01*
X84469656Y-104377641D01*
X84492305Y-104452304D01*
X84529083Y-104521112D01*
X84578578Y-104581422D01*
X84638888Y-104630917D01*
X84707696Y-104667695D01*
X84782359Y-104690344D01*
X84860196Y-104698010D01*
X84861822Y-104699175D01*
X84861626Y-104701165D01*
X84860000Y-104702000D01*
X84803640Y-104702000D01*
X84803444Y-104701990D01*
X84731581Y-104694912D01*
X84731196Y-104694836D01*
X84667996Y-104675664D01*
X84667634Y-104675514D01*
X84609385Y-104644380D01*
X84609059Y-104644162D01*
X84558010Y-104602267D01*
X84557733Y-104601990D01*
X84515838Y-104550941D01*
X84515620Y-104550615D01*
X84484486Y-104492366D01*
X84484336Y-104492004D01*
X84465164Y-104428804D01*
X84465088Y-104428419D01*
X84458010Y-104356556D01*
X84458000Y-104356360D01*
X84458000Y-104300000D01*
X84459000Y-104298268D01*
X84461000Y-104298268D01*
X84461990Y-104299804D01*
G37*
G36*
X87001990Y-104299804D02*
G01*
X87009656Y-104377641D01*
X87032305Y-104452304D01*
X87069083Y-104521112D01*
X87118578Y-104581422D01*
X87178888Y-104630917D01*
X87247696Y-104667695D01*
X87322359Y-104690344D01*
X87400196Y-104698010D01*
X87401822Y-104699175D01*
X87401626Y-104701165D01*
X87400000Y-104702000D01*
X87343640Y-104702000D01*
X87343444Y-104701990D01*
X87271581Y-104694912D01*
X87271196Y-104694836D01*
X87207996Y-104675664D01*
X87207634Y-104675514D01*
X87149385Y-104644380D01*
X87149059Y-104644162D01*
X87098010Y-104602267D01*
X87097733Y-104601990D01*
X87055838Y-104550941D01*
X87055620Y-104550615D01*
X87024486Y-104492366D01*
X87024336Y-104492004D01*
X87005164Y-104428804D01*
X87005088Y-104428419D01*
X86998010Y-104356556D01*
X86998000Y-104356360D01*
X86998000Y-104300000D01*
X86999000Y-104298268D01*
X87001000Y-104298268D01*
X87001990Y-104299804D01*
G37*
G36*
X94621990Y-104299804D02*
G01*
X94629656Y-104377641D01*
X94652305Y-104452304D01*
X94689083Y-104521112D01*
X94738578Y-104581422D01*
X94798888Y-104630917D01*
X94867696Y-104667695D01*
X94942359Y-104690344D01*
X95020196Y-104698010D01*
X95021822Y-104699175D01*
X95021626Y-104701165D01*
X95020000Y-104702000D01*
X94963640Y-104702000D01*
X94963444Y-104701990D01*
X94891581Y-104694912D01*
X94891196Y-104694836D01*
X94827996Y-104675664D01*
X94827634Y-104675514D01*
X94769385Y-104644380D01*
X94769059Y-104644162D01*
X94718010Y-104602267D01*
X94717733Y-104601990D01*
X94675838Y-104550941D01*
X94675620Y-104550615D01*
X94644486Y-104492366D01*
X94644336Y-104492004D01*
X94625164Y-104428804D01*
X94625088Y-104428419D01*
X94618010Y-104356556D01*
X94618000Y-104356360D01*
X94618000Y-104300000D01*
X94619000Y-104298268D01*
X94621000Y-104298268D01*
X94621990Y-104299804D01*
G37*
G36*
X95021732Y-103099000D02*
G01*
X95021732Y-103101000D01*
X95020196Y-103101990D01*
X94942359Y-103109656D01*
X94867696Y-103132305D01*
X94798888Y-103169083D01*
X94738578Y-103218578D01*
X94689083Y-103278888D01*
X94652305Y-103347696D01*
X94629656Y-103422359D01*
X94621990Y-103500196D01*
X94620825Y-103501822D01*
X94618835Y-103501626D01*
X94618000Y-103500000D01*
X94618000Y-103443640D01*
X94618010Y-103443444D01*
X94625088Y-103371581D01*
X94625164Y-103371196D01*
X94644336Y-103307996D01*
X94644486Y-103307634D01*
X94675620Y-103249385D01*
X94675838Y-103249059D01*
X94717733Y-103198010D01*
X94718010Y-103197733D01*
X94769059Y-103155838D01*
X94769385Y-103155620D01*
X94827634Y-103124486D01*
X94827996Y-103124336D01*
X94891196Y-103105164D01*
X94891581Y-103105088D01*
X94963444Y-103098010D01*
X94963640Y-103098000D01*
X95020000Y-103098000D01*
X95021732Y-103099000D01*
G37*
G36*
X84861732Y-103099000D02*
G01*
X84861732Y-103101000D01*
X84860196Y-103101990D01*
X84782359Y-103109656D01*
X84707696Y-103132305D01*
X84638888Y-103169083D01*
X84578578Y-103218578D01*
X84529083Y-103278888D01*
X84492305Y-103347696D01*
X84469656Y-103422359D01*
X84461990Y-103500196D01*
X84460825Y-103501822D01*
X84458835Y-103501626D01*
X84458000Y-103500000D01*
X84458000Y-103443640D01*
X84458010Y-103443444D01*
X84465088Y-103371581D01*
X84465164Y-103371196D01*
X84484336Y-103307996D01*
X84484486Y-103307634D01*
X84515620Y-103249385D01*
X84515838Y-103249059D01*
X84557733Y-103198010D01*
X84558010Y-103197733D01*
X84609059Y-103155838D01*
X84609385Y-103155620D01*
X84667634Y-103124486D01*
X84667996Y-103124336D01*
X84731196Y-103105164D01*
X84731581Y-103105088D01*
X84803444Y-103098010D01*
X84803640Y-103098000D01*
X84860000Y-103098000D01*
X84861732Y-103099000D01*
G37*
G36*
X87401732Y-103099000D02*
G01*
X87401732Y-103101000D01*
X87400196Y-103101990D01*
X87322359Y-103109656D01*
X87247696Y-103132305D01*
X87178888Y-103169083D01*
X87118578Y-103218578D01*
X87069083Y-103278888D01*
X87032305Y-103347696D01*
X87009656Y-103422359D01*
X87001990Y-103500196D01*
X87000825Y-103501822D01*
X86998835Y-103501626D01*
X86998000Y-103500000D01*
X86998000Y-103443640D01*
X86998010Y-103443444D01*
X87005088Y-103371581D01*
X87005164Y-103371196D01*
X87024336Y-103307996D01*
X87024486Y-103307634D01*
X87055620Y-103249385D01*
X87055838Y-103249059D01*
X87097733Y-103198010D01*
X87098010Y-103197733D01*
X87149059Y-103155838D01*
X87149385Y-103155620D01*
X87207634Y-103124486D01*
X87207996Y-103124336D01*
X87271196Y-103105164D01*
X87271581Y-103105088D01*
X87343444Y-103098010D01*
X87343640Y-103098000D01*
X87400000Y-103098000D01*
X87401732Y-103099000D01*
G37*
G36*
X85716556Y-103098010D02*
G01*
X85788419Y-103105088D01*
X85788804Y-103105164D01*
X85852004Y-103124336D01*
X85852366Y-103124486D01*
X85910615Y-103155620D01*
X85910941Y-103155838D01*
X85961990Y-103197733D01*
X85962267Y-103198010D01*
X86004162Y-103249059D01*
X86004380Y-103249385D01*
X86035514Y-103307634D01*
X86035664Y-103307996D01*
X86054836Y-103371196D01*
X86054912Y-103371581D01*
X86061990Y-103443444D01*
X86062000Y-103443640D01*
X86062000Y-103500000D01*
X86061000Y-103501732D01*
X86059000Y-103501732D01*
X86058010Y-103500196D01*
X86050344Y-103422359D01*
X86027695Y-103347696D01*
X85990917Y-103278888D01*
X85941422Y-103218578D01*
X85881112Y-103169083D01*
X85812304Y-103132305D01*
X85737641Y-103109656D01*
X85659804Y-103101990D01*
X85658178Y-103100825D01*
X85658374Y-103098835D01*
X85660000Y-103098000D01*
X85716360Y-103098000D01*
X85716556Y-103098010D01*
G37*
G36*
X95876556Y-103098010D02*
G01*
X95948419Y-103105088D01*
X95948804Y-103105164D01*
X96012004Y-103124336D01*
X96012366Y-103124486D01*
X96070615Y-103155620D01*
X96070941Y-103155838D01*
X96121990Y-103197733D01*
X96122267Y-103198010D01*
X96164162Y-103249059D01*
X96164380Y-103249385D01*
X96195514Y-103307634D01*
X96195664Y-103307996D01*
X96214836Y-103371196D01*
X96214912Y-103371581D01*
X96221990Y-103443444D01*
X96222000Y-103443640D01*
X96222000Y-103500000D01*
X96221000Y-103501732D01*
X96219000Y-103501732D01*
X96218010Y-103500196D01*
X96210344Y-103422359D01*
X96187695Y-103347696D01*
X96150917Y-103278888D01*
X96101422Y-103218578D01*
X96041112Y-103169083D01*
X95972304Y-103132305D01*
X95897641Y-103109656D01*
X95819804Y-103101990D01*
X95818178Y-103100825D01*
X95818374Y-103098835D01*
X95820000Y-103098000D01*
X95876360Y-103098000D01*
X95876556Y-103098010D01*
G37*
G36*
X88256556Y-103098010D02*
G01*
X88328419Y-103105088D01*
X88328804Y-103105164D01*
X88392004Y-103124336D01*
X88392366Y-103124486D01*
X88450615Y-103155620D01*
X88450941Y-103155838D01*
X88501990Y-103197733D01*
X88502267Y-103198010D01*
X88544162Y-103249059D01*
X88544380Y-103249385D01*
X88575514Y-103307634D01*
X88575664Y-103307996D01*
X88594836Y-103371196D01*
X88594912Y-103371581D01*
X88601990Y-103443444D01*
X88602000Y-103443640D01*
X88602000Y-103500000D01*
X88601000Y-103501732D01*
X88599000Y-103501732D01*
X88598010Y-103500196D01*
X88590344Y-103422359D01*
X88567695Y-103347696D01*
X88530917Y-103278888D01*
X88481422Y-103218578D01*
X88421112Y-103169083D01*
X88352304Y-103132305D01*
X88277641Y-103109656D01*
X88199804Y-103101990D01*
X88198178Y-103100825D01*
X88198374Y-103098835D01*
X88200000Y-103098000D01*
X88256360Y-103098000D01*
X88256556Y-103098010D01*
G37*
G36*
X172298401Y-76914000D02*
G01*
X172298083Y-76916414D01*
X172248700Y-76965797D01*
X172199909Y-77038818D01*
X172181726Y-77082717D01*
X172180139Y-77083935D01*
X172178291Y-77083170D01*
X172177964Y-77081371D01*
X172183236Y-77063991D01*
X172185599Y-77039999D01*
X172183236Y-77016009D01*
X172176236Y-76992934D01*
X172164871Y-76971670D01*
X172149576Y-76953033D01*
X172130939Y-76937738D01*
X172109676Y-76926372D01*
X172086601Y-76919372D01*
X172062413Y-76916990D01*
X172060787Y-76915825D01*
X172060983Y-76913835D01*
X172062609Y-76913000D01*
X172296669Y-76913000D01*
X172298401Y-76914000D01*
G37*
G36*
X170463401Y-76914000D02*
G01*
X170463083Y-76916414D01*
X170413700Y-76965797D01*
X170364909Y-77038818D01*
X170346726Y-77082717D01*
X170345139Y-77083935D01*
X170343291Y-77083170D01*
X170342964Y-77081371D01*
X170348236Y-77063991D01*
X170350599Y-77039999D01*
X170348236Y-77016009D01*
X170341236Y-76992934D01*
X170329871Y-76971670D01*
X170314576Y-76953033D01*
X170295939Y-76937738D01*
X170274676Y-76926372D01*
X170251601Y-76919372D01*
X170227413Y-76916990D01*
X170225787Y-76915825D01*
X170225983Y-76913835D01*
X170227609Y-76913000D01*
X170461669Y-76913000D01*
X170463401Y-76914000D01*
G37*
G36*
X168628401Y-76914000D02*
G01*
X168628083Y-76916414D01*
X168578700Y-76965797D01*
X168529909Y-77038818D01*
X168511726Y-77082717D01*
X168510139Y-77083935D01*
X168508291Y-77083170D01*
X168507964Y-77081371D01*
X168513236Y-77063991D01*
X168515599Y-77039999D01*
X168513236Y-77016009D01*
X168506236Y-76992934D01*
X168494871Y-76971670D01*
X168479576Y-76953033D01*
X168460939Y-76937738D01*
X168439676Y-76926372D01*
X168416601Y-76919372D01*
X168392413Y-76916990D01*
X168390787Y-76915825D01*
X168390983Y-76913835D01*
X168392609Y-76913000D01*
X168626669Y-76913000D01*
X168628401Y-76914000D01*
G37*
G36*
X171294125Y-76914000D02*
G01*
X171294125Y-76916000D01*
X171292589Y-76916990D01*
X171268402Y-76919372D01*
X171245327Y-76926372D01*
X171224063Y-76937737D01*
X171205426Y-76953032D01*
X171190131Y-76971669D01*
X171178766Y-76992933D01*
X171171766Y-77016008D01*
X171169403Y-77039999D01*
X171171766Y-77063990D01*
X171177039Y-77081371D01*
X171176585Y-77083319D01*
X171174671Y-77083900D01*
X171173277Y-77082717D01*
X171155093Y-77038818D01*
X171106302Y-76965797D01*
X171056919Y-76916414D01*
X171056401Y-76914482D01*
X171058333Y-76913000D01*
X171292393Y-76913000D01*
X171294125Y-76914000D01*
G37*
G36*
X173129125Y-76914000D02*
G01*
X173129125Y-76916000D01*
X173127589Y-76916990D01*
X173103402Y-76919372D01*
X173080327Y-76926372D01*
X173059063Y-76937737D01*
X173040426Y-76953032D01*
X173025131Y-76971669D01*
X173013766Y-76992933D01*
X173006766Y-77016008D01*
X173004403Y-77039999D01*
X173006766Y-77063990D01*
X173012039Y-77081371D01*
X173011585Y-77083319D01*
X173009671Y-77083900D01*
X173008277Y-77082717D01*
X172990093Y-77038818D01*
X172941302Y-76965797D01*
X172891919Y-76916414D01*
X172891401Y-76914482D01*
X172893333Y-76913000D01*
X173127393Y-76913000D01*
X173129125Y-76914000D01*
G37*
G36*
X169459125Y-76914000D02*
G01*
X169459125Y-76916000D01*
X169457589Y-76916990D01*
X169433402Y-76919372D01*
X169410327Y-76926372D01*
X169389063Y-76937737D01*
X169370426Y-76953032D01*
X169355131Y-76971669D01*
X169343766Y-76992933D01*
X169336766Y-77016008D01*
X169334403Y-77039999D01*
X169336766Y-77063990D01*
X169342039Y-77081371D01*
X169341585Y-77083319D01*
X169339671Y-77083900D01*
X169338277Y-77082717D01*
X169320093Y-77038818D01*
X169271302Y-76965797D01*
X169221919Y-76916414D01*
X169221401Y-76914482D01*
X169223333Y-76913000D01*
X169457393Y-76913000D01*
X169459125Y-76914000D01*
G37*
G36*
X176001165Y-56998374D02*
G01*
X176002000Y-57000000D01*
X176002000Y-57093860D01*
X176001990Y-57094056D01*
X175998515Y-57129340D01*
X175998439Y-57129725D01*
X175989937Y-57157752D01*
X175989787Y-57158114D01*
X175975981Y-57183943D01*
X175975763Y-57184269D01*
X175957184Y-57206907D01*
X175956907Y-57207184D01*
X175934269Y-57225763D01*
X175933943Y-57225981D01*
X175908114Y-57239787D01*
X175907752Y-57239937D01*
X175879725Y-57248439D01*
X175879340Y-57248515D01*
X175844056Y-57251990D01*
X175843860Y-57252000D01*
X175750000Y-57252000D01*
X175748268Y-57251000D01*
X175748268Y-57249000D01*
X175749804Y-57248010D01*
X175798378Y-57243226D01*
X175844902Y-57229113D01*
X175887777Y-57206196D01*
X175925356Y-57175356D01*
X175956196Y-57137777D01*
X175979113Y-57094902D01*
X175993226Y-57048378D01*
X175998010Y-56999804D01*
X175999175Y-56998178D01*
X176001165Y-56998374D01*
G37*
G36*
X169501165Y-56998374D02*
G01*
X169502000Y-57000000D01*
X169502000Y-57093860D01*
X169501990Y-57094056D01*
X169498515Y-57129340D01*
X169498439Y-57129725D01*
X169489937Y-57157752D01*
X169489787Y-57158114D01*
X169475981Y-57183943D01*
X169475763Y-57184269D01*
X169457184Y-57206907D01*
X169456907Y-57207184D01*
X169434269Y-57225763D01*
X169433943Y-57225981D01*
X169408114Y-57239787D01*
X169407752Y-57239937D01*
X169379725Y-57248439D01*
X169379340Y-57248515D01*
X169344056Y-57251990D01*
X169343860Y-57252000D01*
X169250000Y-57252000D01*
X169248268Y-57251000D01*
X169248268Y-57249000D01*
X169249804Y-57248010D01*
X169298378Y-57243226D01*
X169344902Y-57229113D01*
X169387777Y-57206196D01*
X169425356Y-57175356D01*
X169456196Y-57137777D01*
X169479113Y-57094902D01*
X169493226Y-57048378D01*
X169498010Y-56999804D01*
X169499175Y-56998178D01*
X169501165Y-56998374D01*
G37*
G36*
X166001990Y-56999804D02*
G01*
X166006774Y-57048378D01*
X166020887Y-57094902D01*
X166043804Y-57137777D01*
X166074644Y-57175356D01*
X166112223Y-57206196D01*
X166155098Y-57229113D01*
X166201622Y-57243226D01*
X166250196Y-57248010D01*
X166251822Y-57249175D01*
X166251626Y-57251165D01*
X166250000Y-57252000D01*
X166156140Y-57252000D01*
X166155944Y-57251990D01*
X166120660Y-57248515D01*
X166120275Y-57248439D01*
X166092248Y-57239937D01*
X166091886Y-57239787D01*
X166066057Y-57225981D01*
X166065731Y-57225763D01*
X166043093Y-57207184D01*
X166042816Y-57206907D01*
X166024237Y-57184269D01*
X166024019Y-57183943D01*
X166010213Y-57158114D01*
X166010063Y-57157752D01*
X166001561Y-57129725D01*
X166001485Y-57129340D01*
X165998010Y-57094056D01*
X165998000Y-57093860D01*
X165998000Y-57000000D01*
X165999000Y-56998268D01*
X166001000Y-56998268D01*
X166001990Y-56999804D01*
G37*
G36*
X172501990Y-56999804D02*
G01*
X172506774Y-57048378D01*
X172520887Y-57094902D01*
X172543804Y-57137777D01*
X172574644Y-57175356D01*
X172612223Y-57206196D01*
X172655098Y-57229113D01*
X172701622Y-57243226D01*
X172750196Y-57248010D01*
X172751822Y-57249175D01*
X172751626Y-57251165D01*
X172750000Y-57252000D01*
X172656140Y-57252000D01*
X172655944Y-57251990D01*
X172620660Y-57248515D01*
X172620275Y-57248439D01*
X172592248Y-57239937D01*
X172591886Y-57239787D01*
X172566057Y-57225981D01*
X172565731Y-57225763D01*
X172543093Y-57207184D01*
X172542816Y-57206907D01*
X172524237Y-57184269D01*
X172524019Y-57183943D01*
X172510213Y-57158114D01*
X172510063Y-57157752D01*
X172501561Y-57129725D01*
X172501485Y-57129340D01*
X172498010Y-57094056D01*
X172498000Y-57093860D01*
X172498000Y-57000000D01*
X172499000Y-56998268D01*
X172501000Y-56998268D01*
X172501990Y-56999804D01*
G37*
G36*
X91951990Y-55399804D02*
G01*
X91964460Y-55526414D01*
X92001335Y-55647975D01*
X92061216Y-55760005D01*
X92141802Y-55858198D01*
X92239995Y-55938784D01*
X92352025Y-55998665D01*
X92473586Y-56035540D01*
X92600196Y-56048010D01*
X92601822Y-56049175D01*
X92601626Y-56051165D01*
X92600000Y-56052000D01*
X92543640Y-56052000D01*
X92543444Y-56051990D01*
X92422805Y-56040109D01*
X92422420Y-56040033D01*
X92312324Y-56006635D01*
X92311962Y-56006485D01*
X92210497Y-55952250D01*
X92210171Y-55952032D01*
X92121233Y-55879044D01*
X92120956Y-55878767D01*
X92047968Y-55789829D01*
X92047750Y-55789503D01*
X91993515Y-55688038D01*
X91993365Y-55687676D01*
X91959967Y-55577580D01*
X91959891Y-55577195D01*
X91948010Y-55456556D01*
X91948000Y-55456360D01*
X91948000Y-55400000D01*
X91949000Y-55398268D01*
X91951000Y-55398268D01*
X91951990Y-55399804D01*
G37*
G36*
X76951990Y-55399804D02*
G01*
X76964460Y-55526414D01*
X77001335Y-55647975D01*
X77061216Y-55760005D01*
X77141802Y-55858198D01*
X77239995Y-55938784D01*
X77352025Y-55998665D01*
X77473586Y-56035540D01*
X77600196Y-56048010D01*
X77601822Y-56049175D01*
X77601626Y-56051165D01*
X77600000Y-56052000D01*
X77543640Y-56052000D01*
X77543444Y-56051990D01*
X77422805Y-56040109D01*
X77422420Y-56040033D01*
X77312324Y-56006635D01*
X77311962Y-56006485D01*
X77210497Y-55952250D01*
X77210171Y-55952032D01*
X77121233Y-55879044D01*
X77120956Y-55878767D01*
X77047968Y-55789829D01*
X77047750Y-55789503D01*
X76993515Y-55688038D01*
X76993365Y-55687676D01*
X76959967Y-55577580D01*
X76959891Y-55577195D01*
X76948010Y-55456556D01*
X76948000Y-55456360D01*
X76948000Y-55400000D01*
X76949000Y-55398268D01*
X76951000Y-55398268D01*
X76951990Y-55399804D01*
G37*
G36*
X81951990Y-55399804D02*
G01*
X81964460Y-55526414D01*
X82001335Y-55647975D01*
X82061216Y-55760005D01*
X82141802Y-55858198D01*
X82239995Y-55938784D01*
X82352025Y-55998665D01*
X82473586Y-56035540D01*
X82600196Y-56048010D01*
X82601822Y-56049175D01*
X82601626Y-56051165D01*
X82600000Y-56052000D01*
X82543640Y-56052000D01*
X82543444Y-56051990D01*
X82422805Y-56040109D01*
X82422420Y-56040033D01*
X82312324Y-56006635D01*
X82311962Y-56006485D01*
X82210497Y-55952250D01*
X82210171Y-55952032D01*
X82121233Y-55879044D01*
X82120956Y-55878767D01*
X82047968Y-55789829D01*
X82047750Y-55789503D01*
X81993515Y-55688038D01*
X81993365Y-55687676D01*
X81959967Y-55577580D01*
X81959891Y-55577195D01*
X81948010Y-55456556D01*
X81948000Y-55456360D01*
X81948000Y-55400000D01*
X81949000Y-55398268D01*
X81951000Y-55398268D01*
X81951990Y-55399804D01*
G37*
G36*
X66951990Y-55399804D02*
G01*
X66964460Y-55526414D01*
X67001335Y-55647975D01*
X67061216Y-55760005D01*
X67141802Y-55858198D01*
X67239995Y-55938784D01*
X67352025Y-55998665D01*
X67473586Y-56035540D01*
X67600196Y-56048010D01*
X67601822Y-56049175D01*
X67601626Y-56051165D01*
X67600000Y-56052000D01*
X67543640Y-56052000D01*
X67543444Y-56051990D01*
X67422805Y-56040109D01*
X67422420Y-56040033D01*
X67312324Y-56006635D01*
X67311962Y-56006485D01*
X67210497Y-55952250D01*
X67210171Y-55952032D01*
X67121233Y-55879044D01*
X67120956Y-55878767D01*
X67047968Y-55789829D01*
X67047750Y-55789503D01*
X66993515Y-55688038D01*
X66993365Y-55687676D01*
X66959967Y-55577580D01*
X66959891Y-55577195D01*
X66948010Y-55456556D01*
X66948000Y-55456360D01*
X66948000Y-55400000D01*
X66949000Y-55398268D01*
X66951000Y-55398268D01*
X66951990Y-55399804D01*
G37*
G36*
X61951990Y-55399804D02*
G01*
X61964460Y-55526414D01*
X62001335Y-55647975D01*
X62061216Y-55760005D01*
X62141802Y-55858198D01*
X62239995Y-55938784D01*
X62352025Y-55998665D01*
X62473586Y-56035540D01*
X62600196Y-56048010D01*
X62601822Y-56049175D01*
X62601626Y-56051165D01*
X62600000Y-56052000D01*
X62543640Y-56052000D01*
X62543444Y-56051990D01*
X62422805Y-56040109D01*
X62422420Y-56040033D01*
X62312324Y-56006635D01*
X62311962Y-56006485D01*
X62210497Y-55952250D01*
X62210171Y-55952032D01*
X62121233Y-55879044D01*
X62120956Y-55878767D01*
X62047968Y-55789829D01*
X62047750Y-55789503D01*
X61993515Y-55688038D01*
X61993365Y-55687676D01*
X61959967Y-55577580D01*
X61959891Y-55577195D01*
X61948010Y-55456556D01*
X61948000Y-55456360D01*
X61948000Y-55400000D01*
X61949000Y-55398268D01*
X61951000Y-55398268D01*
X61951990Y-55399804D01*
G37*
G36*
X86951990Y-55399804D02*
G01*
X86964460Y-55526414D01*
X87001335Y-55647975D01*
X87061216Y-55760005D01*
X87141802Y-55858198D01*
X87239995Y-55938784D01*
X87352025Y-55998665D01*
X87473586Y-56035540D01*
X87600196Y-56048010D01*
X87601822Y-56049175D01*
X87601626Y-56051165D01*
X87600000Y-56052000D01*
X87543640Y-56052000D01*
X87543444Y-56051990D01*
X87422805Y-56040109D01*
X87422420Y-56040033D01*
X87312324Y-56006635D01*
X87311962Y-56006485D01*
X87210497Y-55952250D01*
X87210171Y-55952032D01*
X87121233Y-55879044D01*
X87120956Y-55878767D01*
X87047968Y-55789829D01*
X87047750Y-55789503D01*
X86993515Y-55688038D01*
X86993365Y-55687676D01*
X86959967Y-55577580D01*
X86959891Y-55577195D01*
X86948010Y-55456556D01*
X86948000Y-55456360D01*
X86948000Y-55400000D01*
X86949000Y-55398268D01*
X86951000Y-55398268D01*
X86951990Y-55399804D01*
G37*
G36*
X71951990Y-55399804D02*
G01*
X71964460Y-55526414D01*
X72001335Y-55647975D01*
X72061216Y-55760005D01*
X72141802Y-55858198D01*
X72239995Y-55938784D01*
X72352025Y-55998665D01*
X72473586Y-56035540D01*
X72600196Y-56048010D01*
X72601822Y-56049175D01*
X72601626Y-56051165D01*
X72600000Y-56052000D01*
X72543640Y-56052000D01*
X72543444Y-56051990D01*
X72422805Y-56040109D01*
X72422420Y-56040033D01*
X72312324Y-56006635D01*
X72311962Y-56006485D01*
X72210497Y-55952250D01*
X72210171Y-55952032D01*
X72121233Y-55879044D01*
X72120956Y-55878767D01*
X72047968Y-55789829D01*
X72047750Y-55789503D01*
X71993515Y-55688038D01*
X71993365Y-55687676D01*
X71959967Y-55577580D01*
X71959891Y-55577195D01*
X71948010Y-55456556D01*
X71948000Y-55456360D01*
X71948000Y-55400000D01*
X71949000Y-55398268D01*
X71951000Y-55398268D01*
X71951990Y-55399804D01*
G37*
G36*
X116951990Y-55399804D02*
G01*
X116964460Y-55526414D01*
X117001335Y-55647975D01*
X117061216Y-55760005D01*
X117141802Y-55858198D01*
X117239995Y-55938784D01*
X117352025Y-55998665D01*
X117473586Y-56035540D01*
X117600196Y-56048010D01*
X117601822Y-56049175D01*
X117601626Y-56051165D01*
X117600000Y-56052000D01*
X117543640Y-56052000D01*
X117543444Y-56051990D01*
X117422805Y-56040109D01*
X117422420Y-56040033D01*
X117312324Y-56006635D01*
X117311962Y-56006485D01*
X117210497Y-55952250D01*
X117210171Y-55952032D01*
X117121233Y-55879044D01*
X117120956Y-55878767D01*
X117047968Y-55789829D01*
X117047750Y-55789503D01*
X116993515Y-55688038D01*
X116993365Y-55687676D01*
X116959967Y-55577580D01*
X116959891Y-55577195D01*
X116948010Y-55456556D01*
X116948000Y-55456360D01*
X116948000Y-55400000D01*
X116949000Y-55398268D01*
X116951000Y-55398268D01*
X116951990Y-55399804D01*
G37*
G36*
X111951990Y-55399804D02*
G01*
X111964460Y-55526414D01*
X112001335Y-55647975D01*
X112061216Y-55760005D01*
X112141802Y-55858198D01*
X112239995Y-55938784D01*
X112352025Y-55998665D01*
X112473586Y-56035540D01*
X112600196Y-56048010D01*
X112601822Y-56049175D01*
X112601626Y-56051165D01*
X112600000Y-56052000D01*
X112543640Y-56052000D01*
X112543444Y-56051990D01*
X112422805Y-56040109D01*
X112422420Y-56040033D01*
X112312324Y-56006635D01*
X112311962Y-56006485D01*
X112210497Y-55952250D01*
X112210171Y-55952032D01*
X112121233Y-55879044D01*
X112120956Y-55878767D01*
X112047968Y-55789829D01*
X112047750Y-55789503D01*
X111993515Y-55688038D01*
X111993365Y-55687676D01*
X111959967Y-55577580D01*
X111959891Y-55577195D01*
X111948010Y-55456556D01*
X111948000Y-55456360D01*
X111948000Y-55400000D01*
X111949000Y-55398268D01*
X111951000Y-55398268D01*
X111951990Y-55399804D01*
G37*
G36*
X106951990Y-55399804D02*
G01*
X106964460Y-55526414D01*
X107001335Y-55647975D01*
X107061216Y-55760005D01*
X107141802Y-55858198D01*
X107239995Y-55938784D01*
X107352025Y-55998665D01*
X107473586Y-56035540D01*
X107600196Y-56048010D01*
X107601822Y-56049175D01*
X107601626Y-56051165D01*
X107600000Y-56052000D01*
X107543640Y-56052000D01*
X107543444Y-56051990D01*
X107422805Y-56040109D01*
X107422420Y-56040033D01*
X107312324Y-56006635D01*
X107311962Y-56006485D01*
X107210497Y-55952250D01*
X107210171Y-55952032D01*
X107121233Y-55879044D01*
X107120956Y-55878767D01*
X107047968Y-55789829D01*
X107047750Y-55789503D01*
X106993515Y-55688038D01*
X106993365Y-55687676D01*
X106959967Y-55577580D01*
X106959891Y-55577195D01*
X106948010Y-55456556D01*
X106948000Y-55456360D01*
X106948000Y-55400000D01*
X106949000Y-55398268D01*
X106951000Y-55398268D01*
X106951990Y-55399804D01*
G37*
G36*
X101951990Y-55399804D02*
G01*
X101964460Y-55526414D01*
X102001335Y-55647975D01*
X102061216Y-55760005D01*
X102141802Y-55858198D01*
X102239995Y-55938784D01*
X102352025Y-55998665D01*
X102473586Y-56035540D01*
X102600196Y-56048010D01*
X102601822Y-56049175D01*
X102601626Y-56051165D01*
X102600000Y-56052000D01*
X102543640Y-56052000D01*
X102543444Y-56051990D01*
X102422805Y-56040109D01*
X102422420Y-56040033D01*
X102312324Y-56006635D01*
X102311962Y-56006485D01*
X102210497Y-55952250D01*
X102210171Y-55952032D01*
X102121233Y-55879044D01*
X102120956Y-55878767D01*
X102047968Y-55789829D01*
X102047750Y-55789503D01*
X101993515Y-55688038D01*
X101993365Y-55687676D01*
X101959967Y-55577580D01*
X101959891Y-55577195D01*
X101948010Y-55456556D01*
X101948000Y-55456360D01*
X101948000Y-55400000D01*
X101949000Y-55398268D01*
X101951000Y-55398268D01*
X101951990Y-55399804D01*
G37*
G36*
X69551165Y-55398374D02*
G01*
X69552000Y-55400000D01*
X69552000Y-55456360D01*
X69551990Y-55456556D01*
X69540109Y-55577195D01*
X69540033Y-55577580D01*
X69506635Y-55687676D01*
X69506485Y-55688038D01*
X69452250Y-55789503D01*
X69452032Y-55789829D01*
X69379044Y-55878767D01*
X69378767Y-55879044D01*
X69289829Y-55952032D01*
X69289503Y-55952250D01*
X69188038Y-56006485D01*
X69187676Y-56006635D01*
X69077580Y-56040033D01*
X69077195Y-56040109D01*
X68956556Y-56051990D01*
X68956360Y-56052000D01*
X68900000Y-56052000D01*
X68898268Y-56051000D01*
X68898268Y-56049000D01*
X68899804Y-56048010D01*
X69026414Y-56035540D01*
X69147975Y-55998665D01*
X69260005Y-55938784D01*
X69358198Y-55858198D01*
X69438784Y-55760005D01*
X69498665Y-55647975D01*
X69535540Y-55526414D01*
X69548010Y-55399804D01*
X69549175Y-55398178D01*
X69551165Y-55398374D01*
G37*
G36*
X119551165Y-55398374D02*
G01*
X119552000Y-55400000D01*
X119552000Y-55456360D01*
X119551990Y-55456556D01*
X119540109Y-55577195D01*
X119540033Y-55577580D01*
X119506635Y-55687676D01*
X119506485Y-55688038D01*
X119452250Y-55789503D01*
X119452032Y-55789829D01*
X119379044Y-55878767D01*
X119378767Y-55879044D01*
X119289829Y-55952032D01*
X119289503Y-55952250D01*
X119188038Y-56006485D01*
X119187676Y-56006635D01*
X119077580Y-56040033D01*
X119077195Y-56040109D01*
X118956556Y-56051990D01*
X118956360Y-56052000D01*
X118900000Y-56052000D01*
X118898268Y-56051000D01*
X118898268Y-56049000D01*
X118899804Y-56048010D01*
X119026414Y-56035540D01*
X119147975Y-55998665D01*
X119260005Y-55938784D01*
X119358198Y-55858198D01*
X119438784Y-55760005D01*
X119498665Y-55647975D01*
X119535540Y-55526414D01*
X119548010Y-55399804D01*
X119549175Y-55398178D01*
X119551165Y-55398374D01*
G37*
G36*
X96951990Y-55399804D02*
G01*
X96964460Y-55526414D01*
X97001335Y-55647975D01*
X97061216Y-55760005D01*
X97141802Y-55858198D01*
X97239995Y-55938784D01*
X97352025Y-55998665D01*
X97473586Y-56035540D01*
X97600196Y-56048010D01*
X97601822Y-56049175D01*
X97601626Y-56051165D01*
X97600000Y-56052000D01*
X97543640Y-56052000D01*
X97543444Y-56051990D01*
X97422805Y-56040109D01*
X97422420Y-56040033D01*
X97312324Y-56006635D01*
X97311962Y-56006485D01*
X97210497Y-55952250D01*
X97210171Y-55952032D01*
X97121233Y-55879044D01*
X97120956Y-55878767D01*
X97047968Y-55789829D01*
X97047750Y-55789503D01*
X96993515Y-55688038D01*
X96993365Y-55687676D01*
X96959967Y-55577580D01*
X96959891Y-55577195D01*
X96948010Y-55456556D01*
X96948000Y-55456360D01*
X96948000Y-55400000D01*
X96949000Y-55398268D01*
X96951000Y-55398268D01*
X96951990Y-55399804D01*
G37*
G36*
X64551165Y-55398374D02*
G01*
X64552000Y-55400000D01*
X64552000Y-55456360D01*
X64551990Y-55456556D01*
X64540109Y-55577195D01*
X64540033Y-55577580D01*
X64506635Y-55687676D01*
X64506485Y-55688038D01*
X64452250Y-55789503D01*
X64452032Y-55789829D01*
X64379044Y-55878767D01*
X64378767Y-55879044D01*
X64289829Y-55952032D01*
X64289503Y-55952250D01*
X64188038Y-56006485D01*
X64187676Y-56006635D01*
X64077580Y-56040033D01*
X64077195Y-56040109D01*
X63956556Y-56051990D01*
X63956360Y-56052000D01*
X63900000Y-56052000D01*
X63898268Y-56051000D01*
X63898268Y-56049000D01*
X63899804Y-56048010D01*
X64026414Y-56035540D01*
X64147975Y-55998665D01*
X64260005Y-55938784D01*
X64358198Y-55858198D01*
X64438784Y-55760005D01*
X64498665Y-55647975D01*
X64535540Y-55526414D01*
X64548010Y-55399804D01*
X64549175Y-55398178D01*
X64551165Y-55398374D01*
G37*
G36*
X74551165Y-55398374D02*
G01*
X74552000Y-55400000D01*
X74552000Y-55456360D01*
X74551990Y-55456556D01*
X74540109Y-55577195D01*
X74540033Y-55577580D01*
X74506635Y-55687676D01*
X74506485Y-55688038D01*
X74452250Y-55789503D01*
X74452032Y-55789829D01*
X74379044Y-55878767D01*
X74378767Y-55879044D01*
X74289829Y-55952032D01*
X74289503Y-55952250D01*
X74188038Y-56006485D01*
X74187676Y-56006635D01*
X74077580Y-56040033D01*
X74077195Y-56040109D01*
X73956556Y-56051990D01*
X73956360Y-56052000D01*
X73900000Y-56052000D01*
X73898268Y-56051000D01*
X73898268Y-56049000D01*
X73899804Y-56048010D01*
X74026414Y-56035540D01*
X74147975Y-55998665D01*
X74260005Y-55938784D01*
X74358198Y-55858198D01*
X74438784Y-55760005D01*
X74498665Y-55647975D01*
X74535540Y-55526414D01*
X74548010Y-55399804D01*
X74549175Y-55398178D01*
X74551165Y-55398374D01*
G37*
G36*
X79551165Y-55398374D02*
G01*
X79552000Y-55400000D01*
X79552000Y-55456360D01*
X79551990Y-55456556D01*
X79540109Y-55577195D01*
X79540033Y-55577580D01*
X79506635Y-55687676D01*
X79506485Y-55688038D01*
X79452250Y-55789503D01*
X79452032Y-55789829D01*
X79379044Y-55878767D01*
X79378767Y-55879044D01*
X79289829Y-55952032D01*
X79289503Y-55952250D01*
X79188038Y-56006485D01*
X79187676Y-56006635D01*
X79077580Y-56040033D01*
X79077195Y-56040109D01*
X78956556Y-56051990D01*
X78956360Y-56052000D01*
X78900000Y-56052000D01*
X78898268Y-56051000D01*
X78898268Y-56049000D01*
X78899804Y-56048010D01*
X79026414Y-56035540D01*
X79147975Y-55998665D01*
X79260005Y-55938784D01*
X79358198Y-55858198D01*
X79438784Y-55760005D01*
X79498665Y-55647975D01*
X79535540Y-55526414D01*
X79548010Y-55399804D01*
X79549175Y-55398178D01*
X79551165Y-55398374D01*
G37*
G36*
X84551165Y-55398374D02*
G01*
X84552000Y-55400000D01*
X84552000Y-55456360D01*
X84551990Y-55456556D01*
X84540109Y-55577195D01*
X84540033Y-55577580D01*
X84506635Y-55687676D01*
X84506485Y-55688038D01*
X84452250Y-55789503D01*
X84452032Y-55789829D01*
X84379044Y-55878767D01*
X84378767Y-55879044D01*
X84289829Y-55952032D01*
X84289503Y-55952250D01*
X84188038Y-56006485D01*
X84187676Y-56006635D01*
X84077580Y-56040033D01*
X84077195Y-56040109D01*
X83956556Y-56051990D01*
X83956360Y-56052000D01*
X83900000Y-56052000D01*
X83898268Y-56051000D01*
X83898268Y-56049000D01*
X83899804Y-56048010D01*
X84026414Y-56035540D01*
X84147975Y-55998665D01*
X84260005Y-55938784D01*
X84358198Y-55858198D01*
X84438784Y-55760005D01*
X84498665Y-55647975D01*
X84535540Y-55526414D01*
X84548010Y-55399804D01*
X84549175Y-55398178D01*
X84551165Y-55398374D01*
G37*
G36*
X89551165Y-55398374D02*
G01*
X89552000Y-55400000D01*
X89552000Y-55456360D01*
X89551990Y-55456556D01*
X89540109Y-55577195D01*
X89540033Y-55577580D01*
X89506635Y-55687676D01*
X89506485Y-55688038D01*
X89452250Y-55789503D01*
X89452032Y-55789829D01*
X89379044Y-55878767D01*
X89378767Y-55879044D01*
X89289829Y-55952032D01*
X89289503Y-55952250D01*
X89188038Y-56006485D01*
X89187676Y-56006635D01*
X89077580Y-56040033D01*
X89077195Y-56040109D01*
X88956556Y-56051990D01*
X88956360Y-56052000D01*
X88900000Y-56052000D01*
X88898268Y-56051000D01*
X88898268Y-56049000D01*
X88899804Y-56048010D01*
X89026414Y-56035540D01*
X89147975Y-55998665D01*
X89260005Y-55938784D01*
X89358198Y-55858198D01*
X89438784Y-55760005D01*
X89498665Y-55647975D01*
X89535540Y-55526414D01*
X89548010Y-55399804D01*
X89549175Y-55398178D01*
X89551165Y-55398374D01*
G37*
G36*
X94551165Y-55398374D02*
G01*
X94552000Y-55400000D01*
X94552000Y-55456360D01*
X94551990Y-55456556D01*
X94540109Y-55577195D01*
X94540033Y-55577580D01*
X94506635Y-55687676D01*
X94506485Y-55688038D01*
X94452250Y-55789503D01*
X94452032Y-55789829D01*
X94379044Y-55878767D01*
X94378767Y-55879044D01*
X94289829Y-55952032D01*
X94289503Y-55952250D01*
X94188038Y-56006485D01*
X94187676Y-56006635D01*
X94077580Y-56040033D01*
X94077195Y-56040109D01*
X93956556Y-56051990D01*
X93956360Y-56052000D01*
X93900000Y-56052000D01*
X93898268Y-56051000D01*
X93898268Y-56049000D01*
X93899804Y-56048010D01*
X94026414Y-56035540D01*
X94147975Y-55998665D01*
X94260005Y-55938784D01*
X94358198Y-55858198D01*
X94438784Y-55760005D01*
X94498665Y-55647975D01*
X94535540Y-55526414D01*
X94548010Y-55399804D01*
X94549175Y-55398178D01*
X94551165Y-55398374D01*
G37*
G36*
X99551165Y-55398374D02*
G01*
X99552000Y-55400000D01*
X99552000Y-55456360D01*
X99551990Y-55456556D01*
X99540109Y-55577195D01*
X99540033Y-55577580D01*
X99506635Y-55687676D01*
X99506485Y-55688038D01*
X99452250Y-55789503D01*
X99452032Y-55789829D01*
X99379044Y-55878767D01*
X99378767Y-55879044D01*
X99289829Y-55952032D01*
X99289503Y-55952250D01*
X99188038Y-56006485D01*
X99187676Y-56006635D01*
X99077580Y-56040033D01*
X99077195Y-56040109D01*
X98956556Y-56051990D01*
X98956360Y-56052000D01*
X98900000Y-56052000D01*
X98898268Y-56051000D01*
X98898268Y-56049000D01*
X98899804Y-56048010D01*
X99026414Y-56035540D01*
X99147975Y-55998665D01*
X99260005Y-55938784D01*
X99358198Y-55858198D01*
X99438784Y-55760005D01*
X99498665Y-55647975D01*
X99535540Y-55526414D01*
X99548010Y-55399804D01*
X99549175Y-55398178D01*
X99551165Y-55398374D01*
G37*
G36*
X104551165Y-55398374D02*
G01*
X104552000Y-55400000D01*
X104552000Y-55456360D01*
X104551990Y-55456556D01*
X104540109Y-55577195D01*
X104540033Y-55577580D01*
X104506635Y-55687676D01*
X104506485Y-55688038D01*
X104452250Y-55789503D01*
X104452032Y-55789829D01*
X104379044Y-55878767D01*
X104378767Y-55879044D01*
X104289829Y-55952032D01*
X104289503Y-55952250D01*
X104188038Y-56006485D01*
X104187676Y-56006635D01*
X104077580Y-56040033D01*
X104077195Y-56040109D01*
X103956556Y-56051990D01*
X103956360Y-56052000D01*
X103900000Y-56052000D01*
X103898268Y-56051000D01*
X103898268Y-56049000D01*
X103899804Y-56048010D01*
X104026414Y-56035540D01*
X104147975Y-55998665D01*
X104260005Y-55938784D01*
X104358198Y-55858198D01*
X104438784Y-55760005D01*
X104498665Y-55647975D01*
X104535540Y-55526414D01*
X104548010Y-55399804D01*
X104549175Y-55398178D01*
X104551165Y-55398374D01*
G37*
G36*
X109551165Y-55398374D02*
G01*
X109552000Y-55400000D01*
X109552000Y-55456360D01*
X109551990Y-55456556D01*
X109540109Y-55577195D01*
X109540033Y-55577580D01*
X109506635Y-55687676D01*
X109506485Y-55688038D01*
X109452250Y-55789503D01*
X109452032Y-55789829D01*
X109379044Y-55878767D01*
X109378767Y-55879044D01*
X109289829Y-55952032D01*
X109289503Y-55952250D01*
X109188038Y-56006485D01*
X109187676Y-56006635D01*
X109077580Y-56040033D01*
X109077195Y-56040109D01*
X108956556Y-56051990D01*
X108956360Y-56052000D01*
X108900000Y-56052000D01*
X108898268Y-56051000D01*
X108898268Y-56049000D01*
X108899804Y-56048010D01*
X109026414Y-56035540D01*
X109147975Y-55998665D01*
X109260005Y-55938784D01*
X109358198Y-55858198D01*
X109438784Y-55760005D01*
X109498665Y-55647975D01*
X109535540Y-55526414D01*
X109548010Y-55399804D01*
X109549175Y-55398178D01*
X109551165Y-55398374D01*
G37*
G36*
X114551165Y-55398374D02*
G01*
X114552000Y-55400000D01*
X114552000Y-55456360D01*
X114551990Y-55456556D01*
X114540109Y-55577195D01*
X114540033Y-55577580D01*
X114506635Y-55687676D01*
X114506485Y-55688038D01*
X114452250Y-55789503D01*
X114452032Y-55789829D01*
X114379044Y-55878767D01*
X114378767Y-55879044D01*
X114289829Y-55952032D01*
X114289503Y-55952250D01*
X114188038Y-56006485D01*
X114187676Y-56006635D01*
X114077580Y-56040033D01*
X114077195Y-56040109D01*
X113956556Y-56051990D01*
X113956360Y-56052000D01*
X113900000Y-56052000D01*
X113898268Y-56051000D01*
X113898268Y-56049000D01*
X113899804Y-56048010D01*
X114026414Y-56035540D01*
X114147975Y-55998665D01*
X114260005Y-55938784D01*
X114358198Y-55858198D01*
X114438784Y-55760005D01*
X114498665Y-55647975D01*
X114535540Y-55526414D01*
X114548010Y-55399804D01*
X114549175Y-55398178D01*
X114551165Y-55398374D01*
G37*
G36*
X172751732Y-54749000D02*
G01*
X172751732Y-54751000D01*
X172750196Y-54751990D01*
X172701622Y-54756774D01*
X172655098Y-54770887D01*
X172612223Y-54793804D01*
X172574644Y-54824644D01*
X172543804Y-54862223D01*
X172520887Y-54905098D01*
X172506774Y-54951622D01*
X172501990Y-55000196D01*
X172500825Y-55001822D01*
X172498835Y-55001626D01*
X172498000Y-55000000D01*
X172498000Y-54906140D01*
X172498010Y-54905944D01*
X172501485Y-54870660D01*
X172501561Y-54870275D01*
X172510063Y-54842248D01*
X172510213Y-54841886D01*
X172524019Y-54816057D01*
X172524237Y-54815731D01*
X172542816Y-54793093D01*
X172543093Y-54792816D01*
X172565731Y-54774237D01*
X172566057Y-54774019D01*
X172591886Y-54760213D01*
X172592248Y-54760063D01*
X172620275Y-54751561D01*
X172620660Y-54751485D01*
X172655944Y-54748010D01*
X172656140Y-54748000D01*
X172750000Y-54748000D01*
X172751732Y-54749000D01*
G37*
G36*
X166251732Y-54749000D02*
G01*
X166251732Y-54751000D01*
X166250196Y-54751990D01*
X166201622Y-54756774D01*
X166155098Y-54770887D01*
X166112223Y-54793804D01*
X166074644Y-54824644D01*
X166043804Y-54862223D01*
X166020887Y-54905098D01*
X166006774Y-54951622D01*
X166001990Y-55000196D01*
X166000825Y-55001822D01*
X165998835Y-55001626D01*
X165998000Y-55000000D01*
X165998000Y-54906140D01*
X165998010Y-54905944D01*
X166001485Y-54870660D01*
X166001561Y-54870275D01*
X166010063Y-54842248D01*
X166010213Y-54841886D01*
X166024019Y-54816057D01*
X166024237Y-54815731D01*
X166042816Y-54793093D01*
X166043093Y-54792816D01*
X166065731Y-54774237D01*
X166066057Y-54774019D01*
X166091886Y-54760213D01*
X166092248Y-54760063D01*
X166120275Y-54751561D01*
X166120660Y-54751485D01*
X166155944Y-54748010D01*
X166156140Y-54748000D01*
X166250000Y-54748000D01*
X166251732Y-54749000D01*
G37*
G36*
X175844056Y-54748010D02*
G01*
X175879340Y-54751485D01*
X175879725Y-54751561D01*
X175907752Y-54760063D01*
X175908114Y-54760213D01*
X175933943Y-54774019D01*
X175934269Y-54774237D01*
X175956907Y-54792816D01*
X175957184Y-54793093D01*
X175975763Y-54815731D01*
X175975981Y-54816057D01*
X175989787Y-54841886D01*
X175989937Y-54842248D01*
X175998439Y-54870275D01*
X175998515Y-54870660D01*
X176001990Y-54905944D01*
X176002000Y-54906140D01*
X176002000Y-55000000D01*
X176001000Y-55001732D01*
X175999000Y-55001732D01*
X175998010Y-55000196D01*
X175993226Y-54951622D01*
X175979113Y-54905098D01*
X175956196Y-54862223D01*
X175925356Y-54824644D01*
X175887777Y-54793804D01*
X175844902Y-54770887D01*
X175798378Y-54756774D01*
X175749804Y-54751990D01*
X175748178Y-54750825D01*
X175748374Y-54748835D01*
X175750000Y-54748000D01*
X175843860Y-54748000D01*
X175844056Y-54748010D01*
G37*
G36*
X169344056Y-54748010D02*
G01*
X169379340Y-54751485D01*
X169379725Y-54751561D01*
X169407752Y-54760063D01*
X169408114Y-54760213D01*
X169433943Y-54774019D01*
X169434269Y-54774237D01*
X169456907Y-54792816D01*
X169457184Y-54793093D01*
X169475763Y-54815731D01*
X169475981Y-54816057D01*
X169489787Y-54841886D01*
X169489937Y-54842248D01*
X169498439Y-54870275D01*
X169498515Y-54870660D01*
X169501990Y-54905944D01*
X169502000Y-54906140D01*
X169502000Y-55000000D01*
X169501000Y-55001732D01*
X169499000Y-55001732D01*
X169498010Y-55000196D01*
X169493226Y-54951622D01*
X169479113Y-54905098D01*
X169456196Y-54862223D01*
X169425356Y-54824644D01*
X169387777Y-54793804D01*
X169344902Y-54770887D01*
X169298378Y-54756774D01*
X169249804Y-54751990D01*
X169248178Y-54750825D01*
X169248374Y-54748835D01*
X169250000Y-54748000D01*
X169343860Y-54748000D01*
X169344056Y-54748010D01*
G37*
G36*
X97601732Y-53449000D02*
G01*
X97601732Y-53451000D01*
X97600196Y-53451990D01*
X97473586Y-53464460D01*
X97352025Y-53501335D01*
X97239995Y-53561216D01*
X97141802Y-53641802D01*
X97061216Y-53739995D01*
X97001335Y-53852025D01*
X96964460Y-53973586D01*
X96951990Y-54100196D01*
X96950825Y-54101822D01*
X96948835Y-54101626D01*
X96948000Y-54100000D01*
X96948000Y-54043640D01*
X96948010Y-54043444D01*
X96959891Y-53922805D01*
X96959967Y-53922420D01*
X96993365Y-53812324D01*
X96993515Y-53811962D01*
X97047750Y-53710497D01*
X97047968Y-53710171D01*
X97120956Y-53621233D01*
X97121233Y-53620956D01*
X97210171Y-53547968D01*
X97210497Y-53547750D01*
X97311962Y-53493515D01*
X97312324Y-53493365D01*
X97422420Y-53459967D01*
X97422805Y-53459891D01*
X97543444Y-53448010D01*
X97543640Y-53448000D01*
X97600000Y-53448000D01*
X97601732Y-53449000D01*
G37*
G36*
X102601732Y-53449000D02*
G01*
X102601732Y-53451000D01*
X102600196Y-53451990D01*
X102473586Y-53464460D01*
X102352025Y-53501335D01*
X102239995Y-53561216D01*
X102141802Y-53641802D01*
X102061216Y-53739995D01*
X102001335Y-53852025D01*
X101964460Y-53973586D01*
X101951990Y-54100196D01*
X101950825Y-54101822D01*
X101948835Y-54101626D01*
X101948000Y-54100000D01*
X101948000Y-54043640D01*
X101948010Y-54043444D01*
X101959891Y-53922805D01*
X101959967Y-53922420D01*
X101993365Y-53812324D01*
X101993515Y-53811962D01*
X102047750Y-53710497D01*
X102047968Y-53710171D01*
X102120956Y-53621233D01*
X102121233Y-53620956D01*
X102210171Y-53547968D01*
X102210497Y-53547750D01*
X102311962Y-53493515D01*
X102312324Y-53493365D01*
X102422420Y-53459967D01*
X102422805Y-53459891D01*
X102543444Y-53448010D01*
X102543640Y-53448000D01*
X102600000Y-53448000D01*
X102601732Y-53449000D01*
G37*
G36*
X107601732Y-53449000D02*
G01*
X107601732Y-53451000D01*
X107600196Y-53451990D01*
X107473586Y-53464460D01*
X107352025Y-53501335D01*
X107239995Y-53561216D01*
X107141802Y-53641802D01*
X107061216Y-53739995D01*
X107001335Y-53852025D01*
X106964460Y-53973586D01*
X106951990Y-54100196D01*
X106950825Y-54101822D01*
X106948835Y-54101626D01*
X106948000Y-54100000D01*
X106948000Y-54043640D01*
X106948010Y-54043444D01*
X106959891Y-53922805D01*
X106959967Y-53922420D01*
X106993365Y-53812324D01*
X106993515Y-53811962D01*
X107047750Y-53710497D01*
X107047968Y-53710171D01*
X107120956Y-53621233D01*
X107121233Y-53620956D01*
X107210171Y-53547968D01*
X107210497Y-53547750D01*
X107311962Y-53493515D01*
X107312324Y-53493365D01*
X107422420Y-53459967D01*
X107422805Y-53459891D01*
X107543444Y-53448010D01*
X107543640Y-53448000D01*
X107600000Y-53448000D01*
X107601732Y-53449000D01*
G37*
G36*
X112601732Y-53449000D02*
G01*
X112601732Y-53451000D01*
X112600196Y-53451990D01*
X112473586Y-53464460D01*
X112352025Y-53501335D01*
X112239995Y-53561216D01*
X112141802Y-53641802D01*
X112061216Y-53739995D01*
X112001335Y-53852025D01*
X111964460Y-53973586D01*
X111951990Y-54100196D01*
X111950825Y-54101822D01*
X111948835Y-54101626D01*
X111948000Y-54100000D01*
X111948000Y-54043640D01*
X111948010Y-54043444D01*
X111959891Y-53922805D01*
X111959967Y-53922420D01*
X111993365Y-53812324D01*
X111993515Y-53811962D01*
X112047750Y-53710497D01*
X112047968Y-53710171D01*
X112120956Y-53621233D01*
X112121233Y-53620956D01*
X112210171Y-53547968D01*
X112210497Y-53547750D01*
X112311962Y-53493515D01*
X112312324Y-53493365D01*
X112422420Y-53459967D01*
X112422805Y-53459891D01*
X112543444Y-53448010D01*
X112543640Y-53448000D01*
X112600000Y-53448000D01*
X112601732Y-53449000D01*
G37*
G36*
X117601732Y-53449000D02*
G01*
X117601732Y-53451000D01*
X117600196Y-53451990D01*
X117473586Y-53464460D01*
X117352025Y-53501335D01*
X117239995Y-53561216D01*
X117141802Y-53641802D01*
X117061216Y-53739995D01*
X117001335Y-53852025D01*
X116964460Y-53973586D01*
X116951990Y-54100196D01*
X116950825Y-54101822D01*
X116948835Y-54101626D01*
X116948000Y-54100000D01*
X116948000Y-54043640D01*
X116948010Y-54043444D01*
X116959891Y-53922805D01*
X116959967Y-53922420D01*
X116993365Y-53812324D01*
X116993515Y-53811962D01*
X117047750Y-53710497D01*
X117047968Y-53710171D01*
X117120956Y-53621233D01*
X117121233Y-53620956D01*
X117210171Y-53547968D01*
X117210497Y-53547750D01*
X117311962Y-53493515D01*
X117312324Y-53493365D01*
X117422420Y-53459967D01*
X117422805Y-53459891D01*
X117543444Y-53448010D01*
X117543640Y-53448000D01*
X117600000Y-53448000D01*
X117601732Y-53449000D01*
G37*
G36*
X77601732Y-53449000D02*
G01*
X77601732Y-53451000D01*
X77600196Y-53451990D01*
X77473586Y-53464460D01*
X77352025Y-53501335D01*
X77239995Y-53561216D01*
X77141802Y-53641802D01*
X77061216Y-53739995D01*
X77001335Y-53852025D01*
X76964460Y-53973586D01*
X76951990Y-54100196D01*
X76950825Y-54101822D01*
X76948835Y-54101626D01*
X76948000Y-54100000D01*
X76948000Y-54043640D01*
X76948010Y-54043444D01*
X76959891Y-53922805D01*
X76959967Y-53922420D01*
X76993365Y-53812324D01*
X76993515Y-53811962D01*
X77047750Y-53710497D01*
X77047968Y-53710171D01*
X77120956Y-53621233D01*
X77121233Y-53620956D01*
X77210171Y-53547968D01*
X77210497Y-53547750D01*
X77311962Y-53493515D01*
X77312324Y-53493365D01*
X77422420Y-53459967D01*
X77422805Y-53459891D01*
X77543444Y-53448010D01*
X77543640Y-53448000D01*
X77600000Y-53448000D01*
X77601732Y-53449000D01*
G37*
G36*
X67601732Y-53449000D02*
G01*
X67601732Y-53451000D01*
X67600196Y-53451990D01*
X67473586Y-53464460D01*
X67352025Y-53501335D01*
X67239995Y-53561216D01*
X67141802Y-53641802D01*
X67061216Y-53739995D01*
X67001335Y-53852025D01*
X66964460Y-53973586D01*
X66951990Y-54100196D01*
X66950825Y-54101822D01*
X66948835Y-54101626D01*
X66948000Y-54100000D01*
X66948000Y-54043640D01*
X66948010Y-54043444D01*
X66959891Y-53922805D01*
X66959967Y-53922420D01*
X66993365Y-53812324D01*
X66993515Y-53811962D01*
X67047750Y-53710497D01*
X67047968Y-53710171D01*
X67120956Y-53621233D01*
X67121233Y-53620956D01*
X67210171Y-53547968D01*
X67210497Y-53547750D01*
X67311962Y-53493515D01*
X67312324Y-53493365D01*
X67422420Y-53459967D01*
X67422805Y-53459891D01*
X67543444Y-53448010D01*
X67543640Y-53448000D01*
X67600000Y-53448000D01*
X67601732Y-53449000D01*
G37*
G36*
X82601732Y-53449000D02*
G01*
X82601732Y-53451000D01*
X82600196Y-53451990D01*
X82473586Y-53464460D01*
X82352025Y-53501335D01*
X82239995Y-53561216D01*
X82141802Y-53641802D01*
X82061216Y-53739995D01*
X82001335Y-53852025D01*
X81964460Y-53973586D01*
X81951990Y-54100196D01*
X81950825Y-54101822D01*
X81948835Y-54101626D01*
X81948000Y-54100000D01*
X81948000Y-54043640D01*
X81948010Y-54043444D01*
X81959891Y-53922805D01*
X81959967Y-53922420D01*
X81993365Y-53812324D01*
X81993515Y-53811962D01*
X82047750Y-53710497D01*
X82047968Y-53710171D01*
X82120956Y-53621233D01*
X82121233Y-53620956D01*
X82210171Y-53547968D01*
X82210497Y-53547750D01*
X82311962Y-53493515D01*
X82312324Y-53493365D01*
X82422420Y-53459967D01*
X82422805Y-53459891D01*
X82543444Y-53448010D01*
X82543640Y-53448000D01*
X82600000Y-53448000D01*
X82601732Y-53449000D01*
G37*
G36*
X62601732Y-53449000D02*
G01*
X62601732Y-53451000D01*
X62600196Y-53451990D01*
X62473586Y-53464460D01*
X62352025Y-53501335D01*
X62239995Y-53561216D01*
X62141802Y-53641802D01*
X62061216Y-53739995D01*
X62001335Y-53852025D01*
X61964460Y-53973586D01*
X61951990Y-54100196D01*
X61950825Y-54101822D01*
X61948835Y-54101626D01*
X61948000Y-54100000D01*
X61948000Y-54043640D01*
X61948010Y-54043444D01*
X61959891Y-53922805D01*
X61959967Y-53922420D01*
X61993365Y-53812324D01*
X61993515Y-53811962D01*
X62047750Y-53710497D01*
X62047968Y-53710171D01*
X62120956Y-53621233D01*
X62121233Y-53620956D01*
X62210171Y-53547968D01*
X62210497Y-53547750D01*
X62311962Y-53493515D01*
X62312324Y-53493365D01*
X62422420Y-53459967D01*
X62422805Y-53459891D01*
X62543444Y-53448010D01*
X62543640Y-53448000D01*
X62600000Y-53448000D01*
X62601732Y-53449000D01*
G37*
G36*
X92601732Y-53449000D02*
G01*
X92601732Y-53451000D01*
X92600196Y-53451990D01*
X92473586Y-53464460D01*
X92352025Y-53501335D01*
X92239995Y-53561216D01*
X92141802Y-53641802D01*
X92061216Y-53739995D01*
X92001335Y-53852025D01*
X91964460Y-53973586D01*
X91951990Y-54100196D01*
X91950825Y-54101822D01*
X91948835Y-54101626D01*
X91948000Y-54100000D01*
X91948000Y-54043640D01*
X91948010Y-54043444D01*
X91959891Y-53922805D01*
X91959967Y-53922420D01*
X91993365Y-53812324D01*
X91993515Y-53811962D01*
X92047750Y-53710497D01*
X92047968Y-53710171D01*
X92120956Y-53621233D01*
X92121233Y-53620956D01*
X92210171Y-53547968D01*
X92210497Y-53547750D01*
X92311962Y-53493515D01*
X92312324Y-53493365D01*
X92422420Y-53459967D01*
X92422805Y-53459891D01*
X92543444Y-53448010D01*
X92543640Y-53448000D01*
X92600000Y-53448000D01*
X92601732Y-53449000D01*
G37*
G36*
X87601732Y-53449000D02*
G01*
X87601732Y-53451000D01*
X87600196Y-53451990D01*
X87473586Y-53464460D01*
X87352025Y-53501335D01*
X87239995Y-53561216D01*
X87141802Y-53641802D01*
X87061216Y-53739995D01*
X87001335Y-53852025D01*
X86964460Y-53973586D01*
X86951990Y-54100196D01*
X86950825Y-54101822D01*
X86948835Y-54101626D01*
X86948000Y-54100000D01*
X86948000Y-54043640D01*
X86948010Y-54043444D01*
X86959891Y-53922805D01*
X86959967Y-53922420D01*
X86993365Y-53812324D01*
X86993515Y-53811962D01*
X87047750Y-53710497D01*
X87047968Y-53710171D01*
X87120956Y-53621233D01*
X87121233Y-53620956D01*
X87210171Y-53547968D01*
X87210497Y-53547750D01*
X87311962Y-53493515D01*
X87312324Y-53493365D01*
X87422420Y-53459967D01*
X87422805Y-53459891D01*
X87543444Y-53448010D01*
X87543640Y-53448000D01*
X87600000Y-53448000D01*
X87601732Y-53449000D01*
G37*
G36*
X72601732Y-53449000D02*
G01*
X72601732Y-53451000D01*
X72600196Y-53451990D01*
X72473586Y-53464460D01*
X72352025Y-53501335D01*
X72239995Y-53561216D01*
X72141802Y-53641802D01*
X72061216Y-53739995D01*
X72001335Y-53852025D01*
X71964460Y-53973586D01*
X71951990Y-54100196D01*
X71950825Y-54101822D01*
X71948835Y-54101626D01*
X71948000Y-54100000D01*
X71948000Y-54043640D01*
X71948010Y-54043444D01*
X71959891Y-53922805D01*
X71959967Y-53922420D01*
X71993365Y-53812324D01*
X71993515Y-53811962D01*
X72047750Y-53710497D01*
X72047968Y-53710171D01*
X72120956Y-53621233D01*
X72121233Y-53620956D01*
X72210171Y-53547968D01*
X72210497Y-53547750D01*
X72311962Y-53493515D01*
X72312324Y-53493365D01*
X72422420Y-53459967D01*
X72422805Y-53459891D01*
X72543444Y-53448010D01*
X72543640Y-53448000D01*
X72600000Y-53448000D01*
X72601732Y-53449000D01*
G37*
G36*
X103956556Y-53448010D02*
G01*
X104077195Y-53459891D01*
X104077580Y-53459967D01*
X104187676Y-53493365D01*
X104188038Y-53493515D01*
X104289503Y-53547750D01*
X104289829Y-53547968D01*
X104378767Y-53620956D01*
X104379044Y-53621233D01*
X104452032Y-53710171D01*
X104452250Y-53710497D01*
X104506485Y-53811962D01*
X104506635Y-53812324D01*
X104540033Y-53922420D01*
X104540109Y-53922805D01*
X104551990Y-54043444D01*
X104552000Y-54043640D01*
X104552000Y-54100000D01*
X104551000Y-54101732D01*
X104549000Y-54101732D01*
X104548010Y-54100196D01*
X104535540Y-53973586D01*
X104498665Y-53852025D01*
X104438784Y-53739995D01*
X104358198Y-53641802D01*
X104260005Y-53561216D01*
X104147975Y-53501335D01*
X104026414Y-53464460D01*
X103899804Y-53451990D01*
X103898178Y-53450825D01*
X103898374Y-53448835D01*
X103900000Y-53448000D01*
X103956360Y-53448000D01*
X103956556Y-53448010D01*
G37*
G36*
X118956556Y-53448010D02*
G01*
X119077195Y-53459891D01*
X119077580Y-53459967D01*
X119187676Y-53493365D01*
X119188038Y-53493515D01*
X119289503Y-53547750D01*
X119289829Y-53547968D01*
X119378767Y-53620956D01*
X119379044Y-53621233D01*
X119452032Y-53710171D01*
X119452250Y-53710497D01*
X119506485Y-53811962D01*
X119506635Y-53812324D01*
X119540033Y-53922420D01*
X119540109Y-53922805D01*
X119551990Y-54043444D01*
X119552000Y-54043640D01*
X119552000Y-54100000D01*
X119551000Y-54101732D01*
X119549000Y-54101732D01*
X119548010Y-54100196D01*
X119535540Y-53973586D01*
X119498665Y-53852025D01*
X119438784Y-53739995D01*
X119358198Y-53641802D01*
X119260005Y-53561216D01*
X119147975Y-53501335D01*
X119026414Y-53464460D01*
X118899804Y-53451990D01*
X118898178Y-53450825D01*
X118898374Y-53448835D01*
X118900000Y-53448000D01*
X118956360Y-53448000D01*
X118956556Y-53448010D01*
G37*
G36*
X108956556Y-53448010D02*
G01*
X109077195Y-53459891D01*
X109077580Y-53459967D01*
X109187676Y-53493365D01*
X109188038Y-53493515D01*
X109289503Y-53547750D01*
X109289829Y-53547968D01*
X109378767Y-53620956D01*
X109379044Y-53621233D01*
X109452032Y-53710171D01*
X109452250Y-53710497D01*
X109506485Y-53811962D01*
X109506635Y-53812324D01*
X109540033Y-53922420D01*
X109540109Y-53922805D01*
X109551990Y-54043444D01*
X109552000Y-54043640D01*
X109552000Y-54100000D01*
X109551000Y-54101732D01*
X109549000Y-54101732D01*
X109548010Y-54100196D01*
X109535540Y-53973586D01*
X109498665Y-53852025D01*
X109438784Y-53739995D01*
X109358198Y-53641802D01*
X109260005Y-53561216D01*
X109147975Y-53501335D01*
X109026414Y-53464460D01*
X108899804Y-53451990D01*
X108898178Y-53450825D01*
X108898374Y-53448835D01*
X108900000Y-53448000D01*
X108956360Y-53448000D01*
X108956556Y-53448010D01*
G37*
G36*
X98956556Y-53448010D02*
G01*
X99077195Y-53459891D01*
X99077580Y-53459967D01*
X99187676Y-53493365D01*
X99188038Y-53493515D01*
X99289503Y-53547750D01*
X99289829Y-53547968D01*
X99378767Y-53620956D01*
X99379044Y-53621233D01*
X99452032Y-53710171D01*
X99452250Y-53710497D01*
X99506485Y-53811962D01*
X99506635Y-53812324D01*
X99540033Y-53922420D01*
X99540109Y-53922805D01*
X99551990Y-54043444D01*
X99552000Y-54043640D01*
X99552000Y-54100000D01*
X99551000Y-54101732D01*
X99549000Y-54101732D01*
X99548010Y-54100196D01*
X99535540Y-53973586D01*
X99498665Y-53852025D01*
X99438784Y-53739995D01*
X99358198Y-53641802D01*
X99260005Y-53561216D01*
X99147975Y-53501335D01*
X99026414Y-53464460D01*
X98899804Y-53451990D01*
X98898178Y-53450825D01*
X98898374Y-53448835D01*
X98900000Y-53448000D01*
X98956360Y-53448000D01*
X98956556Y-53448010D01*
G37*
G36*
X93956556Y-53448010D02*
G01*
X94077195Y-53459891D01*
X94077580Y-53459967D01*
X94187676Y-53493365D01*
X94188038Y-53493515D01*
X94289503Y-53547750D01*
X94289829Y-53547968D01*
X94378767Y-53620956D01*
X94379044Y-53621233D01*
X94452032Y-53710171D01*
X94452250Y-53710497D01*
X94506485Y-53811962D01*
X94506635Y-53812324D01*
X94540033Y-53922420D01*
X94540109Y-53922805D01*
X94551990Y-54043444D01*
X94552000Y-54043640D01*
X94552000Y-54100000D01*
X94551000Y-54101732D01*
X94549000Y-54101732D01*
X94548010Y-54100196D01*
X94535540Y-53973586D01*
X94498665Y-53852025D01*
X94438784Y-53739995D01*
X94358198Y-53641802D01*
X94260005Y-53561216D01*
X94147975Y-53501335D01*
X94026414Y-53464460D01*
X93899804Y-53451990D01*
X93898178Y-53450825D01*
X93898374Y-53448835D01*
X93900000Y-53448000D01*
X93956360Y-53448000D01*
X93956556Y-53448010D01*
G37*
G36*
X88956556Y-53448010D02*
G01*
X89077195Y-53459891D01*
X89077580Y-53459967D01*
X89187676Y-53493365D01*
X89188038Y-53493515D01*
X89289503Y-53547750D01*
X89289829Y-53547968D01*
X89378767Y-53620956D01*
X89379044Y-53621233D01*
X89452032Y-53710171D01*
X89452250Y-53710497D01*
X89506485Y-53811962D01*
X89506635Y-53812324D01*
X89540033Y-53922420D01*
X89540109Y-53922805D01*
X89551990Y-54043444D01*
X89552000Y-54043640D01*
X89552000Y-54100000D01*
X89551000Y-54101732D01*
X89549000Y-54101732D01*
X89548010Y-54100196D01*
X89535540Y-53973586D01*
X89498665Y-53852025D01*
X89438784Y-53739995D01*
X89358198Y-53641802D01*
X89260005Y-53561216D01*
X89147975Y-53501335D01*
X89026414Y-53464460D01*
X88899804Y-53451990D01*
X88898178Y-53450825D01*
X88898374Y-53448835D01*
X88900000Y-53448000D01*
X88956360Y-53448000D01*
X88956556Y-53448010D01*
G37*
G36*
X78956556Y-53448010D02*
G01*
X79077195Y-53459891D01*
X79077580Y-53459967D01*
X79187676Y-53493365D01*
X79188038Y-53493515D01*
X79289503Y-53547750D01*
X79289829Y-53547968D01*
X79378767Y-53620956D01*
X79379044Y-53621233D01*
X79452032Y-53710171D01*
X79452250Y-53710497D01*
X79506485Y-53811962D01*
X79506635Y-53812324D01*
X79540033Y-53922420D01*
X79540109Y-53922805D01*
X79551990Y-54043444D01*
X79552000Y-54043640D01*
X79552000Y-54100000D01*
X79551000Y-54101732D01*
X79549000Y-54101732D01*
X79548010Y-54100196D01*
X79535540Y-53973586D01*
X79498665Y-53852025D01*
X79438784Y-53739995D01*
X79358198Y-53641802D01*
X79260005Y-53561216D01*
X79147975Y-53501335D01*
X79026414Y-53464460D01*
X78899804Y-53451990D01*
X78898178Y-53450825D01*
X78898374Y-53448835D01*
X78900000Y-53448000D01*
X78956360Y-53448000D01*
X78956556Y-53448010D01*
G37*
G36*
X73956556Y-53448010D02*
G01*
X74077195Y-53459891D01*
X74077580Y-53459967D01*
X74187676Y-53493365D01*
X74188038Y-53493515D01*
X74289503Y-53547750D01*
X74289829Y-53547968D01*
X74378767Y-53620956D01*
X74379044Y-53621233D01*
X74452032Y-53710171D01*
X74452250Y-53710497D01*
X74506485Y-53811962D01*
X74506635Y-53812324D01*
X74540033Y-53922420D01*
X74540109Y-53922805D01*
X74551990Y-54043444D01*
X74552000Y-54043640D01*
X74552000Y-54100000D01*
X74551000Y-54101732D01*
X74549000Y-54101732D01*
X74548010Y-54100196D01*
X74535540Y-53973586D01*
X74498665Y-53852025D01*
X74438784Y-53739995D01*
X74358198Y-53641802D01*
X74260005Y-53561216D01*
X74147975Y-53501335D01*
X74026414Y-53464460D01*
X73899804Y-53451990D01*
X73898178Y-53450825D01*
X73898374Y-53448835D01*
X73900000Y-53448000D01*
X73956360Y-53448000D01*
X73956556Y-53448010D01*
G37*
G36*
X68956556Y-53448010D02*
G01*
X69077195Y-53459891D01*
X69077580Y-53459967D01*
X69187676Y-53493365D01*
X69188038Y-53493515D01*
X69289503Y-53547750D01*
X69289829Y-53547968D01*
X69378767Y-53620956D01*
X69379044Y-53621233D01*
X69452032Y-53710171D01*
X69452250Y-53710497D01*
X69506485Y-53811962D01*
X69506635Y-53812324D01*
X69540033Y-53922420D01*
X69540109Y-53922805D01*
X69551990Y-54043444D01*
X69552000Y-54043640D01*
X69552000Y-54100000D01*
X69551000Y-54101732D01*
X69549000Y-54101732D01*
X69548010Y-54100196D01*
X69535540Y-53973586D01*
X69498665Y-53852025D01*
X69438784Y-53739995D01*
X69358198Y-53641802D01*
X69260005Y-53561216D01*
X69147975Y-53501335D01*
X69026414Y-53464460D01*
X68899804Y-53451990D01*
X68898178Y-53450825D01*
X68898374Y-53448835D01*
X68900000Y-53448000D01*
X68956360Y-53448000D01*
X68956556Y-53448010D01*
G37*
G36*
X63956556Y-53448010D02*
G01*
X64077195Y-53459891D01*
X64077580Y-53459967D01*
X64187676Y-53493365D01*
X64188038Y-53493515D01*
X64289503Y-53547750D01*
X64289829Y-53547968D01*
X64378767Y-53620956D01*
X64379044Y-53621233D01*
X64452032Y-53710171D01*
X64452250Y-53710497D01*
X64506485Y-53811962D01*
X64506635Y-53812324D01*
X64540033Y-53922420D01*
X64540109Y-53922805D01*
X64551990Y-54043444D01*
X64552000Y-54043640D01*
X64552000Y-54100000D01*
X64551000Y-54101732D01*
X64549000Y-54101732D01*
X64548010Y-54100196D01*
X64535540Y-53973586D01*
X64498665Y-53852025D01*
X64438784Y-53739995D01*
X64358198Y-53641802D01*
X64260005Y-53561216D01*
X64147975Y-53501335D01*
X64026414Y-53464460D01*
X63899804Y-53451990D01*
X63898178Y-53450825D01*
X63898374Y-53448835D01*
X63900000Y-53448000D01*
X63956360Y-53448000D01*
X63956556Y-53448010D01*
G37*
G36*
X113956556Y-53448010D02*
G01*
X114077195Y-53459891D01*
X114077580Y-53459967D01*
X114187676Y-53493365D01*
X114188038Y-53493515D01*
X114289503Y-53547750D01*
X114289829Y-53547968D01*
X114378767Y-53620956D01*
X114379044Y-53621233D01*
X114452032Y-53710171D01*
X114452250Y-53710497D01*
X114506485Y-53811962D01*
X114506635Y-53812324D01*
X114540033Y-53922420D01*
X114540109Y-53922805D01*
X114551990Y-54043444D01*
X114552000Y-54043640D01*
X114552000Y-54100000D01*
X114551000Y-54101732D01*
X114549000Y-54101732D01*
X114548010Y-54100196D01*
X114535540Y-53973586D01*
X114498665Y-53852025D01*
X114438784Y-53739995D01*
X114358198Y-53641802D01*
X114260005Y-53561216D01*
X114147975Y-53501335D01*
X114026414Y-53464460D01*
X113899804Y-53451990D01*
X113898178Y-53450825D01*
X113898374Y-53448835D01*
X113900000Y-53448000D01*
X113956360Y-53448000D01*
X113956556Y-53448010D01*
G37*
G36*
X83956556Y-53448010D02*
G01*
X84077195Y-53459891D01*
X84077580Y-53459967D01*
X84187676Y-53493365D01*
X84188038Y-53493515D01*
X84289503Y-53547750D01*
X84289829Y-53547968D01*
X84378767Y-53620956D01*
X84379044Y-53621233D01*
X84452032Y-53710171D01*
X84452250Y-53710497D01*
X84506485Y-53811962D01*
X84506635Y-53812324D01*
X84540033Y-53922420D01*
X84540109Y-53922805D01*
X84551990Y-54043444D01*
X84552000Y-54043640D01*
X84552000Y-54100000D01*
X84551000Y-54101732D01*
X84549000Y-54101732D01*
X84548010Y-54100196D01*
X84535540Y-53973586D01*
X84498665Y-53852025D01*
X84438784Y-53739995D01*
X84358198Y-53641802D01*
X84260005Y-53561216D01*
X84147975Y-53501335D01*
X84026414Y-53464460D01*
X83899804Y-53451990D01*
X83898178Y-53450825D01*
X83898374Y-53448835D01*
X83900000Y-53448000D01*
X83956360Y-53448000D01*
X83956556Y-53448010D01*
G37*
M02*
