M48
; DRILL file {KiCad 5.1.9-73d0e3b20d~88~ubuntu20.04.1} date Thu Oct  7 21:39:04 2021
; FORMAT={-:-/ absolute / metric / decimal}
; #@! TF.CreationDate,2021-10-07T21:39:04+05:30
; #@! TF.GenerationSoftware,Kicad,Pcbnew,5.1.9-73d0e3b20d~88~ubuntu20.04.1
FMAT,2
METRIC
T1C0.450
T2C0.500
T3C0.762
T4C0.950
T5C1.000
T6C1.020
T7C1.300
T8C2.286
T9C3.048
T10C3.200
T11C0.600
T12C1.800
%
G90
G05
T2
X51.6Y-54.0
X51.6Y-134.0
X52.303Y-52.303
X52.303Y-55.697
X52.303Y-132.303
X52.303Y-135.697
X54.0Y-51.6
X54.0Y-56.4
X54.0Y-131.6
X54.0Y-136.4
X55.697Y-52.303
X55.697Y-55.697
X55.697Y-132.303
X55.697Y-135.697
X56.4Y-54.0
X56.4Y-134.0
X75.0Y-58.0
X75.0Y-60.0
X75.0Y-62.0
X75.0Y-64.0
X75.0Y-66.0
X75.0Y-68.0
X75.0Y-70.0
X75.0Y-72.0
X75.0Y-74.0
X76.0Y-75.0
X77.7Y-122.65
X77.7Y-125.35
X77.7Y-130.15
X77.7Y-132.85
X78.0Y-58.0
X78.0Y-60.0
X78.0Y-75.0
X79.0Y-66.0
X81.0Y-66.0
X82.3Y-67.0
X82.3Y-69.0
X82.3Y-71.0
X82.3Y-73.0
X82.3Y-75.0
X82.7Y-106.85
X82.7Y-116.15
X82.75Y-77.95
X82.75Y-82.75
X84.0Y-93.5
X85.0Y-58.0
X85.0Y-60.0
X85.0Y-62.0
X85.0Y-64.0
X85.0Y-66.0
X85.0Y-68.0
X85.0Y-70.0
X85.0Y-72.0
X85.0Y-74.0
X86.0Y-75.0
X86.1Y-125.5
X87.8Y-123.0
X87.8Y-124.3
X88.0Y-58.0
X88.0Y-60.0
X88.0Y-75.0
X89.0Y-66.0
X91.0Y-66.0
X92.3Y-67.0
X92.3Y-69.0
X92.3Y-71.0
X92.3Y-73.0
X92.3Y-75.0
X92.75Y-77.95
X92.75Y-82.75
X95.0Y-58.0
X95.0Y-60.0
X95.0Y-62.0
X95.0Y-64.0
X95.0Y-66.0
X95.0Y-68.0
X95.0Y-70.0
X95.0Y-72.0
X95.0Y-74.0
X95.74Y-88.0
X95.74Y-91.2
X96.0Y-75.0
X98.0Y-58.0
X98.0Y-60.0
X98.0Y-75.0
X98.93Y-91.2
X98.94Y-88.0
X99.0Y-66.0
X101.0Y-66.0
X102.14Y-88.0
X102.14Y-91.2
X102.3Y-67.0
X102.3Y-69.0
X102.3Y-71.0
X102.3Y-73.0
X102.3Y-75.0
X102.75Y-77.95
X102.75Y-82.75
X105.0Y-58.0
X105.0Y-60.0
X105.0Y-62.0
X105.0Y-64.0
X105.0Y-66.0
X105.0Y-68.0
X105.0Y-70.0
X105.0Y-72.0
X105.0Y-74.0
X105.33Y-88.0
X105.33Y-91.2
X106.0Y-75.0
X108.0Y-58.0
X108.0Y-60.0
X108.0Y-75.0
X108.53Y-88.0
X108.54Y-91.2
X109.1Y-65.9
X111.0Y-66.0
X112.3Y-67.0
X112.3Y-69.0
X112.3Y-71.0
X112.3Y-73.0
X112.3Y-75.0
X112.75Y-77.95
X112.75Y-82.75
X115.0Y-58.0
X115.0Y-60.0
X115.0Y-62.0
X115.0Y-64.0
X115.0Y-66.0
X115.0Y-68.0
X115.0Y-70.0
X115.0Y-72.0
X115.0Y-73.9
X116.0Y-75.0
X117.85Y-134.25
X118.0Y-58.0
X118.0Y-60.0
X118.0Y-75.0
X119.0Y-66.0
X121.0Y-66.0
X122.3Y-67.0
X122.3Y-69.0
X122.3Y-71.0
X122.3Y-73.0
X122.3Y-75.0
X122.743Y-77.944
X122.75Y-82.75
X128.45Y-134.25
X134.0Y-134.25
X138.9Y-57.8
X139.5Y-130.0
X141.0Y-123.4
X141.0Y-126.2
X141.0Y-130.0
X142.5Y-130.0
X144.0Y-60.2
X144.0Y-66.0
X144.95Y-136.75
X145.0Y-130.0
X146.55Y-136.75
X146.6Y-130.0
X147.95Y-136.75
X148.0Y-130.0
X149.5Y-124.0
X152.0Y-131.3
X152.4Y-113.0
X152.5Y-124.75
X152.5Y-126.25
X154.4Y-121.6
X155.0Y-60.7
X155.0Y-67.5
X155.0Y-89.1
X155.0Y-92.7
X155.765Y-124.665
X155.765Y-125.935
X156.0Y-86.0
X156.4Y-113.0
X156.4Y-114.5
X156.4Y-118.4
X156.4Y-125.3
X157.035Y-124.665
X157.035Y-125.935
X157.5Y-86.0
X157.6Y-131.35
X157.76Y-71.535
X157.76Y-72.805
X157.76Y-74.075
X157.76Y-75.345
X157.76Y-76.615
X157.76Y-77.885
X157.76Y-79.155
X157.76Y-80.425
X157.76Y-81.695
X157.76Y-82.965
X158.0Y-70.0
X159.0Y-86.0
X160.0Y-118.4
X160.0Y-121.6
X160.1Y-114.5
X161.75Y-65.75
X161.75Y-88.75
X162.95Y-95.95
X163.0Y-94.0
X163.02Y-65.75
X163.02Y-88.75
X164.29Y-65.75
X164.29Y-88.75
X165.56Y-65.75
X165.56Y-88.75
X166.0Y-94.0
X166.0Y-96.0
X166.8Y-120.25
X166.8Y-131.3
X166.83Y-65.75
X166.83Y-88.75
X167.0Y-54.25
X167.0Y-57.75
X168.1Y-65.75
X168.1Y-88.75
X168.925Y-75.332
X168.925Y-77.25
X169.37Y-65.75
X169.37Y-88.75
X169.843Y-74.415
X169.843Y-76.25
X169.843Y-78.085
X170.3Y-120.25
X170.64Y-65.75
X170.64Y-88.75
X170.76Y-75.332
X170.76Y-77.25
X171.678Y-74.415
X171.678Y-76.25
X171.678Y-78.085
X171.91Y-65.75
X171.91Y-88.75
X172.595Y-75.332
X172.595Y-77.25
X172.9Y-62.4
X173.18Y-65.75
X173.18Y-88.75
X174.45Y-65.75
X174.45Y-88.75
X175.175Y-95.675
X175.175Y-100.625
X175.175Y-105.575
X175.72Y-65.75
X175.72Y-88.75
X176.4Y-117.5
X176.5Y-122.7
X176.5Y-90.5
X176.99Y-65.75
X176.99Y-88.75
X178.0Y-90.5
X178.26Y-65.75
X178.26Y-88.75
X178.4Y-113.8
X179.6Y-54.0
X179.6Y-134.0
X180.303Y-52.303
X180.303Y-55.697
X180.303Y-132.303
X180.303Y-135.697
X182.0Y-51.6
X182.0Y-56.4
X182.0Y-131.6
X182.0Y-136.4
X183.697Y-52.303
X183.697Y-55.697
X183.697Y-132.303
X183.697Y-135.697
X184.4Y-54.0
X184.4Y-134.0
T3
X72.55Y-83.33
X72.55Y-93.49
X72.55Y-96.03
X131.4Y-97.92
X131.4Y-100.46
X131.4Y-103.0
X131.4Y-105.54
X131.4Y-108.08
X131.4Y-110.62
X131.4Y-113.16
X131.4Y-115.7
X131.4Y-118.24
X131.4Y-120.78
X173.24Y-110.81
X173.24Y-113.35
X173.24Y-115.89
X173.24Y-118.43
X173.24Y-120.97
X173.24Y-123.51
X173.24Y-126.05
X173.24Y-128.59
X175.78Y-110.81
X175.78Y-128.59
T4
X144.0Y-53.0
X145.25Y-75.5
X145.25Y-78.0
X145.25Y-80.5
X145.25Y-83.0
X145.25Y-98.5
X145.25Y-101.0
X145.25Y-103.5
X145.25Y-106.0
X146.5Y-53.0
X149.0Y-53.0
X150.75Y-98.5
X150.75Y-101.0
X150.75Y-103.5
X150.75Y-106.0
X150.8Y-75.5
X150.8Y-78.0
X150.8Y-80.5
X150.8Y-83.0
T5
X67.55Y-78.25
X67.55Y-80.79
X67.55Y-85.87
X67.55Y-88.41
X67.55Y-90.95
X72.55Y-78.25
X72.55Y-80.79
X72.55Y-88.41
X72.55Y-90.95
X135.5Y-53.0
X136.25Y-98.5
X136.25Y-101.0
X138.0Y-53.0
X155.0Y-53.0
X157.5Y-53.0
X180.5Y-95.0
X180.5Y-100.0
X180.5Y-105.0
X183.0Y-95.0
X183.0Y-100.0
X183.0Y-105.0
T6
X57.75Y-60.43
X57.75Y-75.67
X57.75Y-85.83
X57.75Y-101.07
X85.26Y-103.9
X87.8Y-103.9
X95.42Y-103.9
X125.9Y-108.08
T7
X52.6Y-114.0
X63.25Y-54.75
X68.25Y-54.75
X73.25Y-54.75
X78.25Y-54.75
X83.25Y-54.75
X88.25Y-54.75
X93.25Y-54.75
X98.25Y-54.75
X103.25Y-54.75
X108.25Y-54.75
X113.25Y-54.75
X118.25Y-54.75
T8
X183.4Y-112.08
X183.4Y-127.32
T9
X53.94Y-68.05
X53.94Y-93.45
X118.954Y-97.92
X118.954Y-120.78
T10
X54.0Y-54.0
X54.0Y-134.0
X182.0Y-54.0
X182.0Y-134.0
T11
X181.7Y-117.8
X181.7Y-121.8
T12
X55.751Y-118.762
X64.0Y-104.475
X72.249Y-118.762
T1
G00X183.3Y-116.965
M15
G01X184.4Y-116.965
M16
G05
G00X184.4Y-122.635
M15
G01X183.3Y-122.635
M16
G05
T7
G00X56.4Y-114.0
M15
G01X58.6Y-114.0
M16
G05
G00X56.85Y-114.0
M15
G01X58.15Y-114.0
M16
G05
G00X77.35Y-114.0
M15
G01X78.65Y-114.0
M16
G05
G00X77.4Y-114.0
M15
G01X79.6Y-114.0
M16
G05
T0
M30
