M48
; DRILL file {KiCad 5.1.12-84ad8e8a86~92~ubuntu20.04.1} date Tue Nov 30 13:36:40 2021
; FORMAT={-:-/ absolute / metric / decimal}
; #@! TF.CreationDate,2021-11-30T13:36:40+05:30
; #@! TF.GenerationSoftware,Kicad,Pcbnew,5.1.12-84ad8e8a86~92~ubuntu20.04.1
FMAT,2
METRIC
T1C0.500
T2C0.762
T3C0.950
T4C1.000
T5C1.020
T6C1.300
T7C1.500
T8C3.048
T9C3.200
T10C1.800
T11C3.000
T12C3.048
%
G90
G05
T1
X51.5Y-120.0
X51.5Y-122.5
X51.5Y-125.0
X51.5Y-127.5
X51.5Y-129.5
X51.6Y-54.0
X51.6Y-134.0
X52.303Y-52.303
X52.303Y-55.697
X52.303Y-132.303
X52.303Y-135.697
X53.6Y-107.8
X54.0Y-51.6
X54.0Y-56.4
X54.0Y-120.0
X54.0Y-122.5
X54.0Y-125.0
X54.0Y-127.5
X54.0Y-129.5
X54.0Y-131.6
X54.0Y-136.4
X55.697Y-52.303
X55.697Y-55.697
X55.697Y-132.303
X55.697Y-135.697
X56.4Y-54.0
X56.4Y-107.8
X56.4Y-134.0
X58.0Y-107.8
X60.0Y-107.8
X60.0Y-130.0
X60.0Y-132.5
X60.0Y-135.0
X60.0Y-137.0
X60.78Y-116.14
X61.55Y-107.8
X62.32Y-116.14
X62.5Y-130.0
X62.5Y-132.5
X62.5Y-135.0
X62.5Y-137.0
X65.0Y-120.0
X65.0Y-122.5
X65.0Y-125.0
X65.0Y-127.5
X65.0Y-130.0
X65.0Y-132.5
X65.0Y-135.0
X65.0Y-137.0
X67.0Y-120.0
X67.0Y-122.5
X67.0Y-125.0
X67.0Y-127.5
X67.0Y-130.0
X67.0Y-132.5
X67.0Y-135.0
X67.0Y-137.0
X69.5Y-120.0
X69.5Y-122.5
X69.5Y-125.0
X72.0Y-120.0
X72.0Y-122.5
X72.0Y-125.0
X73.0Y-64.0
X73.0Y-67.5
X73.0Y-71.0
X73.55Y-82.8
X74.5Y-120.0
X74.5Y-122.5
X74.5Y-125.0
X76.2Y-94.0
X77.25Y-64.0
X77.25Y-71.0
X80.85Y-82.8
X81.5Y-64.0
X81.5Y-67.5
X81.5Y-71.0
X82.0Y-77.0
X84.0Y-93.5
X85.0Y-64.0
X85.0Y-67.5
X85.0Y-71.0
X85.55Y-82.8
X89.25Y-64.0
X89.25Y-71.0
X92.5Y-108.75
X92.5Y-110.0
X92.5Y-111.25
X92.5Y-112.5
X92.9Y-82.8
X93.5Y-64.0
X93.5Y-67.5
X93.5Y-71.0
X94.0Y-77.0
X95.735Y-91.015
X97.0Y-64.0
X97.0Y-67.5
X97.0Y-71.0
X97.5Y-82.8
X98.315Y-91.015
X100.815Y-91.015
X101.25Y-64.0
X101.25Y-71.0
X103.365Y-91.015
X104.9Y-82.8
X105.5Y-64.0
X105.5Y-67.5
X105.5Y-71.0
X105.9Y-77.0
X106.7Y-91.0
X109.0Y-64.0
X109.0Y-67.5
X109.0Y-71.0
X109.55Y-82.8
X113.25Y-64.0
X113.25Y-71.0
X117.0Y-82.8
X117.5Y-64.0
X117.5Y-67.5
X117.5Y-71.0
X118.0Y-77.0
X118.75Y-122.7
X121.0Y-64.0
X121.0Y-67.5
X121.0Y-71.0
X121.0Y-112.0
X121.05Y-110.5
X121.55Y-82.8
X125.25Y-64.0
X125.25Y-71.0
X127.0Y-84.95
X128.05Y-122.7
X129.5Y-64.0
X129.5Y-67.5
X129.5Y-71.0
X130.0Y-77.0
X143.05Y-111.15
X143.35Y-106.8
X146.0Y-62.7
X147.1Y-102.8
X148.0Y-94.55
X148.0Y-115.5
X149.0Y-121.8
X149.0Y-123.8
X149.0Y-124.8
X150.9Y-96.5
X150.9Y-100.3
X155.0Y-62.7
X164.0Y-62.7
X167.6Y-54.0
X167.6Y-134.0
X168.303Y-52.303
X168.303Y-55.697
X168.303Y-132.303
X168.303Y-135.697
X170.0Y-51.6
X170.0Y-56.4
X170.0Y-131.6
X170.0Y-136.4
X171.697Y-52.303
X171.697Y-55.697
X171.697Y-132.303
X171.697Y-135.697
X172.4Y-54.0
X172.4Y-134.0
T2
X83.0Y-111.57
X83.0Y-114.11
X83.0Y-116.65
X83.0Y-119.19
X83.0Y-121.73
X83.0Y-124.27
X83.0Y-126.81
X83.0Y-129.35
X83.0Y-131.89
X83.0Y-134.43
T3
X141.0Y-53.0
X141.0Y-55.5
X141.0Y-58.0
X141.0Y-73.0
X141.0Y-75.5
X141.0Y-78.0
X141.0Y-80.5
X150.0Y-73.0
X150.0Y-75.5
X150.0Y-78.0
X150.0Y-80.5
X159.0Y-73.0
X159.0Y-75.5
X159.0Y-78.0
X159.0Y-80.5
X168.0Y-73.0
X168.0Y-75.5
X168.0Y-78.0
X168.0Y-80.5
T4
X59.2Y-75.3
X59.2Y-77.84
X59.2Y-80.38
X59.2Y-85.46
X59.2Y-88.0
X59.2Y-90.54
X59.2Y-93.08
X65.75Y-54.75
X68.25Y-54.75
X68.4Y-77.8
X68.4Y-80.34
X68.4Y-85.42
X68.4Y-87.96
X68.4Y-90.5
X76.0Y-54.75
X78.5Y-54.75
X87.25Y-110.25
X87.25Y-112.75
X88.0Y-54.75
X90.5Y-54.75
X100.0Y-54.75
X102.5Y-54.75
X112.0Y-54.75
X114.5Y-54.75
X116.65Y-133.5
X119.19Y-97.94
X119.19Y-133.5
X121.73Y-97.94
X121.73Y-133.5
X124.0Y-54.75
X124.27Y-97.94
X124.27Y-133.5
X126.5Y-54.75
X126.81Y-97.94
X126.81Y-133.5
X129.35Y-133.5
X138.3Y-92.24
X138.3Y-94.78
X138.3Y-97.32
X138.3Y-99.86
X138.3Y-102.4
X138.3Y-104.94
X138.3Y-107.48
X138.3Y-110.02
X138.3Y-112.56
X138.3Y-115.1
X138.3Y-117.64
X138.3Y-120.18
X138.3Y-122.72
X138.3Y-125.26
X138.3Y-127.8
X149.0Y-53.0
X149.0Y-55.5
X150.0Y-63.0
X150.0Y-65.5
X159.0Y-53.0
X159.0Y-55.5
X159.0Y-63.0
X159.0Y-65.5
X163.7Y-92.24
X163.7Y-94.78
X163.7Y-97.32
X163.7Y-99.86
X163.7Y-102.4
X163.7Y-104.94
X163.7Y-107.48
X163.7Y-110.02
X163.7Y-112.56
X163.7Y-115.1
X163.7Y-117.64
X163.7Y-120.18
X163.7Y-122.72
X163.7Y-125.26
X163.7Y-127.8
X168.0Y-63.0
X168.0Y-65.5
T5
X85.5Y-121.73
X115.8Y-120.0
X140.41Y-102.4
X140.75Y-127.8
X141.0Y-92.24
X141.0Y-94.78
X141.0Y-97.32
X141.0Y-99.86
X141.0Y-122.72
X166.5Y-92.24
X166.5Y-117.64
X166.5Y-120.18
X166.5Y-122.72
X166.5Y-125.26
X166.5Y-127.8
T6
X108.392Y-114.608
T7
X53.3Y-63.05
X53.3Y-100.95
X68.7Y-63.05
X68.7Y-100.95
T8
X70.554Y-111.57
X70.554Y-134.43
T9
X54.0Y-54.0
X54.0Y-134.0
X170.0Y-54.0
X170.0Y-134.0
T10
X89.675Y-123.8
X103.962Y-115.551
X103.962Y-132.049
T11
X53.35Y-67.15
X53.35Y-96.85
X68.65Y-67.15
T12
X113.75Y-100.77
X113.75Y-126.77
X132.25Y-126.77
X139.57Y-88.43
X139.57Y-135.42
X162.43Y-88.43
X162.43Y-135.42
T6
X90.856Y-132.144G85X89.301Y-133.699
G05
X99.2Y-110.45G85X99.2Y-109.15
G05
X99.2Y-130.95G85X99.2Y-129.65
G05
X105.705Y-117.295G85X104.15Y-118.85
G05
T0
M30
