%TF.GenerationSoftware,KiCad,Pcbnew,5.1.12-84ad8e8a86~92~ubuntu20.04.1*%
%TF.CreationDate,2021-11-30T13:36:37+05:30*%
%TF.ProjectId,vayuO2,76617975-4f32-42e6-9b69-6361645f7063,rev 3*%
%TF.SameCoordinates,Original*%
%TF.FileFunction,Soldermask,Bot*%
%TF.FilePolarity,Negative*%
%FSLAX46Y46*%
G04 Gerber Fmt 4.6, Leading zero omitted, Abs format (unit mm)*
G04 Created by KiCad (PCBNEW 5.1.12-84ad8e8a86~92~ubuntu20.04.1) date 2021-11-30 13:36:37*
%MOMM*%
%LPD*%
G01*
G04 APERTURE LIST*
%ADD10C,3.048000*%
%ADD11R,1.700000X1.700000*%
%ADD12O,1.700000X1.700000*%
%ADD13C,3.000000*%
%ADD14C,1.700000*%
%ADD15O,1.700000X2.000000*%
%ADD16O,2.000000X1.700000*%
%ADD17O,1.950000X1.700000*%
%ADD18O,2.600000X3.900000*%
%ADD19C,1.800000*%
%ADD20C,6.400000*%
%ADD21C,0.800000*%
%ADD22C,0.127000*%
%ADD23C,2.600000*%
%ADD24C,1.524000*%
%ADD25C,4.572000*%
G04 APERTURE END LIST*
D10*
X139570000Y-88430000D03*
X162430000Y-88430000D03*
X162430000Y-135420000D03*
X139570000Y-135420000D03*
D11*
X138300000Y-127800000D03*
D12*
X138300000Y-125260000D03*
X138300000Y-120180000D03*
X138300000Y-117640000D03*
X138300000Y-115100000D03*
X138300000Y-122720000D03*
X138300000Y-99860000D03*
X138300000Y-94780000D03*
X138300000Y-97320000D03*
X138300000Y-104940000D03*
X138300000Y-110020000D03*
X138300000Y-102400000D03*
X138300000Y-107480000D03*
X138300000Y-112560000D03*
X138300000Y-92240000D03*
X163700000Y-92240000D03*
X163700000Y-94780000D03*
X163700000Y-97320000D03*
X163700000Y-99860000D03*
X163700000Y-102400000D03*
X163700000Y-104940000D03*
X163700000Y-107480000D03*
X163700000Y-110020000D03*
X163700000Y-112560000D03*
X163700000Y-115100000D03*
X163700000Y-117640000D03*
X163700000Y-120180000D03*
X163700000Y-122720000D03*
X163700000Y-125260000D03*
D11*
X163700000Y-127800000D03*
G36*
G01*
X140200000Y-92640000D02*
X140200000Y-91840000D01*
G75*
G02*
X140600000Y-91440000I400000J0D01*
G01*
X141400000Y-91440000D01*
G75*
G02*
X141800000Y-91840000I0J-400000D01*
G01*
X141800000Y-92640000D01*
G75*
G02*
X141400000Y-93040000I-400000J0D01*
G01*
X140600000Y-93040000D01*
G75*
G02*
X140200000Y-92640000I0J400000D01*
G01*
G37*
G36*
G01*
X165700000Y-92640000D02*
X165700000Y-91840000D01*
G75*
G02*
X166100000Y-91440000I400000J0D01*
G01*
X166900000Y-91440000D01*
G75*
G02*
X167300000Y-91840000I0J-400000D01*
G01*
X167300000Y-92640000D01*
G75*
G02*
X166900000Y-93040000I-400000J0D01*
G01*
X166100000Y-93040000D01*
G75*
G02*
X165700000Y-92640000I0J400000D01*
G01*
G37*
G36*
G01*
X140200000Y-95180000D02*
X140200000Y-94380000D01*
G75*
G02*
X140600000Y-93980000I400000J0D01*
G01*
X141400000Y-93980000D01*
G75*
G02*
X141800000Y-94380000I0J-400000D01*
G01*
X141800000Y-95180000D01*
G75*
G02*
X141400000Y-95580000I-400000J0D01*
G01*
X140600000Y-95580000D01*
G75*
G02*
X140200000Y-95180000I0J400000D01*
G01*
G37*
G36*
G01*
X140200000Y-97720000D02*
X140200000Y-96920000D01*
G75*
G02*
X140600000Y-96520000I400000J0D01*
G01*
X141400000Y-96520000D01*
G75*
G02*
X141800000Y-96920000I0J-400000D01*
G01*
X141800000Y-97720000D01*
G75*
G02*
X141400000Y-98120000I-400000J0D01*
G01*
X140600000Y-98120000D01*
G75*
G02*
X140200000Y-97720000I0J400000D01*
G01*
G37*
G36*
G01*
X140200000Y-100260000D02*
X140200000Y-99460000D01*
G75*
G02*
X140600000Y-99060000I400000J0D01*
G01*
X141400000Y-99060000D01*
G75*
G02*
X141800000Y-99460000I0J-400000D01*
G01*
X141800000Y-100260000D01*
G75*
G02*
X141400000Y-100660000I-400000J0D01*
G01*
X140600000Y-100660000D01*
G75*
G02*
X140200000Y-100260000I0J400000D01*
G01*
G37*
G36*
G01*
X139610000Y-102800000D02*
X139610000Y-102000000D01*
G75*
G02*
X140010000Y-101600000I400000J0D01*
G01*
X140810000Y-101600000D01*
G75*
G02*
X141210000Y-102000000I0J-400000D01*
G01*
X141210000Y-102800000D01*
G75*
G02*
X140810000Y-103200000I-400000J0D01*
G01*
X140010000Y-103200000D01*
G75*
G02*
X139610000Y-102800000I0J400000D01*
G01*
G37*
G36*
G01*
X165700000Y-118040000D02*
X165700000Y-117240000D01*
G75*
G02*
X166100000Y-116840000I400000J0D01*
G01*
X166900000Y-116840000D01*
G75*
G02*
X167300000Y-117240000I0J-400000D01*
G01*
X167300000Y-118040000D01*
G75*
G02*
X166900000Y-118440000I-400000J0D01*
G01*
X166100000Y-118440000D01*
G75*
G02*
X165700000Y-118040000I0J400000D01*
G01*
G37*
G36*
G01*
X165700000Y-120580000D02*
X165700000Y-119780000D01*
G75*
G02*
X166100000Y-119380000I400000J0D01*
G01*
X166900000Y-119380000D01*
G75*
G02*
X167300000Y-119780000I0J-400000D01*
G01*
X167300000Y-120580000D01*
G75*
G02*
X166900000Y-120980000I-400000J0D01*
G01*
X166100000Y-120980000D01*
G75*
G02*
X165700000Y-120580000I0J400000D01*
G01*
G37*
G36*
G01*
X85900000Y-122530000D02*
X85100000Y-122530000D01*
G75*
G02*
X84700000Y-122130000I0J400000D01*
G01*
X84700000Y-121330000D01*
G75*
G02*
X85100000Y-120930000I400000J0D01*
G01*
X85900000Y-120930000D01*
G75*
G02*
X86300000Y-121330000I0J-400000D01*
G01*
X86300000Y-122130000D01*
G75*
G02*
X85900000Y-122530000I-400000J0D01*
G01*
G37*
G36*
G01*
X140200000Y-123120000D02*
X140200000Y-122320000D01*
G75*
G02*
X140600000Y-121920000I400000J0D01*
G01*
X141400000Y-121920000D01*
G75*
G02*
X141800000Y-122320000I0J-400000D01*
G01*
X141800000Y-123120000D01*
G75*
G02*
X141400000Y-123520000I-400000J0D01*
G01*
X140600000Y-123520000D01*
G75*
G02*
X140200000Y-123120000I0J400000D01*
G01*
G37*
G36*
G01*
X165700000Y-123120000D02*
X165700000Y-122320000D01*
G75*
G02*
X166100000Y-121920000I400000J0D01*
G01*
X166900000Y-121920000D01*
G75*
G02*
X167300000Y-122320000I0J-400000D01*
G01*
X167300000Y-123120000D01*
G75*
G02*
X166900000Y-123520000I-400000J0D01*
G01*
X166100000Y-123520000D01*
G75*
G02*
X165700000Y-123120000I0J400000D01*
G01*
G37*
G36*
G01*
X165700000Y-125660000D02*
X165700000Y-124860000D01*
G75*
G02*
X166100000Y-124460000I400000J0D01*
G01*
X166900000Y-124460000D01*
G75*
G02*
X167300000Y-124860000I0J-400000D01*
G01*
X167300000Y-125660000D01*
G75*
G02*
X166900000Y-126060000I-400000J0D01*
G01*
X166100000Y-126060000D01*
G75*
G02*
X165700000Y-125660000I0J400000D01*
G01*
G37*
G36*
G01*
X139950000Y-128200000D02*
X139950000Y-127400000D01*
G75*
G02*
X140350000Y-127000000I400000J0D01*
G01*
X141150000Y-127000000D01*
G75*
G02*
X141550000Y-127400000I0J-400000D01*
G01*
X141550000Y-128200000D01*
G75*
G02*
X141150000Y-128600000I-400000J0D01*
G01*
X140350000Y-128600000D01*
G75*
G02*
X139950000Y-128200000I0J400000D01*
G01*
G37*
G36*
G01*
X165700000Y-128200000D02*
X165700000Y-127400000D01*
G75*
G02*
X166100000Y-127000000I400000J0D01*
G01*
X166900000Y-127000000D01*
G75*
G02*
X167300000Y-127400000I0J-400000D01*
G01*
X167300000Y-128200000D01*
G75*
G02*
X166900000Y-128600000I-400000J0D01*
G01*
X166100000Y-128600000D01*
G75*
G02*
X165700000Y-128200000I0J400000D01*
G01*
G37*
D13*
X53350000Y-96850000D03*
X53350000Y-67150000D03*
X68650000Y-67150000D03*
X53300000Y-100950000D03*
X68700000Y-100950000D03*
X53300000Y-63050000D03*
X68700000Y-63050000D03*
D12*
X59200000Y-88000000D03*
X59200000Y-85460000D03*
D14*
X59200000Y-77840000D03*
D11*
X59200000Y-75300000D03*
D14*
X59200000Y-80380000D03*
X59200000Y-90540000D03*
X59200000Y-93080000D03*
D11*
X68400000Y-77800000D03*
D12*
X68400000Y-80340000D03*
X68400000Y-85420000D03*
X68400000Y-87960000D03*
X68400000Y-90500000D03*
D15*
X65750000Y-54750000D03*
G36*
G01*
X69100000Y-54000000D02*
X69100000Y-55500000D01*
G75*
G02*
X68850000Y-55750000I-250000J0D01*
G01*
X67650000Y-55750000D01*
G75*
G02*
X67400000Y-55500000I0J250000D01*
G01*
X67400000Y-54000000D01*
G75*
G02*
X67650000Y-53750000I250000J0D01*
G01*
X68850000Y-53750000D01*
G75*
G02*
X69100000Y-54000000I0J-250000D01*
G01*
G37*
X76000000Y-54750000D03*
G36*
G01*
X79350000Y-54000000D02*
X79350000Y-55500000D01*
G75*
G02*
X79100000Y-55750000I-250000J0D01*
G01*
X77900000Y-55750000D01*
G75*
G02*
X77650000Y-55500000I0J250000D01*
G01*
X77650000Y-54000000D01*
G75*
G02*
X77900000Y-53750000I250000J0D01*
G01*
X79100000Y-53750000D01*
G75*
G02*
X79350000Y-54000000I0J-250000D01*
G01*
G37*
D16*
X159000000Y-65500000D03*
G36*
G01*
X158250000Y-62150000D02*
X159750000Y-62150000D01*
G75*
G02*
X160000000Y-62400000I0J-250000D01*
G01*
X160000000Y-63600000D01*
G75*
G02*
X159750000Y-63850000I-250000J0D01*
G01*
X158250000Y-63850000D01*
G75*
G02*
X158000000Y-63600000I0J250000D01*
G01*
X158000000Y-62400000D01*
G75*
G02*
X158250000Y-62150000I250000J0D01*
G01*
G37*
D17*
X150000000Y-80500000D03*
X150000000Y-78000000D03*
X150000000Y-75500000D03*
G36*
G01*
X149275000Y-72150000D02*
X150725000Y-72150000D01*
G75*
G02*
X150975000Y-72400000I0J-250000D01*
G01*
X150975000Y-73600000D01*
G75*
G02*
X150725000Y-73850000I-250000J0D01*
G01*
X149275000Y-73850000D01*
G75*
G02*
X149025000Y-73600000I0J250000D01*
G01*
X149025000Y-72400000D01*
G75*
G02*
X149275000Y-72150000I250000J0D01*
G01*
G37*
X159000000Y-80500000D03*
X159000000Y-78000000D03*
X159000000Y-75500000D03*
G36*
G01*
X158275000Y-72150000D02*
X159725000Y-72150000D01*
G75*
G02*
X159975000Y-72400000I0J-250000D01*
G01*
X159975000Y-73600000D01*
G75*
G02*
X159725000Y-73850000I-250000J0D01*
G01*
X158275000Y-73850000D01*
G75*
G02*
X158025000Y-73600000I0J250000D01*
G01*
X158025000Y-72400000D01*
G75*
G02*
X158275000Y-72150000I250000J0D01*
G01*
G37*
G36*
G01*
X100500000Y-129000000D02*
X100500000Y-131600000D01*
G75*
G02*
X99850000Y-132250000I-650000J0D01*
G01*
X98550000Y-132250000D01*
G75*
G02*
X97900000Y-131600000I0J650000D01*
G01*
X97900000Y-129000000D01*
G75*
G02*
X98550000Y-128350000I650000J0D01*
G01*
X99850000Y-128350000D01*
G75*
G02*
X100500000Y-129000000I0J-650000D01*
G01*
G37*
D18*
X99200000Y-109800000D03*
D19*
X103962000Y-115551000D03*
X89675000Y-123800000D03*
X103962000Y-132049000D03*
D16*
X149000000Y-55500000D03*
G36*
G01*
X148250000Y-52150000D02*
X149750000Y-52150000D01*
G75*
G02*
X150000000Y-52400000I0J-250000D01*
G01*
X150000000Y-53600000D01*
G75*
G02*
X149750000Y-53850000I-250000J0D01*
G01*
X148250000Y-53850000D01*
G75*
G02*
X148000000Y-53600000I0J250000D01*
G01*
X148000000Y-52400000D01*
G75*
G02*
X148250000Y-52150000I250000J0D01*
G01*
G37*
D15*
X124000000Y-54750000D03*
G36*
G01*
X127350000Y-54000000D02*
X127350000Y-55500000D01*
G75*
G02*
X127100000Y-55750000I-250000J0D01*
G01*
X125900000Y-55750000D01*
G75*
G02*
X125650000Y-55500000I0J250000D01*
G01*
X125650000Y-54000000D01*
G75*
G02*
X125900000Y-53750000I250000J0D01*
G01*
X127100000Y-53750000D01*
G75*
G02*
X127350000Y-54000000I0J-250000D01*
G01*
G37*
X112000000Y-54750000D03*
G36*
G01*
X115350000Y-54000000D02*
X115350000Y-55500000D01*
G75*
G02*
X115100000Y-55750000I-250000J0D01*
G01*
X113900000Y-55750000D01*
G75*
G02*
X113650000Y-55500000I0J250000D01*
G01*
X113650000Y-54000000D01*
G75*
G02*
X113900000Y-53750000I250000J0D01*
G01*
X115100000Y-53750000D01*
G75*
G02*
X115350000Y-54000000I0J-250000D01*
G01*
G37*
X100000000Y-54750000D03*
G36*
G01*
X103350000Y-54000000D02*
X103350000Y-55500000D01*
G75*
G02*
X103100000Y-55750000I-250000J0D01*
G01*
X101900000Y-55750000D01*
G75*
G02*
X101650000Y-55500000I0J250000D01*
G01*
X101650000Y-54000000D01*
G75*
G02*
X101900000Y-53750000I250000J0D01*
G01*
X103100000Y-53750000D01*
G75*
G02*
X103350000Y-54000000I0J-250000D01*
G01*
G37*
X88000000Y-54750000D03*
G36*
G01*
X91350000Y-54000000D02*
X91350000Y-55500000D01*
G75*
G02*
X91100000Y-55750000I-250000J0D01*
G01*
X89900000Y-55750000D01*
G75*
G02*
X89650000Y-55500000I0J250000D01*
G01*
X89650000Y-54000000D01*
G75*
G02*
X89900000Y-53750000I250000J0D01*
G01*
X91100000Y-53750000D01*
G75*
G02*
X91350000Y-54000000I0J-250000D01*
G01*
G37*
D11*
X116650000Y-133500000D03*
D12*
X119190000Y-133500000D03*
X121730000Y-133500000D03*
X124270000Y-133500000D03*
X126810000Y-133500000D03*
X129350000Y-133500000D03*
X126810000Y-97940000D03*
X124270000Y-97940000D03*
X119190000Y-97940000D03*
X121730000Y-97940000D03*
D10*
X113750000Y-126770000D03*
X113750000Y-100770000D03*
X132250000Y-126770000D03*
D17*
X141000000Y-80500000D03*
X141000000Y-78000000D03*
X141000000Y-75500000D03*
G36*
G01*
X140275000Y-72150000D02*
X141725000Y-72150000D01*
G75*
G02*
X141975000Y-72400000I0J-250000D01*
G01*
X141975000Y-73600000D01*
G75*
G02*
X141725000Y-73850000I-250000J0D01*
G01*
X140275000Y-73850000D01*
G75*
G02*
X140025000Y-73600000I0J250000D01*
G01*
X140025000Y-72400000D01*
G75*
G02*
X140275000Y-72150000I250000J0D01*
G01*
G37*
D16*
X159000000Y-55500000D03*
G36*
G01*
X158250000Y-52150000D02*
X159750000Y-52150000D01*
G75*
G02*
X160000000Y-52400000I0J-250000D01*
G01*
X160000000Y-53600000D01*
G75*
G02*
X159750000Y-53850000I-250000J0D01*
G01*
X158250000Y-53850000D01*
G75*
G02*
X158000000Y-53600000I0J250000D01*
G01*
X158000000Y-52400000D01*
G75*
G02*
X158250000Y-52150000I250000J0D01*
G01*
G37*
D20*
X170000000Y-54000000D03*
D21*
X172400000Y-54000000D03*
X171697056Y-55697056D03*
X170000000Y-56400000D03*
X168302944Y-55697056D03*
X167600000Y-54000000D03*
X168302944Y-52302944D03*
X170000000Y-51600000D03*
X171697056Y-52302944D03*
D20*
X170000000Y-134000000D03*
D21*
X172400000Y-134000000D03*
X171697056Y-135697056D03*
X170000000Y-136400000D03*
X168302944Y-135697056D03*
X167600000Y-134000000D03*
X168302944Y-132302944D03*
X170000000Y-131600000D03*
X171697056Y-132302944D03*
D20*
X54000000Y-54000000D03*
D21*
X56400000Y-54000000D03*
X55697056Y-55697056D03*
X54000000Y-56400000D03*
X52302944Y-55697056D03*
X51600000Y-54000000D03*
X52302944Y-52302944D03*
X54000000Y-51600000D03*
X55697056Y-52302944D03*
D20*
X54000000Y-134000000D03*
D21*
X56400000Y-134000000D03*
X55697056Y-135697056D03*
X54000000Y-136400000D03*
X52302944Y-135697056D03*
X51600000Y-134000000D03*
X52302944Y-132302944D03*
X54000000Y-131600000D03*
X55697056Y-132302944D03*
D22*
G36*
X76850000Y-112319398D02*
G01*
X76825466Y-112319398D01*
X76776635Y-112314588D01*
X76728510Y-112305016D01*
X76681555Y-112290772D01*
X76636222Y-112271995D01*
X76592949Y-112248864D01*
X76552150Y-112221604D01*
X76514221Y-112190476D01*
X76479524Y-112155779D01*
X76448396Y-112117850D01*
X76421136Y-112077051D01*
X76398005Y-112033778D01*
X76379228Y-111988445D01*
X76364984Y-111941490D01*
X76355412Y-111893365D01*
X76350602Y-111844534D01*
X76350602Y-111820000D01*
X76350000Y-111820000D01*
X76350000Y-111320000D01*
X76350602Y-111320000D01*
X76350602Y-111295466D01*
X76355412Y-111246635D01*
X76364984Y-111198510D01*
X76379228Y-111151555D01*
X76398005Y-111106222D01*
X76421136Y-111062949D01*
X76448396Y-111022150D01*
X76479524Y-110984221D01*
X76514221Y-110949524D01*
X76552150Y-110918396D01*
X76592949Y-110891136D01*
X76636222Y-110868005D01*
X76681555Y-110849228D01*
X76728510Y-110834984D01*
X76776635Y-110825412D01*
X76825466Y-110820602D01*
X76850000Y-110820602D01*
X76850000Y-110820000D01*
X77350000Y-110820000D01*
X77350000Y-112320000D01*
X76850000Y-112320000D01*
X76850000Y-112319398D01*
G37*
G36*
X77650000Y-110820000D02*
G01*
X78150000Y-110820000D01*
X78150000Y-110820602D01*
X78174534Y-110820602D01*
X78223365Y-110825412D01*
X78271490Y-110834984D01*
X78318445Y-110849228D01*
X78363778Y-110868005D01*
X78407051Y-110891136D01*
X78447850Y-110918396D01*
X78485779Y-110949524D01*
X78520476Y-110984221D01*
X78551604Y-111022150D01*
X78578864Y-111062949D01*
X78601995Y-111106222D01*
X78620772Y-111151555D01*
X78635016Y-111198510D01*
X78644588Y-111246635D01*
X78649398Y-111295466D01*
X78649398Y-111320000D01*
X78650000Y-111320000D01*
X78650000Y-111820000D01*
X78649398Y-111820000D01*
X78649398Y-111844534D01*
X78644588Y-111893365D01*
X78635016Y-111941490D01*
X78620772Y-111988445D01*
X78601995Y-112033778D01*
X78578864Y-112077051D01*
X78551604Y-112117850D01*
X78520476Y-112155779D01*
X78485779Y-112190476D01*
X78447850Y-112221604D01*
X78407051Y-112248864D01*
X78363778Y-112271995D01*
X78318445Y-112290772D01*
X78271490Y-112305016D01*
X78223365Y-112314588D01*
X78174534Y-112319398D01*
X78150000Y-112319398D01*
X78150000Y-112320000D01*
X77650000Y-112320000D01*
X77650000Y-110820000D01*
G37*
G36*
X76850000Y-114859398D02*
G01*
X76825466Y-114859398D01*
X76776635Y-114854588D01*
X76728510Y-114845016D01*
X76681555Y-114830772D01*
X76636222Y-114811995D01*
X76592949Y-114788864D01*
X76552150Y-114761604D01*
X76514221Y-114730476D01*
X76479524Y-114695779D01*
X76448396Y-114657850D01*
X76421136Y-114617051D01*
X76398005Y-114573778D01*
X76379228Y-114528445D01*
X76364984Y-114481490D01*
X76355412Y-114433365D01*
X76350602Y-114384534D01*
X76350602Y-114360000D01*
X76350000Y-114360000D01*
X76350000Y-113860000D01*
X76350602Y-113860000D01*
X76350602Y-113835466D01*
X76355412Y-113786635D01*
X76364984Y-113738510D01*
X76379228Y-113691555D01*
X76398005Y-113646222D01*
X76421136Y-113602949D01*
X76448396Y-113562150D01*
X76479524Y-113524221D01*
X76514221Y-113489524D01*
X76552150Y-113458396D01*
X76592949Y-113431136D01*
X76636222Y-113408005D01*
X76681555Y-113389228D01*
X76728510Y-113374984D01*
X76776635Y-113365412D01*
X76825466Y-113360602D01*
X76850000Y-113360602D01*
X76850000Y-113360000D01*
X77350000Y-113360000D01*
X77350000Y-114860000D01*
X76850000Y-114860000D01*
X76850000Y-114859398D01*
G37*
G36*
X77650000Y-113360000D02*
G01*
X78150000Y-113360000D01*
X78150000Y-113360602D01*
X78174534Y-113360602D01*
X78223365Y-113365412D01*
X78271490Y-113374984D01*
X78318445Y-113389228D01*
X78363778Y-113408005D01*
X78407051Y-113431136D01*
X78447850Y-113458396D01*
X78485779Y-113489524D01*
X78520476Y-113524221D01*
X78551604Y-113562150D01*
X78578864Y-113602949D01*
X78601995Y-113646222D01*
X78620772Y-113691555D01*
X78635016Y-113738510D01*
X78644588Y-113786635D01*
X78649398Y-113835466D01*
X78649398Y-113860000D01*
X78650000Y-113860000D01*
X78650000Y-114360000D01*
X78649398Y-114360000D01*
X78649398Y-114384534D01*
X78644588Y-114433365D01*
X78635016Y-114481490D01*
X78620772Y-114528445D01*
X78601995Y-114573778D01*
X78578864Y-114617051D01*
X78551604Y-114657850D01*
X78520476Y-114695779D01*
X78485779Y-114730476D01*
X78447850Y-114761604D01*
X78407051Y-114788864D01*
X78363778Y-114811995D01*
X78318445Y-114830772D01*
X78271490Y-114845016D01*
X78223365Y-114854588D01*
X78174534Y-114859398D01*
X78150000Y-114859398D01*
X78150000Y-114860000D01*
X77650000Y-114860000D01*
X77650000Y-113360000D01*
G37*
G36*
X76850000Y-117399398D02*
G01*
X76825466Y-117399398D01*
X76776635Y-117394588D01*
X76728510Y-117385016D01*
X76681555Y-117370772D01*
X76636222Y-117351995D01*
X76592949Y-117328864D01*
X76552150Y-117301604D01*
X76514221Y-117270476D01*
X76479524Y-117235779D01*
X76448396Y-117197850D01*
X76421136Y-117157051D01*
X76398005Y-117113778D01*
X76379228Y-117068445D01*
X76364984Y-117021490D01*
X76355412Y-116973365D01*
X76350602Y-116924534D01*
X76350602Y-116900000D01*
X76350000Y-116900000D01*
X76350000Y-116400000D01*
X76350602Y-116400000D01*
X76350602Y-116375466D01*
X76355412Y-116326635D01*
X76364984Y-116278510D01*
X76379228Y-116231555D01*
X76398005Y-116186222D01*
X76421136Y-116142949D01*
X76448396Y-116102150D01*
X76479524Y-116064221D01*
X76514221Y-116029524D01*
X76552150Y-115998396D01*
X76592949Y-115971136D01*
X76636222Y-115948005D01*
X76681555Y-115929228D01*
X76728510Y-115914984D01*
X76776635Y-115905412D01*
X76825466Y-115900602D01*
X76850000Y-115900602D01*
X76850000Y-115900000D01*
X77350000Y-115900000D01*
X77350000Y-117400000D01*
X76850000Y-117400000D01*
X76850000Y-117399398D01*
G37*
G36*
X77650000Y-115900000D02*
G01*
X78150000Y-115900000D01*
X78150000Y-115900602D01*
X78174534Y-115900602D01*
X78223365Y-115905412D01*
X78271490Y-115914984D01*
X78318445Y-115929228D01*
X78363778Y-115948005D01*
X78407051Y-115971136D01*
X78447850Y-115998396D01*
X78485779Y-116029524D01*
X78520476Y-116064221D01*
X78551604Y-116102150D01*
X78578864Y-116142949D01*
X78601995Y-116186222D01*
X78620772Y-116231555D01*
X78635016Y-116278510D01*
X78644588Y-116326635D01*
X78649398Y-116375466D01*
X78649398Y-116400000D01*
X78650000Y-116400000D01*
X78650000Y-116900000D01*
X78649398Y-116900000D01*
X78649398Y-116924534D01*
X78644588Y-116973365D01*
X78635016Y-117021490D01*
X78620772Y-117068445D01*
X78601995Y-117113778D01*
X78578864Y-117157051D01*
X78551604Y-117197850D01*
X78520476Y-117235779D01*
X78485779Y-117270476D01*
X78447850Y-117301604D01*
X78407051Y-117328864D01*
X78363778Y-117351995D01*
X78318445Y-117370772D01*
X78271490Y-117385016D01*
X78223365Y-117394588D01*
X78174534Y-117399398D01*
X78150000Y-117399398D01*
X78150000Y-117400000D01*
X77650000Y-117400000D01*
X77650000Y-115900000D01*
G37*
G36*
X76850000Y-119939398D02*
G01*
X76825466Y-119939398D01*
X76776635Y-119934588D01*
X76728510Y-119925016D01*
X76681555Y-119910772D01*
X76636222Y-119891995D01*
X76592949Y-119868864D01*
X76552150Y-119841604D01*
X76514221Y-119810476D01*
X76479524Y-119775779D01*
X76448396Y-119737850D01*
X76421136Y-119697051D01*
X76398005Y-119653778D01*
X76379228Y-119608445D01*
X76364984Y-119561490D01*
X76355412Y-119513365D01*
X76350602Y-119464534D01*
X76350602Y-119440000D01*
X76350000Y-119440000D01*
X76350000Y-118940000D01*
X76350602Y-118940000D01*
X76350602Y-118915466D01*
X76355412Y-118866635D01*
X76364984Y-118818510D01*
X76379228Y-118771555D01*
X76398005Y-118726222D01*
X76421136Y-118682949D01*
X76448396Y-118642150D01*
X76479524Y-118604221D01*
X76514221Y-118569524D01*
X76552150Y-118538396D01*
X76592949Y-118511136D01*
X76636222Y-118488005D01*
X76681555Y-118469228D01*
X76728510Y-118454984D01*
X76776635Y-118445412D01*
X76825466Y-118440602D01*
X76850000Y-118440602D01*
X76850000Y-118440000D01*
X77350000Y-118440000D01*
X77350000Y-119940000D01*
X76850000Y-119940000D01*
X76850000Y-119939398D01*
G37*
G36*
X77650000Y-118440000D02*
G01*
X78150000Y-118440000D01*
X78150000Y-118440602D01*
X78174534Y-118440602D01*
X78223365Y-118445412D01*
X78271490Y-118454984D01*
X78318445Y-118469228D01*
X78363778Y-118488005D01*
X78407051Y-118511136D01*
X78447850Y-118538396D01*
X78485779Y-118569524D01*
X78520476Y-118604221D01*
X78551604Y-118642150D01*
X78578864Y-118682949D01*
X78601995Y-118726222D01*
X78620772Y-118771555D01*
X78635016Y-118818510D01*
X78644588Y-118866635D01*
X78649398Y-118915466D01*
X78649398Y-118940000D01*
X78650000Y-118940000D01*
X78650000Y-119440000D01*
X78649398Y-119440000D01*
X78649398Y-119464534D01*
X78644588Y-119513365D01*
X78635016Y-119561490D01*
X78620772Y-119608445D01*
X78601995Y-119653778D01*
X78578864Y-119697051D01*
X78551604Y-119737850D01*
X78520476Y-119775779D01*
X78485779Y-119810476D01*
X78447850Y-119841604D01*
X78407051Y-119868864D01*
X78363778Y-119891995D01*
X78318445Y-119910772D01*
X78271490Y-119925016D01*
X78223365Y-119934588D01*
X78174534Y-119939398D01*
X78150000Y-119939398D01*
X78150000Y-119940000D01*
X77650000Y-119940000D01*
X77650000Y-118440000D01*
G37*
G36*
X76850000Y-127559398D02*
G01*
X76825466Y-127559398D01*
X76776635Y-127554588D01*
X76728510Y-127545016D01*
X76681555Y-127530772D01*
X76636222Y-127511995D01*
X76592949Y-127488864D01*
X76552150Y-127461604D01*
X76514221Y-127430476D01*
X76479524Y-127395779D01*
X76448396Y-127357850D01*
X76421136Y-127317051D01*
X76398005Y-127273778D01*
X76379228Y-127228445D01*
X76364984Y-127181490D01*
X76355412Y-127133365D01*
X76350602Y-127084534D01*
X76350602Y-127060000D01*
X76350000Y-127060000D01*
X76350000Y-126560000D01*
X76350602Y-126560000D01*
X76350602Y-126535466D01*
X76355412Y-126486635D01*
X76364984Y-126438510D01*
X76379228Y-126391555D01*
X76398005Y-126346222D01*
X76421136Y-126302949D01*
X76448396Y-126262150D01*
X76479524Y-126224221D01*
X76514221Y-126189524D01*
X76552150Y-126158396D01*
X76592949Y-126131136D01*
X76636222Y-126108005D01*
X76681555Y-126089228D01*
X76728510Y-126074984D01*
X76776635Y-126065412D01*
X76825466Y-126060602D01*
X76850000Y-126060602D01*
X76850000Y-126060000D01*
X77350000Y-126060000D01*
X77350000Y-127560000D01*
X76850000Y-127560000D01*
X76850000Y-127559398D01*
G37*
G36*
X77650000Y-126060000D02*
G01*
X78150000Y-126060000D01*
X78150000Y-126060602D01*
X78174534Y-126060602D01*
X78223365Y-126065412D01*
X78271490Y-126074984D01*
X78318445Y-126089228D01*
X78363778Y-126108005D01*
X78407051Y-126131136D01*
X78447850Y-126158396D01*
X78485779Y-126189524D01*
X78520476Y-126224221D01*
X78551604Y-126262150D01*
X78578864Y-126302949D01*
X78601995Y-126346222D01*
X78620772Y-126391555D01*
X78635016Y-126438510D01*
X78644588Y-126486635D01*
X78649398Y-126535466D01*
X78649398Y-126560000D01*
X78650000Y-126560000D01*
X78650000Y-127060000D01*
X78649398Y-127060000D01*
X78649398Y-127084534D01*
X78644588Y-127133365D01*
X78635016Y-127181490D01*
X78620772Y-127228445D01*
X78601995Y-127273778D01*
X78578864Y-127317051D01*
X78551604Y-127357850D01*
X78520476Y-127395779D01*
X78485779Y-127430476D01*
X78447850Y-127461604D01*
X78407051Y-127488864D01*
X78363778Y-127511995D01*
X78318445Y-127530772D01*
X78271490Y-127545016D01*
X78223365Y-127554588D01*
X78174534Y-127559398D01*
X78150000Y-127559398D01*
X78150000Y-127560000D01*
X77650000Y-127560000D01*
X77650000Y-126060000D01*
G37*
G36*
X76850001Y-130099398D02*
G01*
X76825467Y-130099398D01*
X76776636Y-130094588D01*
X76728511Y-130085016D01*
X76681556Y-130070772D01*
X76636223Y-130051995D01*
X76592950Y-130028864D01*
X76552151Y-130001604D01*
X76514222Y-129970476D01*
X76479525Y-129935779D01*
X76448397Y-129897850D01*
X76421137Y-129857051D01*
X76398006Y-129813778D01*
X76379229Y-129768445D01*
X76364985Y-129721490D01*
X76355413Y-129673365D01*
X76350603Y-129624534D01*
X76350603Y-129600000D01*
X76350001Y-129600000D01*
X76350001Y-129100000D01*
X76350603Y-129100000D01*
X76350603Y-129075466D01*
X76355413Y-129026635D01*
X76364985Y-128978510D01*
X76379229Y-128931555D01*
X76398006Y-128886222D01*
X76421137Y-128842949D01*
X76448397Y-128802150D01*
X76479525Y-128764221D01*
X76514222Y-128729524D01*
X76552151Y-128698396D01*
X76592950Y-128671136D01*
X76636223Y-128648005D01*
X76681556Y-128629228D01*
X76728511Y-128614984D01*
X76776636Y-128605412D01*
X76825467Y-128600602D01*
X76850001Y-128600602D01*
X76850001Y-128600000D01*
X77350001Y-128600000D01*
X77350001Y-130100000D01*
X76850001Y-130100000D01*
X76850001Y-130099398D01*
G37*
G36*
X77650001Y-128600000D02*
G01*
X78150001Y-128600000D01*
X78150001Y-128600602D01*
X78174535Y-128600602D01*
X78223366Y-128605412D01*
X78271491Y-128614984D01*
X78318446Y-128629228D01*
X78363779Y-128648005D01*
X78407052Y-128671136D01*
X78447851Y-128698396D01*
X78485780Y-128729524D01*
X78520477Y-128764221D01*
X78551605Y-128802150D01*
X78578865Y-128842949D01*
X78601996Y-128886222D01*
X78620773Y-128931555D01*
X78635017Y-128978510D01*
X78644589Y-129026635D01*
X78649399Y-129075466D01*
X78649399Y-129100000D01*
X78650001Y-129100000D01*
X78650001Y-129600000D01*
X78649399Y-129600000D01*
X78649399Y-129624534D01*
X78644589Y-129673365D01*
X78635017Y-129721490D01*
X78620773Y-129768445D01*
X78601996Y-129813778D01*
X78578865Y-129857051D01*
X78551605Y-129897850D01*
X78520477Y-129935779D01*
X78485780Y-129970476D01*
X78447851Y-130001604D01*
X78407052Y-130028864D01*
X78363779Y-130051995D01*
X78318446Y-130070772D01*
X78271491Y-130085016D01*
X78223366Y-130094588D01*
X78174535Y-130099398D01*
X78150001Y-130099398D01*
X78150001Y-130100000D01*
X77650001Y-130100000D01*
X77650001Y-128600000D01*
G37*
G36*
X76850000Y-132639398D02*
G01*
X76825466Y-132639398D01*
X76776635Y-132634588D01*
X76728510Y-132625016D01*
X76681555Y-132610772D01*
X76636222Y-132591995D01*
X76592949Y-132568864D01*
X76552150Y-132541604D01*
X76514221Y-132510476D01*
X76479524Y-132475779D01*
X76448396Y-132437850D01*
X76421136Y-132397051D01*
X76398005Y-132353778D01*
X76379228Y-132308445D01*
X76364984Y-132261490D01*
X76355412Y-132213365D01*
X76350602Y-132164534D01*
X76350602Y-132140000D01*
X76350000Y-132140000D01*
X76350000Y-131640000D01*
X76350602Y-131640000D01*
X76350602Y-131615466D01*
X76355412Y-131566635D01*
X76364984Y-131518510D01*
X76379228Y-131471555D01*
X76398005Y-131426222D01*
X76421136Y-131382949D01*
X76448396Y-131342150D01*
X76479524Y-131304221D01*
X76514221Y-131269524D01*
X76552150Y-131238396D01*
X76592949Y-131211136D01*
X76636222Y-131188005D01*
X76681555Y-131169228D01*
X76728510Y-131154984D01*
X76776635Y-131145412D01*
X76825466Y-131140602D01*
X76850000Y-131140602D01*
X76850000Y-131140000D01*
X77350000Y-131140000D01*
X77350000Y-132640000D01*
X76850000Y-132640000D01*
X76850000Y-132639398D01*
G37*
G36*
X77650000Y-131140000D02*
G01*
X78150000Y-131140000D01*
X78150000Y-131140602D01*
X78174534Y-131140602D01*
X78223365Y-131145412D01*
X78271490Y-131154984D01*
X78318445Y-131169228D01*
X78363778Y-131188005D01*
X78407051Y-131211136D01*
X78447850Y-131238396D01*
X78485779Y-131269524D01*
X78520476Y-131304221D01*
X78551604Y-131342150D01*
X78578864Y-131382949D01*
X78601995Y-131426222D01*
X78620772Y-131471555D01*
X78635016Y-131518510D01*
X78644588Y-131566635D01*
X78649398Y-131615466D01*
X78649398Y-131640000D01*
X78650000Y-131640000D01*
X78650000Y-132140000D01*
X78649398Y-132140000D01*
X78649398Y-132164534D01*
X78644588Y-132213365D01*
X78635016Y-132261490D01*
X78620772Y-132308445D01*
X78601995Y-132353778D01*
X78578864Y-132397051D01*
X78551604Y-132437850D01*
X78520476Y-132475779D01*
X78485779Y-132510476D01*
X78447850Y-132541604D01*
X78407051Y-132568864D01*
X78363778Y-132591995D01*
X78318445Y-132610772D01*
X78271490Y-132625016D01*
X78223365Y-132634588D01*
X78174534Y-132639398D01*
X78150000Y-132639398D01*
X78150000Y-132640000D01*
X77650000Y-132640000D01*
X77650000Y-131140000D01*
G37*
G36*
X76850000Y-135179398D02*
G01*
X76825466Y-135179398D01*
X76776635Y-135174588D01*
X76728510Y-135165016D01*
X76681555Y-135150772D01*
X76636222Y-135131995D01*
X76592949Y-135108864D01*
X76552150Y-135081604D01*
X76514221Y-135050476D01*
X76479524Y-135015779D01*
X76448396Y-134977850D01*
X76421136Y-134937051D01*
X76398005Y-134893778D01*
X76379228Y-134848445D01*
X76364984Y-134801490D01*
X76355412Y-134753365D01*
X76350602Y-134704534D01*
X76350602Y-134680000D01*
X76350000Y-134680000D01*
X76350000Y-134180000D01*
X76350602Y-134180000D01*
X76350602Y-134155466D01*
X76355412Y-134106635D01*
X76364984Y-134058510D01*
X76379228Y-134011555D01*
X76398005Y-133966222D01*
X76421136Y-133922949D01*
X76448396Y-133882150D01*
X76479524Y-133844221D01*
X76514221Y-133809524D01*
X76552150Y-133778396D01*
X76592949Y-133751136D01*
X76636222Y-133728005D01*
X76681555Y-133709228D01*
X76728510Y-133694984D01*
X76776635Y-133685412D01*
X76825466Y-133680602D01*
X76850000Y-133680602D01*
X76850000Y-133680000D01*
X77350000Y-133680000D01*
X77350000Y-135180000D01*
X76850000Y-135180000D01*
X76850000Y-135179398D01*
G37*
G36*
X77650000Y-133680000D02*
G01*
X78150000Y-133680000D01*
X78150000Y-133680602D01*
X78174534Y-133680602D01*
X78223365Y-133685412D01*
X78271490Y-133694984D01*
X78318445Y-133709228D01*
X78363778Y-133728005D01*
X78407051Y-133751136D01*
X78447850Y-133778396D01*
X78485779Y-133809524D01*
X78520476Y-133844221D01*
X78551604Y-133882150D01*
X78578864Y-133922949D01*
X78601995Y-133966222D01*
X78620772Y-134011555D01*
X78635016Y-134058510D01*
X78644588Y-134106635D01*
X78649398Y-134155466D01*
X78649398Y-134180000D01*
X78650000Y-134180000D01*
X78650000Y-134680000D01*
X78649398Y-134680000D01*
X78649398Y-134704534D01*
X78644588Y-134753365D01*
X78635016Y-134801490D01*
X78620772Y-134848445D01*
X78601995Y-134893778D01*
X78578864Y-134937051D01*
X78551604Y-134977850D01*
X78520476Y-135015779D01*
X78485779Y-135050476D01*
X78447850Y-135081604D01*
X78407051Y-135108864D01*
X78363778Y-135131995D01*
X78318445Y-135150772D01*
X78271490Y-135165016D01*
X78223365Y-135174588D01*
X78174534Y-135179398D01*
X78150000Y-135179398D01*
X78150000Y-135180000D01*
X77650000Y-135180000D01*
X77650000Y-133680000D01*
G37*
D23*
X108392388Y-114607612D03*
G36*
G01*
X103230509Y-117931013D02*
X104786143Y-116375379D01*
G75*
G02*
X106624621Y-116375379I919239J-919239D01*
G01*
X106624621Y-116375379D01*
G75*
G02*
X106624621Y-118213857I-919239J-919239D01*
G01*
X105068987Y-119769491D01*
G75*
G02*
X103230509Y-119769491I-919239J919239D01*
G01*
X103230509Y-119769491D01*
G75*
G02*
X103230509Y-117931013I919239J919239D01*
G01*
G37*
G36*
G01*
X88381267Y-132780255D02*
X89936901Y-131224621D01*
G75*
G02*
X91775379Y-131224621I919239J-919239D01*
G01*
X91775379Y-131224621D01*
G75*
G02*
X91775379Y-133063099I-919239J-919239D01*
G01*
X90219745Y-134618733D01*
G75*
G02*
X88381267Y-134618733I-919239J919239D01*
G01*
X88381267Y-134618733D01*
G75*
G02*
X88381267Y-132780255I919239J919239D01*
G01*
G37*
G36*
G01*
X116200000Y-120800000D02*
X115400000Y-120800000D01*
G75*
G02*
X115000000Y-120400000I0J400000D01*
G01*
X115000000Y-119600000D01*
G75*
G02*
X115400000Y-119200000I400000J0D01*
G01*
X116200000Y-119200000D01*
G75*
G02*
X116600000Y-119600000I0J-400000D01*
G01*
X116600000Y-120400000D01*
G75*
G02*
X116200000Y-120800000I-400000J0D01*
G01*
G37*
D16*
X168000000Y-65500000D03*
G36*
G01*
X167250000Y-62150000D02*
X168750000Y-62150000D01*
G75*
G02*
X169000000Y-62400000I0J-250000D01*
G01*
X169000000Y-63600000D01*
G75*
G02*
X168750000Y-63850000I-250000J0D01*
G01*
X167250000Y-63850000D01*
G75*
G02*
X167000000Y-63600000I0J250000D01*
G01*
X167000000Y-62400000D01*
G75*
G02*
X167250000Y-62150000I250000J0D01*
G01*
G37*
X150000000Y-65500000D03*
G36*
G01*
X149250000Y-62150000D02*
X150750000Y-62150000D01*
G75*
G02*
X151000000Y-62400000I0J-250000D01*
G01*
X151000000Y-63600000D01*
G75*
G02*
X150750000Y-63850000I-250000J0D01*
G01*
X149250000Y-63850000D01*
G75*
G02*
X149000000Y-63600000I0J250000D01*
G01*
X149000000Y-62400000D01*
G75*
G02*
X149250000Y-62150000I250000J0D01*
G01*
G37*
D24*
X83000000Y-124270000D03*
X83000000Y-121730000D03*
X83000000Y-119190000D03*
X83000000Y-116650000D03*
X83000000Y-114110000D03*
X83000000Y-111570000D03*
X83000000Y-126810000D03*
X83000000Y-129350000D03*
X83000000Y-131890000D03*
X83000000Y-134430000D03*
D25*
X70554000Y-134430000D03*
X70554000Y-111570000D03*
D16*
X87250000Y-110250000D03*
G36*
G01*
X88000000Y-113600000D02*
X86500000Y-113600000D01*
G75*
G02*
X86250000Y-113350000I0J250000D01*
G01*
X86250000Y-112150000D01*
G75*
G02*
X86500000Y-111900000I250000J0D01*
G01*
X88000000Y-111900000D01*
G75*
G02*
X88250000Y-112150000I0J-250000D01*
G01*
X88250000Y-113350000D01*
G75*
G02*
X88000000Y-113600000I-250000J0D01*
G01*
G37*
D17*
X168000000Y-80500000D03*
X168000000Y-78000000D03*
X168000000Y-75500000D03*
G36*
G01*
X167275000Y-72150000D02*
X168725000Y-72150000D01*
G75*
G02*
X168975000Y-72400000I0J-250000D01*
G01*
X168975000Y-73600000D01*
G75*
G02*
X168725000Y-73850000I-250000J0D01*
G01*
X167275000Y-73850000D01*
G75*
G02*
X167025000Y-73600000I0J250000D01*
G01*
X167025000Y-72400000D01*
G75*
G02*
X167275000Y-72150000I250000J0D01*
G01*
G37*
X141000000Y-58000000D03*
X141000000Y-55500000D03*
G36*
G01*
X140275000Y-52150000D02*
X141725000Y-52150000D01*
G75*
G02*
X141975000Y-52400000I0J-250000D01*
G01*
X141975000Y-53600000D01*
G75*
G02*
X141725000Y-53850000I-250000J0D01*
G01*
X140275000Y-53850000D01*
G75*
G02*
X140025000Y-53600000I0J250000D01*
G01*
X140025000Y-52400000D01*
G75*
G02*
X140275000Y-52150000I250000J0D01*
G01*
G37*
D22*
G36*
X100501165Y-131598374D02*
G01*
X100502000Y-131600000D01*
X100502000Y-131656360D01*
X100501990Y-131656556D01*
X100490109Y-131777195D01*
X100490033Y-131777580D01*
X100456635Y-131887676D01*
X100456485Y-131888038D01*
X100402250Y-131989503D01*
X100402032Y-131989829D01*
X100329044Y-132078767D01*
X100328767Y-132079044D01*
X100239829Y-132152032D01*
X100239503Y-132152250D01*
X100138038Y-132206485D01*
X100137676Y-132206635D01*
X100027580Y-132240033D01*
X100027195Y-132240109D01*
X99906556Y-132251990D01*
X99906360Y-132252000D01*
X99850000Y-132252000D01*
X99848268Y-132251000D01*
X99848268Y-132249000D01*
X99849804Y-132248010D01*
X99976414Y-132235540D01*
X100097975Y-132198665D01*
X100210005Y-132138784D01*
X100308198Y-132058198D01*
X100388784Y-131960005D01*
X100448665Y-131847975D01*
X100485540Y-131726414D01*
X100498010Y-131599804D01*
X100499175Y-131598178D01*
X100501165Y-131598374D01*
G37*
G36*
X97901990Y-131599804D02*
G01*
X97914460Y-131726414D01*
X97951335Y-131847975D01*
X98011216Y-131960005D01*
X98091802Y-132058198D01*
X98189995Y-132138784D01*
X98302025Y-132198665D01*
X98423586Y-132235540D01*
X98550196Y-132248010D01*
X98551822Y-132249175D01*
X98551626Y-132251165D01*
X98550000Y-132252000D01*
X98493640Y-132252000D01*
X98493444Y-132251990D01*
X98372805Y-132240109D01*
X98372420Y-132240033D01*
X98262324Y-132206635D01*
X98261962Y-132206485D01*
X98160497Y-132152250D01*
X98160171Y-132152032D01*
X98071233Y-132079044D01*
X98070956Y-132078767D01*
X97997968Y-131989829D01*
X97997750Y-131989503D01*
X97943515Y-131888038D01*
X97943365Y-131887676D01*
X97909967Y-131777580D01*
X97909891Y-131777195D01*
X97898010Y-131656556D01*
X97898000Y-131656360D01*
X97898000Y-131600000D01*
X97899000Y-131598268D01*
X97901000Y-131598268D01*
X97901990Y-131599804D01*
G37*
G36*
X98551732Y-128349000D02*
G01*
X98551732Y-128351000D01*
X98550196Y-128351990D01*
X98423586Y-128364460D01*
X98302025Y-128401335D01*
X98189995Y-128461216D01*
X98091802Y-128541802D01*
X98011216Y-128639995D01*
X97951335Y-128752025D01*
X97914460Y-128873586D01*
X97901990Y-129000196D01*
X97900825Y-129001822D01*
X97898835Y-129001626D01*
X97898000Y-129000000D01*
X97898000Y-128943640D01*
X97898010Y-128943444D01*
X97909891Y-128822805D01*
X97909967Y-128822420D01*
X97943365Y-128712324D01*
X97943515Y-128711962D01*
X97997750Y-128610497D01*
X97997968Y-128610171D01*
X98070956Y-128521233D01*
X98071233Y-128520956D01*
X98160171Y-128447968D01*
X98160497Y-128447750D01*
X98261962Y-128393515D01*
X98262324Y-128393365D01*
X98372420Y-128359967D01*
X98372805Y-128359891D01*
X98493444Y-128348010D01*
X98493640Y-128348000D01*
X98550000Y-128348000D01*
X98551732Y-128349000D01*
G37*
G36*
X99906556Y-128348010D02*
G01*
X100027195Y-128359891D01*
X100027580Y-128359967D01*
X100137676Y-128393365D01*
X100138038Y-128393515D01*
X100239503Y-128447750D01*
X100239829Y-128447968D01*
X100328767Y-128520956D01*
X100329044Y-128521233D01*
X100402032Y-128610171D01*
X100402250Y-128610497D01*
X100456485Y-128711962D01*
X100456635Y-128712324D01*
X100490033Y-128822420D01*
X100490109Y-128822805D01*
X100501990Y-128943444D01*
X100502000Y-128943640D01*
X100502000Y-129000000D01*
X100501000Y-129001732D01*
X100499000Y-129001732D01*
X100498010Y-129000196D01*
X100485540Y-128873586D01*
X100448665Y-128752025D01*
X100388784Y-128639995D01*
X100308198Y-128541802D01*
X100210005Y-128461216D01*
X100097975Y-128401335D01*
X99976414Y-128364460D01*
X99849804Y-128351990D01*
X99848178Y-128350825D01*
X99848374Y-128348835D01*
X99850000Y-128348000D01*
X99906360Y-128348000D01*
X99906556Y-128348010D01*
G37*
G36*
X141551165Y-128198374D02*
G01*
X141552000Y-128200000D01*
X141552000Y-128256360D01*
X141551990Y-128256556D01*
X141544912Y-128328419D01*
X141544836Y-128328804D01*
X141525664Y-128392004D01*
X141525514Y-128392366D01*
X141494380Y-128450615D01*
X141494162Y-128450941D01*
X141452267Y-128501990D01*
X141451990Y-128502267D01*
X141400941Y-128544162D01*
X141400615Y-128544380D01*
X141342366Y-128575514D01*
X141342004Y-128575664D01*
X141278804Y-128594836D01*
X141278419Y-128594912D01*
X141206556Y-128601990D01*
X141206360Y-128602000D01*
X141150000Y-128602000D01*
X141148268Y-128601000D01*
X141148268Y-128599000D01*
X141149804Y-128598010D01*
X141227641Y-128590344D01*
X141302304Y-128567695D01*
X141371112Y-128530917D01*
X141431422Y-128481422D01*
X141480917Y-128421112D01*
X141517695Y-128352304D01*
X141540344Y-128277641D01*
X141548010Y-128199804D01*
X141549175Y-128198178D01*
X141551165Y-128198374D01*
G37*
G36*
X165701990Y-128199804D02*
G01*
X165709656Y-128277641D01*
X165732305Y-128352304D01*
X165769083Y-128421112D01*
X165818578Y-128481422D01*
X165878888Y-128530917D01*
X165947696Y-128567695D01*
X166022359Y-128590344D01*
X166100196Y-128598010D01*
X166101822Y-128599175D01*
X166101626Y-128601165D01*
X166100000Y-128602000D01*
X166043640Y-128602000D01*
X166043444Y-128601990D01*
X165971581Y-128594912D01*
X165971196Y-128594836D01*
X165907996Y-128575664D01*
X165907634Y-128575514D01*
X165849385Y-128544380D01*
X165849059Y-128544162D01*
X165798010Y-128502267D01*
X165797733Y-128501990D01*
X165755838Y-128450941D01*
X165755620Y-128450615D01*
X165724486Y-128392366D01*
X165724336Y-128392004D01*
X165705164Y-128328804D01*
X165705088Y-128328419D01*
X165698010Y-128256556D01*
X165698000Y-128256360D01*
X165698000Y-128200000D01*
X165699000Y-128198268D01*
X165701000Y-128198268D01*
X165701990Y-128199804D01*
G37*
G36*
X139951990Y-128199804D02*
G01*
X139959656Y-128277641D01*
X139982305Y-128352304D01*
X140019083Y-128421112D01*
X140068578Y-128481422D01*
X140128888Y-128530917D01*
X140197696Y-128567695D01*
X140272359Y-128590344D01*
X140350196Y-128598010D01*
X140351822Y-128599175D01*
X140351626Y-128601165D01*
X140350000Y-128602000D01*
X140293640Y-128602000D01*
X140293444Y-128601990D01*
X140221581Y-128594912D01*
X140221196Y-128594836D01*
X140157996Y-128575664D01*
X140157634Y-128575514D01*
X140099385Y-128544380D01*
X140099059Y-128544162D01*
X140048010Y-128502267D01*
X140047733Y-128501990D01*
X140005838Y-128450941D01*
X140005620Y-128450615D01*
X139974486Y-128392366D01*
X139974336Y-128392004D01*
X139955164Y-128328804D01*
X139955088Y-128328419D01*
X139948010Y-128256556D01*
X139948000Y-128256360D01*
X139948000Y-128200000D01*
X139949000Y-128198268D01*
X139951000Y-128198268D01*
X139951990Y-128199804D01*
G37*
G36*
X167301165Y-128198374D02*
G01*
X167302000Y-128200000D01*
X167302000Y-128256360D01*
X167301990Y-128256556D01*
X167294912Y-128328419D01*
X167294836Y-128328804D01*
X167275664Y-128392004D01*
X167275514Y-128392366D01*
X167244380Y-128450615D01*
X167244162Y-128450941D01*
X167202267Y-128501990D01*
X167201990Y-128502267D01*
X167150941Y-128544162D01*
X167150615Y-128544380D01*
X167092366Y-128575514D01*
X167092004Y-128575664D01*
X167028804Y-128594836D01*
X167028419Y-128594912D01*
X166956556Y-128601990D01*
X166956360Y-128602000D01*
X166900000Y-128602000D01*
X166898268Y-128601000D01*
X166898268Y-128599000D01*
X166899804Y-128598010D01*
X166977641Y-128590344D01*
X167052304Y-128567695D01*
X167121112Y-128530917D01*
X167181422Y-128481422D01*
X167230917Y-128421112D01*
X167267695Y-128352304D01*
X167290344Y-128277641D01*
X167298010Y-128199804D01*
X167299175Y-128198178D01*
X167301165Y-128198374D01*
G37*
G36*
X140351732Y-126999000D02*
G01*
X140351732Y-127001000D01*
X140350196Y-127001990D01*
X140272359Y-127009656D01*
X140197696Y-127032305D01*
X140128888Y-127069083D01*
X140068578Y-127118578D01*
X140019083Y-127178888D01*
X139982305Y-127247696D01*
X139959656Y-127322359D01*
X139951990Y-127400196D01*
X139950825Y-127401822D01*
X139948835Y-127401626D01*
X139948000Y-127400000D01*
X139948000Y-127343640D01*
X139948010Y-127343444D01*
X139955088Y-127271581D01*
X139955164Y-127271196D01*
X139974336Y-127207996D01*
X139974486Y-127207634D01*
X140005620Y-127149385D01*
X140005838Y-127149059D01*
X140047733Y-127098010D01*
X140048010Y-127097733D01*
X140099059Y-127055838D01*
X140099385Y-127055620D01*
X140157634Y-127024486D01*
X140157996Y-127024336D01*
X140221196Y-127005164D01*
X140221581Y-127005088D01*
X140293444Y-126998010D01*
X140293640Y-126998000D01*
X140350000Y-126998000D01*
X140351732Y-126999000D01*
G37*
G36*
X166101732Y-126999000D02*
G01*
X166101732Y-127001000D01*
X166100196Y-127001990D01*
X166022359Y-127009656D01*
X165947696Y-127032305D01*
X165878888Y-127069083D01*
X165818578Y-127118578D01*
X165769083Y-127178888D01*
X165732305Y-127247696D01*
X165709656Y-127322359D01*
X165701990Y-127400196D01*
X165700825Y-127401822D01*
X165698835Y-127401626D01*
X165698000Y-127400000D01*
X165698000Y-127343640D01*
X165698010Y-127343444D01*
X165705088Y-127271581D01*
X165705164Y-127271196D01*
X165724336Y-127207996D01*
X165724486Y-127207634D01*
X165755620Y-127149385D01*
X165755838Y-127149059D01*
X165797733Y-127098010D01*
X165798010Y-127097733D01*
X165849059Y-127055838D01*
X165849385Y-127055620D01*
X165907634Y-127024486D01*
X165907996Y-127024336D01*
X165971196Y-127005164D01*
X165971581Y-127005088D01*
X166043444Y-126998010D01*
X166043640Y-126998000D01*
X166100000Y-126998000D01*
X166101732Y-126999000D01*
G37*
G36*
X166956556Y-126998010D02*
G01*
X167028419Y-127005088D01*
X167028804Y-127005164D01*
X167092004Y-127024336D01*
X167092366Y-127024486D01*
X167150615Y-127055620D01*
X167150941Y-127055838D01*
X167201990Y-127097733D01*
X167202267Y-127098010D01*
X167244162Y-127149059D01*
X167244380Y-127149385D01*
X167275514Y-127207634D01*
X167275664Y-127207996D01*
X167294836Y-127271196D01*
X167294912Y-127271581D01*
X167301990Y-127343444D01*
X167302000Y-127343640D01*
X167302000Y-127400000D01*
X167301000Y-127401732D01*
X167299000Y-127401732D01*
X167298010Y-127400196D01*
X167290344Y-127322359D01*
X167267695Y-127247696D01*
X167230917Y-127178888D01*
X167181422Y-127118578D01*
X167121112Y-127069083D01*
X167052304Y-127032305D01*
X166977641Y-127009656D01*
X166899804Y-127001990D01*
X166898178Y-127000825D01*
X166898374Y-126998835D01*
X166900000Y-126998000D01*
X166956360Y-126998000D01*
X166956556Y-126998010D01*
G37*
G36*
X141206556Y-126998010D02*
G01*
X141278419Y-127005088D01*
X141278804Y-127005164D01*
X141342004Y-127024336D01*
X141342366Y-127024486D01*
X141400615Y-127055620D01*
X141400941Y-127055838D01*
X141451990Y-127097733D01*
X141452267Y-127098010D01*
X141494162Y-127149059D01*
X141494380Y-127149385D01*
X141525514Y-127207634D01*
X141525664Y-127207996D01*
X141544836Y-127271196D01*
X141544912Y-127271581D01*
X141551990Y-127343444D01*
X141552000Y-127343640D01*
X141552000Y-127400000D01*
X141551000Y-127401732D01*
X141549000Y-127401732D01*
X141548010Y-127400196D01*
X141540344Y-127322359D01*
X141517695Y-127247696D01*
X141480917Y-127178888D01*
X141431422Y-127118578D01*
X141371112Y-127069083D01*
X141302304Y-127032305D01*
X141227641Y-127009656D01*
X141149804Y-127001990D01*
X141148178Y-127000825D01*
X141148374Y-126998835D01*
X141150000Y-126998000D01*
X141206360Y-126998000D01*
X141206556Y-126998010D01*
G37*
G36*
X165701990Y-125659804D02*
G01*
X165709656Y-125737641D01*
X165732305Y-125812304D01*
X165769083Y-125881112D01*
X165818578Y-125941422D01*
X165878888Y-125990917D01*
X165947696Y-126027695D01*
X166022359Y-126050344D01*
X166100196Y-126058010D01*
X166101822Y-126059175D01*
X166101626Y-126061165D01*
X166100000Y-126062000D01*
X166043640Y-126062000D01*
X166043444Y-126061990D01*
X165971581Y-126054912D01*
X165971196Y-126054836D01*
X165907996Y-126035664D01*
X165907634Y-126035514D01*
X165849385Y-126004380D01*
X165849059Y-126004162D01*
X165798010Y-125962267D01*
X165797733Y-125961990D01*
X165755838Y-125910941D01*
X165755620Y-125910615D01*
X165724486Y-125852366D01*
X165724336Y-125852004D01*
X165705164Y-125788804D01*
X165705088Y-125788419D01*
X165698010Y-125716556D01*
X165698000Y-125716360D01*
X165698000Y-125660000D01*
X165699000Y-125658268D01*
X165701000Y-125658268D01*
X165701990Y-125659804D01*
G37*
G36*
X167301165Y-125658374D02*
G01*
X167302000Y-125660000D01*
X167302000Y-125716360D01*
X167301990Y-125716556D01*
X167294912Y-125788419D01*
X167294836Y-125788804D01*
X167275664Y-125852004D01*
X167275514Y-125852366D01*
X167244380Y-125910615D01*
X167244162Y-125910941D01*
X167202267Y-125961990D01*
X167201990Y-125962267D01*
X167150941Y-126004162D01*
X167150615Y-126004380D01*
X167092366Y-126035514D01*
X167092004Y-126035664D01*
X167028804Y-126054836D01*
X167028419Y-126054912D01*
X166956556Y-126061990D01*
X166956360Y-126062000D01*
X166900000Y-126062000D01*
X166898268Y-126061000D01*
X166898268Y-126059000D01*
X166899804Y-126058010D01*
X166977641Y-126050344D01*
X167052304Y-126027695D01*
X167121112Y-125990917D01*
X167181422Y-125941422D01*
X167230917Y-125881112D01*
X167267695Y-125812304D01*
X167290344Y-125737641D01*
X167298010Y-125659804D01*
X167299175Y-125658178D01*
X167301165Y-125658374D01*
G37*
G36*
X166101732Y-124459000D02*
G01*
X166101732Y-124461000D01*
X166100196Y-124461990D01*
X166022359Y-124469656D01*
X165947696Y-124492305D01*
X165878888Y-124529083D01*
X165818578Y-124578578D01*
X165769083Y-124638888D01*
X165732305Y-124707696D01*
X165709656Y-124782359D01*
X165701990Y-124860196D01*
X165700825Y-124861822D01*
X165698835Y-124861626D01*
X165698000Y-124860000D01*
X165698000Y-124803640D01*
X165698010Y-124803444D01*
X165705088Y-124731581D01*
X165705164Y-124731196D01*
X165724336Y-124667996D01*
X165724486Y-124667634D01*
X165755620Y-124609385D01*
X165755838Y-124609059D01*
X165797733Y-124558010D01*
X165798010Y-124557733D01*
X165849059Y-124515838D01*
X165849385Y-124515620D01*
X165907634Y-124484486D01*
X165907996Y-124484336D01*
X165971196Y-124465164D01*
X165971581Y-124465088D01*
X166043444Y-124458010D01*
X166043640Y-124458000D01*
X166100000Y-124458000D01*
X166101732Y-124459000D01*
G37*
G36*
X166956556Y-124458010D02*
G01*
X167028419Y-124465088D01*
X167028804Y-124465164D01*
X167092004Y-124484336D01*
X167092366Y-124484486D01*
X167150615Y-124515620D01*
X167150941Y-124515838D01*
X167201990Y-124557733D01*
X167202267Y-124558010D01*
X167244162Y-124609059D01*
X167244380Y-124609385D01*
X167275514Y-124667634D01*
X167275664Y-124667996D01*
X167294836Y-124731196D01*
X167294912Y-124731581D01*
X167301990Y-124803444D01*
X167302000Y-124803640D01*
X167302000Y-124860000D01*
X167301000Y-124861732D01*
X167299000Y-124861732D01*
X167298010Y-124860196D01*
X167290344Y-124782359D01*
X167267695Y-124707696D01*
X167230917Y-124638888D01*
X167181422Y-124578578D01*
X167121112Y-124529083D01*
X167052304Y-124492305D01*
X166977641Y-124469656D01*
X166899804Y-124461990D01*
X166898178Y-124460825D01*
X166898374Y-124458835D01*
X166900000Y-124458000D01*
X166956360Y-124458000D01*
X166956556Y-124458010D01*
G37*
G36*
X141801165Y-123118374D02*
G01*
X141802000Y-123120000D01*
X141802000Y-123176360D01*
X141801990Y-123176556D01*
X141794912Y-123248419D01*
X141794836Y-123248804D01*
X141775664Y-123312004D01*
X141775514Y-123312366D01*
X141744380Y-123370615D01*
X141744162Y-123370941D01*
X141702267Y-123421990D01*
X141701990Y-123422267D01*
X141650941Y-123464162D01*
X141650615Y-123464380D01*
X141592366Y-123495514D01*
X141592004Y-123495664D01*
X141528804Y-123514836D01*
X141528419Y-123514912D01*
X141456556Y-123521990D01*
X141456360Y-123522000D01*
X141400000Y-123522000D01*
X141398268Y-123521000D01*
X141398268Y-123519000D01*
X141399804Y-123518010D01*
X141477641Y-123510344D01*
X141552304Y-123487695D01*
X141621112Y-123450917D01*
X141681422Y-123401422D01*
X141730917Y-123341112D01*
X141767695Y-123272304D01*
X141790344Y-123197641D01*
X141798010Y-123119804D01*
X141799175Y-123118178D01*
X141801165Y-123118374D01*
G37*
G36*
X165701990Y-123119804D02*
G01*
X165709656Y-123197641D01*
X165732305Y-123272304D01*
X165769083Y-123341112D01*
X165818578Y-123401422D01*
X165878888Y-123450917D01*
X165947696Y-123487695D01*
X166022359Y-123510344D01*
X166100196Y-123518010D01*
X166101822Y-123519175D01*
X166101626Y-123521165D01*
X166100000Y-123522000D01*
X166043640Y-123522000D01*
X166043444Y-123521990D01*
X165971581Y-123514912D01*
X165971196Y-123514836D01*
X165907996Y-123495664D01*
X165907634Y-123495514D01*
X165849385Y-123464380D01*
X165849059Y-123464162D01*
X165798010Y-123422267D01*
X165797733Y-123421990D01*
X165755838Y-123370941D01*
X165755620Y-123370615D01*
X165724486Y-123312366D01*
X165724336Y-123312004D01*
X165705164Y-123248804D01*
X165705088Y-123248419D01*
X165698010Y-123176556D01*
X165698000Y-123176360D01*
X165698000Y-123120000D01*
X165699000Y-123118268D01*
X165701000Y-123118268D01*
X165701990Y-123119804D01*
G37*
G36*
X167301165Y-123118374D02*
G01*
X167302000Y-123120000D01*
X167302000Y-123176360D01*
X167301990Y-123176556D01*
X167294912Y-123248419D01*
X167294836Y-123248804D01*
X167275664Y-123312004D01*
X167275514Y-123312366D01*
X167244380Y-123370615D01*
X167244162Y-123370941D01*
X167202267Y-123421990D01*
X167201990Y-123422267D01*
X167150941Y-123464162D01*
X167150615Y-123464380D01*
X167092366Y-123495514D01*
X167092004Y-123495664D01*
X167028804Y-123514836D01*
X167028419Y-123514912D01*
X166956556Y-123521990D01*
X166956360Y-123522000D01*
X166900000Y-123522000D01*
X166898268Y-123521000D01*
X166898268Y-123519000D01*
X166899804Y-123518010D01*
X166977641Y-123510344D01*
X167052304Y-123487695D01*
X167121112Y-123450917D01*
X167181422Y-123401422D01*
X167230917Y-123341112D01*
X167267695Y-123272304D01*
X167290344Y-123197641D01*
X167298010Y-123119804D01*
X167299175Y-123118178D01*
X167301165Y-123118374D01*
G37*
G36*
X140201990Y-123119804D02*
G01*
X140209656Y-123197641D01*
X140232305Y-123272304D01*
X140269083Y-123341112D01*
X140318578Y-123401422D01*
X140378888Y-123450917D01*
X140447696Y-123487695D01*
X140522359Y-123510344D01*
X140600196Y-123518010D01*
X140601822Y-123519175D01*
X140601626Y-123521165D01*
X140600000Y-123522000D01*
X140543640Y-123522000D01*
X140543444Y-123521990D01*
X140471581Y-123514912D01*
X140471196Y-123514836D01*
X140407996Y-123495664D01*
X140407634Y-123495514D01*
X140349385Y-123464380D01*
X140349059Y-123464162D01*
X140298010Y-123422267D01*
X140297733Y-123421990D01*
X140255838Y-123370941D01*
X140255620Y-123370615D01*
X140224486Y-123312366D01*
X140224336Y-123312004D01*
X140205164Y-123248804D01*
X140205088Y-123248419D01*
X140198010Y-123176556D01*
X140198000Y-123176360D01*
X140198000Y-123120000D01*
X140199000Y-123118268D01*
X140201000Y-123118268D01*
X140201990Y-123119804D01*
G37*
G36*
X86301165Y-122128374D02*
G01*
X86302000Y-122130000D01*
X86302000Y-122186360D01*
X86301990Y-122186556D01*
X86294912Y-122258419D01*
X86294836Y-122258804D01*
X86275664Y-122322004D01*
X86275514Y-122322366D01*
X86244380Y-122380615D01*
X86244162Y-122380941D01*
X86202267Y-122431990D01*
X86201990Y-122432267D01*
X86150941Y-122474162D01*
X86150615Y-122474380D01*
X86092366Y-122505514D01*
X86092004Y-122505664D01*
X86028804Y-122524836D01*
X86028419Y-122524912D01*
X85956556Y-122531990D01*
X85956360Y-122532000D01*
X85900000Y-122532000D01*
X85898268Y-122531000D01*
X85898268Y-122529000D01*
X85899804Y-122528010D01*
X85977641Y-122520344D01*
X86052304Y-122497695D01*
X86121112Y-122460917D01*
X86181422Y-122411422D01*
X86230917Y-122351112D01*
X86267695Y-122282304D01*
X86290344Y-122207641D01*
X86298010Y-122129804D01*
X86299175Y-122128178D01*
X86301165Y-122128374D01*
G37*
G36*
X84701990Y-122129804D02*
G01*
X84709656Y-122207641D01*
X84732305Y-122282304D01*
X84769083Y-122351112D01*
X84818578Y-122411422D01*
X84878888Y-122460917D01*
X84947696Y-122497695D01*
X85022359Y-122520344D01*
X85100196Y-122528010D01*
X85101822Y-122529175D01*
X85101626Y-122531165D01*
X85100000Y-122532000D01*
X85043640Y-122532000D01*
X85043444Y-122531990D01*
X84971581Y-122524912D01*
X84971196Y-122524836D01*
X84907996Y-122505664D01*
X84907634Y-122505514D01*
X84849385Y-122474380D01*
X84849059Y-122474162D01*
X84798010Y-122432267D01*
X84797733Y-122431990D01*
X84755838Y-122380941D01*
X84755620Y-122380615D01*
X84724486Y-122322366D01*
X84724336Y-122322004D01*
X84705164Y-122258804D01*
X84705088Y-122258419D01*
X84698010Y-122186556D01*
X84698000Y-122186360D01*
X84698000Y-122130000D01*
X84699000Y-122128268D01*
X84701000Y-122128268D01*
X84701990Y-122129804D01*
G37*
G36*
X140601732Y-121919000D02*
G01*
X140601732Y-121921000D01*
X140600196Y-121921990D01*
X140522359Y-121929656D01*
X140447696Y-121952305D01*
X140378888Y-121989083D01*
X140318578Y-122038578D01*
X140269083Y-122098888D01*
X140232305Y-122167696D01*
X140209656Y-122242359D01*
X140201990Y-122320196D01*
X140200825Y-122321822D01*
X140198835Y-122321626D01*
X140198000Y-122320000D01*
X140198000Y-122263640D01*
X140198010Y-122263444D01*
X140205088Y-122191581D01*
X140205164Y-122191196D01*
X140224336Y-122127996D01*
X140224486Y-122127634D01*
X140255620Y-122069385D01*
X140255838Y-122069059D01*
X140297733Y-122018010D01*
X140298010Y-122017733D01*
X140349059Y-121975838D01*
X140349385Y-121975620D01*
X140407634Y-121944486D01*
X140407996Y-121944336D01*
X140471196Y-121925164D01*
X140471581Y-121925088D01*
X140543444Y-121918010D01*
X140543640Y-121918000D01*
X140600000Y-121918000D01*
X140601732Y-121919000D01*
G37*
G36*
X166101732Y-121919000D02*
G01*
X166101732Y-121921000D01*
X166100196Y-121921990D01*
X166022359Y-121929656D01*
X165947696Y-121952305D01*
X165878888Y-121989083D01*
X165818578Y-122038578D01*
X165769083Y-122098888D01*
X165732305Y-122167696D01*
X165709656Y-122242359D01*
X165701990Y-122320196D01*
X165700825Y-122321822D01*
X165698835Y-122321626D01*
X165698000Y-122320000D01*
X165698000Y-122263640D01*
X165698010Y-122263444D01*
X165705088Y-122191581D01*
X165705164Y-122191196D01*
X165724336Y-122127996D01*
X165724486Y-122127634D01*
X165755620Y-122069385D01*
X165755838Y-122069059D01*
X165797733Y-122018010D01*
X165798010Y-122017733D01*
X165849059Y-121975838D01*
X165849385Y-121975620D01*
X165907634Y-121944486D01*
X165907996Y-121944336D01*
X165971196Y-121925164D01*
X165971581Y-121925088D01*
X166043444Y-121918010D01*
X166043640Y-121918000D01*
X166100000Y-121918000D01*
X166101732Y-121919000D01*
G37*
G36*
X141456556Y-121918010D02*
G01*
X141528419Y-121925088D01*
X141528804Y-121925164D01*
X141592004Y-121944336D01*
X141592366Y-121944486D01*
X141650615Y-121975620D01*
X141650941Y-121975838D01*
X141701990Y-122017733D01*
X141702267Y-122018010D01*
X141744162Y-122069059D01*
X141744380Y-122069385D01*
X141775514Y-122127634D01*
X141775664Y-122127996D01*
X141794836Y-122191196D01*
X141794912Y-122191581D01*
X141801990Y-122263444D01*
X141802000Y-122263640D01*
X141802000Y-122320000D01*
X141801000Y-122321732D01*
X141799000Y-122321732D01*
X141798010Y-122320196D01*
X141790344Y-122242359D01*
X141767695Y-122167696D01*
X141730917Y-122098888D01*
X141681422Y-122038578D01*
X141621112Y-121989083D01*
X141552304Y-121952305D01*
X141477641Y-121929656D01*
X141399804Y-121921990D01*
X141398178Y-121920825D01*
X141398374Y-121918835D01*
X141400000Y-121918000D01*
X141456360Y-121918000D01*
X141456556Y-121918010D01*
G37*
G36*
X166956556Y-121918010D02*
G01*
X167028419Y-121925088D01*
X167028804Y-121925164D01*
X167092004Y-121944336D01*
X167092366Y-121944486D01*
X167150615Y-121975620D01*
X167150941Y-121975838D01*
X167201990Y-122017733D01*
X167202267Y-122018010D01*
X167244162Y-122069059D01*
X167244380Y-122069385D01*
X167275514Y-122127634D01*
X167275664Y-122127996D01*
X167294836Y-122191196D01*
X167294912Y-122191581D01*
X167301990Y-122263444D01*
X167302000Y-122263640D01*
X167302000Y-122320000D01*
X167301000Y-122321732D01*
X167299000Y-122321732D01*
X167298010Y-122320196D01*
X167290344Y-122242359D01*
X167267695Y-122167696D01*
X167230917Y-122098888D01*
X167181422Y-122038578D01*
X167121112Y-121989083D01*
X167052304Y-121952305D01*
X166977641Y-121929656D01*
X166899804Y-121921990D01*
X166898178Y-121920825D01*
X166898374Y-121918835D01*
X166900000Y-121918000D01*
X166956360Y-121918000D01*
X166956556Y-121918010D01*
G37*
G36*
X85101732Y-120929000D02*
G01*
X85101732Y-120931000D01*
X85100196Y-120931990D01*
X85022359Y-120939656D01*
X84947696Y-120962305D01*
X84878888Y-120999083D01*
X84818578Y-121048578D01*
X84769083Y-121108888D01*
X84732305Y-121177696D01*
X84709656Y-121252359D01*
X84701990Y-121330196D01*
X84700825Y-121331822D01*
X84698835Y-121331626D01*
X84698000Y-121330000D01*
X84698000Y-121273640D01*
X84698010Y-121273444D01*
X84705088Y-121201581D01*
X84705164Y-121201196D01*
X84724336Y-121137996D01*
X84724486Y-121137634D01*
X84755620Y-121079385D01*
X84755838Y-121079059D01*
X84797733Y-121028010D01*
X84798010Y-121027733D01*
X84849059Y-120985838D01*
X84849385Y-120985620D01*
X84907634Y-120954486D01*
X84907996Y-120954336D01*
X84971196Y-120935164D01*
X84971581Y-120935088D01*
X85043444Y-120928010D01*
X85043640Y-120928000D01*
X85100000Y-120928000D01*
X85101732Y-120929000D01*
G37*
G36*
X85956556Y-120928010D02*
G01*
X86028419Y-120935088D01*
X86028804Y-120935164D01*
X86092004Y-120954336D01*
X86092366Y-120954486D01*
X86150615Y-120985620D01*
X86150941Y-120985838D01*
X86201990Y-121027733D01*
X86202267Y-121028010D01*
X86244162Y-121079059D01*
X86244380Y-121079385D01*
X86275514Y-121137634D01*
X86275664Y-121137996D01*
X86294836Y-121201196D01*
X86294912Y-121201581D01*
X86301990Y-121273444D01*
X86302000Y-121273640D01*
X86302000Y-121330000D01*
X86301000Y-121331732D01*
X86299000Y-121331732D01*
X86298010Y-121330196D01*
X86290344Y-121252359D01*
X86267695Y-121177696D01*
X86230917Y-121108888D01*
X86181422Y-121048578D01*
X86121112Y-120999083D01*
X86052304Y-120962305D01*
X85977641Y-120939656D01*
X85899804Y-120931990D01*
X85898178Y-120930825D01*
X85898374Y-120928835D01*
X85900000Y-120928000D01*
X85956360Y-120928000D01*
X85956556Y-120928010D01*
G37*
G36*
X167301165Y-120578374D02*
G01*
X167302000Y-120580000D01*
X167302000Y-120636360D01*
X167301990Y-120636556D01*
X167294912Y-120708419D01*
X167294836Y-120708804D01*
X167275664Y-120772004D01*
X167275514Y-120772366D01*
X167244380Y-120830615D01*
X167244162Y-120830941D01*
X167202267Y-120881990D01*
X167201990Y-120882267D01*
X167150941Y-120924162D01*
X167150615Y-120924380D01*
X167092366Y-120955514D01*
X167092004Y-120955664D01*
X167028804Y-120974836D01*
X167028419Y-120974912D01*
X166956556Y-120981990D01*
X166956360Y-120982000D01*
X166900000Y-120982000D01*
X166898268Y-120981000D01*
X166898268Y-120979000D01*
X166899804Y-120978010D01*
X166977641Y-120970344D01*
X167052304Y-120947695D01*
X167121112Y-120910917D01*
X167181422Y-120861422D01*
X167230917Y-120801112D01*
X167267695Y-120732304D01*
X167290344Y-120657641D01*
X167298010Y-120579804D01*
X167299175Y-120578178D01*
X167301165Y-120578374D01*
G37*
G36*
X165701990Y-120579804D02*
G01*
X165709656Y-120657641D01*
X165732305Y-120732304D01*
X165769083Y-120801112D01*
X165818578Y-120861422D01*
X165878888Y-120910917D01*
X165947696Y-120947695D01*
X166022359Y-120970344D01*
X166100196Y-120978010D01*
X166101822Y-120979175D01*
X166101626Y-120981165D01*
X166100000Y-120982000D01*
X166043640Y-120982000D01*
X166043444Y-120981990D01*
X165971581Y-120974912D01*
X165971196Y-120974836D01*
X165907996Y-120955664D01*
X165907634Y-120955514D01*
X165849385Y-120924380D01*
X165849059Y-120924162D01*
X165798010Y-120882267D01*
X165797733Y-120881990D01*
X165755838Y-120830941D01*
X165755620Y-120830615D01*
X165724486Y-120772366D01*
X165724336Y-120772004D01*
X165705164Y-120708804D01*
X165705088Y-120708419D01*
X165698010Y-120636556D01*
X165698000Y-120636360D01*
X165698000Y-120580000D01*
X165699000Y-120578268D01*
X165701000Y-120578268D01*
X165701990Y-120579804D01*
G37*
G36*
X115001990Y-120399804D02*
G01*
X115009656Y-120477641D01*
X115032305Y-120552304D01*
X115069083Y-120621112D01*
X115118578Y-120681422D01*
X115178888Y-120730917D01*
X115247696Y-120767695D01*
X115322359Y-120790344D01*
X115400196Y-120798010D01*
X115401822Y-120799175D01*
X115401626Y-120801165D01*
X115400000Y-120802000D01*
X115343640Y-120802000D01*
X115343444Y-120801990D01*
X115271581Y-120794912D01*
X115271196Y-120794836D01*
X115207996Y-120775664D01*
X115207634Y-120775514D01*
X115149385Y-120744380D01*
X115149059Y-120744162D01*
X115098010Y-120702267D01*
X115097733Y-120701990D01*
X115055838Y-120650941D01*
X115055620Y-120650615D01*
X115024486Y-120592366D01*
X115024336Y-120592004D01*
X115005164Y-120528804D01*
X115005088Y-120528419D01*
X114998010Y-120456556D01*
X114998000Y-120456360D01*
X114998000Y-120400000D01*
X114999000Y-120398268D01*
X115001000Y-120398268D01*
X115001990Y-120399804D01*
G37*
G36*
X116601165Y-120398374D02*
G01*
X116602000Y-120400000D01*
X116602000Y-120456360D01*
X116601990Y-120456556D01*
X116594912Y-120528419D01*
X116594836Y-120528804D01*
X116575664Y-120592004D01*
X116575514Y-120592366D01*
X116544380Y-120650615D01*
X116544162Y-120650941D01*
X116502267Y-120701990D01*
X116501990Y-120702267D01*
X116450941Y-120744162D01*
X116450615Y-120744380D01*
X116392366Y-120775514D01*
X116392004Y-120775664D01*
X116328804Y-120794836D01*
X116328419Y-120794912D01*
X116256556Y-120801990D01*
X116256360Y-120802000D01*
X116200000Y-120802000D01*
X116198268Y-120801000D01*
X116198268Y-120799000D01*
X116199804Y-120798010D01*
X116277641Y-120790344D01*
X116352304Y-120767695D01*
X116421112Y-120730917D01*
X116481422Y-120681422D01*
X116530917Y-120621112D01*
X116567695Y-120552304D01*
X116590344Y-120477641D01*
X116598010Y-120399804D01*
X116599175Y-120398178D01*
X116601165Y-120398374D01*
G37*
G36*
X166101732Y-119379000D02*
G01*
X166101732Y-119381000D01*
X166100196Y-119381990D01*
X166022359Y-119389656D01*
X165947696Y-119412305D01*
X165878888Y-119449083D01*
X165818578Y-119498578D01*
X165769083Y-119558888D01*
X165732305Y-119627696D01*
X165709656Y-119702359D01*
X165701990Y-119780196D01*
X165700825Y-119781822D01*
X165698835Y-119781626D01*
X165698000Y-119780000D01*
X165698000Y-119723640D01*
X165698010Y-119723444D01*
X165705088Y-119651581D01*
X165705164Y-119651196D01*
X165724336Y-119587996D01*
X165724486Y-119587634D01*
X165755620Y-119529385D01*
X165755838Y-119529059D01*
X165797733Y-119478010D01*
X165798010Y-119477733D01*
X165849059Y-119435838D01*
X165849385Y-119435620D01*
X165907634Y-119404486D01*
X165907996Y-119404336D01*
X165971196Y-119385164D01*
X165971581Y-119385088D01*
X166043444Y-119378010D01*
X166043640Y-119378000D01*
X166100000Y-119378000D01*
X166101732Y-119379000D01*
G37*
G36*
X166956556Y-119378010D02*
G01*
X167028419Y-119385088D01*
X167028804Y-119385164D01*
X167092004Y-119404336D01*
X167092366Y-119404486D01*
X167150615Y-119435620D01*
X167150941Y-119435838D01*
X167201990Y-119477733D01*
X167202267Y-119478010D01*
X167244162Y-119529059D01*
X167244380Y-119529385D01*
X167275514Y-119587634D01*
X167275664Y-119587996D01*
X167294836Y-119651196D01*
X167294912Y-119651581D01*
X167301990Y-119723444D01*
X167302000Y-119723640D01*
X167302000Y-119780000D01*
X167301000Y-119781732D01*
X167299000Y-119781732D01*
X167298010Y-119780196D01*
X167290344Y-119702359D01*
X167267695Y-119627696D01*
X167230917Y-119558888D01*
X167181422Y-119498578D01*
X167121112Y-119449083D01*
X167052304Y-119412305D01*
X166977641Y-119389656D01*
X166899804Y-119381990D01*
X166898178Y-119380825D01*
X166898374Y-119378835D01*
X166900000Y-119378000D01*
X166956360Y-119378000D01*
X166956556Y-119378010D01*
G37*
G36*
X115401732Y-119199000D02*
G01*
X115401732Y-119201000D01*
X115400196Y-119201990D01*
X115322359Y-119209656D01*
X115247696Y-119232305D01*
X115178888Y-119269083D01*
X115118578Y-119318578D01*
X115069083Y-119378888D01*
X115032305Y-119447696D01*
X115009656Y-119522359D01*
X115001990Y-119600196D01*
X115000825Y-119601822D01*
X114998835Y-119601626D01*
X114998000Y-119600000D01*
X114998000Y-119543640D01*
X114998010Y-119543444D01*
X115005088Y-119471581D01*
X115005164Y-119471196D01*
X115024336Y-119407996D01*
X115024486Y-119407634D01*
X115055620Y-119349385D01*
X115055838Y-119349059D01*
X115097733Y-119298010D01*
X115098010Y-119297733D01*
X115149059Y-119255838D01*
X115149385Y-119255620D01*
X115207634Y-119224486D01*
X115207996Y-119224336D01*
X115271196Y-119205164D01*
X115271581Y-119205088D01*
X115343444Y-119198010D01*
X115343640Y-119198000D01*
X115400000Y-119198000D01*
X115401732Y-119199000D01*
G37*
G36*
X116256556Y-119198010D02*
G01*
X116328419Y-119205088D01*
X116328804Y-119205164D01*
X116392004Y-119224336D01*
X116392366Y-119224486D01*
X116450615Y-119255620D01*
X116450941Y-119255838D01*
X116501990Y-119297733D01*
X116502267Y-119298010D01*
X116544162Y-119349059D01*
X116544380Y-119349385D01*
X116575514Y-119407634D01*
X116575664Y-119407996D01*
X116594836Y-119471196D01*
X116594912Y-119471581D01*
X116601990Y-119543444D01*
X116602000Y-119543640D01*
X116602000Y-119600000D01*
X116601000Y-119601732D01*
X116599000Y-119601732D01*
X116598010Y-119600196D01*
X116590344Y-119522359D01*
X116567695Y-119447696D01*
X116530917Y-119378888D01*
X116481422Y-119318578D01*
X116421112Y-119269083D01*
X116352304Y-119232305D01*
X116277641Y-119209656D01*
X116199804Y-119201990D01*
X116198178Y-119200825D01*
X116198374Y-119198835D01*
X116200000Y-119198000D01*
X116256360Y-119198000D01*
X116256556Y-119198010D01*
G37*
G36*
X167301165Y-118038374D02*
G01*
X167302000Y-118040000D01*
X167302000Y-118096360D01*
X167301990Y-118096556D01*
X167294912Y-118168419D01*
X167294836Y-118168804D01*
X167275664Y-118232004D01*
X167275514Y-118232366D01*
X167244380Y-118290615D01*
X167244162Y-118290941D01*
X167202267Y-118341990D01*
X167201990Y-118342267D01*
X167150941Y-118384162D01*
X167150615Y-118384380D01*
X167092366Y-118415514D01*
X167092004Y-118415664D01*
X167028804Y-118434836D01*
X167028419Y-118434912D01*
X166956556Y-118441990D01*
X166956360Y-118442000D01*
X166900000Y-118442000D01*
X166898268Y-118441000D01*
X166898268Y-118439000D01*
X166899804Y-118438010D01*
X166977641Y-118430344D01*
X167052304Y-118407695D01*
X167121112Y-118370917D01*
X167181422Y-118321422D01*
X167230917Y-118261112D01*
X167267695Y-118192304D01*
X167290344Y-118117641D01*
X167298010Y-118039804D01*
X167299175Y-118038178D01*
X167301165Y-118038374D01*
G37*
G36*
X165701990Y-118039804D02*
G01*
X165709656Y-118117641D01*
X165732305Y-118192304D01*
X165769083Y-118261112D01*
X165818578Y-118321422D01*
X165878888Y-118370917D01*
X165947696Y-118407695D01*
X166022359Y-118430344D01*
X166100196Y-118438010D01*
X166101822Y-118439175D01*
X166101626Y-118441165D01*
X166100000Y-118442000D01*
X166043640Y-118442000D01*
X166043444Y-118441990D01*
X165971581Y-118434912D01*
X165971196Y-118434836D01*
X165907996Y-118415664D01*
X165907634Y-118415514D01*
X165849385Y-118384380D01*
X165849059Y-118384162D01*
X165798010Y-118342267D01*
X165797733Y-118341990D01*
X165755838Y-118290941D01*
X165755620Y-118290615D01*
X165724486Y-118232366D01*
X165724336Y-118232004D01*
X165705164Y-118168804D01*
X165705088Y-118168419D01*
X165698010Y-118096556D01*
X165698000Y-118096360D01*
X165698000Y-118040000D01*
X165699000Y-118038268D01*
X165701000Y-118038268D01*
X165701990Y-118039804D01*
G37*
G36*
X166101732Y-116839000D02*
G01*
X166101732Y-116841000D01*
X166100196Y-116841990D01*
X166022359Y-116849656D01*
X165947696Y-116872305D01*
X165878888Y-116909083D01*
X165818578Y-116958578D01*
X165769083Y-117018888D01*
X165732305Y-117087696D01*
X165709656Y-117162359D01*
X165701990Y-117240196D01*
X165700825Y-117241822D01*
X165698835Y-117241626D01*
X165698000Y-117240000D01*
X165698000Y-117183640D01*
X165698010Y-117183444D01*
X165705088Y-117111581D01*
X165705164Y-117111196D01*
X165724336Y-117047996D01*
X165724486Y-117047634D01*
X165755620Y-116989385D01*
X165755838Y-116989059D01*
X165797733Y-116938010D01*
X165798010Y-116937733D01*
X165849059Y-116895838D01*
X165849385Y-116895620D01*
X165907634Y-116864486D01*
X165907996Y-116864336D01*
X165971196Y-116845164D01*
X165971581Y-116845088D01*
X166043444Y-116838010D01*
X166043640Y-116838000D01*
X166100000Y-116838000D01*
X166101732Y-116839000D01*
G37*
G36*
X166956556Y-116838010D02*
G01*
X167028419Y-116845088D01*
X167028804Y-116845164D01*
X167092004Y-116864336D01*
X167092366Y-116864486D01*
X167150615Y-116895620D01*
X167150941Y-116895838D01*
X167201990Y-116937733D01*
X167202267Y-116938010D01*
X167244162Y-116989059D01*
X167244380Y-116989385D01*
X167275514Y-117047634D01*
X167275664Y-117047996D01*
X167294836Y-117111196D01*
X167294912Y-117111581D01*
X167301990Y-117183444D01*
X167302000Y-117183640D01*
X167302000Y-117240000D01*
X167301000Y-117241732D01*
X167299000Y-117241732D01*
X167298010Y-117240196D01*
X167290344Y-117162359D01*
X167267695Y-117087696D01*
X167230917Y-117018888D01*
X167181422Y-116958578D01*
X167121112Y-116909083D01*
X167052304Y-116872305D01*
X166977641Y-116849656D01*
X166899804Y-116841990D01*
X166898178Y-116840825D01*
X166898374Y-116838835D01*
X166900000Y-116838000D01*
X166956360Y-116838000D01*
X166956556Y-116838010D01*
G37*
G36*
X141211165Y-102798374D02*
G01*
X141212000Y-102800000D01*
X141212000Y-102856360D01*
X141211990Y-102856556D01*
X141204912Y-102928419D01*
X141204836Y-102928804D01*
X141185664Y-102992004D01*
X141185514Y-102992366D01*
X141154380Y-103050615D01*
X141154162Y-103050941D01*
X141112267Y-103101990D01*
X141111990Y-103102267D01*
X141060941Y-103144162D01*
X141060615Y-103144380D01*
X141002366Y-103175514D01*
X141002004Y-103175664D01*
X140938804Y-103194836D01*
X140938419Y-103194912D01*
X140866556Y-103201990D01*
X140866360Y-103202000D01*
X140810000Y-103202000D01*
X140808268Y-103201000D01*
X140808268Y-103199000D01*
X140809804Y-103198010D01*
X140887641Y-103190344D01*
X140962304Y-103167695D01*
X141031112Y-103130917D01*
X141091422Y-103081422D01*
X141140917Y-103021112D01*
X141177695Y-102952304D01*
X141200344Y-102877641D01*
X141208010Y-102799804D01*
X141209175Y-102798178D01*
X141211165Y-102798374D01*
G37*
G36*
X139611990Y-102799804D02*
G01*
X139619656Y-102877641D01*
X139642305Y-102952304D01*
X139679083Y-103021112D01*
X139728578Y-103081422D01*
X139788888Y-103130917D01*
X139857696Y-103167695D01*
X139932359Y-103190344D01*
X140010196Y-103198010D01*
X140011822Y-103199175D01*
X140011626Y-103201165D01*
X140010000Y-103202000D01*
X139953640Y-103202000D01*
X139953444Y-103201990D01*
X139881581Y-103194912D01*
X139881196Y-103194836D01*
X139817996Y-103175664D01*
X139817634Y-103175514D01*
X139759385Y-103144380D01*
X139759059Y-103144162D01*
X139708010Y-103102267D01*
X139707733Y-103101990D01*
X139665838Y-103050941D01*
X139665620Y-103050615D01*
X139634486Y-102992366D01*
X139634336Y-102992004D01*
X139615164Y-102928804D01*
X139615088Y-102928419D01*
X139608010Y-102856556D01*
X139608000Y-102856360D01*
X139608000Y-102800000D01*
X139609000Y-102798268D01*
X139611000Y-102798268D01*
X139611990Y-102799804D01*
G37*
G36*
X140011732Y-101599000D02*
G01*
X140011732Y-101601000D01*
X140010196Y-101601990D01*
X139932359Y-101609656D01*
X139857696Y-101632305D01*
X139788888Y-101669083D01*
X139728578Y-101718578D01*
X139679083Y-101778888D01*
X139642305Y-101847696D01*
X139619656Y-101922359D01*
X139611990Y-102000196D01*
X139610825Y-102001822D01*
X139608835Y-102001626D01*
X139608000Y-102000000D01*
X139608000Y-101943640D01*
X139608010Y-101943444D01*
X139615088Y-101871581D01*
X139615164Y-101871196D01*
X139634336Y-101807996D01*
X139634486Y-101807634D01*
X139665620Y-101749385D01*
X139665838Y-101749059D01*
X139707733Y-101698010D01*
X139708010Y-101697733D01*
X139759059Y-101655838D01*
X139759385Y-101655620D01*
X139817634Y-101624486D01*
X139817996Y-101624336D01*
X139881196Y-101605164D01*
X139881581Y-101605088D01*
X139953444Y-101598010D01*
X139953640Y-101598000D01*
X140010000Y-101598000D01*
X140011732Y-101599000D01*
G37*
G36*
X140866556Y-101598010D02*
G01*
X140938419Y-101605088D01*
X140938804Y-101605164D01*
X141002004Y-101624336D01*
X141002366Y-101624486D01*
X141060615Y-101655620D01*
X141060941Y-101655838D01*
X141111990Y-101697733D01*
X141112267Y-101698010D01*
X141154162Y-101749059D01*
X141154380Y-101749385D01*
X141185514Y-101807634D01*
X141185664Y-101807996D01*
X141204836Y-101871196D01*
X141204912Y-101871581D01*
X141211990Y-101943444D01*
X141212000Y-101943640D01*
X141212000Y-102000000D01*
X141211000Y-102001732D01*
X141209000Y-102001732D01*
X141208010Y-102000196D01*
X141200344Y-101922359D01*
X141177695Y-101847696D01*
X141140917Y-101778888D01*
X141091422Y-101718578D01*
X141031112Y-101669083D01*
X140962304Y-101632305D01*
X140887641Y-101609656D01*
X140809804Y-101601990D01*
X140808178Y-101600825D01*
X140808374Y-101598835D01*
X140810000Y-101598000D01*
X140866360Y-101598000D01*
X140866556Y-101598010D01*
G37*
G36*
X141801165Y-100258374D02*
G01*
X141802000Y-100260000D01*
X141802000Y-100316360D01*
X141801990Y-100316556D01*
X141794912Y-100388419D01*
X141794836Y-100388804D01*
X141775664Y-100452004D01*
X141775514Y-100452366D01*
X141744380Y-100510615D01*
X141744162Y-100510941D01*
X141702267Y-100561990D01*
X141701990Y-100562267D01*
X141650941Y-100604162D01*
X141650615Y-100604380D01*
X141592366Y-100635514D01*
X141592004Y-100635664D01*
X141528804Y-100654836D01*
X141528419Y-100654912D01*
X141456556Y-100661990D01*
X141456360Y-100662000D01*
X141400000Y-100662000D01*
X141398268Y-100661000D01*
X141398268Y-100659000D01*
X141399804Y-100658010D01*
X141477641Y-100650344D01*
X141552304Y-100627695D01*
X141621112Y-100590917D01*
X141681422Y-100541422D01*
X141730917Y-100481112D01*
X141767695Y-100412304D01*
X141790344Y-100337641D01*
X141798010Y-100259804D01*
X141799175Y-100258178D01*
X141801165Y-100258374D01*
G37*
G36*
X140201990Y-100259804D02*
G01*
X140209656Y-100337641D01*
X140232305Y-100412304D01*
X140269083Y-100481112D01*
X140318578Y-100541422D01*
X140378888Y-100590917D01*
X140447696Y-100627695D01*
X140522359Y-100650344D01*
X140600196Y-100658010D01*
X140601822Y-100659175D01*
X140601626Y-100661165D01*
X140600000Y-100662000D01*
X140543640Y-100662000D01*
X140543444Y-100661990D01*
X140471581Y-100654912D01*
X140471196Y-100654836D01*
X140407996Y-100635664D01*
X140407634Y-100635514D01*
X140349385Y-100604380D01*
X140349059Y-100604162D01*
X140298010Y-100562267D01*
X140297733Y-100561990D01*
X140255838Y-100510941D01*
X140255620Y-100510615D01*
X140224486Y-100452366D01*
X140224336Y-100452004D01*
X140205164Y-100388804D01*
X140205088Y-100388419D01*
X140198010Y-100316556D01*
X140198000Y-100316360D01*
X140198000Y-100260000D01*
X140199000Y-100258268D01*
X140201000Y-100258268D01*
X140201990Y-100259804D01*
G37*
G36*
X140601732Y-99059000D02*
G01*
X140601732Y-99061000D01*
X140600196Y-99061990D01*
X140522359Y-99069656D01*
X140447696Y-99092305D01*
X140378888Y-99129083D01*
X140318578Y-99178578D01*
X140269083Y-99238888D01*
X140232305Y-99307696D01*
X140209656Y-99382359D01*
X140201990Y-99460196D01*
X140200825Y-99461822D01*
X140198835Y-99461626D01*
X140198000Y-99460000D01*
X140198000Y-99403640D01*
X140198010Y-99403444D01*
X140205088Y-99331581D01*
X140205164Y-99331196D01*
X140224336Y-99267996D01*
X140224486Y-99267634D01*
X140255620Y-99209385D01*
X140255838Y-99209059D01*
X140297733Y-99158010D01*
X140298010Y-99157733D01*
X140349059Y-99115838D01*
X140349385Y-99115620D01*
X140407634Y-99084486D01*
X140407996Y-99084336D01*
X140471196Y-99065164D01*
X140471581Y-99065088D01*
X140543444Y-99058010D01*
X140543640Y-99058000D01*
X140600000Y-99058000D01*
X140601732Y-99059000D01*
G37*
G36*
X141456556Y-99058010D02*
G01*
X141528419Y-99065088D01*
X141528804Y-99065164D01*
X141592004Y-99084336D01*
X141592366Y-99084486D01*
X141650615Y-99115620D01*
X141650941Y-99115838D01*
X141701990Y-99157733D01*
X141702267Y-99158010D01*
X141744162Y-99209059D01*
X141744380Y-99209385D01*
X141775514Y-99267634D01*
X141775664Y-99267996D01*
X141794836Y-99331196D01*
X141794912Y-99331581D01*
X141801990Y-99403444D01*
X141802000Y-99403640D01*
X141802000Y-99460000D01*
X141801000Y-99461732D01*
X141799000Y-99461732D01*
X141798010Y-99460196D01*
X141790344Y-99382359D01*
X141767695Y-99307696D01*
X141730917Y-99238888D01*
X141681422Y-99178578D01*
X141621112Y-99129083D01*
X141552304Y-99092305D01*
X141477641Y-99069656D01*
X141399804Y-99061990D01*
X141398178Y-99060825D01*
X141398374Y-99058835D01*
X141400000Y-99058000D01*
X141456360Y-99058000D01*
X141456556Y-99058010D01*
G37*
G36*
X141801165Y-97718374D02*
G01*
X141802000Y-97720000D01*
X141802000Y-97776360D01*
X141801990Y-97776556D01*
X141794912Y-97848419D01*
X141794836Y-97848804D01*
X141775664Y-97912004D01*
X141775514Y-97912366D01*
X141744380Y-97970615D01*
X141744162Y-97970941D01*
X141702267Y-98021990D01*
X141701990Y-98022267D01*
X141650941Y-98064162D01*
X141650615Y-98064380D01*
X141592366Y-98095514D01*
X141592004Y-98095664D01*
X141528804Y-98114836D01*
X141528419Y-98114912D01*
X141456556Y-98121990D01*
X141456360Y-98122000D01*
X141400000Y-98122000D01*
X141398268Y-98121000D01*
X141398268Y-98119000D01*
X141399804Y-98118010D01*
X141477641Y-98110344D01*
X141552304Y-98087695D01*
X141621112Y-98050917D01*
X141681422Y-98001422D01*
X141730917Y-97941112D01*
X141767695Y-97872304D01*
X141790344Y-97797641D01*
X141798010Y-97719804D01*
X141799175Y-97718178D01*
X141801165Y-97718374D01*
G37*
G36*
X140201990Y-97719804D02*
G01*
X140209656Y-97797641D01*
X140232305Y-97872304D01*
X140269083Y-97941112D01*
X140318578Y-98001422D01*
X140378888Y-98050917D01*
X140447696Y-98087695D01*
X140522359Y-98110344D01*
X140600196Y-98118010D01*
X140601822Y-98119175D01*
X140601626Y-98121165D01*
X140600000Y-98122000D01*
X140543640Y-98122000D01*
X140543444Y-98121990D01*
X140471581Y-98114912D01*
X140471196Y-98114836D01*
X140407996Y-98095664D01*
X140407634Y-98095514D01*
X140349385Y-98064380D01*
X140349059Y-98064162D01*
X140298010Y-98022267D01*
X140297733Y-98021990D01*
X140255838Y-97970941D01*
X140255620Y-97970615D01*
X140224486Y-97912366D01*
X140224336Y-97912004D01*
X140205164Y-97848804D01*
X140205088Y-97848419D01*
X140198010Y-97776556D01*
X140198000Y-97776360D01*
X140198000Y-97720000D01*
X140199000Y-97718268D01*
X140201000Y-97718268D01*
X140201990Y-97719804D01*
G37*
G36*
X140601732Y-96519000D02*
G01*
X140601732Y-96521000D01*
X140600196Y-96521990D01*
X140522359Y-96529656D01*
X140447696Y-96552305D01*
X140378888Y-96589083D01*
X140318578Y-96638578D01*
X140269083Y-96698888D01*
X140232305Y-96767696D01*
X140209656Y-96842359D01*
X140201990Y-96920196D01*
X140200825Y-96921822D01*
X140198835Y-96921626D01*
X140198000Y-96920000D01*
X140198000Y-96863640D01*
X140198010Y-96863444D01*
X140205088Y-96791581D01*
X140205164Y-96791196D01*
X140224336Y-96727996D01*
X140224486Y-96727634D01*
X140255620Y-96669385D01*
X140255838Y-96669059D01*
X140297733Y-96618010D01*
X140298010Y-96617733D01*
X140349059Y-96575838D01*
X140349385Y-96575620D01*
X140407634Y-96544486D01*
X140407996Y-96544336D01*
X140471196Y-96525164D01*
X140471581Y-96525088D01*
X140543444Y-96518010D01*
X140543640Y-96518000D01*
X140600000Y-96518000D01*
X140601732Y-96519000D01*
G37*
G36*
X141456556Y-96518010D02*
G01*
X141528419Y-96525088D01*
X141528804Y-96525164D01*
X141592004Y-96544336D01*
X141592366Y-96544486D01*
X141650615Y-96575620D01*
X141650941Y-96575838D01*
X141701990Y-96617733D01*
X141702267Y-96618010D01*
X141744162Y-96669059D01*
X141744380Y-96669385D01*
X141775514Y-96727634D01*
X141775664Y-96727996D01*
X141794836Y-96791196D01*
X141794912Y-96791581D01*
X141801990Y-96863444D01*
X141802000Y-96863640D01*
X141802000Y-96920000D01*
X141801000Y-96921732D01*
X141799000Y-96921732D01*
X141798010Y-96920196D01*
X141790344Y-96842359D01*
X141767695Y-96767696D01*
X141730917Y-96698888D01*
X141681422Y-96638578D01*
X141621112Y-96589083D01*
X141552304Y-96552305D01*
X141477641Y-96529656D01*
X141399804Y-96521990D01*
X141398178Y-96520825D01*
X141398374Y-96518835D01*
X141400000Y-96518000D01*
X141456360Y-96518000D01*
X141456556Y-96518010D01*
G37*
G36*
X140201990Y-95179804D02*
G01*
X140209656Y-95257641D01*
X140232305Y-95332304D01*
X140269083Y-95401112D01*
X140318578Y-95461422D01*
X140378888Y-95510917D01*
X140447696Y-95547695D01*
X140522359Y-95570344D01*
X140600196Y-95578010D01*
X140601822Y-95579175D01*
X140601626Y-95581165D01*
X140600000Y-95582000D01*
X140543640Y-95582000D01*
X140543444Y-95581990D01*
X140471581Y-95574912D01*
X140471196Y-95574836D01*
X140407996Y-95555664D01*
X140407634Y-95555514D01*
X140349385Y-95524380D01*
X140349059Y-95524162D01*
X140298010Y-95482267D01*
X140297733Y-95481990D01*
X140255838Y-95430941D01*
X140255620Y-95430615D01*
X140224486Y-95372366D01*
X140224336Y-95372004D01*
X140205164Y-95308804D01*
X140205088Y-95308419D01*
X140198010Y-95236556D01*
X140198000Y-95236360D01*
X140198000Y-95180000D01*
X140199000Y-95178268D01*
X140201000Y-95178268D01*
X140201990Y-95179804D01*
G37*
G36*
X141801165Y-95178374D02*
G01*
X141802000Y-95180000D01*
X141802000Y-95236360D01*
X141801990Y-95236556D01*
X141794912Y-95308419D01*
X141794836Y-95308804D01*
X141775664Y-95372004D01*
X141775514Y-95372366D01*
X141744380Y-95430615D01*
X141744162Y-95430941D01*
X141702267Y-95481990D01*
X141701990Y-95482267D01*
X141650941Y-95524162D01*
X141650615Y-95524380D01*
X141592366Y-95555514D01*
X141592004Y-95555664D01*
X141528804Y-95574836D01*
X141528419Y-95574912D01*
X141456556Y-95581990D01*
X141456360Y-95582000D01*
X141400000Y-95582000D01*
X141398268Y-95581000D01*
X141398268Y-95579000D01*
X141399804Y-95578010D01*
X141477641Y-95570344D01*
X141552304Y-95547695D01*
X141621112Y-95510917D01*
X141681422Y-95461422D01*
X141730917Y-95401112D01*
X141767695Y-95332304D01*
X141790344Y-95257641D01*
X141798010Y-95179804D01*
X141799175Y-95178178D01*
X141801165Y-95178374D01*
G37*
G36*
X140601732Y-93979000D02*
G01*
X140601732Y-93981000D01*
X140600196Y-93981990D01*
X140522359Y-93989656D01*
X140447696Y-94012305D01*
X140378888Y-94049083D01*
X140318578Y-94098578D01*
X140269083Y-94158888D01*
X140232305Y-94227696D01*
X140209656Y-94302359D01*
X140201990Y-94380196D01*
X140200825Y-94381822D01*
X140198835Y-94381626D01*
X140198000Y-94380000D01*
X140198000Y-94323640D01*
X140198010Y-94323444D01*
X140205088Y-94251581D01*
X140205164Y-94251196D01*
X140224336Y-94187996D01*
X140224486Y-94187634D01*
X140255620Y-94129385D01*
X140255838Y-94129059D01*
X140297733Y-94078010D01*
X140298010Y-94077733D01*
X140349059Y-94035838D01*
X140349385Y-94035620D01*
X140407634Y-94004486D01*
X140407996Y-94004336D01*
X140471196Y-93985164D01*
X140471581Y-93985088D01*
X140543444Y-93978010D01*
X140543640Y-93978000D01*
X140600000Y-93978000D01*
X140601732Y-93979000D01*
G37*
G36*
X141456556Y-93978010D02*
G01*
X141528419Y-93985088D01*
X141528804Y-93985164D01*
X141592004Y-94004336D01*
X141592366Y-94004486D01*
X141650615Y-94035620D01*
X141650941Y-94035838D01*
X141701990Y-94077733D01*
X141702267Y-94078010D01*
X141744162Y-94129059D01*
X141744380Y-94129385D01*
X141775514Y-94187634D01*
X141775664Y-94187996D01*
X141794836Y-94251196D01*
X141794912Y-94251581D01*
X141801990Y-94323444D01*
X141802000Y-94323640D01*
X141802000Y-94380000D01*
X141801000Y-94381732D01*
X141799000Y-94381732D01*
X141798010Y-94380196D01*
X141790344Y-94302359D01*
X141767695Y-94227696D01*
X141730917Y-94158888D01*
X141681422Y-94098578D01*
X141621112Y-94049083D01*
X141552304Y-94012305D01*
X141477641Y-93989656D01*
X141399804Y-93981990D01*
X141398178Y-93980825D01*
X141398374Y-93978835D01*
X141400000Y-93978000D01*
X141456360Y-93978000D01*
X141456556Y-93978010D01*
G37*
G36*
X165701990Y-92639804D02*
G01*
X165709656Y-92717641D01*
X165732305Y-92792304D01*
X165769083Y-92861112D01*
X165818578Y-92921422D01*
X165878888Y-92970917D01*
X165947696Y-93007695D01*
X166022359Y-93030344D01*
X166100196Y-93038010D01*
X166101822Y-93039175D01*
X166101626Y-93041165D01*
X166100000Y-93042000D01*
X166043640Y-93042000D01*
X166043444Y-93041990D01*
X165971581Y-93034912D01*
X165971196Y-93034836D01*
X165907996Y-93015664D01*
X165907634Y-93015514D01*
X165849385Y-92984380D01*
X165849059Y-92984162D01*
X165798010Y-92942267D01*
X165797733Y-92941990D01*
X165755838Y-92890941D01*
X165755620Y-92890615D01*
X165724486Y-92832366D01*
X165724336Y-92832004D01*
X165705164Y-92768804D01*
X165705088Y-92768419D01*
X165698010Y-92696556D01*
X165698000Y-92696360D01*
X165698000Y-92640000D01*
X165699000Y-92638268D01*
X165701000Y-92638268D01*
X165701990Y-92639804D01*
G37*
G36*
X167301165Y-92638374D02*
G01*
X167302000Y-92640000D01*
X167302000Y-92696360D01*
X167301990Y-92696556D01*
X167294912Y-92768419D01*
X167294836Y-92768804D01*
X167275664Y-92832004D01*
X167275514Y-92832366D01*
X167244380Y-92890615D01*
X167244162Y-92890941D01*
X167202267Y-92941990D01*
X167201990Y-92942267D01*
X167150941Y-92984162D01*
X167150615Y-92984380D01*
X167092366Y-93015514D01*
X167092004Y-93015664D01*
X167028804Y-93034836D01*
X167028419Y-93034912D01*
X166956556Y-93041990D01*
X166956360Y-93042000D01*
X166900000Y-93042000D01*
X166898268Y-93041000D01*
X166898268Y-93039000D01*
X166899804Y-93038010D01*
X166977641Y-93030344D01*
X167052304Y-93007695D01*
X167121112Y-92970917D01*
X167181422Y-92921422D01*
X167230917Y-92861112D01*
X167267695Y-92792304D01*
X167290344Y-92717641D01*
X167298010Y-92639804D01*
X167299175Y-92638178D01*
X167301165Y-92638374D01*
G37*
G36*
X141801165Y-92638374D02*
G01*
X141802000Y-92640000D01*
X141802000Y-92696360D01*
X141801990Y-92696556D01*
X141794912Y-92768419D01*
X141794836Y-92768804D01*
X141775664Y-92832004D01*
X141775514Y-92832366D01*
X141744380Y-92890615D01*
X141744162Y-92890941D01*
X141702267Y-92941990D01*
X141701990Y-92942267D01*
X141650941Y-92984162D01*
X141650615Y-92984380D01*
X141592366Y-93015514D01*
X141592004Y-93015664D01*
X141528804Y-93034836D01*
X141528419Y-93034912D01*
X141456556Y-93041990D01*
X141456360Y-93042000D01*
X141400000Y-93042000D01*
X141398268Y-93041000D01*
X141398268Y-93039000D01*
X141399804Y-93038010D01*
X141477641Y-93030344D01*
X141552304Y-93007695D01*
X141621112Y-92970917D01*
X141681422Y-92921422D01*
X141730917Y-92861112D01*
X141767695Y-92792304D01*
X141790344Y-92717641D01*
X141798010Y-92639804D01*
X141799175Y-92638178D01*
X141801165Y-92638374D01*
G37*
G36*
X140201990Y-92639804D02*
G01*
X140209656Y-92717641D01*
X140232305Y-92792304D01*
X140269083Y-92861112D01*
X140318578Y-92921422D01*
X140378888Y-92970917D01*
X140447696Y-93007695D01*
X140522359Y-93030344D01*
X140600196Y-93038010D01*
X140601822Y-93039175D01*
X140601626Y-93041165D01*
X140600000Y-93042000D01*
X140543640Y-93042000D01*
X140543444Y-93041990D01*
X140471581Y-93034912D01*
X140471196Y-93034836D01*
X140407996Y-93015664D01*
X140407634Y-93015514D01*
X140349385Y-92984380D01*
X140349059Y-92984162D01*
X140298010Y-92942267D01*
X140297733Y-92941990D01*
X140255838Y-92890941D01*
X140255620Y-92890615D01*
X140224486Y-92832366D01*
X140224336Y-92832004D01*
X140205164Y-92768804D01*
X140205088Y-92768419D01*
X140198010Y-92696556D01*
X140198000Y-92696360D01*
X140198000Y-92640000D01*
X140199000Y-92638268D01*
X140201000Y-92638268D01*
X140201990Y-92639804D01*
G37*
G36*
X166101732Y-91439000D02*
G01*
X166101732Y-91441000D01*
X166100196Y-91441990D01*
X166022359Y-91449656D01*
X165947696Y-91472305D01*
X165878888Y-91509083D01*
X165818578Y-91558578D01*
X165769083Y-91618888D01*
X165732305Y-91687696D01*
X165709656Y-91762359D01*
X165701990Y-91840196D01*
X165700825Y-91841822D01*
X165698835Y-91841626D01*
X165698000Y-91840000D01*
X165698000Y-91783640D01*
X165698010Y-91783444D01*
X165705088Y-91711581D01*
X165705164Y-91711196D01*
X165724336Y-91647996D01*
X165724486Y-91647634D01*
X165755620Y-91589385D01*
X165755838Y-91589059D01*
X165797733Y-91538010D01*
X165798010Y-91537733D01*
X165849059Y-91495838D01*
X165849385Y-91495620D01*
X165907634Y-91464486D01*
X165907996Y-91464336D01*
X165971196Y-91445164D01*
X165971581Y-91445088D01*
X166043444Y-91438010D01*
X166043640Y-91438000D01*
X166100000Y-91438000D01*
X166101732Y-91439000D01*
G37*
G36*
X140601732Y-91439000D02*
G01*
X140601732Y-91441000D01*
X140600196Y-91441990D01*
X140522359Y-91449656D01*
X140447696Y-91472305D01*
X140378888Y-91509083D01*
X140318578Y-91558578D01*
X140269083Y-91618888D01*
X140232305Y-91687696D01*
X140209656Y-91762359D01*
X140201990Y-91840196D01*
X140200825Y-91841822D01*
X140198835Y-91841626D01*
X140198000Y-91840000D01*
X140198000Y-91783640D01*
X140198010Y-91783444D01*
X140205088Y-91711581D01*
X140205164Y-91711196D01*
X140224336Y-91647996D01*
X140224486Y-91647634D01*
X140255620Y-91589385D01*
X140255838Y-91589059D01*
X140297733Y-91538010D01*
X140298010Y-91537733D01*
X140349059Y-91495838D01*
X140349385Y-91495620D01*
X140407634Y-91464486D01*
X140407996Y-91464336D01*
X140471196Y-91445164D01*
X140471581Y-91445088D01*
X140543444Y-91438010D01*
X140543640Y-91438000D01*
X140600000Y-91438000D01*
X140601732Y-91439000D01*
G37*
G36*
X166956556Y-91438010D02*
G01*
X167028419Y-91445088D01*
X167028804Y-91445164D01*
X167092004Y-91464336D01*
X167092366Y-91464486D01*
X167150615Y-91495620D01*
X167150941Y-91495838D01*
X167201990Y-91537733D01*
X167202267Y-91538010D01*
X167244162Y-91589059D01*
X167244380Y-91589385D01*
X167275514Y-91647634D01*
X167275664Y-91647996D01*
X167294836Y-91711196D01*
X167294912Y-91711581D01*
X167301990Y-91783444D01*
X167302000Y-91783640D01*
X167302000Y-91840000D01*
X167301000Y-91841732D01*
X167299000Y-91841732D01*
X167298010Y-91840196D01*
X167290344Y-91762359D01*
X167267695Y-91687696D01*
X167230917Y-91618888D01*
X167181422Y-91558578D01*
X167121112Y-91509083D01*
X167052304Y-91472305D01*
X166977641Y-91449656D01*
X166899804Y-91441990D01*
X166898178Y-91440825D01*
X166898374Y-91438835D01*
X166900000Y-91438000D01*
X166956360Y-91438000D01*
X166956556Y-91438010D01*
G37*
G36*
X141456556Y-91438010D02*
G01*
X141528419Y-91445088D01*
X141528804Y-91445164D01*
X141592004Y-91464336D01*
X141592366Y-91464486D01*
X141650615Y-91495620D01*
X141650941Y-91495838D01*
X141701990Y-91537733D01*
X141702267Y-91538010D01*
X141744162Y-91589059D01*
X141744380Y-91589385D01*
X141775514Y-91647634D01*
X141775664Y-91647996D01*
X141794836Y-91711196D01*
X141794912Y-91711581D01*
X141801990Y-91783444D01*
X141802000Y-91783640D01*
X141802000Y-91840000D01*
X141801000Y-91841732D01*
X141799000Y-91841732D01*
X141798010Y-91840196D01*
X141790344Y-91762359D01*
X141767695Y-91687696D01*
X141730917Y-91618888D01*
X141681422Y-91558578D01*
X141621112Y-91509083D01*
X141552304Y-91472305D01*
X141477641Y-91449656D01*
X141399804Y-91441990D01*
X141398178Y-91440825D01*
X141398374Y-91438835D01*
X141400000Y-91438000D01*
X141456360Y-91438000D01*
X141456556Y-91438010D01*
G37*
M02*
