%TF.GenerationSoftware,KiCad,Pcbnew,5.1.9-73d0e3b20d~88~ubuntu20.04.1*%
%TF.CreationDate,2021-10-11T11:35:55+05:30*%
%TF.ProjectId,vayuO2,76617975-4f32-42e6-9b69-6361645f7063,rev 2*%
%TF.SameCoordinates,Original*%
%TF.FileFunction,Soldermask,Bot*%
%TF.FilePolarity,Negative*%
%FSLAX46Y46*%
G04 Gerber Fmt 4.6, Leading zero omitted, Abs format (unit mm)*
G04 Created by KiCad (PCBNEW 5.1.9-73d0e3b20d~88~ubuntu20.04.1) date 2021-10-11 11:35:55*
%MOMM*%
%LPD*%
G01*
G04 APERTURE LIST*
%ADD10R,1.700000X1.700000*%
%ADD11O,1.700000X1.700000*%
%ADD12C,3.048000*%
%ADD13C,1.700000*%
%ADD14C,3.000000*%
%ADD15O,2.600000X3.900000*%
%ADD16C,1.800000*%
%ADD17O,2.000000X1.700000*%
%ADD18O,1.700000X2.000000*%
%ADD19O,1.950000X1.700000*%
%ADD20C,6.400000*%
%ADD21C,0.800000*%
%ADD22C,0.127000*%
%ADD23C,2.600000*%
%ADD24C,1.524000*%
%ADD25C,4.572000*%
G04 APERTURE END LIST*
D10*
X163700000Y-131000000D03*
D11*
X163700000Y-128460000D03*
X163700000Y-125920000D03*
X163700000Y-123380000D03*
X163700000Y-120840000D03*
X163700000Y-118300000D03*
X163700000Y-115760000D03*
X163700000Y-113220000D03*
X163700000Y-110680000D03*
X163700000Y-108140000D03*
X163700000Y-105600000D03*
X163700000Y-103060000D03*
X163700000Y-100520000D03*
X163700000Y-97980000D03*
X163700000Y-95440000D03*
X138300000Y-95440000D03*
X138300000Y-115760000D03*
X138300000Y-110680000D03*
X138300000Y-105600000D03*
X138300000Y-113220000D03*
X138300000Y-108140000D03*
X138300000Y-100520000D03*
X138300000Y-97980000D03*
X138300000Y-103060000D03*
X138300000Y-125920000D03*
X138300000Y-118300000D03*
X138300000Y-120840000D03*
X138300000Y-123380000D03*
X138300000Y-128460000D03*
D10*
X138300000Y-131000000D03*
D12*
X139062000Y-135318000D03*
X162938000Y-135318000D03*
X162938000Y-88074000D03*
X139062000Y-88074000D03*
G36*
G01*
X139300000Y-95800000D02*
X139300000Y-95000000D01*
G75*
G02*
X139700000Y-94600000I400000J0D01*
G01*
X140500000Y-94600000D01*
G75*
G02*
X140900000Y-95000000I0J-400000D01*
G01*
X140900000Y-95800000D01*
G75*
G02*
X140500000Y-96200000I-400000J0D01*
G01*
X139700000Y-96200000D01*
G75*
G02*
X139300000Y-95800000I0J400000D01*
G01*
G37*
G36*
G01*
X165700000Y-95900000D02*
X165700000Y-95100000D01*
G75*
G02*
X166100000Y-94700000I400000J0D01*
G01*
X166900000Y-94700000D01*
G75*
G02*
X167300000Y-95100000I0J-400000D01*
G01*
X167300000Y-95900000D01*
G75*
G02*
X166900000Y-96300000I-400000J0D01*
G01*
X166100000Y-96300000D01*
G75*
G02*
X165700000Y-95900000I0J400000D01*
G01*
G37*
G36*
G01*
X139800000Y-98400000D02*
X139800000Y-97600000D01*
G75*
G02*
X140200000Y-97200000I400000J0D01*
G01*
X141000000Y-97200000D01*
G75*
G02*
X141400000Y-97600000I0J-400000D01*
G01*
X141400000Y-98400000D01*
G75*
G02*
X141000000Y-98800000I-400000J0D01*
G01*
X140200000Y-98800000D01*
G75*
G02*
X139800000Y-98400000I0J400000D01*
G01*
G37*
G36*
G01*
X139800000Y-100900000D02*
X139800000Y-100100000D01*
G75*
G02*
X140200000Y-99700000I400000J0D01*
G01*
X141000000Y-99700000D01*
G75*
G02*
X141400000Y-100100000I0J-400000D01*
G01*
X141400000Y-100900000D01*
G75*
G02*
X141000000Y-101300000I-400000J0D01*
G01*
X140200000Y-101300000D01*
G75*
G02*
X139800000Y-100900000I0J400000D01*
G01*
G37*
G36*
G01*
X139800000Y-103500000D02*
X139800000Y-102700000D01*
G75*
G02*
X140200000Y-102300000I400000J0D01*
G01*
X141000000Y-102300000D01*
G75*
G02*
X141400000Y-102700000I0J-400000D01*
G01*
X141400000Y-103500000D01*
G75*
G02*
X141000000Y-103900000I-400000J0D01*
G01*
X140200000Y-103900000D01*
G75*
G02*
X139800000Y-103500000I0J400000D01*
G01*
G37*
G36*
G01*
X139800000Y-106000000D02*
X139800000Y-105200000D01*
G75*
G02*
X140200000Y-104800000I400000J0D01*
G01*
X141000000Y-104800000D01*
G75*
G02*
X141400000Y-105200000I0J-400000D01*
G01*
X141400000Y-106000000D01*
G75*
G02*
X141000000Y-106400000I-400000J0D01*
G01*
X140200000Y-106400000D01*
G75*
G02*
X139800000Y-106000000I0J400000D01*
G01*
G37*
G36*
G01*
X165700000Y-121400000D02*
X165700000Y-120600000D01*
G75*
G02*
X166100000Y-120200000I400000J0D01*
G01*
X166900000Y-120200000D01*
G75*
G02*
X167300000Y-120600000I0J-400000D01*
G01*
X167300000Y-121400000D01*
G75*
G02*
X166900000Y-121800000I-400000J0D01*
G01*
X166100000Y-121800000D01*
G75*
G02*
X165700000Y-121400000I0J400000D01*
G01*
G37*
G36*
G01*
X165700000Y-123900000D02*
X165700000Y-123100000D01*
G75*
G02*
X166100000Y-122700000I400000J0D01*
G01*
X166900000Y-122700000D01*
G75*
G02*
X167300000Y-123100000I0J-400000D01*
G01*
X167300000Y-123900000D01*
G75*
G02*
X166900000Y-124300000I-400000J0D01*
G01*
X166100000Y-124300000D01*
G75*
G02*
X165700000Y-123900000I0J400000D01*
G01*
G37*
G36*
G01*
X85900000Y-122530000D02*
X85100000Y-122530000D01*
G75*
G02*
X84700000Y-122130000I0J400000D01*
G01*
X84700000Y-121330000D01*
G75*
G02*
X85100000Y-120930000I400000J0D01*
G01*
X85900000Y-120930000D01*
G75*
G02*
X86300000Y-121330000I0J-400000D01*
G01*
X86300000Y-122130000D01*
G75*
G02*
X85900000Y-122530000I-400000J0D01*
G01*
G37*
G36*
G01*
X139950000Y-126400000D02*
X139950000Y-125600000D01*
G75*
G02*
X140350000Y-125200000I400000J0D01*
G01*
X141150000Y-125200000D01*
G75*
G02*
X141550000Y-125600000I0J-400000D01*
G01*
X141550000Y-126400000D01*
G75*
G02*
X141150000Y-126800000I-400000J0D01*
G01*
X140350000Y-126800000D01*
G75*
G02*
X139950000Y-126400000I0J400000D01*
G01*
G37*
G36*
G01*
X165700000Y-126400000D02*
X165700000Y-125600000D01*
G75*
G02*
X166100000Y-125200000I400000J0D01*
G01*
X166900000Y-125200000D01*
G75*
G02*
X167300000Y-125600000I0J-400000D01*
G01*
X167300000Y-126400000D01*
G75*
G02*
X166900000Y-126800000I-400000J0D01*
G01*
X166100000Y-126800000D01*
G75*
G02*
X165700000Y-126400000I0J400000D01*
G01*
G37*
G36*
G01*
X165700000Y-128900000D02*
X165700000Y-128100000D01*
G75*
G02*
X166100000Y-127700000I400000J0D01*
G01*
X166900000Y-127700000D01*
G75*
G02*
X167300000Y-128100000I0J-400000D01*
G01*
X167300000Y-128900000D01*
G75*
G02*
X166900000Y-129300000I-400000J0D01*
G01*
X166100000Y-129300000D01*
G75*
G02*
X165700000Y-128900000I0J400000D01*
G01*
G37*
G36*
G01*
X139950000Y-131400000D02*
X139950000Y-130600000D01*
G75*
G02*
X140350000Y-130200000I400000J0D01*
G01*
X141150000Y-130200000D01*
G75*
G02*
X141550000Y-130600000I0J-400000D01*
G01*
X141550000Y-131400000D01*
G75*
G02*
X141150000Y-131800000I-400000J0D01*
G01*
X140350000Y-131800000D01*
G75*
G02*
X139950000Y-131400000I0J400000D01*
G01*
G37*
G36*
G01*
X165700000Y-131400000D02*
X165700000Y-130600000D01*
G75*
G02*
X166100000Y-130200000I400000J0D01*
G01*
X166900000Y-130200000D01*
G75*
G02*
X167300000Y-130600000I0J-400000D01*
G01*
X167300000Y-131400000D01*
G75*
G02*
X166900000Y-131800000I-400000J0D01*
G01*
X166100000Y-131800000D01*
G75*
G02*
X165700000Y-131400000I0J400000D01*
G01*
G37*
D11*
X59200000Y-88000000D03*
X59200000Y-85460000D03*
D13*
X59200000Y-77840000D03*
D10*
X59200000Y-75300000D03*
D13*
X59200000Y-80380000D03*
X59200000Y-90540000D03*
X59200000Y-93080000D03*
D14*
X53350000Y-96850000D03*
X53350000Y-67150000D03*
X68650000Y-67150000D03*
X53300000Y-100950000D03*
X68700000Y-100950000D03*
X53300000Y-63050000D03*
X68700000Y-63050000D03*
D10*
X68400000Y-77800000D03*
D11*
X68400000Y-80340000D03*
X68400000Y-85420000D03*
X68400000Y-87960000D03*
X68400000Y-90500000D03*
G36*
G01*
X100500000Y-129000000D02*
X100500000Y-131600000D01*
G75*
G02*
X99850000Y-132250000I-650000J0D01*
G01*
X98550000Y-132250000D01*
G75*
G02*
X97900000Y-131600000I0J650000D01*
G01*
X97900000Y-129000000D01*
G75*
G02*
X98550000Y-128350000I650000J0D01*
G01*
X99850000Y-128350000D01*
G75*
G02*
X100500000Y-129000000I0J-650000D01*
G01*
G37*
D15*
X99200000Y-109800000D03*
D16*
X103962000Y-115551000D03*
X89675000Y-123800000D03*
X103962000Y-132049000D03*
D17*
X134000000Y-55500000D03*
G36*
G01*
X133250000Y-52150000D02*
X134750000Y-52150000D01*
G75*
G02*
X135000000Y-52400000I0J-250000D01*
G01*
X135000000Y-53600000D01*
G75*
G02*
X134750000Y-53850000I-250000J0D01*
G01*
X133250000Y-53850000D01*
G75*
G02*
X133000000Y-53600000I0J250000D01*
G01*
X133000000Y-52400000D01*
G75*
G02*
X133250000Y-52150000I250000J0D01*
G01*
G37*
D18*
X115750000Y-54750000D03*
G36*
G01*
X119100000Y-54000000D02*
X119100000Y-55500000D01*
G75*
G02*
X118850000Y-55750000I-250000J0D01*
G01*
X117650000Y-55750000D01*
G75*
G02*
X117400000Y-55500000I0J250000D01*
G01*
X117400000Y-54000000D01*
G75*
G02*
X117650000Y-53750000I250000J0D01*
G01*
X118850000Y-53750000D01*
G75*
G02*
X119100000Y-54000000I0J-250000D01*
G01*
G37*
X105750000Y-54750000D03*
G36*
G01*
X109100000Y-54000000D02*
X109100000Y-55500000D01*
G75*
G02*
X108850000Y-55750000I-250000J0D01*
G01*
X107650000Y-55750000D01*
G75*
G02*
X107400000Y-55500000I0J250000D01*
G01*
X107400000Y-54000000D01*
G75*
G02*
X107650000Y-53750000I250000J0D01*
G01*
X108850000Y-53750000D01*
G75*
G02*
X109100000Y-54000000I0J-250000D01*
G01*
G37*
X95750000Y-54750000D03*
G36*
G01*
X99100000Y-54000000D02*
X99100000Y-55500000D01*
G75*
G02*
X98850000Y-55750000I-250000J0D01*
G01*
X97650000Y-55750000D01*
G75*
G02*
X97400000Y-55500000I0J250000D01*
G01*
X97400000Y-54000000D01*
G75*
G02*
X97650000Y-53750000I250000J0D01*
G01*
X98850000Y-53750000D01*
G75*
G02*
X99100000Y-54000000I0J-250000D01*
G01*
G37*
X85750000Y-54750000D03*
G36*
G01*
X89100000Y-54000000D02*
X89100000Y-55500000D01*
G75*
G02*
X88850000Y-55750000I-250000J0D01*
G01*
X87650000Y-55750000D01*
G75*
G02*
X87400000Y-55500000I0J250000D01*
G01*
X87400000Y-54000000D01*
G75*
G02*
X87650000Y-53750000I250000J0D01*
G01*
X88850000Y-53750000D01*
G75*
G02*
X89100000Y-54000000I0J-250000D01*
G01*
G37*
X75750000Y-54750000D03*
G36*
G01*
X79100000Y-54000000D02*
X79100000Y-55500000D01*
G75*
G02*
X78850000Y-55750000I-250000J0D01*
G01*
X77650000Y-55750000D01*
G75*
G02*
X77400000Y-55500000I0J250000D01*
G01*
X77400000Y-54000000D01*
G75*
G02*
X77650000Y-53750000I250000J0D01*
G01*
X78850000Y-53750000D01*
G75*
G02*
X79100000Y-54000000I0J-250000D01*
G01*
G37*
X65750000Y-54750000D03*
G36*
G01*
X69100000Y-54000000D02*
X69100000Y-55500000D01*
G75*
G02*
X68850000Y-55750000I-250000J0D01*
G01*
X67650000Y-55750000D01*
G75*
G02*
X67400000Y-55500000I0J250000D01*
G01*
X67400000Y-54000000D01*
G75*
G02*
X67650000Y-53750000I250000J0D01*
G01*
X68850000Y-53750000D01*
G75*
G02*
X69100000Y-54000000I0J-250000D01*
G01*
G37*
D10*
X116650000Y-133500000D03*
D11*
X119190000Y-133500000D03*
X121730000Y-133500000D03*
X124270000Y-133500000D03*
X126810000Y-133500000D03*
X129350000Y-133500000D03*
X126810000Y-97940000D03*
X124270000Y-97940000D03*
X119190000Y-97940000D03*
X121730000Y-97940000D03*
D12*
X113750000Y-126770000D03*
X113750000Y-100770000D03*
X132250000Y-126770000D03*
D19*
X134000000Y-80500000D03*
X134000000Y-78000000D03*
X134000000Y-75500000D03*
G36*
G01*
X133275000Y-72150000D02*
X134725000Y-72150000D01*
G75*
G02*
X134975000Y-72400000I0J-250000D01*
G01*
X134975000Y-73600000D01*
G75*
G02*
X134725000Y-73850000I-250000J0D01*
G01*
X133275000Y-73850000D01*
G75*
G02*
X133025000Y-73600000I0J250000D01*
G01*
X133025000Y-72400000D01*
G75*
G02*
X133275000Y-72150000I250000J0D01*
G01*
G37*
D17*
X144000000Y-55500000D03*
G36*
G01*
X143250000Y-52150000D02*
X144750000Y-52150000D01*
G75*
G02*
X145000000Y-52400000I0J-250000D01*
G01*
X145000000Y-53600000D01*
G75*
G02*
X144750000Y-53850000I-250000J0D01*
G01*
X143250000Y-53850000D01*
G75*
G02*
X143000000Y-53600000I0J250000D01*
G01*
X143000000Y-52400000D01*
G75*
G02*
X143250000Y-52150000I250000J0D01*
G01*
G37*
D20*
X170000000Y-54000000D03*
D21*
X172400000Y-54000000D03*
X171697056Y-55697056D03*
X170000000Y-56400000D03*
X168302944Y-55697056D03*
X167600000Y-54000000D03*
X168302944Y-52302944D03*
X170000000Y-51600000D03*
X171697056Y-52302944D03*
D20*
X170000000Y-134000000D03*
D21*
X172400000Y-134000000D03*
X171697056Y-135697056D03*
X170000000Y-136400000D03*
X168302944Y-135697056D03*
X167600000Y-134000000D03*
X168302944Y-132302944D03*
X170000000Y-131600000D03*
X171697056Y-132302944D03*
D20*
X54000000Y-54000000D03*
D21*
X56400000Y-54000000D03*
X55697056Y-55697056D03*
X54000000Y-56400000D03*
X52302944Y-55697056D03*
X51600000Y-54000000D03*
X52302944Y-52302944D03*
X54000000Y-51600000D03*
X55697056Y-52302944D03*
D20*
X54000000Y-134000000D03*
D21*
X56400000Y-134000000D03*
X55697056Y-135697056D03*
X54000000Y-136400000D03*
X52302944Y-135697056D03*
X51600000Y-134000000D03*
X52302944Y-132302944D03*
X54000000Y-131600000D03*
X55697056Y-132302944D03*
D22*
G36*
X76850000Y-112319398D02*
G01*
X76825466Y-112319398D01*
X76776635Y-112314588D01*
X76728510Y-112305016D01*
X76681555Y-112290772D01*
X76636222Y-112271995D01*
X76592949Y-112248864D01*
X76552150Y-112221604D01*
X76514221Y-112190476D01*
X76479524Y-112155779D01*
X76448396Y-112117850D01*
X76421136Y-112077051D01*
X76398005Y-112033778D01*
X76379228Y-111988445D01*
X76364984Y-111941490D01*
X76355412Y-111893365D01*
X76350602Y-111844534D01*
X76350602Y-111820000D01*
X76350000Y-111820000D01*
X76350000Y-111320000D01*
X76350602Y-111320000D01*
X76350602Y-111295466D01*
X76355412Y-111246635D01*
X76364984Y-111198510D01*
X76379228Y-111151555D01*
X76398005Y-111106222D01*
X76421136Y-111062949D01*
X76448396Y-111022150D01*
X76479524Y-110984221D01*
X76514221Y-110949524D01*
X76552150Y-110918396D01*
X76592949Y-110891136D01*
X76636222Y-110868005D01*
X76681555Y-110849228D01*
X76728510Y-110834984D01*
X76776635Y-110825412D01*
X76825466Y-110820602D01*
X76850000Y-110820602D01*
X76850000Y-110820000D01*
X77350000Y-110820000D01*
X77350000Y-112320000D01*
X76850000Y-112320000D01*
X76850000Y-112319398D01*
G37*
G36*
X77650000Y-110820000D02*
G01*
X78150000Y-110820000D01*
X78150000Y-110820602D01*
X78174534Y-110820602D01*
X78223365Y-110825412D01*
X78271490Y-110834984D01*
X78318445Y-110849228D01*
X78363778Y-110868005D01*
X78407051Y-110891136D01*
X78447850Y-110918396D01*
X78485779Y-110949524D01*
X78520476Y-110984221D01*
X78551604Y-111022150D01*
X78578864Y-111062949D01*
X78601995Y-111106222D01*
X78620772Y-111151555D01*
X78635016Y-111198510D01*
X78644588Y-111246635D01*
X78649398Y-111295466D01*
X78649398Y-111320000D01*
X78650000Y-111320000D01*
X78650000Y-111820000D01*
X78649398Y-111820000D01*
X78649398Y-111844534D01*
X78644588Y-111893365D01*
X78635016Y-111941490D01*
X78620772Y-111988445D01*
X78601995Y-112033778D01*
X78578864Y-112077051D01*
X78551604Y-112117850D01*
X78520476Y-112155779D01*
X78485779Y-112190476D01*
X78447850Y-112221604D01*
X78407051Y-112248864D01*
X78363778Y-112271995D01*
X78318445Y-112290772D01*
X78271490Y-112305016D01*
X78223365Y-112314588D01*
X78174534Y-112319398D01*
X78150000Y-112319398D01*
X78150000Y-112320000D01*
X77650000Y-112320000D01*
X77650000Y-110820000D01*
G37*
G36*
X76850000Y-114859398D02*
G01*
X76825466Y-114859398D01*
X76776635Y-114854588D01*
X76728510Y-114845016D01*
X76681555Y-114830772D01*
X76636222Y-114811995D01*
X76592949Y-114788864D01*
X76552150Y-114761604D01*
X76514221Y-114730476D01*
X76479524Y-114695779D01*
X76448396Y-114657850D01*
X76421136Y-114617051D01*
X76398005Y-114573778D01*
X76379228Y-114528445D01*
X76364984Y-114481490D01*
X76355412Y-114433365D01*
X76350602Y-114384534D01*
X76350602Y-114360000D01*
X76350000Y-114360000D01*
X76350000Y-113860000D01*
X76350602Y-113860000D01*
X76350602Y-113835466D01*
X76355412Y-113786635D01*
X76364984Y-113738510D01*
X76379228Y-113691555D01*
X76398005Y-113646222D01*
X76421136Y-113602949D01*
X76448396Y-113562150D01*
X76479524Y-113524221D01*
X76514221Y-113489524D01*
X76552150Y-113458396D01*
X76592949Y-113431136D01*
X76636222Y-113408005D01*
X76681555Y-113389228D01*
X76728510Y-113374984D01*
X76776635Y-113365412D01*
X76825466Y-113360602D01*
X76850000Y-113360602D01*
X76850000Y-113360000D01*
X77350000Y-113360000D01*
X77350000Y-114860000D01*
X76850000Y-114860000D01*
X76850000Y-114859398D01*
G37*
G36*
X77650000Y-113360000D02*
G01*
X78150000Y-113360000D01*
X78150000Y-113360602D01*
X78174534Y-113360602D01*
X78223365Y-113365412D01*
X78271490Y-113374984D01*
X78318445Y-113389228D01*
X78363778Y-113408005D01*
X78407051Y-113431136D01*
X78447850Y-113458396D01*
X78485779Y-113489524D01*
X78520476Y-113524221D01*
X78551604Y-113562150D01*
X78578864Y-113602949D01*
X78601995Y-113646222D01*
X78620772Y-113691555D01*
X78635016Y-113738510D01*
X78644588Y-113786635D01*
X78649398Y-113835466D01*
X78649398Y-113860000D01*
X78650000Y-113860000D01*
X78650000Y-114360000D01*
X78649398Y-114360000D01*
X78649398Y-114384534D01*
X78644588Y-114433365D01*
X78635016Y-114481490D01*
X78620772Y-114528445D01*
X78601995Y-114573778D01*
X78578864Y-114617051D01*
X78551604Y-114657850D01*
X78520476Y-114695779D01*
X78485779Y-114730476D01*
X78447850Y-114761604D01*
X78407051Y-114788864D01*
X78363778Y-114811995D01*
X78318445Y-114830772D01*
X78271490Y-114845016D01*
X78223365Y-114854588D01*
X78174534Y-114859398D01*
X78150000Y-114859398D01*
X78150000Y-114860000D01*
X77650000Y-114860000D01*
X77650000Y-113360000D01*
G37*
G36*
X76850000Y-117399398D02*
G01*
X76825466Y-117399398D01*
X76776635Y-117394588D01*
X76728510Y-117385016D01*
X76681555Y-117370772D01*
X76636222Y-117351995D01*
X76592949Y-117328864D01*
X76552150Y-117301604D01*
X76514221Y-117270476D01*
X76479524Y-117235779D01*
X76448396Y-117197850D01*
X76421136Y-117157051D01*
X76398005Y-117113778D01*
X76379228Y-117068445D01*
X76364984Y-117021490D01*
X76355412Y-116973365D01*
X76350602Y-116924534D01*
X76350602Y-116900000D01*
X76350000Y-116900000D01*
X76350000Y-116400000D01*
X76350602Y-116400000D01*
X76350602Y-116375466D01*
X76355412Y-116326635D01*
X76364984Y-116278510D01*
X76379228Y-116231555D01*
X76398005Y-116186222D01*
X76421136Y-116142949D01*
X76448396Y-116102150D01*
X76479524Y-116064221D01*
X76514221Y-116029524D01*
X76552150Y-115998396D01*
X76592949Y-115971136D01*
X76636222Y-115948005D01*
X76681555Y-115929228D01*
X76728510Y-115914984D01*
X76776635Y-115905412D01*
X76825466Y-115900602D01*
X76850000Y-115900602D01*
X76850000Y-115900000D01*
X77350000Y-115900000D01*
X77350000Y-117400000D01*
X76850000Y-117400000D01*
X76850000Y-117399398D01*
G37*
G36*
X77650000Y-115900000D02*
G01*
X78150000Y-115900000D01*
X78150000Y-115900602D01*
X78174534Y-115900602D01*
X78223365Y-115905412D01*
X78271490Y-115914984D01*
X78318445Y-115929228D01*
X78363778Y-115948005D01*
X78407051Y-115971136D01*
X78447850Y-115998396D01*
X78485779Y-116029524D01*
X78520476Y-116064221D01*
X78551604Y-116102150D01*
X78578864Y-116142949D01*
X78601995Y-116186222D01*
X78620772Y-116231555D01*
X78635016Y-116278510D01*
X78644588Y-116326635D01*
X78649398Y-116375466D01*
X78649398Y-116400000D01*
X78650000Y-116400000D01*
X78650000Y-116900000D01*
X78649398Y-116900000D01*
X78649398Y-116924534D01*
X78644588Y-116973365D01*
X78635016Y-117021490D01*
X78620772Y-117068445D01*
X78601995Y-117113778D01*
X78578864Y-117157051D01*
X78551604Y-117197850D01*
X78520476Y-117235779D01*
X78485779Y-117270476D01*
X78447850Y-117301604D01*
X78407051Y-117328864D01*
X78363778Y-117351995D01*
X78318445Y-117370772D01*
X78271490Y-117385016D01*
X78223365Y-117394588D01*
X78174534Y-117399398D01*
X78150000Y-117399398D01*
X78150000Y-117400000D01*
X77650000Y-117400000D01*
X77650000Y-115900000D01*
G37*
G36*
X76850000Y-119939398D02*
G01*
X76825466Y-119939398D01*
X76776635Y-119934588D01*
X76728510Y-119925016D01*
X76681555Y-119910772D01*
X76636222Y-119891995D01*
X76592949Y-119868864D01*
X76552150Y-119841604D01*
X76514221Y-119810476D01*
X76479524Y-119775779D01*
X76448396Y-119737850D01*
X76421136Y-119697051D01*
X76398005Y-119653778D01*
X76379228Y-119608445D01*
X76364984Y-119561490D01*
X76355412Y-119513365D01*
X76350602Y-119464534D01*
X76350602Y-119440000D01*
X76350000Y-119440000D01*
X76350000Y-118940000D01*
X76350602Y-118940000D01*
X76350602Y-118915466D01*
X76355412Y-118866635D01*
X76364984Y-118818510D01*
X76379228Y-118771555D01*
X76398005Y-118726222D01*
X76421136Y-118682949D01*
X76448396Y-118642150D01*
X76479524Y-118604221D01*
X76514221Y-118569524D01*
X76552150Y-118538396D01*
X76592949Y-118511136D01*
X76636222Y-118488005D01*
X76681555Y-118469228D01*
X76728510Y-118454984D01*
X76776635Y-118445412D01*
X76825466Y-118440602D01*
X76850000Y-118440602D01*
X76850000Y-118440000D01*
X77350000Y-118440000D01*
X77350000Y-119940000D01*
X76850000Y-119940000D01*
X76850000Y-119939398D01*
G37*
G36*
X77650000Y-118440000D02*
G01*
X78150000Y-118440000D01*
X78150000Y-118440602D01*
X78174534Y-118440602D01*
X78223365Y-118445412D01*
X78271490Y-118454984D01*
X78318445Y-118469228D01*
X78363778Y-118488005D01*
X78407051Y-118511136D01*
X78447850Y-118538396D01*
X78485779Y-118569524D01*
X78520476Y-118604221D01*
X78551604Y-118642150D01*
X78578864Y-118682949D01*
X78601995Y-118726222D01*
X78620772Y-118771555D01*
X78635016Y-118818510D01*
X78644588Y-118866635D01*
X78649398Y-118915466D01*
X78649398Y-118940000D01*
X78650000Y-118940000D01*
X78650000Y-119440000D01*
X78649398Y-119440000D01*
X78649398Y-119464534D01*
X78644588Y-119513365D01*
X78635016Y-119561490D01*
X78620772Y-119608445D01*
X78601995Y-119653778D01*
X78578864Y-119697051D01*
X78551604Y-119737850D01*
X78520476Y-119775779D01*
X78485779Y-119810476D01*
X78447850Y-119841604D01*
X78407051Y-119868864D01*
X78363778Y-119891995D01*
X78318445Y-119910772D01*
X78271490Y-119925016D01*
X78223365Y-119934588D01*
X78174534Y-119939398D01*
X78150000Y-119939398D01*
X78150000Y-119940000D01*
X77650000Y-119940000D01*
X77650000Y-118440000D01*
G37*
G36*
X76850000Y-127559398D02*
G01*
X76825466Y-127559398D01*
X76776635Y-127554588D01*
X76728510Y-127545016D01*
X76681555Y-127530772D01*
X76636222Y-127511995D01*
X76592949Y-127488864D01*
X76552150Y-127461604D01*
X76514221Y-127430476D01*
X76479524Y-127395779D01*
X76448396Y-127357850D01*
X76421136Y-127317051D01*
X76398005Y-127273778D01*
X76379228Y-127228445D01*
X76364984Y-127181490D01*
X76355412Y-127133365D01*
X76350602Y-127084534D01*
X76350602Y-127060000D01*
X76350000Y-127060000D01*
X76350000Y-126560000D01*
X76350602Y-126560000D01*
X76350602Y-126535466D01*
X76355412Y-126486635D01*
X76364984Y-126438510D01*
X76379228Y-126391555D01*
X76398005Y-126346222D01*
X76421136Y-126302949D01*
X76448396Y-126262150D01*
X76479524Y-126224221D01*
X76514221Y-126189524D01*
X76552150Y-126158396D01*
X76592949Y-126131136D01*
X76636222Y-126108005D01*
X76681555Y-126089228D01*
X76728510Y-126074984D01*
X76776635Y-126065412D01*
X76825466Y-126060602D01*
X76850000Y-126060602D01*
X76850000Y-126060000D01*
X77350000Y-126060000D01*
X77350000Y-127560000D01*
X76850000Y-127560000D01*
X76850000Y-127559398D01*
G37*
G36*
X77650000Y-126060000D02*
G01*
X78150000Y-126060000D01*
X78150000Y-126060602D01*
X78174534Y-126060602D01*
X78223365Y-126065412D01*
X78271490Y-126074984D01*
X78318445Y-126089228D01*
X78363778Y-126108005D01*
X78407051Y-126131136D01*
X78447850Y-126158396D01*
X78485779Y-126189524D01*
X78520476Y-126224221D01*
X78551604Y-126262150D01*
X78578864Y-126302949D01*
X78601995Y-126346222D01*
X78620772Y-126391555D01*
X78635016Y-126438510D01*
X78644588Y-126486635D01*
X78649398Y-126535466D01*
X78649398Y-126560000D01*
X78650000Y-126560000D01*
X78650000Y-127060000D01*
X78649398Y-127060000D01*
X78649398Y-127084534D01*
X78644588Y-127133365D01*
X78635016Y-127181490D01*
X78620772Y-127228445D01*
X78601995Y-127273778D01*
X78578864Y-127317051D01*
X78551604Y-127357850D01*
X78520476Y-127395779D01*
X78485779Y-127430476D01*
X78447850Y-127461604D01*
X78407051Y-127488864D01*
X78363778Y-127511995D01*
X78318445Y-127530772D01*
X78271490Y-127545016D01*
X78223365Y-127554588D01*
X78174534Y-127559398D01*
X78150000Y-127559398D01*
X78150000Y-127560000D01*
X77650000Y-127560000D01*
X77650000Y-126060000D01*
G37*
G36*
X76850001Y-130099398D02*
G01*
X76825467Y-130099398D01*
X76776636Y-130094588D01*
X76728511Y-130085016D01*
X76681556Y-130070772D01*
X76636223Y-130051995D01*
X76592950Y-130028864D01*
X76552151Y-130001604D01*
X76514222Y-129970476D01*
X76479525Y-129935779D01*
X76448397Y-129897850D01*
X76421137Y-129857051D01*
X76398006Y-129813778D01*
X76379229Y-129768445D01*
X76364985Y-129721490D01*
X76355413Y-129673365D01*
X76350603Y-129624534D01*
X76350603Y-129600000D01*
X76350001Y-129600000D01*
X76350001Y-129100000D01*
X76350603Y-129100000D01*
X76350603Y-129075466D01*
X76355413Y-129026635D01*
X76364985Y-128978510D01*
X76379229Y-128931555D01*
X76398006Y-128886222D01*
X76421137Y-128842949D01*
X76448397Y-128802150D01*
X76479525Y-128764221D01*
X76514222Y-128729524D01*
X76552151Y-128698396D01*
X76592950Y-128671136D01*
X76636223Y-128648005D01*
X76681556Y-128629228D01*
X76728511Y-128614984D01*
X76776636Y-128605412D01*
X76825467Y-128600602D01*
X76850001Y-128600602D01*
X76850001Y-128600000D01*
X77350001Y-128600000D01*
X77350001Y-130100000D01*
X76850001Y-130100000D01*
X76850001Y-130099398D01*
G37*
G36*
X77650001Y-128600000D02*
G01*
X78150001Y-128600000D01*
X78150001Y-128600602D01*
X78174535Y-128600602D01*
X78223366Y-128605412D01*
X78271491Y-128614984D01*
X78318446Y-128629228D01*
X78363779Y-128648005D01*
X78407052Y-128671136D01*
X78447851Y-128698396D01*
X78485780Y-128729524D01*
X78520477Y-128764221D01*
X78551605Y-128802150D01*
X78578865Y-128842949D01*
X78601996Y-128886222D01*
X78620773Y-128931555D01*
X78635017Y-128978510D01*
X78644589Y-129026635D01*
X78649399Y-129075466D01*
X78649399Y-129100000D01*
X78650001Y-129100000D01*
X78650001Y-129600000D01*
X78649399Y-129600000D01*
X78649399Y-129624534D01*
X78644589Y-129673365D01*
X78635017Y-129721490D01*
X78620773Y-129768445D01*
X78601996Y-129813778D01*
X78578865Y-129857051D01*
X78551605Y-129897850D01*
X78520477Y-129935779D01*
X78485780Y-129970476D01*
X78447851Y-130001604D01*
X78407052Y-130028864D01*
X78363779Y-130051995D01*
X78318446Y-130070772D01*
X78271491Y-130085016D01*
X78223366Y-130094588D01*
X78174535Y-130099398D01*
X78150001Y-130099398D01*
X78150001Y-130100000D01*
X77650001Y-130100000D01*
X77650001Y-128600000D01*
G37*
G36*
X76850000Y-132639398D02*
G01*
X76825466Y-132639398D01*
X76776635Y-132634588D01*
X76728510Y-132625016D01*
X76681555Y-132610772D01*
X76636222Y-132591995D01*
X76592949Y-132568864D01*
X76552150Y-132541604D01*
X76514221Y-132510476D01*
X76479524Y-132475779D01*
X76448396Y-132437850D01*
X76421136Y-132397051D01*
X76398005Y-132353778D01*
X76379228Y-132308445D01*
X76364984Y-132261490D01*
X76355412Y-132213365D01*
X76350602Y-132164534D01*
X76350602Y-132140000D01*
X76350000Y-132140000D01*
X76350000Y-131640000D01*
X76350602Y-131640000D01*
X76350602Y-131615466D01*
X76355412Y-131566635D01*
X76364984Y-131518510D01*
X76379228Y-131471555D01*
X76398005Y-131426222D01*
X76421136Y-131382949D01*
X76448396Y-131342150D01*
X76479524Y-131304221D01*
X76514221Y-131269524D01*
X76552150Y-131238396D01*
X76592949Y-131211136D01*
X76636222Y-131188005D01*
X76681555Y-131169228D01*
X76728510Y-131154984D01*
X76776635Y-131145412D01*
X76825466Y-131140602D01*
X76850000Y-131140602D01*
X76850000Y-131140000D01*
X77350000Y-131140000D01*
X77350000Y-132640000D01*
X76850000Y-132640000D01*
X76850000Y-132639398D01*
G37*
G36*
X77650000Y-131140000D02*
G01*
X78150000Y-131140000D01*
X78150000Y-131140602D01*
X78174534Y-131140602D01*
X78223365Y-131145412D01*
X78271490Y-131154984D01*
X78318445Y-131169228D01*
X78363778Y-131188005D01*
X78407051Y-131211136D01*
X78447850Y-131238396D01*
X78485779Y-131269524D01*
X78520476Y-131304221D01*
X78551604Y-131342150D01*
X78578864Y-131382949D01*
X78601995Y-131426222D01*
X78620772Y-131471555D01*
X78635016Y-131518510D01*
X78644588Y-131566635D01*
X78649398Y-131615466D01*
X78649398Y-131640000D01*
X78650000Y-131640000D01*
X78650000Y-132140000D01*
X78649398Y-132140000D01*
X78649398Y-132164534D01*
X78644588Y-132213365D01*
X78635016Y-132261490D01*
X78620772Y-132308445D01*
X78601995Y-132353778D01*
X78578864Y-132397051D01*
X78551604Y-132437850D01*
X78520476Y-132475779D01*
X78485779Y-132510476D01*
X78447850Y-132541604D01*
X78407051Y-132568864D01*
X78363778Y-132591995D01*
X78318445Y-132610772D01*
X78271490Y-132625016D01*
X78223365Y-132634588D01*
X78174534Y-132639398D01*
X78150000Y-132639398D01*
X78150000Y-132640000D01*
X77650000Y-132640000D01*
X77650000Y-131140000D01*
G37*
G36*
X76850000Y-135179398D02*
G01*
X76825466Y-135179398D01*
X76776635Y-135174588D01*
X76728510Y-135165016D01*
X76681555Y-135150772D01*
X76636222Y-135131995D01*
X76592949Y-135108864D01*
X76552150Y-135081604D01*
X76514221Y-135050476D01*
X76479524Y-135015779D01*
X76448396Y-134977850D01*
X76421136Y-134937051D01*
X76398005Y-134893778D01*
X76379228Y-134848445D01*
X76364984Y-134801490D01*
X76355412Y-134753365D01*
X76350602Y-134704534D01*
X76350602Y-134680000D01*
X76350000Y-134680000D01*
X76350000Y-134180000D01*
X76350602Y-134180000D01*
X76350602Y-134155466D01*
X76355412Y-134106635D01*
X76364984Y-134058510D01*
X76379228Y-134011555D01*
X76398005Y-133966222D01*
X76421136Y-133922949D01*
X76448396Y-133882150D01*
X76479524Y-133844221D01*
X76514221Y-133809524D01*
X76552150Y-133778396D01*
X76592949Y-133751136D01*
X76636222Y-133728005D01*
X76681555Y-133709228D01*
X76728510Y-133694984D01*
X76776635Y-133685412D01*
X76825466Y-133680602D01*
X76850000Y-133680602D01*
X76850000Y-133680000D01*
X77350000Y-133680000D01*
X77350000Y-135180000D01*
X76850000Y-135180000D01*
X76850000Y-135179398D01*
G37*
G36*
X77650000Y-133680000D02*
G01*
X78150000Y-133680000D01*
X78150000Y-133680602D01*
X78174534Y-133680602D01*
X78223365Y-133685412D01*
X78271490Y-133694984D01*
X78318445Y-133709228D01*
X78363778Y-133728005D01*
X78407051Y-133751136D01*
X78447850Y-133778396D01*
X78485779Y-133809524D01*
X78520476Y-133844221D01*
X78551604Y-133882150D01*
X78578864Y-133922949D01*
X78601995Y-133966222D01*
X78620772Y-134011555D01*
X78635016Y-134058510D01*
X78644588Y-134106635D01*
X78649398Y-134155466D01*
X78649398Y-134180000D01*
X78650000Y-134180000D01*
X78650000Y-134680000D01*
X78649398Y-134680000D01*
X78649398Y-134704534D01*
X78644588Y-134753365D01*
X78635016Y-134801490D01*
X78620772Y-134848445D01*
X78601995Y-134893778D01*
X78578864Y-134937051D01*
X78551604Y-134977850D01*
X78520476Y-135015779D01*
X78485779Y-135050476D01*
X78447850Y-135081604D01*
X78407051Y-135108864D01*
X78363778Y-135131995D01*
X78318445Y-135150772D01*
X78271490Y-135165016D01*
X78223365Y-135174588D01*
X78174534Y-135179398D01*
X78150000Y-135179398D01*
X78150000Y-135180000D01*
X77650000Y-135180000D01*
X77650000Y-133680000D01*
G37*
D23*
X108392388Y-114607612D03*
G36*
G01*
X103230509Y-117931013D02*
X104786143Y-116375379D01*
G75*
G02*
X106624621Y-116375379I919239J-919239D01*
G01*
X106624621Y-116375379D01*
G75*
G02*
X106624621Y-118213857I-919239J-919239D01*
G01*
X105068987Y-119769491D01*
G75*
G02*
X103230509Y-119769491I-919239J919239D01*
G01*
X103230509Y-119769491D01*
G75*
G02*
X103230509Y-117931013I919239J919239D01*
G01*
G37*
G36*
G01*
X88381267Y-132780255D02*
X89936901Y-131224621D01*
G75*
G02*
X91775379Y-131224621I919239J-919239D01*
G01*
X91775379Y-131224621D01*
G75*
G02*
X91775379Y-133063099I-919239J-919239D01*
G01*
X90219745Y-134618733D01*
G75*
G02*
X88381267Y-134618733I-919239J919239D01*
G01*
X88381267Y-134618733D01*
G75*
G02*
X88381267Y-132780255I919239J919239D01*
G01*
G37*
G36*
G01*
X116200000Y-120800000D02*
X115400000Y-120800000D01*
G75*
G02*
X115000000Y-120400000I0J400000D01*
G01*
X115000000Y-119600000D01*
G75*
G02*
X115400000Y-119200000I400000J0D01*
G01*
X116200000Y-119200000D01*
G75*
G02*
X116600000Y-119600000I0J-400000D01*
G01*
X116600000Y-120400000D01*
G75*
G02*
X116200000Y-120800000I-400000J0D01*
G01*
G37*
D17*
X154000000Y-65500000D03*
G36*
G01*
X153250000Y-62150000D02*
X154750000Y-62150000D01*
G75*
G02*
X155000000Y-62400000I0J-250000D01*
G01*
X155000000Y-63600000D01*
G75*
G02*
X154750000Y-63850000I-250000J0D01*
G01*
X153250000Y-63850000D01*
G75*
G02*
X153000000Y-63600000I0J250000D01*
G01*
X153000000Y-62400000D01*
G75*
G02*
X153250000Y-62150000I250000J0D01*
G01*
G37*
X144000000Y-65500000D03*
G36*
G01*
X143250000Y-62150000D02*
X144750000Y-62150000D01*
G75*
G02*
X145000000Y-62400000I0J-250000D01*
G01*
X145000000Y-63600000D01*
G75*
G02*
X144750000Y-63850000I-250000J0D01*
G01*
X143250000Y-63850000D01*
G75*
G02*
X143000000Y-63600000I0J250000D01*
G01*
X143000000Y-62400000D01*
G75*
G02*
X143250000Y-62150000I250000J0D01*
G01*
G37*
X134000000Y-65500000D03*
G36*
G01*
X133250000Y-62150000D02*
X134750000Y-62150000D01*
G75*
G02*
X135000000Y-62400000I0J-250000D01*
G01*
X135000000Y-63600000D01*
G75*
G02*
X134750000Y-63850000I-250000J0D01*
G01*
X133250000Y-63850000D01*
G75*
G02*
X133000000Y-63600000I0J250000D01*
G01*
X133000000Y-62400000D01*
G75*
G02*
X133250000Y-62150000I250000J0D01*
G01*
G37*
D24*
X83000000Y-124270000D03*
X83000000Y-121730000D03*
X83000000Y-119190000D03*
X83000000Y-116650000D03*
X83000000Y-114110000D03*
X83000000Y-111570000D03*
X83000000Y-126810000D03*
X83000000Y-129350000D03*
X83000000Y-131890000D03*
X83000000Y-134430000D03*
D25*
X70554000Y-134430000D03*
X70554000Y-111570000D03*
D17*
X87250000Y-110250000D03*
G36*
G01*
X88000000Y-113600000D02*
X86500000Y-113600000D01*
G75*
G02*
X86250000Y-113350000I0J250000D01*
G01*
X86250000Y-112150000D01*
G75*
G02*
X86500000Y-111900000I250000J0D01*
G01*
X88000000Y-111900000D01*
G75*
G02*
X88250000Y-112150000I0J-250000D01*
G01*
X88250000Y-113350000D01*
G75*
G02*
X88000000Y-113600000I-250000J0D01*
G01*
G37*
D19*
X154000000Y-80500000D03*
X154000000Y-78000000D03*
X154000000Y-75500000D03*
G36*
G01*
X153275000Y-72150000D02*
X154725000Y-72150000D01*
G75*
G02*
X154975000Y-72400000I0J-250000D01*
G01*
X154975000Y-73600000D01*
G75*
G02*
X154725000Y-73850000I-250000J0D01*
G01*
X153275000Y-73850000D01*
G75*
G02*
X153025000Y-73600000I0J250000D01*
G01*
X153025000Y-72400000D01*
G75*
G02*
X153275000Y-72150000I250000J0D01*
G01*
G37*
X164000000Y-80500000D03*
X164000000Y-78000000D03*
X164000000Y-75500000D03*
G36*
G01*
X163275000Y-72150000D02*
X164725000Y-72150000D01*
G75*
G02*
X164975000Y-72400000I0J-250000D01*
G01*
X164975000Y-73600000D01*
G75*
G02*
X164725000Y-73850000I-250000J0D01*
G01*
X163275000Y-73850000D01*
G75*
G02*
X163025000Y-73600000I0J250000D01*
G01*
X163025000Y-72400000D01*
G75*
G02*
X163275000Y-72150000I250000J0D01*
G01*
G37*
X144000000Y-80500000D03*
X144000000Y-78000000D03*
X144000000Y-75500000D03*
G36*
G01*
X143275000Y-72150000D02*
X144725000Y-72150000D01*
G75*
G02*
X144975000Y-72400000I0J-250000D01*
G01*
X144975000Y-73600000D01*
G75*
G02*
X144725000Y-73850000I-250000J0D01*
G01*
X143275000Y-73850000D01*
G75*
G02*
X143025000Y-73600000I0J250000D01*
G01*
X143025000Y-72400000D01*
G75*
G02*
X143275000Y-72150000I250000J0D01*
G01*
G37*
X164000000Y-58000000D03*
X164000000Y-55500000D03*
G36*
G01*
X163275000Y-52150000D02*
X164725000Y-52150000D01*
G75*
G02*
X164975000Y-52400000I0J-250000D01*
G01*
X164975000Y-53600000D01*
G75*
G02*
X164725000Y-53850000I-250000J0D01*
G01*
X163275000Y-53850000D01*
G75*
G02*
X163025000Y-53600000I0J250000D01*
G01*
X163025000Y-52400000D01*
G75*
G02*
X163275000Y-52150000I250000J0D01*
G01*
G37*
D22*
G36*
X100501165Y-131598374D02*
G01*
X100502000Y-131600000D01*
X100502000Y-131656360D01*
X100501990Y-131656556D01*
X100490109Y-131777195D01*
X100490033Y-131777580D01*
X100456635Y-131887676D01*
X100456485Y-131888038D01*
X100402250Y-131989503D01*
X100402032Y-131989829D01*
X100329044Y-132078767D01*
X100328767Y-132079044D01*
X100239829Y-132152032D01*
X100239503Y-132152250D01*
X100138038Y-132206485D01*
X100137676Y-132206635D01*
X100027580Y-132240033D01*
X100027195Y-132240109D01*
X99906556Y-132251990D01*
X99906360Y-132252000D01*
X99850000Y-132252000D01*
X99848268Y-132251000D01*
X99848268Y-132249000D01*
X99849804Y-132248010D01*
X99976414Y-132235540D01*
X100097975Y-132198665D01*
X100210005Y-132138784D01*
X100308198Y-132058198D01*
X100388784Y-131960005D01*
X100448665Y-131847975D01*
X100485540Y-131726414D01*
X100498010Y-131599804D01*
X100499175Y-131598178D01*
X100501165Y-131598374D01*
G37*
G36*
X97901990Y-131599804D02*
G01*
X97914460Y-131726414D01*
X97951335Y-131847975D01*
X98011216Y-131960005D01*
X98091802Y-132058198D01*
X98189995Y-132138784D01*
X98302025Y-132198665D01*
X98423586Y-132235540D01*
X98550196Y-132248010D01*
X98551822Y-132249175D01*
X98551626Y-132251165D01*
X98550000Y-132252000D01*
X98493640Y-132252000D01*
X98493444Y-132251990D01*
X98372805Y-132240109D01*
X98372420Y-132240033D01*
X98262324Y-132206635D01*
X98261962Y-132206485D01*
X98160497Y-132152250D01*
X98160171Y-132152032D01*
X98071233Y-132079044D01*
X98070956Y-132078767D01*
X97997968Y-131989829D01*
X97997750Y-131989503D01*
X97943515Y-131888038D01*
X97943365Y-131887676D01*
X97909967Y-131777580D01*
X97909891Y-131777195D01*
X97898010Y-131656556D01*
X97898000Y-131656360D01*
X97898000Y-131600000D01*
X97899000Y-131598268D01*
X97901000Y-131598268D01*
X97901990Y-131599804D01*
G37*
G36*
X167301165Y-131398374D02*
G01*
X167302000Y-131400000D01*
X167302000Y-131456360D01*
X167301990Y-131456556D01*
X167294912Y-131528419D01*
X167294836Y-131528804D01*
X167275664Y-131592004D01*
X167275514Y-131592366D01*
X167244380Y-131650615D01*
X167244162Y-131650941D01*
X167202267Y-131701990D01*
X167201990Y-131702267D01*
X167150941Y-131744162D01*
X167150615Y-131744380D01*
X167092366Y-131775514D01*
X167092004Y-131775664D01*
X167028804Y-131794836D01*
X167028419Y-131794912D01*
X166956556Y-131801990D01*
X166956360Y-131802000D01*
X166900000Y-131802000D01*
X166898268Y-131801000D01*
X166898268Y-131799000D01*
X166899804Y-131798010D01*
X166977641Y-131790344D01*
X167052304Y-131767695D01*
X167121112Y-131730917D01*
X167181422Y-131681422D01*
X167230917Y-131621112D01*
X167267695Y-131552304D01*
X167290344Y-131477641D01*
X167298010Y-131399804D01*
X167299175Y-131398178D01*
X167301165Y-131398374D01*
G37*
G36*
X139951990Y-131399804D02*
G01*
X139959656Y-131477641D01*
X139982305Y-131552304D01*
X140019083Y-131621112D01*
X140068578Y-131681422D01*
X140128888Y-131730917D01*
X140197696Y-131767695D01*
X140272359Y-131790344D01*
X140350196Y-131798010D01*
X140351822Y-131799175D01*
X140351626Y-131801165D01*
X140350000Y-131802000D01*
X140293640Y-131802000D01*
X140293444Y-131801990D01*
X140221581Y-131794912D01*
X140221196Y-131794836D01*
X140157996Y-131775664D01*
X140157634Y-131775514D01*
X140099385Y-131744380D01*
X140099059Y-131744162D01*
X140048010Y-131702267D01*
X140047733Y-131701990D01*
X140005838Y-131650941D01*
X140005620Y-131650615D01*
X139974486Y-131592366D01*
X139974336Y-131592004D01*
X139955164Y-131528804D01*
X139955088Y-131528419D01*
X139948010Y-131456556D01*
X139948000Y-131456360D01*
X139948000Y-131400000D01*
X139949000Y-131398268D01*
X139951000Y-131398268D01*
X139951990Y-131399804D01*
G37*
G36*
X165701990Y-131399804D02*
G01*
X165709656Y-131477641D01*
X165732305Y-131552304D01*
X165769083Y-131621112D01*
X165818578Y-131681422D01*
X165878888Y-131730917D01*
X165947696Y-131767695D01*
X166022359Y-131790344D01*
X166100196Y-131798010D01*
X166101822Y-131799175D01*
X166101626Y-131801165D01*
X166100000Y-131802000D01*
X166043640Y-131802000D01*
X166043444Y-131801990D01*
X165971581Y-131794912D01*
X165971196Y-131794836D01*
X165907996Y-131775664D01*
X165907634Y-131775514D01*
X165849385Y-131744380D01*
X165849059Y-131744162D01*
X165798010Y-131702267D01*
X165797733Y-131701990D01*
X165755838Y-131650941D01*
X165755620Y-131650615D01*
X165724486Y-131592366D01*
X165724336Y-131592004D01*
X165705164Y-131528804D01*
X165705088Y-131528419D01*
X165698010Y-131456556D01*
X165698000Y-131456360D01*
X165698000Y-131400000D01*
X165699000Y-131398268D01*
X165701000Y-131398268D01*
X165701990Y-131399804D01*
G37*
G36*
X141551165Y-131398374D02*
G01*
X141552000Y-131400000D01*
X141552000Y-131456360D01*
X141551990Y-131456556D01*
X141544912Y-131528419D01*
X141544836Y-131528804D01*
X141525664Y-131592004D01*
X141525514Y-131592366D01*
X141494380Y-131650615D01*
X141494162Y-131650941D01*
X141452267Y-131701990D01*
X141451990Y-131702267D01*
X141400941Y-131744162D01*
X141400615Y-131744380D01*
X141342366Y-131775514D01*
X141342004Y-131775664D01*
X141278804Y-131794836D01*
X141278419Y-131794912D01*
X141206556Y-131801990D01*
X141206360Y-131802000D01*
X141150000Y-131802000D01*
X141148268Y-131801000D01*
X141148268Y-131799000D01*
X141149804Y-131798010D01*
X141227641Y-131790344D01*
X141302304Y-131767695D01*
X141371112Y-131730917D01*
X141431422Y-131681422D01*
X141480917Y-131621112D01*
X141517695Y-131552304D01*
X141540344Y-131477641D01*
X141548010Y-131399804D01*
X141549175Y-131398178D01*
X141551165Y-131398374D01*
G37*
G36*
X140351732Y-130199000D02*
G01*
X140351732Y-130201000D01*
X140350196Y-130201990D01*
X140272359Y-130209656D01*
X140197696Y-130232305D01*
X140128888Y-130269083D01*
X140068578Y-130318578D01*
X140019083Y-130378888D01*
X139982305Y-130447696D01*
X139959656Y-130522359D01*
X139951990Y-130600196D01*
X139950825Y-130601822D01*
X139948835Y-130601626D01*
X139948000Y-130600000D01*
X139948000Y-130543640D01*
X139948010Y-130543444D01*
X139955088Y-130471581D01*
X139955164Y-130471196D01*
X139974336Y-130407996D01*
X139974486Y-130407634D01*
X140005620Y-130349385D01*
X140005838Y-130349059D01*
X140047733Y-130298010D01*
X140048010Y-130297733D01*
X140099059Y-130255838D01*
X140099385Y-130255620D01*
X140157634Y-130224486D01*
X140157996Y-130224336D01*
X140221196Y-130205164D01*
X140221581Y-130205088D01*
X140293444Y-130198010D01*
X140293640Y-130198000D01*
X140350000Y-130198000D01*
X140351732Y-130199000D01*
G37*
G36*
X166101732Y-130199000D02*
G01*
X166101732Y-130201000D01*
X166100196Y-130201990D01*
X166022359Y-130209656D01*
X165947696Y-130232305D01*
X165878888Y-130269083D01*
X165818578Y-130318578D01*
X165769083Y-130378888D01*
X165732305Y-130447696D01*
X165709656Y-130522359D01*
X165701990Y-130600196D01*
X165700825Y-130601822D01*
X165698835Y-130601626D01*
X165698000Y-130600000D01*
X165698000Y-130543640D01*
X165698010Y-130543444D01*
X165705088Y-130471581D01*
X165705164Y-130471196D01*
X165724336Y-130407996D01*
X165724486Y-130407634D01*
X165755620Y-130349385D01*
X165755838Y-130349059D01*
X165797733Y-130298010D01*
X165798010Y-130297733D01*
X165849059Y-130255838D01*
X165849385Y-130255620D01*
X165907634Y-130224486D01*
X165907996Y-130224336D01*
X165971196Y-130205164D01*
X165971581Y-130205088D01*
X166043444Y-130198010D01*
X166043640Y-130198000D01*
X166100000Y-130198000D01*
X166101732Y-130199000D01*
G37*
G36*
X166956556Y-130198010D02*
G01*
X167028419Y-130205088D01*
X167028804Y-130205164D01*
X167092004Y-130224336D01*
X167092366Y-130224486D01*
X167150615Y-130255620D01*
X167150941Y-130255838D01*
X167201990Y-130297733D01*
X167202267Y-130298010D01*
X167244162Y-130349059D01*
X167244380Y-130349385D01*
X167275514Y-130407634D01*
X167275664Y-130407996D01*
X167294836Y-130471196D01*
X167294912Y-130471581D01*
X167301990Y-130543444D01*
X167302000Y-130543640D01*
X167302000Y-130600000D01*
X167301000Y-130601732D01*
X167299000Y-130601732D01*
X167298010Y-130600196D01*
X167290344Y-130522359D01*
X167267695Y-130447696D01*
X167230917Y-130378888D01*
X167181422Y-130318578D01*
X167121112Y-130269083D01*
X167052304Y-130232305D01*
X166977641Y-130209656D01*
X166899804Y-130201990D01*
X166898178Y-130200825D01*
X166898374Y-130198835D01*
X166900000Y-130198000D01*
X166956360Y-130198000D01*
X166956556Y-130198010D01*
G37*
G36*
X141206556Y-130198010D02*
G01*
X141278419Y-130205088D01*
X141278804Y-130205164D01*
X141342004Y-130224336D01*
X141342366Y-130224486D01*
X141400615Y-130255620D01*
X141400941Y-130255838D01*
X141451990Y-130297733D01*
X141452267Y-130298010D01*
X141494162Y-130349059D01*
X141494380Y-130349385D01*
X141525514Y-130407634D01*
X141525664Y-130407996D01*
X141544836Y-130471196D01*
X141544912Y-130471581D01*
X141551990Y-130543444D01*
X141552000Y-130543640D01*
X141552000Y-130600000D01*
X141551000Y-130601732D01*
X141549000Y-130601732D01*
X141548010Y-130600196D01*
X141540344Y-130522359D01*
X141517695Y-130447696D01*
X141480917Y-130378888D01*
X141431422Y-130318578D01*
X141371112Y-130269083D01*
X141302304Y-130232305D01*
X141227641Y-130209656D01*
X141149804Y-130201990D01*
X141148178Y-130200825D01*
X141148374Y-130198835D01*
X141150000Y-130198000D01*
X141206360Y-130198000D01*
X141206556Y-130198010D01*
G37*
G36*
X165701990Y-128899804D02*
G01*
X165709656Y-128977641D01*
X165732305Y-129052304D01*
X165769083Y-129121112D01*
X165818578Y-129181422D01*
X165878888Y-129230917D01*
X165947696Y-129267695D01*
X166022359Y-129290344D01*
X166100196Y-129298010D01*
X166101822Y-129299175D01*
X166101626Y-129301165D01*
X166100000Y-129302000D01*
X166043640Y-129302000D01*
X166043444Y-129301990D01*
X165971581Y-129294912D01*
X165971196Y-129294836D01*
X165907996Y-129275664D01*
X165907634Y-129275514D01*
X165849385Y-129244380D01*
X165849059Y-129244162D01*
X165798010Y-129202267D01*
X165797733Y-129201990D01*
X165755838Y-129150941D01*
X165755620Y-129150615D01*
X165724486Y-129092366D01*
X165724336Y-129092004D01*
X165705164Y-129028804D01*
X165705088Y-129028419D01*
X165698010Y-128956556D01*
X165698000Y-128956360D01*
X165698000Y-128900000D01*
X165699000Y-128898268D01*
X165701000Y-128898268D01*
X165701990Y-128899804D01*
G37*
G36*
X167301165Y-128898374D02*
G01*
X167302000Y-128900000D01*
X167302000Y-128956360D01*
X167301990Y-128956556D01*
X167294912Y-129028419D01*
X167294836Y-129028804D01*
X167275664Y-129092004D01*
X167275514Y-129092366D01*
X167244380Y-129150615D01*
X167244162Y-129150941D01*
X167202267Y-129201990D01*
X167201990Y-129202267D01*
X167150941Y-129244162D01*
X167150615Y-129244380D01*
X167092366Y-129275514D01*
X167092004Y-129275664D01*
X167028804Y-129294836D01*
X167028419Y-129294912D01*
X166956556Y-129301990D01*
X166956360Y-129302000D01*
X166900000Y-129302000D01*
X166898268Y-129301000D01*
X166898268Y-129299000D01*
X166899804Y-129298010D01*
X166977641Y-129290344D01*
X167052304Y-129267695D01*
X167121112Y-129230917D01*
X167181422Y-129181422D01*
X167230917Y-129121112D01*
X167267695Y-129052304D01*
X167290344Y-128977641D01*
X167298010Y-128899804D01*
X167299175Y-128898178D01*
X167301165Y-128898374D01*
G37*
G36*
X98551732Y-128349000D02*
G01*
X98551732Y-128351000D01*
X98550196Y-128351990D01*
X98423586Y-128364460D01*
X98302025Y-128401335D01*
X98189995Y-128461216D01*
X98091802Y-128541802D01*
X98011216Y-128639995D01*
X97951335Y-128752025D01*
X97914460Y-128873586D01*
X97901990Y-129000196D01*
X97900825Y-129001822D01*
X97898835Y-129001626D01*
X97898000Y-129000000D01*
X97898000Y-128943640D01*
X97898010Y-128943444D01*
X97909891Y-128822805D01*
X97909967Y-128822420D01*
X97943365Y-128712324D01*
X97943515Y-128711962D01*
X97997750Y-128610497D01*
X97997968Y-128610171D01*
X98070956Y-128521233D01*
X98071233Y-128520956D01*
X98160171Y-128447968D01*
X98160497Y-128447750D01*
X98261962Y-128393515D01*
X98262324Y-128393365D01*
X98372420Y-128359967D01*
X98372805Y-128359891D01*
X98493444Y-128348010D01*
X98493640Y-128348000D01*
X98550000Y-128348000D01*
X98551732Y-128349000D01*
G37*
G36*
X99906556Y-128348010D02*
G01*
X100027195Y-128359891D01*
X100027580Y-128359967D01*
X100137676Y-128393365D01*
X100138038Y-128393515D01*
X100239503Y-128447750D01*
X100239829Y-128447968D01*
X100328767Y-128520956D01*
X100329044Y-128521233D01*
X100402032Y-128610171D01*
X100402250Y-128610497D01*
X100456485Y-128711962D01*
X100456635Y-128712324D01*
X100490033Y-128822420D01*
X100490109Y-128822805D01*
X100501990Y-128943444D01*
X100502000Y-128943640D01*
X100502000Y-129000000D01*
X100501000Y-129001732D01*
X100499000Y-129001732D01*
X100498010Y-129000196D01*
X100485540Y-128873586D01*
X100448665Y-128752025D01*
X100388784Y-128639995D01*
X100308198Y-128541802D01*
X100210005Y-128461216D01*
X100097975Y-128401335D01*
X99976414Y-128364460D01*
X99849804Y-128351990D01*
X99848178Y-128350825D01*
X99848374Y-128348835D01*
X99850000Y-128348000D01*
X99906360Y-128348000D01*
X99906556Y-128348010D01*
G37*
G36*
X166101732Y-127699000D02*
G01*
X166101732Y-127701000D01*
X166100196Y-127701990D01*
X166022359Y-127709656D01*
X165947696Y-127732305D01*
X165878888Y-127769083D01*
X165818578Y-127818578D01*
X165769083Y-127878888D01*
X165732305Y-127947696D01*
X165709656Y-128022359D01*
X165701990Y-128100196D01*
X165700825Y-128101822D01*
X165698835Y-128101626D01*
X165698000Y-128100000D01*
X165698000Y-128043640D01*
X165698010Y-128043444D01*
X165705088Y-127971581D01*
X165705164Y-127971196D01*
X165724336Y-127907996D01*
X165724486Y-127907634D01*
X165755620Y-127849385D01*
X165755838Y-127849059D01*
X165797733Y-127798010D01*
X165798010Y-127797733D01*
X165849059Y-127755838D01*
X165849385Y-127755620D01*
X165907634Y-127724486D01*
X165907996Y-127724336D01*
X165971196Y-127705164D01*
X165971581Y-127705088D01*
X166043444Y-127698010D01*
X166043640Y-127698000D01*
X166100000Y-127698000D01*
X166101732Y-127699000D01*
G37*
G36*
X166956556Y-127698010D02*
G01*
X167028419Y-127705088D01*
X167028804Y-127705164D01*
X167092004Y-127724336D01*
X167092366Y-127724486D01*
X167150615Y-127755620D01*
X167150941Y-127755838D01*
X167201990Y-127797733D01*
X167202267Y-127798010D01*
X167244162Y-127849059D01*
X167244380Y-127849385D01*
X167275514Y-127907634D01*
X167275664Y-127907996D01*
X167294836Y-127971196D01*
X167294912Y-127971581D01*
X167301990Y-128043444D01*
X167302000Y-128043640D01*
X167302000Y-128100000D01*
X167301000Y-128101732D01*
X167299000Y-128101732D01*
X167298010Y-128100196D01*
X167290344Y-128022359D01*
X167267695Y-127947696D01*
X167230917Y-127878888D01*
X167181422Y-127818578D01*
X167121112Y-127769083D01*
X167052304Y-127732305D01*
X166977641Y-127709656D01*
X166899804Y-127701990D01*
X166898178Y-127700825D01*
X166898374Y-127698835D01*
X166900000Y-127698000D01*
X166956360Y-127698000D01*
X166956556Y-127698010D01*
G37*
G36*
X141551165Y-126398374D02*
G01*
X141552000Y-126400000D01*
X141552000Y-126456360D01*
X141551990Y-126456556D01*
X141544912Y-126528419D01*
X141544836Y-126528804D01*
X141525664Y-126592004D01*
X141525514Y-126592366D01*
X141494380Y-126650615D01*
X141494162Y-126650941D01*
X141452267Y-126701990D01*
X141451990Y-126702267D01*
X141400941Y-126744162D01*
X141400615Y-126744380D01*
X141342366Y-126775514D01*
X141342004Y-126775664D01*
X141278804Y-126794836D01*
X141278419Y-126794912D01*
X141206556Y-126801990D01*
X141206360Y-126802000D01*
X141150000Y-126802000D01*
X141148268Y-126801000D01*
X141148268Y-126799000D01*
X141149804Y-126798010D01*
X141227641Y-126790344D01*
X141302304Y-126767695D01*
X141371112Y-126730917D01*
X141431422Y-126681422D01*
X141480917Y-126621112D01*
X141517695Y-126552304D01*
X141540344Y-126477641D01*
X141548010Y-126399804D01*
X141549175Y-126398178D01*
X141551165Y-126398374D01*
G37*
G36*
X165701990Y-126399804D02*
G01*
X165709656Y-126477641D01*
X165732305Y-126552304D01*
X165769083Y-126621112D01*
X165818578Y-126681422D01*
X165878888Y-126730917D01*
X165947696Y-126767695D01*
X166022359Y-126790344D01*
X166100196Y-126798010D01*
X166101822Y-126799175D01*
X166101626Y-126801165D01*
X166100000Y-126802000D01*
X166043640Y-126802000D01*
X166043444Y-126801990D01*
X165971581Y-126794912D01*
X165971196Y-126794836D01*
X165907996Y-126775664D01*
X165907634Y-126775514D01*
X165849385Y-126744380D01*
X165849059Y-126744162D01*
X165798010Y-126702267D01*
X165797733Y-126701990D01*
X165755838Y-126650941D01*
X165755620Y-126650615D01*
X165724486Y-126592366D01*
X165724336Y-126592004D01*
X165705164Y-126528804D01*
X165705088Y-126528419D01*
X165698010Y-126456556D01*
X165698000Y-126456360D01*
X165698000Y-126400000D01*
X165699000Y-126398268D01*
X165701000Y-126398268D01*
X165701990Y-126399804D01*
G37*
G36*
X167301165Y-126398374D02*
G01*
X167302000Y-126400000D01*
X167302000Y-126456360D01*
X167301990Y-126456556D01*
X167294912Y-126528419D01*
X167294836Y-126528804D01*
X167275664Y-126592004D01*
X167275514Y-126592366D01*
X167244380Y-126650615D01*
X167244162Y-126650941D01*
X167202267Y-126701990D01*
X167201990Y-126702267D01*
X167150941Y-126744162D01*
X167150615Y-126744380D01*
X167092366Y-126775514D01*
X167092004Y-126775664D01*
X167028804Y-126794836D01*
X167028419Y-126794912D01*
X166956556Y-126801990D01*
X166956360Y-126802000D01*
X166900000Y-126802000D01*
X166898268Y-126801000D01*
X166898268Y-126799000D01*
X166899804Y-126798010D01*
X166977641Y-126790344D01*
X167052304Y-126767695D01*
X167121112Y-126730917D01*
X167181422Y-126681422D01*
X167230917Y-126621112D01*
X167267695Y-126552304D01*
X167290344Y-126477641D01*
X167298010Y-126399804D01*
X167299175Y-126398178D01*
X167301165Y-126398374D01*
G37*
G36*
X139951990Y-126399804D02*
G01*
X139959656Y-126477641D01*
X139982305Y-126552304D01*
X140019083Y-126621112D01*
X140068578Y-126681422D01*
X140128888Y-126730917D01*
X140197696Y-126767695D01*
X140272359Y-126790344D01*
X140350196Y-126798010D01*
X140351822Y-126799175D01*
X140351626Y-126801165D01*
X140350000Y-126802000D01*
X140293640Y-126802000D01*
X140293444Y-126801990D01*
X140221581Y-126794912D01*
X140221196Y-126794836D01*
X140157996Y-126775664D01*
X140157634Y-126775514D01*
X140099385Y-126744380D01*
X140099059Y-126744162D01*
X140048010Y-126702267D01*
X140047733Y-126701990D01*
X140005838Y-126650941D01*
X140005620Y-126650615D01*
X139974486Y-126592366D01*
X139974336Y-126592004D01*
X139955164Y-126528804D01*
X139955088Y-126528419D01*
X139948010Y-126456556D01*
X139948000Y-126456360D01*
X139948000Y-126400000D01*
X139949000Y-126398268D01*
X139951000Y-126398268D01*
X139951990Y-126399804D01*
G37*
G36*
X166101732Y-125199000D02*
G01*
X166101732Y-125201000D01*
X166100196Y-125201990D01*
X166022359Y-125209656D01*
X165947696Y-125232305D01*
X165878888Y-125269083D01*
X165818578Y-125318578D01*
X165769083Y-125378888D01*
X165732305Y-125447696D01*
X165709656Y-125522359D01*
X165701990Y-125600196D01*
X165700825Y-125601822D01*
X165698835Y-125601626D01*
X165698000Y-125600000D01*
X165698000Y-125543640D01*
X165698010Y-125543444D01*
X165705088Y-125471581D01*
X165705164Y-125471196D01*
X165724336Y-125407996D01*
X165724486Y-125407634D01*
X165755620Y-125349385D01*
X165755838Y-125349059D01*
X165797733Y-125298010D01*
X165798010Y-125297733D01*
X165849059Y-125255838D01*
X165849385Y-125255620D01*
X165907634Y-125224486D01*
X165907996Y-125224336D01*
X165971196Y-125205164D01*
X165971581Y-125205088D01*
X166043444Y-125198010D01*
X166043640Y-125198000D01*
X166100000Y-125198000D01*
X166101732Y-125199000D01*
G37*
G36*
X140351732Y-125199000D02*
G01*
X140351732Y-125201000D01*
X140350196Y-125201990D01*
X140272359Y-125209656D01*
X140197696Y-125232305D01*
X140128888Y-125269083D01*
X140068578Y-125318578D01*
X140019083Y-125378888D01*
X139982305Y-125447696D01*
X139959656Y-125522359D01*
X139951990Y-125600196D01*
X139950825Y-125601822D01*
X139948835Y-125601626D01*
X139948000Y-125600000D01*
X139948000Y-125543640D01*
X139948010Y-125543444D01*
X139955088Y-125471581D01*
X139955164Y-125471196D01*
X139974336Y-125407996D01*
X139974486Y-125407634D01*
X140005620Y-125349385D01*
X140005838Y-125349059D01*
X140047733Y-125298010D01*
X140048010Y-125297733D01*
X140099059Y-125255838D01*
X140099385Y-125255620D01*
X140157634Y-125224486D01*
X140157996Y-125224336D01*
X140221196Y-125205164D01*
X140221581Y-125205088D01*
X140293444Y-125198010D01*
X140293640Y-125198000D01*
X140350000Y-125198000D01*
X140351732Y-125199000D01*
G37*
G36*
X166956556Y-125198010D02*
G01*
X167028419Y-125205088D01*
X167028804Y-125205164D01*
X167092004Y-125224336D01*
X167092366Y-125224486D01*
X167150615Y-125255620D01*
X167150941Y-125255838D01*
X167201990Y-125297733D01*
X167202267Y-125298010D01*
X167244162Y-125349059D01*
X167244380Y-125349385D01*
X167275514Y-125407634D01*
X167275664Y-125407996D01*
X167294836Y-125471196D01*
X167294912Y-125471581D01*
X167301990Y-125543444D01*
X167302000Y-125543640D01*
X167302000Y-125600000D01*
X167301000Y-125601732D01*
X167299000Y-125601732D01*
X167298010Y-125600196D01*
X167290344Y-125522359D01*
X167267695Y-125447696D01*
X167230917Y-125378888D01*
X167181422Y-125318578D01*
X167121112Y-125269083D01*
X167052304Y-125232305D01*
X166977641Y-125209656D01*
X166899804Y-125201990D01*
X166898178Y-125200825D01*
X166898374Y-125198835D01*
X166900000Y-125198000D01*
X166956360Y-125198000D01*
X166956556Y-125198010D01*
G37*
G36*
X141206556Y-125198010D02*
G01*
X141278419Y-125205088D01*
X141278804Y-125205164D01*
X141342004Y-125224336D01*
X141342366Y-125224486D01*
X141400615Y-125255620D01*
X141400941Y-125255838D01*
X141451990Y-125297733D01*
X141452267Y-125298010D01*
X141494162Y-125349059D01*
X141494380Y-125349385D01*
X141525514Y-125407634D01*
X141525664Y-125407996D01*
X141544836Y-125471196D01*
X141544912Y-125471581D01*
X141551990Y-125543444D01*
X141552000Y-125543640D01*
X141552000Y-125600000D01*
X141551000Y-125601732D01*
X141549000Y-125601732D01*
X141548010Y-125600196D01*
X141540344Y-125522359D01*
X141517695Y-125447696D01*
X141480917Y-125378888D01*
X141431422Y-125318578D01*
X141371112Y-125269083D01*
X141302304Y-125232305D01*
X141227641Y-125209656D01*
X141149804Y-125201990D01*
X141148178Y-125200825D01*
X141148374Y-125198835D01*
X141150000Y-125198000D01*
X141206360Y-125198000D01*
X141206556Y-125198010D01*
G37*
G36*
X167301165Y-123898374D02*
G01*
X167302000Y-123900000D01*
X167302000Y-123956360D01*
X167301990Y-123956556D01*
X167294912Y-124028419D01*
X167294836Y-124028804D01*
X167275664Y-124092004D01*
X167275514Y-124092366D01*
X167244380Y-124150615D01*
X167244162Y-124150941D01*
X167202267Y-124201990D01*
X167201990Y-124202267D01*
X167150941Y-124244162D01*
X167150615Y-124244380D01*
X167092366Y-124275514D01*
X167092004Y-124275664D01*
X167028804Y-124294836D01*
X167028419Y-124294912D01*
X166956556Y-124301990D01*
X166956360Y-124302000D01*
X166900000Y-124302000D01*
X166898268Y-124301000D01*
X166898268Y-124299000D01*
X166899804Y-124298010D01*
X166977641Y-124290344D01*
X167052304Y-124267695D01*
X167121112Y-124230917D01*
X167181422Y-124181422D01*
X167230917Y-124121112D01*
X167267695Y-124052304D01*
X167290344Y-123977641D01*
X167298010Y-123899804D01*
X167299175Y-123898178D01*
X167301165Y-123898374D01*
G37*
G36*
X165701990Y-123899804D02*
G01*
X165709656Y-123977641D01*
X165732305Y-124052304D01*
X165769083Y-124121112D01*
X165818578Y-124181422D01*
X165878888Y-124230917D01*
X165947696Y-124267695D01*
X166022359Y-124290344D01*
X166100196Y-124298010D01*
X166101822Y-124299175D01*
X166101626Y-124301165D01*
X166100000Y-124302000D01*
X166043640Y-124302000D01*
X166043444Y-124301990D01*
X165971581Y-124294912D01*
X165971196Y-124294836D01*
X165907996Y-124275664D01*
X165907634Y-124275514D01*
X165849385Y-124244380D01*
X165849059Y-124244162D01*
X165798010Y-124202267D01*
X165797733Y-124201990D01*
X165755838Y-124150941D01*
X165755620Y-124150615D01*
X165724486Y-124092366D01*
X165724336Y-124092004D01*
X165705164Y-124028804D01*
X165705088Y-124028419D01*
X165698010Y-123956556D01*
X165698000Y-123956360D01*
X165698000Y-123900000D01*
X165699000Y-123898268D01*
X165701000Y-123898268D01*
X165701990Y-123899804D01*
G37*
G36*
X166101732Y-122699000D02*
G01*
X166101732Y-122701000D01*
X166100196Y-122701990D01*
X166022359Y-122709656D01*
X165947696Y-122732305D01*
X165878888Y-122769083D01*
X165818578Y-122818578D01*
X165769083Y-122878888D01*
X165732305Y-122947696D01*
X165709656Y-123022359D01*
X165701990Y-123100196D01*
X165700825Y-123101822D01*
X165698835Y-123101626D01*
X165698000Y-123100000D01*
X165698000Y-123043640D01*
X165698010Y-123043444D01*
X165705088Y-122971581D01*
X165705164Y-122971196D01*
X165724336Y-122907996D01*
X165724486Y-122907634D01*
X165755620Y-122849385D01*
X165755838Y-122849059D01*
X165797733Y-122798010D01*
X165798010Y-122797733D01*
X165849059Y-122755838D01*
X165849385Y-122755620D01*
X165907634Y-122724486D01*
X165907996Y-122724336D01*
X165971196Y-122705164D01*
X165971581Y-122705088D01*
X166043444Y-122698010D01*
X166043640Y-122698000D01*
X166100000Y-122698000D01*
X166101732Y-122699000D01*
G37*
G36*
X166956556Y-122698010D02*
G01*
X167028419Y-122705088D01*
X167028804Y-122705164D01*
X167092004Y-122724336D01*
X167092366Y-122724486D01*
X167150615Y-122755620D01*
X167150941Y-122755838D01*
X167201990Y-122797733D01*
X167202267Y-122798010D01*
X167244162Y-122849059D01*
X167244380Y-122849385D01*
X167275514Y-122907634D01*
X167275664Y-122907996D01*
X167294836Y-122971196D01*
X167294912Y-122971581D01*
X167301990Y-123043444D01*
X167302000Y-123043640D01*
X167302000Y-123100000D01*
X167301000Y-123101732D01*
X167299000Y-123101732D01*
X167298010Y-123100196D01*
X167290344Y-123022359D01*
X167267695Y-122947696D01*
X167230917Y-122878888D01*
X167181422Y-122818578D01*
X167121112Y-122769083D01*
X167052304Y-122732305D01*
X166977641Y-122709656D01*
X166899804Y-122701990D01*
X166898178Y-122700825D01*
X166898374Y-122698835D01*
X166900000Y-122698000D01*
X166956360Y-122698000D01*
X166956556Y-122698010D01*
G37*
G36*
X86301165Y-122128374D02*
G01*
X86302000Y-122130000D01*
X86302000Y-122186360D01*
X86301990Y-122186556D01*
X86294912Y-122258419D01*
X86294836Y-122258804D01*
X86275664Y-122322004D01*
X86275514Y-122322366D01*
X86244380Y-122380615D01*
X86244162Y-122380941D01*
X86202267Y-122431990D01*
X86201990Y-122432267D01*
X86150941Y-122474162D01*
X86150615Y-122474380D01*
X86092366Y-122505514D01*
X86092004Y-122505664D01*
X86028804Y-122524836D01*
X86028419Y-122524912D01*
X85956556Y-122531990D01*
X85956360Y-122532000D01*
X85900000Y-122532000D01*
X85898268Y-122531000D01*
X85898268Y-122529000D01*
X85899804Y-122528010D01*
X85977641Y-122520344D01*
X86052304Y-122497695D01*
X86121112Y-122460917D01*
X86181422Y-122411422D01*
X86230917Y-122351112D01*
X86267695Y-122282304D01*
X86290344Y-122207641D01*
X86298010Y-122129804D01*
X86299175Y-122128178D01*
X86301165Y-122128374D01*
G37*
G36*
X84701990Y-122129804D02*
G01*
X84709656Y-122207641D01*
X84732305Y-122282304D01*
X84769083Y-122351112D01*
X84818578Y-122411422D01*
X84878888Y-122460917D01*
X84947696Y-122497695D01*
X85022359Y-122520344D01*
X85100196Y-122528010D01*
X85101822Y-122529175D01*
X85101626Y-122531165D01*
X85100000Y-122532000D01*
X85043640Y-122532000D01*
X85043444Y-122531990D01*
X84971581Y-122524912D01*
X84971196Y-122524836D01*
X84907996Y-122505664D01*
X84907634Y-122505514D01*
X84849385Y-122474380D01*
X84849059Y-122474162D01*
X84798010Y-122432267D01*
X84797733Y-122431990D01*
X84755838Y-122380941D01*
X84755620Y-122380615D01*
X84724486Y-122322366D01*
X84724336Y-122322004D01*
X84705164Y-122258804D01*
X84705088Y-122258419D01*
X84698010Y-122186556D01*
X84698000Y-122186360D01*
X84698000Y-122130000D01*
X84699000Y-122128268D01*
X84701000Y-122128268D01*
X84701990Y-122129804D01*
G37*
G36*
X167301165Y-121398374D02*
G01*
X167302000Y-121400000D01*
X167302000Y-121456360D01*
X167301990Y-121456556D01*
X167294912Y-121528419D01*
X167294836Y-121528804D01*
X167275664Y-121592004D01*
X167275514Y-121592366D01*
X167244380Y-121650615D01*
X167244162Y-121650941D01*
X167202267Y-121701990D01*
X167201990Y-121702267D01*
X167150941Y-121744162D01*
X167150615Y-121744380D01*
X167092366Y-121775514D01*
X167092004Y-121775664D01*
X167028804Y-121794836D01*
X167028419Y-121794912D01*
X166956556Y-121801990D01*
X166956360Y-121802000D01*
X166900000Y-121802000D01*
X166898268Y-121801000D01*
X166898268Y-121799000D01*
X166899804Y-121798010D01*
X166977641Y-121790344D01*
X167052304Y-121767695D01*
X167121112Y-121730917D01*
X167181422Y-121681422D01*
X167230917Y-121621112D01*
X167267695Y-121552304D01*
X167290344Y-121477641D01*
X167298010Y-121399804D01*
X167299175Y-121398178D01*
X167301165Y-121398374D01*
G37*
G36*
X165701990Y-121399804D02*
G01*
X165709656Y-121477641D01*
X165732305Y-121552304D01*
X165769083Y-121621112D01*
X165818578Y-121681422D01*
X165878888Y-121730917D01*
X165947696Y-121767695D01*
X166022359Y-121790344D01*
X166100196Y-121798010D01*
X166101822Y-121799175D01*
X166101626Y-121801165D01*
X166100000Y-121802000D01*
X166043640Y-121802000D01*
X166043444Y-121801990D01*
X165971581Y-121794912D01*
X165971196Y-121794836D01*
X165907996Y-121775664D01*
X165907634Y-121775514D01*
X165849385Y-121744380D01*
X165849059Y-121744162D01*
X165798010Y-121702267D01*
X165797733Y-121701990D01*
X165755838Y-121650941D01*
X165755620Y-121650615D01*
X165724486Y-121592366D01*
X165724336Y-121592004D01*
X165705164Y-121528804D01*
X165705088Y-121528419D01*
X165698010Y-121456556D01*
X165698000Y-121456360D01*
X165698000Y-121400000D01*
X165699000Y-121398268D01*
X165701000Y-121398268D01*
X165701990Y-121399804D01*
G37*
G36*
X85101732Y-120929000D02*
G01*
X85101732Y-120931000D01*
X85100196Y-120931990D01*
X85022359Y-120939656D01*
X84947696Y-120962305D01*
X84878888Y-120999083D01*
X84818578Y-121048578D01*
X84769083Y-121108888D01*
X84732305Y-121177696D01*
X84709656Y-121252359D01*
X84701990Y-121330196D01*
X84700825Y-121331822D01*
X84698835Y-121331626D01*
X84698000Y-121330000D01*
X84698000Y-121273640D01*
X84698010Y-121273444D01*
X84705088Y-121201581D01*
X84705164Y-121201196D01*
X84724336Y-121137996D01*
X84724486Y-121137634D01*
X84755620Y-121079385D01*
X84755838Y-121079059D01*
X84797733Y-121028010D01*
X84798010Y-121027733D01*
X84849059Y-120985838D01*
X84849385Y-120985620D01*
X84907634Y-120954486D01*
X84907996Y-120954336D01*
X84971196Y-120935164D01*
X84971581Y-120935088D01*
X85043444Y-120928010D01*
X85043640Y-120928000D01*
X85100000Y-120928000D01*
X85101732Y-120929000D01*
G37*
G36*
X85956556Y-120928010D02*
G01*
X86028419Y-120935088D01*
X86028804Y-120935164D01*
X86092004Y-120954336D01*
X86092366Y-120954486D01*
X86150615Y-120985620D01*
X86150941Y-120985838D01*
X86201990Y-121027733D01*
X86202267Y-121028010D01*
X86244162Y-121079059D01*
X86244380Y-121079385D01*
X86275514Y-121137634D01*
X86275664Y-121137996D01*
X86294836Y-121201196D01*
X86294912Y-121201581D01*
X86301990Y-121273444D01*
X86302000Y-121273640D01*
X86302000Y-121330000D01*
X86301000Y-121331732D01*
X86299000Y-121331732D01*
X86298010Y-121330196D01*
X86290344Y-121252359D01*
X86267695Y-121177696D01*
X86230917Y-121108888D01*
X86181422Y-121048578D01*
X86121112Y-120999083D01*
X86052304Y-120962305D01*
X85977641Y-120939656D01*
X85899804Y-120931990D01*
X85898178Y-120930825D01*
X85898374Y-120928835D01*
X85900000Y-120928000D01*
X85956360Y-120928000D01*
X85956556Y-120928010D01*
G37*
G36*
X116601165Y-120398374D02*
G01*
X116602000Y-120400000D01*
X116602000Y-120456360D01*
X116601990Y-120456556D01*
X116594912Y-120528419D01*
X116594836Y-120528804D01*
X116575664Y-120592004D01*
X116575514Y-120592366D01*
X116544380Y-120650615D01*
X116544162Y-120650941D01*
X116502267Y-120701990D01*
X116501990Y-120702267D01*
X116450941Y-120744162D01*
X116450615Y-120744380D01*
X116392366Y-120775514D01*
X116392004Y-120775664D01*
X116328804Y-120794836D01*
X116328419Y-120794912D01*
X116256556Y-120801990D01*
X116256360Y-120802000D01*
X116200000Y-120802000D01*
X116198268Y-120801000D01*
X116198268Y-120799000D01*
X116199804Y-120798010D01*
X116277641Y-120790344D01*
X116352304Y-120767695D01*
X116421112Y-120730917D01*
X116481422Y-120681422D01*
X116530917Y-120621112D01*
X116567695Y-120552304D01*
X116590344Y-120477641D01*
X116598010Y-120399804D01*
X116599175Y-120398178D01*
X116601165Y-120398374D01*
G37*
G36*
X115001990Y-120399804D02*
G01*
X115009656Y-120477641D01*
X115032305Y-120552304D01*
X115069083Y-120621112D01*
X115118578Y-120681422D01*
X115178888Y-120730917D01*
X115247696Y-120767695D01*
X115322359Y-120790344D01*
X115400196Y-120798010D01*
X115401822Y-120799175D01*
X115401626Y-120801165D01*
X115400000Y-120802000D01*
X115343640Y-120802000D01*
X115343444Y-120801990D01*
X115271581Y-120794912D01*
X115271196Y-120794836D01*
X115207996Y-120775664D01*
X115207634Y-120775514D01*
X115149385Y-120744380D01*
X115149059Y-120744162D01*
X115098010Y-120702267D01*
X115097733Y-120701990D01*
X115055838Y-120650941D01*
X115055620Y-120650615D01*
X115024486Y-120592366D01*
X115024336Y-120592004D01*
X115005164Y-120528804D01*
X115005088Y-120528419D01*
X114998010Y-120456556D01*
X114998000Y-120456360D01*
X114998000Y-120400000D01*
X114999000Y-120398268D01*
X115001000Y-120398268D01*
X115001990Y-120399804D01*
G37*
G36*
X166101732Y-120199000D02*
G01*
X166101732Y-120201000D01*
X166100196Y-120201990D01*
X166022359Y-120209656D01*
X165947696Y-120232305D01*
X165878888Y-120269083D01*
X165818578Y-120318578D01*
X165769083Y-120378888D01*
X165732305Y-120447696D01*
X165709656Y-120522359D01*
X165701990Y-120600196D01*
X165700825Y-120601822D01*
X165698835Y-120601626D01*
X165698000Y-120600000D01*
X165698000Y-120543640D01*
X165698010Y-120543444D01*
X165705088Y-120471581D01*
X165705164Y-120471196D01*
X165724336Y-120407996D01*
X165724486Y-120407634D01*
X165755620Y-120349385D01*
X165755838Y-120349059D01*
X165797733Y-120298010D01*
X165798010Y-120297733D01*
X165849059Y-120255838D01*
X165849385Y-120255620D01*
X165907634Y-120224486D01*
X165907996Y-120224336D01*
X165971196Y-120205164D01*
X165971581Y-120205088D01*
X166043444Y-120198010D01*
X166043640Y-120198000D01*
X166100000Y-120198000D01*
X166101732Y-120199000D01*
G37*
G36*
X166956556Y-120198010D02*
G01*
X167028419Y-120205088D01*
X167028804Y-120205164D01*
X167092004Y-120224336D01*
X167092366Y-120224486D01*
X167150615Y-120255620D01*
X167150941Y-120255838D01*
X167201990Y-120297733D01*
X167202267Y-120298010D01*
X167244162Y-120349059D01*
X167244380Y-120349385D01*
X167275514Y-120407634D01*
X167275664Y-120407996D01*
X167294836Y-120471196D01*
X167294912Y-120471581D01*
X167301990Y-120543444D01*
X167302000Y-120543640D01*
X167302000Y-120600000D01*
X167301000Y-120601732D01*
X167299000Y-120601732D01*
X167298010Y-120600196D01*
X167290344Y-120522359D01*
X167267695Y-120447696D01*
X167230917Y-120378888D01*
X167181422Y-120318578D01*
X167121112Y-120269083D01*
X167052304Y-120232305D01*
X166977641Y-120209656D01*
X166899804Y-120201990D01*
X166898178Y-120200825D01*
X166898374Y-120198835D01*
X166900000Y-120198000D01*
X166956360Y-120198000D01*
X166956556Y-120198010D01*
G37*
G36*
X115401732Y-119199000D02*
G01*
X115401732Y-119201000D01*
X115400196Y-119201990D01*
X115322359Y-119209656D01*
X115247696Y-119232305D01*
X115178888Y-119269083D01*
X115118578Y-119318578D01*
X115069083Y-119378888D01*
X115032305Y-119447696D01*
X115009656Y-119522359D01*
X115001990Y-119600196D01*
X115000825Y-119601822D01*
X114998835Y-119601626D01*
X114998000Y-119600000D01*
X114998000Y-119543640D01*
X114998010Y-119543444D01*
X115005088Y-119471581D01*
X115005164Y-119471196D01*
X115024336Y-119407996D01*
X115024486Y-119407634D01*
X115055620Y-119349385D01*
X115055838Y-119349059D01*
X115097733Y-119298010D01*
X115098010Y-119297733D01*
X115149059Y-119255838D01*
X115149385Y-119255620D01*
X115207634Y-119224486D01*
X115207996Y-119224336D01*
X115271196Y-119205164D01*
X115271581Y-119205088D01*
X115343444Y-119198010D01*
X115343640Y-119198000D01*
X115400000Y-119198000D01*
X115401732Y-119199000D01*
G37*
G36*
X116256556Y-119198010D02*
G01*
X116328419Y-119205088D01*
X116328804Y-119205164D01*
X116392004Y-119224336D01*
X116392366Y-119224486D01*
X116450615Y-119255620D01*
X116450941Y-119255838D01*
X116501990Y-119297733D01*
X116502267Y-119298010D01*
X116544162Y-119349059D01*
X116544380Y-119349385D01*
X116575514Y-119407634D01*
X116575664Y-119407996D01*
X116594836Y-119471196D01*
X116594912Y-119471581D01*
X116601990Y-119543444D01*
X116602000Y-119543640D01*
X116602000Y-119600000D01*
X116601000Y-119601732D01*
X116599000Y-119601732D01*
X116598010Y-119600196D01*
X116590344Y-119522359D01*
X116567695Y-119447696D01*
X116530917Y-119378888D01*
X116481422Y-119318578D01*
X116421112Y-119269083D01*
X116352304Y-119232305D01*
X116277641Y-119209656D01*
X116199804Y-119201990D01*
X116198178Y-119200825D01*
X116198374Y-119198835D01*
X116200000Y-119198000D01*
X116256360Y-119198000D01*
X116256556Y-119198010D01*
G37*
G36*
X139801990Y-105999804D02*
G01*
X139809656Y-106077641D01*
X139832305Y-106152304D01*
X139869083Y-106221112D01*
X139918578Y-106281422D01*
X139978888Y-106330917D01*
X140047696Y-106367695D01*
X140122359Y-106390344D01*
X140200196Y-106398010D01*
X140201822Y-106399175D01*
X140201626Y-106401165D01*
X140200000Y-106402000D01*
X140143640Y-106402000D01*
X140143444Y-106401990D01*
X140071581Y-106394912D01*
X140071196Y-106394836D01*
X140007996Y-106375664D01*
X140007634Y-106375514D01*
X139949385Y-106344380D01*
X139949059Y-106344162D01*
X139898010Y-106302267D01*
X139897733Y-106301990D01*
X139855838Y-106250941D01*
X139855620Y-106250615D01*
X139824486Y-106192366D01*
X139824336Y-106192004D01*
X139805164Y-106128804D01*
X139805088Y-106128419D01*
X139798010Y-106056556D01*
X139798000Y-106056360D01*
X139798000Y-106000000D01*
X139799000Y-105998268D01*
X139801000Y-105998268D01*
X139801990Y-105999804D01*
G37*
G36*
X141401165Y-105998374D02*
G01*
X141402000Y-106000000D01*
X141402000Y-106056360D01*
X141401990Y-106056556D01*
X141394912Y-106128419D01*
X141394836Y-106128804D01*
X141375664Y-106192004D01*
X141375514Y-106192366D01*
X141344380Y-106250615D01*
X141344162Y-106250941D01*
X141302267Y-106301990D01*
X141301990Y-106302267D01*
X141250941Y-106344162D01*
X141250615Y-106344380D01*
X141192366Y-106375514D01*
X141192004Y-106375664D01*
X141128804Y-106394836D01*
X141128419Y-106394912D01*
X141056556Y-106401990D01*
X141056360Y-106402000D01*
X141000000Y-106402000D01*
X140998268Y-106401000D01*
X140998268Y-106399000D01*
X140999804Y-106398010D01*
X141077641Y-106390344D01*
X141152304Y-106367695D01*
X141221112Y-106330917D01*
X141281422Y-106281422D01*
X141330917Y-106221112D01*
X141367695Y-106152304D01*
X141390344Y-106077641D01*
X141398010Y-105999804D01*
X141399175Y-105998178D01*
X141401165Y-105998374D01*
G37*
G36*
X140201732Y-104799000D02*
G01*
X140201732Y-104801000D01*
X140200196Y-104801990D01*
X140122359Y-104809656D01*
X140047696Y-104832305D01*
X139978888Y-104869083D01*
X139918578Y-104918578D01*
X139869083Y-104978888D01*
X139832305Y-105047696D01*
X139809656Y-105122359D01*
X139801990Y-105200196D01*
X139800825Y-105201822D01*
X139798835Y-105201626D01*
X139798000Y-105200000D01*
X139798000Y-105143640D01*
X139798010Y-105143444D01*
X139805088Y-105071581D01*
X139805164Y-105071196D01*
X139824336Y-105007996D01*
X139824486Y-105007634D01*
X139855620Y-104949385D01*
X139855838Y-104949059D01*
X139897733Y-104898010D01*
X139898010Y-104897733D01*
X139949059Y-104855838D01*
X139949385Y-104855620D01*
X140007634Y-104824486D01*
X140007996Y-104824336D01*
X140071196Y-104805164D01*
X140071581Y-104805088D01*
X140143444Y-104798010D01*
X140143640Y-104798000D01*
X140200000Y-104798000D01*
X140201732Y-104799000D01*
G37*
G36*
X141056556Y-104798010D02*
G01*
X141128419Y-104805088D01*
X141128804Y-104805164D01*
X141192004Y-104824336D01*
X141192366Y-104824486D01*
X141250615Y-104855620D01*
X141250941Y-104855838D01*
X141301990Y-104897733D01*
X141302267Y-104898010D01*
X141344162Y-104949059D01*
X141344380Y-104949385D01*
X141375514Y-105007634D01*
X141375664Y-105007996D01*
X141394836Y-105071196D01*
X141394912Y-105071581D01*
X141401990Y-105143444D01*
X141402000Y-105143640D01*
X141402000Y-105200000D01*
X141401000Y-105201732D01*
X141399000Y-105201732D01*
X141398010Y-105200196D01*
X141390344Y-105122359D01*
X141367695Y-105047696D01*
X141330917Y-104978888D01*
X141281422Y-104918578D01*
X141221112Y-104869083D01*
X141152304Y-104832305D01*
X141077641Y-104809656D01*
X140999804Y-104801990D01*
X140998178Y-104800825D01*
X140998374Y-104798835D01*
X141000000Y-104798000D01*
X141056360Y-104798000D01*
X141056556Y-104798010D01*
G37*
G36*
X141401165Y-103498374D02*
G01*
X141402000Y-103500000D01*
X141402000Y-103556360D01*
X141401990Y-103556556D01*
X141394912Y-103628419D01*
X141394836Y-103628804D01*
X141375664Y-103692004D01*
X141375514Y-103692366D01*
X141344380Y-103750615D01*
X141344162Y-103750941D01*
X141302267Y-103801990D01*
X141301990Y-103802267D01*
X141250941Y-103844162D01*
X141250615Y-103844380D01*
X141192366Y-103875514D01*
X141192004Y-103875664D01*
X141128804Y-103894836D01*
X141128419Y-103894912D01*
X141056556Y-103901990D01*
X141056360Y-103902000D01*
X141000000Y-103902000D01*
X140998268Y-103901000D01*
X140998268Y-103899000D01*
X140999804Y-103898010D01*
X141077641Y-103890344D01*
X141152304Y-103867695D01*
X141221112Y-103830917D01*
X141281422Y-103781422D01*
X141330917Y-103721112D01*
X141367695Y-103652304D01*
X141390344Y-103577641D01*
X141398010Y-103499804D01*
X141399175Y-103498178D01*
X141401165Y-103498374D01*
G37*
G36*
X139801990Y-103499804D02*
G01*
X139809656Y-103577641D01*
X139832305Y-103652304D01*
X139869083Y-103721112D01*
X139918578Y-103781422D01*
X139978888Y-103830917D01*
X140047696Y-103867695D01*
X140122359Y-103890344D01*
X140200196Y-103898010D01*
X140201822Y-103899175D01*
X140201626Y-103901165D01*
X140200000Y-103902000D01*
X140143640Y-103902000D01*
X140143444Y-103901990D01*
X140071581Y-103894912D01*
X140071196Y-103894836D01*
X140007996Y-103875664D01*
X140007634Y-103875514D01*
X139949385Y-103844380D01*
X139949059Y-103844162D01*
X139898010Y-103802267D01*
X139897733Y-103801990D01*
X139855838Y-103750941D01*
X139855620Y-103750615D01*
X139824486Y-103692366D01*
X139824336Y-103692004D01*
X139805164Y-103628804D01*
X139805088Y-103628419D01*
X139798010Y-103556556D01*
X139798000Y-103556360D01*
X139798000Y-103500000D01*
X139799000Y-103498268D01*
X139801000Y-103498268D01*
X139801990Y-103499804D01*
G37*
G36*
X140201732Y-102299000D02*
G01*
X140201732Y-102301000D01*
X140200196Y-102301990D01*
X140122359Y-102309656D01*
X140047696Y-102332305D01*
X139978888Y-102369083D01*
X139918578Y-102418578D01*
X139869083Y-102478888D01*
X139832305Y-102547696D01*
X139809656Y-102622359D01*
X139801990Y-102700196D01*
X139800825Y-102701822D01*
X139798835Y-102701626D01*
X139798000Y-102700000D01*
X139798000Y-102643640D01*
X139798010Y-102643444D01*
X139805088Y-102571581D01*
X139805164Y-102571196D01*
X139824336Y-102507996D01*
X139824486Y-102507634D01*
X139855620Y-102449385D01*
X139855838Y-102449059D01*
X139897733Y-102398010D01*
X139898010Y-102397733D01*
X139949059Y-102355838D01*
X139949385Y-102355620D01*
X140007634Y-102324486D01*
X140007996Y-102324336D01*
X140071196Y-102305164D01*
X140071581Y-102305088D01*
X140143444Y-102298010D01*
X140143640Y-102298000D01*
X140200000Y-102298000D01*
X140201732Y-102299000D01*
G37*
G36*
X141056556Y-102298010D02*
G01*
X141128419Y-102305088D01*
X141128804Y-102305164D01*
X141192004Y-102324336D01*
X141192366Y-102324486D01*
X141250615Y-102355620D01*
X141250941Y-102355838D01*
X141301990Y-102397733D01*
X141302267Y-102398010D01*
X141344162Y-102449059D01*
X141344380Y-102449385D01*
X141375514Y-102507634D01*
X141375664Y-102507996D01*
X141394836Y-102571196D01*
X141394912Y-102571581D01*
X141401990Y-102643444D01*
X141402000Y-102643640D01*
X141402000Y-102700000D01*
X141401000Y-102701732D01*
X141399000Y-102701732D01*
X141398010Y-102700196D01*
X141390344Y-102622359D01*
X141367695Y-102547696D01*
X141330917Y-102478888D01*
X141281422Y-102418578D01*
X141221112Y-102369083D01*
X141152304Y-102332305D01*
X141077641Y-102309656D01*
X140999804Y-102301990D01*
X140998178Y-102300825D01*
X140998374Y-102298835D01*
X141000000Y-102298000D01*
X141056360Y-102298000D01*
X141056556Y-102298010D01*
G37*
G36*
X141401165Y-100898374D02*
G01*
X141402000Y-100900000D01*
X141402000Y-100956360D01*
X141401990Y-100956556D01*
X141394912Y-101028419D01*
X141394836Y-101028804D01*
X141375664Y-101092004D01*
X141375514Y-101092366D01*
X141344380Y-101150615D01*
X141344162Y-101150941D01*
X141302267Y-101201990D01*
X141301990Y-101202267D01*
X141250941Y-101244162D01*
X141250615Y-101244380D01*
X141192366Y-101275514D01*
X141192004Y-101275664D01*
X141128804Y-101294836D01*
X141128419Y-101294912D01*
X141056556Y-101301990D01*
X141056360Y-101302000D01*
X141000000Y-101302000D01*
X140998268Y-101301000D01*
X140998268Y-101299000D01*
X140999804Y-101298010D01*
X141077641Y-101290344D01*
X141152304Y-101267695D01*
X141221112Y-101230917D01*
X141281422Y-101181422D01*
X141330917Y-101121112D01*
X141367695Y-101052304D01*
X141390344Y-100977641D01*
X141398010Y-100899804D01*
X141399175Y-100898178D01*
X141401165Y-100898374D01*
G37*
G36*
X139801990Y-100899804D02*
G01*
X139809656Y-100977641D01*
X139832305Y-101052304D01*
X139869083Y-101121112D01*
X139918578Y-101181422D01*
X139978888Y-101230917D01*
X140047696Y-101267695D01*
X140122359Y-101290344D01*
X140200196Y-101298010D01*
X140201822Y-101299175D01*
X140201626Y-101301165D01*
X140200000Y-101302000D01*
X140143640Y-101302000D01*
X140143444Y-101301990D01*
X140071581Y-101294912D01*
X140071196Y-101294836D01*
X140007996Y-101275664D01*
X140007634Y-101275514D01*
X139949385Y-101244380D01*
X139949059Y-101244162D01*
X139898010Y-101202267D01*
X139897733Y-101201990D01*
X139855838Y-101150941D01*
X139855620Y-101150615D01*
X139824486Y-101092366D01*
X139824336Y-101092004D01*
X139805164Y-101028804D01*
X139805088Y-101028419D01*
X139798010Y-100956556D01*
X139798000Y-100956360D01*
X139798000Y-100900000D01*
X139799000Y-100898268D01*
X139801000Y-100898268D01*
X139801990Y-100899804D01*
G37*
G36*
X140201732Y-99699000D02*
G01*
X140201732Y-99701000D01*
X140200196Y-99701990D01*
X140122359Y-99709656D01*
X140047696Y-99732305D01*
X139978888Y-99769083D01*
X139918578Y-99818578D01*
X139869083Y-99878888D01*
X139832305Y-99947696D01*
X139809656Y-100022359D01*
X139801990Y-100100196D01*
X139800825Y-100101822D01*
X139798835Y-100101626D01*
X139798000Y-100100000D01*
X139798000Y-100043640D01*
X139798010Y-100043444D01*
X139805088Y-99971581D01*
X139805164Y-99971196D01*
X139824336Y-99907996D01*
X139824486Y-99907634D01*
X139855620Y-99849385D01*
X139855838Y-99849059D01*
X139897733Y-99798010D01*
X139898010Y-99797733D01*
X139949059Y-99755838D01*
X139949385Y-99755620D01*
X140007634Y-99724486D01*
X140007996Y-99724336D01*
X140071196Y-99705164D01*
X140071581Y-99705088D01*
X140143444Y-99698010D01*
X140143640Y-99698000D01*
X140200000Y-99698000D01*
X140201732Y-99699000D01*
G37*
G36*
X141056556Y-99698010D02*
G01*
X141128419Y-99705088D01*
X141128804Y-99705164D01*
X141192004Y-99724336D01*
X141192366Y-99724486D01*
X141250615Y-99755620D01*
X141250941Y-99755838D01*
X141301990Y-99797733D01*
X141302267Y-99798010D01*
X141344162Y-99849059D01*
X141344380Y-99849385D01*
X141375514Y-99907634D01*
X141375664Y-99907996D01*
X141394836Y-99971196D01*
X141394912Y-99971581D01*
X141401990Y-100043444D01*
X141402000Y-100043640D01*
X141402000Y-100100000D01*
X141401000Y-100101732D01*
X141399000Y-100101732D01*
X141398010Y-100100196D01*
X141390344Y-100022359D01*
X141367695Y-99947696D01*
X141330917Y-99878888D01*
X141281422Y-99818578D01*
X141221112Y-99769083D01*
X141152304Y-99732305D01*
X141077641Y-99709656D01*
X140999804Y-99701990D01*
X140998178Y-99700825D01*
X140998374Y-99698835D01*
X141000000Y-99698000D01*
X141056360Y-99698000D01*
X141056556Y-99698010D01*
G37*
G36*
X141401165Y-98398374D02*
G01*
X141402000Y-98400000D01*
X141402000Y-98456360D01*
X141401990Y-98456556D01*
X141394912Y-98528419D01*
X141394836Y-98528804D01*
X141375664Y-98592004D01*
X141375514Y-98592366D01*
X141344380Y-98650615D01*
X141344162Y-98650941D01*
X141302267Y-98701990D01*
X141301990Y-98702267D01*
X141250941Y-98744162D01*
X141250615Y-98744380D01*
X141192366Y-98775514D01*
X141192004Y-98775664D01*
X141128804Y-98794836D01*
X141128419Y-98794912D01*
X141056556Y-98801990D01*
X141056360Y-98802000D01*
X141000000Y-98802000D01*
X140998268Y-98801000D01*
X140998268Y-98799000D01*
X140999804Y-98798010D01*
X141077641Y-98790344D01*
X141152304Y-98767695D01*
X141221112Y-98730917D01*
X141281422Y-98681422D01*
X141330917Y-98621112D01*
X141367695Y-98552304D01*
X141390344Y-98477641D01*
X141398010Y-98399804D01*
X141399175Y-98398178D01*
X141401165Y-98398374D01*
G37*
G36*
X139801990Y-98399804D02*
G01*
X139809656Y-98477641D01*
X139832305Y-98552304D01*
X139869083Y-98621112D01*
X139918578Y-98681422D01*
X139978888Y-98730917D01*
X140047696Y-98767695D01*
X140122359Y-98790344D01*
X140200196Y-98798010D01*
X140201822Y-98799175D01*
X140201626Y-98801165D01*
X140200000Y-98802000D01*
X140143640Y-98802000D01*
X140143444Y-98801990D01*
X140071581Y-98794912D01*
X140071196Y-98794836D01*
X140007996Y-98775664D01*
X140007634Y-98775514D01*
X139949385Y-98744380D01*
X139949059Y-98744162D01*
X139898010Y-98702267D01*
X139897733Y-98701990D01*
X139855838Y-98650941D01*
X139855620Y-98650615D01*
X139824486Y-98592366D01*
X139824336Y-98592004D01*
X139805164Y-98528804D01*
X139805088Y-98528419D01*
X139798010Y-98456556D01*
X139798000Y-98456360D01*
X139798000Y-98400000D01*
X139799000Y-98398268D01*
X139801000Y-98398268D01*
X139801990Y-98399804D01*
G37*
G36*
X140201732Y-97199000D02*
G01*
X140201732Y-97201000D01*
X140200196Y-97201990D01*
X140122359Y-97209656D01*
X140047696Y-97232305D01*
X139978888Y-97269083D01*
X139918578Y-97318578D01*
X139869083Y-97378888D01*
X139832305Y-97447696D01*
X139809656Y-97522359D01*
X139801990Y-97600196D01*
X139800825Y-97601822D01*
X139798835Y-97601626D01*
X139798000Y-97600000D01*
X139798000Y-97543640D01*
X139798010Y-97543444D01*
X139805088Y-97471581D01*
X139805164Y-97471196D01*
X139824336Y-97407996D01*
X139824486Y-97407634D01*
X139855620Y-97349385D01*
X139855838Y-97349059D01*
X139897733Y-97298010D01*
X139898010Y-97297733D01*
X139949059Y-97255838D01*
X139949385Y-97255620D01*
X140007634Y-97224486D01*
X140007996Y-97224336D01*
X140071196Y-97205164D01*
X140071581Y-97205088D01*
X140143444Y-97198010D01*
X140143640Y-97198000D01*
X140200000Y-97198000D01*
X140201732Y-97199000D01*
G37*
G36*
X141056556Y-97198010D02*
G01*
X141128419Y-97205088D01*
X141128804Y-97205164D01*
X141192004Y-97224336D01*
X141192366Y-97224486D01*
X141250615Y-97255620D01*
X141250941Y-97255838D01*
X141301990Y-97297733D01*
X141302267Y-97298010D01*
X141344162Y-97349059D01*
X141344380Y-97349385D01*
X141375514Y-97407634D01*
X141375664Y-97407996D01*
X141394836Y-97471196D01*
X141394912Y-97471581D01*
X141401990Y-97543444D01*
X141402000Y-97543640D01*
X141402000Y-97600000D01*
X141401000Y-97601732D01*
X141399000Y-97601732D01*
X141398010Y-97600196D01*
X141390344Y-97522359D01*
X141367695Y-97447696D01*
X141330917Y-97378888D01*
X141281422Y-97318578D01*
X141221112Y-97269083D01*
X141152304Y-97232305D01*
X141077641Y-97209656D01*
X140999804Y-97201990D01*
X140998178Y-97200825D01*
X140998374Y-97198835D01*
X141000000Y-97198000D01*
X141056360Y-97198000D01*
X141056556Y-97198010D01*
G37*
G36*
X167301165Y-95898374D02*
G01*
X167302000Y-95900000D01*
X167302000Y-95956360D01*
X167301990Y-95956556D01*
X167294912Y-96028419D01*
X167294836Y-96028804D01*
X167275664Y-96092004D01*
X167275514Y-96092366D01*
X167244380Y-96150615D01*
X167244162Y-96150941D01*
X167202267Y-96201990D01*
X167201990Y-96202267D01*
X167150941Y-96244162D01*
X167150615Y-96244380D01*
X167092366Y-96275514D01*
X167092004Y-96275664D01*
X167028804Y-96294836D01*
X167028419Y-96294912D01*
X166956556Y-96301990D01*
X166956360Y-96302000D01*
X166900000Y-96302000D01*
X166898268Y-96301000D01*
X166898268Y-96299000D01*
X166899804Y-96298010D01*
X166977641Y-96290344D01*
X167052304Y-96267695D01*
X167121112Y-96230917D01*
X167181422Y-96181422D01*
X167230917Y-96121112D01*
X167267695Y-96052304D01*
X167290344Y-95977641D01*
X167298010Y-95899804D01*
X167299175Y-95898178D01*
X167301165Y-95898374D01*
G37*
G36*
X165701990Y-95899804D02*
G01*
X165709656Y-95977641D01*
X165732305Y-96052304D01*
X165769083Y-96121112D01*
X165818578Y-96181422D01*
X165878888Y-96230917D01*
X165947696Y-96267695D01*
X166022359Y-96290344D01*
X166100196Y-96298010D01*
X166101822Y-96299175D01*
X166101626Y-96301165D01*
X166100000Y-96302000D01*
X166043640Y-96302000D01*
X166043444Y-96301990D01*
X165971581Y-96294912D01*
X165971196Y-96294836D01*
X165907996Y-96275664D01*
X165907634Y-96275514D01*
X165849385Y-96244380D01*
X165849059Y-96244162D01*
X165798010Y-96202267D01*
X165797733Y-96201990D01*
X165755838Y-96150941D01*
X165755620Y-96150615D01*
X165724486Y-96092366D01*
X165724336Y-96092004D01*
X165705164Y-96028804D01*
X165705088Y-96028419D01*
X165698010Y-95956556D01*
X165698000Y-95956360D01*
X165698000Y-95900000D01*
X165699000Y-95898268D01*
X165701000Y-95898268D01*
X165701990Y-95899804D01*
G37*
G36*
X139301165Y-95015287D02*
G01*
X139302000Y-95016913D01*
X139302000Y-95799906D01*
X139309656Y-95877641D01*
X139332305Y-95952304D01*
X139369083Y-96021112D01*
X139418578Y-96081422D01*
X139478888Y-96130917D01*
X139547696Y-96167695D01*
X139622359Y-96190344D01*
X139700196Y-96198010D01*
X139701822Y-96199175D01*
X139701626Y-96201165D01*
X139700000Y-96202000D01*
X139643640Y-96202000D01*
X139643444Y-96201990D01*
X139571581Y-96194912D01*
X139571196Y-96194836D01*
X139507996Y-96175664D01*
X139507634Y-96175514D01*
X139449385Y-96144380D01*
X139449059Y-96144162D01*
X139398010Y-96102267D01*
X139397733Y-96101990D01*
X139355838Y-96050941D01*
X139355620Y-96050615D01*
X139324486Y-95992366D01*
X139324336Y-95992004D01*
X139305164Y-95928804D01*
X139305088Y-95928419D01*
X139297465Y-95851023D01*
X139292741Y-95827271D01*
X139283514Y-95804997D01*
X139270120Y-95784950D01*
X139253073Y-95767903D01*
X139233025Y-95754508D01*
X139210751Y-95745281D01*
X139187101Y-95740577D01*
X139162995Y-95740577D01*
X139139345Y-95745281D01*
X139117071Y-95754508D01*
X139097024Y-95767902D01*
X139080011Y-95784915D01*
X139063388Y-95812647D01*
X139061640Y-95813619D01*
X139059925Y-95812590D01*
X139059825Y-95810854D01*
X139111475Y-95686160D01*
X139143907Y-95523116D01*
X139143907Y-95356884D01*
X139111475Y-95193840D01*
X139060565Y-95070931D01*
X139060826Y-95068948D01*
X139062674Y-95068183D01*
X139064177Y-95069223D01*
X139072740Y-95085243D01*
X139088035Y-95103880D01*
X139106672Y-95119175D01*
X139127936Y-95130540D01*
X139151011Y-95137540D01*
X139175002Y-95139903D01*
X139198993Y-95137540D01*
X139222068Y-95130540D01*
X139243331Y-95119174D01*
X139261968Y-95103879D01*
X139277263Y-95085242D01*
X139288628Y-95063978D01*
X139295628Y-95040903D01*
X139298010Y-95016717D01*
X139299175Y-95015091D01*
X139301165Y-95015287D01*
G37*
G36*
X140901165Y-95798374D02*
G01*
X140902000Y-95800000D01*
X140902000Y-95856360D01*
X140901990Y-95856556D01*
X140894912Y-95928419D01*
X140894836Y-95928804D01*
X140875664Y-95992004D01*
X140875514Y-95992366D01*
X140844380Y-96050615D01*
X140844162Y-96050941D01*
X140802267Y-96101990D01*
X140801990Y-96102267D01*
X140750941Y-96144162D01*
X140750615Y-96144380D01*
X140692366Y-96175514D01*
X140692004Y-96175664D01*
X140628804Y-96194836D01*
X140628419Y-96194912D01*
X140556556Y-96201990D01*
X140556360Y-96202000D01*
X140500000Y-96202000D01*
X140498268Y-96201000D01*
X140498268Y-96199000D01*
X140499804Y-96198010D01*
X140577641Y-96190344D01*
X140652304Y-96167695D01*
X140721112Y-96130917D01*
X140781422Y-96081422D01*
X140830917Y-96021112D01*
X140867695Y-95952304D01*
X140890344Y-95877641D01*
X140898010Y-95799804D01*
X140899175Y-95798178D01*
X140901165Y-95798374D01*
G37*
G36*
X166101732Y-94699000D02*
G01*
X166101732Y-94701000D01*
X166100196Y-94701990D01*
X166022359Y-94709656D01*
X165947696Y-94732305D01*
X165878888Y-94769083D01*
X165818578Y-94818578D01*
X165769083Y-94878888D01*
X165732305Y-94947696D01*
X165709656Y-95022359D01*
X165701990Y-95100196D01*
X165700825Y-95101822D01*
X165698835Y-95101626D01*
X165698000Y-95100000D01*
X165698000Y-95043640D01*
X165698010Y-95043444D01*
X165705088Y-94971581D01*
X165705164Y-94971196D01*
X165724336Y-94907996D01*
X165724486Y-94907634D01*
X165755620Y-94849385D01*
X165755838Y-94849059D01*
X165797733Y-94798010D01*
X165798010Y-94797733D01*
X165849059Y-94755838D01*
X165849385Y-94755620D01*
X165907634Y-94724486D01*
X165907996Y-94724336D01*
X165971196Y-94705164D01*
X165971581Y-94705088D01*
X166043444Y-94698010D01*
X166043640Y-94698000D01*
X166100000Y-94698000D01*
X166101732Y-94699000D01*
G37*
G36*
X166956556Y-94698010D02*
G01*
X167028419Y-94705088D01*
X167028804Y-94705164D01*
X167092004Y-94724336D01*
X167092366Y-94724486D01*
X167150615Y-94755620D01*
X167150941Y-94755838D01*
X167201990Y-94797733D01*
X167202267Y-94798010D01*
X167244162Y-94849059D01*
X167244380Y-94849385D01*
X167275514Y-94907634D01*
X167275664Y-94907996D01*
X167294836Y-94971196D01*
X167294912Y-94971581D01*
X167301990Y-95043444D01*
X167302000Y-95043640D01*
X167302000Y-95100000D01*
X167301000Y-95101732D01*
X167299000Y-95101732D01*
X167298010Y-95100196D01*
X167290344Y-95022359D01*
X167267695Y-94947696D01*
X167230917Y-94878888D01*
X167181422Y-94818578D01*
X167121112Y-94769083D01*
X167052304Y-94732305D01*
X166977641Y-94709656D01*
X166899804Y-94701990D01*
X166898178Y-94700825D01*
X166898374Y-94698835D01*
X166900000Y-94698000D01*
X166956360Y-94698000D01*
X166956556Y-94698010D01*
G37*
G36*
X139701732Y-94599000D02*
G01*
X139701732Y-94601000D01*
X139700196Y-94601990D01*
X139622359Y-94609656D01*
X139547696Y-94632305D01*
X139478888Y-94669083D01*
X139418578Y-94718578D01*
X139369083Y-94778888D01*
X139332305Y-94847696D01*
X139309656Y-94922359D01*
X139301990Y-95000196D01*
X139300825Y-95001822D01*
X139298835Y-95001626D01*
X139298000Y-95000000D01*
X139298000Y-94943640D01*
X139298010Y-94943444D01*
X139305088Y-94871581D01*
X139305164Y-94871196D01*
X139324336Y-94807996D01*
X139324486Y-94807634D01*
X139355620Y-94749385D01*
X139355838Y-94749059D01*
X139397733Y-94698010D01*
X139398010Y-94697733D01*
X139449059Y-94655838D01*
X139449385Y-94655620D01*
X139507634Y-94624486D01*
X139507996Y-94624336D01*
X139571196Y-94605164D01*
X139571581Y-94605088D01*
X139643444Y-94598010D01*
X139643640Y-94598000D01*
X139700000Y-94598000D01*
X139701732Y-94599000D01*
G37*
G36*
X140556556Y-94598010D02*
G01*
X140628419Y-94605088D01*
X140628804Y-94605164D01*
X140692004Y-94624336D01*
X140692366Y-94624486D01*
X140750615Y-94655620D01*
X140750941Y-94655838D01*
X140801990Y-94697733D01*
X140802267Y-94698010D01*
X140844162Y-94749059D01*
X140844380Y-94749385D01*
X140875514Y-94807634D01*
X140875664Y-94807996D01*
X140894836Y-94871196D01*
X140894912Y-94871581D01*
X140901990Y-94943444D01*
X140902000Y-94943640D01*
X140902000Y-95000000D01*
X140901000Y-95001732D01*
X140899000Y-95001732D01*
X140898010Y-95000196D01*
X140890344Y-94922359D01*
X140867695Y-94847696D01*
X140830917Y-94778888D01*
X140781422Y-94718578D01*
X140721112Y-94669083D01*
X140652304Y-94632305D01*
X140577641Y-94609656D01*
X140499804Y-94601990D01*
X140498178Y-94600825D01*
X140498374Y-94598835D01*
X140500000Y-94598000D01*
X140556360Y-94598000D01*
X140556556Y-94598010D01*
G37*
M02*
